M48
INCH,TZ
T1C0.0157
T2C0.0315
T3C0.0354
T4C0.0394
T5C0.1200
%
G90
G05
T1
X48250Y-43050
X51400Y-43100
X52350Y-40250
X52800Y-43200
X53100Y-31250
X53100Y-31750
X53100Y-32750
X53350Y-40250
X53600Y-42500
X54350Y-40250
X55350Y-40250
X55350Y-42854
X55850Y-38500
X56149Y-32299
X56300Y-43100
X56350Y-38750
X56350Y-40250
X56850Y-32500
X57100Y-32750
X57100Y-42804
X57350Y-39000
X57850Y-32750
X58350Y-39250
X58350Y-43050
X58850Y-27250
X58850Y-28250
X59350Y-39500
X59600Y-42350
X60250Y-43650
X60600Y-39500
X60600Y-42350
X61250Y-43850
X61600Y-42550
X62250Y-43850
X62350Y-39750
X64250Y-43650
X64350Y-37500
X64350Y-40000
X64582Y-39500
X64828Y-38500
X65100Y-37750
X65243Y-42794
X65372Y-37500
X65372Y-39500
X69250Y-43050
T2
X66600Y-39281
X66600Y-41250
X66600Y-31281
X66600Y-33250
X61100Y-29250
X65100Y-29250
X48600Y-32250
X52600Y-32250
X54350Y-29500
X54350Y-33500
X48600Y-30750
X52600Y-30750
X52100Y-35250
X52100Y-41250
X53100Y-35250
X53100Y-41250
X54100Y-35250
X54100Y-41250
X55100Y-35250
X55100Y-41250
X56100Y-35250
X56100Y-41250
X57100Y-35250
X57100Y-41250
X58100Y-35250
X58100Y-41250
X59100Y-35250
X59100Y-41250
X60100Y-35250
X60100Y-41250
X61100Y-35250
X61100Y-41250
X62100Y-35250
X62100Y-41250
X63100Y-35250
X63100Y-41250
X64100Y-35250
X64100Y-41250
X65100Y-35250
X65100Y-41250
X48600Y-33750
X52600Y-33750
X48600Y-29250
X52600Y-29250
X56100Y-29250
X60100Y-29250
X50600Y-35250
X50600Y-39250
X66600Y-34250
X66600Y-38250
X56100Y-30750
X56100Y-33750
X57100Y-30750
X57100Y-33750
X58100Y-30750
X58100Y-33750
X59100Y-30750
X59100Y-33750
X60100Y-30750
X60100Y-33750
X61100Y-30750
X61100Y-33750
X62100Y-30750
X62100Y-33750
X63100Y-30750
X63100Y-33750
X64100Y-30750
X64100Y-33750
X65100Y-30750
X65100Y-33750
T3
X53850Y-26000
X53850Y-27000
X59850Y-24250
X59850Y-25250
X57850Y-26000
X57850Y-27000
X51850Y-24250
X51850Y-25250
X63850Y-24250
X63850Y-25250
X61850Y-26000
X61850Y-27000
X65850Y-26000
X65850Y-27000
X55850Y-24250
X55850Y-25250
T4
X50350Y-41500
X50350Y-42500
T5
X68902Y-39500
X48600Y-39500
X48600Y-24500
X68902Y-24500
T0
M30
