%TF.GenerationSoftware,KiCad,Pcbnew,(5.1.8)-1*%
%TF.CreationDate,2021-03-23T23:23:57+01:00*%
%TF.ProjectId,ZX Diagnostic 2021,5a582044-6961-4676-9e6f-737469632032,rev?*%
%TF.SameCoordinates,Original*%
%TF.FileFunction,Soldermask,Top*%
%TF.FilePolarity,Negative*%
%FSLAX46Y46*%
G04 Gerber Fmt 4.6, Leading zero omitted, Abs format (unit mm)*
G04 Created by KiCad (PCBNEW (5.1.8)-1) date 2021-03-23 23:23:57*
%MOMM*%
%LPD*%
G01*
G04 APERTURE LIST*
%ADD10C,1.600000*%
%ADD11O,1.600000X1.600000*%
%ADD12R,1.600000X2.400000*%
%ADD13O,1.600000X2.400000*%
%ADD14C,5.100000*%
%ADD15C,1.800000*%
%ADD16R,1.800000X1.800000*%
%ADD17O,2.000000X1.500000*%
%ADD18R,2.000000X1.500000*%
%ADD19O,1.700000X1.700000*%
%ADD20R,1.700000X1.700000*%
%ADD21C,0.254000*%
%ADD22C,0.100000*%
G04 APERTURE END LIST*
D10*
%TO.C,R1*%
X165354000Y-74295000D03*
D11*
X155194000Y-74295000D03*
%TD*%
D10*
%TO.C,R2*%
X152654000Y-74295000D03*
D11*
X142494000Y-74295000D03*
%TD*%
D12*
%TO.C,U1*%
X165354000Y-89535000D03*
D13*
X132334000Y-104775000D03*
X162814000Y-89535000D03*
X134874000Y-104775000D03*
X160274000Y-89535000D03*
X137414000Y-104775000D03*
X157734000Y-89535000D03*
X139954000Y-104775000D03*
X155194000Y-89535000D03*
X142494000Y-104775000D03*
X152654000Y-89535000D03*
X145034000Y-104775000D03*
X150114000Y-89535000D03*
X147574000Y-104775000D03*
X147574000Y-89535000D03*
X150114000Y-104775000D03*
X145034000Y-89535000D03*
X152654000Y-104775000D03*
X142494000Y-89535000D03*
X155194000Y-104775000D03*
X139954000Y-89535000D03*
X157734000Y-104775000D03*
X137414000Y-89535000D03*
X160274000Y-104775000D03*
X134874000Y-89535000D03*
X162814000Y-104775000D03*
X132334000Y-89535000D03*
X165354000Y-104775000D03*
%TD*%
D14*
%TO.C,M2*%
X175011000Y-100330000D03*
%TD*%
%TO.C,M3*%
X175011000Y-62230000D03*
%TD*%
%TO.C,M4*%
X123444000Y-62230000D03*
%TD*%
D10*
%TO.C,C1*%
X169164000Y-104775000D03*
X169164000Y-99775000D03*
%TD*%
D15*
%TO.C,D1*%
X167259000Y-66040000D03*
D16*
X167259000Y-68580000D03*
%TD*%
%TO.C,D2*%
X162179000Y-64135000D03*
D15*
X162179000Y-61595000D03*
%TD*%
%TO.C,D3*%
X157099000Y-66040000D03*
D16*
X157099000Y-68580000D03*
%TD*%
D15*
%TO.C,D4*%
X152019000Y-61595000D03*
D16*
X152019000Y-64135000D03*
%TD*%
%TO.C,D5*%
X146939000Y-68580000D03*
D15*
X146939000Y-66040000D03*
%TD*%
D16*
%TO.C,D6*%
X141859000Y-64135000D03*
D15*
X141859000Y-61595000D03*
%TD*%
D16*
%TO.C,D7*%
X136779000Y-68580000D03*
D15*
X136779000Y-66040000D03*
%TD*%
%TO.C,D8*%
X131699000Y-61595000D03*
D16*
X131699000Y-64135000D03*
%TD*%
D11*
%TO.C,R3*%
X138049000Y-85090000D03*
D10*
X138049000Y-74930000D03*
%TD*%
D11*
%TO.C,R4*%
X128524000Y-99695000D03*
D10*
X128524000Y-89535000D03*
%TD*%
%TO.C,R5*%
X133604000Y-74295000D03*
D11*
X123444000Y-74295000D03*
%TD*%
%TO.C,R6*%
X123444000Y-78105000D03*
D10*
X133604000Y-78105000D03*
%TD*%
%TO.C,R7*%
X133604000Y-81915000D03*
D11*
X123444000Y-81915000D03*
%TD*%
%TO.C,R8*%
X123444000Y-85725000D03*
D10*
X133604000Y-85725000D03*
%TD*%
D12*
%TO.C,U2*%
X165354000Y-78105000D03*
D13*
X142494000Y-85725000D03*
X162814000Y-78105000D03*
X145034000Y-85725000D03*
X160274000Y-78105000D03*
X147574000Y-85725000D03*
X157734000Y-78105000D03*
X150114000Y-85725000D03*
X155194000Y-78105000D03*
X152654000Y-85725000D03*
X152654000Y-78105000D03*
X155194000Y-85725000D03*
X150114000Y-78105000D03*
X157734000Y-85725000D03*
X147574000Y-78105000D03*
X160274000Y-85725000D03*
X145034000Y-78105000D03*
X162814000Y-85725000D03*
X142494000Y-78105000D03*
X165354000Y-85725000D03*
%TD*%
D10*
%TO.C,C2*%
X169164000Y-84455000D03*
X169164000Y-79455000D03*
%TD*%
D17*
%TO.C,JP1*%
X161544000Y-95250000D03*
X161544000Y-97155000D03*
D18*
X161544000Y-99060000D03*
%TD*%
%TO.C,JP2*%
X157734000Y-99060000D03*
D17*
X157734000Y-97155000D03*
X157734000Y-95250000D03*
%TD*%
D19*
%TO.C,JP3*%
X127889000Y-105410000D03*
D20*
X127889000Y-107950000D03*
%TD*%
D10*
%TO.C,R9*%
X169164000Y-97155000D03*
D11*
X169164000Y-86995000D03*
%TD*%
D14*
%TO.C,M1*%
X123444000Y-100330000D03*
%TD*%
D21*
X146558000Y-120396000D02*
X146538665Y-120493202D01*
X146501783Y-120548400D01*
X120850803Y-120548400D01*
X120720541Y-120478773D01*
X120566580Y-120352420D01*
X120440227Y-120198459D01*
X120370600Y-120068197D01*
X120370600Y-111887000D01*
X146558000Y-111887000D01*
X146558000Y-120396000D01*
D22*
G36*
X146558000Y-120396000D02*
G01*
X146538665Y-120493202D01*
X146501783Y-120548400D01*
X120850803Y-120548400D01*
X120720541Y-120478773D01*
X120566580Y-120352420D01*
X120440227Y-120198459D01*
X120370600Y-120068197D01*
X120370600Y-111887000D01*
X146558000Y-111887000D01*
X146558000Y-120396000D01*
G37*
D21*
X159258000Y-120396000D02*
X159238665Y-120493202D01*
X159201783Y-120548400D01*
X149408217Y-120548400D01*
X149371335Y-120493202D01*
X149352000Y-120396000D01*
X149352000Y-111887000D01*
X159258000Y-111887000D01*
X159258000Y-120396000D01*
D22*
G36*
X159258000Y-120396000D02*
G01*
X159238665Y-120493202D01*
X159201783Y-120548400D01*
X149408217Y-120548400D01*
X149371335Y-120493202D01*
X149352000Y-120396000D01*
X149352000Y-111887000D01*
X159258000Y-111887000D01*
X159258000Y-120396000D01*
G37*
D21*
X178079400Y-120068197D02*
X178009773Y-120198459D01*
X177883420Y-120352420D01*
X177729459Y-120478773D01*
X177599197Y-120548400D01*
X162108217Y-120548400D01*
X162071335Y-120493202D01*
X162052000Y-120396000D01*
X162052000Y-111887000D01*
X178079400Y-111887000D01*
X178079400Y-120068197D01*
D22*
G36*
X178079400Y-120068197D02*
G01*
X178009773Y-120198459D01*
X177883420Y-120352420D01*
X177729459Y-120478773D01*
X177599197Y-120548400D01*
X162108217Y-120548400D01*
X162071335Y-120493202D01*
X162052000Y-120396000D01*
X162052000Y-111887000D01*
X178079400Y-111887000D01*
X178079400Y-120068197D01*
G37*
M02*
