%TF.GenerationSoftware,KiCad,Pcbnew,(5.1.8)-1*%
%TF.CreationDate,2021-03-23T23:23:57+01:00*%
%TF.ProjectId,ZX Diagnostic 2021,5a582044-6961-4676-9e6f-737469632032,rev?*%
%TF.SameCoordinates,Original*%
%TF.FileFunction,Profile,NP*%
%FSLAX46Y46*%
G04 Gerber Fmt 4.6, Leading zero omitted, Abs format (unit mm)*
G04 Created by KiCad (PCBNEW (5.1.8)-1) date 2021-03-23 23:23:57*
%MOMM*%
%LPD*%
G01*
G04 APERTURE LIST*
%TA.AperFunction,Profile*%
%ADD10C,0.025400*%
%TD*%
G04 APERTURE END LIST*
D10*
X120269000Y-67945000D02*
X120269000Y-62230000D01*
X120269001Y-67945000D02*
G75*
G02*
X120269001Y-80645000I-15240000J-6350001D01*
G01*
X123444000Y-59055000D02*
X175006000Y-59055000D01*
X175006000Y-59055000D02*
G75*
G02*
X178181000Y-62230000I0J-3175000D01*
G01*
X120269000Y-62230000D02*
G75*
G02*
X123444000Y-59055000I3175000J0D01*
G01*
X162306000Y-120650000D02*
X177165000Y-120650000D01*
X149606000Y-120650000D02*
X159004000Y-120650000D01*
X162052000Y-111887000D02*
X162052000Y-120396000D01*
X159258000Y-120396000D02*
X159258000Y-111887000D01*
X161798000Y-111633000D02*
G75*
G02*
X162052000Y-111887000I0J-254000D01*
G01*
X162306000Y-120650000D02*
G75*
G02*
X162052000Y-120396000I0J254000D01*
G01*
X159258000Y-111887000D02*
G75*
G02*
X159512000Y-111633000I254000J0D01*
G01*
X159258000Y-120396000D02*
G75*
G02*
X159004000Y-120650000I-254000J0D01*
G01*
X159512000Y-111633000D02*
X161798000Y-111633000D01*
X146304000Y-120650000D02*
X121285000Y-120650000D01*
X149352000Y-111887000D02*
X149352000Y-120396000D01*
X146812000Y-111633000D02*
X149098000Y-111633000D01*
X146558000Y-120396000D02*
X146558000Y-111887000D01*
X146558000Y-120396000D02*
G75*
G02*
X146304000Y-120650000I-254000J0D01*
G01*
X146558000Y-111887000D02*
G75*
G02*
X146812000Y-111633000I254000J0D01*
G01*
X149098000Y-111633000D02*
G75*
G02*
X149352000Y-111887000I0J-254000D01*
G01*
X149606000Y-120650000D02*
G75*
G02*
X149352000Y-120396000I0J254000D01*
G01*
X178181000Y-62230000D02*
X178181000Y-119253000D01*
X120269000Y-119253000D02*
X120269000Y-119634000D01*
X120269000Y-119634000D02*
G75*
G03*
X121285000Y-120650000I1016000J0D01*
G01*
X178181000Y-119634000D02*
X178181000Y-119253000D01*
X177165000Y-120650000D02*
G75*
G03*
X178181000Y-119634000I0J1016000D01*
G01*
X120269001Y-80645000D02*
X120269000Y-119253000D01*
M02*
