%TF.GenerationSoftware,KiCad,Pcbnew,(5.1.8)-1*%
%TF.CreationDate,2021-04-11T21:34:39+02:00*%
%TF.ProjectId,ZX Diagnostic 2021,5a582044-6961-4676-9e6f-737469632032,rev?*%
%TF.SameCoordinates,Original*%
%TF.FileFunction,Copper,L1,Top*%
%TF.FilePolarity,Positive*%
%FSLAX46Y46*%
G04 Gerber Fmt 4.6, Leading zero omitted, Abs format (unit mm)*
G04 Created by KiCad (PCBNEW (5.1.8)-1) date 2021-04-11 21:34:39*
%MOMM*%
%LPD*%
G01*
G04 APERTURE LIST*
%TA.AperFunction,ConnectorPad*%
%ADD10R,1.500000X8.000000*%
%TD*%
%TA.AperFunction,ComponentPad*%
%ADD11C,1.600000*%
%TD*%
%TA.AperFunction,ComponentPad*%
%ADD12O,1.600000X1.600000*%
%TD*%
%TA.AperFunction,ComponentPad*%
%ADD13R,1.600000X2.400000*%
%TD*%
%TA.AperFunction,ComponentPad*%
%ADD14O,1.600000X2.400000*%
%TD*%
%TA.AperFunction,ComponentPad*%
%ADD15C,3.500000*%
%TD*%
%TA.AperFunction,ComponentPad*%
%ADD16C,1.800000*%
%TD*%
%TA.AperFunction,ComponentPad*%
%ADD17R,1.800000X1.800000*%
%TD*%
%TA.AperFunction,SMDPad,CuDef*%
%ADD18O,2.000000X1.500000*%
%TD*%
%TA.AperFunction,SMDPad,CuDef*%
%ADD19R,2.000000X1.500000*%
%TD*%
%TA.AperFunction,ComponentPad*%
%ADD20O,1.700000X1.700000*%
%TD*%
%TA.AperFunction,ComponentPad*%
%ADD21R,1.700000X1.700000*%
%TD*%
%TA.AperFunction,ViaPad*%
%ADD22C,0.600000*%
%TD*%
%TA.AperFunction,Conductor*%
%ADD23C,0.250000*%
%TD*%
%TA.AperFunction,Conductor*%
%ADD24C,0.381000*%
%TD*%
G04 APERTURE END LIST*
D10*
%TO.P,J1,A22*%
%TO.N,OUT_63*%
X175895000Y-116078000D03*
%TO.P,J1,A21*%
%TO.N,N/C*%
X173355000Y-116078000D03*
%TO.P,J1,A20*%
X170815000Y-116078000D03*
%TO.P,J1,A19*%
X168275000Y-116078000D03*
%TO.P,J1,A18*%
%TO.N,/~ROM_0*%
X165735000Y-116078000D03*
%TO.P,J1,A17*%
%TO.N,/~ROM_OE*%
X163195000Y-116078000D03*
%TO.P,J1,A15*%
%TO.N,VCC*%
X158115000Y-116078000D03*
%TO.P,J1,A14*%
%TO.N,N/C*%
X155575000Y-116078000D03*
%TO.P,J1,A13*%
%TO.N,/A13*%
X153035000Y-116078000D03*
%TO.P,J1,A12*%
%TO.N,/A8*%
X150495000Y-116078000D03*
%TO.P,J1,A10*%
%TO.N,/A9*%
X145415000Y-116078000D03*
%TO.P,J1,A9*%
%TO.N,/A11*%
X142875000Y-116078000D03*
%TO.P,J1,A8*%
%TO.N,N/C*%
X140335000Y-116078000D03*
%TO.P,J1,A7*%
%TO.N,/A10*%
X137795000Y-116078000D03*
%TO.P,J1,A6*%
%TO.N,N/C*%
X135255000Y-116078000D03*
%TO.P,J1,A5*%
%TO.N,/D7*%
X132715000Y-116078000D03*
%TO.P,J1,A4*%
%TO.N,/D6*%
X130175000Y-116078000D03*
%TO.P,J1,A3*%
%TO.N,/D5*%
X127635000Y-116078000D03*
%TO.P,J1,A2*%
%TO.N,/D4*%
X125095000Y-116078000D03*
%TO.P,J1,A1*%
%TO.N,/D3*%
X122555000Y-116078000D03*
%TD*%
D11*
%TO.P,R1,1*%
%TO.N,Net-(D1-Pad1)*%
X165354000Y-74295000D03*
D12*
%TO.P,R1,2*%
%TO.N,GND*%
X155194000Y-74295000D03*
%TD*%
D11*
%TO.P,R2,1*%
%TO.N,Net-(D2-Pad1)*%
X152654000Y-74295000D03*
D12*
%TO.P,R2,2*%
%TO.N,GND*%
X142494000Y-74295000D03*
%TD*%
D13*
%TO.P,U1,1*%
%TO.N,/BA15*%
X165354000Y-89535000D03*
D14*
%TO.P,U1,15*%
%TO.N,/D3*%
X132334000Y-104775000D03*
%TO.P,U1,2*%
%TO.N,/A12*%
X162814000Y-89535000D03*
%TO.P,U1,16*%
%TO.N,/D4*%
X134874000Y-104775000D03*
%TO.P,U1,3*%
%TO.N,/A7*%
X160274000Y-89535000D03*
%TO.P,U1,17*%
%TO.N,/D5*%
X137414000Y-104775000D03*
%TO.P,U1,4*%
%TO.N,/A6*%
X157734000Y-89535000D03*
%TO.P,U1,18*%
%TO.N,/D6*%
X139954000Y-104775000D03*
%TO.P,U1,5*%
%TO.N,/A5*%
X155194000Y-89535000D03*
%TO.P,U1,19*%
%TO.N,/D7*%
X142494000Y-104775000D03*
%TO.P,U1,6*%
%TO.N,/A4*%
X152654000Y-89535000D03*
%TO.P,U1,20*%
%TO.N,/~ROM_0*%
X145034000Y-104775000D03*
%TO.P,U1,7*%
%TO.N,/A3*%
X150114000Y-89535000D03*
%TO.P,U1,21*%
%TO.N,/A10*%
X147574000Y-104775000D03*
%TO.P,U1,8*%
%TO.N,/A2*%
X147574000Y-89535000D03*
%TO.P,U1,22*%
%TO.N,/~ROM_OE*%
X150114000Y-104775000D03*
%TO.P,U1,9*%
%TO.N,/A1*%
X145034000Y-89535000D03*
%TO.P,U1,23*%
%TO.N,/A11*%
X152654000Y-104775000D03*
%TO.P,U1,10*%
%TO.N,/A0*%
X142494000Y-89535000D03*
%TO.P,U1,24*%
%TO.N,/A9*%
X155194000Y-104775000D03*
%TO.P,U1,11*%
%TO.N,/D0*%
X139954000Y-89535000D03*
%TO.P,U1,25*%
%TO.N,/A8*%
X157734000Y-104775000D03*
%TO.P,U1,12*%
%TO.N,/D1*%
X137414000Y-89535000D03*
%TO.P,U1,26*%
%TO.N,/A13*%
X160274000Y-104775000D03*
%TO.P,U1,13*%
%TO.N,/D2*%
X134874000Y-89535000D03*
%TO.P,U1,27*%
%TO.N,/BA14*%
X162814000Y-104775000D03*
%TO.P,U1,14*%
%TO.N,GND*%
X132334000Y-89535000D03*
%TO.P,U1,28*%
%TO.N,VCC*%
X165354000Y-104775000D03*
%TD*%
D15*
%TO.P,M2,1*%
%TO.N,N/C*%
X175011000Y-100330000D03*
%TD*%
%TO.P,M3,1*%
%TO.N,N/C*%
X175011000Y-62230000D03*
%TD*%
%TO.P,M4,1*%
%TO.N,N/C*%
X123444000Y-62230000D03*
%TD*%
D11*
%TO.P,C1,1*%
%TO.N,VCC*%
X169164000Y-104775000D03*
%TO.P,C1,2*%
%TO.N,GND*%
X169164000Y-99775000D03*
%TD*%
D16*
%TO.P,D1,2*%
%TO.N,Net-(D1-Pad2)*%
X167259000Y-66040000D03*
D17*
%TO.P,D1,1*%
%TO.N,Net-(D1-Pad1)*%
X167259000Y-68580000D03*
%TD*%
%TO.P,D2,1*%
%TO.N,Net-(D2-Pad1)*%
X162179000Y-64135000D03*
D16*
%TO.P,D2,2*%
%TO.N,Net-(D2-Pad2)*%
X162179000Y-61595000D03*
%TD*%
%TO.P,D3,2*%
%TO.N,Net-(D3-Pad2)*%
X157099000Y-66040000D03*
D17*
%TO.P,D3,1*%
%TO.N,Net-(D3-Pad1)*%
X157099000Y-68580000D03*
%TD*%
D16*
%TO.P,D4,2*%
%TO.N,Net-(D4-Pad2)*%
X152019000Y-61595000D03*
D17*
%TO.P,D4,1*%
%TO.N,Net-(D4-Pad1)*%
X152019000Y-64135000D03*
%TD*%
%TO.P,D5,1*%
%TO.N,Net-(D5-Pad1)*%
X146939000Y-68580000D03*
D16*
%TO.P,D5,2*%
%TO.N,Net-(D5-Pad2)*%
X146939000Y-66040000D03*
%TD*%
D17*
%TO.P,D6,1*%
%TO.N,Net-(D6-Pad1)*%
X141859000Y-64135000D03*
D16*
%TO.P,D6,2*%
%TO.N,Net-(D6-Pad2)*%
X141859000Y-61595000D03*
%TD*%
D17*
%TO.P,D7,1*%
%TO.N,Net-(D7-Pad1)*%
X136779000Y-68580000D03*
D16*
%TO.P,D7,2*%
%TO.N,Net-(D7-Pad2)*%
X136779000Y-66040000D03*
%TD*%
%TO.P,D8,2*%
%TO.N,Net-(D8-Pad2)*%
X131699000Y-61595000D03*
D17*
%TO.P,D8,1*%
%TO.N,Net-(D8-Pad1)*%
X131699000Y-64135000D03*
%TD*%
D12*
%TO.P,R3,2*%
%TO.N,GND*%
X138049000Y-85090000D03*
D11*
%TO.P,R3,1*%
%TO.N,Net-(D3-Pad1)*%
X138049000Y-74930000D03*
%TD*%
D12*
%TO.P,R4,2*%
%TO.N,GND*%
X128524000Y-99695000D03*
D11*
%TO.P,R4,1*%
%TO.N,Net-(D4-Pad1)*%
X128524000Y-89535000D03*
%TD*%
%TO.P,R5,1*%
%TO.N,Net-(D5-Pad1)*%
X133604000Y-74295000D03*
D12*
%TO.P,R5,2*%
%TO.N,GND*%
X123444000Y-74295000D03*
%TD*%
%TO.P,R6,2*%
%TO.N,GND*%
X123444000Y-78105000D03*
D11*
%TO.P,R6,1*%
%TO.N,Net-(D6-Pad1)*%
X133604000Y-78105000D03*
%TD*%
%TO.P,R7,1*%
%TO.N,Net-(D7-Pad1)*%
X133604000Y-81915000D03*
D12*
%TO.P,R7,2*%
%TO.N,GND*%
X123444000Y-81915000D03*
%TD*%
%TO.P,R8,2*%
%TO.N,GND*%
X123444000Y-85725000D03*
D11*
%TO.P,R8,1*%
%TO.N,Net-(D8-Pad1)*%
X133604000Y-85725000D03*
%TD*%
D13*
%TO.P,U2,1*%
%TO.N,Net-(JP3-Pad2)*%
X165354000Y-78105000D03*
D14*
%TO.P,U2,11*%
%TO.N,OUT_63*%
X142494000Y-85725000D03*
%TO.P,U2,2*%
%TO.N,Net-(D1-Pad2)*%
X162814000Y-78105000D03*
%TO.P,U2,12*%
%TO.N,Net-(D5-Pad2)*%
X145034000Y-85725000D03*
%TO.P,U2,3*%
%TO.N,/D0*%
X160274000Y-78105000D03*
%TO.P,U2,13*%
%TO.N,/D4*%
X147574000Y-85725000D03*
%TO.P,U2,4*%
%TO.N,/D1*%
X157734000Y-78105000D03*
%TO.P,U2,14*%
%TO.N,/D5*%
X150114000Y-85725000D03*
%TO.P,U2,5*%
%TO.N,Net-(D2-Pad2)*%
X155194000Y-78105000D03*
%TO.P,U2,15*%
%TO.N,Net-(D6-Pad2)*%
X152654000Y-85725000D03*
%TO.P,U2,6*%
%TO.N,Net-(D3-Pad2)*%
X152654000Y-78105000D03*
%TO.P,U2,16*%
%TO.N,Net-(D7-Pad2)*%
X155194000Y-85725000D03*
%TO.P,U2,7*%
%TO.N,/D2*%
X150114000Y-78105000D03*
%TO.P,U2,17*%
%TO.N,/D6*%
X157734000Y-85725000D03*
%TO.P,U2,8*%
%TO.N,/D3*%
X147574000Y-78105000D03*
%TO.P,U2,18*%
%TO.N,/D7*%
X160274000Y-85725000D03*
%TO.P,U2,9*%
%TO.N,Net-(D4-Pad2)*%
X145034000Y-78105000D03*
%TO.P,U2,19*%
%TO.N,Net-(D8-Pad2)*%
X162814000Y-85725000D03*
%TO.P,U2,10*%
%TO.N,GND*%
X142494000Y-78105000D03*
%TO.P,U2,20*%
%TO.N,VCC*%
X165354000Y-85725000D03*
%TD*%
D11*
%TO.P,C2,1*%
%TO.N,VCC*%
X169164000Y-84455000D03*
%TO.P,C2,2*%
%TO.N,GND*%
X169164000Y-79455000D03*
%TD*%
D18*
%TO.P,JP1,3*%
%TO.N,VCC*%
X161544000Y-95250000D03*
%TO.P,JP1,2*%
%TO.N,/BA15*%
X161544000Y-97155000D03*
D19*
%TO.P,JP1,1*%
%TO.N,Net-(J1-PadB18)*%
X161544000Y-99060000D03*
%TD*%
%TO.P,JP2,1*%
%TO.N,Net-(J1-PadB17)*%
X157734000Y-99060000D03*
D18*
%TO.P,JP2,2*%
%TO.N,/BA14*%
X157734000Y-97155000D03*
%TO.P,JP2,3*%
%TO.N,VCC*%
X157734000Y-95250000D03*
%TD*%
D20*
%TO.P,JP3,2*%
%TO.N,Net-(JP3-Pad2)*%
X127889000Y-105410000D03*
D21*
%TO.P,JP3,1*%
%TO.N,GND*%
X127889000Y-107950000D03*
%TD*%
D11*
%TO.P,R9,1*%
%TO.N,VCC*%
X169164000Y-97155000D03*
D12*
%TO.P,R9,2*%
%TO.N,Net-(JP3-Pad2)*%
X169164000Y-86995000D03*
%TD*%
D15*
%TO.P,M1,1*%
%TO.N,N/C*%
X123444000Y-100330000D03*
%TD*%
D22*
%TO.N,/A12*%
X155575000Y-111379000D03*
%TO.N,/A7*%
X153035000Y-110871000D03*
%TO.N,/A6*%
X156464000Y-108077000D03*
%TO.N,/A5*%
X153924000Y-107569000D03*
%TO.N,/A4*%
X151384000Y-107569000D03*
%TO.N,/A3*%
X148209000Y-109347000D03*
%TO.N,/A2*%
X145034000Y-108722000D03*
%TO.N,/A1*%
X143002000Y-109474000D03*
%TO.N,/A0*%
X140589000Y-108849000D03*
%TO.N,GND*%
X175895000Y-109347000D03*
X122555000Y-109347000D03*
%TO.N,VCC*%
X165354000Y-95885000D03*
X163449000Y-95250000D03*
X158115000Y-111379000D03*
%TO.N,/D7*%
X153924000Y-100330000D03*
X143129000Y-102235000D03*
%TO.N,/D6*%
X150749000Y-100330000D03*
X140589000Y-102235000D03*
%TO.N,/D5*%
X148209000Y-99695000D03*
X138049000Y-102235000D03*
%TO.N,/D4*%
X145669000Y-99060000D03*
X135509000Y-102235000D03*
%TO.N,/D3*%
X143129000Y-98425000D03*
X132969000Y-102235000D03*
X146939000Y-83185000D03*
%TO.N,/D2*%
X130556000Y-109474000D03*
%TO.N,/D1*%
X136144000Y-107950000D03*
%TO.N,/D0*%
X134112000Y-109728000D03*
%TO.N,/~ROM_0*%
X165717522Y-108697080D03*
%TO.N,/~ROM_OE*%
X163195000Y-110871000D03*
%TO.N,Net-(D4-Pad2)*%
X149479000Y-69215000D03*
X149479000Y-71755000D03*
%TO.N,Net-(D5-Pad2)*%
X134874000Y-79375000D03*
X145034000Y-83185000D03*
%TO.N,Net-(D6-Pad2)*%
X134874000Y-80645000D03*
X144399000Y-82550000D03*
%TO.N,Net-(D7-Pad2)*%
X134874000Y-83185000D03*
X142618449Y-82039449D03*
%TO.N,OUT_63*%
X141859000Y-97790000D03*
X166044500Y-100330000D03*
%TO.N,Net-(J1-PadB18)*%
X164038500Y-100330000D03*
%TO.N,Net-(J1-PadB17)*%
X158369000Y-100965000D03*
%TO.N,Net-(JP3-Pad2)*%
X163449000Y-101600000D03*
X164663500Y-97790000D03*
X166044500Y-95250000D03*
%TD*%
D23*
%TO.N,/A12*%
X162814000Y-90985000D02*
X162814000Y-89535000D01*
X160453295Y-93345705D02*
X162814000Y-90985000D01*
X157101115Y-93345705D02*
X160453295Y-93345705D01*
X155829000Y-94617820D02*
X157101115Y-93345705D01*
X157099000Y-101600000D02*
X155829000Y-100330000D01*
X161544000Y-103505000D02*
X159639000Y-101600000D01*
X161544000Y-109474000D02*
X161544000Y-103505000D01*
X160655000Y-110363000D02*
X161544000Y-109474000D01*
X156083000Y-110363000D02*
X160655000Y-110363000D01*
X159639000Y-101600000D02*
X157099000Y-101600000D01*
X155575000Y-110871000D02*
X156083000Y-110363000D01*
X155829000Y-100330000D02*
X155829000Y-94617820D01*
X155575000Y-111379000D02*
X155575000Y-110871000D01*
%TO.N,/A7*%
X160274000Y-92075000D02*
X160274000Y-89535000D01*
X157100410Y-92710000D02*
X159639000Y-92710000D01*
X155194000Y-94616410D02*
X157100410Y-92710000D01*
X156464000Y-102235000D02*
X155194000Y-100965000D01*
X157734000Y-102235000D02*
X156464000Y-102235000D01*
X159004000Y-103505000D02*
X157734000Y-102235000D01*
X155194000Y-100965000D02*
X155194000Y-94616410D01*
X159639000Y-92710000D02*
X160274000Y-92075000D01*
X159004000Y-105918000D02*
X159004000Y-103505000D01*
X159004000Y-106045000D02*
X159004000Y-105918000D01*
X159004000Y-108458000D02*
X159004000Y-105918000D01*
X158115000Y-109347000D02*
X159004000Y-108458000D01*
X154559000Y-109347000D02*
X158115000Y-109347000D01*
X153035000Y-110871000D02*
X154559000Y-109347000D01*
%TO.N,/A6*%
X156464000Y-103505000D02*
X156464000Y-108077000D01*
X154559000Y-101600000D02*
X156464000Y-103505000D01*
X154559000Y-94615000D02*
X154559000Y-101600000D01*
X157734000Y-91440000D02*
X154559000Y-94615000D01*
X157734000Y-89535000D02*
X157734000Y-91440000D01*
%TO.N,/A5*%
X153289000Y-91440000D02*
X155194000Y-89535000D01*
X153289000Y-102235000D02*
X153289000Y-91440000D01*
X153924000Y-102870000D02*
X153289000Y-102235000D01*
X153924000Y-107569000D02*
X153924000Y-102870000D01*
%TO.N,/A4*%
X152654000Y-101600000D02*
X152654000Y-89535000D01*
X151384000Y-102870000D02*
X152654000Y-101600000D01*
X151384000Y-107569000D02*
X151384000Y-102870000D01*
%TO.N,/A3*%
X148844000Y-102870000D02*
X150114000Y-101600000D01*
X150114000Y-101600000D02*
X150114000Y-89535000D01*
X148844000Y-106045000D02*
X148844000Y-102870000D01*
X148844000Y-108712000D02*
X148209000Y-109347000D01*
X148844000Y-106045000D02*
X148844000Y-108712000D01*
%TO.N,/A10*%
X137795000Y-112014000D02*
X137795000Y-116078000D01*
X147574000Y-108712000D02*
X146685000Y-109601000D01*
X147574000Y-104775000D02*
X147574000Y-108712000D01*
X144145000Y-109601000D02*
X142621000Y-111125000D01*
X146685000Y-109601000D02*
X144145000Y-109601000D01*
X142621000Y-111125000D02*
X138684000Y-111125000D01*
X138684000Y-111125000D02*
X137795000Y-112014000D01*
%TO.N,/A2*%
X147574000Y-101600000D02*
X147574000Y-89535000D01*
X146304000Y-102870000D02*
X147574000Y-101600000D01*
X146304000Y-102870000D02*
X146304000Y-106553000D01*
X146304000Y-107452000D02*
X145034000Y-108722000D01*
X146304000Y-106553000D02*
X146304000Y-107452000D01*
%TO.N,/A1*%
X143764000Y-102870000D02*
X143764000Y-108712000D01*
X145034000Y-101600000D02*
X143764000Y-102870000D01*
X145034000Y-89535000D02*
X145034000Y-101600000D01*
X143764000Y-108712000D02*
X143002000Y-109474000D01*
%TO.N,/A11*%
X152654000Y-107696000D02*
X152654000Y-104775000D01*
X149987000Y-110363000D02*
X152654000Y-107696000D01*
X144526000Y-110363000D02*
X149987000Y-110363000D01*
X142875000Y-112014000D02*
X144526000Y-110363000D01*
X142875000Y-116078000D02*
X142875000Y-112014000D01*
%TO.N,/A0*%
X142494000Y-101600000D02*
X142494000Y-89535000D01*
X141224000Y-102870000D02*
X142494000Y-101600000D01*
X141224000Y-106426000D02*
X141224000Y-102870000D01*
X141224000Y-108214000D02*
X140589000Y-108849000D01*
X141224000Y-106426000D02*
X141224000Y-108214000D01*
%TO.N,/A9*%
X155194000Y-107442000D02*
X155194000Y-104775000D01*
X154432000Y-108204000D02*
X155194000Y-107442000D01*
X153289000Y-108204000D02*
X154432000Y-108204000D01*
X150368000Y-111125000D02*
X153289000Y-108204000D01*
X146304000Y-111125000D02*
X150368000Y-111125000D01*
X145415000Y-112014000D02*
X146304000Y-111125000D01*
X145415000Y-116078000D02*
X145415000Y-112014000D01*
%TO.N,/A8*%
X150495000Y-111887000D02*
X150495000Y-116078000D01*
X153543000Y-108839000D02*
X150495000Y-111887000D01*
X157099000Y-108839000D02*
X153543000Y-108839000D01*
X157734000Y-108204000D02*
X157099000Y-108839000D01*
X157734000Y-104775000D02*
X157734000Y-108204000D01*
D24*
%TO.N,VCC*%
X165354000Y-94615000D02*
X165354000Y-93345000D01*
X165354000Y-95885000D02*
X165354000Y-94615000D01*
X157734000Y-95250000D02*
X161544000Y-95250000D01*
X161544000Y-95250000D02*
X163449000Y-95250000D01*
X167259000Y-91440000D02*
X167259000Y-87630000D01*
X165354000Y-93345000D02*
X167259000Y-91440000D01*
X165989000Y-97155000D02*
X165354000Y-97790000D01*
X169164000Y-97155000D02*
X165989000Y-97155000D01*
X165354000Y-97790000D02*
X165354000Y-95885000D01*
X167259000Y-87630000D02*
X167259000Y-86360000D01*
X165354000Y-85725000D02*
X167259000Y-85725000D01*
X167259000Y-85725000D02*
X167259000Y-86360000D01*
X167259000Y-85725000D02*
X167259000Y-85090000D01*
X167894000Y-84455000D02*
X169164000Y-84455000D01*
X167259000Y-85090000D02*
X167894000Y-84455000D01*
X165354000Y-104775000D02*
X169164000Y-104775000D01*
X158115000Y-116078000D02*
X158115000Y-111379000D01*
X158615489Y-110878511D02*
X161155489Y-110878511D01*
X158115000Y-111379000D02*
X158615489Y-110878511D01*
X165354000Y-106680000D02*
X165354000Y-104775000D01*
X161155489Y-110878511D02*
X165354000Y-106680000D01*
X165354000Y-104775000D02*
X165354000Y-97790000D01*
D23*
%TO.N,/D7*%
X160274000Y-85725000D02*
X158369000Y-87630000D01*
X157100410Y-87630000D02*
X156464000Y-88266410D01*
X158369000Y-87630000D02*
X157100410Y-87630000D01*
X156464000Y-88266410D02*
X156464000Y-91440000D01*
X156464000Y-91440000D02*
X155829000Y-92075000D01*
X155829000Y-92075000D02*
X153924000Y-93980000D01*
X153924000Y-93980000D02*
X153924000Y-100330000D01*
X142494000Y-102870000D02*
X143129000Y-102235000D01*
X142494000Y-104775000D02*
X142494000Y-102870000D01*
X142494000Y-108712000D02*
X140843000Y-110363000D01*
X132715000Y-111828000D02*
X132715000Y-116078000D01*
X142494000Y-104775000D02*
X142494000Y-108712000D01*
X137634000Y-111159000D02*
X138430000Y-110363000D01*
X133384000Y-111159000D02*
X137634000Y-111159000D01*
X140843000Y-110363000D02*
X138430000Y-110363000D01*
X133384000Y-111159000D02*
X132715000Y-111828000D01*
%TO.N,/D6*%
X139954000Y-102870000D02*
X140589000Y-102235000D01*
X139954000Y-104775000D02*
X139954000Y-102870000D01*
X151384000Y-99695000D02*
X150749000Y-100330000D01*
X151384000Y-88265000D02*
X151384000Y-99695000D01*
X152019000Y-87630000D02*
X151384000Y-88265000D01*
X155829000Y-87630000D02*
X152019000Y-87630000D01*
X157734000Y-85725000D02*
X155829000Y-87630000D01*
X130590000Y-111413000D02*
X130175000Y-111828000D01*
X132046000Y-111413000D02*
X130590000Y-111413000D01*
X132969000Y-110490000D02*
X132046000Y-111413000D01*
X137033000Y-110490000D02*
X132969000Y-110490000D01*
X139954000Y-107569000D02*
X137033000Y-110490000D01*
X130175000Y-111828000D02*
X130175000Y-116078000D01*
X139954000Y-104775000D02*
X139954000Y-107569000D01*
%TO.N,/D5*%
X150114000Y-85725000D02*
X150114000Y-86360000D01*
X150114000Y-86360000D02*
X148844000Y-87630000D01*
X148844000Y-99060000D02*
X148209000Y-99695000D01*
X148844000Y-87630000D02*
X148844000Y-99060000D01*
X138049000Y-102235000D02*
X137414000Y-102870000D01*
X137414000Y-102870000D02*
X137414000Y-104775000D01*
X127635000Y-111506000D02*
X127635000Y-116078000D01*
X128397000Y-110744000D02*
X127635000Y-111506000D01*
X131699000Y-110744000D02*
X128397000Y-110744000D01*
X133477000Y-108966000D02*
X131699000Y-110744000D01*
X136144000Y-108966000D02*
X133477000Y-108966000D01*
X137414000Y-107696000D02*
X136144000Y-108966000D01*
X137414000Y-104775000D02*
X137414000Y-107696000D01*
%TO.N,/D4*%
X134874000Y-102870000D02*
X135509000Y-102235000D01*
X134874000Y-104775000D02*
X134874000Y-102870000D01*
X146304000Y-98425000D02*
X145669000Y-99060000D01*
X146304000Y-88265000D02*
X146304000Y-98425000D01*
X147574000Y-86995000D02*
X146304000Y-88265000D01*
X147574000Y-85725000D02*
X147574000Y-86995000D01*
X125095000Y-111828000D02*
X125095000Y-116078000D01*
X126814000Y-110109000D02*
X125095000Y-111828000D01*
X131318000Y-110109000D02*
X126814000Y-110109000D01*
X134874000Y-106553000D02*
X131318000Y-110109000D01*
X134874000Y-104775000D02*
X134874000Y-106553000D01*
%TO.N,/D3*%
X132334000Y-102870000D02*
X132969000Y-102235000D01*
X132334000Y-104775000D02*
X132334000Y-102870000D01*
X146304000Y-83820000D02*
X146939000Y-83185000D01*
X146304000Y-86995000D02*
X146304000Y-83820000D01*
X145669000Y-87630000D02*
X146304000Y-86995000D01*
X143764000Y-88265000D02*
X144399000Y-87630000D01*
X143764000Y-97790000D02*
X143764000Y-88265000D01*
X143129000Y-98425000D02*
X143764000Y-97790000D01*
X144399000Y-87630000D02*
X145669000Y-87630000D01*
X124841000Y-109474000D02*
X122555000Y-111760000D01*
X129159000Y-109474000D02*
X124841000Y-109474000D01*
X132334000Y-106299000D02*
X129159000Y-109474000D01*
X122555000Y-111760000D02*
X122555000Y-116078000D01*
X132334000Y-104775000D02*
X132334000Y-106299000D01*
%TO.N,/D2*%
X150114000Y-79375000D02*
X150114000Y-78105000D01*
X149479000Y-80010000D02*
X150114000Y-79375000D01*
X139954000Y-80010000D02*
X149479000Y-80010000D01*
X136144000Y-83820000D02*
X139954000Y-80010000D01*
X136144000Y-87630000D02*
X136144000Y-83820000D01*
X134874000Y-88900000D02*
X136144000Y-87630000D01*
X134874000Y-89535000D02*
X134874000Y-88900000D01*
X133604000Y-106426000D02*
X130556000Y-109474000D01*
X133604000Y-90805000D02*
X133604000Y-106426000D01*
X134874000Y-89535000D02*
X133604000Y-90805000D01*
%TO.N,/D1*%
X137414000Y-88265000D02*
X137414000Y-89535000D01*
X139954000Y-85725000D02*
X137414000Y-88265000D01*
X139954000Y-82550000D02*
X139954000Y-85725000D01*
X141859000Y-80645000D02*
X139954000Y-82550000D01*
X157099000Y-80645000D02*
X141859000Y-80645000D01*
X157734000Y-80010000D02*
X157099000Y-80645000D01*
X157734000Y-78105000D02*
X157734000Y-80010000D01*
X137414000Y-101600000D02*
X137414000Y-89535000D01*
X136144000Y-102870000D02*
X137414000Y-101600000D01*
X136144000Y-107950000D02*
X136144000Y-102870000D01*
%TO.N,/D0*%
X139954000Y-101600000D02*
X139954000Y-89535000D01*
X138684000Y-106680000D02*
X138684000Y-102870000D01*
X138684000Y-102870000D02*
X139954000Y-101600000D01*
X139954000Y-87630000D02*
X139954000Y-89535000D01*
X140589000Y-86995000D02*
X139954000Y-87630000D01*
X140589000Y-83185000D02*
X140589000Y-86995000D01*
X142494000Y-81280000D02*
X140589000Y-83185000D01*
X159639000Y-81280000D02*
X142494000Y-81280000D01*
X160274000Y-80645000D02*
X159639000Y-81280000D01*
X160274000Y-78105000D02*
X160274000Y-80645000D01*
X138684000Y-107569000D02*
X138684000Y-106680000D01*
X136525000Y-109728000D02*
X138684000Y-107569000D01*
X134112000Y-109728000D02*
X136525000Y-109728000D01*
%TO.N,/A13*%
X155194000Y-109855000D02*
X153035000Y-112014000D01*
X153035000Y-112014000D02*
X153035000Y-116078000D01*
X159639000Y-109855000D02*
X155194000Y-109855000D01*
X160274000Y-109220000D02*
X159639000Y-109855000D01*
X160274000Y-104775000D02*
X160274000Y-109220000D01*
%TO.N,/~ROM_0*%
X165735000Y-108714558D02*
X165717522Y-108697080D01*
X165735000Y-116078000D02*
X165735000Y-108714558D01*
%TO.N,/~ROM_OE*%
X163195000Y-116078000D02*
X163195000Y-110871000D01*
%TO.N,/BA14*%
X162814000Y-104775000D02*
X162814000Y-103505000D01*
X162814000Y-103505000D02*
X159639000Y-100330000D01*
X159639000Y-100330000D02*
X159639000Y-97790000D01*
X159004000Y-97155000D02*
X157734000Y-97155000D01*
X159639000Y-97790000D02*
X159004000Y-97155000D01*
%TO.N,/BA15*%
X164084000Y-97155000D02*
X161544000Y-97155000D01*
X164719000Y-96520000D02*
X164084000Y-97155000D01*
X164719000Y-92710000D02*
X164719000Y-96520000D01*
X165354000Y-92075000D02*
X164719000Y-92710000D01*
X165354000Y-89535000D02*
X165354000Y-92075000D01*
%TO.N,Net-(D1-Pad2)*%
X169164000Y-66675000D02*
X168529000Y-66040000D01*
X169164000Y-73025001D02*
X169164000Y-66675000D01*
X168529000Y-66040000D02*
X167259000Y-66040000D01*
X166624002Y-75564999D02*
X169164000Y-73025001D01*
X163449001Y-75564999D02*
X166624002Y-75564999D01*
X162814000Y-76200000D02*
X163449001Y-75564999D01*
X162814000Y-78105000D02*
X162814000Y-76200000D01*
%TO.N,Net-(D1-Pad1)*%
X165354000Y-70485000D02*
X167259000Y-68580000D01*
X165354000Y-74295000D02*
X165354000Y-70485000D01*
%TO.N,Net-(D2-Pad1)*%
X160274000Y-64135000D02*
X162179000Y-64135000D01*
X159639000Y-70485000D02*
X159639000Y-64770000D01*
X158369000Y-71755000D02*
X159639000Y-70485000D01*
X153924000Y-71755000D02*
X158369000Y-71755000D01*
X152654000Y-73025000D02*
X153924000Y-71755000D01*
X159639000Y-64770000D02*
X160274000Y-64135000D01*
X152654000Y-74295000D02*
X152654000Y-73025000D01*
%TO.N,Net-(D2-Pad2)*%
X164084000Y-65405000D02*
X160274000Y-69215000D01*
X164084000Y-62230000D02*
X164084000Y-65405000D01*
X163449000Y-61595000D02*
X164084000Y-62230000D01*
X162179000Y-61595000D02*
X163449000Y-61595000D01*
X155194000Y-78105000D02*
X153924000Y-76835000D01*
X153924000Y-76835000D02*
X153924000Y-73025000D01*
X153924000Y-73025000D02*
X154559000Y-72390000D01*
X159004000Y-72390000D02*
X160274000Y-71120000D01*
X154559000Y-72390000D02*
X159004000Y-72390000D01*
X160274000Y-69215000D02*
X160274000Y-71120000D01*
%TO.N,Net-(D3-Pad2)*%
X151384000Y-76835000D02*
X152654000Y-78105000D01*
X151384000Y-73025000D02*
X151384000Y-76835000D01*
X159004000Y-69850000D02*
X157734000Y-71120000D01*
X159004000Y-66675000D02*
X159004000Y-69850000D01*
X158369000Y-66040000D02*
X159004000Y-66675000D01*
X153289000Y-71120000D02*
X151384000Y-73025000D01*
X157734000Y-71120000D02*
X153289000Y-71120000D01*
X157099000Y-66040000D02*
X158369000Y-66040000D01*
%TO.N,Net-(D3-Pad1)*%
X138049000Y-74930000D02*
X138049000Y-75565000D01*
X151384000Y-68580000D02*
X157099000Y-68580000D01*
X146939000Y-73025000D02*
X151384000Y-68580000D01*
X138684000Y-73025000D02*
X146939000Y-73025000D01*
X138049000Y-73660000D02*
X138684000Y-73025000D01*
X138049000Y-74930000D02*
X138049000Y-73660000D01*
%TO.N,Net-(D4-Pad2)*%
X145034000Y-78105000D02*
X145034000Y-76200000D01*
X145034000Y-76200000D02*
X149479000Y-71755000D01*
X150114000Y-66040000D02*
X149479000Y-66675000D01*
X153289000Y-66040000D02*
X150114000Y-66040000D01*
X153924000Y-65405000D02*
X153289000Y-66040000D01*
X153924000Y-62230000D02*
X153924000Y-65405000D01*
X153289000Y-61595000D02*
X153924000Y-62230000D01*
X149479000Y-66675000D02*
X149479000Y-69215000D01*
X152019000Y-61595000D02*
X153289000Y-61595000D01*
%TO.N,Net-(D4-Pad1)*%
X135509000Y-73025000D02*
X136144000Y-72390000D01*
X135509000Y-86995000D02*
X135509000Y-73025000D01*
X136144000Y-72390000D02*
X146304000Y-72390000D01*
X134874000Y-87630000D02*
X135509000Y-86995000D01*
X129159000Y-87630000D02*
X134874000Y-87630000D01*
X128524000Y-88265000D02*
X129159000Y-87630000D01*
X128524000Y-89535000D02*
X128524000Y-88265000D01*
X146304000Y-72390000D02*
X148844000Y-69850000D01*
X148844000Y-69850000D02*
X148844000Y-64770000D01*
X149479000Y-64135000D02*
X152019000Y-64135000D01*
X148844000Y-64770000D02*
X149479000Y-64135000D01*
%TO.N,Net-(D5-Pad1)*%
X133604000Y-73025000D02*
X133604000Y-74295000D01*
X134874000Y-71755000D02*
X133604000Y-73025000D01*
X142494000Y-71755000D02*
X134874000Y-71755000D01*
X146939000Y-68580000D02*
X143764000Y-68580000D01*
X143129000Y-69215000D02*
X143129000Y-71120000D01*
X143764000Y-68580000D02*
X143129000Y-69215000D01*
X143129000Y-71120000D02*
X142494000Y-71755000D01*
%TO.N,Net-(D5-Pad2)*%
X134874000Y-77470000D02*
X134874000Y-79375000D01*
X132334000Y-76200000D02*
X133604000Y-76200000D01*
X133604000Y-76200000D02*
X134874000Y-77470000D01*
X131699000Y-75565000D02*
X132334000Y-76200000D01*
X131699000Y-73660000D02*
X131699000Y-75565000D01*
X141859000Y-71120000D02*
X134239000Y-71120000D01*
X134239000Y-71120000D02*
X131699000Y-73660000D01*
X146939000Y-66040000D02*
X143129000Y-66040000D01*
X143129000Y-66040000D02*
X142494000Y-66675000D01*
X142494000Y-66675000D02*
X142494000Y-70485000D01*
X142494000Y-70485000D02*
X141859000Y-71120000D01*
X145034000Y-85725000D02*
X145034000Y-83185000D01*
%TO.N,Net-(D6-Pad1)*%
X132334000Y-78105000D02*
X133604000Y-78105000D01*
X131064000Y-76835000D02*
X132334000Y-78105000D01*
X131064000Y-73025000D02*
X131064000Y-76835000D01*
X133604000Y-70485000D02*
X131064000Y-73025000D01*
X141224000Y-70485000D02*
X133604000Y-70485000D01*
X141859000Y-69850000D02*
X141224000Y-70485000D01*
X141859000Y-64135000D02*
X141859000Y-69850000D01*
%TO.N,Net-(D6-Pad2)*%
X152654000Y-85725000D02*
X152654000Y-83185000D01*
X152654000Y-83185000D02*
X152019000Y-82550000D01*
X132332590Y-80645000D02*
X134874000Y-80645000D01*
X132969000Y-69850000D02*
X130429705Y-72389295D01*
X139319000Y-69850000D02*
X132969000Y-69850000D01*
X139954000Y-69215000D02*
X139319000Y-69850000D01*
X130429705Y-72389295D02*
X130429705Y-80010705D01*
X139954000Y-62230000D02*
X139954000Y-69215000D01*
X131064000Y-80645000D02*
X132332590Y-80645000D01*
X130429705Y-80010705D02*
X131064000Y-80645000D01*
X140589000Y-61595000D02*
X139954000Y-62230000D01*
X141859000Y-61595000D02*
X140589000Y-61595000D01*
X152019000Y-82550000D02*
X144399000Y-82550000D01*
%TO.N,Net-(D7-Pad1)*%
X132969000Y-68580000D02*
X136779000Y-68580000D01*
X129794000Y-71755000D02*
X132969000Y-68580000D01*
X129794000Y-80645000D02*
X129794000Y-71755000D01*
X131064000Y-81915000D02*
X129794000Y-80645000D01*
X133604000Y-81915000D02*
X131064000Y-81915000D01*
%TO.N,Net-(D7-Pad2)*%
X134239000Y-66040000D02*
X129159000Y-71120000D01*
X136779000Y-66040000D02*
X134239000Y-66040000D01*
X130429000Y-83185000D02*
X129159000Y-81915000D01*
X134874000Y-83185000D02*
X130429000Y-83185000D01*
X129159000Y-71120000D02*
X129159000Y-81915000D01*
X154383450Y-81739450D02*
X142918448Y-81739450D01*
X142918448Y-81739450D02*
X142618449Y-82039449D01*
X155194000Y-85725000D02*
X155194000Y-82550000D01*
X155194000Y-82550000D02*
X154383450Y-81739450D01*
%TO.N,Net-(D8-Pad2)*%
X132328260Y-59695740D02*
X131699000Y-60325000D01*
X163454740Y-59695740D02*
X132328260Y-59695740D01*
X131699000Y-60325000D02*
X131699000Y-61595000D01*
X169799000Y-66040000D02*
X163454740Y-59695740D01*
X164534010Y-76200000D02*
X167259000Y-76200000D01*
X164084000Y-79375000D02*
X164084000Y-76650010D01*
X169799000Y-73660000D02*
X169799000Y-66040000D01*
X162814000Y-80645000D02*
X164084000Y-79375000D01*
X167259000Y-76200000D02*
X169799000Y-73660000D01*
X164084000Y-76650010D02*
X164534010Y-76200000D01*
X162814000Y-85725000D02*
X162814000Y-80645000D01*
%TO.N,Net-(D8-Pad1)*%
X131699000Y-67310000D02*
X128524000Y-70485000D01*
X131699000Y-64135000D02*
X131699000Y-67310000D01*
X128524000Y-70485000D02*
X128524000Y-84455000D01*
X129794000Y-85725000D02*
X133604000Y-85725000D01*
X128524000Y-84455000D02*
X129794000Y-85725000D01*
%TO.N,OUT_63*%
X142494000Y-85725000D02*
X142494000Y-86995000D01*
X142494000Y-86995000D02*
X141224000Y-88265000D01*
X141224000Y-97155000D02*
X141859000Y-97790000D01*
X141224000Y-88265000D02*
X141224000Y-97155000D01*
X175895000Y-111379000D02*
X175895000Y-116078000D01*
X176784000Y-110490000D02*
X175895000Y-111379000D01*
X176784000Y-107315000D02*
X176784000Y-110490000D01*
X170434000Y-100965000D02*
X176784000Y-107315000D01*
X166679500Y-100965000D02*
X170434000Y-100965000D01*
X166044500Y-100330000D02*
X166679500Y-100965000D01*
%TO.N,Net-(J1-PadB18)*%
X162814000Y-100330000D02*
X163449000Y-100330000D01*
X161544000Y-99060000D02*
X162814000Y-100330000D01*
X164038500Y-100330000D02*
X163449000Y-100330000D01*
%TO.N,Net-(J1-PadB17)*%
X157734000Y-100330000D02*
X158369000Y-100965000D01*
X157734000Y-99060000D02*
X157734000Y-100330000D01*
%TO.N,Net-(JP3-Pad2)*%
X163449000Y-101600000D02*
X164084000Y-101600000D01*
X164663500Y-101020500D02*
X164663500Y-97790000D01*
X164084000Y-101600000D02*
X164663500Y-101020500D01*
X166044500Y-95250000D02*
X166044500Y-93924500D01*
X169164000Y-90805000D02*
X169164000Y-86995000D01*
X166044500Y-93924500D02*
X169164000Y-90805000D01*
X171069000Y-86360000D02*
X170434000Y-86995000D01*
X171069000Y-81915000D02*
X171069000Y-86360000D01*
X170434000Y-81280000D02*
X171069000Y-81915000D01*
X165989000Y-81280000D02*
X170434000Y-81280000D01*
X170434000Y-86995000D02*
X169164000Y-86995000D01*
X165354000Y-80645000D02*
X165989000Y-81280000D01*
X165354000Y-78105000D02*
X165354000Y-80645000D01*
%TD*%
M02*
