%TF.GenerationSoftware,KiCad,Pcbnew,(5.1.8)-1*%
%TF.CreationDate,2021-04-29T23:29:39+02:00*%
%TF.ProjectId,ZX Cartridge 2021 FA1,5a582043-6172-4747-9269-646765203230,rev?*%
%TF.SameCoordinates,Original*%
%TF.FileFunction,Copper,L2,Bot*%
%TF.FilePolarity,Positive*%
%FSLAX46Y46*%
G04 Gerber Fmt 4.6, Leading zero omitted, Abs format (unit mm)*
G04 Created by KiCad (PCBNEW (5.1.8)-1) date 2021-04-29 23:29:39*
%MOMM*%
%LPD*%
G01*
G04 APERTURE LIST*
%TA.AperFunction,ComponentPad*%
%ADD10C,3.500000*%
%TD*%
%TA.AperFunction,Conductor*%
%ADD11C,0.254000*%
%TD*%
%TA.AperFunction,Conductor*%
%ADD12C,0.100000*%
%TD*%
G04 APERTURE END LIST*
D10*
%TO.P,M1,1*%
%TO.N,Net-(M1-Pad1)*%
X123444000Y-100330000D03*
%TD*%
%TO.P,M2,1*%
%TO.N,Net-(M1-Pad1)*%
X175011000Y-100330000D03*
%TD*%
%TO.P,M3,1*%
%TO.N,Net-(M1-Pad1)*%
X175011000Y-62230000D03*
%TD*%
%TO.P,M4,1*%
%TO.N,Net-(M1-Pad1)*%
X123444000Y-62230000D03*
%TD*%
D11*
%TO.N,Net-(M1-Pad1)*%
X175595429Y-59253166D02*
X176162406Y-59424347D01*
X176685339Y-59702396D01*
X177144302Y-60076716D01*
X177521821Y-60533060D01*
X177803513Y-61054038D01*
X177978645Y-61619802D01*
X178041246Y-62215403D01*
X178041297Y-62230197D01*
X178041298Y-116960159D01*
X178023951Y-117137074D01*
X177974556Y-117300679D01*
X177894330Y-117451562D01*
X177786318Y-117583998D01*
X177654644Y-117692928D01*
X177504320Y-117774208D01*
X177341072Y-117824741D01*
X177164531Y-117843297D01*
X121291831Y-117843297D01*
X121114926Y-117825951D01*
X120951321Y-117776556D01*
X120800438Y-117696330D01*
X120668002Y-117588318D01*
X120559072Y-117456644D01*
X120477792Y-117306320D01*
X120427259Y-117143072D01*
X120408702Y-116966521D01*
X120408702Y-116966508D01*
X120408702Y-101999609D01*
X121953997Y-101999609D01*
X122140073Y-102340766D01*
X122557409Y-102556513D01*
X123008815Y-102686696D01*
X123476946Y-102726313D01*
X123943811Y-102673842D01*
X124391468Y-102531297D01*
X124747927Y-102340766D01*
X124934003Y-101999609D01*
X173520997Y-101999609D01*
X173707073Y-102340766D01*
X174124409Y-102556513D01*
X174575815Y-102686696D01*
X175043946Y-102726313D01*
X175510811Y-102673842D01*
X175958468Y-102531297D01*
X176314927Y-102340766D01*
X176501003Y-101999609D01*
X175011000Y-100509605D01*
X173520997Y-101999609D01*
X124934003Y-101999609D01*
X123444000Y-100509605D01*
X121953997Y-101999609D01*
X120408702Y-101999609D01*
X120408702Y-100362946D01*
X121047687Y-100362946D01*
X121100158Y-100829811D01*
X121242703Y-101277468D01*
X121433234Y-101633927D01*
X121774391Y-101820003D01*
X123264395Y-100330000D01*
X123623605Y-100330000D01*
X125113609Y-101820003D01*
X125454766Y-101633927D01*
X125670513Y-101216591D01*
X125800696Y-100765185D01*
X125834736Y-100362946D01*
X172614687Y-100362946D01*
X172667158Y-100829811D01*
X172809703Y-101277468D01*
X173000234Y-101633927D01*
X173341391Y-101820003D01*
X174831395Y-100330000D01*
X175190605Y-100330000D01*
X176680609Y-101820003D01*
X177021766Y-101633927D01*
X177237513Y-101216591D01*
X177367696Y-100765185D01*
X177407313Y-100297054D01*
X177354842Y-99830189D01*
X177212297Y-99382532D01*
X177021766Y-99026073D01*
X176680609Y-98839997D01*
X175190605Y-100330000D01*
X174831395Y-100330000D01*
X173341391Y-98839997D01*
X173000234Y-99026073D01*
X172784487Y-99443409D01*
X172654304Y-99894815D01*
X172614687Y-100362946D01*
X125834736Y-100362946D01*
X125840313Y-100297054D01*
X125787842Y-99830189D01*
X125645297Y-99382532D01*
X125454766Y-99026073D01*
X125113609Y-98839997D01*
X123623605Y-100330000D01*
X123264395Y-100330000D01*
X121774391Y-98839997D01*
X121433234Y-99026073D01*
X121217487Y-99443409D01*
X121087304Y-99894815D01*
X121047687Y-100362946D01*
X120408702Y-100362946D01*
X120408702Y-98660391D01*
X121953997Y-98660391D01*
X123444000Y-100150395D01*
X124934003Y-98660391D01*
X173520997Y-98660391D01*
X175011000Y-100150395D01*
X176501003Y-98660391D01*
X176314927Y-98319234D01*
X175897591Y-98103487D01*
X175446185Y-97973304D01*
X174978054Y-97933687D01*
X174511189Y-97986158D01*
X174063532Y-98128703D01*
X173707073Y-98319234D01*
X173520997Y-98660391D01*
X124934003Y-98660391D01*
X124747927Y-98319234D01*
X124330591Y-98103487D01*
X123879185Y-97973304D01*
X123411054Y-97933687D01*
X122944189Y-97986158D01*
X122496532Y-98128703D01*
X122140073Y-98319234D01*
X121953997Y-98660391D01*
X120408702Y-98660391D01*
X120408704Y-80672661D01*
X120446448Y-80581087D01*
X120447359Y-80578527D01*
X120448412Y-80576045D01*
X120449073Y-80574209D01*
X120984328Y-79052588D01*
X120986000Y-79046971D01*
X120987745Y-79041397D01*
X120988223Y-79039506D01*
X121372439Y-77472913D01*
X121373558Y-77467145D01*
X121374747Y-77461444D01*
X121375039Y-77459515D01*
X121604548Y-75862907D01*
X121605098Y-75857062D01*
X121605726Y-75851266D01*
X121605827Y-75849318D01*
X121678440Y-74237934D01*
X121678418Y-74232094D01*
X121678477Y-74226234D01*
X121678388Y-74224285D01*
X121593410Y-72613506D01*
X121592816Y-72607680D01*
X121592305Y-72601859D01*
X121592026Y-72599928D01*
X121350270Y-71005128D01*
X121349110Y-70999386D01*
X121348033Y-70993644D01*
X121347568Y-70991749D01*
X120951340Y-69428152D01*
X120949616Y-69422520D01*
X120947993Y-69416941D01*
X120947344Y-69415101D01*
X120408703Y-67920594D01*
X120408703Y-63899609D01*
X121953997Y-63899609D01*
X122140073Y-64240766D01*
X122557409Y-64456513D01*
X123008815Y-64586696D01*
X123476946Y-64626313D01*
X123943811Y-64573842D01*
X124391468Y-64431297D01*
X124747927Y-64240766D01*
X124934003Y-63899609D01*
X173520997Y-63899609D01*
X173707073Y-64240766D01*
X174124409Y-64456513D01*
X174575815Y-64586696D01*
X175043946Y-64626313D01*
X175510811Y-64573842D01*
X175958468Y-64431297D01*
X176314927Y-64240766D01*
X176501003Y-63899609D01*
X175011000Y-62409605D01*
X173520997Y-63899609D01*
X124934003Y-63899609D01*
X123444000Y-62409605D01*
X121953997Y-63899609D01*
X120408703Y-63899609D01*
X120408703Y-62262946D01*
X121047687Y-62262946D01*
X121100158Y-62729811D01*
X121242703Y-63177468D01*
X121433234Y-63533927D01*
X121774391Y-63720003D01*
X123264395Y-62230000D01*
X123623605Y-62230000D01*
X125113609Y-63720003D01*
X125454766Y-63533927D01*
X125670513Y-63116591D01*
X125800696Y-62665185D01*
X125834736Y-62262946D01*
X172614687Y-62262946D01*
X172667158Y-62729811D01*
X172809703Y-63177468D01*
X173000234Y-63533927D01*
X173341391Y-63720003D01*
X174831395Y-62230000D01*
X175190605Y-62230000D01*
X176680609Y-63720003D01*
X177021766Y-63533927D01*
X177237513Y-63116591D01*
X177367696Y-62665185D01*
X177407313Y-62197054D01*
X177354842Y-61730189D01*
X177212297Y-61282532D01*
X177021766Y-60926073D01*
X176680609Y-60739997D01*
X175190605Y-62230000D01*
X174831395Y-62230000D01*
X173341391Y-60739997D01*
X173000234Y-60926073D01*
X172784487Y-61343409D01*
X172654304Y-61794815D01*
X172614687Y-62262946D01*
X125834736Y-62262946D01*
X125840313Y-62197054D01*
X125787842Y-61730189D01*
X125645297Y-61282532D01*
X125454766Y-60926073D01*
X125113609Y-60739997D01*
X123623605Y-62230000D01*
X123264395Y-62230000D01*
X121774391Y-60739997D01*
X121433234Y-60926073D01*
X121217487Y-61343409D01*
X121087304Y-61794815D01*
X121047687Y-62262946D01*
X120408703Y-62262946D01*
X120408703Y-62236830D01*
X120467166Y-61640571D01*
X120638347Y-61073594D01*
X120911222Y-60560391D01*
X121953997Y-60560391D01*
X123444000Y-62050395D01*
X124934003Y-60560391D01*
X173520997Y-60560391D01*
X175011000Y-62050395D01*
X176501003Y-60560391D01*
X176314927Y-60219234D01*
X175897591Y-60003487D01*
X175446185Y-59873304D01*
X174978054Y-59833687D01*
X174511189Y-59886158D01*
X174063532Y-60028703D01*
X173707073Y-60219234D01*
X173520997Y-60560391D01*
X124934003Y-60560391D01*
X124747927Y-60219234D01*
X124330591Y-60003487D01*
X123879185Y-59873304D01*
X123411054Y-59833687D01*
X122944189Y-59886158D01*
X122496532Y-60028703D01*
X122140073Y-60219234D01*
X121953997Y-60560391D01*
X120911222Y-60560391D01*
X120916396Y-60550661D01*
X121290716Y-60091698D01*
X121747060Y-59714179D01*
X122268038Y-59432487D01*
X122833802Y-59257355D01*
X123429403Y-59194754D01*
X123444197Y-59194703D01*
X174999170Y-59194703D01*
X175595429Y-59253166D01*
%TA.AperFunction,Conductor*%
D12*
G36*
X175595429Y-59253166D02*
G01*
X176162406Y-59424347D01*
X176685339Y-59702396D01*
X177144302Y-60076716D01*
X177521821Y-60533060D01*
X177803513Y-61054038D01*
X177978645Y-61619802D01*
X178041246Y-62215403D01*
X178041297Y-62230197D01*
X178041298Y-116960159D01*
X178023951Y-117137074D01*
X177974556Y-117300679D01*
X177894330Y-117451562D01*
X177786318Y-117583998D01*
X177654644Y-117692928D01*
X177504320Y-117774208D01*
X177341072Y-117824741D01*
X177164531Y-117843297D01*
X121291831Y-117843297D01*
X121114926Y-117825951D01*
X120951321Y-117776556D01*
X120800438Y-117696330D01*
X120668002Y-117588318D01*
X120559072Y-117456644D01*
X120477792Y-117306320D01*
X120427259Y-117143072D01*
X120408702Y-116966521D01*
X120408702Y-116966508D01*
X120408702Y-101999609D01*
X121953997Y-101999609D01*
X122140073Y-102340766D01*
X122557409Y-102556513D01*
X123008815Y-102686696D01*
X123476946Y-102726313D01*
X123943811Y-102673842D01*
X124391468Y-102531297D01*
X124747927Y-102340766D01*
X124934003Y-101999609D01*
X173520997Y-101999609D01*
X173707073Y-102340766D01*
X174124409Y-102556513D01*
X174575815Y-102686696D01*
X175043946Y-102726313D01*
X175510811Y-102673842D01*
X175958468Y-102531297D01*
X176314927Y-102340766D01*
X176501003Y-101999609D01*
X175011000Y-100509605D01*
X173520997Y-101999609D01*
X124934003Y-101999609D01*
X123444000Y-100509605D01*
X121953997Y-101999609D01*
X120408702Y-101999609D01*
X120408702Y-100362946D01*
X121047687Y-100362946D01*
X121100158Y-100829811D01*
X121242703Y-101277468D01*
X121433234Y-101633927D01*
X121774391Y-101820003D01*
X123264395Y-100330000D01*
X123623605Y-100330000D01*
X125113609Y-101820003D01*
X125454766Y-101633927D01*
X125670513Y-101216591D01*
X125800696Y-100765185D01*
X125834736Y-100362946D01*
X172614687Y-100362946D01*
X172667158Y-100829811D01*
X172809703Y-101277468D01*
X173000234Y-101633927D01*
X173341391Y-101820003D01*
X174831395Y-100330000D01*
X175190605Y-100330000D01*
X176680609Y-101820003D01*
X177021766Y-101633927D01*
X177237513Y-101216591D01*
X177367696Y-100765185D01*
X177407313Y-100297054D01*
X177354842Y-99830189D01*
X177212297Y-99382532D01*
X177021766Y-99026073D01*
X176680609Y-98839997D01*
X175190605Y-100330000D01*
X174831395Y-100330000D01*
X173341391Y-98839997D01*
X173000234Y-99026073D01*
X172784487Y-99443409D01*
X172654304Y-99894815D01*
X172614687Y-100362946D01*
X125834736Y-100362946D01*
X125840313Y-100297054D01*
X125787842Y-99830189D01*
X125645297Y-99382532D01*
X125454766Y-99026073D01*
X125113609Y-98839997D01*
X123623605Y-100330000D01*
X123264395Y-100330000D01*
X121774391Y-98839997D01*
X121433234Y-99026073D01*
X121217487Y-99443409D01*
X121087304Y-99894815D01*
X121047687Y-100362946D01*
X120408702Y-100362946D01*
X120408702Y-98660391D01*
X121953997Y-98660391D01*
X123444000Y-100150395D01*
X124934003Y-98660391D01*
X173520997Y-98660391D01*
X175011000Y-100150395D01*
X176501003Y-98660391D01*
X176314927Y-98319234D01*
X175897591Y-98103487D01*
X175446185Y-97973304D01*
X174978054Y-97933687D01*
X174511189Y-97986158D01*
X174063532Y-98128703D01*
X173707073Y-98319234D01*
X173520997Y-98660391D01*
X124934003Y-98660391D01*
X124747927Y-98319234D01*
X124330591Y-98103487D01*
X123879185Y-97973304D01*
X123411054Y-97933687D01*
X122944189Y-97986158D01*
X122496532Y-98128703D01*
X122140073Y-98319234D01*
X121953997Y-98660391D01*
X120408702Y-98660391D01*
X120408704Y-80672661D01*
X120446448Y-80581087D01*
X120447359Y-80578527D01*
X120448412Y-80576045D01*
X120449073Y-80574209D01*
X120984328Y-79052588D01*
X120986000Y-79046971D01*
X120987745Y-79041397D01*
X120988223Y-79039506D01*
X121372439Y-77472913D01*
X121373558Y-77467145D01*
X121374747Y-77461444D01*
X121375039Y-77459515D01*
X121604548Y-75862907D01*
X121605098Y-75857062D01*
X121605726Y-75851266D01*
X121605827Y-75849318D01*
X121678440Y-74237934D01*
X121678418Y-74232094D01*
X121678477Y-74226234D01*
X121678388Y-74224285D01*
X121593410Y-72613506D01*
X121592816Y-72607680D01*
X121592305Y-72601859D01*
X121592026Y-72599928D01*
X121350270Y-71005128D01*
X121349110Y-70999386D01*
X121348033Y-70993644D01*
X121347568Y-70991749D01*
X120951340Y-69428152D01*
X120949616Y-69422520D01*
X120947993Y-69416941D01*
X120947344Y-69415101D01*
X120408703Y-67920594D01*
X120408703Y-63899609D01*
X121953997Y-63899609D01*
X122140073Y-64240766D01*
X122557409Y-64456513D01*
X123008815Y-64586696D01*
X123476946Y-64626313D01*
X123943811Y-64573842D01*
X124391468Y-64431297D01*
X124747927Y-64240766D01*
X124934003Y-63899609D01*
X173520997Y-63899609D01*
X173707073Y-64240766D01*
X174124409Y-64456513D01*
X174575815Y-64586696D01*
X175043946Y-64626313D01*
X175510811Y-64573842D01*
X175958468Y-64431297D01*
X176314927Y-64240766D01*
X176501003Y-63899609D01*
X175011000Y-62409605D01*
X173520997Y-63899609D01*
X124934003Y-63899609D01*
X123444000Y-62409605D01*
X121953997Y-63899609D01*
X120408703Y-63899609D01*
X120408703Y-62262946D01*
X121047687Y-62262946D01*
X121100158Y-62729811D01*
X121242703Y-63177468D01*
X121433234Y-63533927D01*
X121774391Y-63720003D01*
X123264395Y-62230000D01*
X123623605Y-62230000D01*
X125113609Y-63720003D01*
X125454766Y-63533927D01*
X125670513Y-63116591D01*
X125800696Y-62665185D01*
X125834736Y-62262946D01*
X172614687Y-62262946D01*
X172667158Y-62729811D01*
X172809703Y-63177468D01*
X173000234Y-63533927D01*
X173341391Y-63720003D01*
X174831395Y-62230000D01*
X175190605Y-62230000D01*
X176680609Y-63720003D01*
X177021766Y-63533927D01*
X177237513Y-63116591D01*
X177367696Y-62665185D01*
X177407313Y-62197054D01*
X177354842Y-61730189D01*
X177212297Y-61282532D01*
X177021766Y-60926073D01*
X176680609Y-60739997D01*
X175190605Y-62230000D01*
X174831395Y-62230000D01*
X173341391Y-60739997D01*
X173000234Y-60926073D01*
X172784487Y-61343409D01*
X172654304Y-61794815D01*
X172614687Y-62262946D01*
X125834736Y-62262946D01*
X125840313Y-62197054D01*
X125787842Y-61730189D01*
X125645297Y-61282532D01*
X125454766Y-60926073D01*
X125113609Y-60739997D01*
X123623605Y-62230000D01*
X123264395Y-62230000D01*
X121774391Y-60739997D01*
X121433234Y-60926073D01*
X121217487Y-61343409D01*
X121087304Y-61794815D01*
X121047687Y-62262946D01*
X120408703Y-62262946D01*
X120408703Y-62236830D01*
X120467166Y-61640571D01*
X120638347Y-61073594D01*
X120911222Y-60560391D01*
X121953997Y-60560391D01*
X123444000Y-62050395D01*
X124934003Y-60560391D01*
X173520997Y-60560391D01*
X175011000Y-62050395D01*
X176501003Y-60560391D01*
X176314927Y-60219234D01*
X175897591Y-60003487D01*
X175446185Y-59873304D01*
X174978054Y-59833687D01*
X174511189Y-59886158D01*
X174063532Y-60028703D01*
X173707073Y-60219234D01*
X173520997Y-60560391D01*
X124934003Y-60560391D01*
X124747927Y-60219234D01*
X124330591Y-60003487D01*
X123879185Y-59873304D01*
X123411054Y-59833687D01*
X122944189Y-59886158D01*
X122496532Y-60028703D01*
X122140073Y-60219234D01*
X121953997Y-60560391D01*
X120911222Y-60560391D01*
X120916396Y-60550661D01*
X121290716Y-60091698D01*
X121747060Y-59714179D01*
X122268038Y-59432487D01*
X122833802Y-59257355D01*
X123429403Y-59194754D01*
X123444197Y-59194703D01*
X174999170Y-59194703D01*
X175595429Y-59253166D01*
G37*
%TD.AperFunction*%
%TD*%
M02*
