%TF.GenerationSoftware,KiCad,Pcbnew,(5.1.8)-1*%
%TF.CreationDate,2021-04-29T23:29:39+02:00*%
%TF.ProjectId,ZX Cartridge 2021 FA1,5a582043-6172-4747-9269-646765203230,rev?*%
%TF.SameCoordinates,Original*%
%TF.FileFunction,Legend,Bot*%
%TF.FilePolarity,Positive*%
%FSLAX46Y46*%
G04 Gerber Fmt 4.6, Leading zero omitted, Abs format (unit mm)*
G04 Created by KiCad (PCBNEW (5.1.8)-1) date 2021-04-29 23:29:39*
%MOMM*%
%LPD*%
G01*
G04 APERTURE LIST*
%ADD10C,0.150000*%
%ADD11C,0.010000*%
G04 APERTURE END LIST*
D10*
X167814000Y-114562380D02*
X168290190Y-114562380D01*
X168290190Y-113562380D01*
X167480666Y-114562380D02*
X167480666Y-113895714D01*
X167480666Y-113562380D02*
X167528285Y-113610000D01*
X167480666Y-113657619D01*
X167433047Y-113610000D01*
X167480666Y-113562380D01*
X167480666Y-113657619D01*
X166575904Y-114514761D02*
X166671142Y-114562380D01*
X166861619Y-114562380D01*
X166956857Y-114514761D01*
X167004476Y-114467142D01*
X167052095Y-114371904D01*
X167052095Y-114086190D01*
X167004476Y-113990952D01*
X166956857Y-113943333D01*
X166861619Y-113895714D01*
X166671142Y-113895714D01*
X166575904Y-113943333D01*
X165766380Y-114514761D02*
X165861619Y-114562380D01*
X166052095Y-114562380D01*
X166147333Y-114514761D01*
X166194952Y-114419523D01*
X166194952Y-114038571D01*
X166147333Y-113943333D01*
X166052095Y-113895714D01*
X165861619Y-113895714D01*
X165766380Y-113943333D01*
X165718761Y-114038571D01*
X165718761Y-114133809D01*
X166194952Y-114229047D01*
X165290190Y-113895714D02*
X165290190Y-114562380D01*
X165290190Y-113990952D02*
X165242571Y-113943333D01*
X165147333Y-113895714D01*
X165004476Y-113895714D01*
X164909238Y-113943333D01*
X164861619Y-114038571D01*
X164861619Y-114562380D01*
X164433047Y-114514761D02*
X164337809Y-114562380D01*
X164147333Y-114562380D01*
X164052095Y-114514761D01*
X164004476Y-114419523D01*
X164004476Y-114371904D01*
X164052095Y-114276666D01*
X164147333Y-114229047D01*
X164290190Y-114229047D01*
X164385428Y-114181428D01*
X164433047Y-114086190D01*
X164433047Y-114038571D01*
X164385428Y-113943333D01*
X164290190Y-113895714D01*
X164147333Y-113895714D01*
X164052095Y-113943333D01*
X163194952Y-114514761D02*
X163290190Y-114562380D01*
X163480666Y-114562380D01*
X163575904Y-114514761D01*
X163623523Y-114419523D01*
X163623523Y-114038571D01*
X163575904Y-113943333D01*
X163480666Y-113895714D01*
X163290190Y-113895714D01*
X163194952Y-113943333D01*
X163147333Y-114038571D01*
X163147333Y-114133809D01*
X163623523Y-114229047D01*
X162290190Y-114562380D02*
X162290190Y-113562380D01*
X162290190Y-114514761D02*
X162385428Y-114562380D01*
X162575904Y-114562380D01*
X162671142Y-114514761D01*
X162718761Y-114467142D01*
X162766380Y-114371904D01*
X162766380Y-114086190D01*
X162718761Y-113990952D01*
X162671142Y-113943333D01*
X162575904Y-113895714D01*
X162385428Y-113895714D01*
X162290190Y-113943333D01*
X160623523Y-113895714D02*
X160623523Y-114562380D01*
X161052095Y-113895714D02*
X161052095Y-114419523D01*
X161004476Y-114514761D01*
X160909238Y-114562380D01*
X160766380Y-114562380D01*
X160671142Y-114514761D01*
X160623523Y-114467142D01*
X160147333Y-113895714D02*
X160147333Y-114562380D01*
X160147333Y-113990952D02*
X160099714Y-113943333D01*
X160004476Y-113895714D01*
X159861619Y-113895714D01*
X159766380Y-113943333D01*
X159718761Y-114038571D01*
X159718761Y-114562380D01*
X158814000Y-114562380D02*
X158814000Y-113562380D01*
X158814000Y-114514761D02*
X158909238Y-114562380D01*
X159099714Y-114562380D01*
X159194952Y-114514761D01*
X159242571Y-114467142D01*
X159290190Y-114371904D01*
X159290190Y-114086190D01*
X159242571Y-113990952D01*
X159194952Y-113943333D01*
X159099714Y-113895714D01*
X158909238Y-113895714D01*
X158814000Y-113943333D01*
X157956857Y-114514761D02*
X158052095Y-114562380D01*
X158242571Y-114562380D01*
X158337809Y-114514761D01*
X158385428Y-114419523D01*
X158385428Y-114038571D01*
X158337809Y-113943333D01*
X158242571Y-113895714D01*
X158052095Y-113895714D01*
X157956857Y-113943333D01*
X157909238Y-114038571D01*
X157909238Y-114133809D01*
X158385428Y-114229047D01*
X157480666Y-114562380D02*
X157480666Y-113895714D01*
X157480666Y-114086190D02*
X157433047Y-113990952D01*
X157385428Y-113943333D01*
X157290190Y-113895714D01*
X157194952Y-113895714D01*
X167766380Y-116117142D02*
X167814000Y-116164761D01*
X167956857Y-116212380D01*
X168052095Y-116212380D01*
X168194952Y-116164761D01*
X168290190Y-116069523D01*
X168337809Y-115974285D01*
X168385428Y-115783809D01*
X168385428Y-115640952D01*
X168337809Y-115450476D01*
X168290190Y-115355238D01*
X168194952Y-115260000D01*
X168052095Y-115212380D01*
X167956857Y-115212380D01*
X167814000Y-115260000D01*
X167766380Y-115307619D01*
X167337809Y-115688571D02*
X167004476Y-115688571D01*
X166861619Y-116212380D02*
X167337809Y-116212380D01*
X167337809Y-115212380D01*
X166861619Y-115212380D01*
X165861619Y-116212380D02*
X166194952Y-115736190D01*
X166433047Y-116212380D02*
X166433047Y-115212380D01*
X166052095Y-115212380D01*
X165956857Y-115260000D01*
X165909238Y-115307619D01*
X165861619Y-115402857D01*
X165861619Y-115545714D01*
X165909238Y-115640952D01*
X165956857Y-115688571D01*
X166052095Y-115736190D01*
X166433047Y-115736190D01*
X165433047Y-116212380D02*
X165433047Y-115212380D01*
X164861619Y-116212380D01*
X164861619Y-115212380D01*
X163433047Y-115212380D02*
X163242571Y-115212380D01*
X163147333Y-115260000D01*
X163052095Y-115355238D01*
X163004476Y-115545714D01*
X163004476Y-115879047D01*
X163052095Y-116069523D01*
X163147333Y-116164761D01*
X163242571Y-116212380D01*
X163433047Y-116212380D01*
X163528285Y-116164761D01*
X163623523Y-116069523D01*
X163671142Y-115879047D01*
X163671142Y-115545714D01*
X163623523Y-115355238D01*
X163528285Y-115260000D01*
X163433047Y-115212380D01*
X162575904Y-116212380D02*
X162575904Y-115212380D01*
X162575904Y-115688571D02*
X162004476Y-115688571D01*
X162004476Y-116212380D02*
X162004476Y-115212380D01*
X161052095Y-116212380D02*
X161528285Y-116212380D01*
X161528285Y-115212380D01*
X160052095Y-115545714D02*
X159814000Y-116212380D01*
X159575904Y-115545714D01*
X158671142Y-116212380D02*
X159242571Y-116212380D01*
X158956857Y-116212380D02*
X158956857Y-115212380D01*
X159052095Y-115355238D01*
X159147333Y-115450476D01*
X159242571Y-115498095D01*
X158242571Y-116117142D02*
X158194952Y-116164761D01*
X158242571Y-116212380D01*
X158290190Y-116164761D01*
X158242571Y-116117142D01*
X158242571Y-116212380D01*
X157814000Y-115307619D02*
X157766380Y-115260000D01*
X157671142Y-115212380D01*
X157433047Y-115212380D01*
X157337809Y-115260000D01*
X157290190Y-115307619D01*
X157242571Y-115402857D01*
X157242571Y-115498095D01*
X157290190Y-115640952D01*
X157861619Y-116212380D01*
X157242571Y-116212380D01*
X143286857Y-113562380D02*
X142620190Y-113562380D01*
X143286857Y-114562380D01*
X142620190Y-114562380D01*
X142334476Y-113562380D02*
X141667809Y-114562380D01*
X141667809Y-113562380D02*
X142334476Y-114562380D01*
X139953523Y-114467142D02*
X140001142Y-114514761D01*
X140144000Y-114562380D01*
X140239238Y-114562380D01*
X140382095Y-114514761D01*
X140477333Y-114419523D01*
X140524952Y-114324285D01*
X140572571Y-114133809D01*
X140572571Y-113990952D01*
X140524952Y-113800476D01*
X140477333Y-113705238D01*
X140382095Y-113610000D01*
X140239238Y-113562380D01*
X140144000Y-113562380D01*
X140001142Y-113610000D01*
X139953523Y-113657619D01*
X139096380Y-114562380D02*
X139096380Y-114038571D01*
X139144000Y-113943333D01*
X139239238Y-113895714D01*
X139429714Y-113895714D01*
X139524952Y-113943333D01*
X139096380Y-114514761D02*
X139191619Y-114562380D01*
X139429714Y-114562380D01*
X139524952Y-114514761D01*
X139572571Y-114419523D01*
X139572571Y-114324285D01*
X139524952Y-114229047D01*
X139429714Y-114181428D01*
X139191619Y-114181428D01*
X139096380Y-114133809D01*
X138620190Y-114562380D02*
X138620190Y-113895714D01*
X138620190Y-114086190D02*
X138572571Y-113990952D01*
X138524952Y-113943333D01*
X138429714Y-113895714D01*
X138334476Y-113895714D01*
X138144000Y-113895714D02*
X137763047Y-113895714D01*
X138001142Y-113562380D02*
X138001142Y-114419523D01*
X137953523Y-114514761D01*
X137858285Y-114562380D01*
X137763047Y-114562380D01*
X137429714Y-114562380D02*
X137429714Y-113895714D01*
X137429714Y-114086190D02*
X137382095Y-113990952D01*
X137334476Y-113943333D01*
X137239238Y-113895714D01*
X137144000Y-113895714D01*
X136810666Y-114562380D02*
X136810666Y-113895714D01*
X136810666Y-113562380D02*
X136858285Y-113610000D01*
X136810666Y-113657619D01*
X136763047Y-113610000D01*
X136810666Y-113562380D01*
X136810666Y-113657619D01*
X135905904Y-114562380D02*
X135905904Y-113562380D01*
X135905904Y-114514761D02*
X136001142Y-114562380D01*
X136191619Y-114562380D01*
X136286857Y-114514761D01*
X136334476Y-114467142D01*
X136382095Y-114371904D01*
X136382095Y-114086190D01*
X136334476Y-113990952D01*
X136286857Y-113943333D01*
X136191619Y-113895714D01*
X136001142Y-113895714D01*
X135905904Y-113943333D01*
X135001142Y-113895714D02*
X135001142Y-114705238D01*
X135048761Y-114800476D01*
X135096380Y-114848095D01*
X135191619Y-114895714D01*
X135334476Y-114895714D01*
X135429714Y-114848095D01*
X135001142Y-114514761D02*
X135096380Y-114562380D01*
X135286857Y-114562380D01*
X135382095Y-114514761D01*
X135429714Y-114467142D01*
X135477333Y-114371904D01*
X135477333Y-114086190D01*
X135429714Y-113990952D01*
X135382095Y-113943333D01*
X135286857Y-113895714D01*
X135096380Y-113895714D01*
X135001142Y-113943333D01*
X134144000Y-114514761D02*
X134239238Y-114562380D01*
X134429714Y-114562380D01*
X134524952Y-114514761D01*
X134572571Y-114419523D01*
X134572571Y-114038571D01*
X134524952Y-113943333D01*
X134429714Y-113895714D01*
X134239238Y-113895714D01*
X134144000Y-113943333D01*
X134096380Y-114038571D01*
X134096380Y-114133809D01*
X134572571Y-114229047D01*
X132953523Y-113657619D02*
X132905904Y-113610000D01*
X132810666Y-113562380D01*
X132572571Y-113562380D01*
X132477333Y-113610000D01*
X132429714Y-113657619D01*
X132382095Y-113752857D01*
X132382095Y-113848095D01*
X132429714Y-113990952D01*
X133001142Y-114562380D01*
X132382095Y-114562380D01*
X131953523Y-114467142D02*
X131905904Y-114514761D01*
X131953523Y-114562380D01*
X132001142Y-114514761D01*
X131953523Y-114467142D01*
X131953523Y-114562380D01*
X131286857Y-113562380D02*
X131191619Y-113562380D01*
X131096380Y-113610000D01*
X131048761Y-113657619D01*
X131001142Y-113752857D01*
X130953523Y-113943333D01*
X130953523Y-114181428D01*
X131001142Y-114371904D01*
X131048761Y-114467142D01*
X131096380Y-114514761D01*
X131191619Y-114562380D01*
X131286857Y-114562380D01*
X131382095Y-114514761D01*
X131429714Y-114467142D01*
X131477333Y-114371904D01*
X131524952Y-114181428D01*
X131524952Y-113943333D01*
X131477333Y-113752857D01*
X131429714Y-113657619D01*
X131382095Y-113610000D01*
X131286857Y-113562380D01*
X130572571Y-113657619D02*
X130524952Y-113610000D01*
X130429714Y-113562380D01*
X130191619Y-113562380D01*
X130096380Y-113610000D01*
X130048761Y-113657619D01*
X130001142Y-113752857D01*
X130001142Y-113848095D01*
X130048761Y-113990952D01*
X130620190Y-114562380D01*
X130001142Y-114562380D01*
X129048761Y-114562380D02*
X129620190Y-114562380D01*
X129334476Y-114562380D02*
X129334476Y-113562380D01*
X129429714Y-113705238D01*
X129524952Y-113800476D01*
X129620190Y-113848095D01*
X141548761Y-115545714D02*
X141548761Y-116355238D01*
X141596380Y-116450476D01*
X141644000Y-116498095D01*
X141739238Y-116545714D01*
X141882095Y-116545714D01*
X141977333Y-116498095D01*
X141548761Y-116164761D02*
X141644000Y-116212380D01*
X141834476Y-116212380D01*
X141929714Y-116164761D01*
X141977333Y-116117142D01*
X142024952Y-116021904D01*
X142024952Y-115736190D01*
X141977333Y-115640952D01*
X141929714Y-115593333D01*
X141834476Y-115545714D01*
X141644000Y-115545714D01*
X141548761Y-115593333D01*
X141072571Y-116212380D02*
X141072571Y-115545714D01*
X141072571Y-115212380D02*
X141120190Y-115260000D01*
X141072571Y-115307619D01*
X141024952Y-115260000D01*
X141072571Y-115212380D01*
X141072571Y-115307619D01*
X140739238Y-115545714D02*
X140358285Y-115545714D01*
X140596380Y-115212380D02*
X140596380Y-116069523D01*
X140548761Y-116164761D01*
X140453523Y-116212380D01*
X140358285Y-116212380D01*
X140024952Y-116212380D02*
X140024952Y-115212380D01*
X139596380Y-116212380D02*
X139596380Y-115688571D01*
X139644000Y-115593333D01*
X139739238Y-115545714D01*
X139882095Y-115545714D01*
X139977333Y-115593333D01*
X140024952Y-115640952D01*
X138691619Y-115545714D02*
X138691619Y-116212380D01*
X139120190Y-115545714D02*
X139120190Y-116069523D01*
X139072571Y-116164761D01*
X138977333Y-116212380D01*
X138834476Y-116212380D01*
X138739238Y-116164761D01*
X138691619Y-116117142D01*
X138215428Y-116212380D02*
X138215428Y-115212380D01*
X138215428Y-115593333D02*
X138120190Y-115545714D01*
X137929714Y-115545714D01*
X137834476Y-115593333D01*
X137786857Y-115640952D01*
X137739238Y-115736190D01*
X137739238Y-116021904D01*
X137786857Y-116117142D01*
X137834476Y-116164761D01*
X137929714Y-116212380D01*
X138120190Y-116212380D01*
X138215428Y-116164761D01*
X137310666Y-116117142D02*
X137263047Y-116164761D01*
X137310666Y-116212380D01*
X137358285Y-116164761D01*
X137310666Y-116117142D01*
X137310666Y-116212380D01*
X136405904Y-116164761D02*
X136501142Y-116212380D01*
X136691619Y-116212380D01*
X136786857Y-116164761D01*
X136834476Y-116117142D01*
X136882095Y-116021904D01*
X136882095Y-115736190D01*
X136834476Y-115640952D01*
X136786857Y-115593333D01*
X136691619Y-115545714D01*
X136501142Y-115545714D01*
X136405904Y-115593333D01*
X135834476Y-116212380D02*
X135929714Y-116164761D01*
X135977333Y-116117142D01*
X136024952Y-116021904D01*
X136024952Y-115736190D01*
X135977333Y-115640952D01*
X135929714Y-115593333D01*
X135834476Y-115545714D01*
X135691619Y-115545714D01*
X135596380Y-115593333D01*
X135548761Y-115640952D01*
X135501142Y-115736190D01*
X135501142Y-116021904D01*
X135548761Y-116117142D01*
X135596380Y-116164761D01*
X135691619Y-116212380D01*
X135834476Y-116212380D01*
X135072571Y-116212380D02*
X135072571Y-115545714D01*
X135072571Y-115640952D02*
X135024952Y-115593333D01*
X134929714Y-115545714D01*
X134786857Y-115545714D01*
X134691619Y-115593333D01*
X134644000Y-115688571D01*
X134644000Y-116212380D01*
X134644000Y-115688571D02*
X134596380Y-115593333D01*
X134501142Y-115545714D01*
X134358285Y-115545714D01*
X134263047Y-115593333D01*
X134215428Y-115688571D01*
X134215428Y-116212380D01*
X133024952Y-115164761D02*
X133882095Y-116450476D01*
X132834476Y-115545714D02*
X132453523Y-115545714D01*
X132691619Y-115212380D02*
X132691619Y-116069523D01*
X132644000Y-116164761D01*
X132548761Y-116212380D01*
X132453523Y-116212380D01*
X131739238Y-116164761D02*
X131834476Y-116212380D01*
X132024952Y-116212380D01*
X132120190Y-116164761D01*
X132167809Y-116069523D01*
X132167809Y-115688571D01*
X132120190Y-115593333D01*
X132024952Y-115545714D01*
X131834476Y-115545714D01*
X131739238Y-115593333D01*
X131691619Y-115688571D01*
X131691619Y-115783809D01*
X132167809Y-115879047D01*
X131263047Y-116212380D02*
X131263047Y-115212380D01*
X131263047Y-115593333D02*
X131167809Y-115545714D01*
X130977333Y-115545714D01*
X130882095Y-115593333D01*
X130834476Y-115640952D01*
X130786857Y-115736190D01*
X130786857Y-116021904D01*
X130834476Y-116117142D01*
X130882095Y-116164761D01*
X130977333Y-116212380D01*
X131167809Y-116212380D01*
X131263047Y-116164761D01*
X130215428Y-116212380D02*
X130310666Y-116164761D01*
X130358285Y-116069523D01*
X130358285Y-115212380D01*
D11*
%TO.C,E*%
G36*
X155290000Y-67226000D02*
G01*
X155040000Y-67226000D01*
X155040000Y-67476000D01*
X155290000Y-67476000D01*
X155290000Y-67226000D01*
G37*
X155290000Y-67226000D02*
X155040000Y-67226000D01*
X155040000Y-67476000D01*
X155290000Y-67476000D01*
X155290000Y-67226000D01*
G36*
X137290000Y-66976000D02*
G01*
X137040000Y-66976000D01*
X137040000Y-67226000D01*
X137290000Y-67226000D01*
X137290000Y-66976000D01*
G37*
X137290000Y-66976000D02*
X137040000Y-66976000D01*
X137040000Y-67226000D01*
X137290000Y-67226000D01*
X137290000Y-66976000D01*
G36*
X138540000Y-66976000D02*
G01*
X138290000Y-66976000D01*
X138290000Y-67226000D01*
X138540000Y-67226000D01*
X138540000Y-66976000D01*
G37*
X138540000Y-66976000D02*
X138290000Y-66976000D01*
X138290000Y-67226000D01*
X138540000Y-67226000D01*
X138540000Y-66976000D01*
G36*
X139290000Y-66976000D02*
G01*
X139040000Y-66976000D01*
X139040000Y-67226000D01*
X139290000Y-67226000D01*
X139290000Y-66976000D01*
G37*
X139290000Y-66976000D02*
X139040000Y-66976000D01*
X139040000Y-67226000D01*
X139290000Y-67226000D01*
X139290000Y-66976000D01*
G36*
X139540000Y-66976000D02*
G01*
X139290000Y-66976000D01*
X139290000Y-67226000D01*
X139540000Y-67226000D01*
X139540000Y-66976000D01*
G37*
X139540000Y-66976000D02*
X139290000Y-66976000D01*
X139290000Y-67226000D01*
X139540000Y-67226000D01*
X139540000Y-66976000D01*
G36*
X139790000Y-66976000D02*
G01*
X139540000Y-66976000D01*
X139540000Y-67226000D01*
X139790000Y-67226000D01*
X139790000Y-66976000D01*
G37*
X139790000Y-66976000D02*
X139540000Y-66976000D01*
X139540000Y-67226000D01*
X139790000Y-67226000D01*
X139790000Y-66976000D01*
G36*
X140040000Y-66976000D02*
G01*
X139790000Y-66976000D01*
X139790000Y-67226000D01*
X140040000Y-67226000D01*
X140040000Y-66976000D01*
G37*
X140040000Y-66976000D02*
X139790000Y-66976000D01*
X139790000Y-67226000D01*
X140040000Y-67226000D01*
X140040000Y-66976000D01*
G36*
X141290000Y-66976000D02*
G01*
X141040000Y-66976000D01*
X141040000Y-67226000D01*
X141290000Y-67226000D01*
X141290000Y-66976000D01*
G37*
X141290000Y-66976000D02*
X141040000Y-66976000D01*
X141040000Y-67226000D01*
X141290000Y-67226000D01*
X141290000Y-66976000D01*
G36*
X143790000Y-66976000D02*
G01*
X143540000Y-66976000D01*
X143540000Y-67226000D01*
X143790000Y-67226000D01*
X143790000Y-66976000D01*
G37*
X143790000Y-66976000D02*
X143540000Y-66976000D01*
X143540000Y-67226000D01*
X143790000Y-67226000D01*
X143790000Y-66976000D01*
G36*
X144290000Y-66976000D02*
G01*
X144040000Y-66976000D01*
X144040000Y-67226000D01*
X144290000Y-67226000D01*
X144290000Y-66976000D01*
G37*
X144290000Y-66976000D02*
X144040000Y-66976000D01*
X144040000Y-67226000D01*
X144290000Y-67226000D01*
X144290000Y-66976000D01*
G36*
X144790000Y-66976000D02*
G01*
X144540000Y-66976000D01*
X144540000Y-67226000D01*
X144790000Y-67226000D01*
X144790000Y-66976000D01*
G37*
X144790000Y-66976000D02*
X144540000Y-66976000D01*
X144540000Y-67226000D01*
X144790000Y-67226000D01*
X144790000Y-66976000D01*
G36*
X145790000Y-66976000D02*
G01*
X145540000Y-66976000D01*
X145540000Y-67226000D01*
X145790000Y-67226000D01*
X145790000Y-66976000D01*
G37*
X145790000Y-66976000D02*
X145540000Y-66976000D01*
X145540000Y-67226000D01*
X145790000Y-67226000D01*
X145790000Y-66976000D01*
G36*
X146040000Y-66976000D02*
G01*
X145790000Y-66976000D01*
X145790000Y-67226000D01*
X146040000Y-67226000D01*
X146040000Y-66976000D01*
G37*
X146040000Y-66976000D02*
X145790000Y-66976000D01*
X145790000Y-67226000D01*
X146040000Y-67226000D01*
X146040000Y-66976000D01*
G36*
X146290000Y-66976000D02*
G01*
X146040000Y-66976000D01*
X146040000Y-67226000D01*
X146290000Y-67226000D01*
X146290000Y-66976000D01*
G37*
X146290000Y-66976000D02*
X146040000Y-66976000D01*
X146040000Y-67226000D01*
X146290000Y-67226000D01*
X146290000Y-66976000D01*
G36*
X148040000Y-66976000D02*
G01*
X147790000Y-66976000D01*
X147790000Y-67226000D01*
X148040000Y-67226000D01*
X148040000Y-66976000D01*
G37*
X148040000Y-66976000D02*
X147790000Y-66976000D01*
X147790000Y-67226000D01*
X148040000Y-67226000D01*
X148040000Y-66976000D01*
G36*
X149040000Y-66976000D02*
G01*
X148790000Y-66976000D01*
X148790000Y-67226000D01*
X149040000Y-67226000D01*
X149040000Y-66976000D01*
G37*
X149040000Y-66976000D02*
X148790000Y-66976000D01*
X148790000Y-67226000D01*
X149040000Y-67226000D01*
X149040000Y-66976000D01*
G36*
X149290000Y-66976000D02*
G01*
X149040000Y-66976000D01*
X149040000Y-67226000D01*
X149290000Y-67226000D01*
X149290000Y-66976000D01*
G37*
X149290000Y-66976000D02*
X149040000Y-66976000D01*
X149040000Y-67226000D01*
X149290000Y-67226000D01*
X149290000Y-66976000D01*
G36*
X150790000Y-66976000D02*
G01*
X150540000Y-66976000D01*
X150540000Y-67226000D01*
X150790000Y-67226000D01*
X150790000Y-66976000D01*
G37*
X150790000Y-66976000D02*
X150540000Y-66976000D01*
X150540000Y-67226000D01*
X150790000Y-67226000D01*
X150790000Y-66976000D01*
G36*
X151040000Y-66976000D02*
G01*
X150790000Y-66976000D01*
X150790000Y-67226000D01*
X151040000Y-67226000D01*
X151040000Y-66976000D01*
G37*
X151040000Y-66976000D02*
X150790000Y-66976000D01*
X150790000Y-67226000D01*
X151040000Y-67226000D01*
X151040000Y-66976000D01*
G36*
X151290000Y-66976000D02*
G01*
X151040000Y-66976000D01*
X151040000Y-67226000D01*
X151290000Y-67226000D01*
X151290000Y-66976000D01*
G37*
X151290000Y-66976000D02*
X151040000Y-66976000D01*
X151040000Y-67226000D01*
X151290000Y-67226000D01*
X151290000Y-66976000D01*
G36*
X152540000Y-66976000D02*
G01*
X152290000Y-66976000D01*
X152290000Y-67226000D01*
X152540000Y-67226000D01*
X152540000Y-66976000D01*
G37*
X152540000Y-66976000D02*
X152290000Y-66976000D01*
X152290000Y-67226000D01*
X152540000Y-67226000D01*
X152540000Y-66976000D01*
G36*
X152790000Y-66976000D02*
G01*
X152540000Y-66976000D01*
X152540000Y-67226000D01*
X152790000Y-67226000D01*
X152790000Y-66976000D01*
G37*
X152790000Y-66976000D02*
X152540000Y-66976000D01*
X152540000Y-67226000D01*
X152790000Y-67226000D01*
X152790000Y-66976000D01*
G36*
X153040000Y-66976000D02*
G01*
X152790000Y-66976000D01*
X152790000Y-67226000D01*
X153040000Y-67226000D01*
X153040000Y-66976000D01*
G37*
X153040000Y-66976000D02*
X152790000Y-66976000D01*
X152790000Y-67226000D01*
X153040000Y-67226000D01*
X153040000Y-66976000D01*
G36*
X153290000Y-66976000D02*
G01*
X153040000Y-66976000D01*
X153040000Y-67226000D01*
X153290000Y-67226000D01*
X153290000Y-66976000D01*
G37*
X153290000Y-66976000D02*
X153040000Y-66976000D01*
X153040000Y-67226000D01*
X153290000Y-67226000D01*
X153290000Y-66976000D01*
G36*
X155290000Y-66976000D02*
G01*
X155040000Y-66976000D01*
X155040000Y-67226000D01*
X155290000Y-67226000D01*
X155290000Y-66976000D01*
G37*
X155290000Y-66976000D02*
X155040000Y-66976000D01*
X155040000Y-67226000D01*
X155290000Y-67226000D01*
X155290000Y-66976000D01*
G36*
X156040000Y-66976000D02*
G01*
X155790000Y-66976000D01*
X155790000Y-67226000D01*
X156040000Y-67226000D01*
X156040000Y-66976000D01*
G37*
X156040000Y-66976000D02*
X155790000Y-66976000D01*
X155790000Y-67226000D01*
X156040000Y-67226000D01*
X156040000Y-66976000D01*
G36*
X156290000Y-66976000D02*
G01*
X156040000Y-66976000D01*
X156040000Y-67226000D01*
X156290000Y-67226000D01*
X156290000Y-66976000D01*
G37*
X156290000Y-66976000D02*
X156040000Y-66976000D01*
X156040000Y-67226000D01*
X156290000Y-67226000D01*
X156290000Y-66976000D01*
G36*
X156540000Y-66976000D02*
G01*
X156290000Y-66976000D01*
X156290000Y-67226000D01*
X156540000Y-67226000D01*
X156540000Y-66976000D01*
G37*
X156540000Y-66976000D02*
X156290000Y-66976000D01*
X156290000Y-67226000D01*
X156540000Y-67226000D01*
X156540000Y-66976000D01*
G36*
X156790000Y-66976000D02*
G01*
X156540000Y-66976000D01*
X156540000Y-67226000D01*
X156790000Y-67226000D01*
X156790000Y-66976000D01*
G37*
X156790000Y-66976000D02*
X156540000Y-66976000D01*
X156540000Y-67226000D01*
X156790000Y-67226000D01*
X156790000Y-66976000D01*
G36*
X157540000Y-66976000D02*
G01*
X157290000Y-66976000D01*
X157290000Y-67226000D01*
X157540000Y-67226000D01*
X157540000Y-66976000D01*
G37*
X157540000Y-66976000D02*
X157290000Y-66976000D01*
X157290000Y-67226000D01*
X157540000Y-67226000D01*
X157540000Y-66976000D01*
G36*
X158790000Y-66976000D02*
G01*
X158540000Y-66976000D01*
X158540000Y-67226000D01*
X158790000Y-67226000D01*
X158790000Y-66976000D01*
G37*
X158790000Y-66976000D02*
X158540000Y-66976000D01*
X158540000Y-67226000D01*
X158790000Y-67226000D01*
X158790000Y-66976000D01*
G36*
X159290000Y-66976000D02*
G01*
X159040000Y-66976000D01*
X159040000Y-67226000D01*
X159290000Y-67226000D01*
X159290000Y-66976000D01*
G37*
X159290000Y-66976000D02*
X159040000Y-66976000D01*
X159040000Y-67226000D01*
X159290000Y-67226000D01*
X159290000Y-66976000D01*
G36*
X159540000Y-66976000D02*
G01*
X159290000Y-66976000D01*
X159290000Y-67226000D01*
X159540000Y-67226000D01*
X159540000Y-66976000D01*
G37*
X159540000Y-66976000D02*
X159290000Y-66976000D01*
X159290000Y-67226000D01*
X159540000Y-67226000D01*
X159540000Y-66976000D01*
G36*
X159790000Y-66976000D02*
G01*
X159540000Y-66976000D01*
X159540000Y-67226000D01*
X159790000Y-67226000D01*
X159790000Y-66976000D01*
G37*
X159790000Y-66976000D02*
X159540000Y-66976000D01*
X159540000Y-67226000D01*
X159790000Y-67226000D01*
X159790000Y-66976000D01*
G36*
X160040000Y-66976000D02*
G01*
X159790000Y-66976000D01*
X159790000Y-67226000D01*
X160040000Y-67226000D01*
X160040000Y-66976000D01*
G37*
X160040000Y-66976000D02*
X159790000Y-66976000D01*
X159790000Y-67226000D01*
X160040000Y-67226000D01*
X160040000Y-66976000D01*
G36*
X160290000Y-66976000D02*
G01*
X160040000Y-66976000D01*
X160040000Y-67226000D01*
X160290000Y-67226000D01*
X160290000Y-66976000D01*
G37*
X160290000Y-66976000D02*
X160040000Y-66976000D01*
X160040000Y-67226000D01*
X160290000Y-67226000D01*
X160290000Y-66976000D01*
G36*
X160540000Y-66976000D02*
G01*
X160290000Y-66976000D01*
X160290000Y-67226000D01*
X160540000Y-67226000D01*
X160540000Y-66976000D01*
G37*
X160540000Y-66976000D02*
X160290000Y-66976000D01*
X160290000Y-67226000D01*
X160540000Y-67226000D01*
X160540000Y-66976000D01*
G36*
X137540000Y-66726000D02*
G01*
X137290000Y-66726000D01*
X137290000Y-66976000D01*
X137540000Y-66976000D01*
X137540000Y-66726000D01*
G37*
X137540000Y-66726000D02*
X137290000Y-66726000D01*
X137290000Y-66976000D01*
X137540000Y-66976000D01*
X137540000Y-66726000D01*
G36*
X138540000Y-66726000D02*
G01*
X138290000Y-66726000D01*
X138290000Y-66976000D01*
X138540000Y-66976000D01*
X138540000Y-66726000D01*
G37*
X138540000Y-66726000D02*
X138290000Y-66726000D01*
X138290000Y-66976000D01*
X138540000Y-66976000D01*
X138540000Y-66726000D01*
G36*
X139040000Y-66726000D02*
G01*
X138790000Y-66726000D01*
X138790000Y-66976000D01*
X139040000Y-66976000D01*
X139040000Y-66726000D01*
G37*
X139040000Y-66726000D02*
X138790000Y-66726000D01*
X138790000Y-66976000D01*
X139040000Y-66976000D01*
X139040000Y-66726000D01*
G36*
X140290000Y-66726000D02*
G01*
X140040000Y-66726000D01*
X140040000Y-66976000D01*
X140290000Y-66976000D01*
X140290000Y-66726000D01*
G37*
X140290000Y-66726000D02*
X140040000Y-66726000D01*
X140040000Y-66976000D01*
X140290000Y-66976000D01*
X140290000Y-66726000D01*
G36*
X140790000Y-66726000D02*
G01*
X140540000Y-66726000D01*
X140540000Y-66976000D01*
X140790000Y-66976000D01*
X140790000Y-66726000D01*
G37*
X140790000Y-66726000D02*
X140540000Y-66726000D01*
X140540000Y-66976000D01*
X140790000Y-66976000D01*
X140790000Y-66726000D01*
G36*
X141040000Y-66726000D02*
G01*
X140790000Y-66726000D01*
X140790000Y-66976000D01*
X141040000Y-66976000D01*
X141040000Y-66726000D01*
G37*
X141040000Y-66726000D02*
X140790000Y-66726000D01*
X140790000Y-66976000D01*
X141040000Y-66976000D01*
X141040000Y-66726000D01*
G36*
X141290000Y-66726000D02*
G01*
X141040000Y-66726000D01*
X141040000Y-66976000D01*
X141290000Y-66976000D01*
X141290000Y-66726000D01*
G37*
X141290000Y-66726000D02*
X141040000Y-66726000D01*
X141040000Y-66976000D01*
X141290000Y-66976000D01*
X141290000Y-66726000D01*
G36*
X141540000Y-66726000D02*
G01*
X141290000Y-66726000D01*
X141290000Y-66976000D01*
X141540000Y-66976000D01*
X141540000Y-66726000D01*
G37*
X141540000Y-66726000D02*
X141290000Y-66726000D01*
X141290000Y-66976000D01*
X141540000Y-66976000D01*
X141540000Y-66726000D01*
G36*
X141790000Y-66726000D02*
G01*
X141540000Y-66726000D01*
X141540000Y-66976000D01*
X141790000Y-66976000D01*
X141790000Y-66726000D01*
G37*
X141790000Y-66726000D02*
X141540000Y-66726000D01*
X141540000Y-66976000D01*
X141790000Y-66976000D01*
X141790000Y-66726000D01*
G36*
X142040000Y-66726000D02*
G01*
X141790000Y-66726000D01*
X141790000Y-66976000D01*
X142040000Y-66976000D01*
X142040000Y-66726000D01*
G37*
X142040000Y-66726000D02*
X141790000Y-66726000D01*
X141790000Y-66976000D01*
X142040000Y-66976000D01*
X142040000Y-66726000D01*
G36*
X143790000Y-66726000D02*
G01*
X143540000Y-66726000D01*
X143540000Y-66976000D01*
X143790000Y-66976000D01*
X143790000Y-66726000D01*
G37*
X143790000Y-66726000D02*
X143540000Y-66726000D01*
X143540000Y-66976000D01*
X143790000Y-66976000D01*
X143790000Y-66726000D01*
G36*
X144290000Y-66726000D02*
G01*
X144040000Y-66726000D01*
X144040000Y-66976000D01*
X144290000Y-66976000D01*
X144290000Y-66726000D01*
G37*
X144290000Y-66726000D02*
X144040000Y-66726000D01*
X144040000Y-66976000D01*
X144290000Y-66976000D01*
X144290000Y-66726000D01*
G36*
X144790000Y-66726000D02*
G01*
X144540000Y-66726000D01*
X144540000Y-66976000D01*
X144790000Y-66976000D01*
X144790000Y-66726000D01*
G37*
X144790000Y-66726000D02*
X144540000Y-66726000D01*
X144540000Y-66976000D01*
X144790000Y-66976000D01*
X144790000Y-66726000D01*
G36*
X145540000Y-66726000D02*
G01*
X145290000Y-66726000D01*
X145290000Y-66976000D01*
X145540000Y-66976000D01*
X145540000Y-66726000D01*
G37*
X145540000Y-66726000D02*
X145290000Y-66726000D01*
X145290000Y-66976000D01*
X145540000Y-66976000D01*
X145540000Y-66726000D01*
G36*
X146540000Y-66726000D02*
G01*
X146290000Y-66726000D01*
X146290000Y-66976000D01*
X146540000Y-66976000D01*
X146540000Y-66726000D01*
G37*
X146540000Y-66726000D02*
X146290000Y-66726000D01*
X146290000Y-66976000D01*
X146540000Y-66976000D01*
X146540000Y-66726000D01*
G36*
X148040000Y-66726000D02*
G01*
X147790000Y-66726000D01*
X147790000Y-66976000D01*
X148040000Y-66976000D01*
X148040000Y-66726000D01*
G37*
X148040000Y-66726000D02*
X147790000Y-66726000D01*
X147790000Y-66976000D01*
X148040000Y-66976000D01*
X148040000Y-66726000D01*
G36*
X149540000Y-66726000D02*
G01*
X149290000Y-66726000D01*
X149290000Y-66976000D01*
X149540000Y-66976000D01*
X149540000Y-66726000D01*
G37*
X149540000Y-66726000D02*
X149290000Y-66726000D01*
X149290000Y-66976000D01*
X149540000Y-66976000D01*
X149540000Y-66726000D01*
G36*
X151540000Y-66726000D02*
G01*
X151290000Y-66726000D01*
X151290000Y-66976000D01*
X151540000Y-66976000D01*
X151540000Y-66726000D01*
G37*
X151540000Y-66726000D02*
X151290000Y-66726000D01*
X151290000Y-66976000D01*
X151540000Y-66976000D01*
X151540000Y-66726000D01*
G36*
X153540000Y-66726000D02*
G01*
X153290000Y-66726000D01*
X153290000Y-66976000D01*
X153540000Y-66976000D01*
X153540000Y-66726000D01*
G37*
X153540000Y-66726000D02*
X153290000Y-66726000D01*
X153290000Y-66976000D01*
X153540000Y-66976000D01*
X153540000Y-66726000D01*
G36*
X154540000Y-66726000D02*
G01*
X154290000Y-66726000D01*
X154290000Y-66976000D01*
X154540000Y-66976000D01*
X154540000Y-66726000D01*
G37*
X154540000Y-66726000D02*
X154290000Y-66726000D01*
X154290000Y-66976000D01*
X154540000Y-66976000D01*
X154540000Y-66726000D01*
G36*
X154790000Y-66726000D02*
G01*
X154540000Y-66726000D01*
X154540000Y-66976000D01*
X154790000Y-66976000D01*
X154790000Y-66726000D01*
G37*
X154790000Y-66726000D02*
X154540000Y-66726000D01*
X154540000Y-66976000D01*
X154790000Y-66976000D01*
X154790000Y-66726000D01*
G36*
X155040000Y-66726000D02*
G01*
X154790000Y-66726000D01*
X154790000Y-66976000D01*
X155040000Y-66976000D01*
X155040000Y-66726000D01*
G37*
X155040000Y-66726000D02*
X154790000Y-66726000D01*
X154790000Y-66976000D01*
X155040000Y-66976000D01*
X155040000Y-66726000D01*
G36*
X155290000Y-66726000D02*
G01*
X155040000Y-66726000D01*
X155040000Y-66976000D01*
X155290000Y-66976000D01*
X155290000Y-66726000D01*
G37*
X155290000Y-66726000D02*
X155040000Y-66726000D01*
X155040000Y-66976000D01*
X155290000Y-66976000D01*
X155290000Y-66726000D01*
G36*
X155790000Y-66726000D02*
G01*
X155540000Y-66726000D01*
X155540000Y-66976000D01*
X155790000Y-66976000D01*
X155790000Y-66726000D01*
G37*
X155790000Y-66726000D02*
X155540000Y-66726000D01*
X155540000Y-66976000D01*
X155790000Y-66976000D01*
X155790000Y-66726000D01*
G36*
X157040000Y-66726000D02*
G01*
X156790000Y-66726000D01*
X156790000Y-66976000D01*
X157040000Y-66976000D01*
X157040000Y-66726000D01*
G37*
X157040000Y-66726000D02*
X156790000Y-66726000D01*
X156790000Y-66976000D01*
X157040000Y-66976000D01*
X157040000Y-66726000D01*
G36*
X157790000Y-66726000D02*
G01*
X157540000Y-66726000D01*
X157540000Y-66976000D01*
X157790000Y-66976000D01*
X157790000Y-66726000D01*
G37*
X157790000Y-66726000D02*
X157540000Y-66726000D01*
X157540000Y-66976000D01*
X157790000Y-66976000D01*
X157790000Y-66726000D01*
G36*
X158540000Y-66726000D02*
G01*
X158290000Y-66726000D01*
X158290000Y-66976000D01*
X158540000Y-66976000D01*
X158540000Y-66726000D01*
G37*
X158540000Y-66726000D02*
X158290000Y-66726000D01*
X158290000Y-66976000D01*
X158540000Y-66976000D01*
X158540000Y-66726000D01*
G36*
X160290000Y-66726000D02*
G01*
X160040000Y-66726000D01*
X160040000Y-66976000D01*
X160290000Y-66976000D01*
X160290000Y-66726000D01*
G37*
X160290000Y-66726000D02*
X160040000Y-66726000D01*
X160040000Y-66976000D01*
X160290000Y-66976000D01*
X160290000Y-66726000D01*
G36*
X137790000Y-66476000D02*
G01*
X137540000Y-66476000D01*
X137540000Y-66726000D01*
X137790000Y-66726000D01*
X137790000Y-66476000D01*
G37*
X137790000Y-66476000D02*
X137540000Y-66476000D01*
X137540000Y-66726000D01*
X137790000Y-66726000D01*
X137790000Y-66476000D01*
G36*
X138540000Y-66476000D02*
G01*
X138290000Y-66476000D01*
X138290000Y-66726000D01*
X138540000Y-66726000D01*
X138540000Y-66476000D01*
G37*
X138540000Y-66476000D02*
X138290000Y-66476000D01*
X138290000Y-66726000D01*
X138540000Y-66726000D01*
X138540000Y-66476000D01*
G36*
X139040000Y-66476000D02*
G01*
X138790000Y-66476000D01*
X138790000Y-66726000D01*
X139040000Y-66726000D01*
X139040000Y-66476000D01*
G37*
X139040000Y-66476000D02*
X138790000Y-66476000D01*
X138790000Y-66726000D01*
X139040000Y-66726000D01*
X139040000Y-66476000D01*
G36*
X140290000Y-66476000D02*
G01*
X140040000Y-66476000D01*
X140040000Y-66726000D01*
X140290000Y-66726000D01*
X140290000Y-66476000D01*
G37*
X140290000Y-66476000D02*
X140040000Y-66476000D01*
X140040000Y-66726000D01*
X140290000Y-66726000D01*
X140290000Y-66476000D01*
G36*
X141290000Y-66476000D02*
G01*
X141040000Y-66476000D01*
X141040000Y-66726000D01*
X141290000Y-66726000D01*
X141290000Y-66476000D01*
G37*
X141290000Y-66476000D02*
X141040000Y-66476000D01*
X141040000Y-66726000D01*
X141290000Y-66726000D01*
X141290000Y-66476000D01*
G36*
X142040000Y-66476000D02*
G01*
X141790000Y-66476000D01*
X141790000Y-66726000D01*
X142040000Y-66726000D01*
X142040000Y-66476000D01*
G37*
X142040000Y-66476000D02*
X141790000Y-66476000D01*
X141790000Y-66726000D01*
X142040000Y-66726000D01*
X142040000Y-66476000D01*
G36*
X143790000Y-66476000D02*
G01*
X143540000Y-66476000D01*
X143540000Y-66726000D01*
X143790000Y-66726000D01*
X143790000Y-66476000D01*
G37*
X143790000Y-66476000D02*
X143540000Y-66476000D01*
X143540000Y-66726000D01*
X143790000Y-66726000D01*
X143790000Y-66476000D01*
G36*
X144290000Y-66476000D02*
G01*
X144040000Y-66476000D01*
X144040000Y-66726000D01*
X144290000Y-66726000D01*
X144290000Y-66476000D01*
G37*
X144290000Y-66476000D02*
X144040000Y-66476000D01*
X144040000Y-66726000D01*
X144290000Y-66726000D01*
X144290000Y-66476000D01*
G36*
X144790000Y-66476000D02*
G01*
X144540000Y-66476000D01*
X144540000Y-66726000D01*
X144790000Y-66726000D01*
X144790000Y-66476000D01*
G37*
X144790000Y-66476000D02*
X144540000Y-66476000D01*
X144540000Y-66726000D01*
X144790000Y-66726000D01*
X144790000Y-66476000D01*
G36*
X145540000Y-66476000D02*
G01*
X145290000Y-66476000D01*
X145290000Y-66726000D01*
X145540000Y-66726000D01*
X145540000Y-66476000D01*
G37*
X145540000Y-66476000D02*
X145290000Y-66476000D01*
X145290000Y-66726000D01*
X145540000Y-66726000D01*
X145540000Y-66476000D01*
G36*
X146540000Y-66476000D02*
G01*
X146290000Y-66476000D01*
X146290000Y-66726000D01*
X146540000Y-66726000D01*
X146540000Y-66476000D01*
G37*
X146540000Y-66476000D02*
X146290000Y-66476000D01*
X146290000Y-66726000D01*
X146540000Y-66726000D01*
X146540000Y-66476000D01*
G36*
X148040000Y-66476000D02*
G01*
X147790000Y-66476000D01*
X147790000Y-66726000D01*
X148040000Y-66726000D01*
X148040000Y-66476000D01*
G37*
X148040000Y-66476000D02*
X147790000Y-66476000D01*
X147790000Y-66726000D01*
X148040000Y-66726000D01*
X148040000Y-66476000D01*
G36*
X149540000Y-66476000D02*
G01*
X149290000Y-66476000D01*
X149290000Y-66726000D01*
X149540000Y-66726000D01*
X149540000Y-66476000D01*
G37*
X149540000Y-66476000D02*
X149290000Y-66476000D01*
X149290000Y-66726000D01*
X149540000Y-66726000D01*
X149540000Y-66476000D01*
G36*
X151540000Y-66476000D02*
G01*
X151290000Y-66476000D01*
X151290000Y-66726000D01*
X151540000Y-66726000D01*
X151540000Y-66476000D01*
G37*
X151540000Y-66476000D02*
X151290000Y-66476000D01*
X151290000Y-66726000D01*
X151540000Y-66726000D01*
X151540000Y-66476000D01*
G36*
X152790000Y-66476000D02*
G01*
X152540000Y-66476000D01*
X152540000Y-66726000D01*
X152790000Y-66726000D01*
X152790000Y-66476000D01*
G37*
X152790000Y-66476000D02*
X152540000Y-66476000D01*
X152540000Y-66726000D01*
X152790000Y-66726000D01*
X152790000Y-66476000D01*
G36*
X153040000Y-66476000D02*
G01*
X152790000Y-66476000D01*
X152790000Y-66726000D01*
X153040000Y-66726000D01*
X153040000Y-66476000D01*
G37*
X153040000Y-66476000D02*
X152790000Y-66476000D01*
X152790000Y-66726000D01*
X153040000Y-66726000D01*
X153040000Y-66476000D01*
G36*
X153290000Y-66476000D02*
G01*
X153040000Y-66476000D01*
X153040000Y-66726000D01*
X153290000Y-66726000D01*
X153290000Y-66476000D01*
G37*
X153290000Y-66476000D02*
X153040000Y-66476000D01*
X153040000Y-66726000D01*
X153290000Y-66726000D01*
X153290000Y-66476000D01*
G36*
X153540000Y-66476000D02*
G01*
X153290000Y-66476000D01*
X153290000Y-66726000D01*
X153540000Y-66726000D01*
X153540000Y-66476000D01*
G37*
X153540000Y-66476000D02*
X153290000Y-66476000D01*
X153290000Y-66726000D01*
X153540000Y-66726000D01*
X153540000Y-66476000D01*
G36*
X154290000Y-66476000D02*
G01*
X154040000Y-66476000D01*
X154040000Y-66726000D01*
X154290000Y-66726000D01*
X154290000Y-66476000D01*
G37*
X154290000Y-66476000D02*
X154040000Y-66476000D01*
X154040000Y-66726000D01*
X154290000Y-66726000D01*
X154290000Y-66476000D01*
G36*
X155290000Y-66476000D02*
G01*
X155040000Y-66476000D01*
X155040000Y-66726000D01*
X155290000Y-66726000D01*
X155290000Y-66476000D01*
G37*
X155290000Y-66476000D02*
X155040000Y-66476000D01*
X155040000Y-66726000D01*
X155290000Y-66726000D01*
X155290000Y-66476000D01*
G36*
X155790000Y-66476000D02*
G01*
X155540000Y-66476000D01*
X155540000Y-66726000D01*
X155790000Y-66726000D01*
X155790000Y-66476000D01*
G37*
X155790000Y-66476000D02*
X155540000Y-66476000D01*
X155540000Y-66726000D01*
X155790000Y-66726000D01*
X155790000Y-66476000D01*
G36*
X158040000Y-66476000D02*
G01*
X157790000Y-66476000D01*
X157790000Y-66726000D01*
X158040000Y-66726000D01*
X158040000Y-66476000D01*
G37*
X158040000Y-66476000D02*
X157790000Y-66476000D01*
X157790000Y-66726000D01*
X158040000Y-66726000D01*
X158040000Y-66476000D01*
G36*
X158290000Y-66476000D02*
G01*
X158040000Y-66476000D01*
X158040000Y-66726000D01*
X158290000Y-66726000D01*
X158290000Y-66476000D01*
G37*
X158290000Y-66476000D02*
X158040000Y-66476000D01*
X158040000Y-66726000D01*
X158290000Y-66726000D01*
X158290000Y-66476000D01*
G36*
X160040000Y-66476000D02*
G01*
X159790000Y-66476000D01*
X159790000Y-66726000D01*
X160040000Y-66726000D01*
X160040000Y-66476000D01*
G37*
X160040000Y-66476000D02*
X159790000Y-66476000D01*
X159790000Y-66726000D01*
X160040000Y-66726000D01*
X160040000Y-66476000D01*
G36*
X138040000Y-66226000D02*
G01*
X137790000Y-66226000D01*
X137790000Y-66476000D01*
X138040000Y-66476000D01*
X138040000Y-66226000D01*
G37*
X138040000Y-66226000D02*
X137790000Y-66226000D01*
X137790000Y-66476000D01*
X138040000Y-66476000D01*
X138040000Y-66226000D01*
G36*
X138290000Y-66226000D02*
G01*
X138040000Y-66226000D01*
X138040000Y-66476000D01*
X138290000Y-66476000D01*
X138290000Y-66226000D01*
G37*
X138290000Y-66226000D02*
X138040000Y-66226000D01*
X138040000Y-66476000D01*
X138290000Y-66476000D01*
X138290000Y-66226000D01*
G36*
X138540000Y-66226000D02*
G01*
X138290000Y-66226000D01*
X138290000Y-66476000D01*
X138540000Y-66476000D01*
X138540000Y-66226000D01*
G37*
X138540000Y-66226000D02*
X138290000Y-66226000D01*
X138290000Y-66476000D01*
X138540000Y-66476000D01*
X138540000Y-66226000D01*
G36*
X139290000Y-66226000D02*
G01*
X139040000Y-66226000D01*
X139040000Y-66476000D01*
X139290000Y-66476000D01*
X139290000Y-66226000D01*
G37*
X139290000Y-66226000D02*
X139040000Y-66226000D01*
X139040000Y-66476000D01*
X139290000Y-66476000D01*
X139290000Y-66226000D01*
G36*
X139540000Y-66226000D02*
G01*
X139290000Y-66226000D01*
X139290000Y-66476000D01*
X139540000Y-66476000D01*
X139540000Y-66226000D01*
G37*
X139540000Y-66226000D02*
X139290000Y-66226000D01*
X139290000Y-66476000D01*
X139540000Y-66476000D01*
X139540000Y-66226000D01*
G36*
X139790000Y-66226000D02*
G01*
X139540000Y-66226000D01*
X139540000Y-66476000D01*
X139790000Y-66476000D01*
X139790000Y-66226000D01*
G37*
X139790000Y-66226000D02*
X139540000Y-66226000D01*
X139540000Y-66476000D01*
X139790000Y-66476000D01*
X139790000Y-66226000D01*
G36*
X140040000Y-66226000D02*
G01*
X139790000Y-66226000D01*
X139790000Y-66476000D01*
X140040000Y-66476000D01*
X140040000Y-66226000D01*
G37*
X140040000Y-66226000D02*
X139790000Y-66226000D01*
X139790000Y-66476000D01*
X140040000Y-66476000D01*
X140040000Y-66226000D01*
G36*
X141290000Y-66226000D02*
G01*
X141040000Y-66226000D01*
X141040000Y-66476000D01*
X141290000Y-66476000D01*
X141290000Y-66226000D01*
G37*
X141290000Y-66226000D02*
X141040000Y-66226000D01*
X141040000Y-66476000D01*
X141290000Y-66476000D01*
X141290000Y-66226000D01*
G36*
X141790000Y-66226000D02*
G01*
X141540000Y-66226000D01*
X141540000Y-66476000D01*
X141790000Y-66476000D01*
X141790000Y-66226000D01*
G37*
X141790000Y-66226000D02*
X141540000Y-66226000D01*
X141540000Y-66476000D01*
X141790000Y-66476000D01*
X141790000Y-66226000D01*
G36*
X143790000Y-66226000D02*
G01*
X143540000Y-66226000D01*
X143540000Y-66476000D01*
X143790000Y-66476000D01*
X143790000Y-66226000D01*
G37*
X143790000Y-66226000D02*
X143540000Y-66226000D01*
X143540000Y-66476000D01*
X143790000Y-66476000D01*
X143790000Y-66226000D01*
G36*
X144290000Y-66226000D02*
G01*
X144040000Y-66226000D01*
X144040000Y-66476000D01*
X144290000Y-66476000D01*
X144290000Y-66226000D01*
G37*
X144290000Y-66226000D02*
X144040000Y-66226000D01*
X144040000Y-66476000D01*
X144290000Y-66476000D01*
X144290000Y-66226000D01*
G36*
X144790000Y-66226000D02*
G01*
X144540000Y-66226000D01*
X144540000Y-66476000D01*
X144790000Y-66476000D01*
X144790000Y-66226000D01*
G37*
X144790000Y-66226000D02*
X144540000Y-66226000D01*
X144540000Y-66476000D01*
X144790000Y-66476000D01*
X144790000Y-66226000D01*
G36*
X145540000Y-66226000D02*
G01*
X145290000Y-66226000D01*
X145290000Y-66476000D01*
X145540000Y-66476000D01*
X145540000Y-66226000D01*
G37*
X145540000Y-66226000D02*
X145290000Y-66226000D01*
X145290000Y-66476000D01*
X145540000Y-66476000D01*
X145540000Y-66226000D01*
G36*
X146540000Y-66226000D02*
G01*
X146290000Y-66226000D01*
X146290000Y-66476000D01*
X146540000Y-66476000D01*
X146540000Y-66226000D01*
G37*
X146540000Y-66226000D02*
X146290000Y-66226000D01*
X146290000Y-66476000D01*
X146540000Y-66476000D01*
X146540000Y-66226000D01*
G36*
X148040000Y-66226000D02*
G01*
X147790000Y-66226000D01*
X147790000Y-66476000D01*
X148040000Y-66476000D01*
X148040000Y-66226000D01*
G37*
X148040000Y-66226000D02*
X147790000Y-66226000D01*
X147790000Y-66476000D01*
X148040000Y-66476000D01*
X148040000Y-66226000D01*
G36*
X149540000Y-66226000D02*
G01*
X149290000Y-66226000D01*
X149290000Y-66476000D01*
X149540000Y-66476000D01*
X149540000Y-66226000D01*
G37*
X149540000Y-66226000D02*
X149290000Y-66226000D01*
X149290000Y-66476000D01*
X149540000Y-66476000D01*
X149540000Y-66226000D01*
G36*
X151540000Y-66226000D02*
G01*
X151290000Y-66226000D01*
X151290000Y-66476000D01*
X151540000Y-66476000D01*
X151540000Y-66226000D01*
G37*
X151540000Y-66226000D02*
X151290000Y-66226000D01*
X151290000Y-66476000D01*
X151540000Y-66476000D01*
X151540000Y-66226000D01*
G36*
X152540000Y-66226000D02*
G01*
X152290000Y-66226000D01*
X152290000Y-66476000D01*
X152540000Y-66476000D01*
X152540000Y-66226000D01*
G37*
X152540000Y-66226000D02*
X152290000Y-66226000D01*
X152290000Y-66476000D01*
X152540000Y-66476000D01*
X152540000Y-66226000D01*
G36*
X153540000Y-66226000D02*
G01*
X153290000Y-66226000D01*
X153290000Y-66476000D01*
X153540000Y-66476000D01*
X153540000Y-66226000D01*
G37*
X153540000Y-66226000D02*
X153290000Y-66226000D01*
X153290000Y-66476000D01*
X153540000Y-66476000D01*
X153540000Y-66226000D01*
G36*
X154290000Y-66226000D02*
G01*
X154040000Y-66226000D01*
X154040000Y-66476000D01*
X154290000Y-66476000D01*
X154290000Y-66226000D01*
G37*
X154290000Y-66226000D02*
X154040000Y-66226000D01*
X154040000Y-66476000D01*
X154290000Y-66476000D01*
X154290000Y-66226000D01*
G36*
X155290000Y-66226000D02*
G01*
X155040000Y-66226000D01*
X155040000Y-66476000D01*
X155290000Y-66476000D01*
X155290000Y-66226000D01*
G37*
X155290000Y-66226000D02*
X155040000Y-66226000D01*
X155040000Y-66476000D01*
X155290000Y-66476000D01*
X155290000Y-66226000D01*
G36*
X156040000Y-66226000D02*
G01*
X155790000Y-66226000D01*
X155790000Y-66476000D01*
X156040000Y-66476000D01*
X156040000Y-66226000D01*
G37*
X156040000Y-66226000D02*
X155790000Y-66226000D01*
X155790000Y-66476000D01*
X156040000Y-66476000D01*
X156040000Y-66226000D01*
G36*
X156290000Y-66226000D02*
G01*
X156040000Y-66226000D01*
X156040000Y-66476000D01*
X156290000Y-66476000D01*
X156290000Y-66226000D01*
G37*
X156290000Y-66226000D02*
X156040000Y-66226000D01*
X156040000Y-66476000D01*
X156290000Y-66476000D01*
X156290000Y-66226000D01*
G36*
X156540000Y-66226000D02*
G01*
X156290000Y-66226000D01*
X156290000Y-66476000D01*
X156540000Y-66476000D01*
X156540000Y-66226000D01*
G37*
X156540000Y-66226000D02*
X156290000Y-66226000D01*
X156290000Y-66476000D01*
X156540000Y-66476000D01*
X156540000Y-66226000D01*
G36*
X156790000Y-66226000D02*
G01*
X156540000Y-66226000D01*
X156540000Y-66476000D01*
X156790000Y-66476000D01*
X156790000Y-66226000D01*
G37*
X156790000Y-66226000D02*
X156540000Y-66226000D01*
X156540000Y-66476000D01*
X156790000Y-66476000D01*
X156790000Y-66226000D01*
G36*
X158040000Y-66226000D02*
G01*
X157790000Y-66226000D01*
X157790000Y-66476000D01*
X158040000Y-66476000D01*
X158040000Y-66226000D01*
G37*
X158040000Y-66226000D02*
X157790000Y-66226000D01*
X157790000Y-66476000D01*
X158040000Y-66476000D01*
X158040000Y-66226000D01*
G36*
X158290000Y-66226000D02*
G01*
X158040000Y-66226000D01*
X158040000Y-66476000D01*
X158290000Y-66476000D01*
X158290000Y-66226000D01*
G37*
X158290000Y-66226000D02*
X158040000Y-66226000D01*
X158040000Y-66476000D01*
X158290000Y-66476000D01*
X158290000Y-66226000D01*
G36*
X159790000Y-66226000D02*
G01*
X159540000Y-66226000D01*
X159540000Y-66476000D01*
X159790000Y-66476000D01*
X159790000Y-66226000D01*
G37*
X159790000Y-66226000D02*
X159540000Y-66226000D01*
X159540000Y-66476000D01*
X159790000Y-66476000D01*
X159790000Y-66226000D01*
G36*
X137790000Y-65976000D02*
G01*
X137540000Y-65976000D01*
X137540000Y-66226000D01*
X137790000Y-66226000D01*
X137790000Y-65976000D01*
G37*
X137790000Y-65976000D02*
X137540000Y-65976000D01*
X137540000Y-66226000D01*
X137790000Y-66226000D01*
X137790000Y-65976000D01*
G36*
X138540000Y-65976000D02*
G01*
X138290000Y-65976000D01*
X138290000Y-66226000D01*
X138540000Y-66226000D01*
X138540000Y-65976000D01*
G37*
X138540000Y-65976000D02*
X138290000Y-65976000D01*
X138290000Y-66226000D01*
X138540000Y-66226000D01*
X138540000Y-65976000D01*
G36*
X139040000Y-65976000D02*
G01*
X138790000Y-65976000D01*
X138790000Y-66226000D01*
X139040000Y-66226000D01*
X139040000Y-65976000D01*
G37*
X139040000Y-65976000D02*
X138790000Y-65976000D01*
X138790000Y-66226000D01*
X139040000Y-66226000D01*
X139040000Y-65976000D01*
G36*
X140290000Y-65976000D02*
G01*
X140040000Y-65976000D01*
X140040000Y-66226000D01*
X140290000Y-66226000D01*
X140290000Y-65976000D01*
G37*
X140290000Y-65976000D02*
X140040000Y-65976000D01*
X140040000Y-66226000D01*
X140290000Y-66226000D01*
X140290000Y-65976000D01*
G36*
X141290000Y-65976000D02*
G01*
X141040000Y-65976000D01*
X141040000Y-66226000D01*
X141290000Y-66226000D01*
X141290000Y-65976000D01*
G37*
X141290000Y-65976000D02*
X141040000Y-65976000D01*
X141040000Y-66226000D01*
X141290000Y-66226000D01*
X141290000Y-65976000D01*
G36*
X141540000Y-65976000D02*
G01*
X141290000Y-65976000D01*
X141290000Y-66226000D01*
X141540000Y-66226000D01*
X141540000Y-65976000D01*
G37*
X141540000Y-65976000D02*
X141290000Y-65976000D01*
X141290000Y-66226000D01*
X141540000Y-66226000D01*
X141540000Y-65976000D01*
G36*
X144040000Y-65976000D02*
G01*
X143790000Y-65976000D01*
X143790000Y-66226000D01*
X144040000Y-66226000D01*
X144040000Y-65976000D01*
G37*
X144040000Y-65976000D02*
X143790000Y-65976000D01*
X143790000Y-66226000D01*
X144040000Y-66226000D01*
X144040000Y-65976000D01*
G36*
X144540000Y-65976000D02*
G01*
X144290000Y-65976000D01*
X144290000Y-66226000D01*
X144540000Y-66226000D01*
X144540000Y-65976000D01*
G37*
X144540000Y-65976000D02*
X144290000Y-65976000D01*
X144290000Y-66226000D01*
X144540000Y-66226000D01*
X144540000Y-65976000D01*
G36*
X144790000Y-65976000D02*
G01*
X144540000Y-65976000D01*
X144540000Y-66226000D01*
X144790000Y-66226000D01*
X144790000Y-65976000D01*
G37*
X144790000Y-65976000D02*
X144540000Y-65976000D01*
X144540000Y-66226000D01*
X144790000Y-66226000D01*
X144790000Y-65976000D01*
G36*
X145540000Y-65976000D02*
G01*
X145290000Y-65976000D01*
X145290000Y-66226000D01*
X145540000Y-66226000D01*
X145540000Y-65976000D01*
G37*
X145540000Y-65976000D02*
X145290000Y-65976000D01*
X145290000Y-66226000D01*
X145540000Y-66226000D01*
X145540000Y-65976000D01*
G36*
X146540000Y-65976000D02*
G01*
X146290000Y-65976000D01*
X146290000Y-66226000D01*
X146540000Y-66226000D01*
X146540000Y-65976000D01*
G37*
X146540000Y-65976000D02*
X146290000Y-65976000D01*
X146290000Y-66226000D01*
X146540000Y-66226000D01*
X146540000Y-65976000D01*
G36*
X147290000Y-65976000D02*
G01*
X147040000Y-65976000D01*
X147040000Y-66226000D01*
X147290000Y-66226000D01*
X147290000Y-65976000D01*
G37*
X147290000Y-65976000D02*
X147040000Y-65976000D01*
X147040000Y-66226000D01*
X147290000Y-66226000D01*
X147290000Y-65976000D01*
G36*
X147540000Y-65976000D02*
G01*
X147290000Y-65976000D01*
X147290000Y-66226000D01*
X147540000Y-66226000D01*
X147540000Y-65976000D01*
G37*
X147540000Y-65976000D02*
X147290000Y-65976000D01*
X147290000Y-66226000D01*
X147540000Y-66226000D01*
X147540000Y-65976000D01*
G36*
X147790000Y-65976000D02*
G01*
X147540000Y-65976000D01*
X147540000Y-66226000D01*
X147790000Y-66226000D01*
X147790000Y-65976000D01*
G37*
X147790000Y-65976000D02*
X147540000Y-65976000D01*
X147540000Y-66226000D01*
X147790000Y-66226000D01*
X147790000Y-65976000D01*
G36*
X149290000Y-65976000D02*
G01*
X149040000Y-65976000D01*
X149040000Y-66226000D01*
X149290000Y-66226000D01*
X149290000Y-65976000D01*
G37*
X149290000Y-65976000D02*
X149040000Y-65976000D01*
X149040000Y-66226000D01*
X149290000Y-66226000D01*
X149290000Y-65976000D01*
G36*
X149540000Y-65976000D02*
G01*
X149290000Y-65976000D01*
X149290000Y-66226000D01*
X149540000Y-66226000D01*
X149540000Y-65976000D01*
G37*
X149540000Y-65976000D02*
X149290000Y-65976000D01*
X149290000Y-66226000D01*
X149540000Y-66226000D01*
X149540000Y-65976000D01*
G36*
X149790000Y-65976000D02*
G01*
X149540000Y-65976000D01*
X149540000Y-66226000D01*
X149790000Y-66226000D01*
X149790000Y-65976000D01*
G37*
X149790000Y-65976000D02*
X149540000Y-65976000D01*
X149540000Y-66226000D01*
X149790000Y-66226000D01*
X149790000Y-65976000D01*
G36*
X150790000Y-65976000D02*
G01*
X150540000Y-65976000D01*
X150540000Y-66226000D01*
X150790000Y-66226000D01*
X150790000Y-65976000D01*
G37*
X150790000Y-65976000D02*
X150540000Y-65976000D01*
X150540000Y-66226000D01*
X150790000Y-66226000D01*
X150790000Y-65976000D01*
G36*
X151040000Y-65976000D02*
G01*
X150790000Y-65976000D01*
X150790000Y-66226000D01*
X151040000Y-66226000D01*
X151040000Y-65976000D01*
G37*
X151040000Y-65976000D02*
X150790000Y-65976000D01*
X150790000Y-66226000D01*
X151040000Y-66226000D01*
X151040000Y-65976000D01*
G36*
X151290000Y-65976000D02*
G01*
X151040000Y-65976000D01*
X151040000Y-66226000D01*
X151290000Y-66226000D01*
X151290000Y-65976000D01*
G37*
X151290000Y-65976000D02*
X151040000Y-65976000D01*
X151040000Y-66226000D01*
X151290000Y-66226000D01*
X151290000Y-65976000D01*
G36*
X152790000Y-65976000D02*
G01*
X152540000Y-65976000D01*
X152540000Y-66226000D01*
X152790000Y-66226000D01*
X152790000Y-65976000D01*
G37*
X152790000Y-65976000D02*
X152540000Y-65976000D01*
X152540000Y-66226000D01*
X152790000Y-66226000D01*
X152790000Y-65976000D01*
G36*
X153040000Y-65976000D02*
G01*
X152790000Y-65976000D01*
X152790000Y-66226000D01*
X153040000Y-66226000D01*
X153040000Y-65976000D01*
G37*
X153040000Y-65976000D02*
X152790000Y-65976000D01*
X152790000Y-66226000D01*
X153040000Y-66226000D01*
X153040000Y-65976000D01*
G36*
X153290000Y-65976000D02*
G01*
X153040000Y-65976000D01*
X153040000Y-66226000D01*
X153290000Y-66226000D01*
X153290000Y-65976000D01*
G37*
X153290000Y-65976000D02*
X153040000Y-65976000D01*
X153040000Y-66226000D01*
X153290000Y-66226000D01*
X153290000Y-65976000D01*
G36*
X154540000Y-65976000D02*
G01*
X154290000Y-65976000D01*
X154290000Y-66226000D01*
X154540000Y-66226000D01*
X154540000Y-65976000D01*
G37*
X154540000Y-65976000D02*
X154290000Y-65976000D01*
X154290000Y-66226000D01*
X154540000Y-66226000D01*
X154540000Y-65976000D01*
G36*
X154790000Y-65976000D02*
G01*
X154540000Y-65976000D01*
X154540000Y-66226000D01*
X154790000Y-66226000D01*
X154790000Y-65976000D01*
G37*
X154790000Y-65976000D02*
X154540000Y-65976000D01*
X154540000Y-66226000D01*
X154790000Y-66226000D01*
X154790000Y-65976000D01*
G36*
X155040000Y-65976000D02*
G01*
X154790000Y-65976000D01*
X154790000Y-66226000D01*
X155040000Y-66226000D01*
X155040000Y-65976000D01*
G37*
X155040000Y-65976000D02*
X154790000Y-65976000D01*
X154790000Y-66226000D01*
X155040000Y-66226000D01*
X155040000Y-65976000D01*
G36*
X155290000Y-65976000D02*
G01*
X155040000Y-65976000D01*
X155040000Y-66226000D01*
X155290000Y-66226000D01*
X155290000Y-65976000D01*
G37*
X155290000Y-65976000D02*
X155040000Y-65976000D01*
X155040000Y-66226000D01*
X155290000Y-66226000D01*
X155290000Y-65976000D01*
G36*
X157040000Y-65976000D02*
G01*
X156790000Y-65976000D01*
X156790000Y-66226000D01*
X157040000Y-66226000D01*
X157040000Y-65976000D01*
G37*
X157040000Y-65976000D02*
X156790000Y-65976000D01*
X156790000Y-66226000D01*
X157040000Y-66226000D01*
X157040000Y-65976000D01*
G36*
X157790000Y-65976000D02*
G01*
X157540000Y-65976000D01*
X157540000Y-66226000D01*
X157790000Y-66226000D01*
X157790000Y-65976000D01*
G37*
X157790000Y-65976000D02*
X157540000Y-65976000D01*
X157540000Y-66226000D01*
X157790000Y-66226000D01*
X157790000Y-65976000D01*
G36*
X158540000Y-65976000D02*
G01*
X158290000Y-65976000D01*
X158290000Y-66226000D01*
X158540000Y-66226000D01*
X158540000Y-65976000D01*
G37*
X158540000Y-65976000D02*
X158290000Y-65976000D01*
X158290000Y-66226000D01*
X158540000Y-66226000D01*
X158540000Y-65976000D01*
G36*
X159540000Y-65976000D02*
G01*
X159290000Y-65976000D01*
X159290000Y-66226000D01*
X159540000Y-66226000D01*
X159540000Y-65976000D01*
G37*
X159540000Y-65976000D02*
X159290000Y-65976000D01*
X159290000Y-66226000D01*
X159540000Y-66226000D01*
X159540000Y-65976000D01*
G36*
X137540000Y-65726000D02*
G01*
X137290000Y-65726000D01*
X137290000Y-65976000D01*
X137540000Y-65976000D01*
X137540000Y-65726000D01*
G37*
X137540000Y-65726000D02*
X137290000Y-65726000D01*
X137290000Y-65976000D01*
X137540000Y-65976000D01*
X137540000Y-65726000D01*
G36*
X138540000Y-65726000D02*
G01*
X138290000Y-65726000D01*
X138290000Y-65976000D01*
X138540000Y-65976000D01*
X138540000Y-65726000D01*
G37*
X138540000Y-65726000D02*
X138290000Y-65726000D01*
X138290000Y-65976000D01*
X138540000Y-65976000D01*
X138540000Y-65726000D01*
G36*
X139290000Y-65726000D02*
G01*
X139040000Y-65726000D01*
X139040000Y-65976000D01*
X139290000Y-65976000D01*
X139290000Y-65726000D01*
G37*
X139290000Y-65726000D02*
X139040000Y-65726000D01*
X139040000Y-65976000D01*
X139290000Y-65976000D01*
X139290000Y-65726000D01*
G36*
X139540000Y-65726000D02*
G01*
X139290000Y-65726000D01*
X139290000Y-65976000D01*
X139540000Y-65976000D01*
X139540000Y-65726000D01*
G37*
X139540000Y-65726000D02*
X139290000Y-65726000D01*
X139290000Y-65976000D01*
X139540000Y-65976000D01*
X139540000Y-65726000D01*
G36*
X139790000Y-65726000D02*
G01*
X139540000Y-65726000D01*
X139540000Y-65976000D01*
X139790000Y-65976000D01*
X139790000Y-65726000D01*
G37*
X139790000Y-65726000D02*
X139540000Y-65726000D01*
X139540000Y-65976000D01*
X139790000Y-65976000D01*
X139790000Y-65726000D01*
G36*
X140040000Y-65726000D02*
G01*
X139790000Y-65726000D01*
X139790000Y-65976000D01*
X140040000Y-65976000D01*
X140040000Y-65726000D01*
G37*
X140040000Y-65726000D02*
X139790000Y-65726000D01*
X139790000Y-65976000D01*
X140040000Y-65976000D01*
X140040000Y-65726000D01*
G36*
X141290000Y-65726000D02*
G01*
X141040000Y-65726000D01*
X141040000Y-65976000D01*
X141290000Y-65976000D01*
X141290000Y-65726000D01*
G37*
X141290000Y-65726000D02*
X141040000Y-65726000D01*
X141040000Y-65976000D01*
X141290000Y-65976000D01*
X141290000Y-65726000D01*
G36*
X149540000Y-65726000D02*
G01*
X149290000Y-65726000D01*
X149290000Y-65976000D01*
X149540000Y-65976000D01*
X149540000Y-65726000D01*
G37*
X149540000Y-65726000D02*
X149290000Y-65726000D01*
X149290000Y-65976000D01*
X149540000Y-65976000D01*
X149540000Y-65726000D01*
G36*
X156040000Y-65726000D02*
G01*
X155790000Y-65726000D01*
X155790000Y-65976000D01*
X156040000Y-65976000D01*
X156040000Y-65726000D01*
G37*
X156040000Y-65726000D02*
X155790000Y-65726000D01*
X155790000Y-65976000D01*
X156040000Y-65976000D01*
X156040000Y-65726000D01*
G36*
X156290000Y-65726000D02*
G01*
X156040000Y-65726000D01*
X156040000Y-65976000D01*
X156290000Y-65976000D01*
X156290000Y-65726000D01*
G37*
X156290000Y-65726000D02*
X156040000Y-65726000D01*
X156040000Y-65976000D01*
X156290000Y-65976000D01*
X156290000Y-65726000D01*
G36*
X156540000Y-65726000D02*
G01*
X156290000Y-65726000D01*
X156290000Y-65976000D01*
X156540000Y-65976000D01*
X156540000Y-65726000D01*
G37*
X156540000Y-65726000D02*
X156290000Y-65726000D01*
X156290000Y-65976000D01*
X156540000Y-65976000D01*
X156540000Y-65726000D01*
G36*
X156790000Y-65726000D02*
G01*
X156540000Y-65726000D01*
X156540000Y-65976000D01*
X156790000Y-65976000D01*
X156790000Y-65726000D01*
G37*
X156790000Y-65726000D02*
X156540000Y-65726000D01*
X156540000Y-65976000D01*
X156790000Y-65976000D01*
X156790000Y-65726000D01*
G36*
X157540000Y-65726000D02*
G01*
X157290000Y-65726000D01*
X157290000Y-65976000D01*
X157540000Y-65976000D01*
X157540000Y-65726000D01*
G37*
X157540000Y-65726000D02*
X157290000Y-65726000D01*
X157290000Y-65976000D01*
X157540000Y-65976000D01*
X157540000Y-65726000D01*
G36*
X158790000Y-65726000D02*
G01*
X158540000Y-65726000D01*
X158540000Y-65976000D01*
X158790000Y-65976000D01*
X158790000Y-65726000D01*
G37*
X158790000Y-65726000D02*
X158540000Y-65726000D01*
X158540000Y-65976000D01*
X158790000Y-65976000D01*
X158790000Y-65726000D01*
G36*
X159290000Y-65726000D02*
G01*
X159040000Y-65726000D01*
X159040000Y-65976000D01*
X159290000Y-65976000D01*
X159290000Y-65726000D01*
G37*
X159290000Y-65726000D02*
X159040000Y-65726000D01*
X159040000Y-65976000D01*
X159290000Y-65976000D01*
X159290000Y-65726000D01*
G36*
X159540000Y-65726000D02*
G01*
X159290000Y-65726000D01*
X159290000Y-65976000D01*
X159540000Y-65976000D01*
X159540000Y-65726000D01*
G37*
X159540000Y-65726000D02*
X159290000Y-65726000D01*
X159290000Y-65976000D01*
X159540000Y-65976000D01*
X159540000Y-65726000D01*
G36*
X159790000Y-65726000D02*
G01*
X159540000Y-65726000D01*
X159540000Y-65976000D01*
X159790000Y-65976000D01*
X159790000Y-65726000D01*
G37*
X159790000Y-65726000D02*
X159540000Y-65726000D01*
X159540000Y-65976000D01*
X159790000Y-65976000D01*
X159790000Y-65726000D01*
G36*
X160040000Y-65726000D02*
G01*
X159790000Y-65726000D01*
X159790000Y-65976000D01*
X160040000Y-65976000D01*
X160040000Y-65726000D01*
G37*
X160040000Y-65726000D02*
X159790000Y-65726000D01*
X159790000Y-65976000D01*
X160040000Y-65976000D01*
X160040000Y-65726000D01*
G36*
X160290000Y-65726000D02*
G01*
X160040000Y-65726000D01*
X160040000Y-65976000D01*
X160290000Y-65976000D01*
X160290000Y-65726000D01*
G37*
X160290000Y-65726000D02*
X160040000Y-65726000D01*
X160040000Y-65976000D01*
X160290000Y-65976000D01*
X160290000Y-65726000D01*
G36*
X160540000Y-65726000D02*
G01*
X160290000Y-65726000D01*
X160290000Y-65976000D01*
X160540000Y-65976000D01*
X160540000Y-65726000D01*
G37*
X160540000Y-65726000D02*
X160290000Y-65726000D01*
X160290000Y-65976000D01*
X160540000Y-65976000D01*
X160540000Y-65726000D01*
G36*
X139040000Y-64726000D02*
G01*
X138790000Y-64726000D01*
X138790000Y-64976000D01*
X139040000Y-64976000D01*
X139040000Y-64726000D01*
G37*
X139040000Y-64726000D02*
X138790000Y-64726000D01*
X138790000Y-64976000D01*
X139040000Y-64976000D01*
X139040000Y-64726000D01*
G36*
X139290000Y-64726000D02*
G01*
X139040000Y-64726000D01*
X139040000Y-64976000D01*
X139290000Y-64976000D01*
X139290000Y-64726000D01*
G37*
X139290000Y-64726000D02*
X139040000Y-64726000D01*
X139040000Y-64976000D01*
X139290000Y-64976000D01*
X139290000Y-64726000D01*
G36*
X141040000Y-64726000D02*
G01*
X140790000Y-64726000D01*
X140790000Y-64976000D01*
X141040000Y-64976000D01*
X141040000Y-64726000D01*
G37*
X141040000Y-64726000D02*
X140790000Y-64726000D01*
X140790000Y-64976000D01*
X141040000Y-64976000D01*
X141040000Y-64726000D01*
G36*
X141290000Y-64726000D02*
G01*
X141040000Y-64726000D01*
X141040000Y-64976000D01*
X141290000Y-64976000D01*
X141290000Y-64726000D01*
G37*
X141290000Y-64726000D02*
X141040000Y-64726000D01*
X141040000Y-64976000D01*
X141290000Y-64976000D01*
X141290000Y-64726000D01*
G36*
X141540000Y-64726000D02*
G01*
X141290000Y-64726000D01*
X141290000Y-64976000D01*
X141540000Y-64976000D01*
X141540000Y-64726000D01*
G37*
X141540000Y-64726000D02*
X141290000Y-64726000D01*
X141290000Y-64976000D01*
X141540000Y-64976000D01*
X141540000Y-64726000D01*
G36*
X141790000Y-64726000D02*
G01*
X141540000Y-64726000D01*
X141540000Y-64976000D01*
X141790000Y-64976000D01*
X141790000Y-64726000D01*
G37*
X141790000Y-64726000D02*
X141540000Y-64726000D01*
X141540000Y-64976000D01*
X141790000Y-64976000D01*
X141790000Y-64726000D01*
G36*
X142040000Y-64726000D02*
G01*
X141790000Y-64726000D01*
X141790000Y-64976000D01*
X142040000Y-64976000D01*
X142040000Y-64726000D01*
G37*
X142040000Y-64726000D02*
X141790000Y-64726000D01*
X141790000Y-64976000D01*
X142040000Y-64976000D01*
X142040000Y-64726000D01*
G36*
X142290000Y-64726000D02*
G01*
X142040000Y-64726000D01*
X142040000Y-64976000D01*
X142290000Y-64976000D01*
X142290000Y-64726000D01*
G37*
X142290000Y-64726000D02*
X142040000Y-64726000D01*
X142040000Y-64976000D01*
X142290000Y-64976000D01*
X142290000Y-64726000D01*
G36*
X143540000Y-64726000D02*
G01*
X143290000Y-64726000D01*
X143290000Y-64976000D01*
X143540000Y-64976000D01*
X143540000Y-64726000D01*
G37*
X143540000Y-64726000D02*
X143290000Y-64726000D01*
X143290000Y-64976000D01*
X143540000Y-64976000D01*
X143540000Y-64726000D01*
G36*
X143790000Y-64726000D02*
G01*
X143540000Y-64726000D01*
X143540000Y-64976000D01*
X143790000Y-64976000D01*
X143790000Y-64726000D01*
G37*
X143790000Y-64726000D02*
X143540000Y-64726000D01*
X143540000Y-64976000D01*
X143790000Y-64976000D01*
X143790000Y-64726000D01*
G36*
X144040000Y-64726000D02*
G01*
X143790000Y-64726000D01*
X143790000Y-64976000D01*
X144040000Y-64976000D01*
X144040000Y-64726000D01*
G37*
X144040000Y-64726000D02*
X143790000Y-64726000D01*
X143790000Y-64976000D01*
X144040000Y-64976000D01*
X144040000Y-64726000D01*
G36*
X144290000Y-64726000D02*
G01*
X144040000Y-64726000D01*
X144040000Y-64976000D01*
X144290000Y-64976000D01*
X144290000Y-64726000D01*
G37*
X144290000Y-64726000D02*
X144040000Y-64726000D01*
X144040000Y-64976000D01*
X144290000Y-64976000D01*
X144290000Y-64726000D01*
G36*
X144540000Y-64726000D02*
G01*
X144290000Y-64726000D01*
X144290000Y-64976000D01*
X144540000Y-64976000D01*
X144540000Y-64726000D01*
G37*
X144540000Y-64726000D02*
X144290000Y-64726000D01*
X144290000Y-64976000D01*
X144540000Y-64976000D01*
X144540000Y-64726000D01*
G36*
X144790000Y-64726000D02*
G01*
X144540000Y-64726000D01*
X144540000Y-64976000D01*
X144790000Y-64976000D01*
X144790000Y-64726000D01*
G37*
X144790000Y-64726000D02*
X144540000Y-64726000D01*
X144540000Y-64976000D01*
X144790000Y-64976000D01*
X144790000Y-64726000D01*
G36*
X145040000Y-64726000D02*
G01*
X144790000Y-64726000D01*
X144790000Y-64976000D01*
X145040000Y-64976000D01*
X145040000Y-64726000D01*
G37*
X145040000Y-64726000D02*
X144790000Y-64726000D01*
X144790000Y-64976000D01*
X145040000Y-64976000D01*
X145040000Y-64726000D01*
G36*
X145290000Y-64726000D02*
G01*
X145040000Y-64726000D01*
X145040000Y-64976000D01*
X145290000Y-64976000D01*
X145290000Y-64726000D01*
G37*
X145290000Y-64726000D02*
X145040000Y-64726000D01*
X145040000Y-64976000D01*
X145290000Y-64976000D01*
X145290000Y-64726000D01*
G36*
X146540000Y-64726000D02*
G01*
X146290000Y-64726000D01*
X146290000Y-64976000D01*
X146540000Y-64976000D01*
X146540000Y-64726000D01*
G37*
X146540000Y-64726000D02*
X146290000Y-64726000D01*
X146290000Y-64976000D01*
X146540000Y-64976000D01*
X146540000Y-64726000D01*
G36*
X146790000Y-64726000D02*
G01*
X146540000Y-64726000D01*
X146540000Y-64976000D01*
X146790000Y-64976000D01*
X146790000Y-64726000D01*
G37*
X146790000Y-64726000D02*
X146540000Y-64726000D01*
X146540000Y-64976000D01*
X146790000Y-64976000D01*
X146790000Y-64726000D01*
G36*
X147040000Y-64726000D02*
G01*
X146790000Y-64726000D01*
X146790000Y-64976000D01*
X147040000Y-64976000D01*
X147040000Y-64726000D01*
G37*
X147040000Y-64726000D02*
X146790000Y-64726000D01*
X146790000Y-64976000D01*
X147040000Y-64976000D01*
X147040000Y-64726000D01*
G36*
X147290000Y-64726000D02*
G01*
X147040000Y-64726000D01*
X147040000Y-64976000D01*
X147290000Y-64976000D01*
X147290000Y-64726000D01*
G37*
X147290000Y-64726000D02*
X147040000Y-64726000D01*
X147040000Y-64976000D01*
X147290000Y-64976000D01*
X147290000Y-64726000D01*
G36*
X149540000Y-64726000D02*
G01*
X149290000Y-64726000D01*
X149290000Y-64976000D01*
X149540000Y-64976000D01*
X149540000Y-64726000D01*
G37*
X149540000Y-64726000D02*
X149290000Y-64726000D01*
X149290000Y-64976000D01*
X149540000Y-64976000D01*
X149540000Y-64726000D01*
G36*
X149790000Y-64726000D02*
G01*
X149540000Y-64726000D01*
X149540000Y-64976000D01*
X149790000Y-64976000D01*
X149790000Y-64726000D01*
G37*
X149790000Y-64726000D02*
X149540000Y-64726000D01*
X149540000Y-64976000D01*
X149790000Y-64976000D01*
X149790000Y-64726000D01*
G36*
X150040000Y-64726000D02*
G01*
X149790000Y-64726000D01*
X149790000Y-64976000D01*
X150040000Y-64976000D01*
X150040000Y-64726000D01*
G37*
X150040000Y-64726000D02*
X149790000Y-64726000D01*
X149790000Y-64976000D01*
X150040000Y-64976000D01*
X150040000Y-64726000D01*
G36*
X150290000Y-64726000D02*
G01*
X150040000Y-64726000D01*
X150040000Y-64976000D01*
X150290000Y-64976000D01*
X150290000Y-64726000D01*
G37*
X150290000Y-64726000D02*
X150040000Y-64726000D01*
X150040000Y-64976000D01*
X150290000Y-64976000D01*
X150290000Y-64726000D01*
G36*
X150540000Y-64726000D02*
G01*
X150290000Y-64726000D01*
X150290000Y-64976000D01*
X150540000Y-64976000D01*
X150540000Y-64726000D01*
G37*
X150540000Y-64726000D02*
X150290000Y-64726000D01*
X150290000Y-64976000D01*
X150540000Y-64976000D01*
X150540000Y-64726000D01*
G36*
X150790000Y-64726000D02*
G01*
X150540000Y-64726000D01*
X150540000Y-64976000D01*
X150790000Y-64976000D01*
X150790000Y-64726000D01*
G37*
X150790000Y-64726000D02*
X150540000Y-64726000D01*
X150540000Y-64976000D01*
X150790000Y-64976000D01*
X150790000Y-64726000D01*
G36*
X152540000Y-64726000D02*
G01*
X152290000Y-64726000D01*
X152290000Y-64976000D01*
X152540000Y-64976000D01*
X152540000Y-64726000D01*
G37*
X152540000Y-64726000D02*
X152290000Y-64726000D01*
X152290000Y-64976000D01*
X152540000Y-64976000D01*
X152540000Y-64726000D01*
G36*
X152790000Y-64726000D02*
G01*
X152540000Y-64726000D01*
X152540000Y-64976000D01*
X152790000Y-64976000D01*
X152790000Y-64726000D01*
G37*
X152790000Y-64726000D02*
X152540000Y-64726000D01*
X152540000Y-64976000D01*
X152790000Y-64976000D01*
X152790000Y-64726000D01*
G36*
X154540000Y-64726000D02*
G01*
X154290000Y-64726000D01*
X154290000Y-64976000D01*
X154540000Y-64976000D01*
X154540000Y-64726000D01*
G37*
X154540000Y-64726000D02*
X154290000Y-64726000D01*
X154290000Y-64976000D01*
X154540000Y-64976000D01*
X154540000Y-64726000D01*
G36*
X154790000Y-64726000D02*
G01*
X154540000Y-64726000D01*
X154540000Y-64976000D01*
X154790000Y-64976000D01*
X154790000Y-64726000D01*
G37*
X154790000Y-64726000D02*
X154540000Y-64726000D01*
X154540000Y-64976000D01*
X154790000Y-64976000D01*
X154790000Y-64726000D01*
G36*
X156040000Y-64726000D02*
G01*
X155790000Y-64726000D01*
X155790000Y-64976000D01*
X156040000Y-64976000D01*
X156040000Y-64726000D01*
G37*
X156040000Y-64726000D02*
X155790000Y-64726000D01*
X155790000Y-64976000D01*
X156040000Y-64976000D01*
X156040000Y-64726000D01*
G36*
X156290000Y-64726000D02*
G01*
X156040000Y-64726000D01*
X156040000Y-64976000D01*
X156290000Y-64976000D01*
X156290000Y-64726000D01*
G37*
X156290000Y-64726000D02*
X156040000Y-64726000D01*
X156040000Y-64976000D01*
X156290000Y-64976000D01*
X156290000Y-64726000D01*
G36*
X156540000Y-64726000D02*
G01*
X156290000Y-64726000D01*
X156290000Y-64976000D01*
X156540000Y-64976000D01*
X156540000Y-64726000D01*
G37*
X156540000Y-64726000D02*
X156290000Y-64726000D01*
X156290000Y-64976000D01*
X156540000Y-64976000D01*
X156540000Y-64726000D01*
G36*
X156790000Y-64726000D02*
G01*
X156540000Y-64726000D01*
X156540000Y-64976000D01*
X156790000Y-64976000D01*
X156790000Y-64726000D01*
G37*
X156790000Y-64726000D02*
X156540000Y-64726000D01*
X156540000Y-64976000D01*
X156790000Y-64976000D01*
X156790000Y-64726000D01*
G36*
X157040000Y-64726000D02*
G01*
X156790000Y-64726000D01*
X156790000Y-64976000D01*
X157040000Y-64976000D01*
X157040000Y-64726000D01*
G37*
X157040000Y-64726000D02*
X156790000Y-64726000D01*
X156790000Y-64976000D01*
X157040000Y-64976000D01*
X157040000Y-64726000D01*
G36*
X157290000Y-64726000D02*
G01*
X157040000Y-64726000D01*
X157040000Y-64976000D01*
X157290000Y-64976000D01*
X157290000Y-64726000D01*
G37*
X157290000Y-64726000D02*
X157040000Y-64726000D01*
X157040000Y-64976000D01*
X157290000Y-64976000D01*
X157290000Y-64726000D01*
G36*
X159040000Y-64726000D02*
G01*
X158790000Y-64726000D01*
X158790000Y-64976000D01*
X159040000Y-64976000D01*
X159040000Y-64726000D01*
G37*
X159040000Y-64726000D02*
X158790000Y-64726000D01*
X158790000Y-64976000D01*
X159040000Y-64976000D01*
X159040000Y-64726000D01*
G36*
X159290000Y-64726000D02*
G01*
X159040000Y-64726000D01*
X159040000Y-64976000D01*
X159290000Y-64976000D01*
X159290000Y-64726000D01*
G37*
X159290000Y-64726000D02*
X159040000Y-64726000D01*
X159040000Y-64976000D01*
X159290000Y-64976000D01*
X159290000Y-64726000D01*
G36*
X159540000Y-64726000D02*
G01*
X159290000Y-64726000D01*
X159290000Y-64976000D01*
X159540000Y-64976000D01*
X159540000Y-64726000D01*
G37*
X159540000Y-64726000D02*
X159290000Y-64726000D01*
X159290000Y-64976000D01*
X159540000Y-64976000D01*
X159540000Y-64726000D01*
G36*
X159790000Y-64726000D02*
G01*
X159540000Y-64726000D01*
X159540000Y-64976000D01*
X159790000Y-64976000D01*
X159790000Y-64726000D01*
G37*
X159790000Y-64726000D02*
X159540000Y-64726000D01*
X159540000Y-64976000D01*
X159790000Y-64976000D01*
X159790000Y-64726000D01*
G36*
X160040000Y-64726000D02*
G01*
X159790000Y-64726000D01*
X159790000Y-64976000D01*
X160040000Y-64976000D01*
X160040000Y-64726000D01*
G37*
X160040000Y-64726000D02*
X159790000Y-64726000D01*
X159790000Y-64976000D01*
X160040000Y-64976000D01*
X160040000Y-64726000D01*
G36*
X160290000Y-64726000D02*
G01*
X160040000Y-64726000D01*
X160040000Y-64976000D01*
X160290000Y-64976000D01*
X160290000Y-64726000D01*
G37*
X160290000Y-64726000D02*
X160040000Y-64726000D01*
X160040000Y-64976000D01*
X160290000Y-64976000D01*
X160290000Y-64726000D01*
G36*
X160540000Y-64726000D02*
G01*
X160290000Y-64726000D01*
X160290000Y-64976000D01*
X160540000Y-64976000D01*
X160540000Y-64726000D01*
G37*
X160540000Y-64726000D02*
X160290000Y-64726000D01*
X160290000Y-64976000D01*
X160540000Y-64976000D01*
X160540000Y-64726000D01*
G36*
X160790000Y-64726000D02*
G01*
X160540000Y-64726000D01*
X160540000Y-64976000D01*
X160790000Y-64976000D01*
X160790000Y-64726000D01*
G37*
X160790000Y-64726000D02*
X160540000Y-64726000D01*
X160540000Y-64976000D01*
X160790000Y-64976000D01*
X160790000Y-64726000D01*
G36*
X139040000Y-64476000D02*
G01*
X138790000Y-64476000D01*
X138790000Y-64726000D01*
X139040000Y-64726000D01*
X139040000Y-64476000D01*
G37*
X139040000Y-64476000D02*
X138790000Y-64476000D01*
X138790000Y-64726000D01*
X139040000Y-64726000D01*
X139040000Y-64476000D01*
G36*
X139290000Y-64476000D02*
G01*
X139040000Y-64476000D01*
X139040000Y-64726000D01*
X139290000Y-64726000D01*
X139290000Y-64476000D01*
G37*
X139290000Y-64476000D02*
X139040000Y-64476000D01*
X139040000Y-64726000D01*
X139290000Y-64726000D01*
X139290000Y-64476000D01*
G36*
X141040000Y-64476000D02*
G01*
X140790000Y-64476000D01*
X140790000Y-64726000D01*
X141040000Y-64726000D01*
X141040000Y-64476000D01*
G37*
X141040000Y-64476000D02*
X140790000Y-64476000D01*
X140790000Y-64726000D01*
X141040000Y-64726000D01*
X141040000Y-64476000D01*
G36*
X141290000Y-64476000D02*
G01*
X141040000Y-64476000D01*
X141040000Y-64726000D01*
X141290000Y-64726000D01*
X141290000Y-64476000D01*
G37*
X141290000Y-64476000D02*
X141040000Y-64476000D01*
X141040000Y-64726000D01*
X141290000Y-64726000D01*
X141290000Y-64476000D01*
G36*
X141540000Y-64476000D02*
G01*
X141290000Y-64476000D01*
X141290000Y-64726000D01*
X141540000Y-64726000D01*
X141540000Y-64476000D01*
G37*
X141540000Y-64476000D02*
X141290000Y-64476000D01*
X141290000Y-64726000D01*
X141540000Y-64726000D01*
X141540000Y-64476000D01*
G36*
X141790000Y-64476000D02*
G01*
X141540000Y-64476000D01*
X141540000Y-64726000D01*
X141790000Y-64726000D01*
X141790000Y-64476000D01*
G37*
X141790000Y-64476000D02*
X141540000Y-64476000D01*
X141540000Y-64726000D01*
X141790000Y-64726000D01*
X141790000Y-64476000D01*
G36*
X142040000Y-64476000D02*
G01*
X141790000Y-64476000D01*
X141790000Y-64726000D01*
X142040000Y-64726000D01*
X142040000Y-64476000D01*
G37*
X142040000Y-64476000D02*
X141790000Y-64476000D01*
X141790000Y-64726000D01*
X142040000Y-64726000D01*
X142040000Y-64476000D01*
G36*
X142290000Y-64476000D02*
G01*
X142040000Y-64476000D01*
X142040000Y-64726000D01*
X142290000Y-64726000D01*
X142290000Y-64476000D01*
G37*
X142290000Y-64476000D02*
X142040000Y-64476000D01*
X142040000Y-64726000D01*
X142290000Y-64726000D01*
X142290000Y-64476000D01*
G36*
X143540000Y-64476000D02*
G01*
X143290000Y-64476000D01*
X143290000Y-64726000D01*
X143540000Y-64726000D01*
X143540000Y-64476000D01*
G37*
X143540000Y-64476000D02*
X143290000Y-64476000D01*
X143290000Y-64726000D01*
X143540000Y-64726000D01*
X143540000Y-64476000D01*
G36*
X143790000Y-64476000D02*
G01*
X143540000Y-64476000D01*
X143540000Y-64726000D01*
X143790000Y-64726000D01*
X143790000Y-64476000D01*
G37*
X143790000Y-64476000D02*
X143540000Y-64476000D01*
X143540000Y-64726000D01*
X143790000Y-64726000D01*
X143790000Y-64476000D01*
G36*
X144040000Y-64476000D02*
G01*
X143790000Y-64476000D01*
X143790000Y-64726000D01*
X144040000Y-64726000D01*
X144040000Y-64476000D01*
G37*
X144040000Y-64476000D02*
X143790000Y-64476000D01*
X143790000Y-64726000D01*
X144040000Y-64726000D01*
X144040000Y-64476000D01*
G36*
X144290000Y-64476000D02*
G01*
X144040000Y-64476000D01*
X144040000Y-64726000D01*
X144290000Y-64726000D01*
X144290000Y-64476000D01*
G37*
X144290000Y-64476000D02*
X144040000Y-64476000D01*
X144040000Y-64726000D01*
X144290000Y-64726000D01*
X144290000Y-64476000D01*
G36*
X144540000Y-64476000D02*
G01*
X144290000Y-64476000D01*
X144290000Y-64726000D01*
X144540000Y-64726000D01*
X144540000Y-64476000D01*
G37*
X144540000Y-64476000D02*
X144290000Y-64476000D01*
X144290000Y-64726000D01*
X144540000Y-64726000D01*
X144540000Y-64476000D01*
G36*
X144790000Y-64476000D02*
G01*
X144540000Y-64476000D01*
X144540000Y-64726000D01*
X144790000Y-64726000D01*
X144790000Y-64476000D01*
G37*
X144790000Y-64476000D02*
X144540000Y-64476000D01*
X144540000Y-64726000D01*
X144790000Y-64726000D01*
X144790000Y-64476000D01*
G36*
X145040000Y-64476000D02*
G01*
X144790000Y-64476000D01*
X144790000Y-64726000D01*
X145040000Y-64726000D01*
X145040000Y-64476000D01*
G37*
X145040000Y-64476000D02*
X144790000Y-64476000D01*
X144790000Y-64726000D01*
X145040000Y-64726000D01*
X145040000Y-64476000D01*
G36*
X145290000Y-64476000D02*
G01*
X145040000Y-64476000D01*
X145040000Y-64726000D01*
X145290000Y-64726000D01*
X145290000Y-64476000D01*
G37*
X145290000Y-64476000D02*
X145040000Y-64476000D01*
X145040000Y-64726000D01*
X145290000Y-64726000D01*
X145290000Y-64476000D01*
G36*
X146540000Y-64476000D02*
G01*
X146290000Y-64476000D01*
X146290000Y-64726000D01*
X146540000Y-64726000D01*
X146540000Y-64476000D01*
G37*
X146540000Y-64476000D02*
X146290000Y-64476000D01*
X146290000Y-64726000D01*
X146540000Y-64726000D01*
X146540000Y-64476000D01*
G36*
X146790000Y-64476000D02*
G01*
X146540000Y-64476000D01*
X146540000Y-64726000D01*
X146790000Y-64726000D01*
X146790000Y-64476000D01*
G37*
X146790000Y-64476000D02*
X146540000Y-64476000D01*
X146540000Y-64726000D01*
X146790000Y-64726000D01*
X146790000Y-64476000D01*
G36*
X147040000Y-64476000D02*
G01*
X146790000Y-64476000D01*
X146790000Y-64726000D01*
X147040000Y-64726000D01*
X147040000Y-64476000D01*
G37*
X147040000Y-64476000D02*
X146790000Y-64476000D01*
X146790000Y-64726000D01*
X147040000Y-64726000D01*
X147040000Y-64476000D01*
G36*
X147290000Y-64476000D02*
G01*
X147040000Y-64476000D01*
X147040000Y-64726000D01*
X147290000Y-64726000D01*
X147290000Y-64476000D01*
G37*
X147290000Y-64476000D02*
X147040000Y-64476000D01*
X147040000Y-64726000D01*
X147290000Y-64726000D01*
X147290000Y-64476000D01*
G36*
X149540000Y-64476000D02*
G01*
X149290000Y-64476000D01*
X149290000Y-64726000D01*
X149540000Y-64726000D01*
X149540000Y-64476000D01*
G37*
X149540000Y-64476000D02*
X149290000Y-64476000D01*
X149290000Y-64726000D01*
X149540000Y-64726000D01*
X149540000Y-64476000D01*
G36*
X149790000Y-64476000D02*
G01*
X149540000Y-64476000D01*
X149540000Y-64726000D01*
X149790000Y-64726000D01*
X149790000Y-64476000D01*
G37*
X149790000Y-64476000D02*
X149540000Y-64476000D01*
X149540000Y-64726000D01*
X149790000Y-64726000D01*
X149790000Y-64476000D01*
G36*
X150040000Y-64476000D02*
G01*
X149790000Y-64476000D01*
X149790000Y-64726000D01*
X150040000Y-64726000D01*
X150040000Y-64476000D01*
G37*
X150040000Y-64476000D02*
X149790000Y-64476000D01*
X149790000Y-64726000D01*
X150040000Y-64726000D01*
X150040000Y-64476000D01*
G36*
X150290000Y-64476000D02*
G01*
X150040000Y-64476000D01*
X150040000Y-64726000D01*
X150290000Y-64726000D01*
X150290000Y-64476000D01*
G37*
X150290000Y-64476000D02*
X150040000Y-64476000D01*
X150040000Y-64726000D01*
X150290000Y-64726000D01*
X150290000Y-64476000D01*
G36*
X150540000Y-64476000D02*
G01*
X150290000Y-64476000D01*
X150290000Y-64726000D01*
X150540000Y-64726000D01*
X150540000Y-64476000D01*
G37*
X150540000Y-64476000D02*
X150290000Y-64476000D01*
X150290000Y-64726000D01*
X150540000Y-64726000D01*
X150540000Y-64476000D01*
G36*
X150790000Y-64476000D02*
G01*
X150540000Y-64476000D01*
X150540000Y-64726000D01*
X150790000Y-64726000D01*
X150790000Y-64476000D01*
G37*
X150790000Y-64476000D02*
X150540000Y-64476000D01*
X150540000Y-64726000D01*
X150790000Y-64726000D01*
X150790000Y-64476000D01*
G36*
X152540000Y-64476000D02*
G01*
X152290000Y-64476000D01*
X152290000Y-64726000D01*
X152540000Y-64726000D01*
X152540000Y-64476000D01*
G37*
X152540000Y-64476000D02*
X152290000Y-64476000D01*
X152290000Y-64726000D01*
X152540000Y-64726000D01*
X152540000Y-64476000D01*
G36*
X152790000Y-64476000D02*
G01*
X152540000Y-64476000D01*
X152540000Y-64726000D01*
X152790000Y-64726000D01*
X152790000Y-64476000D01*
G37*
X152790000Y-64476000D02*
X152540000Y-64476000D01*
X152540000Y-64726000D01*
X152790000Y-64726000D01*
X152790000Y-64476000D01*
G36*
X154540000Y-64476000D02*
G01*
X154290000Y-64476000D01*
X154290000Y-64726000D01*
X154540000Y-64726000D01*
X154540000Y-64476000D01*
G37*
X154540000Y-64476000D02*
X154290000Y-64476000D01*
X154290000Y-64726000D01*
X154540000Y-64726000D01*
X154540000Y-64476000D01*
G36*
X154790000Y-64476000D02*
G01*
X154540000Y-64476000D01*
X154540000Y-64726000D01*
X154790000Y-64726000D01*
X154790000Y-64476000D01*
G37*
X154790000Y-64476000D02*
X154540000Y-64476000D01*
X154540000Y-64726000D01*
X154790000Y-64726000D01*
X154790000Y-64476000D01*
G36*
X156040000Y-64476000D02*
G01*
X155790000Y-64476000D01*
X155790000Y-64726000D01*
X156040000Y-64726000D01*
X156040000Y-64476000D01*
G37*
X156040000Y-64476000D02*
X155790000Y-64476000D01*
X155790000Y-64726000D01*
X156040000Y-64726000D01*
X156040000Y-64476000D01*
G36*
X156290000Y-64476000D02*
G01*
X156040000Y-64476000D01*
X156040000Y-64726000D01*
X156290000Y-64726000D01*
X156290000Y-64476000D01*
G37*
X156290000Y-64476000D02*
X156040000Y-64476000D01*
X156040000Y-64726000D01*
X156290000Y-64726000D01*
X156290000Y-64476000D01*
G36*
X156540000Y-64476000D02*
G01*
X156290000Y-64476000D01*
X156290000Y-64726000D01*
X156540000Y-64726000D01*
X156540000Y-64476000D01*
G37*
X156540000Y-64476000D02*
X156290000Y-64476000D01*
X156290000Y-64726000D01*
X156540000Y-64726000D01*
X156540000Y-64476000D01*
G36*
X156790000Y-64476000D02*
G01*
X156540000Y-64476000D01*
X156540000Y-64726000D01*
X156790000Y-64726000D01*
X156790000Y-64476000D01*
G37*
X156790000Y-64476000D02*
X156540000Y-64476000D01*
X156540000Y-64726000D01*
X156790000Y-64726000D01*
X156790000Y-64476000D01*
G36*
X157040000Y-64476000D02*
G01*
X156790000Y-64476000D01*
X156790000Y-64726000D01*
X157040000Y-64726000D01*
X157040000Y-64476000D01*
G37*
X157040000Y-64476000D02*
X156790000Y-64476000D01*
X156790000Y-64726000D01*
X157040000Y-64726000D01*
X157040000Y-64476000D01*
G36*
X157290000Y-64476000D02*
G01*
X157040000Y-64476000D01*
X157040000Y-64726000D01*
X157290000Y-64726000D01*
X157290000Y-64476000D01*
G37*
X157290000Y-64476000D02*
X157040000Y-64476000D01*
X157040000Y-64726000D01*
X157290000Y-64726000D01*
X157290000Y-64476000D01*
G36*
X159040000Y-64476000D02*
G01*
X158790000Y-64476000D01*
X158790000Y-64726000D01*
X159040000Y-64726000D01*
X159040000Y-64476000D01*
G37*
X159040000Y-64476000D02*
X158790000Y-64476000D01*
X158790000Y-64726000D01*
X159040000Y-64726000D01*
X159040000Y-64476000D01*
G36*
X159290000Y-64476000D02*
G01*
X159040000Y-64476000D01*
X159040000Y-64726000D01*
X159290000Y-64726000D01*
X159290000Y-64476000D01*
G37*
X159290000Y-64476000D02*
X159040000Y-64476000D01*
X159040000Y-64726000D01*
X159290000Y-64726000D01*
X159290000Y-64476000D01*
G36*
X159540000Y-64476000D02*
G01*
X159290000Y-64476000D01*
X159290000Y-64726000D01*
X159540000Y-64726000D01*
X159540000Y-64476000D01*
G37*
X159540000Y-64476000D02*
X159290000Y-64476000D01*
X159290000Y-64726000D01*
X159540000Y-64726000D01*
X159540000Y-64476000D01*
G36*
X159790000Y-64476000D02*
G01*
X159540000Y-64476000D01*
X159540000Y-64726000D01*
X159790000Y-64726000D01*
X159790000Y-64476000D01*
G37*
X159790000Y-64476000D02*
X159540000Y-64476000D01*
X159540000Y-64726000D01*
X159790000Y-64726000D01*
X159790000Y-64476000D01*
G36*
X160040000Y-64476000D02*
G01*
X159790000Y-64476000D01*
X159790000Y-64726000D01*
X160040000Y-64726000D01*
X160040000Y-64476000D01*
G37*
X160040000Y-64476000D02*
X159790000Y-64476000D01*
X159790000Y-64726000D01*
X160040000Y-64726000D01*
X160040000Y-64476000D01*
G36*
X160290000Y-64476000D02*
G01*
X160040000Y-64476000D01*
X160040000Y-64726000D01*
X160290000Y-64726000D01*
X160290000Y-64476000D01*
G37*
X160290000Y-64476000D02*
X160040000Y-64476000D01*
X160040000Y-64726000D01*
X160290000Y-64726000D01*
X160290000Y-64476000D01*
G36*
X160540000Y-64476000D02*
G01*
X160290000Y-64476000D01*
X160290000Y-64726000D01*
X160540000Y-64726000D01*
X160540000Y-64476000D01*
G37*
X160540000Y-64476000D02*
X160290000Y-64476000D01*
X160290000Y-64726000D01*
X160540000Y-64726000D01*
X160540000Y-64476000D01*
G36*
X160790000Y-64476000D02*
G01*
X160540000Y-64476000D01*
X160540000Y-64726000D01*
X160790000Y-64726000D01*
X160790000Y-64476000D01*
G37*
X160790000Y-64476000D02*
X160540000Y-64476000D01*
X160540000Y-64726000D01*
X160790000Y-64726000D01*
X160790000Y-64476000D01*
G36*
X139040000Y-64226000D02*
G01*
X138790000Y-64226000D01*
X138790000Y-64476000D01*
X139040000Y-64476000D01*
X139040000Y-64226000D01*
G37*
X139040000Y-64226000D02*
X138790000Y-64226000D01*
X138790000Y-64476000D01*
X139040000Y-64476000D01*
X139040000Y-64226000D01*
G36*
X139290000Y-64226000D02*
G01*
X139040000Y-64226000D01*
X139040000Y-64476000D01*
X139290000Y-64476000D01*
X139290000Y-64226000D01*
G37*
X139290000Y-64226000D02*
X139040000Y-64226000D01*
X139040000Y-64476000D01*
X139290000Y-64476000D01*
X139290000Y-64226000D01*
G36*
X141540000Y-64226000D02*
G01*
X141290000Y-64226000D01*
X141290000Y-64476000D01*
X141540000Y-64476000D01*
X141540000Y-64226000D01*
G37*
X141540000Y-64226000D02*
X141290000Y-64226000D01*
X141290000Y-64476000D01*
X141540000Y-64476000D01*
X141540000Y-64226000D01*
G36*
X141790000Y-64226000D02*
G01*
X141540000Y-64226000D01*
X141540000Y-64476000D01*
X141790000Y-64476000D01*
X141790000Y-64226000D01*
G37*
X141790000Y-64226000D02*
X141540000Y-64226000D01*
X141540000Y-64476000D01*
X141790000Y-64476000D01*
X141790000Y-64226000D01*
G36*
X143540000Y-64226000D02*
G01*
X143290000Y-64226000D01*
X143290000Y-64476000D01*
X143540000Y-64476000D01*
X143540000Y-64226000D01*
G37*
X143540000Y-64226000D02*
X143290000Y-64226000D01*
X143290000Y-64476000D01*
X143540000Y-64476000D01*
X143540000Y-64226000D01*
G36*
X143790000Y-64226000D02*
G01*
X143540000Y-64226000D01*
X143540000Y-64476000D01*
X143790000Y-64476000D01*
X143790000Y-64226000D01*
G37*
X143790000Y-64226000D02*
X143540000Y-64226000D01*
X143540000Y-64476000D01*
X143790000Y-64476000D01*
X143790000Y-64226000D01*
G36*
X145540000Y-64226000D02*
G01*
X145290000Y-64226000D01*
X145290000Y-64476000D01*
X145540000Y-64476000D01*
X145540000Y-64226000D01*
G37*
X145540000Y-64226000D02*
X145290000Y-64226000D01*
X145290000Y-64476000D01*
X145540000Y-64476000D01*
X145540000Y-64226000D01*
G36*
X145790000Y-64226000D02*
G01*
X145540000Y-64226000D01*
X145540000Y-64476000D01*
X145790000Y-64476000D01*
X145790000Y-64226000D01*
G37*
X145790000Y-64226000D02*
X145540000Y-64226000D01*
X145540000Y-64476000D01*
X145790000Y-64476000D01*
X145790000Y-64226000D01*
G36*
X147540000Y-64226000D02*
G01*
X147290000Y-64226000D01*
X147290000Y-64476000D01*
X147540000Y-64476000D01*
X147540000Y-64226000D01*
G37*
X147540000Y-64226000D02*
X147290000Y-64226000D01*
X147290000Y-64476000D01*
X147540000Y-64476000D01*
X147540000Y-64226000D01*
G36*
X147790000Y-64226000D02*
G01*
X147540000Y-64226000D01*
X147540000Y-64476000D01*
X147790000Y-64476000D01*
X147790000Y-64226000D01*
G37*
X147790000Y-64226000D02*
X147540000Y-64226000D01*
X147540000Y-64476000D01*
X147790000Y-64476000D01*
X147790000Y-64226000D01*
G36*
X151040000Y-64226000D02*
G01*
X150790000Y-64226000D01*
X150790000Y-64476000D01*
X151040000Y-64476000D01*
X151040000Y-64226000D01*
G37*
X151040000Y-64226000D02*
X150790000Y-64226000D01*
X150790000Y-64476000D01*
X151040000Y-64476000D01*
X151040000Y-64226000D01*
G36*
X151290000Y-64226000D02*
G01*
X151040000Y-64226000D01*
X151040000Y-64476000D01*
X151290000Y-64476000D01*
X151290000Y-64226000D01*
G37*
X151290000Y-64226000D02*
X151040000Y-64226000D01*
X151040000Y-64476000D01*
X151290000Y-64476000D01*
X151290000Y-64226000D01*
G36*
X152540000Y-64226000D02*
G01*
X152290000Y-64226000D01*
X152290000Y-64476000D01*
X152540000Y-64476000D01*
X152540000Y-64226000D01*
G37*
X152540000Y-64226000D02*
X152290000Y-64226000D01*
X152290000Y-64476000D01*
X152540000Y-64476000D01*
X152540000Y-64226000D01*
G36*
X152790000Y-64226000D02*
G01*
X152540000Y-64226000D01*
X152540000Y-64476000D01*
X152790000Y-64476000D01*
X152790000Y-64226000D01*
G37*
X152790000Y-64226000D02*
X152540000Y-64226000D01*
X152540000Y-64476000D01*
X152790000Y-64476000D01*
X152790000Y-64226000D01*
G36*
X154540000Y-64226000D02*
G01*
X154290000Y-64226000D01*
X154290000Y-64476000D01*
X154540000Y-64476000D01*
X154540000Y-64226000D01*
G37*
X154540000Y-64226000D02*
X154290000Y-64226000D01*
X154290000Y-64476000D01*
X154540000Y-64476000D01*
X154540000Y-64226000D01*
G36*
X154790000Y-64226000D02*
G01*
X154540000Y-64226000D01*
X154540000Y-64476000D01*
X154790000Y-64476000D01*
X154790000Y-64226000D01*
G37*
X154790000Y-64226000D02*
X154540000Y-64226000D01*
X154540000Y-64476000D01*
X154790000Y-64476000D01*
X154790000Y-64226000D01*
G36*
X156540000Y-64226000D02*
G01*
X156290000Y-64226000D01*
X156290000Y-64476000D01*
X156540000Y-64476000D01*
X156540000Y-64226000D01*
G37*
X156540000Y-64226000D02*
X156290000Y-64226000D01*
X156290000Y-64476000D01*
X156540000Y-64476000D01*
X156540000Y-64226000D01*
G36*
X156790000Y-64226000D02*
G01*
X156540000Y-64226000D01*
X156540000Y-64476000D01*
X156790000Y-64476000D01*
X156790000Y-64226000D01*
G37*
X156790000Y-64226000D02*
X156540000Y-64226000D01*
X156540000Y-64476000D01*
X156790000Y-64476000D01*
X156790000Y-64226000D01*
G36*
X158540000Y-64226000D02*
G01*
X158290000Y-64226000D01*
X158290000Y-64476000D01*
X158540000Y-64476000D01*
X158540000Y-64226000D01*
G37*
X158540000Y-64226000D02*
X158290000Y-64226000D01*
X158290000Y-64476000D01*
X158540000Y-64476000D01*
X158540000Y-64226000D01*
G36*
X158790000Y-64226000D02*
G01*
X158540000Y-64226000D01*
X158540000Y-64476000D01*
X158790000Y-64476000D01*
X158790000Y-64226000D01*
G37*
X158790000Y-64226000D02*
X158540000Y-64226000D01*
X158540000Y-64476000D01*
X158790000Y-64476000D01*
X158790000Y-64226000D01*
G36*
X139040000Y-63976000D02*
G01*
X138790000Y-63976000D01*
X138790000Y-64226000D01*
X139040000Y-64226000D01*
X139040000Y-63976000D01*
G37*
X139040000Y-63976000D02*
X138790000Y-63976000D01*
X138790000Y-64226000D01*
X139040000Y-64226000D01*
X139040000Y-63976000D01*
G36*
X139290000Y-63976000D02*
G01*
X139040000Y-63976000D01*
X139040000Y-64226000D01*
X139290000Y-64226000D01*
X139290000Y-63976000D01*
G37*
X139290000Y-63976000D02*
X139040000Y-63976000D01*
X139040000Y-64226000D01*
X139290000Y-64226000D01*
X139290000Y-63976000D01*
G36*
X141540000Y-63976000D02*
G01*
X141290000Y-63976000D01*
X141290000Y-64226000D01*
X141540000Y-64226000D01*
X141540000Y-63976000D01*
G37*
X141540000Y-63976000D02*
X141290000Y-63976000D01*
X141290000Y-64226000D01*
X141540000Y-64226000D01*
X141540000Y-63976000D01*
G36*
X141790000Y-63976000D02*
G01*
X141540000Y-63976000D01*
X141540000Y-64226000D01*
X141790000Y-64226000D01*
X141790000Y-63976000D01*
G37*
X141790000Y-63976000D02*
X141540000Y-63976000D01*
X141540000Y-64226000D01*
X141790000Y-64226000D01*
X141790000Y-63976000D01*
G36*
X143540000Y-63976000D02*
G01*
X143290000Y-63976000D01*
X143290000Y-64226000D01*
X143540000Y-64226000D01*
X143540000Y-63976000D01*
G37*
X143540000Y-63976000D02*
X143290000Y-63976000D01*
X143290000Y-64226000D01*
X143540000Y-64226000D01*
X143540000Y-63976000D01*
G36*
X143790000Y-63976000D02*
G01*
X143540000Y-63976000D01*
X143540000Y-64226000D01*
X143790000Y-64226000D01*
X143790000Y-63976000D01*
G37*
X143790000Y-63976000D02*
X143540000Y-63976000D01*
X143540000Y-64226000D01*
X143790000Y-64226000D01*
X143790000Y-63976000D01*
G36*
X145540000Y-63976000D02*
G01*
X145290000Y-63976000D01*
X145290000Y-64226000D01*
X145540000Y-64226000D01*
X145540000Y-63976000D01*
G37*
X145540000Y-63976000D02*
X145290000Y-63976000D01*
X145290000Y-64226000D01*
X145540000Y-64226000D01*
X145540000Y-63976000D01*
G36*
X145790000Y-63976000D02*
G01*
X145540000Y-63976000D01*
X145540000Y-64226000D01*
X145790000Y-64226000D01*
X145790000Y-63976000D01*
G37*
X145790000Y-63976000D02*
X145540000Y-63976000D01*
X145540000Y-64226000D01*
X145790000Y-64226000D01*
X145790000Y-63976000D01*
G36*
X147540000Y-63976000D02*
G01*
X147290000Y-63976000D01*
X147290000Y-64226000D01*
X147540000Y-64226000D01*
X147540000Y-63976000D01*
G37*
X147540000Y-63976000D02*
X147290000Y-63976000D01*
X147290000Y-64226000D01*
X147540000Y-64226000D01*
X147540000Y-63976000D01*
G36*
X147790000Y-63976000D02*
G01*
X147540000Y-63976000D01*
X147540000Y-64226000D01*
X147790000Y-64226000D01*
X147790000Y-63976000D01*
G37*
X147790000Y-63976000D02*
X147540000Y-63976000D01*
X147540000Y-64226000D01*
X147790000Y-64226000D01*
X147790000Y-63976000D01*
G36*
X151040000Y-63976000D02*
G01*
X150790000Y-63976000D01*
X150790000Y-64226000D01*
X151040000Y-64226000D01*
X151040000Y-63976000D01*
G37*
X151040000Y-63976000D02*
X150790000Y-63976000D01*
X150790000Y-64226000D01*
X151040000Y-64226000D01*
X151040000Y-63976000D01*
G36*
X151290000Y-63976000D02*
G01*
X151040000Y-63976000D01*
X151040000Y-64226000D01*
X151290000Y-64226000D01*
X151290000Y-63976000D01*
G37*
X151290000Y-63976000D02*
X151040000Y-63976000D01*
X151040000Y-64226000D01*
X151290000Y-64226000D01*
X151290000Y-63976000D01*
G36*
X152540000Y-63976000D02*
G01*
X152290000Y-63976000D01*
X152290000Y-64226000D01*
X152540000Y-64226000D01*
X152540000Y-63976000D01*
G37*
X152540000Y-63976000D02*
X152290000Y-63976000D01*
X152290000Y-64226000D01*
X152540000Y-64226000D01*
X152540000Y-63976000D01*
G36*
X152790000Y-63976000D02*
G01*
X152540000Y-63976000D01*
X152540000Y-64226000D01*
X152790000Y-64226000D01*
X152790000Y-63976000D01*
G37*
X152790000Y-63976000D02*
X152540000Y-63976000D01*
X152540000Y-64226000D01*
X152790000Y-64226000D01*
X152790000Y-63976000D01*
G36*
X154540000Y-63976000D02*
G01*
X154290000Y-63976000D01*
X154290000Y-64226000D01*
X154540000Y-64226000D01*
X154540000Y-63976000D01*
G37*
X154540000Y-63976000D02*
X154290000Y-63976000D01*
X154290000Y-64226000D01*
X154540000Y-64226000D01*
X154540000Y-63976000D01*
G36*
X154790000Y-63976000D02*
G01*
X154540000Y-63976000D01*
X154540000Y-64226000D01*
X154790000Y-64226000D01*
X154790000Y-63976000D01*
G37*
X154790000Y-63976000D02*
X154540000Y-63976000D01*
X154540000Y-64226000D01*
X154790000Y-64226000D01*
X154790000Y-63976000D01*
G36*
X156540000Y-63976000D02*
G01*
X156290000Y-63976000D01*
X156290000Y-64226000D01*
X156540000Y-64226000D01*
X156540000Y-63976000D01*
G37*
X156540000Y-63976000D02*
X156290000Y-63976000D01*
X156290000Y-64226000D01*
X156540000Y-64226000D01*
X156540000Y-63976000D01*
G36*
X156790000Y-63976000D02*
G01*
X156540000Y-63976000D01*
X156540000Y-64226000D01*
X156790000Y-64226000D01*
X156790000Y-63976000D01*
G37*
X156790000Y-63976000D02*
X156540000Y-63976000D01*
X156540000Y-64226000D01*
X156790000Y-64226000D01*
X156790000Y-63976000D01*
G36*
X158540000Y-63976000D02*
G01*
X158290000Y-63976000D01*
X158290000Y-64226000D01*
X158540000Y-64226000D01*
X158540000Y-63976000D01*
G37*
X158540000Y-63976000D02*
X158290000Y-63976000D01*
X158290000Y-64226000D01*
X158540000Y-64226000D01*
X158540000Y-63976000D01*
G36*
X158790000Y-63976000D02*
G01*
X158540000Y-63976000D01*
X158540000Y-64226000D01*
X158790000Y-64226000D01*
X158790000Y-63976000D01*
G37*
X158790000Y-63976000D02*
X158540000Y-63976000D01*
X158540000Y-64226000D01*
X158790000Y-64226000D01*
X158790000Y-63976000D01*
G36*
X139040000Y-63726000D02*
G01*
X138790000Y-63726000D01*
X138790000Y-63976000D01*
X139040000Y-63976000D01*
X139040000Y-63726000D01*
G37*
X139040000Y-63726000D02*
X138790000Y-63726000D01*
X138790000Y-63976000D01*
X139040000Y-63976000D01*
X139040000Y-63726000D01*
G36*
X139290000Y-63726000D02*
G01*
X139040000Y-63726000D01*
X139040000Y-63976000D01*
X139290000Y-63976000D01*
X139290000Y-63726000D01*
G37*
X139290000Y-63726000D02*
X139040000Y-63726000D01*
X139040000Y-63976000D01*
X139290000Y-63976000D01*
X139290000Y-63726000D01*
G36*
X141540000Y-63726000D02*
G01*
X141290000Y-63726000D01*
X141290000Y-63976000D01*
X141540000Y-63976000D01*
X141540000Y-63726000D01*
G37*
X141540000Y-63726000D02*
X141290000Y-63726000D01*
X141290000Y-63976000D01*
X141540000Y-63976000D01*
X141540000Y-63726000D01*
G36*
X141790000Y-63726000D02*
G01*
X141540000Y-63726000D01*
X141540000Y-63976000D01*
X141790000Y-63976000D01*
X141790000Y-63726000D01*
G37*
X141790000Y-63726000D02*
X141540000Y-63726000D01*
X141540000Y-63976000D01*
X141790000Y-63976000D01*
X141790000Y-63726000D01*
G36*
X143540000Y-63726000D02*
G01*
X143290000Y-63726000D01*
X143290000Y-63976000D01*
X143540000Y-63976000D01*
X143540000Y-63726000D01*
G37*
X143540000Y-63726000D02*
X143290000Y-63726000D01*
X143290000Y-63976000D01*
X143540000Y-63976000D01*
X143540000Y-63726000D01*
G36*
X143790000Y-63726000D02*
G01*
X143540000Y-63726000D01*
X143540000Y-63976000D01*
X143790000Y-63976000D01*
X143790000Y-63726000D01*
G37*
X143790000Y-63726000D02*
X143540000Y-63726000D01*
X143540000Y-63976000D01*
X143790000Y-63976000D01*
X143790000Y-63726000D01*
G36*
X144040000Y-63726000D02*
G01*
X143790000Y-63726000D01*
X143790000Y-63976000D01*
X144040000Y-63976000D01*
X144040000Y-63726000D01*
G37*
X144040000Y-63726000D02*
X143790000Y-63726000D01*
X143790000Y-63976000D01*
X144040000Y-63976000D01*
X144040000Y-63726000D01*
G36*
X144290000Y-63726000D02*
G01*
X144040000Y-63726000D01*
X144040000Y-63976000D01*
X144290000Y-63976000D01*
X144290000Y-63726000D01*
G37*
X144290000Y-63726000D02*
X144040000Y-63726000D01*
X144040000Y-63976000D01*
X144290000Y-63976000D01*
X144290000Y-63726000D01*
G36*
X144540000Y-63726000D02*
G01*
X144290000Y-63726000D01*
X144290000Y-63976000D01*
X144540000Y-63976000D01*
X144540000Y-63726000D01*
G37*
X144540000Y-63726000D02*
X144290000Y-63726000D01*
X144290000Y-63976000D01*
X144540000Y-63976000D01*
X144540000Y-63726000D01*
G36*
X144790000Y-63726000D02*
G01*
X144540000Y-63726000D01*
X144540000Y-63976000D01*
X144790000Y-63976000D01*
X144790000Y-63726000D01*
G37*
X144790000Y-63726000D02*
X144540000Y-63726000D01*
X144540000Y-63976000D01*
X144790000Y-63976000D01*
X144790000Y-63726000D01*
G36*
X145040000Y-63726000D02*
G01*
X144790000Y-63726000D01*
X144790000Y-63976000D01*
X145040000Y-63976000D01*
X145040000Y-63726000D01*
G37*
X145040000Y-63726000D02*
X144790000Y-63726000D01*
X144790000Y-63976000D01*
X145040000Y-63976000D01*
X145040000Y-63726000D01*
G36*
X145290000Y-63726000D02*
G01*
X145040000Y-63726000D01*
X145040000Y-63976000D01*
X145290000Y-63976000D01*
X145290000Y-63726000D01*
G37*
X145290000Y-63726000D02*
X145040000Y-63726000D01*
X145040000Y-63976000D01*
X145290000Y-63976000D01*
X145290000Y-63726000D01*
G36*
X147540000Y-63726000D02*
G01*
X147290000Y-63726000D01*
X147290000Y-63976000D01*
X147540000Y-63976000D01*
X147540000Y-63726000D01*
G37*
X147540000Y-63726000D02*
X147290000Y-63726000D01*
X147290000Y-63976000D01*
X147540000Y-63976000D01*
X147540000Y-63726000D01*
G36*
X147790000Y-63726000D02*
G01*
X147540000Y-63726000D01*
X147540000Y-63976000D01*
X147790000Y-63976000D01*
X147790000Y-63726000D01*
G37*
X147790000Y-63726000D02*
X147540000Y-63726000D01*
X147540000Y-63976000D01*
X147790000Y-63976000D01*
X147790000Y-63726000D01*
G36*
X151040000Y-63726000D02*
G01*
X150790000Y-63726000D01*
X150790000Y-63976000D01*
X151040000Y-63976000D01*
X151040000Y-63726000D01*
G37*
X151040000Y-63726000D02*
X150790000Y-63726000D01*
X150790000Y-63976000D01*
X151040000Y-63976000D01*
X151040000Y-63726000D01*
G36*
X151290000Y-63726000D02*
G01*
X151040000Y-63726000D01*
X151040000Y-63976000D01*
X151290000Y-63976000D01*
X151290000Y-63726000D01*
G37*
X151290000Y-63726000D02*
X151040000Y-63726000D01*
X151040000Y-63976000D01*
X151290000Y-63976000D01*
X151290000Y-63726000D01*
G36*
X152540000Y-63726000D02*
G01*
X152290000Y-63726000D01*
X152290000Y-63976000D01*
X152540000Y-63976000D01*
X152540000Y-63726000D01*
G37*
X152540000Y-63726000D02*
X152290000Y-63726000D01*
X152290000Y-63976000D01*
X152540000Y-63976000D01*
X152540000Y-63726000D01*
G36*
X152790000Y-63726000D02*
G01*
X152540000Y-63726000D01*
X152540000Y-63976000D01*
X152790000Y-63976000D01*
X152790000Y-63726000D01*
G37*
X152790000Y-63726000D02*
X152540000Y-63726000D01*
X152540000Y-63976000D01*
X152790000Y-63976000D01*
X152790000Y-63726000D01*
G36*
X154540000Y-63726000D02*
G01*
X154290000Y-63726000D01*
X154290000Y-63976000D01*
X154540000Y-63976000D01*
X154540000Y-63726000D01*
G37*
X154540000Y-63726000D02*
X154290000Y-63726000D01*
X154290000Y-63976000D01*
X154540000Y-63976000D01*
X154540000Y-63726000D01*
G36*
X154790000Y-63726000D02*
G01*
X154540000Y-63726000D01*
X154540000Y-63976000D01*
X154790000Y-63976000D01*
X154790000Y-63726000D01*
G37*
X154790000Y-63726000D02*
X154540000Y-63726000D01*
X154540000Y-63976000D01*
X154790000Y-63976000D01*
X154790000Y-63726000D01*
G36*
X156540000Y-63726000D02*
G01*
X156290000Y-63726000D01*
X156290000Y-63976000D01*
X156540000Y-63976000D01*
X156540000Y-63726000D01*
G37*
X156540000Y-63726000D02*
X156290000Y-63726000D01*
X156290000Y-63976000D01*
X156540000Y-63976000D01*
X156540000Y-63726000D01*
G36*
X156790000Y-63726000D02*
G01*
X156540000Y-63726000D01*
X156540000Y-63976000D01*
X156790000Y-63976000D01*
X156790000Y-63726000D01*
G37*
X156790000Y-63726000D02*
X156540000Y-63726000D01*
X156540000Y-63976000D01*
X156790000Y-63976000D01*
X156790000Y-63726000D01*
G36*
X159040000Y-63726000D02*
G01*
X158790000Y-63726000D01*
X158790000Y-63976000D01*
X159040000Y-63976000D01*
X159040000Y-63726000D01*
G37*
X159040000Y-63726000D02*
X158790000Y-63726000D01*
X158790000Y-63976000D01*
X159040000Y-63976000D01*
X159040000Y-63726000D01*
G36*
X159290000Y-63726000D02*
G01*
X159040000Y-63726000D01*
X159040000Y-63976000D01*
X159290000Y-63976000D01*
X159290000Y-63726000D01*
G37*
X159290000Y-63726000D02*
X159040000Y-63726000D01*
X159040000Y-63976000D01*
X159290000Y-63976000D01*
X159290000Y-63726000D01*
G36*
X159540000Y-63726000D02*
G01*
X159290000Y-63726000D01*
X159290000Y-63976000D01*
X159540000Y-63976000D01*
X159540000Y-63726000D01*
G37*
X159540000Y-63726000D02*
X159290000Y-63726000D01*
X159290000Y-63976000D01*
X159540000Y-63976000D01*
X159540000Y-63726000D01*
G36*
X159790000Y-63726000D02*
G01*
X159540000Y-63726000D01*
X159540000Y-63976000D01*
X159790000Y-63976000D01*
X159790000Y-63726000D01*
G37*
X159790000Y-63726000D02*
X159540000Y-63726000D01*
X159540000Y-63976000D01*
X159790000Y-63976000D01*
X159790000Y-63726000D01*
G36*
X160040000Y-63726000D02*
G01*
X159790000Y-63726000D01*
X159790000Y-63976000D01*
X160040000Y-63976000D01*
X160040000Y-63726000D01*
G37*
X160040000Y-63726000D02*
X159790000Y-63726000D01*
X159790000Y-63976000D01*
X160040000Y-63976000D01*
X160040000Y-63726000D01*
G36*
X160290000Y-63726000D02*
G01*
X160040000Y-63726000D01*
X160040000Y-63976000D01*
X160290000Y-63976000D01*
X160290000Y-63726000D01*
G37*
X160290000Y-63726000D02*
X160040000Y-63726000D01*
X160040000Y-63976000D01*
X160290000Y-63976000D01*
X160290000Y-63726000D01*
G36*
X139040000Y-63476000D02*
G01*
X138790000Y-63476000D01*
X138790000Y-63726000D01*
X139040000Y-63726000D01*
X139040000Y-63476000D01*
G37*
X139040000Y-63476000D02*
X138790000Y-63476000D01*
X138790000Y-63726000D01*
X139040000Y-63726000D01*
X139040000Y-63476000D01*
G36*
X139290000Y-63476000D02*
G01*
X139040000Y-63476000D01*
X139040000Y-63726000D01*
X139290000Y-63726000D01*
X139290000Y-63476000D01*
G37*
X139290000Y-63476000D02*
X139040000Y-63476000D01*
X139040000Y-63726000D01*
X139290000Y-63726000D01*
X139290000Y-63476000D01*
G36*
X141540000Y-63476000D02*
G01*
X141290000Y-63476000D01*
X141290000Y-63726000D01*
X141540000Y-63726000D01*
X141540000Y-63476000D01*
G37*
X141540000Y-63476000D02*
X141290000Y-63476000D01*
X141290000Y-63726000D01*
X141540000Y-63726000D01*
X141540000Y-63476000D01*
G36*
X141790000Y-63476000D02*
G01*
X141540000Y-63476000D01*
X141540000Y-63726000D01*
X141790000Y-63726000D01*
X141790000Y-63476000D01*
G37*
X141790000Y-63476000D02*
X141540000Y-63476000D01*
X141540000Y-63726000D01*
X141790000Y-63726000D01*
X141790000Y-63476000D01*
G36*
X143540000Y-63476000D02*
G01*
X143290000Y-63476000D01*
X143290000Y-63726000D01*
X143540000Y-63726000D01*
X143540000Y-63476000D01*
G37*
X143540000Y-63476000D02*
X143290000Y-63476000D01*
X143290000Y-63726000D01*
X143540000Y-63726000D01*
X143540000Y-63476000D01*
G36*
X143790000Y-63476000D02*
G01*
X143540000Y-63476000D01*
X143540000Y-63726000D01*
X143790000Y-63726000D01*
X143790000Y-63476000D01*
G37*
X143790000Y-63476000D02*
X143540000Y-63476000D01*
X143540000Y-63726000D01*
X143790000Y-63726000D01*
X143790000Y-63476000D01*
G36*
X144040000Y-63476000D02*
G01*
X143790000Y-63476000D01*
X143790000Y-63726000D01*
X144040000Y-63726000D01*
X144040000Y-63476000D01*
G37*
X144040000Y-63476000D02*
X143790000Y-63476000D01*
X143790000Y-63726000D01*
X144040000Y-63726000D01*
X144040000Y-63476000D01*
G36*
X144290000Y-63476000D02*
G01*
X144040000Y-63476000D01*
X144040000Y-63726000D01*
X144290000Y-63726000D01*
X144290000Y-63476000D01*
G37*
X144290000Y-63476000D02*
X144040000Y-63476000D01*
X144040000Y-63726000D01*
X144290000Y-63726000D01*
X144290000Y-63476000D01*
G36*
X144540000Y-63476000D02*
G01*
X144290000Y-63476000D01*
X144290000Y-63726000D01*
X144540000Y-63726000D01*
X144540000Y-63476000D01*
G37*
X144540000Y-63476000D02*
X144290000Y-63476000D01*
X144290000Y-63726000D01*
X144540000Y-63726000D01*
X144540000Y-63476000D01*
G36*
X144790000Y-63476000D02*
G01*
X144540000Y-63476000D01*
X144540000Y-63726000D01*
X144790000Y-63726000D01*
X144790000Y-63476000D01*
G37*
X144790000Y-63476000D02*
X144540000Y-63476000D01*
X144540000Y-63726000D01*
X144790000Y-63726000D01*
X144790000Y-63476000D01*
G36*
X145040000Y-63476000D02*
G01*
X144790000Y-63476000D01*
X144790000Y-63726000D01*
X145040000Y-63726000D01*
X145040000Y-63476000D01*
G37*
X145040000Y-63476000D02*
X144790000Y-63476000D01*
X144790000Y-63726000D01*
X145040000Y-63726000D01*
X145040000Y-63476000D01*
G36*
X145290000Y-63476000D02*
G01*
X145040000Y-63476000D01*
X145040000Y-63726000D01*
X145290000Y-63726000D01*
X145290000Y-63476000D01*
G37*
X145290000Y-63476000D02*
X145040000Y-63476000D01*
X145040000Y-63726000D01*
X145290000Y-63726000D01*
X145290000Y-63476000D01*
G36*
X147540000Y-63476000D02*
G01*
X147290000Y-63476000D01*
X147290000Y-63726000D01*
X147540000Y-63726000D01*
X147540000Y-63476000D01*
G37*
X147540000Y-63476000D02*
X147290000Y-63476000D01*
X147290000Y-63726000D01*
X147540000Y-63726000D01*
X147540000Y-63476000D01*
G36*
X147790000Y-63476000D02*
G01*
X147540000Y-63476000D01*
X147540000Y-63726000D01*
X147790000Y-63726000D01*
X147790000Y-63476000D01*
G37*
X147790000Y-63476000D02*
X147540000Y-63476000D01*
X147540000Y-63726000D01*
X147790000Y-63726000D01*
X147790000Y-63476000D01*
G36*
X151040000Y-63476000D02*
G01*
X150790000Y-63476000D01*
X150790000Y-63726000D01*
X151040000Y-63726000D01*
X151040000Y-63476000D01*
G37*
X151040000Y-63476000D02*
X150790000Y-63476000D01*
X150790000Y-63726000D01*
X151040000Y-63726000D01*
X151040000Y-63476000D01*
G36*
X151290000Y-63476000D02*
G01*
X151040000Y-63476000D01*
X151040000Y-63726000D01*
X151290000Y-63726000D01*
X151290000Y-63476000D01*
G37*
X151290000Y-63476000D02*
X151040000Y-63476000D01*
X151040000Y-63726000D01*
X151290000Y-63726000D01*
X151290000Y-63476000D01*
G36*
X152540000Y-63476000D02*
G01*
X152290000Y-63476000D01*
X152290000Y-63726000D01*
X152540000Y-63726000D01*
X152540000Y-63476000D01*
G37*
X152540000Y-63476000D02*
X152290000Y-63476000D01*
X152290000Y-63726000D01*
X152540000Y-63726000D01*
X152540000Y-63476000D01*
G36*
X152790000Y-63476000D02*
G01*
X152540000Y-63476000D01*
X152540000Y-63726000D01*
X152790000Y-63726000D01*
X152790000Y-63476000D01*
G37*
X152790000Y-63476000D02*
X152540000Y-63476000D01*
X152540000Y-63726000D01*
X152790000Y-63726000D01*
X152790000Y-63476000D01*
G36*
X154540000Y-63476000D02*
G01*
X154290000Y-63476000D01*
X154290000Y-63726000D01*
X154540000Y-63726000D01*
X154540000Y-63476000D01*
G37*
X154540000Y-63476000D02*
X154290000Y-63476000D01*
X154290000Y-63726000D01*
X154540000Y-63726000D01*
X154540000Y-63476000D01*
G36*
X154790000Y-63476000D02*
G01*
X154540000Y-63476000D01*
X154540000Y-63726000D01*
X154790000Y-63726000D01*
X154790000Y-63476000D01*
G37*
X154790000Y-63476000D02*
X154540000Y-63476000D01*
X154540000Y-63726000D01*
X154790000Y-63726000D01*
X154790000Y-63476000D01*
G36*
X156540000Y-63476000D02*
G01*
X156290000Y-63476000D01*
X156290000Y-63726000D01*
X156540000Y-63726000D01*
X156540000Y-63476000D01*
G37*
X156540000Y-63476000D02*
X156290000Y-63476000D01*
X156290000Y-63726000D01*
X156540000Y-63726000D01*
X156540000Y-63476000D01*
G36*
X156790000Y-63476000D02*
G01*
X156540000Y-63476000D01*
X156540000Y-63726000D01*
X156790000Y-63726000D01*
X156790000Y-63476000D01*
G37*
X156790000Y-63476000D02*
X156540000Y-63476000D01*
X156540000Y-63726000D01*
X156790000Y-63726000D01*
X156790000Y-63476000D01*
G36*
X159040000Y-63476000D02*
G01*
X158790000Y-63476000D01*
X158790000Y-63726000D01*
X159040000Y-63726000D01*
X159040000Y-63476000D01*
G37*
X159040000Y-63476000D02*
X158790000Y-63476000D01*
X158790000Y-63726000D01*
X159040000Y-63726000D01*
X159040000Y-63476000D01*
G36*
X159290000Y-63476000D02*
G01*
X159040000Y-63476000D01*
X159040000Y-63726000D01*
X159290000Y-63726000D01*
X159290000Y-63476000D01*
G37*
X159290000Y-63476000D02*
X159040000Y-63476000D01*
X159040000Y-63726000D01*
X159290000Y-63726000D01*
X159290000Y-63476000D01*
G36*
X159540000Y-63476000D02*
G01*
X159290000Y-63476000D01*
X159290000Y-63726000D01*
X159540000Y-63726000D01*
X159540000Y-63476000D01*
G37*
X159540000Y-63476000D02*
X159290000Y-63476000D01*
X159290000Y-63726000D01*
X159540000Y-63726000D01*
X159540000Y-63476000D01*
G36*
X159790000Y-63476000D02*
G01*
X159540000Y-63476000D01*
X159540000Y-63726000D01*
X159790000Y-63726000D01*
X159790000Y-63476000D01*
G37*
X159790000Y-63476000D02*
X159540000Y-63476000D01*
X159540000Y-63726000D01*
X159790000Y-63726000D01*
X159790000Y-63476000D01*
G36*
X160040000Y-63476000D02*
G01*
X159790000Y-63476000D01*
X159790000Y-63726000D01*
X160040000Y-63726000D01*
X160040000Y-63476000D01*
G37*
X160040000Y-63476000D02*
X159790000Y-63476000D01*
X159790000Y-63726000D01*
X160040000Y-63726000D01*
X160040000Y-63476000D01*
G36*
X160290000Y-63476000D02*
G01*
X160040000Y-63476000D01*
X160040000Y-63726000D01*
X160290000Y-63726000D01*
X160290000Y-63476000D01*
G37*
X160290000Y-63476000D02*
X160040000Y-63476000D01*
X160040000Y-63726000D01*
X160290000Y-63726000D01*
X160290000Y-63476000D01*
G36*
X139040000Y-63226000D02*
G01*
X138790000Y-63226000D01*
X138790000Y-63476000D01*
X139040000Y-63476000D01*
X139040000Y-63226000D01*
G37*
X139040000Y-63226000D02*
X138790000Y-63226000D01*
X138790000Y-63476000D01*
X139040000Y-63476000D01*
X139040000Y-63226000D01*
G36*
X139290000Y-63226000D02*
G01*
X139040000Y-63226000D01*
X139040000Y-63476000D01*
X139290000Y-63476000D01*
X139290000Y-63226000D01*
G37*
X139290000Y-63226000D02*
X139040000Y-63226000D01*
X139040000Y-63476000D01*
X139290000Y-63476000D01*
X139290000Y-63226000D01*
G36*
X141540000Y-63226000D02*
G01*
X141290000Y-63226000D01*
X141290000Y-63476000D01*
X141540000Y-63476000D01*
X141540000Y-63226000D01*
G37*
X141540000Y-63226000D02*
X141290000Y-63226000D01*
X141290000Y-63476000D01*
X141540000Y-63476000D01*
X141540000Y-63226000D01*
G36*
X141790000Y-63226000D02*
G01*
X141540000Y-63226000D01*
X141540000Y-63476000D01*
X141790000Y-63476000D01*
X141790000Y-63226000D01*
G37*
X141790000Y-63226000D02*
X141540000Y-63226000D01*
X141540000Y-63476000D01*
X141790000Y-63476000D01*
X141790000Y-63226000D01*
G36*
X142040000Y-63226000D02*
G01*
X141790000Y-63226000D01*
X141790000Y-63476000D01*
X142040000Y-63476000D01*
X142040000Y-63226000D01*
G37*
X142040000Y-63226000D02*
X141790000Y-63226000D01*
X141790000Y-63476000D01*
X142040000Y-63476000D01*
X142040000Y-63226000D01*
G36*
X142290000Y-63226000D02*
G01*
X142040000Y-63226000D01*
X142040000Y-63476000D01*
X142290000Y-63476000D01*
X142290000Y-63226000D01*
G37*
X142290000Y-63226000D02*
X142040000Y-63226000D01*
X142040000Y-63476000D01*
X142290000Y-63476000D01*
X142290000Y-63226000D01*
G36*
X143540000Y-63226000D02*
G01*
X143290000Y-63226000D01*
X143290000Y-63476000D01*
X143540000Y-63476000D01*
X143540000Y-63226000D01*
G37*
X143540000Y-63226000D02*
X143290000Y-63226000D01*
X143290000Y-63476000D01*
X143540000Y-63476000D01*
X143540000Y-63226000D01*
G36*
X143790000Y-63226000D02*
G01*
X143540000Y-63226000D01*
X143540000Y-63476000D01*
X143790000Y-63476000D01*
X143790000Y-63226000D01*
G37*
X143790000Y-63226000D02*
X143540000Y-63226000D01*
X143540000Y-63476000D01*
X143790000Y-63476000D01*
X143790000Y-63226000D01*
G36*
X147540000Y-63226000D02*
G01*
X147290000Y-63226000D01*
X147290000Y-63476000D01*
X147540000Y-63476000D01*
X147540000Y-63226000D01*
G37*
X147540000Y-63226000D02*
X147290000Y-63226000D01*
X147290000Y-63476000D01*
X147540000Y-63476000D01*
X147540000Y-63226000D01*
G36*
X147790000Y-63226000D02*
G01*
X147540000Y-63226000D01*
X147540000Y-63476000D01*
X147790000Y-63476000D01*
X147790000Y-63226000D01*
G37*
X147790000Y-63226000D02*
X147540000Y-63226000D01*
X147540000Y-63476000D01*
X147790000Y-63476000D01*
X147790000Y-63226000D01*
G36*
X151040000Y-63226000D02*
G01*
X150790000Y-63226000D01*
X150790000Y-63476000D01*
X151040000Y-63476000D01*
X151040000Y-63226000D01*
G37*
X151040000Y-63226000D02*
X150790000Y-63226000D01*
X150790000Y-63476000D01*
X151040000Y-63476000D01*
X151040000Y-63226000D01*
G36*
X151290000Y-63226000D02*
G01*
X151040000Y-63226000D01*
X151040000Y-63476000D01*
X151290000Y-63476000D01*
X151290000Y-63226000D01*
G37*
X151290000Y-63226000D02*
X151040000Y-63226000D01*
X151040000Y-63476000D01*
X151290000Y-63476000D01*
X151290000Y-63226000D01*
G36*
X152540000Y-63226000D02*
G01*
X152290000Y-63226000D01*
X152290000Y-63476000D01*
X152540000Y-63476000D01*
X152540000Y-63226000D01*
G37*
X152540000Y-63226000D02*
X152290000Y-63226000D01*
X152290000Y-63476000D01*
X152540000Y-63476000D01*
X152540000Y-63226000D01*
G36*
X152790000Y-63226000D02*
G01*
X152540000Y-63226000D01*
X152540000Y-63476000D01*
X152790000Y-63476000D01*
X152790000Y-63226000D01*
G37*
X152790000Y-63226000D02*
X152540000Y-63226000D01*
X152540000Y-63476000D01*
X152790000Y-63476000D01*
X152790000Y-63226000D01*
G36*
X154540000Y-63226000D02*
G01*
X154290000Y-63226000D01*
X154290000Y-63476000D01*
X154540000Y-63476000D01*
X154540000Y-63226000D01*
G37*
X154540000Y-63226000D02*
X154290000Y-63226000D01*
X154290000Y-63476000D01*
X154540000Y-63476000D01*
X154540000Y-63226000D01*
G36*
X154790000Y-63226000D02*
G01*
X154540000Y-63226000D01*
X154540000Y-63476000D01*
X154790000Y-63476000D01*
X154790000Y-63226000D01*
G37*
X154790000Y-63226000D02*
X154540000Y-63226000D01*
X154540000Y-63476000D01*
X154790000Y-63476000D01*
X154790000Y-63226000D01*
G36*
X156540000Y-63226000D02*
G01*
X156290000Y-63226000D01*
X156290000Y-63476000D01*
X156540000Y-63476000D01*
X156540000Y-63226000D01*
G37*
X156540000Y-63226000D02*
X156290000Y-63226000D01*
X156290000Y-63476000D01*
X156540000Y-63476000D01*
X156540000Y-63226000D01*
G36*
X156790000Y-63226000D02*
G01*
X156540000Y-63226000D01*
X156540000Y-63476000D01*
X156790000Y-63476000D01*
X156790000Y-63226000D01*
G37*
X156790000Y-63226000D02*
X156540000Y-63226000D01*
X156540000Y-63476000D01*
X156790000Y-63476000D01*
X156790000Y-63226000D01*
G36*
X157040000Y-63226000D02*
G01*
X156790000Y-63226000D01*
X156790000Y-63476000D01*
X157040000Y-63476000D01*
X157040000Y-63226000D01*
G37*
X157040000Y-63226000D02*
X156790000Y-63226000D01*
X156790000Y-63476000D01*
X157040000Y-63476000D01*
X157040000Y-63226000D01*
G36*
X157290000Y-63226000D02*
G01*
X157040000Y-63226000D01*
X157040000Y-63476000D01*
X157290000Y-63476000D01*
X157290000Y-63226000D01*
G37*
X157290000Y-63226000D02*
X157040000Y-63226000D01*
X157040000Y-63476000D01*
X157290000Y-63476000D01*
X157290000Y-63226000D01*
G36*
X160540000Y-63226000D02*
G01*
X160290000Y-63226000D01*
X160290000Y-63476000D01*
X160540000Y-63476000D01*
X160540000Y-63226000D01*
G37*
X160540000Y-63226000D02*
X160290000Y-63226000D01*
X160290000Y-63476000D01*
X160540000Y-63476000D01*
X160540000Y-63226000D01*
G36*
X160790000Y-63226000D02*
G01*
X160540000Y-63226000D01*
X160540000Y-63476000D01*
X160790000Y-63476000D01*
X160790000Y-63226000D01*
G37*
X160790000Y-63226000D02*
X160540000Y-63226000D01*
X160540000Y-63476000D01*
X160790000Y-63476000D01*
X160790000Y-63226000D01*
G36*
X139040000Y-62976000D02*
G01*
X138790000Y-62976000D01*
X138790000Y-63226000D01*
X139040000Y-63226000D01*
X139040000Y-62976000D01*
G37*
X139040000Y-62976000D02*
X138790000Y-62976000D01*
X138790000Y-63226000D01*
X139040000Y-63226000D01*
X139040000Y-62976000D01*
G36*
X139290000Y-62976000D02*
G01*
X139040000Y-62976000D01*
X139040000Y-63226000D01*
X139290000Y-63226000D01*
X139290000Y-62976000D01*
G37*
X139290000Y-62976000D02*
X139040000Y-62976000D01*
X139040000Y-63226000D01*
X139290000Y-63226000D01*
X139290000Y-62976000D01*
G36*
X141540000Y-62976000D02*
G01*
X141290000Y-62976000D01*
X141290000Y-63226000D01*
X141540000Y-63226000D01*
X141540000Y-62976000D01*
G37*
X141540000Y-62976000D02*
X141290000Y-62976000D01*
X141290000Y-63226000D01*
X141540000Y-63226000D01*
X141540000Y-62976000D01*
G36*
X141790000Y-62976000D02*
G01*
X141540000Y-62976000D01*
X141540000Y-63226000D01*
X141790000Y-63226000D01*
X141790000Y-62976000D01*
G37*
X141790000Y-62976000D02*
X141540000Y-62976000D01*
X141540000Y-63226000D01*
X141790000Y-63226000D01*
X141790000Y-62976000D01*
G36*
X142040000Y-62976000D02*
G01*
X141790000Y-62976000D01*
X141790000Y-63226000D01*
X142040000Y-63226000D01*
X142040000Y-62976000D01*
G37*
X142040000Y-62976000D02*
X141790000Y-62976000D01*
X141790000Y-63226000D01*
X142040000Y-63226000D01*
X142040000Y-62976000D01*
G36*
X142290000Y-62976000D02*
G01*
X142040000Y-62976000D01*
X142040000Y-63226000D01*
X142290000Y-63226000D01*
X142290000Y-62976000D01*
G37*
X142290000Y-62976000D02*
X142040000Y-62976000D01*
X142040000Y-63226000D01*
X142290000Y-63226000D01*
X142290000Y-62976000D01*
G36*
X143540000Y-62976000D02*
G01*
X143290000Y-62976000D01*
X143290000Y-63226000D01*
X143540000Y-63226000D01*
X143540000Y-62976000D01*
G37*
X143540000Y-62976000D02*
X143290000Y-62976000D01*
X143290000Y-63226000D01*
X143540000Y-63226000D01*
X143540000Y-62976000D01*
G36*
X143790000Y-62976000D02*
G01*
X143540000Y-62976000D01*
X143540000Y-63226000D01*
X143790000Y-63226000D01*
X143790000Y-62976000D01*
G37*
X143790000Y-62976000D02*
X143540000Y-62976000D01*
X143540000Y-63226000D01*
X143790000Y-63226000D01*
X143790000Y-62976000D01*
G36*
X147540000Y-62976000D02*
G01*
X147290000Y-62976000D01*
X147290000Y-63226000D01*
X147540000Y-63226000D01*
X147540000Y-62976000D01*
G37*
X147540000Y-62976000D02*
X147290000Y-62976000D01*
X147290000Y-63226000D01*
X147540000Y-63226000D01*
X147540000Y-62976000D01*
G36*
X147790000Y-62976000D02*
G01*
X147540000Y-62976000D01*
X147540000Y-63226000D01*
X147790000Y-63226000D01*
X147790000Y-62976000D01*
G37*
X147790000Y-62976000D02*
X147540000Y-62976000D01*
X147540000Y-63226000D01*
X147790000Y-63226000D01*
X147790000Y-62976000D01*
G36*
X151040000Y-62976000D02*
G01*
X150790000Y-62976000D01*
X150790000Y-63226000D01*
X151040000Y-63226000D01*
X151040000Y-62976000D01*
G37*
X151040000Y-62976000D02*
X150790000Y-62976000D01*
X150790000Y-63226000D01*
X151040000Y-63226000D01*
X151040000Y-62976000D01*
G36*
X151290000Y-62976000D02*
G01*
X151040000Y-62976000D01*
X151040000Y-63226000D01*
X151290000Y-63226000D01*
X151290000Y-62976000D01*
G37*
X151290000Y-62976000D02*
X151040000Y-62976000D01*
X151040000Y-63226000D01*
X151290000Y-63226000D01*
X151290000Y-62976000D01*
G36*
X152540000Y-62976000D02*
G01*
X152290000Y-62976000D01*
X152290000Y-63226000D01*
X152540000Y-63226000D01*
X152540000Y-62976000D01*
G37*
X152540000Y-62976000D02*
X152290000Y-62976000D01*
X152290000Y-63226000D01*
X152540000Y-63226000D01*
X152540000Y-62976000D01*
G36*
X152790000Y-62976000D02*
G01*
X152540000Y-62976000D01*
X152540000Y-63226000D01*
X152790000Y-63226000D01*
X152790000Y-62976000D01*
G37*
X152790000Y-62976000D02*
X152540000Y-62976000D01*
X152540000Y-63226000D01*
X152790000Y-63226000D01*
X152790000Y-62976000D01*
G36*
X154540000Y-62976000D02*
G01*
X154290000Y-62976000D01*
X154290000Y-63226000D01*
X154540000Y-63226000D01*
X154540000Y-62976000D01*
G37*
X154540000Y-62976000D02*
X154290000Y-62976000D01*
X154290000Y-63226000D01*
X154540000Y-63226000D01*
X154540000Y-62976000D01*
G36*
X154790000Y-62976000D02*
G01*
X154540000Y-62976000D01*
X154540000Y-63226000D01*
X154790000Y-63226000D01*
X154790000Y-62976000D01*
G37*
X154790000Y-62976000D02*
X154540000Y-62976000D01*
X154540000Y-63226000D01*
X154790000Y-63226000D01*
X154790000Y-62976000D01*
G36*
X156540000Y-62976000D02*
G01*
X156290000Y-62976000D01*
X156290000Y-63226000D01*
X156540000Y-63226000D01*
X156540000Y-62976000D01*
G37*
X156540000Y-62976000D02*
X156290000Y-62976000D01*
X156290000Y-63226000D01*
X156540000Y-63226000D01*
X156540000Y-62976000D01*
G36*
X156790000Y-62976000D02*
G01*
X156540000Y-62976000D01*
X156540000Y-63226000D01*
X156790000Y-63226000D01*
X156790000Y-62976000D01*
G37*
X156790000Y-62976000D02*
X156540000Y-62976000D01*
X156540000Y-63226000D01*
X156790000Y-63226000D01*
X156790000Y-62976000D01*
G36*
X157040000Y-62976000D02*
G01*
X156790000Y-62976000D01*
X156790000Y-63226000D01*
X157040000Y-63226000D01*
X157040000Y-62976000D01*
G37*
X157040000Y-62976000D02*
X156790000Y-62976000D01*
X156790000Y-63226000D01*
X157040000Y-63226000D01*
X157040000Y-62976000D01*
G36*
X157290000Y-62976000D02*
G01*
X157040000Y-62976000D01*
X157040000Y-63226000D01*
X157290000Y-63226000D01*
X157290000Y-62976000D01*
G37*
X157290000Y-62976000D02*
X157040000Y-62976000D01*
X157040000Y-63226000D01*
X157290000Y-63226000D01*
X157290000Y-62976000D01*
G36*
X160540000Y-62976000D02*
G01*
X160290000Y-62976000D01*
X160290000Y-63226000D01*
X160540000Y-63226000D01*
X160540000Y-62976000D01*
G37*
X160540000Y-62976000D02*
X160290000Y-62976000D01*
X160290000Y-63226000D01*
X160540000Y-63226000D01*
X160540000Y-62976000D01*
G36*
X160790000Y-62976000D02*
G01*
X160540000Y-62976000D01*
X160540000Y-63226000D01*
X160790000Y-63226000D01*
X160790000Y-62976000D01*
G37*
X160790000Y-62976000D02*
X160540000Y-62976000D01*
X160540000Y-63226000D01*
X160790000Y-63226000D01*
X160790000Y-62976000D01*
G36*
X137540000Y-62726000D02*
G01*
X137290000Y-62726000D01*
X137290000Y-62976000D01*
X137540000Y-62976000D01*
X137540000Y-62726000D01*
G37*
X137540000Y-62726000D02*
X137290000Y-62726000D01*
X137290000Y-62976000D01*
X137540000Y-62976000D01*
X137540000Y-62726000D01*
G36*
X137790000Y-62726000D02*
G01*
X137540000Y-62726000D01*
X137540000Y-62976000D01*
X137790000Y-62976000D01*
X137790000Y-62726000D01*
G37*
X137790000Y-62726000D02*
X137540000Y-62726000D01*
X137540000Y-62976000D01*
X137790000Y-62976000D01*
X137790000Y-62726000D01*
G36*
X138040000Y-62726000D02*
G01*
X137790000Y-62726000D01*
X137790000Y-62976000D01*
X138040000Y-62976000D01*
X138040000Y-62726000D01*
G37*
X138040000Y-62726000D02*
X137790000Y-62726000D01*
X137790000Y-62976000D01*
X138040000Y-62976000D01*
X138040000Y-62726000D01*
G36*
X138290000Y-62726000D02*
G01*
X138040000Y-62726000D01*
X138040000Y-62976000D01*
X138290000Y-62976000D01*
X138290000Y-62726000D01*
G37*
X138290000Y-62726000D02*
X138040000Y-62726000D01*
X138040000Y-62976000D01*
X138290000Y-62976000D01*
X138290000Y-62726000D01*
G36*
X138540000Y-62726000D02*
G01*
X138290000Y-62726000D01*
X138290000Y-62976000D01*
X138540000Y-62976000D01*
X138540000Y-62726000D01*
G37*
X138540000Y-62726000D02*
X138290000Y-62726000D01*
X138290000Y-62976000D01*
X138540000Y-62976000D01*
X138540000Y-62726000D01*
G36*
X138790000Y-62726000D02*
G01*
X138540000Y-62726000D01*
X138540000Y-62976000D01*
X138790000Y-62976000D01*
X138790000Y-62726000D01*
G37*
X138790000Y-62726000D02*
X138540000Y-62726000D01*
X138540000Y-62976000D01*
X138790000Y-62976000D01*
X138790000Y-62726000D01*
G36*
X144040000Y-62726000D02*
G01*
X143790000Y-62726000D01*
X143790000Y-62976000D01*
X144040000Y-62976000D01*
X144040000Y-62726000D01*
G37*
X144040000Y-62726000D02*
X143790000Y-62726000D01*
X143790000Y-62976000D01*
X144040000Y-62976000D01*
X144040000Y-62726000D01*
G36*
X144290000Y-62726000D02*
G01*
X144040000Y-62726000D01*
X144040000Y-62976000D01*
X144290000Y-62976000D01*
X144290000Y-62726000D01*
G37*
X144290000Y-62726000D02*
X144040000Y-62726000D01*
X144040000Y-62976000D01*
X144290000Y-62976000D01*
X144290000Y-62726000D01*
G36*
X144540000Y-62726000D02*
G01*
X144290000Y-62726000D01*
X144290000Y-62976000D01*
X144540000Y-62976000D01*
X144540000Y-62726000D01*
G37*
X144540000Y-62726000D02*
X144290000Y-62726000D01*
X144290000Y-62976000D01*
X144540000Y-62976000D01*
X144540000Y-62726000D01*
G36*
X144790000Y-62726000D02*
G01*
X144540000Y-62726000D01*
X144540000Y-62976000D01*
X144790000Y-62976000D01*
X144790000Y-62726000D01*
G37*
X144790000Y-62726000D02*
X144540000Y-62726000D01*
X144540000Y-62976000D01*
X144790000Y-62976000D01*
X144790000Y-62726000D01*
G36*
X145040000Y-62726000D02*
G01*
X144790000Y-62726000D01*
X144790000Y-62976000D01*
X145040000Y-62976000D01*
X145040000Y-62726000D01*
G37*
X145040000Y-62726000D02*
X144790000Y-62726000D01*
X144790000Y-62976000D01*
X145040000Y-62976000D01*
X145040000Y-62726000D01*
G36*
X145290000Y-62726000D02*
G01*
X145040000Y-62726000D01*
X145040000Y-62976000D01*
X145290000Y-62976000D01*
X145290000Y-62726000D01*
G37*
X145290000Y-62726000D02*
X145040000Y-62726000D01*
X145040000Y-62976000D01*
X145290000Y-62976000D01*
X145290000Y-62726000D01*
G36*
X147540000Y-62726000D02*
G01*
X147290000Y-62726000D01*
X147290000Y-62976000D01*
X147540000Y-62976000D01*
X147540000Y-62726000D01*
G37*
X147540000Y-62726000D02*
X147290000Y-62726000D01*
X147290000Y-62976000D01*
X147540000Y-62976000D01*
X147540000Y-62726000D01*
G36*
X147790000Y-62726000D02*
G01*
X147540000Y-62726000D01*
X147540000Y-62976000D01*
X147790000Y-62976000D01*
X147790000Y-62726000D01*
G37*
X147790000Y-62726000D02*
X147540000Y-62726000D01*
X147540000Y-62976000D01*
X147790000Y-62976000D01*
X147790000Y-62726000D01*
G36*
X149540000Y-62726000D02*
G01*
X149290000Y-62726000D01*
X149290000Y-62976000D01*
X149540000Y-62976000D01*
X149540000Y-62726000D01*
G37*
X149540000Y-62726000D02*
X149290000Y-62726000D01*
X149290000Y-62976000D01*
X149540000Y-62976000D01*
X149540000Y-62726000D01*
G36*
X149790000Y-62726000D02*
G01*
X149540000Y-62726000D01*
X149540000Y-62976000D01*
X149790000Y-62976000D01*
X149790000Y-62726000D01*
G37*
X149790000Y-62726000D02*
X149540000Y-62726000D01*
X149540000Y-62976000D01*
X149790000Y-62976000D01*
X149790000Y-62726000D01*
G36*
X150040000Y-62726000D02*
G01*
X149790000Y-62726000D01*
X149790000Y-62976000D01*
X150040000Y-62976000D01*
X150040000Y-62726000D01*
G37*
X150040000Y-62726000D02*
X149790000Y-62726000D01*
X149790000Y-62976000D01*
X150040000Y-62976000D01*
X150040000Y-62726000D01*
G36*
X150290000Y-62726000D02*
G01*
X150040000Y-62726000D01*
X150040000Y-62976000D01*
X150290000Y-62976000D01*
X150290000Y-62726000D01*
G37*
X150290000Y-62726000D02*
X150040000Y-62726000D01*
X150040000Y-62976000D01*
X150290000Y-62976000D01*
X150290000Y-62726000D01*
G36*
X150540000Y-62726000D02*
G01*
X150290000Y-62726000D01*
X150290000Y-62976000D01*
X150540000Y-62976000D01*
X150540000Y-62726000D01*
G37*
X150540000Y-62726000D02*
X150290000Y-62726000D01*
X150290000Y-62976000D01*
X150540000Y-62976000D01*
X150540000Y-62726000D01*
G36*
X150790000Y-62726000D02*
G01*
X150540000Y-62726000D01*
X150540000Y-62976000D01*
X150790000Y-62976000D01*
X150790000Y-62726000D01*
G37*
X150790000Y-62726000D02*
X150540000Y-62726000D01*
X150540000Y-62976000D01*
X150790000Y-62976000D01*
X150790000Y-62726000D01*
G36*
X153040000Y-62726000D02*
G01*
X152790000Y-62726000D01*
X152790000Y-62976000D01*
X153040000Y-62976000D01*
X153040000Y-62726000D01*
G37*
X153040000Y-62726000D02*
X152790000Y-62726000D01*
X152790000Y-62976000D01*
X153040000Y-62976000D01*
X153040000Y-62726000D01*
G36*
X153290000Y-62726000D02*
G01*
X153040000Y-62726000D01*
X153040000Y-62976000D01*
X153290000Y-62976000D01*
X153290000Y-62726000D01*
G37*
X153290000Y-62726000D02*
X153040000Y-62726000D01*
X153040000Y-62976000D01*
X153290000Y-62976000D01*
X153290000Y-62726000D01*
G36*
X153540000Y-62726000D02*
G01*
X153290000Y-62726000D01*
X153290000Y-62976000D01*
X153540000Y-62976000D01*
X153540000Y-62726000D01*
G37*
X153540000Y-62726000D02*
X153290000Y-62726000D01*
X153290000Y-62976000D01*
X153540000Y-62976000D01*
X153540000Y-62726000D01*
G36*
X153790000Y-62726000D02*
G01*
X153540000Y-62726000D01*
X153540000Y-62976000D01*
X153790000Y-62976000D01*
X153790000Y-62726000D01*
G37*
X153790000Y-62726000D02*
X153540000Y-62726000D01*
X153540000Y-62976000D01*
X153790000Y-62976000D01*
X153790000Y-62726000D01*
G36*
X154040000Y-62726000D02*
G01*
X153790000Y-62726000D01*
X153790000Y-62976000D01*
X154040000Y-62976000D01*
X154040000Y-62726000D01*
G37*
X154040000Y-62726000D02*
X153790000Y-62726000D01*
X153790000Y-62976000D01*
X154040000Y-62976000D01*
X154040000Y-62726000D01*
G36*
X154290000Y-62726000D02*
G01*
X154040000Y-62726000D01*
X154040000Y-62976000D01*
X154290000Y-62976000D01*
X154290000Y-62726000D01*
G37*
X154290000Y-62726000D02*
X154040000Y-62726000D01*
X154040000Y-62976000D01*
X154290000Y-62976000D01*
X154290000Y-62726000D01*
G36*
X154540000Y-62726000D02*
G01*
X154290000Y-62726000D01*
X154290000Y-62976000D01*
X154540000Y-62976000D01*
X154540000Y-62726000D01*
G37*
X154540000Y-62726000D02*
X154290000Y-62726000D01*
X154290000Y-62976000D01*
X154540000Y-62976000D01*
X154540000Y-62726000D01*
G36*
X154790000Y-62726000D02*
G01*
X154540000Y-62726000D01*
X154540000Y-62976000D01*
X154790000Y-62976000D01*
X154790000Y-62726000D01*
G37*
X154790000Y-62726000D02*
X154540000Y-62726000D01*
X154540000Y-62976000D01*
X154790000Y-62976000D01*
X154790000Y-62726000D01*
G36*
X159040000Y-62726000D02*
G01*
X158790000Y-62726000D01*
X158790000Y-62976000D01*
X159040000Y-62976000D01*
X159040000Y-62726000D01*
G37*
X159040000Y-62726000D02*
X158790000Y-62726000D01*
X158790000Y-62976000D01*
X159040000Y-62976000D01*
X159040000Y-62726000D01*
G36*
X159290000Y-62726000D02*
G01*
X159040000Y-62726000D01*
X159040000Y-62976000D01*
X159290000Y-62976000D01*
X159290000Y-62726000D01*
G37*
X159290000Y-62726000D02*
X159040000Y-62726000D01*
X159040000Y-62976000D01*
X159290000Y-62976000D01*
X159290000Y-62726000D01*
G36*
X159540000Y-62726000D02*
G01*
X159290000Y-62726000D01*
X159290000Y-62976000D01*
X159540000Y-62976000D01*
X159540000Y-62726000D01*
G37*
X159540000Y-62726000D02*
X159290000Y-62726000D01*
X159290000Y-62976000D01*
X159540000Y-62976000D01*
X159540000Y-62726000D01*
G36*
X159790000Y-62726000D02*
G01*
X159540000Y-62726000D01*
X159540000Y-62976000D01*
X159790000Y-62976000D01*
X159790000Y-62726000D01*
G37*
X159790000Y-62726000D02*
X159540000Y-62726000D01*
X159540000Y-62976000D01*
X159790000Y-62976000D01*
X159790000Y-62726000D01*
G36*
X160040000Y-62726000D02*
G01*
X159790000Y-62726000D01*
X159790000Y-62976000D01*
X160040000Y-62976000D01*
X160040000Y-62726000D01*
G37*
X160040000Y-62726000D02*
X159790000Y-62726000D01*
X159790000Y-62976000D01*
X160040000Y-62976000D01*
X160040000Y-62726000D01*
G36*
X160290000Y-62726000D02*
G01*
X160040000Y-62726000D01*
X160040000Y-62976000D01*
X160290000Y-62976000D01*
X160290000Y-62726000D01*
G37*
X160290000Y-62726000D02*
X160040000Y-62726000D01*
X160040000Y-62976000D01*
X160290000Y-62976000D01*
X160290000Y-62726000D01*
G36*
X137540000Y-62476000D02*
G01*
X137290000Y-62476000D01*
X137290000Y-62726000D01*
X137540000Y-62726000D01*
X137540000Y-62476000D01*
G37*
X137540000Y-62476000D02*
X137290000Y-62476000D01*
X137290000Y-62726000D01*
X137540000Y-62726000D01*
X137540000Y-62476000D01*
G36*
X137790000Y-62476000D02*
G01*
X137540000Y-62476000D01*
X137540000Y-62726000D01*
X137790000Y-62726000D01*
X137790000Y-62476000D01*
G37*
X137790000Y-62476000D02*
X137540000Y-62476000D01*
X137540000Y-62726000D01*
X137790000Y-62726000D01*
X137790000Y-62476000D01*
G36*
X138040000Y-62476000D02*
G01*
X137790000Y-62476000D01*
X137790000Y-62726000D01*
X138040000Y-62726000D01*
X138040000Y-62476000D01*
G37*
X138040000Y-62476000D02*
X137790000Y-62476000D01*
X137790000Y-62726000D01*
X138040000Y-62726000D01*
X138040000Y-62476000D01*
G36*
X138290000Y-62476000D02*
G01*
X138040000Y-62476000D01*
X138040000Y-62726000D01*
X138290000Y-62726000D01*
X138290000Y-62476000D01*
G37*
X138290000Y-62476000D02*
X138040000Y-62476000D01*
X138040000Y-62726000D01*
X138290000Y-62726000D01*
X138290000Y-62476000D01*
G36*
X138540000Y-62476000D02*
G01*
X138290000Y-62476000D01*
X138290000Y-62726000D01*
X138540000Y-62726000D01*
X138540000Y-62476000D01*
G37*
X138540000Y-62476000D02*
X138290000Y-62476000D01*
X138290000Y-62726000D01*
X138540000Y-62726000D01*
X138540000Y-62476000D01*
G36*
X138790000Y-62476000D02*
G01*
X138540000Y-62476000D01*
X138540000Y-62726000D01*
X138790000Y-62726000D01*
X138790000Y-62476000D01*
G37*
X138790000Y-62476000D02*
X138540000Y-62476000D01*
X138540000Y-62726000D01*
X138790000Y-62726000D01*
X138790000Y-62476000D01*
G36*
X144040000Y-62476000D02*
G01*
X143790000Y-62476000D01*
X143790000Y-62726000D01*
X144040000Y-62726000D01*
X144040000Y-62476000D01*
G37*
X144040000Y-62476000D02*
X143790000Y-62476000D01*
X143790000Y-62726000D01*
X144040000Y-62726000D01*
X144040000Y-62476000D01*
G36*
X144290000Y-62476000D02*
G01*
X144040000Y-62476000D01*
X144040000Y-62726000D01*
X144290000Y-62726000D01*
X144290000Y-62476000D01*
G37*
X144290000Y-62476000D02*
X144040000Y-62476000D01*
X144040000Y-62726000D01*
X144290000Y-62726000D01*
X144290000Y-62476000D01*
G36*
X144540000Y-62476000D02*
G01*
X144290000Y-62476000D01*
X144290000Y-62726000D01*
X144540000Y-62726000D01*
X144540000Y-62476000D01*
G37*
X144540000Y-62476000D02*
X144290000Y-62476000D01*
X144290000Y-62726000D01*
X144540000Y-62726000D01*
X144540000Y-62476000D01*
G36*
X144790000Y-62476000D02*
G01*
X144540000Y-62476000D01*
X144540000Y-62726000D01*
X144790000Y-62726000D01*
X144790000Y-62476000D01*
G37*
X144790000Y-62476000D02*
X144540000Y-62476000D01*
X144540000Y-62726000D01*
X144790000Y-62726000D01*
X144790000Y-62476000D01*
G36*
X145040000Y-62476000D02*
G01*
X144790000Y-62476000D01*
X144790000Y-62726000D01*
X145040000Y-62726000D01*
X145040000Y-62476000D01*
G37*
X145040000Y-62476000D02*
X144790000Y-62476000D01*
X144790000Y-62726000D01*
X145040000Y-62726000D01*
X145040000Y-62476000D01*
G36*
X145290000Y-62476000D02*
G01*
X145040000Y-62476000D01*
X145040000Y-62726000D01*
X145290000Y-62726000D01*
X145290000Y-62476000D01*
G37*
X145290000Y-62476000D02*
X145040000Y-62476000D01*
X145040000Y-62726000D01*
X145290000Y-62726000D01*
X145290000Y-62476000D01*
G36*
X147540000Y-62476000D02*
G01*
X147290000Y-62476000D01*
X147290000Y-62726000D01*
X147540000Y-62726000D01*
X147540000Y-62476000D01*
G37*
X147540000Y-62476000D02*
X147290000Y-62476000D01*
X147290000Y-62726000D01*
X147540000Y-62726000D01*
X147540000Y-62476000D01*
G36*
X147790000Y-62476000D02*
G01*
X147540000Y-62476000D01*
X147540000Y-62726000D01*
X147790000Y-62726000D01*
X147790000Y-62476000D01*
G37*
X147790000Y-62476000D02*
X147540000Y-62476000D01*
X147540000Y-62726000D01*
X147790000Y-62726000D01*
X147790000Y-62476000D01*
G36*
X149540000Y-62476000D02*
G01*
X149290000Y-62476000D01*
X149290000Y-62726000D01*
X149540000Y-62726000D01*
X149540000Y-62476000D01*
G37*
X149540000Y-62476000D02*
X149290000Y-62476000D01*
X149290000Y-62726000D01*
X149540000Y-62726000D01*
X149540000Y-62476000D01*
G36*
X149790000Y-62476000D02*
G01*
X149540000Y-62476000D01*
X149540000Y-62726000D01*
X149790000Y-62726000D01*
X149790000Y-62476000D01*
G37*
X149790000Y-62476000D02*
X149540000Y-62476000D01*
X149540000Y-62726000D01*
X149790000Y-62726000D01*
X149790000Y-62476000D01*
G36*
X150040000Y-62476000D02*
G01*
X149790000Y-62476000D01*
X149790000Y-62726000D01*
X150040000Y-62726000D01*
X150040000Y-62476000D01*
G37*
X150040000Y-62476000D02*
X149790000Y-62476000D01*
X149790000Y-62726000D01*
X150040000Y-62726000D01*
X150040000Y-62476000D01*
G36*
X150290000Y-62476000D02*
G01*
X150040000Y-62476000D01*
X150040000Y-62726000D01*
X150290000Y-62726000D01*
X150290000Y-62476000D01*
G37*
X150290000Y-62476000D02*
X150040000Y-62476000D01*
X150040000Y-62726000D01*
X150290000Y-62726000D01*
X150290000Y-62476000D01*
G36*
X150540000Y-62476000D02*
G01*
X150290000Y-62476000D01*
X150290000Y-62726000D01*
X150540000Y-62726000D01*
X150540000Y-62476000D01*
G37*
X150540000Y-62476000D02*
X150290000Y-62476000D01*
X150290000Y-62726000D01*
X150540000Y-62726000D01*
X150540000Y-62476000D01*
G36*
X150790000Y-62476000D02*
G01*
X150540000Y-62476000D01*
X150540000Y-62726000D01*
X150790000Y-62726000D01*
X150790000Y-62476000D01*
G37*
X150790000Y-62476000D02*
X150540000Y-62476000D01*
X150540000Y-62726000D01*
X150790000Y-62726000D01*
X150790000Y-62476000D01*
G36*
X153040000Y-62476000D02*
G01*
X152790000Y-62476000D01*
X152790000Y-62726000D01*
X153040000Y-62726000D01*
X153040000Y-62476000D01*
G37*
X153040000Y-62476000D02*
X152790000Y-62476000D01*
X152790000Y-62726000D01*
X153040000Y-62726000D01*
X153040000Y-62476000D01*
G36*
X153290000Y-62476000D02*
G01*
X153040000Y-62476000D01*
X153040000Y-62726000D01*
X153290000Y-62726000D01*
X153290000Y-62476000D01*
G37*
X153290000Y-62476000D02*
X153040000Y-62476000D01*
X153040000Y-62726000D01*
X153290000Y-62726000D01*
X153290000Y-62476000D01*
G36*
X153540000Y-62476000D02*
G01*
X153290000Y-62476000D01*
X153290000Y-62726000D01*
X153540000Y-62726000D01*
X153540000Y-62476000D01*
G37*
X153540000Y-62476000D02*
X153290000Y-62476000D01*
X153290000Y-62726000D01*
X153540000Y-62726000D01*
X153540000Y-62476000D01*
G36*
X153790000Y-62476000D02*
G01*
X153540000Y-62476000D01*
X153540000Y-62726000D01*
X153790000Y-62726000D01*
X153790000Y-62476000D01*
G37*
X153790000Y-62476000D02*
X153540000Y-62476000D01*
X153540000Y-62726000D01*
X153790000Y-62726000D01*
X153790000Y-62476000D01*
G36*
X154040000Y-62476000D02*
G01*
X153790000Y-62476000D01*
X153790000Y-62726000D01*
X154040000Y-62726000D01*
X154040000Y-62476000D01*
G37*
X154040000Y-62476000D02*
X153790000Y-62476000D01*
X153790000Y-62726000D01*
X154040000Y-62726000D01*
X154040000Y-62476000D01*
G36*
X154290000Y-62476000D02*
G01*
X154040000Y-62476000D01*
X154040000Y-62726000D01*
X154290000Y-62726000D01*
X154290000Y-62476000D01*
G37*
X154290000Y-62476000D02*
X154040000Y-62476000D01*
X154040000Y-62726000D01*
X154290000Y-62726000D01*
X154290000Y-62476000D01*
G36*
X154540000Y-62476000D02*
G01*
X154290000Y-62476000D01*
X154290000Y-62726000D01*
X154540000Y-62726000D01*
X154540000Y-62476000D01*
G37*
X154540000Y-62476000D02*
X154290000Y-62476000D01*
X154290000Y-62726000D01*
X154540000Y-62726000D01*
X154540000Y-62476000D01*
G36*
X154790000Y-62476000D02*
G01*
X154540000Y-62476000D01*
X154540000Y-62726000D01*
X154790000Y-62726000D01*
X154790000Y-62476000D01*
G37*
X154790000Y-62476000D02*
X154540000Y-62476000D01*
X154540000Y-62726000D01*
X154790000Y-62726000D01*
X154790000Y-62476000D01*
G36*
X159040000Y-62476000D02*
G01*
X158790000Y-62476000D01*
X158790000Y-62726000D01*
X159040000Y-62726000D01*
X159040000Y-62476000D01*
G37*
X159040000Y-62476000D02*
X158790000Y-62476000D01*
X158790000Y-62726000D01*
X159040000Y-62726000D01*
X159040000Y-62476000D01*
G36*
X159290000Y-62476000D02*
G01*
X159040000Y-62476000D01*
X159040000Y-62726000D01*
X159290000Y-62726000D01*
X159290000Y-62476000D01*
G37*
X159290000Y-62476000D02*
X159040000Y-62476000D01*
X159040000Y-62726000D01*
X159290000Y-62726000D01*
X159290000Y-62476000D01*
G36*
X159540000Y-62476000D02*
G01*
X159290000Y-62476000D01*
X159290000Y-62726000D01*
X159540000Y-62726000D01*
X159540000Y-62476000D01*
G37*
X159540000Y-62476000D02*
X159290000Y-62476000D01*
X159290000Y-62726000D01*
X159540000Y-62726000D01*
X159540000Y-62476000D01*
G36*
X159790000Y-62476000D02*
G01*
X159540000Y-62476000D01*
X159540000Y-62726000D01*
X159790000Y-62726000D01*
X159790000Y-62476000D01*
G37*
X159790000Y-62476000D02*
X159540000Y-62476000D01*
X159540000Y-62726000D01*
X159790000Y-62726000D01*
X159790000Y-62476000D01*
G36*
X160040000Y-62476000D02*
G01*
X159790000Y-62476000D01*
X159790000Y-62726000D01*
X160040000Y-62726000D01*
X160040000Y-62476000D01*
G37*
X160040000Y-62476000D02*
X159790000Y-62476000D01*
X159790000Y-62726000D01*
X160040000Y-62726000D01*
X160040000Y-62476000D01*
G36*
X160290000Y-62476000D02*
G01*
X160040000Y-62476000D01*
X160040000Y-62726000D01*
X160290000Y-62726000D01*
X160290000Y-62476000D01*
G37*
X160290000Y-62476000D02*
X160040000Y-62476000D01*
X160040000Y-62726000D01*
X160290000Y-62726000D01*
X160290000Y-62476000D01*
G36*
X141540000Y-62226000D02*
G01*
X141290000Y-62226000D01*
X141290000Y-62476000D01*
X141540000Y-62476000D01*
X141540000Y-62226000D01*
G37*
X141540000Y-62226000D02*
X141290000Y-62226000D01*
X141290000Y-62476000D01*
X141540000Y-62476000D01*
X141540000Y-62226000D01*
G36*
X141790000Y-62226000D02*
G01*
X141540000Y-62226000D01*
X141540000Y-62476000D01*
X141790000Y-62476000D01*
X141790000Y-62226000D01*
G37*
X141790000Y-62226000D02*
X141540000Y-62226000D01*
X141540000Y-62476000D01*
X141790000Y-62476000D01*
X141790000Y-62226000D01*
G36*
X147540000Y-62226000D02*
G01*
X147290000Y-62226000D01*
X147290000Y-62476000D01*
X147540000Y-62476000D01*
X147540000Y-62226000D01*
G37*
X147540000Y-62226000D02*
X147290000Y-62226000D01*
X147290000Y-62476000D01*
X147540000Y-62476000D01*
X147540000Y-62226000D01*
G36*
X147790000Y-62226000D02*
G01*
X147540000Y-62226000D01*
X147540000Y-62476000D01*
X147790000Y-62476000D01*
X147790000Y-62226000D01*
G37*
X147790000Y-62226000D02*
X147540000Y-62226000D01*
X147540000Y-62476000D01*
X147790000Y-62476000D01*
X147790000Y-62226000D01*
G36*
X156540000Y-62226000D02*
G01*
X156290000Y-62226000D01*
X156290000Y-62476000D01*
X156540000Y-62476000D01*
X156540000Y-62226000D01*
G37*
X156540000Y-62226000D02*
X156290000Y-62226000D01*
X156290000Y-62476000D01*
X156540000Y-62476000D01*
X156540000Y-62226000D01*
G36*
X156790000Y-62226000D02*
G01*
X156540000Y-62226000D01*
X156540000Y-62476000D01*
X156790000Y-62476000D01*
X156790000Y-62226000D01*
G37*
X156790000Y-62226000D02*
X156540000Y-62226000D01*
X156540000Y-62476000D01*
X156790000Y-62476000D01*
X156790000Y-62226000D01*
G36*
X141540000Y-61976000D02*
G01*
X141290000Y-61976000D01*
X141290000Y-62226000D01*
X141540000Y-62226000D01*
X141540000Y-61976000D01*
G37*
X141540000Y-61976000D02*
X141290000Y-61976000D01*
X141290000Y-62226000D01*
X141540000Y-62226000D01*
X141540000Y-61976000D01*
G36*
X141790000Y-61976000D02*
G01*
X141540000Y-61976000D01*
X141540000Y-62226000D01*
X141790000Y-62226000D01*
X141790000Y-61976000D01*
G37*
X141790000Y-61976000D02*
X141540000Y-61976000D01*
X141540000Y-62226000D01*
X141790000Y-62226000D01*
X141790000Y-61976000D01*
G36*
X147540000Y-61976000D02*
G01*
X147290000Y-61976000D01*
X147290000Y-62226000D01*
X147540000Y-62226000D01*
X147540000Y-61976000D01*
G37*
X147540000Y-61976000D02*
X147290000Y-61976000D01*
X147290000Y-62226000D01*
X147540000Y-62226000D01*
X147540000Y-61976000D01*
G36*
X147790000Y-61976000D02*
G01*
X147540000Y-61976000D01*
X147540000Y-62226000D01*
X147790000Y-62226000D01*
X147790000Y-61976000D01*
G37*
X147790000Y-61976000D02*
X147540000Y-61976000D01*
X147540000Y-62226000D01*
X147790000Y-62226000D01*
X147790000Y-61976000D01*
G36*
X156540000Y-61976000D02*
G01*
X156290000Y-61976000D01*
X156290000Y-62226000D01*
X156540000Y-62226000D01*
X156540000Y-61976000D01*
G37*
X156540000Y-61976000D02*
X156290000Y-61976000D01*
X156290000Y-62226000D01*
X156540000Y-62226000D01*
X156540000Y-61976000D01*
G36*
X156790000Y-61976000D02*
G01*
X156540000Y-61976000D01*
X156540000Y-62226000D01*
X156790000Y-62226000D01*
X156790000Y-61976000D01*
G37*
X156790000Y-61976000D02*
X156540000Y-61976000D01*
X156540000Y-62226000D01*
X156790000Y-62226000D01*
X156790000Y-61976000D01*
D10*
%TD*%
M02*
