%TF.GenerationSoftware,KiCad,Pcbnew,(5.1.8)-1*%
%TF.CreationDate,2021-04-11T23:00:19+02:00*%
%TF.ProjectId,ZX Cartridge 2021,5a582043-6172-4747-9269-646765203230,rev?*%
%TF.SameCoordinates,Original*%
%TF.FileFunction,Soldermask,Top*%
%TF.FilePolarity,Negative*%
%FSLAX46Y46*%
G04 Gerber Fmt 4.6, Leading zero omitted, Abs format (unit mm)*
G04 Created by KiCad (PCBNEW (5.1.8)-1) date 2021-04-11 23:00:19*
%MOMM*%
%LPD*%
G01*
G04 APERTURE LIST*
%ADD10C,1.600000*%
%ADD11R,2.400000X1.600000*%
%ADD12O,2.400000X1.600000*%
%ADD13C,5.100000*%
%ADD14R,2.000000X1.500000*%
%ADD15O,2.000000X1.500000*%
%ADD16C,0.254000*%
%ADD17C,0.100000*%
G04 APERTURE END LIST*
D10*
%TO.C,C1*%
X147574000Y-67945000D03*
X147574000Y-72945000D03*
%TD*%
D11*
%TO.C,U1*%
X128524000Y-67945000D03*
D12*
X143764000Y-100965000D03*
X128524000Y-70485000D03*
X143764000Y-98425000D03*
X128524000Y-73025000D03*
X143764000Y-95885000D03*
X128524000Y-75565000D03*
X143764000Y-93345000D03*
X128524000Y-78105000D03*
X143764000Y-90805000D03*
X128524000Y-80645000D03*
X143764000Y-88265000D03*
X128524000Y-83185000D03*
X143764000Y-85725000D03*
X128524000Y-85725000D03*
X143764000Y-83185000D03*
X128524000Y-88265000D03*
X143764000Y-80645000D03*
X128524000Y-90805000D03*
X143764000Y-78105000D03*
X128524000Y-93345000D03*
X143764000Y-75565000D03*
X128524000Y-95885000D03*
X143764000Y-73025000D03*
X128524000Y-98425000D03*
X143764000Y-70485000D03*
X128524000Y-100965000D03*
X143764000Y-67945000D03*
%TD*%
D13*
%TO.C,M1*%
X123444000Y-100330000D03*
%TD*%
%TO.C,M2*%
X175011000Y-100330000D03*
%TD*%
%TO.C,M3*%
X175011000Y-62230000D03*
%TD*%
%TO.C,M4*%
X123444000Y-62230000D03*
%TD*%
D10*
%TO.C,C2*%
X173609000Y-67945000D03*
X173609000Y-72945000D03*
%TD*%
D11*
%TO.C,U2*%
X154559000Y-67945000D03*
D12*
X169799000Y-100965000D03*
X154559000Y-70485000D03*
X169799000Y-98425000D03*
X154559000Y-73025000D03*
X169799000Y-95885000D03*
X154559000Y-75565000D03*
X169799000Y-93345000D03*
X154559000Y-78105000D03*
X169799000Y-90805000D03*
X154559000Y-80645000D03*
X169799000Y-88265000D03*
X154559000Y-83185000D03*
X169799000Y-85725000D03*
X154559000Y-85725000D03*
X169799000Y-83185000D03*
X154559000Y-88265000D03*
X169799000Y-80645000D03*
X154559000Y-90805000D03*
X169799000Y-78105000D03*
X154559000Y-93345000D03*
X169799000Y-75565000D03*
X154559000Y-95885000D03*
X169799000Y-73025000D03*
X154559000Y-98425000D03*
X169799000Y-70485000D03*
X154559000Y-100965000D03*
X169799000Y-67945000D03*
%TD*%
D14*
%TO.C,JP1*%
X174879000Y-82423000D03*
D15*
X174879000Y-80518000D03*
X174879000Y-78613000D03*
%TD*%
%TO.C,JP2*%
X174879000Y-88773000D03*
X174879000Y-90678000D03*
D14*
X174879000Y-92583000D03*
%TD*%
D16*
X146558000Y-120396000D02*
X146538665Y-120493202D01*
X146501783Y-120548400D01*
X120850803Y-120548400D01*
X120720541Y-120478773D01*
X120566580Y-120352420D01*
X120440227Y-120198459D01*
X120370600Y-120068197D01*
X120370600Y-111887000D01*
X146558000Y-111887000D01*
X146558000Y-120396000D01*
D17*
G36*
X146558000Y-120396000D02*
G01*
X146538665Y-120493202D01*
X146501783Y-120548400D01*
X120850803Y-120548400D01*
X120720541Y-120478773D01*
X120566580Y-120352420D01*
X120440227Y-120198459D01*
X120370600Y-120068197D01*
X120370600Y-111887000D01*
X146558000Y-111887000D01*
X146558000Y-120396000D01*
G37*
D16*
X159258000Y-120396000D02*
X159238665Y-120493202D01*
X159201783Y-120548400D01*
X149408217Y-120548400D01*
X149371335Y-120493202D01*
X149352000Y-120396000D01*
X149352000Y-111887000D01*
X159258000Y-111887000D01*
X159258000Y-120396000D01*
D17*
G36*
X159258000Y-120396000D02*
G01*
X159238665Y-120493202D01*
X159201783Y-120548400D01*
X149408217Y-120548400D01*
X149371335Y-120493202D01*
X149352000Y-120396000D01*
X149352000Y-111887000D01*
X159258000Y-111887000D01*
X159258000Y-120396000D01*
G37*
D16*
X178079400Y-120068197D02*
X178009773Y-120198459D01*
X177883420Y-120352420D01*
X177729459Y-120478773D01*
X177599197Y-120548400D01*
X162108217Y-120548400D01*
X162071335Y-120493202D01*
X162052000Y-120396000D01*
X162052000Y-111887000D01*
X178079400Y-111887000D01*
X178079400Y-120068197D01*
D17*
G36*
X178079400Y-120068197D02*
G01*
X178009773Y-120198459D01*
X177883420Y-120352420D01*
X177729459Y-120478773D01*
X177599197Y-120548400D01*
X162108217Y-120548400D01*
X162071335Y-120493202D01*
X162052000Y-120396000D01*
X162052000Y-111887000D01*
X178079400Y-111887000D01*
X178079400Y-120068197D01*
G37*
M02*
