%TF.GenerationSoftware,KiCad,Pcbnew,(5.1.8)-1*%
%TF.CreationDate,2021-03-07T18:54:55+01:00*%
%TF.ProjectId,ZX Cartridge 2021,5a582043-6172-4747-9269-646765203230,rev?*%
%TF.SameCoordinates,Original*%
%TF.FileFunction,Legend,Bot*%
%TF.FilePolarity,Positive*%
%FSLAX46Y46*%
G04 Gerber Fmt 4.6, Leading zero omitted, Abs format (unit mm)*
G04 Created by KiCad (PCBNEW (5.1.8)-1) date 2021-03-07 18:54:55*
%MOMM*%
%LPD*%
G01*
G04 APERTURE LIST*
%ADD10C,0.150000*%
%ADD11C,0.010000*%
G04 APERTURE END LIST*
D10*
X143286857Y-104672380D02*
X142620190Y-104672380D01*
X143286857Y-105672380D01*
X142620190Y-105672380D01*
X142334476Y-104672380D02*
X141667809Y-105672380D01*
X141667809Y-104672380D02*
X142334476Y-105672380D01*
X139953523Y-105577142D02*
X140001142Y-105624761D01*
X140144000Y-105672380D01*
X140239238Y-105672380D01*
X140382095Y-105624761D01*
X140477333Y-105529523D01*
X140524952Y-105434285D01*
X140572571Y-105243809D01*
X140572571Y-105100952D01*
X140524952Y-104910476D01*
X140477333Y-104815238D01*
X140382095Y-104720000D01*
X140239238Y-104672380D01*
X140144000Y-104672380D01*
X140001142Y-104720000D01*
X139953523Y-104767619D01*
X139096380Y-105672380D02*
X139096380Y-105148571D01*
X139144000Y-105053333D01*
X139239238Y-105005714D01*
X139429714Y-105005714D01*
X139524952Y-105053333D01*
X139096380Y-105624761D02*
X139191619Y-105672380D01*
X139429714Y-105672380D01*
X139524952Y-105624761D01*
X139572571Y-105529523D01*
X139572571Y-105434285D01*
X139524952Y-105339047D01*
X139429714Y-105291428D01*
X139191619Y-105291428D01*
X139096380Y-105243809D01*
X138620190Y-105672380D02*
X138620190Y-105005714D01*
X138620190Y-105196190D02*
X138572571Y-105100952D01*
X138524952Y-105053333D01*
X138429714Y-105005714D01*
X138334476Y-105005714D01*
X138144000Y-105005714D02*
X137763047Y-105005714D01*
X138001142Y-104672380D02*
X138001142Y-105529523D01*
X137953523Y-105624761D01*
X137858285Y-105672380D01*
X137763047Y-105672380D01*
X137429714Y-105672380D02*
X137429714Y-105005714D01*
X137429714Y-105196190D02*
X137382095Y-105100952D01*
X137334476Y-105053333D01*
X137239238Y-105005714D01*
X137144000Y-105005714D01*
X136810666Y-105672380D02*
X136810666Y-105005714D01*
X136810666Y-104672380D02*
X136858285Y-104720000D01*
X136810666Y-104767619D01*
X136763047Y-104720000D01*
X136810666Y-104672380D01*
X136810666Y-104767619D01*
X135905904Y-105672380D02*
X135905904Y-104672380D01*
X135905904Y-105624761D02*
X136001142Y-105672380D01*
X136191619Y-105672380D01*
X136286857Y-105624761D01*
X136334476Y-105577142D01*
X136382095Y-105481904D01*
X136382095Y-105196190D01*
X136334476Y-105100952D01*
X136286857Y-105053333D01*
X136191619Y-105005714D01*
X136001142Y-105005714D01*
X135905904Y-105053333D01*
X135001142Y-105005714D02*
X135001142Y-105815238D01*
X135048761Y-105910476D01*
X135096380Y-105958095D01*
X135191619Y-106005714D01*
X135334476Y-106005714D01*
X135429714Y-105958095D01*
X135001142Y-105624761D02*
X135096380Y-105672380D01*
X135286857Y-105672380D01*
X135382095Y-105624761D01*
X135429714Y-105577142D01*
X135477333Y-105481904D01*
X135477333Y-105196190D01*
X135429714Y-105100952D01*
X135382095Y-105053333D01*
X135286857Y-105005714D01*
X135096380Y-105005714D01*
X135001142Y-105053333D01*
X134144000Y-105624761D02*
X134239238Y-105672380D01*
X134429714Y-105672380D01*
X134524952Y-105624761D01*
X134572571Y-105529523D01*
X134572571Y-105148571D01*
X134524952Y-105053333D01*
X134429714Y-105005714D01*
X134239238Y-105005714D01*
X134144000Y-105053333D01*
X134096380Y-105148571D01*
X134096380Y-105243809D01*
X134572571Y-105339047D01*
X132953523Y-104767619D02*
X132905904Y-104720000D01*
X132810666Y-104672380D01*
X132572571Y-104672380D01*
X132477333Y-104720000D01*
X132429714Y-104767619D01*
X132382095Y-104862857D01*
X132382095Y-104958095D01*
X132429714Y-105100952D01*
X133001142Y-105672380D01*
X132382095Y-105672380D01*
X131953523Y-105577142D02*
X131905904Y-105624761D01*
X131953523Y-105672380D01*
X132001142Y-105624761D01*
X131953523Y-105577142D01*
X131953523Y-105672380D01*
X131286857Y-104672380D02*
X131191619Y-104672380D01*
X131096380Y-104720000D01*
X131048761Y-104767619D01*
X131001142Y-104862857D01*
X130953523Y-105053333D01*
X130953523Y-105291428D01*
X131001142Y-105481904D01*
X131048761Y-105577142D01*
X131096380Y-105624761D01*
X131191619Y-105672380D01*
X131286857Y-105672380D01*
X131382095Y-105624761D01*
X131429714Y-105577142D01*
X131477333Y-105481904D01*
X131524952Y-105291428D01*
X131524952Y-105053333D01*
X131477333Y-104862857D01*
X131429714Y-104767619D01*
X131382095Y-104720000D01*
X131286857Y-104672380D01*
X130572571Y-104767619D02*
X130524952Y-104720000D01*
X130429714Y-104672380D01*
X130191619Y-104672380D01*
X130096380Y-104720000D01*
X130048761Y-104767619D01*
X130001142Y-104862857D01*
X130001142Y-104958095D01*
X130048761Y-105100952D01*
X130620190Y-105672380D01*
X130001142Y-105672380D01*
X129048761Y-105672380D02*
X129620190Y-105672380D01*
X129334476Y-105672380D02*
X129334476Y-104672380D01*
X129429714Y-104815238D01*
X129524952Y-104910476D01*
X129620190Y-104958095D01*
X141548761Y-106655714D02*
X141548761Y-107465238D01*
X141596380Y-107560476D01*
X141644000Y-107608095D01*
X141739238Y-107655714D01*
X141882095Y-107655714D01*
X141977333Y-107608095D01*
X141548761Y-107274761D02*
X141644000Y-107322380D01*
X141834476Y-107322380D01*
X141929714Y-107274761D01*
X141977333Y-107227142D01*
X142024952Y-107131904D01*
X142024952Y-106846190D01*
X141977333Y-106750952D01*
X141929714Y-106703333D01*
X141834476Y-106655714D01*
X141644000Y-106655714D01*
X141548761Y-106703333D01*
X141072571Y-107322380D02*
X141072571Y-106655714D01*
X141072571Y-106322380D02*
X141120190Y-106370000D01*
X141072571Y-106417619D01*
X141024952Y-106370000D01*
X141072571Y-106322380D01*
X141072571Y-106417619D01*
X140739238Y-106655714D02*
X140358285Y-106655714D01*
X140596380Y-106322380D02*
X140596380Y-107179523D01*
X140548761Y-107274761D01*
X140453523Y-107322380D01*
X140358285Y-107322380D01*
X140024952Y-107322380D02*
X140024952Y-106322380D01*
X139596380Y-107322380D02*
X139596380Y-106798571D01*
X139644000Y-106703333D01*
X139739238Y-106655714D01*
X139882095Y-106655714D01*
X139977333Y-106703333D01*
X140024952Y-106750952D01*
X138691619Y-106655714D02*
X138691619Y-107322380D01*
X139120190Y-106655714D02*
X139120190Y-107179523D01*
X139072571Y-107274761D01*
X138977333Y-107322380D01*
X138834476Y-107322380D01*
X138739238Y-107274761D01*
X138691619Y-107227142D01*
X138215428Y-107322380D02*
X138215428Y-106322380D01*
X138215428Y-106703333D02*
X138120190Y-106655714D01*
X137929714Y-106655714D01*
X137834476Y-106703333D01*
X137786857Y-106750952D01*
X137739238Y-106846190D01*
X137739238Y-107131904D01*
X137786857Y-107227142D01*
X137834476Y-107274761D01*
X137929714Y-107322380D01*
X138120190Y-107322380D01*
X138215428Y-107274761D01*
X137310666Y-107227142D02*
X137263047Y-107274761D01*
X137310666Y-107322380D01*
X137358285Y-107274761D01*
X137310666Y-107227142D01*
X137310666Y-107322380D01*
X136405904Y-107274761D02*
X136501142Y-107322380D01*
X136691619Y-107322380D01*
X136786857Y-107274761D01*
X136834476Y-107227142D01*
X136882095Y-107131904D01*
X136882095Y-106846190D01*
X136834476Y-106750952D01*
X136786857Y-106703333D01*
X136691619Y-106655714D01*
X136501142Y-106655714D01*
X136405904Y-106703333D01*
X135834476Y-107322380D02*
X135929714Y-107274761D01*
X135977333Y-107227142D01*
X136024952Y-107131904D01*
X136024952Y-106846190D01*
X135977333Y-106750952D01*
X135929714Y-106703333D01*
X135834476Y-106655714D01*
X135691619Y-106655714D01*
X135596380Y-106703333D01*
X135548761Y-106750952D01*
X135501142Y-106846190D01*
X135501142Y-107131904D01*
X135548761Y-107227142D01*
X135596380Y-107274761D01*
X135691619Y-107322380D01*
X135834476Y-107322380D01*
X135072571Y-107322380D02*
X135072571Y-106655714D01*
X135072571Y-106750952D02*
X135024952Y-106703333D01*
X134929714Y-106655714D01*
X134786857Y-106655714D01*
X134691619Y-106703333D01*
X134644000Y-106798571D01*
X134644000Y-107322380D01*
X134644000Y-106798571D02*
X134596380Y-106703333D01*
X134501142Y-106655714D01*
X134358285Y-106655714D01*
X134263047Y-106703333D01*
X134215428Y-106798571D01*
X134215428Y-107322380D01*
X133024952Y-106274761D02*
X133882095Y-107560476D01*
X132834476Y-106655714D02*
X132453523Y-106655714D01*
X132691619Y-106322380D02*
X132691619Y-107179523D01*
X132644000Y-107274761D01*
X132548761Y-107322380D01*
X132453523Y-107322380D01*
X131739238Y-107274761D02*
X131834476Y-107322380D01*
X132024952Y-107322380D01*
X132120190Y-107274761D01*
X132167809Y-107179523D01*
X132167809Y-106798571D01*
X132120190Y-106703333D01*
X132024952Y-106655714D01*
X131834476Y-106655714D01*
X131739238Y-106703333D01*
X131691619Y-106798571D01*
X131691619Y-106893809D01*
X132167809Y-106989047D01*
X131263047Y-107322380D02*
X131263047Y-106322380D01*
X131263047Y-106703333D02*
X131167809Y-106655714D01*
X130977333Y-106655714D01*
X130882095Y-106703333D01*
X130834476Y-106750952D01*
X130786857Y-106846190D01*
X130786857Y-107131904D01*
X130834476Y-107227142D01*
X130882095Y-107274761D01*
X130977333Y-107322380D01*
X131167809Y-107322380D01*
X131263047Y-107274761D01*
X130215428Y-107322380D02*
X130310666Y-107274761D01*
X130358285Y-107179523D01*
X130358285Y-106322380D01*
X167814000Y-105672380D02*
X168290190Y-105672380D01*
X168290190Y-104672380D01*
X167480666Y-105672380D02*
X167480666Y-105005714D01*
X167480666Y-104672380D02*
X167528285Y-104720000D01*
X167480666Y-104767619D01*
X167433047Y-104720000D01*
X167480666Y-104672380D01*
X167480666Y-104767619D01*
X166575904Y-105624761D02*
X166671142Y-105672380D01*
X166861619Y-105672380D01*
X166956857Y-105624761D01*
X167004476Y-105577142D01*
X167052095Y-105481904D01*
X167052095Y-105196190D01*
X167004476Y-105100952D01*
X166956857Y-105053333D01*
X166861619Y-105005714D01*
X166671142Y-105005714D01*
X166575904Y-105053333D01*
X165766380Y-105624761D02*
X165861619Y-105672380D01*
X166052095Y-105672380D01*
X166147333Y-105624761D01*
X166194952Y-105529523D01*
X166194952Y-105148571D01*
X166147333Y-105053333D01*
X166052095Y-105005714D01*
X165861619Y-105005714D01*
X165766380Y-105053333D01*
X165718761Y-105148571D01*
X165718761Y-105243809D01*
X166194952Y-105339047D01*
X165290190Y-105005714D02*
X165290190Y-105672380D01*
X165290190Y-105100952D02*
X165242571Y-105053333D01*
X165147333Y-105005714D01*
X165004476Y-105005714D01*
X164909238Y-105053333D01*
X164861619Y-105148571D01*
X164861619Y-105672380D01*
X164433047Y-105624761D02*
X164337809Y-105672380D01*
X164147333Y-105672380D01*
X164052095Y-105624761D01*
X164004476Y-105529523D01*
X164004476Y-105481904D01*
X164052095Y-105386666D01*
X164147333Y-105339047D01*
X164290190Y-105339047D01*
X164385428Y-105291428D01*
X164433047Y-105196190D01*
X164433047Y-105148571D01*
X164385428Y-105053333D01*
X164290190Y-105005714D01*
X164147333Y-105005714D01*
X164052095Y-105053333D01*
X163194952Y-105624761D02*
X163290190Y-105672380D01*
X163480666Y-105672380D01*
X163575904Y-105624761D01*
X163623523Y-105529523D01*
X163623523Y-105148571D01*
X163575904Y-105053333D01*
X163480666Y-105005714D01*
X163290190Y-105005714D01*
X163194952Y-105053333D01*
X163147333Y-105148571D01*
X163147333Y-105243809D01*
X163623523Y-105339047D01*
X162290190Y-105672380D02*
X162290190Y-104672380D01*
X162290190Y-105624761D02*
X162385428Y-105672380D01*
X162575904Y-105672380D01*
X162671142Y-105624761D01*
X162718761Y-105577142D01*
X162766380Y-105481904D01*
X162766380Y-105196190D01*
X162718761Y-105100952D01*
X162671142Y-105053333D01*
X162575904Y-105005714D01*
X162385428Y-105005714D01*
X162290190Y-105053333D01*
X160623523Y-105005714D02*
X160623523Y-105672380D01*
X161052095Y-105005714D02*
X161052095Y-105529523D01*
X161004476Y-105624761D01*
X160909238Y-105672380D01*
X160766380Y-105672380D01*
X160671142Y-105624761D01*
X160623523Y-105577142D01*
X160147333Y-105005714D02*
X160147333Y-105672380D01*
X160147333Y-105100952D02*
X160099714Y-105053333D01*
X160004476Y-105005714D01*
X159861619Y-105005714D01*
X159766380Y-105053333D01*
X159718761Y-105148571D01*
X159718761Y-105672380D01*
X158814000Y-105672380D02*
X158814000Y-104672380D01*
X158814000Y-105624761D02*
X158909238Y-105672380D01*
X159099714Y-105672380D01*
X159194952Y-105624761D01*
X159242571Y-105577142D01*
X159290190Y-105481904D01*
X159290190Y-105196190D01*
X159242571Y-105100952D01*
X159194952Y-105053333D01*
X159099714Y-105005714D01*
X158909238Y-105005714D01*
X158814000Y-105053333D01*
X157956857Y-105624761D02*
X158052095Y-105672380D01*
X158242571Y-105672380D01*
X158337809Y-105624761D01*
X158385428Y-105529523D01*
X158385428Y-105148571D01*
X158337809Y-105053333D01*
X158242571Y-105005714D01*
X158052095Y-105005714D01*
X157956857Y-105053333D01*
X157909238Y-105148571D01*
X157909238Y-105243809D01*
X158385428Y-105339047D01*
X157480666Y-105672380D02*
X157480666Y-105005714D01*
X157480666Y-105196190D02*
X157433047Y-105100952D01*
X157385428Y-105053333D01*
X157290190Y-105005714D01*
X157194952Y-105005714D01*
X167766380Y-107227142D02*
X167814000Y-107274761D01*
X167956857Y-107322380D01*
X168052095Y-107322380D01*
X168194952Y-107274761D01*
X168290190Y-107179523D01*
X168337809Y-107084285D01*
X168385428Y-106893809D01*
X168385428Y-106750952D01*
X168337809Y-106560476D01*
X168290190Y-106465238D01*
X168194952Y-106370000D01*
X168052095Y-106322380D01*
X167956857Y-106322380D01*
X167814000Y-106370000D01*
X167766380Y-106417619D01*
X167337809Y-106798571D02*
X167004476Y-106798571D01*
X166861619Y-107322380D02*
X167337809Y-107322380D01*
X167337809Y-106322380D01*
X166861619Y-106322380D01*
X165861619Y-107322380D02*
X166194952Y-106846190D01*
X166433047Y-107322380D02*
X166433047Y-106322380D01*
X166052095Y-106322380D01*
X165956857Y-106370000D01*
X165909238Y-106417619D01*
X165861619Y-106512857D01*
X165861619Y-106655714D01*
X165909238Y-106750952D01*
X165956857Y-106798571D01*
X166052095Y-106846190D01*
X166433047Y-106846190D01*
X165433047Y-107322380D02*
X165433047Y-106322380D01*
X164861619Y-107322380D01*
X164861619Y-106322380D01*
X163433047Y-106322380D02*
X163242571Y-106322380D01*
X163147333Y-106370000D01*
X163052095Y-106465238D01*
X163004476Y-106655714D01*
X163004476Y-106989047D01*
X163052095Y-107179523D01*
X163147333Y-107274761D01*
X163242571Y-107322380D01*
X163433047Y-107322380D01*
X163528285Y-107274761D01*
X163623523Y-107179523D01*
X163671142Y-106989047D01*
X163671142Y-106655714D01*
X163623523Y-106465238D01*
X163528285Y-106370000D01*
X163433047Y-106322380D01*
X162575904Y-107322380D02*
X162575904Y-106322380D01*
X162575904Y-106798571D02*
X162004476Y-106798571D01*
X162004476Y-107322380D02*
X162004476Y-106322380D01*
X161052095Y-107322380D02*
X161528285Y-107322380D01*
X161528285Y-106322380D01*
X160052095Y-106655714D02*
X159814000Y-107322380D01*
X159575904Y-106655714D01*
X158671142Y-107322380D02*
X159242571Y-107322380D01*
X158956857Y-107322380D02*
X158956857Y-106322380D01*
X159052095Y-106465238D01*
X159147333Y-106560476D01*
X159242571Y-106608095D01*
X158242571Y-107227142D02*
X158194952Y-107274761D01*
X158242571Y-107322380D01*
X158290190Y-107274761D01*
X158242571Y-107227142D01*
X158242571Y-107322380D01*
X157814000Y-106417619D02*
X157766380Y-106370000D01*
X157671142Y-106322380D01*
X157433047Y-106322380D01*
X157337809Y-106370000D01*
X157290190Y-106417619D01*
X157242571Y-106512857D01*
X157242571Y-106608095D01*
X157290190Y-106750952D01*
X157861619Y-107322380D01*
X157242571Y-107322380D01*
D11*
%TO.C,sinclair_title*%
G36*
X155671000Y-64940000D02*
G01*
X155421000Y-64940000D01*
X155421000Y-65190000D01*
X155671000Y-65190000D01*
X155671000Y-64940000D01*
G37*
X155671000Y-64940000D02*
X155421000Y-64940000D01*
X155421000Y-65190000D01*
X155671000Y-65190000D01*
X155671000Y-64940000D01*
G36*
X137671000Y-64690000D02*
G01*
X137421000Y-64690000D01*
X137421000Y-64940000D01*
X137671000Y-64940000D01*
X137671000Y-64690000D01*
G37*
X137671000Y-64690000D02*
X137421000Y-64690000D01*
X137421000Y-64940000D01*
X137671000Y-64940000D01*
X137671000Y-64690000D01*
G36*
X138921000Y-64690000D02*
G01*
X138671000Y-64690000D01*
X138671000Y-64940000D01*
X138921000Y-64940000D01*
X138921000Y-64690000D01*
G37*
X138921000Y-64690000D02*
X138671000Y-64690000D01*
X138671000Y-64940000D01*
X138921000Y-64940000D01*
X138921000Y-64690000D01*
G36*
X139671000Y-64690000D02*
G01*
X139421000Y-64690000D01*
X139421000Y-64940000D01*
X139671000Y-64940000D01*
X139671000Y-64690000D01*
G37*
X139671000Y-64690000D02*
X139421000Y-64690000D01*
X139421000Y-64940000D01*
X139671000Y-64940000D01*
X139671000Y-64690000D01*
G36*
X139921000Y-64690000D02*
G01*
X139671000Y-64690000D01*
X139671000Y-64940000D01*
X139921000Y-64940000D01*
X139921000Y-64690000D01*
G37*
X139921000Y-64690000D02*
X139671000Y-64690000D01*
X139671000Y-64940000D01*
X139921000Y-64940000D01*
X139921000Y-64690000D01*
G36*
X140171000Y-64690000D02*
G01*
X139921000Y-64690000D01*
X139921000Y-64940000D01*
X140171000Y-64940000D01*
X140171000Y-64690000D01*
G37*
X140171000Y-64690000D02*
X139921000Y-64690000D01*
X139921000Y-64940000D01*
X140171000Y-64940000D01*
X140171000Y-64690000D01*
G36*
X140421000Y-64690000D02*
G01*
X140171000Y-64690000D01*
X140171000Y-64940000D01*
X140421000Y-64940000D01*
X140421000Y-64690000D01*
G37*
X140421000Y-64690000D02*
X140171000Y-64690000D01*
X140171000Y-64940000D01*
X140421000Y-64940000D01*
X140421000Y-64690000D01*
G36*
X141671000Y-64690000D02*
G01*
X141421000Y-64690000D01*
X141421000Y-64940000D01*
X141671000Y-64940000D01*
X141671000Y-64690000D01*
G37*
X141671000Y-64690000D02*
X141421000Y-64690000D01*
X141421000Y-64940000D01*
X141671000Y-64940000D01*
X141671000Y-64690000D01*
G36*
X144171000Y-64690000D02*
G01*
X143921000Y-64690000D01*
X143921000Y-64940000D01*
X144171000Y-64940000D01*
X144171000Y-64690000D01*
G37*
X144171000Y-64690000D02*
X143921000Y-64690000D01*
X143921000Y-64940000D01*
X144171000Y-64940000D01*
X144171000Y-64690000D01*
G36*
X144671000Y-64690000D02*
G01*
X144421000Y-64690000D01*
X144421000Y-64940000D01*
X144671000Y-64940000D01*
X144671000Y-64690000D01*
G37*
X144671000Y-64690000D02*
X144421000Y-64690000D01*
X144421000Y-64940000D01*
X144671000Y-64940000D01*
X144671000Y-64690000D01*
G36*
X145171000Y-64690000D02*
G01*
X144921000Y-64690000D01*
X144921000Y-64940000D01*
X145171000Y-64940000D01*
X145171000Y-64690000D01*
G37*
X145171000Y-64690000D02*
X144921000Y-64690000D01*
X144921000Y-64940000D01*
X145171000Y-64940000D01*
X145171000Y-64690000D01*
G36*
X146171000Y-64690000D02*
G01*
X145921000Y-64690000D01*
X145921000Y-64940000D01*
X146171000Y-64940000D01*
X146171000Y-64690000D01*
G37*
X146171000Y-64690000D02*
X145921000Y-64690000D01*
X145921000Y-64940000D01*
X146171000Y-64940000D01*
X146171000Y-64690000D01*
G36*
X146421000Y-64690000D02*
G01*
X146171000Y-64690000D01*
X146171000Y-64940000D01*
X146421000Y-64940000D01*
X146421000Y-64690000D01*
G37*
X146421000Y-64690000D02*
X146171000Y-64690000D01*
X146171000Y-64940000D01*
X146421000Y-64940000D01*
X146421000Y-64690000D01*
G36*
X146671000Y-64690000D02*
G01*
X146421000Y-64690000D01*
X146421000Y-64940000D01*
X146671000Y-64940000D01*
X146671000Y-64690000D01*
G37*
X146671000Y-64690000D02*
X146421000Y-64690000D01*
X146421000Y-64940000D01*
X146671000Y-64940000D01*
X146671000Y-64690000D01*
G36*
X148421000Y-64690000D02*
G01*
X148171000Y-64690000D01*
X148171000Y-64940000D01*
X148421000Y-64940000D01*
X148421000Y-64690000D01*
G37*
X148421000Y-64690000D02*
X148171000Y-64690000D01*
X148171000Y-64940000D01*
X148421000Y-64940000D01*
X148421000Y-64690000D01*
G36*
X149421000Y-64690000D02*
G01*
X149171000Y-64690000D01*
X149171000Y-64940000D01*
X149421000Y-64940000D01*
X149421000Y-64690000D01*
G37*
X149421000Y-64690000D02*
X149171000Y-64690000D01*
X149171000Y-64940000D01*
X149421000Y-64940000D01*
X149421000Y-64690000D01*
G36*
X149671000Y-64690000D02*
G01*
X149421000Y-64690000D01*
X149421000Y-64940000D01*
X149671000Y-64940000D01*
X149671000Y-64690000D01*
G37*
X149671000Y-64690000D02*
X149421000Y-64690000D01*
X149421000Y-64940000D01*
X149671000Y-64940000D01*
X149671000Y-64690000D01*
G36*
X151171000Y-64690000D02*
G01*
X150921000Y-64690000D01*
X150921000Y-64940000D01*
X151171000Y-64940000D01*
X151171000Y-64690000D01*
G37*
X151171000Y-64690000D02*
X150921000Y-64690000D01*
X150921000Y-64940000D01*
X151171000Y-64940000D01*
X151171000Y-64690000D01*
G36*
X151421000Y-64690000D02*
G01*
X151171000Y-64690000D01*
X151171000Y-64940000D01*
X151421000Y-64940000D01*
X151421000Y-64690000D01*
G37*
X151421000Y-64690000D02*
X151171000Y-64690000D01*
X151171000Y-64940000D01*
X151421000Y-64940000D01*
X151421000Y-64690000D01*
G36*
X151671000Y-64690000D02*
G01*
X151421000Y-64690000D01*
X151421000Y-64940000D01*
X151671000Y-64940000D01*
X151671000Y-64690000D01*
G37*
X151671000Y-64690000D02*
X151421000Y-64690000D01*
X151421000Y-64940000D01*
X151671000Y-64940000D01*
X151671000Y-64690000D01*
G36*
X152921000Y-64690000D02*
G01*
X152671000Y-64690000D01*
X152671000Y-64940000D01*
X152921000Y-64940000D01*
X152921000Y-64690000D01*
G37*
X152921000Y-64690000D02*
X152671000Y-64690000D01*
X152671000Y-64940000D01*
X152921000Y-64940000D01*
X152921000Y-64690000D01*
G36*
X153171000Y-64690000D02*
G01*
X152921000Y-64690000D01*
X152921000Y-64940000D01*
X153171000Y-64940000D01*
X153171000Y-64690000D01*
G37*
X153171000Y-64690000D02*
X152921000Y-64690000D01*
X152921000Y-64940000D01*
X153171000Y-64940000D01*
X153171000Y-64690000D01*
G36*
X153421000Y-64690000D02*
G01*
X153171000Y-64690000D01*
X153171000Y-64940000D01*
X153421000Y-64940000D01*
X153421000Y-64690000D01*
G37*
X153421000Y-64690000D02*
X153171000Y-64690000D01*
X153171000Y-64940000D01*
X153421000Y-64940000D01*
X153421000Y-64690000D01*
G36*
X153671000Y-64690000D02*
G01*
X153421000Y-64690000D01*
X153421000Y-64940000D01*
X153671000Y-64940000D01*
X153671000Y-64690000D01*
G37*
X153671000Y-64690000D02*
X153421000Y-64690000D01*
X153421000Y-64940000D01*
X153671000Y-64940000D01*
X153671000Y-64690000D01*
G36*
X155671000Y-64690000D02*
G01*
X155421000Y-64690000D01*
X155421000Y-64940000D01*
X155671000Y-64940000D01*
X155671000Y-64690000D01*
G37*
X155671000Y-64690000D02*
X155421000Y-64690000D01*
X155421000Y-64940000D01*
X155671000Y-64940000D01*
X155671000Y-64690000D01*
G36*
X156421000Y-64690000D02*
G01*
X156171000Y-64690000D01*
X156171000Y-64940000D01*
X156421000Y-64940000D01*
X156421000Y-64690000D01*
G37*
X156421000Y-64690000D02*
X156171000Y-64690000D01*
X156171000Y-64940000D01*
X156421000Y-64940000D01*
X156421000Y-64690000D01*
G36*
X156671000Y-64690000D02*
G01*
X156421000Y-64690000D01*
X156421000Y-64940000D01*
X156671000Y-64940000D01*
X156671000Y-64690000D01*
G37*
X156671000Y-64690000D02*
X156421000Y-64690000D01*
X156421000Y-64940000D01*
X156671000Y-64940000D01*
X156671000Y-64690000D01*
G36*
X156921000Y-64690000D02*
G01*
X156671000Y-64690000D01*
X156671000Y-64940000D01*
X156921000Y-64940000D01*
X156921000Y-64690000D01*
G37*
X156921000Y-64690000D02*
X156671000Y-64690000D01*
X156671000Y-64940000D01*
X156921000Y-64940000D01*
X156921000Y-64690000D01*
G36*
X157171000Y-64690000D02*
G01*
X156921000Y-64690000D01*
X156921000Y-64940000D01*
X157171000Y-64940000D01*
X157171000Y-64690000D01*
G37*
X157171000Y-64690000D02*
X156921000Y-64690000D01*
X156921000Y-64940000D01*
X157171000Y-64940000D01*
X157171000Y-64690000D01*
G36*
X157921000Y-64690000D02*
G01*
X157671000Y-64690000D01*
X157671000Y-64940000D01*
X157921000Y-64940000D01*
X157921000Y-64690000D01*
G37*
X157921000Y-64690000D02*
X157671000Y-64690000D01*
X157671000Y-64940000D01*
X157921000Y-64940000D01*
X157921000Y-64690000D01*
G36*
X159171000Y-64690000D02*
G01*
X158921000Y-64690000D01*
X158921000Y-64940000D01*
X159171000Y-64940000D01*
X159171000Y-64690000D01*
G37*
X159171000Y-64690000D02*
X158921000Y-64690000D01*
X158921000Y-64940000D01*
X159171000Y-64940000D01*
X159171000Y-64690000D01*
G36*
X159671000Y-64690000D02*
G01*
X159421000Y-64690000D01*
X159421000Y-64940000D01*
X159671000Y-64940000D01*
X159671000Y-64690000D01*
G37*
X159671000Y-64690000D02*
X159421000Y-64690000D01*
X159421000Y-64940000D01*
X159671000Y-64940000D01*
X159671000Y-64690000D01*
G36*
X159921000Y-64690000D02*
G01*
X159671000Y-64690000D01*
X159671000Y-64940000D01*
X159921000Y-64940000D01*
X159921000Y-64690000D01*
G37*
X159921000Y-64690000D02*
X159671000Y-64690000D01*
X159671000Y-64940000D01*
X159921000Y-64940000D01*
X159921000Y-64690000D01*
G36*
X160171000Y-64690000D02*
G01*
X159921000Y-64690000D01*
X159921000Y-64940000D01*
X160171000Y-64940000D01*
X160171000Y-64690000D01*
G37*
X160171000Y-64690000D02*
X159921000Y-64690000D01*
X159921000Y-64940000D01*
X160171000Y-64940000D01*
X160171000Y-64690000D01*
G36*
X160421000Y-64690000D02*
G01*
X160171000Y-64690000D01*
X160171000Y-64940000D01*
X160421000Y-64940000D01*
X160421000Y-64690000D01*
G37*
X160421000Y-64690000D02*
X160171000Y-64690000D01*
X160171000Y-64940000D01*
X160421000Y-64940000D01*
X160421000Y-64690000D01*
G36*
X160671000Y-64690000D02*
G01*
X160421000Y-64690000D01*
X160421000Y-64940000D01*
X160671000Y-64940000D01*
X160671000Y-64690000D01*
G37*
X160671000Y-64690000D02*
X160421000Y-64690000D01*
X160421000Y-64940000D01*
X160671000Y-64940000D01*
X160671000Y-64690000D01*
G36*
X160921000Y-64690000D02*
G01*
X160671000Y-64690000D01*
X160671000Y-64940000D01*
X160921000Y-64940000D01*
X160921000Y-64690000D01*
G37*
X160921000Y-64690000D02*
X160671000Y-64690000D01*
X160671000Y-64940000D01*
X160921000Y-64940000D01*
X160921000Y-64690000D01*
G36*
X137921000Y-64440000D02*
G01*
X137671000Y-64440000D01*
X137671000Y-64690000D01*
X137921000Y-64690000D01*
X137921000Y-64440000D01*
G37*
X137921000Y-64440000D02*
X137671000Y-64440000D01*
X137671000Y-64690000D01*
X137921000Y-64690000D01*
X137921000Y-64440000D01*
G36*
X138921000Y-64440000D02*
G01*
X138671000Y-64440000D01*
X138671000Y-64690000D01*
X138921000Y-64690000D01*
X138921000Y-64440000D01*
G37*
X138921000Y-64440000D02*
X138671000Y-64440000D01*
X138671000Y-64690000D01*
X138921000Y-64690000D01*
X138921000Y-64440000D01*
G36*
X139421000Y-64440000D02*
G01*
X139171000Y-64440000D01*
X139171000Y-64690000D01*
X139421000Y-64690000D01*
X139421000Y-64440000D01*
G37*
X139421000Y-64440000D02*
X139171000Y-64440000D01*
X139171000Y-64690000D01*
X139421000Y-64690000D01*
X139421000Y-64440000D01*
G36*
X140671000Y-64440000D02*
G01*
X140421000Y-64440000D01*
X140421000Y-64690000D01*
X140671000Y-64690000D01*
X140671000Y-64440000D01*
G37*
X140671000Y-64440000D02*
X140421000Y-64440000D01*
X140421000Y-64690000D01*
X140671000Y-64690000D01*
X140671000Y-64440000D01*
G36*
X141171000Y-64440000D02*
G01*
X140921000Y-64440000D01*
X140921000Y-64690000D01*
X141171000Y-64690000D01*
X141171000Y-64440000D01*
G37*
X141171000Y-64440000D02*
X140921000Y-64440000D01*
X140921000Y-64690000D01*
X141171000Y-64690000D01*
X141171000Y-64440000D01*
G36*
X141421000Y-64440000D02*
G01*
X141171000Y-64440000D01*
X141171000Y-64690000D01*
X141421000Y-64690000D01*
X141421000Y-64440000D01*
G37*
X141421000Y-64440000D02*
X141171000Y-64440000D01*
X141171000Y-64690000D01*
X141421000Y-64690000D01*
X141421000Y-64440000D01*
G36*
X141671000Y-64440000D02*
G01*
X141421000Y-64440000D01*
X141421000Y-64690000D01*
X141671000Y-64690000D01*
X141671000Y-64440000D01*
G37*
X141671000Y-64440000D02*
X141421000Y-64440000D01*
X141421000Y-64690000D01*
X141671000Y-64690000D01*
X141671000Y-64440000D01*
G36*
X141921000Y-64440000D02*
G01*
X141671000Y-64440000D01*
X141671000Y-64690000D01*
X141921000Y-64690000D01*
X141921000Y-64440000D01*
G37*
X141921000Y-64440000D02*
X141671000Y-64440000D01*
X141671000Y-64690000D01*
X141921000Y-64690000D01*
X141921000Y-64440000D01*
G36*
X142171000Y-64440000D02*
G01*
X141921000Y-64440000D01*
X141921000Y-64690000D01*
X142171000Y-64690000D01*
X142171000Y-64440000D01*
G37*
X142171000Y-64440000D02*
X141921000Y-64440000D01*
X141921000Y-64690000D01*
X142171000Y-64690000D01*
X142171000Y-64440000D01*
G36*
X142421000Y-64440000D02*
G01*
X142171000Y-64440000D01*
X142171000Y-64690000D01*
X142421000Y-64690000D01*
X142421000Y-64440000D01*
G37*
X142421000Y-64440000D02*
X142171000Y-64440000D01*
X142171000Y-64690000D01*
X142421000Y-64690000D01*
X142421000Y-64440000D01*
G36*
X144171000Y-64440000D02*
G01*
X143921000Y-64440000D01*
X143921000Y-64690000D01*
X144171000Y-64690000D01*
X144171000Y-64440000D01*
G37*
X144171000Y-64440000D02*
X143921000Y-64440000D01*
X143921000Y-64690000D01*
X144171000Y-64690000D01*
X144171000Y-64440000D01*
G36*
X144671000Y-64440000D02*
G01*
X144421000Y-64440000D01*
X144421000Y-64690000D01*
X144671000Y-64690000D01*
X144671000Y-64440000D01*
G37*
X144671000Y-64440000D02*
X144421000Y-64440000D01*
X144421000Y-64690000D01*
X144671000Y-64690000D01*
X144671000Y-64440000D01*
G36*
X145171000Y-64440000D02*
G01*
X144921000Y-64440000D01*
X144921000Y-64690000D01*
X145171000Y-64690000D01*
X145171000Y-64440000D01*
G37*
X145171000Y-64440000D02*
X144921000Y-64440000D01*
X144921000Y-64690000D01*
X145171000Y-64690000D01*
X145171000Y-64440000D01*
G36*
X145921000Y-64440000D02*
G01*
X145671000Y-64440000D01*
X145671000Y-64690000D01*
X145921000Y-64690000D01*
X145921000Y-64440000D01*
G37*
X145921000Y-64440000D02*
X145671000Y-64440000D01*
X145671000Y-64690000D01*
X145921000Y-64690000D01*
X145921000Y-64440000D01*
G36*
X146921000Y-64440000D02*
G01*
X146671000Y-64440000D01*
X146671000Y-64690000D01*
X146921000Y-64690000D01*
X146921000Y-64440000D01*
G37*
X146921000Y-64440000D02*
X146671000Y-64440000D01*
X146671000Y-64690000D01*
X146921000Y-64690000D01*
X146921000Y-64440000D01*
G36*
X148421000Y-64440000D02*
G01*
X148171000Y-64440000D01*
X148171000Y-64690000D01*
X148421000Y-64690000D01*
X148421000Y-64440000D01*
G37*
X148421000Y-64440000D02*
X148171000Y-64440000D01*
X148171000Y-64690000D01*
X148421000Y-64690000D01*
X148421000Y-64440000D01*
G36*
X149921000Y-64440000D02*
G01*
X149671000Y-64440000D01*
X149671000Y-64690000D01*
X149921000Y-64690000D01*
X149921000Y-64440000D01*
G37*
X149921000Y-64440000D02*
X149671000Y-64440000D01*
X149671000Y-64690000D01*
X149921000Y-64690000D01*
X149921000Y-64440000D01*
G36*
X151921000Y-64440000D02*
G01*
X151671000Y-64440000D01*
X151671000Y-64690000D01*
X151921000Y-64690000D01*
X151921000Y-64440000D01*
G37*
X151921000Y-64440000D02*
X151671000Y-64440000D01*
X151671000Y-64690000D01*
X151921000Y-64690000D01*
X151921000Y-64440000D01*
G36*
X153921000Y-64440000D02*
G01*
X153671000Y-64440000D01*
X153671000Y-64690000D01*
X153921000Y-64690000D01*
X153921000Y-64440000D01*
G37*
X153921000Y-64440000D02*
X153671000Y-64440000D01*
X153671000Y-64690000D01*
X153921000Y-64690000D01*
X153921000Y-64440000D01*
G36*
X154921000Y-64440000D02*
G01*
X154671000Y-64440000D01*
X154671000Y-64690000D01*
X154921000Y-64690000D01*
X154921000Y-64440000D01*
G37*
X154921000Y-64440000D02*
X154671000Y-64440000D01*
X154671000Y-64690000D01*
X154921000Y-64690000D01*
X154921000Y-64440000D01*
G36*
X155171000Y-64440000D02*
G01*
X154921000Y-64440000D01*
X154921000Y-64690000D01*
X155171000Y-64690000D01*
X155171000Y-64440000D01*
G37*
X155171000Y-64440000D02*
X154921000Y-64440000D01*
X154921000Y-64690000D01*
X155171000Y-64690000D01*
X155171000Y-64440000D01*
G36*
X155421000Y-64440000D02*
G01*
X155171000Y-64440000D01*
X155171000Y-64690000D01*
X155421000Y-64690000D01*
X155421000Y-64440000D01*
G37*
X155421000Y-64440000D02*
X155171000Y-64440000D01*
X155171000Y-64690000D01*
X155421000Y-64690000D01*
X155421000Y-64440000D01*
G36*
X155671000Y-64440000D02*
G01*
X155421000Y-64440000D01*
X155421000Y-64690000D01*
X155671000Y-64690000D01*
X155671000Y-64440000D01*
G37*
X155671000Y-64440000D02*
X155421000Y-64440000D01*
X155421000Y-64690000D01*
X155671000Y-64690000D01*
X155671000Y-64440000D01*
G36*
X156171000Y-64440000D02*
G01*
X155921000Y-64440000D01*
X155921000Y-64690000D01*
X156171000Y-64690000D01*
X156171000Y-64440000D01*
G37*
X156171000Y-64440000D02*
X155921000Y-64440000D01*
X155921000Y-64690000D01*
X156171000Y-64690000D01*
X156171000Y-64440000D01*
G36*
X157421000Y-64440000D02*
G01*
X157171000Y-64440000D01*
X157171000Y-64690000D01*
X157421000Y-64690000D01*
X157421000Y-64440000D01*
G37*
X157421000Y-64440000D02*
X157171000Y-64440000D01*
X157171000Y-64690000D01*
X157421000Y-64690000D01*
X157421000Y-64440000D01*
G36*
X158171000Y-64440000D02*
G01*
X157921000Y-64440000D01*
X157921000Y-64690000D01*
X158171000Y-64690000D01*
X158171000Y-64440000D01*
G37*
X158171000Y-64440000D02*
X157921000Y-64440000D01*
X157921000Y-64690000D01*
X158171000Y-64690000D01*
X158171000Y-64440000D01*
G36*
X158921000Y-64440000D02*
G01*
X158671000Y-64440000D01*
X158671000Y-64690000D01*
X158921000Y-64690000D01*
X158921000Y-64440000D01*
G37*
X158921000Y-64440000D02*
X158671000Y-64440000D01*
X158671000Y-64690000D01*
X158921000Y-64690000D01*
X158921000Y-64440000D01*
G36*
X160671000Y-64440000D02*
G01*
X160421000Y-64440000D01*
X160421000Y-64690000D01*
X160671000Y-64690000D01*
X160671000Y-64440000D01*
G37*
X160671000Y-64440000D02*
X160421000Y-64440000D01*
X160421000Y-64690000D01*
X160671000Y-64690000D01*
X160671000Y-64440000D01*
G36*
X138171000Y-64190000D02*
G01*
X137921000Y-64190000D01*
X137921000Y-64440000D01*
X138171000Y-64440000D01*
X138171000Y-64190000D01*
G37*
X138171000Y-64190000D02*
X137921000Y-64190000D01*
X137921000Y-64440000D01*
X138171000Y-64440000D01*
X138171000Y-64190000D01*
G36*
X138921000Y-64190000D02*
G01*
X138671000Y-64190000D01*
X138671000Y-64440000D01*
X138921000Y-64440000D01*
X138921000Y-64190000D01*
G37*
X138921000Y-64190000D02*
X138671000Y-64190000D01*
X138671000Y-64440000D01*
X138921000Y-64440000D01*
X138921000Y-64190000D01*
G36*
X139421000Y-64190000D02*
G01*
X139171000Y-64190000D01*
X139171000Y-64440000D01*
X139421000Y-64440000D01*
X139421000Y-64190000D01*
G37*
X139421000Y-64190000D02*
X139171000Y-64190000D01*
X139171000Y-64440000D01*
X139421000Y-64440000D01*
X139421000Y-64190000D01*
G36*
X140671000Y-64190000D02*
G01*
X140421000Y-64190000D01*
X140421000Y-64440000D01*
X140671000Y-64440000D01*
X140671000Y-64190000D01*
G37*
X140671000Y-64190000D02*
X140421000Y-64190000D01*
X140421000Y-64440000D01*
X140671000Y-64440000D01*
X140671000Y-64190000D01*
G36*
X141671000Y-64190000D02*
G01*
X141421000Y-64190000D01*
X141421000Y-64440000D01*
X141671000Y-64440000D01*
X141671000Y-64190000D01*
G37*
X141671000Y-64190000D02*
X141421000Y-64190000D01*
X141421000Y-64440000D01*
X141671000Y-64440000D01*
X141671000Y-64190000D01*
G36*
X142421000Y-64190000D02*
G01*
X142171000Y-64190000D01*
X142171000Y-64440000D01*
X142421000Y-64440000D01*
X142421000Y-64190000D01*
G37*
X142421000Y-64190000D02*
X142171000Y-64190000D01*
X142171000Y-64440000D01*
X142421000Y-64440000D01*
X142421000Y-64190000D01*
G36*
X144171000Y-64190000D02*
G01*
X143921000Y-64190000D01*
X143921000Y-64440000D01*
X144171000Y-64440000D01*
X144171000Y-64190000D01*
G37*
X144171000Y-64190000D02*
X143921000Y-64190000D01*
X143921000Y-64440000D01*
X144171000Y-64440000D01*
X144171000Y-64190000D01*
G36*
X144671000Y-64190000D02*
G01*
X144421000Y-64190000D01*
X144421000Y-64440000D01*
X144671000Y-64440000D01*
X144671000Y-64190000D01*
G37*
X144671000Y-64190000D02*
X144421000Y-64190000D01*
X144421000Y-64440000D01*
X144671000Y-64440000D01*
X144671000Y-64190000D01*
G36*
X145171000Y-64190000D02*
G01*
X144921000Y-64190000D01*
X144921000Y-64440000D01*
X145171000Y-64440000D01*
X145171000Y-64190000D01*
G37*
X145171000Y-64190000D02*
X144921000Y-64190000D01*
X144921000Y-64440000D01*
X145171000Y-64440000D01*
X145171000Y-64190000D01*
G36*
X145921000Y-64190000D02*
G01*
X145671000Y-64190000D01*
X145671000Y-64440000D01*
X145921000Y-64440000D01*
X145921000Y-64190000D01*
G37*
X145921000Y-64190000D02*
X145671000Y-64190000D01*
X145671000Y-64440000D01*
X145921000Y-64440000D01*
X145921000Y-64190000D01*
G36*
X146921000Y-64190000D02*
G01*
X146671000Y-64190000D01*
X146671000Y-64440000D01*
X146921000Y-64440000D01*
X146921000Y-64190000D01*
G37*
X146921000Y-64190000D02*
X146671000Y-64190000D01*
X146671000Y-64440000D01*
X146921000Y-64440000D01*
X146921000Y-64190000D01*
G36*
X148421000Y-64190000D02*
G01*
X148171000Y-64190000D01*
X148171000Y-64440000D01*
X148421000Y-64440000D01*
X148421000Y-64190000D01*
G37*
X148421000Y-64190000D02*
X148171000Y-64190000D01*
X148171000Y-64440000D01*
X148421000Y-64440000D01*
X148421000Y-64190000D01*
G36*
X149921000Y-64190000D02*
G01*
X149671000Y-64190000D01*
X149671000Y-64440000D01*
X149921000Y-64440000D01*
X149921000Y-64190000D01*
G37*
X149921000Y-64190000D02*
X149671000Y-64190000D01*
X149671000Y-64440000D01*
X149921000Y-64440000D01*
X149921000Y-64190000D01*
G36*
X151921000Y-64190000D02*
G01*
X151671000Y-64190000D01*
X151671000Y-64440000D01*
X151921000Y-64440000D01*
X151921000Y-64190000D01*
G37*
X151921000Y-64190000D02*
X151671000Y-64190000D01*
X151671000Y-64440000D01*
X151921000Y-64440000D01*
X151921000Y-64190000D01*
G36*
X153171000Y-64190000D02*
G01*
X152921000Y-64190000D01*
X152921000Y-64440000D01*
X153171000Y-64440000D01*
X153171000Y-64190000D01*
G37*
X153171000Y-64190000D02*
X152921000Y-64190000D01*
X152921000Y-64440000D01*
X153171000Y-64440000D01*
X153171000Y-64190000D01*
G36*
X153421000Y-64190000D02*
G01*
X153171000Y-64190000D01*
X153171000Y-64440000D01*
X153421000Y-64440000D01*
X153421000Y-64190000D01*
G37*
X153421000Y-64190000D02*
X153171000Y-64190000D01*
X153171000Y-64440000D01*
X153421000Y-64440000D01*
X153421000Y-64190000D01*
G36*
X153671000Y-64190000D02*
G01*
X153421000Y-64190000D01*
X153421000Y-64440000D01*
X153671000Y-64440000D01*
X153671000Y-64190000D01*
G37*
X153671000Y-64190000D02*
X153421000Y-64190000D01*
X153421000Y-64440000D01*
X153671000Y-64440000D01*
X153671000Y-64190000D01*
G36*
X153921000Y-64190000D02*
G01*
X153671000Y-64190000D01*
X153671000Y-64440000D01*
X153921000Y-64440000D01*
X153921000Y-64190000D01*
G37*
X153921000Y-64190000D02*
X153671000Y-64190000D01*
X153671000Y-64440000D01*
X153921000Y-64440000D01*
X153921000Y-64190000D01*
G36*
X154671000Y-64190000D02*
G01*
X154421000Y-64190000D01*
X154421000Y-64440000D01*
X154671000Y-64440000D01*
X154671000Y-64190000D01*
G37*
X154671000Y-64190000D02*
X154421000Y-64190000D01*
X154421000Y-64440000D01*
X154671000Y-64440000D01*
X154671000Y-64190000D01*
G36*
X155671000Y-64190000D02*
G01*
X155421000Y-64190000D01*
X155421000Y-64440000D01*
X155671000Y-64440000D01*
X155671000Y-64190000D01*
G37*
X155671000Y-64190000D02*
X155421000Y-64190000D01*
X155421000Y-64440000D01*
X155671000Y-64440000D01*
X155671000Y-64190000D01*
G36*
X156171000Y-64190000D02*
G01*
X155921000Y-64190000D01*
X155921000Y-64440000D01*
X156171000Y-64440000D01*
X156171000Y-64190000D01*
G37*
X156171000Y-64190000D02*
X155921000Y-64190000D01*
X155921000Y-64440000D01*
X156171000Y-64440000D01*
X156171000Y-64190000D01*
G36*
X158421000Y-64190000D02*
G01*
X158171000Y-64190000D01*
X158171000Y-64440000D01*
X158421000Y-64440000D01*
X158421000Y-64190000D01*
G37*
X158421000Y-64190000D02*
X158171000Y-64190000D01*
X158171000Y-64440000D01*
X158421000Y-64440000D01*
X158421000Y-64190000D01*
G36*
X158671000Y-64190000D02*
G01*
X158421000Y-64190000D01*
X158421000Y-64440000D01*
X158671000Y-64440000D01*
X158671000Y-64190000D01*
G37*
X158671000Y-64190000D02*
X158421000Y-64190000D01*
X158421000Y-64440000D01*
X158671000Y-64440000D01*
X158671000Y-64190000D01*
G36*
X160421000Y-64190000D02*
G01*
X160171000Y-64190000D01*
X160171000Y-64440000D01*
X160421000Y-64440000D01*
X160421000Y-64190000D01*
G37*
X160421000Y-64190000D02*
X160171000Y-64190000D01*
X160171000Y-64440000D01*
X160421000Y-64440000D01*
X160421000Y-64190000D01*
G36*
X138421000Y-63940000D02*
G01*
X138171000Y-63940000D01*
X138171000Y-64190000D01*
X138421000Y-64190000D01*
X138421000Y-63940000D01*
G37*
X138421000Y-63940000D02*
X138171000Y-63940000D01*
X138171000Y-64190000D01*
X138421000Y-64190000D01*
X138421000Y-63940000D01*
G36*
X138671000Y-63940000D02*
G01*
X138421000Y-63940000D01*
X138421000Y-64190000D01*
X138671000Y-64190000D01*
X138671000Y-63940000D01*
G37*
X138671000Y-63940000D02*
X138421000Y-63940000D01*
X138421000Y-64190000D01*
X138671000Y-64190000D01*
X138671000Y-63940000D01*
G36*
X138921000Y-63940000D02*
G01*
X138671000Y-63940000D01*
X138671000Y-64190000D01*
X138921000Y-64190000D01*
X138921000Y-63940000D01*
G37*
X138921000Y-63940000D02*
X138671000Y-63940000D01*
X138671000Y-64190000D01*
X138921000Y-64190000D01*
X138921000Y-63940000D01*
G36*
X139671000Y-63940000D02*
G01*
X139421000Y-63940000D01*
X139421000Y-64190000D01*
X139671000Y-64190000D01*
X139671000Y-63940000D01*
G37*
X139671000Y-63940000D02*
X139421000Y-63940000D01*
X139421000Y-64190000D01*
X139671000Y-64190000D01*
X139671000Y-63940000D01*
G36*
X139921000Y-63940000D02*
G01*
X139671000Y-63940000D01*
X139671000Y-64190000D01*
X139921000Y-64190000D01*
X139921000Y-63940000D01*
G37*
X139921000Y-63940000D02*
X139671000Y-63940000D01*
X139671000Y-64190000D01*
X139921000Y-64190000D01*
X139921000Y-63940000D01*
G36*
X140171000Y-63940000D02*
G01*
X139921000Y-63940000D01*
X139921000Y-64190000D01*
X140171000Y-64190000D01*
X140171000Y-63940000D01*
G37*
X140171000Y-63940000D02*
X139921000Y-63940000D01*
X139921000Y-64190000D01*
X140171000Y-64190000D01*
X140171000Y-63940000D01*
G36*
X140421000Y-63940000D02*
G01*
X140171000Y-63940000D01*
X140171000Y-64190000D01*
X140421000Y-64190000D01*
X140421000Y-63940000D01*
G37*
X140421000Y-63940000D02*
X140171000Y-63940000D01*
X140171000Y-64190000D01*
X140421000Y-64190000D01*
X140421000Y-63940000D01*
G36*
X141671000Y-63940000D02*
G01*
X141421000Y-63940000D01*
X141421000Y-64190000D01*
X141671000Y-64190000D01*
X141671000Y-63940000D01*
G37*
X141671000Y-63940000D02*
X141421000Y-63940000D01*
X141421000Y-64190000D01*
X141671000Y-64190000D01*
X141671000Y-63940000D01*
G36*
X142171000Y-63940000D02*
G01*
X141921000Y-63940000D01*
X141921000Y-64190000D01*
X142171000Y-64190000D01*
X142171000Y-63940000D01*
G37*
X142171000Y-63940000D02*
X141921000Y-63940000D01*
X141921000Y-64190000D01*
X142171000Y-64190000D01*
X142171000Y-63940000D01*
G36*
X144171000Y-63940000D02*
G01*
X143921000Y-63940000D01*
X143921000Y-64190000D01*
X144171000Y-64190000D01*
X144171000Y-63940000D01*
G37*
X144171000Y-63940000D02*
X143921000Y-63940000D01*
X143921000Y-64190000D01*
X144171000Y-64190000D01*
X144171000Y-63940000D01*
G36*
X144671000Y-63940000D02*
G01*
X144421000Y-63940000D01*
X144421000Y-64190000D01*
X144671000Y-64190000D01*
X144671000Y-63940000D01*
G37*
X144671000Y-63940000D02*
X144421000Y-63940000D01*
X144421000Y-64190000D01*
X144671000Y-64190000D01*
X144671000Y-63940000D01*
G36*
X145171000Y-63940000D02*
G01*
X144921000Y-63940000D01*
X144921000Y-64190000D01*
X145171000Y-64190000D01*
X145171000Y-63940000D01*
G37*
X145171000Y-63940000D02*
X144921000Y-63940000D01*
X144921000Y-64190000D01*
X145171000Y-64190000D01*
X145171000Y-63940000D01*
G36*
X145921000Y-63940000D02*
G01*
X145671000Y-63940000D01*
X145671000Y-64190000D01*
X145921000Y-64190000D01*
X145921000Y-63940000D01*
G37*
X145921000Y-63940000D02*
X145671000Y-63940000D01*
X145671000Y-64190000D01*
X145921000Y-64190000D01*
X145921000Y-63940000D01*
G36*
X146921000Y-63940000D02*
G01*
X146671000Y-63940000D01*
X146671000Y-64190000D01*
X146921000Y-64190000D01*
X146921000Y-63940000D01*
G37*
X146921000Y-63940000D02*
X146671000Y-63940000D01*
X146671000Y-64190000D01*
X146921000Y-64190000D01*
X146921000Y-63940000D01*
G36*
X148421000Y-63940000D02*
G01*
X148171000Y-63940000D01*
X148171000Y-64190000D01*
X148421000Y-64190000D01*
X148421000Y-63940000D01*
G37*
X148421000Y-63940000D02*
X148171000Y-63940000D01*
X148171000Y-64190000D01*
X148421000Y-64190000D01*
X148421000Y-63940000D01*
G36*
X149921000Y-63940000D02*
G01*
X149671000Y-63940000D01*
X149671000Y-64190000D01*
X149921000Y-64190000D01*
X149921000Y-63940000D01*
G37*
X149921000Y-63940000D02*
X149671000Y-63940000D01*
X149671000Y-64190000D01*
X149921000Y-64190000D01*
X149921000Y-63940000D01*
G36*
X151921000Y-63940000D02*
G01*
X151671000Y-63940000D01*
X151671000Y-64190000D01*
X151921000Y-64190000D01*
X151921000Y-63940000D01*
G37*
X151921000Y-63940000D02*
X151671000Y-63940000D01*
X151671000Y-64190000D01*
X151921000Y-64190000D01*
X151921000Y-63940000D01*
G36*
X152921000Y-63940000D02*
G01*
X152671000Y-63940000D01*
X152671000Y-64190000D01*
X152921000Y-64190000D01*
X152921000Y-63940000D01*
G37*
X152921000Y-63940000D02*
X152671000Y-63940000D01*
X152671000Y-64190000D01*
X152921000Y-64190000D01*
X152921000Y-63940000D01*
G36*
X153921000Y-63940000D02*
G01*
X153671000Y-63940000D01*
X153671000Y-64190000D01*
X153921000Y-64190000D01*
X153921000Y-63940000D01*
G37*
X153921000Y-63940000D02*
X153671000Y-63940000D01*
X153671000Y-64190000D01*
X153921000Y-64190000D01*
X153921000Y-63940000D01*
G36*
X154671000Y-63940000D02*
G01*
X154421000Y-63940000D01*
X154421000Y-64190000D01*
X154671000Y-64190000D01*
X154671000Y-63940000D01*
G37*
X154671000Y-63940000D02*
X154421000Y-63940000D01*
X154421000Y-64190000D01*
X154671000Y-64190000D01*
X154671000Y-63940000D01*
G36*
X155671000Y-63940000D02*
G01*
X155421000Y-63940000D01*
X155421000Y-64190000D01*
X155671000Y-64190000D01*
X155671000Y-63940000D01*
G37*
X155671000Y-63940000D02*
X155421000Y-63940000D01*
X155421000Y-64190000D01*
X155671000Y-64190000D01*
X155671000Y-63940000D01*
G36*
X156421000Y-63940000D02*
G01*
X156171000Y-63940000D01*
X156171000Y-64190000D01*
X156421000Y-64190000D01*
X156421000Y-63940000D01*
G37*
X156421000Y-63940000D02*
X156171000Y-63940000D01*
X156171000Y-64190000D01*
X156421000Y-64190000D01*
X156421000Y-63940000D01*
G36*
X156671000Y-63940000D02*
G01*
X156421000Y-63940000D01*
X156421000Y-64190000D01*
X156671000Y-64190000D01*
X156671000Y-63940000D01*
G37*
X156671000Y-63940000D02*
X156421000Y-63940000D01*
X156421000Y-64190000D01*
X156671000Y-64190000D01*
X156671000Y-63940000D01*
G36*
X156921000Y-63940000D02*
G01*
X156671000Y-63940000D01*
X156671000Y-64190000D01*
X156921000Y-64190000D01*
X156921000Y-63940000D01*
G37*
X156921000Y-63940000D02*
X156671000Y-63940000D01*
X156671000Y-64190000D01*
X156921000Y-64190000D01*
X156921000Y-63940000D01*
G36*
X157171000Y-63940000D02*
G01*
X156921000Y-63940000D01*
X156921000Y-64190000D01*
X157171000Y-64190000D01*
X157171000Y-63940000D01*
G37*
X157171000Y-63940000D02*
X156921000Y-63940000D01*
X156921000Y-64190000D01*
X157171000Y-64190000D01*
X157171000Y-63940000D01*
G36*
X158421000Y-63940000D02*
G01*
X158171000Y-63940000D01*
X158171000Y-64190000D01*
X158421000Y-64190000D01*
X158421000Y-63940000D01*
G37*
X158421000Y-63940000D02*
X158171000Y-63940000D01*
X158171000Y-64190000D01*
X158421000Y-64190000D01*
X158421000Y-63940000D01*
G36*
X158671000Y-63940000D02*
G01*
X158421000Y-63940000D01*
X158421000Y-64190000D01*
X158671000Y-64190000D01*
X158671000Y-63940000D01*
G37*
X158671000Y-63940000D02*
X158421000Y-63940000D01*
X158421000Y-64190000D01*
X158671000Y-64190000D01*
X158671000Y-63940000D01*
G36*
X160171000Y-63940000D02*
G01*
X159921000Y-63940000D01*
X159921000Y-64190000D01*
X160171000Y-64190000D01*
X160171000Y-63940000D01*
G37*
X160171000Y-63940000D02*
X159921000Y-63940000D01*
X159921000Y-64190000D01*
X160171000Y-64190000D01*
X160171000Y-63940000D01*
G36*
X138171000Y-63690000D02*
G01*
X137921000Y-63690000D01*
X137921000Y-63940000D01*
X138171000Y-63940000D01*
X138171000Y-63690000D01*
G37*
X138171000Y-63690000D02*
X137921000Y-63690000D01*
X137921000Y-63940000D01*
X138171000Y-63940000D01*
X138171000Y-63690000D01*
G36*
X138921000Y-63690000D02*
G01*
X138671000Y-63690000D01*
X138671000Y-63940000D01*
X138921000Y-63940000D01*
X138921000Y-63690000D01*
G37*
X138921000Y-63690000D02*
X138671000Y-63690000D01*
X138671000Y-63940000D01*
X138921000Y-63940000D01*
X138921000Y-63690000D01*
G36*
X139421000Y-63690000D02*
G01*
X139171000Y-63690000D01*
X139171000Y-63940000D01*
X139421000Y-63940000D01*
X139421000Y-63690000D01*
G37*
X139421000Y-63690000D02*
X139171000Y-63690000D01*
X139171000Y-63940000D01*
X139421000Y-63940000D01*
X139421000Y-63690000D01*
G36*
X140671000Y-63690000D02*
G01*
X140421000Y-63690000D01*
X140421000Y-63940000D01*
X140671000Y-63940000D01*
X140671000Y-63690000D01*
G37*
X140671000Y-63690000D02*
X140421000Y-63690000D01*
X140421000Y-63940000D01*
X140671000Y-63940000D01*
X140671000Y-63690000D01*
G36*
X141671000Y-63690000D02*
G01*
X141421000Y-63690000D01*
X141421000Y-63940000D01*
X141671000Y-63940000D01*
X141671000Y-63690000D01*
G37*
X141671000Y-63690000D02*
X141421000Y-63690000D01*
X141421000Y-63940000D01*
X141671000Y-63940000D01*
X141671000Y-63690000D01*
G36*
X141921000Y-63690000D02*
G01*
X141671000Y-63690000D01*
X141671000Y-63940000D01*
X141921000Y-63940000D01*
X141921000Y-63690000D01*
G37*
X141921000Y-63690000D02*
X141671000Y-63690000D01*
X141671000Y-63940000D01*
X141921000Y-63940000D01*
X141921000Y-63690000D01*
G36*
X144421000Y-63690000D02*
G01*
X144171000Y-63690000D01*
X144171000Y-63940000D01*
X144421000Y-63940000D01*
X144421000Y-63690000D01*
G37*
X144421000Y-63690000D02*
X144171000Y-63690000D01*
X144171000Y-63940000D01*
X144421000Y-63940000D01*
X144421000Y-63690000D01*
G36*
X144921000Y-63690000D02*
G01*
X144671000Y-63690000D01*
X144671000Y-63940000D01*
X144921000Y-63940000D01*
X144921000Y-63690000D01*
G37*
X144921000Y-63690000D02*
X144671000Y-63690000D01*
X144671000Y-63940000D01*
X144921000Y-63940000D01*
X144921000Y-63690000D01*
G36*
X145171000Y-63690000D02*
G01*
X144921000Y-63690000D01*
X144921000Y-63940000D01*
X145171000Y-63940000D01*
X145171000Y-63690000D01*
G37*
X145171000Y-63690000D02*
X144921000Y-63690000D01*
X144921000Y-63940000D01*
X145171000Y-63940000D01*
X145171000Y-63690000D01*
G36*
X145921000Y-63690000D02*
G01*
X145671000Y-63690000D01*
X145671000Y-63940000D01*
X145921000Y-63940000D01*
X145921000Y-63690000D01*
G37*
X145921000Y-63690000D02*
X145671000Y-63690000D01*
X145671000Y-63940000D01*
X145921000Y-63940000D01*
X145921000Y-63690000D01*
G36*
X146921000Y-63690000D02*
G01*
X146671000Y-63690000D01*
X146671000Y-63940000D01*
X146921000Y-63940000D01*
X146921000Y-63690000D01*
G37*
X146921000Y-63690000D02*
X146671000Y-63690000D01*
X146671000Y-63940000D01*
X146921000Y-63940000D01*
X146921000Y-63690000D01*
G36*
X147671000Y-63690000D02*
G01*
X147421000Y-63690000D01*
X147421000Y-63940000D01*
X147671000Y-63940000D01*
X147671000Y-63690000D01*
G37*
X147671000Y-63690000D02*
X147421000Y-63690000D01*
X147421000Y-63940000D01*
X147671000Y-63940000D01*
X147671000Y-63690000D01*
G36*
X147921000Y-63690000D02*
G01*
X147671000Y-63690000D01*
X147671000Y-63940000D01*
X147921000Y-63940000D01*
X147921000Y-63690000D01*
G37*
X147921000Y-63690000D02*
X147671000Y-63690000D01*
X147671000Y-63940000D01*
X147921000Y-63940000D01*
X147921000Y-63690000D01*
G36*
X148171000Y-63690000D02*
G01*
X147921000Y-63690000D01*
X147921000Y-63940000D01*
X148171000Y-63940000D01*
X148171000Y-63690000D01*
G37*
X148171000Y-63690000D02*
X147921000Y-63690000D01*
X147921000Y-63940000D01*
X148171000Y-63940000D01*
X148171000Y-63690000D01*
G36*
X149671000Y-63690000D02*
G01*
X149421000Y-63690000D01*
X149421000Y-63940000D01*
X149671000Y-63940000D01*
X149671000Y-63690000D01*
G37*
X149671000Y-63690000D02*
X149421000Y-63690000D01*
X149421000Y-63940000D01*
X149671000Y-63940000D01*
X149671000Y-63690000D01*
G36*
X149921000Y-63690000D02*
G01*
X149671000Y-63690000D01*
X149671000Y-63940000D01*
X149921000Y-63940000D01*
X149921000Y-63690000D01*
G37*
X149921000Y-63690000D02*
X149671000Y-63690000D01*
X149671000Y-63940000D01*
X149921000Y-63940000D01*
X149921000Y-63690000D01*
G36*
X150171000Y-63690000D02*
G01*
X149921000Y-63690000D01*
X149921000Y-63940000D01*
X150171000Y-63940000D01*
X150171000Y-63690000D01*
G37*
X150171000Y-63690000D02*
X149921000Y-63690000D01*
X149921000Y-63940000D01*
X150171000Y-63940000D01*
X150171000Y-63690000D01*
G36*
X151171000Y-63690000D02*
G01*
X150921000Y-63690000D01*
X150921000Y-63940000D01*
X151171000Y-63940000D01*
X151171000Y-63690000D01*
G37*
X151171000Y-63690000D02*
X150921000Y-63690000D01*
X150921000Y-63940000D01*
X151171000Y-63940000D01*
X151171000Y-63690000D01*
G36*
X151421000Y-63690000D02*
G01*
X151171000Y-63690000D01*
X151171000Y-63940000D01*
X151421000Y-63940000D01*
X151421000Y-63690000D01*
G37*
X151421000Y-63690000D02*
X151171000Y-63690000D01*
X151171000Y-63940000D01*
X151421000Y-63940000D01*
X151421000Y-63690000D01*
G36*
X151671000Y-63690000D02*
G01*
X151421000Y-63690000D01*
X151421000Y-63940000D01*
X151671000Y-63940000D01*
X151671000Y-63690000D01*
G37*
X151671000Y-63690000D02*
X151421000Y-63690000D01*
X151421000Y-63940000D01*
X151671000Y-63940000D01*
X151671000Y-63690000D01*
G36*
X153171000Y-63690000D02*
G01*
X152921000Y-63690000D01*
X152921000Y-63940000D01*
X153171000Y-63940000D01*
X153171000Y-63690000D01*
G37*
X153171000Y-63690000D02*
X152921000Y-63690000D01*
X152921000Y-63940000D01*
X153171000Y-63940000D01*
X153171000Y-63690000D01*
G36*
X153421000Y-63690000D02*
G01*
X153171000Y-63690000D01*
X153171000Y-63940000D01*
X153421000Y-63940000D01*
X153421000Y-63690000D01*
G37*
X153421000Y-63690000D02*
X153171000Y-63690000D01*
X153171000Y-63940000D01*
X153421000Y-63940000D01*
X153421000Y-63690000D01*
G36*
X153671000Y-63690000D02*
G01*
X153421000Y-63690000D01*
X153421000Y-63940000D01*
X153671000Y-63940000D01*
X153671000Y-63690000D01*
G37*
X153671000Y-63690000D02*
X153421000Y-63690000D01*
X153421000Y-63940000D01*
X153671000Y-63940000D01*
X153671000Y-63690000D01*
G36*
X154921000Y-63690000D02*
G01*
X154671000Y-63690000D01*
X154671000Y-63940000D01*
X154921000Y-63940000D01*
X154921000Y-63690000D01*
G37*
X154921000Y-63690000D02*
X154671000Y-63690000D01*
X154671000Y-63940000D01*
X154921000Y-63940000D01*
X154921000Y-63690000D01*
G36*
X155171000Y-63690000D02*
G01*
X154921000Y-63690000D01*
X154921000Y-63940000D01*
X155171000Y-63940000D01*
X155171000Y-63690000D01*
G37*
X155171000Y-63690000D02*
X154921000Y-63690000D01*
X154921000Y-63940000D01*
X155171000Y-63940000D01*
X155171000Y-63690000D01*
G36*
X155421000Y-63690000D02*
G01*
X155171000Y-63690000D01*
X155171000Y-63940000D01*
X155421000Y-63940000D01*
X155421000Y-63690000D01*
G37*
X155421000Y-63690000D02*
X155171000Y-63690000D01*
X155171000Y-63940000D01*
X155421000Y-63940000D01*
X155421000Y-63690000D01*
G36*
X155671000Y-63690000D02*
G01*
X155421000Y-63690000D01*
X155421000Y-63940000D01*
X155671000Y-63940000D01*
X155671000Y-63690000D01*
G37*
X155671000Y-63690000D02*
X155421000Y-63690000D01*
X155421000Y-63940000D01*
X155671000Y-63940000D01*
X155671000Y-63690000D01*
G36*
X157421000Y-63690000D02*
G01*
X157171000Y-63690000D01*
X157171000Y-63940000D01*
X157421000Y-63940000D01*
X157421000Y-63690000D01*
G37*
X157421000Y-63690000D02*
X157171000Y-63690000D01*
X157171000Y-63940000D01*
X157421000Y-63940000D01*
X157421000Y-63690000D01*
G36*
X158171000Y-63690000D02*
G01*
X157921000Y-63690000D01*
X157921000Y-63940000D01*
X158171000Y-63940000D01*
X158171000Y-63690000D01*
G37*
X158171000Y-63690000D02*
X157921000Y-63690000D01*
X157921000Y-63940000D01*
X158171000Y-63940000D01*
X158171000Y-63690000D01*
G36*
X158921000Y-63690000D02*
G01*
X158671000Y-63690000D01*
X158671000Y-63940000D01*
X158921000Y-63940000D01*
X158921000Y-63690000D01*
G37*
X158921000Y-63690000D02*
X158671000Y-63690000D01*
X158671000Y-63940000D01*
X158921000Y-63940000D01*
X158921000Y-63690000D01*
G36*
X159921000Y-63690000D02*
G01*
X159671000Y-63690000D01*
X159671000Y-63940000D01*
X159921000Y-63940000D01*
X159921000Y-63690000D01*
G37*
X159921000Y-63690000D02*
X159671000Y-63690000D01*
X159671000Y-63940000D01*
X159921000Y-63940000D01*
X159921000Y-63690000D01*
G36*
X137921000Y-63440000D02*
G01*
X137671000Y-63440000D01*
X137671000Y-63690000D01*
X137921000Y-63690000D01*
X137921000Y-63440000D01*
G37*
X137921000Y-63440000D02*
X137671000Y-63440000D01*
X137671000Y-63690000D01*
X137921000Y-63690000D01*
X137921000Y-63440000D01*
G36*
X138921000Y-63440000D02*
G01*
X138671000Y-63440000D01*
X138671000Y-63690000D01*
X138921000Y-63690000D01*
X138921000Y-63440000D01*
G37*
X138921000Y-63440000D02*
X138671000Y-63440000D01*
X138671000Y-63690000D01*
X138921000Y-63690000D01*
X138921000Y-63440000D01*
G36*
X139671000Y-63440000D02*
G01*
X139421000Y-63440000D01*
X139421000Y-63690000D01*
X139671000Y-63690000D01*
X139671000Y-63440000D01*
G37*
X139671000Y-63440000D02*
X139421000Y-63440000D01*
X139421000Y-63690000D01*
X139671000Y-63690000D01*
X139671000Y-63440000D01*
G36*
X139921000Y-63440000D02*
G01*
X139671000Y-63440000D01*
X139671000Y-63690000D01*
X139921000Y-63690000D01*
X139921000Y-63440000D01*
G37*
X139921000Y-63440000D02*
X139671000Y-63440000D01*
X139671000Y-63690000D01*
X139921000Y-63690000D01*
X139921000Y-63440000D01*
G36*
X140171000Y-63440000D02*
G01*
X139921000Y-63440000D01*
X139921000Y-63690000D01*
X140171000Y-63690000D01*
X140171000Y-63440000D01*
G37*
X140171000Y-63440000D02*
X139921000Y-63440000D01*
X139921000Y-63690000D01*
X140171000Y-63690000D01*
X140171000Y-63440000D01*
G36*
X140421000Y-63440000D02*
G01*
X140171000Y-63440000D01*
X140171000Y-63690000D01*
X140421000Y-63690000D01*
X140421000Y-63440000D01*
G37*
X140421000Y-63440000D02*
X140171000Y-63440000D01*
X140171000Y-63690000D01*
X140421000Y-63690000D01*
X140421000Y-63440000D01*
G36*
X141671000Y-63440000D02*
G01*
X141421000Y-63440000D01*
X141421000Y-63690000D01*
X141671000Y-63690000D01*
X141671000Y-63440000D01*
G37*
X141671000Y-63440000D02*
X141421000Y-63440000D01*
X141421000Y-63690000D01*
X141671000Y-63690000D01*
X141671000Y-63440000D01*
G36*
X149921000Y-63440000D02*
G01*
X149671000Y-63440000D01*
X149671000Y-63690000D01*
X149921000Y-63690000D01*
X149921000Y-63440000D01*
G37*
X149921000Y-63440000D02*
X149671000Y-63440000D01*
X149671000Y-63690000D01*
X149921000Y-63690000D01*
X149921000Y-63440000D01*
G36*
X156421000Y-63440000D02*
G01*
X156171000Y-63440000D01*
X156171000Y-63690000D01*
X156421000Y-63690000D01*
X156421000Y-63440000D01*
G37*
X156421000Y-63440000D02*
X156171000Y-63440000D01*
X156171000Y-63690000D01*
X156421000Y-63690000D01*
X156421000Y-63440000D01*
G36*
X156671000Y-63440000D02*
G01*
X156421000Y-63440000D01*
X156421000Y-63690000D01*
X156671000Y-63690000D01*
X156671000Y-63440000D01*
G37*
X156671000Y-63440000D02*
X156421000Y-63440000D01*
X156421000Y-63690000D01*
X156671000Y-63690000D01*
X156671000Y-63440000D01*
G36*
X156921000Y-63440000D02*
G01*
X156671000Y-63440000D01*
X156671000Y-63690000D01*
X156921000Y-63690000D01*
X156921000Y-63440000D01*
G37*
X156921000Y-63440000D02*
X156671000Y-63440000D01*
X156671000Y-63690000D01*
X156921000Y-63690000D01*
X156921000Y-63440000D01*
G36*
X157171000Y-63440000D02*
G01*
X156921000Y-63440000D01*
X156921000Y-63690000D01*
X157171000Y-63690000D01*
X157171000Y-63440000D01*
G37*
X157171000Y-63440000D02*
X156921000Y-63440000D01*
X156921000Y-63690000D01*
X157171000Y-63690000D01*
X157171000Y-63440000D01*
G36*
X157921000Y-63440000D02*
G01*
X157671000Y-63440000D01*
X157671000Y-63690000D01*
X157921000Y-63690000D01*
X157921000Y-63440000D01*
G37*
X157921000Y-63440000D02*
X157671000Y-63440000D01*
X157671000Y-63690000D01*
X157921000Y-63690000D01*
X157921000Y-63440000D01*
G36*
X159171000Y-63440000D02*
G01*
X158921000Y-63440000D01*
X158921000Y-63690000D01*
X159171000Y-63690000D01*
X159171000Y-63440000D01*
G37*
X159171000Y-63440000D02*
X158921000Y-63440000D01*
X158921000Y-63690000D01*
X159171000Y-63690000D01*
X159171000Y-63440000D01*
G36*
X159671000Y-63440000D02*
G01*
X159421000Y-63440000D01*
X159421000Y-63690000D01*
X159671000Y-63690000D01*
X159671000Y-63440000D01*
G37*
X159671000Y-63440000D02*
X159421000Y-63440000D01*
X159421000Y-63690000D01*
X159671000Y-63690000D01*
X159671000Y-63440000D01*
G36*
X159921000Y-63440000D02*
G01*
X159671000Y-63440000D01*
X159671000Y-63690000D01*
X159921000Y-63690000D01*
X159921000Y-63440000D01*
G37*
X159921000Y-63440000D02*
X159671000Y-63440000D01*
X159671000Y-63690000D01*
X159921000Y-63690000D01*
X159921000Y-63440000D01*
G36*
X160171000Y-63440000D02*
G01*
X159921000Y-63440000D01*
X159921000Y-63690000D01*
X160171000Y-63690000D01*
X160171000Y-63440000D01*
G37*
X160171000Y-63440000D02*
X159921000Y-63440000D01*
X159921000Y-63690000D01*
X160171000Y-63690000D01*
X160171000Y-63440000D01*
G36*
X160421000Y-63440000D02*
G01*
X160171000Y-63440000D01*
X160171000Y-63690000D01*
X160421000Y-63690000D01*
X160421000Y-63440000D01*
G37*
X160421000Y-63440000D02*
X160171000Y-63440000D01*
X160171000Y-63690000D01*
X160421000Y-63690000D01*
X160421000Y-63440000D01*
G36*
X160671000Y-63440000D02*
G01*
X160421000Y-63440000D01*
X160421000Y-63690000D01*
X160671000Y-63690000D01*
X160671000Y-63440000D01*
G37*
X160671000Y-63440000D02*
X160421000Y-63440000D01*
X160421000Y-63690000D01*
X160671000Y-63690000D01*
X160671000Y-63440000D01*
G36*
X160921000Y-63440000D02*
G01*
X160671000Y-63440000D01*
X160671000Y-63690000D01*
X160921000Y-63690000D01*
X160921000Y-63440000D01*
G37*
X160921000Y-63440000D02*
X160671000Y-63440000D01*
X160671000Y-63690000D01*
X160921000Y-63690000D01*
X160921000Y-63440000D01*
G36*
X139421000Y-62440000D02*
G01*
X139171000Y-62440000D01*
X139171000Y-62690000D01*
X139421000Y-62690000D01*
X139421000Y-62440000D01*
G37*
X139421000Y-62440000D02*
X139171000Y-62440000D01*
X139171000Y-62690000D01*
X139421000Y-62690000D01*
X139421000Y-62440000D01*
G36*
X139671000Y-62440000D02*
G01*
X139421000Y-62440000D01*
X139421000Y-62690000D01*
X139671000Y-62690000D01*
X139671000Y-62440000D01*
G37*
X139671000Y-62440000D02*
X139421000Y-62440000D01*
X139421000Y-62690000D01*
X139671000Y-62690000D01*
X139671000Y-62440000D01*
G36*
X141421000Y-62440000D02*
G01*
X141171000Y-62440000D01*
X141171000Y-62690000D01*
X141421000Y-62690000D01*
X141421000Y-62440000D01*
G37*
X141421000Y-62440000D02*
X141171000Y-62440000D01*
X141171000Y-62690000D01*
X141421000Y-62690000D01*
X141421000Y-62440000D01*
G36*
X141671000Y-62440000D02*
G01*
X141421000Y-62440000D01*
X141421000Y-62690000D01*
X141671000Y-62690000D01*
X141671000Y-62440000D01*
G37*
X141671000Y-62440000D02*
X141421000Y-62440000D01*
X141421000Y-62690000D01*
X141671000Y-62690000D01*
X141671000Y-62440000D01*
G36*
X141921000Y-62440000D02*
G01*
X141671000Y-62440000D01*
X141671000Y-62690000D01*
X141921000Y-62690000D01*
X141921000Y-62440000D01*
G37*
X141921000Y-62440000D02*
X141671000Y-62440000D01*
X141671000Y-62690000D01*
X141921000Y-62690000D01*
X141921000Y-62440000D01*
G36*
X142171000Y-62440000D02*
G01*
X141921000Y-62440000D01*
X141921000Y-62690000D01*
X142171000Y-62690000D01*
X142171000Y-62440000D01*
G37*
X142171000Y-62440000D02*
X141921000Y-62440000D01*
X141921000Y-62690000D01*
X142171000Y-62690000D01*
X142171000Y-62440000D01*
G36*
X142421000Y-62440000D02*
G01*
X142171000Y-62440000D01*
X142171000Y-62690000D01*
X142421000Y-62690000D01*
X142421000Y-62440000D01*
G37*
X142421000Y-62440000D02*
X142171000Y-62440000D01*
X142171000Y-62690000D01*
X142421000Y-62690000D01*
X142421000Y-62440000D01*
G36*
X142671000Y-62440000D02*
G01*
X142421000Y-62440000D01*
X142421000Y-62690000D01*
X142671000Y-62690000D01*
X142671000Y-62440000D01*
G37*
X142671000Y-62440000D02*
X142421000Y-62440000D01*
X142421000Y-62690000D01*
X142671000Y-62690000D01*
X142671000Y-62440000D01*
G36*
X143921000Y-62440000D02*
G01*
X143671000Y-62440000D01*
X143671000Y-62690000D01*
X143921000Y-62690000D01*
X143921000Y-62440000D01*
G37*
X143921000Y-62440000D02*
X143671000Y-62440000D01*
X143671000Y-62690000D01*
X143921000Y-62690000D01*
X143921000Y-62440000D01*
G36*
X144171000Y-62440000D02*
G01*
X143921000Y-62440000D01*
X143921000Y-62690000D01*
X144171000Y-62690000D01*
X144171000Y-62440000D01*
G37*
X144171000Y-62440000D02*
X143921000Y-62440000D01*
X143921000Y-62690000D01*
X144171000Y-62690000D01*
X144171000Y-62440000D01*
G36*
X144421000Y-62440000D02*
G01*
X144171000Y-62440000D01*
X144171000Y-62690000D01*
X144421000Y-62690000D01*
X144421000Y-62440000D01*
G37*
X144421000Y-62440000D02*
X144171000Y-62440000D01*
X144171000Y-62690000D01*
X144421000Y-62690000D01*
X144421000Y-62440000D01*
G36*
X144671000Y-62440000D02*
G01*
X144421000Y-62440000D01*
X144421000Y-62690000D01*
X144671000Y-62690000D01*
X144671000Y-62440000D01*
G37*
X144671000Y-62440000D02*
X144421000Y-62440000D01*
X144421000Y-62690000D01*
X144671000Y-62690000D01*
X144671000Y-62440000D01*
G36*
X144921000Y-62440000D02*
G01*
X144671000Y-62440000D01*
X144671000Y-62690000D01*
X144921000Y-62690000D01*
X144921000Y-62440000D01*
G37*
X144921000Y-62440000D02*
X144671000Y-62440000D01*
X144671000Y-62690000D01*
X144921000Y-62690000D01*
X144921000Y-62440000D01*
G36*
X145171000Y-62440000D02*
G01*
X144921000Y-62440000D01*
X144921000Y-62690000D01*
X145171000Y-62690000D01*
X145171000Y-62440000D01*
G37*
X145171000Y-62440000D02*
X144921000Y-62440000D01*
X144921000Y-62690000D01*
X145171000Y-62690000D01*
X145171000Y-62440000D01*
G36*
X145421000Y-62440000D02*
G01*
X145171000Y-62440000D01*
X145171000Y-62690000D01*
X145421000Y-62690000D01*
X145421000Y-62440000D01*
G37*
X145421000Y-62440000D02*
X145171000Y-62440000D01*
X145171000Y-62690000D01*
X145421000Y-62690000D01*
X145421000Y-62440000D01*
G36*
X145671000Y-62440000D02*
G01*
X145421000Y-62440000D01*
X145421000Y-62690000D01*
X145671000Y-62690000D01*
X145671000Y-62440000D01*
G37*
X145671000Y-62440000D02*
X145421000Y-62440000D01*
X145421000Y-62690000D01*
X145671000Y-62690000D01*
X145671000Y-62440000D01*
G36*
X146921000Y-62440000D02*
G01*
X146671000Y-62440000D01*
X146671000Y-62690000D01*
X146921000Y-62690000D01*
X146921000Y-62440000D01*
G37*
X146921000Y-62440000D02*
X146671000Y-62440000D01*
X146671000Y-62690000D01*
X146921000Y-62690000D01*
X146921000Y-62440000D01*
G36*
X147171000Y-62440000D02*
G01*
X146921000Y-62440000D01*
X146921000Y-62690000D01*
X147171000Y-62690000D01*
X147171000Y-62440000D01*
G37*
X147171000Y-62440000D02*
X146921000Y-62440000D01*
X146921000Y-62690000D01*
X147171000Y-62690000D01*
X147171000Y-62440000D01*
G36*
X147421000Y-62440000D02*
G01*
X147171000Y-62440000D01*
X147171000Y-62690000D01*
X147421000Y-62690000D01*
X147421000Y-62440000D01*
G37*
X147421000Y-62440000D02*
X147171000Y-62440000D01*
X147171000Y-62690000D01*
X147421000Y-62690000D01*
X147421000Y-62440000D01*
G36*
X147671000Y-62440000D02*
G01*
X147421000Y-62440000D01*
X147421000Y-62690000D01*
X147671000Y-62690000D01*
X147671000Y-62440000D01*
G37*
X147671000Y-62440000D02*
X147421000Y-62440000D01*
X147421000Y-62690000D01*
X147671000Y-62690000D01*
X147671000Y-62440000D01*
G36*
X149921000Y-62440000D02*
G01*
X149671000Y-62440000D01*
X149671000Y-62690000D01*
X149921000Y-62690000D01*
X149921000Y-62440000D01*
G37*
X149921000Y-62440000D02*
X149671000Y-62440000D01*
X149671000Y-62690000D01*
X149921000Y-62690000D01*
X149921000Y-62440000D01*
G36*
X150171000Y-62440000D02*
G01*
X149921000Y-62440000D01*
X149921000Y-62690000D01*
X150171000Y-62690000D01*
X150171000Y-62440000D01*
G37*
X150171000Y-62440000D02*
X149921000Y-62440000D01*
X149921000Y-62690000D01*
X150171000Y-62690000D01*
X150171000Y-62440000D01*
G36*
X150421000Y-62440000D02*
G01*
X150171000Y-62440000D01*
X150171000Y-62690000D01*
X150421000Y-62690000D01*
X150421000Y-62440000D01*
G37*
X150421000Y-62440000D02*
X150171000Y-62440000D01*
X150171000Y-62690000D01*
X150421000Y-62690000D01*
X150421000Y-62440000D01*
G36*
X150671000Y-62440000D02*
G01*
X150421000Y-62440000D01*
X150421000Y-62690000D01*
X150671000Y-62690000D01*
X150671000Y-62440000D01*
G37*
X150671000Y-62440000D02*
X150421000Y-62440000D01*
X150421000Y-62690000D01*
X150671000Y-62690000D01*
X150671000Y-62440000D01*
G36*
X150921000Y-62440000D02*
G01*
X150671000Y-62440000D01*
X150671000Y-62690000D01*
X150921000Y-62690000D01*
X150921000Y-62440000D01*
G37*
X150921000Y-62440000D02*
X150671000Y-62440000D01*
X150671000Y-62690000D01*
X150921000Y-62690000D01*
X150921000Y-62440000D01*
G36*
X151171000Y-62440000D02*
G01*
X150921000Y-62440000D01*
X150921000Y-62690000D01*
X151171000Y-62690000D01*
X151171000Y-62440000D01*
G37*
X151171000Y-62440000D02*
X150921000Y-62440000D01*
X150921000Y-62690000D01*
X151171000Y-62690000D01*
X151171000Y-62440000D01*
G36*
X152921000Y-62440000D02*
G01*
X152671000Y-62440000D01*
X152671000Y-62690000D01*
X152921000Y-62690000D01*
X152921000Y-62440000D01*
G37*
X152921000Y-62440000D02*
X152671000Y-62440000D01*
X152671000Y-62690000D01*
X152921000Y-62690000D01*
X152921000Y-62440000D01*
G36*
X153171000Y-62440000D02*
G01*
X152921000Y-62440000D01*
X152921000Y-62690000D01*
X153171000Y-62690000D01*
X153171000Y-62440000D01*
G37*
X153171000Y-62440000D02*
X152921000Y-62440000D01*
X152921000Y-62690000D01*
X153171000Y-62690000D01*
X153171000Y-62440000D01*
G36*
X154921000Y-62440000D02*
G01*
X154671000Y-62440000D01*
X154671000Y-62690000D01*
X154921000Y-62690000D01*
X154921000Y-62440000D01*
G37*
X154921000Y-62440000D02*
X154671000Y-62440000D01*
X154671000Y-62690000D01*
X154921000Y-62690000D01*
X154921000Y-62440000D01*
G36*
X155171000Y-62440000D02*
G01*
X154921000Y-62440000D01*
X154921000Y-62690000D01*
X155171000Y-62690000D01*
X155171000Y-62440000D01*
G37*
X155171000Y-62440000D02*
X154921000Y-62440000D01*
X154921000Y-62690000D01*
X155171000Y-62690000D01*
X155171000Y-62440000D01*
G36*
X156421000Y-62440000D02*
G01*
X156171000Y-62440000D01*
X156171000Y-62690000D01*
X156421000Y-62690000D01*
X156421000Y-62440000D01*
G37*
X156421000Y-62440000D02*
X156171000Y-62440000D01*
X156171000Y-62690000D01*
X156421000Y-62690000D01*
X156421000Y-62440000D01*
G36*
X156671000Y-62440000D02*
G01*
X156421000Y-62440000D01*
X156421000Y-62690000D01*
X156671000Y-62690000D01*
X156671000Y-62440000D01*
G37*
X156671000Y-62440000D02*
X156421000Y-62440000D01*
X156421000Y-62690000D01*
X156671000Y-62690000D01*
X156671000Y-62440000D01*
G36*
X156921000Y-62440000D02*
G01*
X156671000Y-62440000D01*
X156671000Y-62690000D01*
X156921000Y-62690000D01*
X156921000Y-62440000D01*
G37*
X156921000Y-62440000D02*
X156671000Y-62440000D01*
X156671000Y-62690000D01*
X156921000Y-62690000D01*
X156921000Y-62440000D01*
G36*
X157171000Y-62440000D02*
G01*
X156921000Y-62440000D01*
X156921000Y-62690000D01*
X157171000Y-62690000D01*
X157171000Y-62440000D01*
G37*
X157171000Y-62440000D02*
X156921000Y-62440000D01*
X156921000Y-62690000D01*
X157171000Y-62690000D01*
X157171000Y-62440000D01*
G36*
X157421000Y-62440000D02*
G01*
X157171000Y-62440000D01*
X157171000Y-62690000D01*
X157421000Y-62690000D01*
X157421000Y-62440000D01*
G37*
X157421000Y-62440000D02*
X157171000Y-62440000D01*
X157171000Y-62690000D01*
X157421000Y-62690000D01*
X157421000Y-62440000D01*
G36*
X157671000Y-62440000D02*
G01*
X157421000Y-62440000D01*
X157421000Y-62690000D01*
X157671000Y-62690000D01*
X157671000Y-62440000D01*
G37*
X157671000Y-62440000D02*
X157421000Y-62440000D01*
X157421000Y-62690000D01*
X157671000Y-62690000D01*
X157671000Y-62440000D01*
G36*
X159421000Y-62440000D02*
G01*
X159171000Y-62440000D01*
X159171000Y-62690000D01*
X159421000Y-62690000D01*
X159421000Y-62440000D01*
G37*
X159421000Y-62440000D02*
X159171000Y-62440000D01*
X159171000Y-62690000D01*
X159421000Y-62690000D01*
X159421000Y-62440000D01*
G36*
X159671000Y-62440000D02*
G01*
X159421000Y-62440000D01*
X159421000Y-62690000D01*
X159671000Y-62690000D01*
X159671000Y-62440000D01*
G37*
X159671000Y-62440000D02*
X159421000Y-62440000D01*
X159421000Y-62690000D01*
X159671000Y-62690000D01*
X159671000Y-62440000D01*
G36*
X159921000Y-62440000D02*
G01*
X159671000Y-62440000D01*
X159671000Y-62690000D01*
X159921000Y-62690000D01*
X159921000Y-62440000D01*
G37*
X159921000Y-62440000D02*
X159671000Y-62440000D01*
X159671000Y-62690000D01*
X159921000Y-62690000D01*
X159921000Y-62440000D01*
G36*
X160171000Y-62440000D02*
G01*
X159921000Y-62440000D01*
X159921000Y-62690000D01*
X160171000Y-62690000D01*
X160171000Y-62440000D01*
G37*
X160171000Y-62440000D02*
X159921000Y-62440000D01*
X159921000Y-62690000D01*
X160171000Y-62690000D01*
X160171000Y-62440000D01*
G36*
X160421000Y-62440000D02*
G01*
X160171000Y-62440000D01*
X160171000Y-62690000D01*
X160421000Y-62690000D01*
X160421000Y-62440000D01*
G37*
X160421000Y-62440000D02*
X160171000Y-62440000D01*
X160171000Y-62690000D01*
X160421000Y-62690000D01*
X160421000Y-62440000D01*
G36*
X160671000Y-62440000D02*
G01*
X160421000Y-62440000D01*
X160421000Y-62690000D01*
X160671000Y-62690000D01*
X160671000Y-62440000D01*
G37*
X160671000Y-62440000D02*
X160421000Y-62440000D01*
X160421000Y-62690000D01*
X160671000Y-62690000D01*
X160671000Y-62440000D01*
G36*
X160921000Y-62440000D02*
G01*
X160671000Y-62440000D01*
X160671000Y-62690000D01*
X160921000Y-62690000D01*
X160921000Y-62440000D01*
G37*
X160921000Y-62440000D02*
X160671000Y-62440000D01*
X160671000Y-62690000D01*
X160921000Y-62690000D01*
X160921000Y-62440000D01*
G36*
X161171000Y-62440000D02*
G01*
X160921000Y-62440000D01*
X160921000Y-62690000D01*
X161171000Y-62690000D01*
X161171000Y-62440000D01*
G37*
X161171000Y-62440000D02*
X160921000Y-62440000D01*
X160921000Y-62690000D01*
X161171000Y-62690000D01*
X161171000Y-62440000D01*
G36*
X139421000Y-62190000D02*
G01*
X139171000Y-62190000D01*
X139171000Y-62440000D01*
X139421000Y-62440000D01*
X139421000Y-62190000D01*
G37*
X139421000Y-62190000D02*
X139171000Y-62190000D01*
X139171000Y-62440000D01*
X139421000Y-62440000D01*
X139421000Y-62190000D01*
G36*
X139671000Y-62190000D02*
G01*
X139421000Y-62190000D01*
X139421000Y-62440000D01*
X139671000Y-62440000D01*
X139671000Y-62190000D01*
G37*
X139671000Y-62190000D02*
X139421000Y-62190000D01*
X139421000Y-62440000D01*
X139671000Y-62440000D01*
X139671000Y-62190000D01*
G36*
X141421000Y-62190000D02*
G01*
X141171000Y-62190000D01*
X141171000Y-62440000D01*
X141421000Y-62440000D01*
X141421000Y-62190000D01*
G37*
X141421000Y-62190000D02*
X141171000Y-62190000D01*
X141171000Y-62440000D01*
X141421000Y-62440000D01*
X141421000Y-62190000D01*
G36*
X141671000Y-62190000D02*
G01*
X141421000Y-62190000D01*
X141421000Y-62440000D01*
X141671000Y-62440000D01*
X141671000Y-62190000D01*
G37*
X141671000Y-62190000D02*
X141421000Y-62190000D01*
X141421000Y-62440000D01*
X141671000Y-62440000D01*
X141671000Y-62190000D01*
G36*
X141921000Y-62190000D02*
G01*
X141671000Y-62190000D01*
X141671000Y-62440000D01*
X141921000Y-62440000D01*
X141921000Y-62190000D01*
G37*
X141921000Y-62190000D02*
X141671000Y-62190000D01*
X141671000Y-62440000D01*
X141921000Y-62440000D01*
X141921000Y-62190000D01*
G36*
X142171000Y-62190000D02*
G01*
X141921000Y-62190000D01*
X141921000Y-62440000D01*
X142171000Y-62440000D01*
X142171000Y-62190000D01*
G37*
X142171000Y-62190000D02*
X141921000Y-62190000D01*
X141921000Y-62440000D01*
X142171000Y-62440000D01*
X142171000Y-62190000D01*
G36*
X142421000Y-62190000D02*
G01*
X142171000Y-62190000D01*
X142171000Y-62440000D01*
X142421000Y-62440000D01*
X142421000Y-62190000D01*
G37*
X142421000Y-62190000D02*
X142171000Y-62190000D01*
X142171000Y-62440000D01*
X142421000Y-62440000D01*
X142421000Y-62190000D01*
G36*
X142671000Y-62190000D02*
G01*
X142421000Y-62190000D01*
X142421000Y-62440000D01*
X142671000Y-62440000D01*
X142671000Y-62190000D01*
G37*
X142671000Y-62190000D02*
X142421000Y-62190000D01*
X142421000Y-62440000D01*
X142671000Y-62440000D01*
X142671000Y-62190000D01*
G36*
X143921000Y-62190000D02*
G01*
X143671000Y-62190000D01*
X143671000Y-62440000D01*
X143921000Y-62440000D01*
X143921000Y-62190000D01*
G37*
X143921000Y-62190000D02*
X143671000Y-62190000D01*
X143671000Y-62440000D01*
X143921000Y-62440000D01*
X143921000Y-62190000D01*
G36*
X144171000Y-62190000D02*
G01*
X143921000Y-62190000D01*
X143921000Y-62440000D01*
X144171000Y-62440000D01*
X144171000Y-62190000D01*
G37*
X144171000Y-62190000D02*
X143921000Y-62190000D01*
X143921000Y-62440000D01*
X144171000Y-62440000D01*
X144171000Y-62190000D01*
G36*
X144421000Y-62190000D02*
G01*
X144171000Y-62190000D01*
X144171000Y-62440000D01*
X144421000Y-62440000D01*
X144421000Y-62190000D01*
G37*
X144421000Y-62190000D02*
X144171000Y-62190000D01*
X144171000Y-62440000D01*
X144421000Y-62440000D01*
X144421000Y-62190000D01*
G36*
X144671000Y-62190000D02*
G01*
X144421000Y-62190000D01*
X144421000Y-62440000D01*
X144671000Y-62440000D01*
X144671000Y-62190000D01*
G37*
X144671000Y-62190000D02*
X144421000Y-62190000D01*
X144421000Y-62440000D01*
X144671000Y-62440000D01*
X144671000Y-62190000D01*
G36*
X144921000Y-62190000D02*
G01*
X144671000Y-62190000D01*
X144671000Y-62440000D01*
X144921000Y-62440000D01*
X144921000Y-62190000D01*
G37*
X144921000Y-62190000D02*
X144671000Y-62190000D01*
X144671000Y-62440000D01*
X144921000Y-62440000D01*
X144921000Y-62190000D01*
G36*
X145171000Y-62190000D02*
G01*
X144921000Y-62190000D01*
X144921000Y-62440000D01*
X145171000Y-62440000D01*
X145171000Y-62190000D01*
G37*
X145171000Y-62190000D02*
X144921000Y-62190000D01*
X144921000Y-62440000D01*
X145171000Y-62440000D01*
X145171000Y-62190000D01*
G36*
X145421000Y-62190000D02*
G01*
X145171000Y-62190000D01*
X145171000Y-62440000D01*
X145421000Y-62440000D01*
X145421000Y-62190000D01*
G37*
X145421000Y-62190000D02*
X145171000Y-62190000D01*
X145171000Y-62440000D01*
X145421000Y-62440000D01*
X145421000Y-62190000D01*
G36*
X145671000Y-62190000D02*
G01*
X145421000Y-62190000D01*
X145421000Y-62440000D01*
X145671000Y-62440000D01*
X145671000Y-62190000D01*
G37*
X145671000Y-62190000D02*
X145421000Y-62190000D01*
X145421000Y-62440000D01*
X145671000Y-62440000D01*
X145671000Y-62190000D01*
G36*
X146921000Y-62190000D02*
G01*
X146671000Y-62190000D01*
X146671000Y-62440000D01*
X146921000Y-62440000D01*
X146921000Y-62190000D01*
G37*
X146921000Y-62190000D02*
X146671000Y-62190000D01*
X146671000Y-62440000D01*
X146921000Y-62440000D01*
X146921000Y-62190000D01*
G36*
X147171000Y-62190000D02*
G01*
X146921000Y-62190000D01*
X146921000Y-62440000D01*
X147171000Y-62440000D01*
X147171000Y-62190000D01*
G37*
X147171000Y-62190000D02*
X146921000Y-62190000D01*
X146921000Y-62440000D01*
X147171000Y-62440000D01*
X147171000Y-62190000D01*
G36*
X147421000Y-62190000D02*
G01*
X147171000Y-62190000D01*
X147171000Y-62440000D01*
X147421000Y-62440000D01*
X147421000Y-62190000D01*
G37*
X147421000Y-62190000D02*
X147171000Y-62190000D01*
X147171000Y-62440000D01*
X147421000Y-62440000D01*
X147421000Y-62190000D01*
G36*
X147671000Y-62190000D02*
G01*
X147421000Y-62190000D01*
X147421000Y-62440000D01*
X147671000Y-62440000D01*
X147671000Y-62190000D01*
G37*
X147671000Y-62190000D02*
X147421000Y-62190000D01*
X147421000Y-62440000D01*
X147671000Y-62440000D01*
X147671000Y-62190000D01*
G36*
X149921000Y-62190000D02*
G01*
X149671000Y-62190000D01*
X149671000Y-62440000D01*
X149921000Y-62440000D01*
X149921000Y-62190000D01*
G37*
X149921000Y-62190000D02*
X149671000Y-62190000D01*
X149671000Y-62440000D01*
X149921000Y-62440000D01*
X149921000Y-62190000D01*
G36*
X150171000Y-62190000D02*
G01*
X149921000Y-62190000D01*
X149921000Y-62440000D01*
X150171000Y-62440000D01*
X150171000Y-62190000D01*
G37*
X150171000Y-62190000D02*
X149921000Y-62190000D01*
X149921000Y-62440000D01*
X150171000Y-62440000D01*
X150171000Y-62190000D01*
G36*
X150421000Y-62190000D02*
G01*
X150171000Y-62190000D01*
X150171000Y-62440000D01*
X150421000Y-62440000D01*
X150421000Y-62190000D01*
G37*
X150421000Y-62190000D02*
X150171000Y-62190000D01*
X150171000Y-62440000D01*
X150421000Y-62440000D01*
X150421000Y-62190000D01*
G36*
X150671000Y-62190000D02*
G01*
X150421000Y-62190000D01*
X150421000Y-62440000D01*
X150671000Y-62440000D01*
X150671000Y-62190000D01*
G37*
X150671000Y-62190000D02*
X150421000Y-62190000D01*
X150421000Y-62440000D01*
X150671000Y-62440000D01*
X150671000Y-62190000D01*
G36*
X150921000Y-62190000D02*
G01*
X150671000Y-62190000D01*
X150671000Y-62440000D01*
X150921000Y-62440000D01*
X150921000Y-62190000D01*
G37*
X150921000Y-62190000D02*
X150671000Y-62190000D01*
X150671000Y-62440000D01*
X150921000Y-62440000D01*
X150921000Y-62190000D01*
G36*
X151171000Y-62190000D02*
G01*
X150921000Y-62190000D01*
X150921000Y-62440000D01*
X151171000Y-62440000D01*
X151171000Y-62190000D01*
G37*
X151171000Y-62190000D02*
X150921000Y-62190000D01*
X150921000Y-62440000D01*
X151171000Y-62440000D01*
X151171000Y-62190000D01*
G36*
X152921000Y-62190000D02*
G01*
X152671000Y-62190000D01*
X152671000Y-62440000D01*
X152921000Y-62440000D01*
X152921000Y-62190000D01*
G37*
X152921000Y-62190000D02*
X152671000Y-62190000D01*
X152671000Y-62440000D01*
X152921000Y-62440000D01*
X152921000Y-62190000D01*
G36*
X153171000Y-62190000D02*
G01*
X152921000Y-62190000D01*
X152921000Y-62440000D01*
X153171000Y-62440000D01*
X153171000Y-62190000D01*
G37*
X153171000Y-62190000D02*
X152921000Y-62190000D01*
X152921000Y-62440000D01*
X153171000Y-62440000D01*
X153171000Y-62190000D01*
G36*
X154921000Y-62190000D02*
G01*
X154671000Y-62190000D01*
X154671000Y-62440000D01*
X154921000Y-62440000D01*
X154921000Y-62190000D01*
G37*
X154921000Y-62190000D02*
X154671000Y-62190000D01*
X154671000Y-62440000D01*
X154921000Y-62440000D01*
X154921000Y-62190000D01*
G36*
X155171000Y-62190000D02*
G01*
X154921000Y-62190000D01*
X154921000Y-62440000D01*
X155171000Y-62440000D01*
X155171000Y-62190000D01*
G37*
X155171000Y-62190000D02*
X154921000Y-62190000D01*
X154921000Y-62440000D01*
X155171000Y-62440000D01*
X155171000Y-62190000D01*
G36*
X156421000Y-62190000D02*
G01*
X156171000Y-62190000D01*
X156171000Y-62440000D01*
X156421000Y-62440000D01*
X156421000Y-62190000D01*
G37*
X156421000Y-62190000D02*
X156171000Y-62190000D01*
X156171000Y-62440000D01*
X156421000Y-62440000D01*
X156421000Y-62190000D01*
G36*
X156671000Y-62190000D02*
G01*
X156421000Y-62190000D01*
X156421000Y-62440000D01*
X156671000Y-62440000D01*
X156671000Y-62190000D01*
G37*
X156671000Y-62190000D02*
X156421000Y-62190000D01*
X156421000Y-62440000D01*
X156671000Y-62440000D01*
X156671000Y-62190000D01*
G36*
X156921000Y-62190000D02*
G01*
X156671000Y-62190000D01*
X156671000Y-62440000D01*
X156921000Y-62440000D01*
X156921000Y-62190000D01*
G37*
X156921000Y-62190000D02*
X156671000Y-62190000D01*
X156671000Y-62440000D01*
X156921000Y-62440000D01*
X156921000Y-62190000D01*
G36*
X157171000Y-62190000D02*
G01*
X156921000Y-62190000D01*
X156921000Y-62440000D01*
X157171000Y-62440000D01*
X157171000Y-62190000D01*
G37*
X157171000Y-62190000D02*
X156921000Y-62190000D01*
X156921000Y-62440000D01*
X157171000Y-62440000D01*
X157171000Y-62190000D01*
G36*
X157421000Y-62190000D02*
G01*
X157171000Y-62190000D01*
X157171000Y-62440000D01*
X157421000Y-62440000D01*
X157421000Y-62190000D01*
G37*
X157421000Y-62190000D02*
X157171000Y-62190000D01*
X157171000Y-62440000D01*
X157421000Y-62440000D01*
X157421000Y-62190000D01*
G36*
X157671000Y-62190000D02*
G01*
X157421000Y-62190000D01*
X157421000Y-62440000D01*
X157671000Y-62440000D01*
X157671000Y-62190000D01*
G37*
X157671000Y-62190000D02*
X157421000Y-62190000D01*
X157421000Y-62440000D01*
X157671000Y-62440000D01*
X157671000Y-62190000D01*
G36*
X159421000Y-62190000D02*
G01*
X159171000Y-62190000D01*
X159171000Y-62440000D01*
X159421000Y-62440000D01*
X159421000Y-62190000D01*
G37*
X159421000Y-62190000D02*
X159171000Y-62190000D01*
X159171000Y-62440000D01*
X159421000Y-62440000D01*
X159421000Y-62190000D01*
G36*
X159671000Y-62190000D02*
G01*
X159421000Y-62190000D01*
X159421000Y-62440000D01*
X159671000Y-62440000D01*
X159671000Y-62190000D01*
G37*
X159671000Y-62190000D02*
X159421000Y-62190000D01*
X159421000Y-62440000D01*
X159671000Y-62440000D01*
X159671000Y-62190000D01*
G36*
X159921000Y-62190000D02*
G01*
X159671000Y-62190000D01*
X159671000Y-62440000D01*
X159921000Y-62440000D01*
X159921000Y-62190000D01*
G37*
X159921000Y-62190000D02*
X159671000Y-62190000D01*
X159671000Y-62440000D01*
X159921000Y-62440000D01*
X159921000Y-62190000D01*
G36*
X160171000Y-62190000D02*
G01*
X159921000Y-62190000D01*
X159921000Y-62440000D01*
X160171000Y-62440000D01*
X160171000Y-62190000D01*
G37*
X160171000Y-62190000D02*
X159921000Y-62190000D01*
X159921000Y-62440000D01*
X160171000Y-62440000D01*
X160171000Y-62190000D01*
G36*
X160421000Y-62190000D02*
G01*
X160171000Y-62190000D01*
X160171000Y-62440000D01*
X160421000Y-62440000D01*
X160421000Y-62190000D01*
G37*
X160421000Y-62190000D02*
X160171000Y-62190000D01*
X160171000Y-62440000D01*
X160421000Y-62440000D01*
X160421000Y-62190000D01*
G36*
X160671000Y-62190000D02*
G01*
X160421000Y-62190000D01*
X160421000Y-62440000D01*
X160671000Y-62440000D01*
X160671000Y-62190000D01*
G37*
X160671000Y-62190000D02*
X160421000Y-62190000D01*
X160421000Y-62440000D01*
X160671000Y-62440000D01*
X160671000Y-62190000D01*
G36*
X160921000Y-62190000D02*
G01*
X160671000Y-62190000D01*
X160671000Y-62440000D01*
X160921000Y-62440000D01*
X160921000Y-62190000D01*
G37*
X160921000Y-62190000D02*
X160671000Y-62190000D01*
X160671000Y-62440000D01*
X160921000Y-62440000D01*
X160921000Y-62190000D01*
G36*
X161171000Y-62190000D02*
G01*
X160921000Y-62190000D01*
X160921000Y-62440000D01*
X161171000Y-62440000D01*
X161171000Y-62190000D01*
G37*
X161171000Y-62190000D02*
X160921000Y-62190000D01*
X160921000Y-62440000D01*
X161171000Y-62440000D01*
X161171000Y-62190000D01*
G36*
X139421000Y-61940000D02*
G01*
X139171000Y-61940000D01*
X139171000Y-62190000D01*
X139421000Y-62190000D01*
X139421000Y-61940000D01*
G37*
X139421000Y-61940000D02*
X139171000Y-61940000D01*
X139171000Y-62190000D01*
X139421000Y-62190000D01*
X139421000Y-61940000D01*
G36*
X139671000Y-61940000D02*
G01*
X139421000Y-61940000D01*
X139421000Y-62190000D01*
X139671000Y-62190000D01*
X139671000Y-61940000D01*
G37*
X139671000Y-61940000D02*
X139421000Y-61940000D01*
X139421000Y-62190000D01*
X139671000Y-62190000D01*
X139671000Y-61940000D01*
G36*
X141921000Y-61940000D02*
G01*
X141671000Y-61940000D01*
X141671000Y-62190000D01*
X141921000Y-62190000D01*
X141921000Y-61940000D01*
G37*
X141921000Y-61940000D02*
X141671000Y-61940000D01*
X141671000Y-62190000D01*
X141921000Y-62190000D01*
X141921000Y-61940000D01*
G36*
X142171000Y-61940000D02*
G01*
X141921000Y-61940000D01*
X141921000Y-62190000D01*
X142171000Y-62190000D01*
X142171000Y-61940000D01*
G37*
X142171000Y-61940000D02*
X141921000Y-61940000D01*
X141921000Y-62190000D01*
X142171000Y-62190000D01*
X142171000Y-61940000D01*
G36*
X143921000Y-61940000D02*
G01*
X143671000Y-61940000D01*
X143671000Y-62190000D01*
X143921000Y-62190000D01*
X143921000Y-61940000D01*
G37*
X143921000Y-61940000D02*
X143671000Y-61940000D01*
X143671000Y-62190000D01*
X143921000Y-62190000D01*
X143921000Y-61940000D01*
G36*
X144171000Y-61940000D02*
G01*
X143921000Y-61940000D01*
X143921000Y-62190000D01*
X144171000Y-62190000D01*
X144171000Y-61940000D01*
G37*
X144171000Y-61940000D02*
X143921000Y-61940000D01*
X143921000Y-62190000D01*
X144171000Y-62190000D01*
X144171000Y-61940000D01*
G36*
X145921000Y-61940000D02*
G01*
X145671000Y-61940000D01*
X145671000Y-62190000D01*
X145921000Y-62190000D01*
X145921000Y-61940000D01*
G37*
X145921000Y-61940000D02*
X145671000Y-61940000D01*
X145671000Y-62190000D01*
X145921000Y-62190000D01*
X145921000Y-61940000D01*
G36*
X146171000Y-61940000D02*
G01*
X145921000Y-61940000D01*
X145921000Y-62190000D01*
X146171000Y-62190000D01*
X146171000Y-61940000D01*
G37*
X146171000Y-61940000D02*
X145921000Y-61940000D01*
X145921000Y-62190000D01*
X146171000Y-62190000D01*
X146171000Y-61940000D01*
G36*
X147921000Y-61940000D02*
G01*
X147671000Y-61940000D01*
X147671000Y-62190000D01*
X147921000Y-62190000D01*
X147921000Y-61940000D01*
G37*
X147921000Y-61940000D02*
X147671000Y-61940000D01*
X147671000Y-62190000D01*
X147921000Y-62190000D01*
X147921000Y-61940000D01*
G36*
X148171000Y-61940000D02*
G01*
X147921000Y-61940000D01*
X147921000Y-62190000D01*
X148171000Y-62190000D01*
X148171000Y-61940000D01*
G37*
X148171000Y-61940000D02*
X147921000Y-61940000D01*
X147921000Y-62190000D01*
X148171000Y-62190000D01*
X148171000Y-61940000D01*
G36*
X151421000Y-61940000D02*
G01*
X151171000Y-61940000D01*
X151171000Y-62190000D01*
X151421000Y-62190000D01*
X151421000Y-61940000D01*
G37*
X151421000Y-61940000D02*
X151171000Y-61940000D01*
X151171000Y-62190000D01*
X151421000Y-62190000D01*
X151421000Y-61940000D01*
G36*
X151671000Y-61940000D02*
G01*
X151421000Y-61940000D01*
X151421000Y-62190000D01*
X151671000Y-62190000D01*
X151671000Y-61940000D01*
G37*
X151671000Y-61940000D02*
X151421000Y-61940000D01*
X151421000Y-62190000D01*
X151671000Y-62190000D01*
X151671000Y-61940000D01*
G36*
X152921000Y-61940000D02*
G01*
X152671000Y-61940000D01*
X152671000Y-62190000D01*
X152921000Y-62190000D01*
X152921000Y-61940000D01*
G37*
X152921000Y-61940000D02*
X152671000Y-61940000D01*
X152671000Y-62190000D01*
X152921000Y-62190000D01*
X152921000Y-61940000D01*
G36*
X153171000Y-61940000D02*
G01*
X152921000Y-61940000D01*
X152921000Y-62190000D01*
X153171000Y-62190000D01*
X153171000Y-61940000D01*
G37*
X153171000Y-61940000D02*
X152921000Y-61940000D01*
X152921000Y-62190000D01*
X153171000Y-62190000D01*
X153171000Y-61940000D01*
G36*
X154921000Y-61940000D02*
G01*
X154671000Y-61940000D01*
X154671000Y-62190000D01*
X154921000Y-62190000D01*
X154921000Y-61940000D01*
G37*
X154921000Y-61940000D02*
X154671000Y-61940000D01*
X154671000Y-62190000D01*
X154921000Y-62190000D01*
X154921000Y-61940000D01*
G36*
X155171000Y-61940000D02*
G01*
X154921000Y-61940000D01*
X154921000Y-62190000D01*
X155171000Y-62190000D01*
X155171000Y-61940000D01*
G37*
X155171000Y-61940000D02*
X154921000Y-61940000D01*
X154921000Y-62190000D01*
X155171000Y-62190000D01*
X155171000Y-61940000D01*
G36*
X156921000Y-61940000D02*
G01*
X156671000Y-61940000D01*
X156671000Y-62190000D01*
X156921000Y-62190000D01*
X156921000Y-61940000D01*
G37*
X156921000Y-61940000D02*
X156671000Y-61940000D01*
X156671000Y-62190000D01*
X156921000Y-62190000D01*
X156921000Y-61940000D01*
G36*
X157171000Y-61940000D02*
G01*
X156921000Y-61940000D01*
X156921000Y-62190000D01*
X157171000Y-62190000D01*
X157171000Y-61940000D01*
G37*
X157171000Y-61940000D02*
X156921000Y-61940000D01*
X156921000Y-62190000D01*
X157171000Y-62190000D01*
X157171000Y-61940000D01*
G36*
X158921000Y-61940000D02*
G01*
X158671000Y-61940000D01*
X158671000Y-62190000D01*
X158921000Y-62190000D01*
X158921000Y-61940000D01*
G37*
X158921000Y-61940000D02*
X158671000Y-61940000D01*
X158671000Y-62190000D01*
X158921000Y-62190000D01*
X158921000Y-61940000D01*
G36*
X159171000Y-61940000D02*
G01*
X158921000Y-61940000D01*
X158921000Y-62190000D01*
X159171000Y-62190000D01*
X159171000Y-61940000D01*
G37*
X159171000Y-61940000D02*
X158921000Y-61940000D01*
X158921000Y-62190000D01*
X159171000Y-62190000D01*
X159171000Y-61940000D01*
G36*
X139421000Y-61690000D02*
G01*
X139171000Y-61690000D01*
X139171000Y-61940000D01*
X139421000Y-61940000D01*
X139421000Y-61690000D01*
G37*
X139421000Y-61690000D02*
X139171000Y-61690000D01*
X139171000Y-61940000D01*
X139421000Y-61940000D01*
X139421000Y-61690000D01*
G36*
X139671000Y-61690000D02*
G01*
X139421000Y-61690000D01*
X139421000Y-61940000D01*
X139671000Y-61940000D01*
X139671000Y-61690000D01*
G37*
X139671000Y-61690000D02*
X139421000Y-61690000D01*
X139421000Y-61940000D01*
X139671000Y-61940000D01*
X139671000Y-61690000D01*
G36*
X141921000Y-61690000D02*
G01*
X141671000Y-61690000D01*
X141671000Y-61940000D01*
X141921000Y-61940000D01*
X141921000Y-61690000D01*
G37*
X141921000Y-61690000D02*
X141671000Y-61690000D01*
X141671000Y-61940000D01*
X141921000Y-61940000D01*
X141921000Y-61690000D01*
G36*
X142171000Y-61690000D02*
G01*
X141921000Y-61690000D01*
X141921000Y-61940000D01*
X142171000Y-61940000D01*
X142171000Y-61690000D01*
G37*
X142171000Y-61690000D02*
X141921000Y-61690000D01*
X141921000Y-61940000D01*
X142171000Y-61940000D01*
X142171000Y-61690000D01*
G36*
X143921000Y-61690000D02*
G01*
X143671000Y-61690000D01*
X143671000Y-61940000D01*
X143921000Y-61940000D01*
X143921000Y-61690000D01*
G37*
X143921000Y-61690000D02*
X143671000Y-61690000D01*
X143671000Y-61940000D01*
X143921000Y-61940000D01*
X143921000Y-61690000D01*
G36*
X144171000Y-61690000D02*
G01*
X143921000Y-61690000D01*
X143921000Y-61940000D01*
X144171000Y-61940000D01*
X144171000Y-61690000D01*
G37*
X144171000Y-61690000D02*
X143921000Y-61690000D01*
X143921000Y-61940000D01*
X144171000Y-61940000D01*
X144171000Y-61690000D01*
G36*
X145921000Y-61690000D02*
G01*
X145671000Y-61690000D01*
X145671000Y-61940000D01*
X145921000Y-61940000D01*
X145921000Y-61690000D01*
G37*
X145921000Y-61690000D02*
X145671000Y-61690000D01*
X145671000Y-61940000D01*
X145921000Y-61940000D01*
X145921000Y-61690000D01*
G36*
X146171000Y-61690000D02*
G01*
X145921000Y-61690000D01*
X145921000Y-61940000D01*
X146171000Y-61940000D01*
X146171000Y-61690000D01*
G37*
X146171000Y-61690000D02*
X145921000Y-61690000D01*
X145921000Y-61940000D01*
X146171000Y-61940000D01*
X146171000Y-61690000D01*
G36*
X147921000Y-61690000D02*
G01*
X147671000Y-61690000D01*
X147671000Y-61940000D01*
X147921000Y-61940000D01*
X147921000Y-61690000D01*
G37*
X147921000Y-61690000D02*
X147671000Y-61690000D01*
X147671000Y-61940000D01*
X147921000Y-61940000D01*
X147921000Y-61690000D01*
G36*
X148171000Y-61690000D02*
G01*
X147921000Y-61690000D01*
X147921000Y-61940000D01*
X148171000Y-61940000D01*
X148171000Y-61690000D01*
G37*
X148171000Y-61690000D02*
X147921000Y-61690000D01*
X147921000Y-61940000D01*
X148171000Y-61940000D01*
X148171000Y-61690000D01*
G36*
X151421000Y-61690000D02*
G01*
X151171000Y-61690000D01*
X151171000Y-61940000D01*
X151421000Y-61940000D01*
X151421000Y-61690000D01*
G37*
X151421000Y-61690000D02*
X151171000Y-61690000D01*
X151171000Y-61940000D01*
X151421000Y-61940000D01*
X151421000Y-61690000D01*
G36*
X151671000Y-61690000D02*
G01*
X151421000Y-61690000D01*
X151421000Y-61940000D01*
X151671000Y-61940000D01*
X151671000Y-61690000D01*
G37*
X151671000Y-61690000D02*
X151421000Y-61690000D01*
X151421000Y-61940000D01*
X151671000Y-61940000D01*
X151671000Y-61690000D01*
G36*
X152921000Y-61690000D02*
G01*
X152671000Y-61690000D01*
X152671000Y-61940000D01*
X152921000Y-61940000D01*
X152921000Y-61690000D01*
G37*
X152921000Y-61690000D02*
X152671000Y-61690000D01*
X152671000Y-61940000D01*
X152921000Y-61940000D01*
X152921000Y-61690000D01*
G36*
X153171000Y-61690000D02*
G01*
X152921000Y-61690000D01*
X152921000Y-61940000D01*
X153171000Y-61940000D01*
X153171000Y-61690000D01*
G37*
X153171000Y-61690000D02*
X152921000Y-61690000D01*
X152921000Y-61940000D01*
X153171000Y-61940000D01*
X153171000Y-61690000D01*
G36*
X154921000Y-61690000D02*
G01*
X154671000Y-61690000D01*
X154671000Y-61940000D01*
X154921000Y-61940000D01*
X154921000Y-61690000D01*
G37*
X154921000Y-61690000D02*
X154671000Y-61690000D01*
X154671000Y-61940000D01*
X154921000Y-61940000D01*
X154921000Y-61690000D01*
G36*
X155171000Y-61690000D02*
G01*
X154921000Y-61690000D01*
X154921000Y-61940000D01*
X155171000Y-61940000D01*
X155171000Y-61690000D01*
G37*
X155171000Y-61690000D02*
X154921000Y-61690000D01*
X154921000Y-61940000D01*
X155171000Y-61940000D01*
X155171000Y-61690000D01*
G36*
X156921000Y-61690000D02*
G01*
X156671000Y-61690000D01*
X156671000Y-61940000D01*
X156921000Y-61940000D01*
X156921000Y-61690000D01*
G37*
X156921000Y-61690000D02*
X156671000Y-61690000D01*
X156671000Y-61940000D01*
X156921000Y-61940000D01*
X156921000Y-61690000D01*
G36*
X157171000Y-61690000D02*
G01*
X156921000Y-61690000D01*
X156921000Y-61940000D01*
X157171000Y-61940000D01*
X157171000Y-61690000D01*
G37*
X157171000Y-61690000D02*
X156921000Y-61690000D01*
X156921000Y-61940000D01*
X157171000Y-61940000D01*
X157171000Y-61690000D01*
G36*
X158921000Y-61690000D02*
G01*
X158671000Y-61690000D01*
X158671000Y-61940000D01*
X158921000Y-61940000D01*
X158921000Y-61690000D01*
G37*
X158921000Y-61690000D02*
X158671000Y-61690000D01*
X158671000Y-61940000D01*
X158921000Y-61940000D01*
X158921000Y-61690000D01*
G36*
X159171000Y-61690000D02*
G01*
X158921000Y-61690000D01*
X158921000Y-61940000D01*
X159171000Y-61940000D01*
X159171000Y-61690000D01*
G37*
X159171000Y-61690000D02*
X158921000Y-61690000D01*
X158921000Y-61940000D01*
X159171000Y-61940000D01*
X159171000Y-61690000D01*
G36*
X139421000Y-61440000D02*
G01*
X139171000Y-61440000D01*
X139171000Y-61690000D01*
X139421000Y-61690000D01*
X139421000Y-61440000D01*
G37*
X139421000Y-61440000D02*
X139171000Y-61440000D01*
X139171000Y-61690000D01*
X139421000Y-61690000D01*
X139421000Y-61440000D01*
G36*
X139671000Y-61440000D02*
G01*
X139421000Y-61440000D01*
X139421000Y-61690000D01*
X139671000Y-61690000D01*
X139671000Y-61440000D01*
G37*
X139671000Y-61440000D02*
X139421000Y-61440000D01*
X139421000Y-61690000D01*
X139671000Y-61690000D01*
X139671000Y-61440000D01*
G36*
X141921000Y-61440000D02*
G01*
X141671000Y-61440000D01*
X141671000Y-61690000D01*
X141921000Y-61690000D01*
X141921000Y-61440000D01*
G37*
X141921000Y-61440000D02*
X141671000Y-61440000D01*
X141671000Y-61690000D01*
X141921000Y-61690000D01*
X141921000Y-61440000D01*
G36*
X142171000Y-61440000D02*
G01*
X141921000Y-61440000D01*
X141921000Y-61690000D01*
X142171000Y-61690000D01*
X142171000Y-61440000D01*
G37*
X142171000Y-61440000D02*
X141921000Y-61440000D01*
X141921000Y-61690000D01*
X142171000Y-61690000D01*
X142171000Y-61440000D01*
G36*
X143921000Y-61440000D02*
G01*
X143671000Y-61440000D01*
X143671000Y-61690000D01*
X143921000Y-61690000D01*
X143921000Y-61440000D01*
G37*
X143921000Y-61440000D02*
X143671000Y-61440000D01*
X143671000Y-61690000D01*
X143921000Y-61690000D01*
X143921000Y-61440000D01*
G36*
X144171000Y-61440000D02*
G01*
X143921000Y-61440000D01*
X143921000Y-61690000D01*
X144171000Y-61690000D01*
X144171000Y-61440000D01*
G37*
X144171000Y-61440000D02*
X143921000Y-61440000D01*
X143921000Y-61690000D01*
X144171000Y-61690000D01*
X144171000Y-61440000D01*
G36*
X144421000Y-61440000D02*
G01*
X144171000Y-61440000D01*
X144171000Y-61690000D01*
X144421000Y-61690000D01*
X144421000Y-61440000D01*
G37*
X144421000Y-61440000D02*
X144171000Y-61440000D01*
X144171000Y-61690000D01*
X144421000Y-61690000D01*
X144421000Y-61440000D01*
G36*
X144671000Y-61440000D02*
G01*
X144421000Y-61440000D01*
X144421000Y-61690000D01*
X144671000Y-61690000D01*
X144671000Y-61440000D01*
G37*
X144671000Y-61440000D02*
X144421000Y-61440000D01*
X144421000Y-61690000D01*
X144671000Y-61690000D01*
X144671000Y-61440000D01*
G36*
X144921000Y-61440000D02*
G01*
X144671000Y-61440000D01*
X144671000Y-61690000D01*
X144921000Y-61690000D01*
X144921000Y-61440000D01*
G37*
X144921000Y-61440000D02*
X144671000Y-61440000D01*
X144671000Y-61690000D01*
X144921000Y-61690000D01*
X144921000Y-61440000D01*
G36*
X145171000Y-61440000D02*
G01*
X144921000Y-61440000D01*
X144921000Y-61690000D01*
X145171000Y-61690000D01*
X145171000Y-61440000D01*
G37*
X145171000Y-61440000D02*
X144921000Y-61440000D01*
X144921000Y-61690000D01*
X145171000Y-61690000D01*
X145171000Y-61440000D01*
G36*
X145421000Y-61440000D02*
G01*
X145171000Y-61440000D01*
X145171000Y-61690000D01*
X145421000Y-61690000D01*
X145421000Y-61440000D01*
G37*
X145421000Y-61440000D02*
X145171000Y-61440000D01*
X145171000Y-61690000D01*
X145421000Y-61690000D01*
X145421000Y-61440000D01*
G36*
X145671000Y-61440000D02*
G01*
X145421000Y-61440000D01*
X145421000Y-61690000D01*
X145671000Y-61690000D01*
X145671000Y-61440000D01*
G37*
X145671000Y-61440000D02*
X145421000Y-61440000D01*
X145421000Y-61690000D01*
X145671000Y-61690000D01*
X145671000Y-61440000D01*
G36*
X147921000Y-61440000D02*
G01*
X147671000Y-61440000D01*
X147671000Y-61690000D01*
X147921000Y-61690000D01*
X147921000Y-61440000D01*
G37*
X147921000Y-61440000D02*
X147671000Y-61440000D01*
X147671000Y-61690000D01*
X147921000Y-61690000D01*
X147921000Y-61440000D01*
G36*
X148171000Y-61440000D02*
G01*
X147921000Y-61440000D01*
X147921000Y-61690000D01*
X148171000Y-61690000D01*
X148171000Y-61440000D01*
G37*
X148171000Y-61440000D02*
X147921000Y-61440000D01*
X147921000Y-61690000D01*
X148171000Y-61690000D01*
X148171000Y-61440000D01*
G36*
X151421000Y-61440000D02*
G01*
X151171000Y-61440000D01*
X151171000Y-61690000D01*
X151421000Y-61690000D01*
X151421000Y-61440000D01*
G37*
X151421000Y-61440000D02*
X151171000Y-61440000D01*
X151171000Y-61690000D01*
X151421000Y-61690000D01*
X151421000Y-61440000D01*
G36*
X151671000Y-61440000D02*
G01*
X151421000Y-61440000D01*
X151421000Y-61690000D01*
X151671000Y-61690000D01*
X151671000Y-61440000D01*
G37*
X151671000Y-61440000D02*
X151421000Y-61440000D01*
X151421000Y-61690000D01*
X151671000Y-61690000D01*
X151671000Y-61440000D01*
G36*
X152921000Y-61440000D02*
G01*
X152671000Y-61440000D01*
X152671000Y-61690000D01*
X152921000Y-61690000D01*
X152921000Y-61440000D01*
G37*
X152921000Y-61440000D02*
X152671000Y-61440000D01*
X152671000Y-61690000D01*
X152921000Y-61690000D01*
X152921000Y-61440000D01*
G36*
X153171000Y-61440000D02*
G01*
X152921000Y-61440000D01*
X152921000Y-61690000D01*
X153171000Y-61690000D01*
X153171000Y-61440000D01*
G37*
X153171000Y-61440000D02*
X152921000Y-61440000D01*
X152921000Y-61690000D01*
X153171000Y-61690000D01*
X153171000Y-61440000D01*
G36*
X154921000Y-61440000D02*
G01*
X154671000Y-61440000D01*
X154671000Y-61690000D01*
X154921000Y-61690000D01*
X154921000Y-61440000D01*
G37*
X154921000Y-61440000D02*
X154671000Y-61440000D01*
X154671000Y-61690000D01*
X154921000Y-61690000D01*
X154921000Y-61440000D01*
G36*
X155171000Y-61440000D02*
G01*
X154921000Y-61440000D01*
X154921000Y-61690000D01*
X155171000Y-61690000D01*
X155171000Y-61440000D01*
G37*
X155171000Y-61440000D02*
X154921000Y-61440000D01*
X154921000Y-61690000D01*
X155171000Y-61690000D01*
X155171000Y-61440000D01*
G36*
X156921000Y-61440000D02*
G01*
X156671000Y-61440000D01*
X156671000Y-61690000D01*
X156921000Y-61690000D01*
X156921000Y-61440000D01*
G37*
X156921000Y-61440000D02*
X156671000Y-61440000D01*
X156671000Y-61690000D01*
X156921000Y-61690000D01*
X156921000Y-61440000D01*
G36*
X157171000Y-61440000D02*
G01*
X156921000Y-61440000D01*
X156921000Y-61690000D01*
X157171000Y-61690000D01*
X157171000Y-61440000D01*
G37*
X157171000Y-61440000D02*
X156921000Y-61440000D01*
X156921000Y-61690000D01*
X157171000Y-61690000D01*
X157171000Y-61440000D01*
G36*
X159421000Y-61440000D02*
G01*
X159171000Y-61440000D01*
X159171000Y-61690000D01*
X159421000Y-61690000D01*
X159421000Y-61440000D01*
G37*
X159421000Y-61440000D02*
X159171000Y-61440000D01*
X159171000Y-61690000D01*
X159421000Y-61690000D01*
X159421000Y-61440000D01*
G36*
X159671000Y-61440000D02*
G01*
X159421000Y-61440000D01*
X159421000Y-61690000D01*
X159671000Y-61690000D01*
X159671000Y-61440000D01*
G37*
X159671000Y-61440000D02*
X159421000Y-61440000D01*
X159421000Y-61690000D01*
X159671000Y-61690000D01*
X159671000Y-61440000D01*
G36*
X159921000Y-61440000D02*
G01*
X159671000Y-61440000D01*
X159671000Y-61690000D01*
X159921000Y-61690000D01*
X159921000Y-61440000D01*
G37*
X159921000Y-61440000D02*
X159671000Y-61440000D01*
X159671000Y-61690000D01*
X159921000Y-61690000D01*
X159921000Y-61440000D01*
G36*
X160171000Y-61440000D02*
G01*
X159921000Y-61440000D01*
X159921000Y-61690000D01*
X160171000Y-61690000D01*
X160171000Y-61440000D01*
G37*
X160171000Y-61440000D02*
X159921000Y-61440000D01*
X159921000Y-61690000D01*
X160171000Y-61690000D01*
X160171000Y-61440000D01*
G36*
X160421000Y-61440000D02*
G01*
X160171000Y-61440000D01*
X160171000Y-61690000D01*
X160421000Y-61690000D01*
X160421000Y-61440000D01*
G37*
X160421000Y-61440000D02*
X160171000Y-61440000D01*
X160171000Y-61690000D01*
X160421000Y-61690000D01*
X160421000Y-61440000D01*
G36*
X160671000Y-61440000D02*
G01*
X160421000Y-61440000D01*
X160421000Y-61690000D01*
X160671000Y-61690000D01*
X160671000Y-61440000D01*
G37*
X160671000Y-61440000D02*
X160421000Y-61440000D01*
X160421000Y-61690000D01*
X160671000Y-61690000D01*
X160671000Y-61440000D01*
G36*
X139421000Y-61190000D02*
G01*
X139171000Y-61190000D01*
X139171000Y-61440000D01*
X139421000Y-61440000D01*
X139421000Y-61190000D01*
G37*
X139421000Y-61190000D02*
X139171000Y-61190000D01*
X139171000Y-61440000D01*
X139421000Y-61440000D01*
X139421000Y-61190000D01*
G36*
X139671000Y-61190000D02*
G01*
X139421000Y-61190000D01*
X139421000Y-61440000D01*
X139671000Y-61440000D01*
X139671000Y-61190000D01*
G37*
X139671000Y-61190000D02*
X139421000Y-61190000D01*
X139421000Y-61440000D01*
X139671000Y-61440000D01*
X139671000Y-61190000D01*
G36*
X141921000Y-61190000D02*
G01*
X141671000Y-61190000D01*
X141671000Y-61440000D01*
X141921000Y-61440000D01*
X141921000Y-61190000D01*
G37*
X141921000Y-61190000D02*
X141671000Y-61190000D01*
X141671000Y-61440000D01*
X141921000Y-61440000D01*
X141921000Y-61190000D01*
G36*
X142171000Y-61190000D02*
G01*
X141921000Y-61190000D01*
X141921000Y-61440000D01*
X142171000Y-61440000D01*
X142171000Y-61190000D01*
G37*
X142171000Y-61190000D02*
X141921000Y-61190000D01*
X141921000Y-61440000D01*
X142171000Y-61440000D01*
X142171000Y-61190000D01*
G36*
X143921000Y-61190000D02*
G01*
X143671000Y-61190000D01*
X143671000Y-61440000D01*
X143921000Y-61440000D01*
X143921000Y-61190000D01*
G37*
X143921000Y-61190000D02*
X143671000Y-61190000D01*
X143671000Y-61440000D01*
X143921000Y-61440000D01*
X143921000Y-61190000D01*
G36*
X144171000Y-61190000D02*
G01*
X143921000Y-61190000D01*
X143921000Y-61440000D01*
X144171000Y-61440000D01*
X144171000Y-61190000D01*
G37*
X144171000Y-61190000D02*
X143921000Y-61190000D01*
X143921000Y-61440000D01*
X144171000Y-61440000D01*
X144171000Y-61190000D01*
G36*
X144421000Y-61190000D02*
G01*
X144171000Y-61190000D01*
X144171000Y-61440000D01*
X144421000Y-61440000D01*
X144421000Y-61190000D01*
G37*
X144421000Y-61190000D02*
X144171000Y-61190000D01*
X144171000Y-61440000D01*
X144421000Y-61440000D01*
X144421000Y-61190000D01*
G36*
X144671000Y-61190000D02*
G01*
X144421000Y-61190000D01*
X144421000Y-61440000D01*
X144671000Y-61440000D01*
X144671000Y-61190000D01*
G37*
X144671000Y-61190000D02*
X144421000Y-61190000D01*
X144421000Y-61440000D01*
X144671000Y-61440000D01*
X144671000Y-61190000D01*
G36*
X144921000Y-61190000D02*
G01*
X144671000Y-61190000D01*
X144671000Y-61440000D01*
X144921000Y-61440000D01*
X144921000Y-61190000D01*
G37*
X144921000Y-61190000D02*
X144671000Y-61190000D01*
X144671000Y-61440000D01*
X144921000Y-61440000D01*
X144921000Y-61190000D01*
G36*
X145171000Y-61190000D02*
G01*
X144921000Y-61190000D01*
X144921000Y-61440000D01*
X145171000Y-61440000D01*
X145171000Y-61190000D01*
G37*
X145171000Y-61190000D02*
X144921000Y-61190000D01*
X144921000Y-61440000D01*
X145171000Y-61440000D01*
X145171000Y-61190000D01*
G36*
X145421000Y-61190000D02*
G01*
X145171000Y-61190000D01*
X145171000Y-61440000D01*
X145421000Y-61440000D01*
X145421000Y-61190000D01*
G37*
X145421000Y-61190000D02*
X145171000Y-61190000D01*
X145171000Y-61440000D01*
X145421000Y-61440000D01*
X145421000Y-61190000D01*
G36*
X145671000Y-61190000D02*
G01*
X145421000Y-61190000D01*
X145421000Y-61440000D01*
X145671000Y-61440000D01*
X145671000Y-61190000D01*
G37*
X145671000Y-61190000D02*
X145421000Y-61190000D01*
X145421000Y-61440000D01*
X145671000Y-61440000D01*
X145671000Y-61190000D01*
G36*
X147921000Y-61190000D02*
G01*
X147671000Y-61190000D01*
X147671000Y-61440000D01*
X147921000Y-61440000D01*
X147921000Y-61190000D01*
G37*
X147921000Y-61190000D02*
X147671000Y-61190000D01*
X147671000Y-61440000D01*
X147921000Y-61440000D01*
X147921000Y-61190000D01*
G36*
X148171000Y-61190000D02*
G01*
X147921000Y-61190000D01*
X147921000Y-61440000D01*
X148171000Y-61440000D01*
X148171000Y-61190000D01*
G37*
X148171000Y-61190000D02*
X147921000Y-61190000D01*
X147921000Y-61440000D01*
X148171000Y-61440000D01*
X148171000Y-61190000D01*
G36*
X151421000Y-61190000D02*
G01*
X151171000Y-61190000D01*
X151171000Y-61440000D01*
X151421000Y-61440000D01*
X151421000Y-61190000D01*
G37*
X151421000Y-61190000D02*
X151171000Y-61190000D01*
X151171000Y-61440000D01*
X151421000Y-61440000D01*
X151421000Y-61190000D01*
G36*
X151671000Y-61190000D02*
G01*
X151421000Y-61190000D01*
X151421000Y-61440000D01*
X151671000Y-61440000D01*
X151671000Y-61190000D01*
G37*
X151671000Y-61190000D02*
X151421000Y-61190000D01*
X151421000Y-61440000D01*
X151671000Y-61440000D01*
X151671000Y-61190000D01*
G36*
X152921000Y-61190000D02*
G01*
X152671000Y-61190000D01*
X152671000Y-61440000D01*
X152921000Y-61440000D01*
X152921000Y-61190000D01*
G37*
X152921000Y-61190000D02*
X152671000Y-61190000D01*
X152671000Y-61440000D01*
X152921000Y-61440000D01*
X152921000Y-61190000D01*
G36*
X153171000Y-61190000D02*
G01*
X152921000Y-61190000D01*
X152921000Y-61440000D01*
X153171000Y-61440000D01*
X153171000Y-61190000D01*
G37*
X153171000Y-61190000D02*
X152921000Y-61190000D01*
X152921000Y-61440000D01*
X153171000Y-61440000D01*
X153171000Y-61190000D01*
G36*
X154921000Y-61190000D02*
G01*
X154671000Y-61190000D01*
X154671000Y-61440000D01*
X154921000Y-61440000D01*
X154921000Y-61190000D01*
G37*
X154921000Y-61190000D02*
X154671000Y-61190000D01*
X154671000Y-61440000D01*
X154921000Y-61440000D01*
X154921000Y-61190000D01*
G36*
X155171000Y-61190000D02*
G01*
X154921000Y-61190000D01*
X154921000Y-61440000D01*
X155171000Y-61440000D01*
X155171000Y-61190000D01*
G37*
X155171000Y-61190000D02*
X154921000Y-61190000D01*
X154921000Y-61440000D01*
X155171000Y-61440000D01*
X155171000Y-61190000D01*
G36*
X156921000Y-61190000D02*
G01*
X156671000Y-61190000D01*
X156671000Y-61440000D01*
X156921000Y-61440000D01*
X156921000Y-61190000D01*
G37*
X156921000Y-61190000D02*
X156671000Y-61190000D01*
X156671000Y-61440000D01*
X156921000Y-61440000D01*
X156921000Y-61190000D01*
G36*
X157171000Y-61190000D02*
G01*
X156921000Y-61190000D01*
X156921000Y-61440000D01*
X157171000Y-61440000D01*
X157171000Y-61190000D01*
G37*
X157171000Y-61190000D02*
X156921000Y-61190000D01*
X156921000Y-61440000D01*
X157171000Y-61440000D01*
X157171000Y-61190000D01*
G36*
X159421000Y-61190000D02*
G01*
X159171000Y-61190000D01*
X159171000Y-61440000D01*
X159421000Y-61440000D01*
X159421000Y-61190000D01*
G37*
X159421000Y-61190000D02*
X159171000Y-61190000D01*
X159171000Y-61440000D01*
X159421000Y-61440000D01*
X159421000Y-61190000D01*
G36*
X159671000Y-61190000D02*
G01*
X159421000Y-61190000D01*
X159421000Y-61440000D01*
X159671000Y-61440000D01*
X159671000Y-61190000D01*
G37*
X159671000Y-61190000D02*
X159421000Y-61190000D01*
X159421000Y-61440000D01*
X159671000Y-61440000D01*
X159671000Y-61190000D01*
G36*
X159921000Y-61190000D02*
G01*
X159671000Y-61190000D01*
X159671000Y-61440000D01*
X159921000Y-61440000D01*
X159921000Y-61190000D01*
G37*
X159921000Y-61190000D02*
X159671000Y-61190000D01*
X159671000Y-61440000D01*
X159921000Y-61440000D01*
X159921000Y-61190000D01*
G36*
X160171000Y-61190000D02*
G01*
X159921000Y-61190000D01*
X159921000Y-61440000D01*
X160171000Y-61440000D01*
X160171000Y-61190000D01*
G37*
X160171000Y-61190000D02*
X159921000Y-61190000D01*
X159921000Y-61440000D01*
X160171000Y-61440000D01*
X160171000Y-61190000D01*
G36*
X160421000Y-61190000D02*
G01*
X160171000Y-61190000D01*
X160171000Y-61440000D01*
X160421000Y-61440000D01*
X160421000Y-61190000D01*
G37*
X160421000Y-61190000D02*
X160171000Y-61190000D01*
X160171000Y-61440000D01*
X160421000Y-61440000D01*
X160421000Y-61190000D01*
G36*
X160671000Y-61190000D02*
G01*
X160421000Y-61190000D01*
X160421000Y-61440000D01*
X160671000Y-61440000D01*
X160671000Y-61190000D01*
G37*
X160671000Y-61190000D02*
X160421000Y-61190000D01*
X160421000Y-61440000D01*
X160671000Y-61440000D01*
X160671000Y-61190000D01*
G36*
X139421000Y-60940000D02*
G01*
X139171000Y-60940000D01*
X139171000Y-61190000D01*
X139421000Y-61190000D01*
X139421000Y-60940000D01*
G37*
X139421000Y-60940000D02*
X139171000Y-60940000D01*
X139171000Y-61190000D01*
X139421000Y-61190000D01*
X139421000Y-60940000D01*
G36*
X139671000Y-60940000D02*
G01*
X139421000Y-60940000D01*
X139421000Y-61190000D01*
X139671000Y-61190000D01*
X139671000Y-60940000D01*
G37*
X139671000Y-60940000D02*
X139421000Y-60940000D01*
X139421000Y-61190000D01*
X139671000Y-61190000D01*
X139671000Y-60940000D01*
G36*
X141921000Y-60940000D02*
G01*
X141671000Y-60940000D01*
X141671000Y-61190000D01*
X141921000Y-61190000D01*
X141921000Y-60940000D01*
G37*
X141921000Y-60940000D02*
X141671000Y-60940000D01*
X141671000Y-61190000D01*
X141921000Y-61190000D01*
X141921000Y-60940000D01*
G36*
X142171000Y-60940000D02*
G01*
X141921000Y-60940000D01*
X141921000Y-61190000D01*
X142171000Y-61190000D01*
X142171000Y-60940000D01*
G37*
X142171000Y-60940000D02*
X141921000Y-60940000D01*
X141921000Y-61190000D01*
X142171000Y-61190000D01*
X142171000Y-60940000D01*
G36*
X142421000Y-60940000D02*
G01*
X142171000Y-60940000D01*
X142171000Y-61190000D01*
X142421000Y-61190000D01*
X142421000Y-60940000D01*
G37*
X142421000Y-60940000D02*
X142171000Y-60940000D01*
X142171000Y-61190000D01*
X142421000Y-61190000D01*
X142421000Y-60940000D01*
G36*
X142671000Y-60940000D02*
G01*
X142421000Y-60940000D01*
X142421000Y-61190000D01*
X142671000Y-61190000D01*
X142671000Y-60940000D01*
G37*
X142671000Y-60940000D02*
X142421000Y-60940000D01*
X142421000Y-61190000D01*
X142671000Y-61190000D01*
X142671000Y-60940000D01*
G36*
X143921000Y-60940000D02*
G01*
X143671000Y-60940000D01*
X143671000Y-61190000D01*
X143921000Y-61190000D01*
X143921000Y-60940000D01*
G37*
X143921000Y-60940000D02*
X143671000Y-60940000D01*
X143671000Y-61190000D01*
X143921000Y-61190000D01*
X143921000Y-60940000D01*
G36*
X144171000Y-60940000D02*
G01*
X143921000Y-60940000D01*
X143921000Y-61190000D01*
X144171000Y-61190000D01*
X144171000Y-60940000D01*
G37*
X144171000Y-60940000D02*
X143921000Y-60940000D01*
X143921000Y-61190000D01*
X144171000Y-61190000D01*
X144171000Y-60940000D01*
G36*
X147921000Y-60940000D02*
G01*
X147671000Y-60940000D01*
X147671000Y-61190000D01*
X147921000Y-61190000D01*
X147921000Y-60940000D01*
G37*
X147921000Y-60940000D02*
X147671000Y-60940000D01*
X147671000Y-61190000D01*
X147921000Y-61190000D01*
X147921000Y-60940000D01*
G36*
X148171000Y-60940000D02*
G01*
X147921000Y-60940000D01*
X147921000Y-61190000D01*
X148171000Y-61190000D01*
X148171000Y-60940000D01*
G37*
X148171000Y-60940000D02*
X147921000Y-60940000D01*
X147921000Y-61190000D01*
X148171000Y-61190000D01*
X148171000Y-60940000D01*
G36*
X151421000Y-60940000D02*
G01*
X151171000Y-60940000D01*
X151171000Y-61190000D01*
X151421000Y-61190000D01*
X151421000Y-60940000D01*
G37*
X151421000Y-60940000D02*
X151171000Y-60940000D01*
X151171000Y-61190000D01*
X151421000Y-61190000D01*
X151421000Y-60940000D01*
G36*
X151671000Y-60940000D02*
G01*
X151421000Y-60940000D01*
X151421000Y-61190000D01*
X151671000Y-61190000D01*
X151671000Y-60940000D01*
G37*
X151671000Y-60940000D02*
X151421000Y-60940000D01*
X151421000Y-61190000D01*
X151671000Y-61190000D01*
X151671000Y-60940000D01*
G36*
X152921000Y-60940000D02*
G01*
X152671000Y-60940000D01*
X152671000Y-61190000D01*
X152921000Y-61190000D01*
X152921000Y-60940000D01*
G37*
X152921000Y-60940000D02*
X152671000Y-60940000D01*
X152671000Y-61190000D01*
X152921000Y-61190000D01*
X152921000Y-60940000D01*
G36*
X153171000Y-60940000D02*
G01*
X152921000Y-60940000D01*
X152921000Y-61190000D01*
X153171000Y-61190000D01*
X153171000Y-60940000D01*
G37*
X153171000Y-60940000D02*
X152921000Y-60940000D01*
X152921000Y-61190000D01*
X153171000Y-61190000D01*
X153171000Y-60940000D01*
G36*
X154921000Y-60940000D02*
G01*
X154671000Y-60940000D01*
X154671000Y-61190000D01*
X154921000Y-61190000D01*
X154921000Y-60940000D01*
G37*
X154921000Y-60940000D02*
X154671000Y-60940000D01*
X154671000Y-61190000D01*
X154921000Y-61190000D01*
X154921000Y-60940000D01*
G36*
X155171000Y-60940000D02*
G01*
X154921000Y-60940000D01*
X154921000Y-61190000D01*
X155171000Y-61190000D01*
X155171000Y-60940000D01*
G37*
X155171000Y-60940000D02*
X154921000Y-60940000D01*
X154921000Y-61190000D01*
X155171000Y-61190000D01*
X155171000Y-60940000D01*
G36*
X156921000Y-60940000D02*
G01*
X156671000Y-60940000D01*
X156671000Y-61190000D01*
X156921000Y-61190000D01*
X156921000Y-60940000D01*
G37*
X156921000Y-60940000D02*
X156671000Y-60940000D01*
X156671000Y-61190000D01*
X156921000Y-61190000D01*
X156921000Y-60940000D01*
G36*
X157171000Y-60940000D02*
G01*
X156921000Y-60940000D01*
X156921000Y-61190000D01*
X157171000Y-61190000D01*
X157171000Y-60940000D01*
G37*
X157171000Y-60940000D02*
X156921000Y-60940000D01*
X156921000Y-61190000D01*
X157171000Y-61190000D01*
X157171000Y-60940000D01*
G36*
X157421000Y-60940000D02*
G01*
X157171000Y-60940000D01*
X157171000Y-61190000D01*
X157421000Y-61190000D01*
X157421000Y-60940000D01*
G37*
X157421000Y-60940000D02*
X157171000Y-60940000D01*
X157171000Y-61190000D01*
X157421000Y-61190000D01*
X157421000Y-60940000D01*
G36*
X157671000Y-60940000D02*
G01*
X157421000Y-60940000D01*
X157421000Y-61190000D01*
X157671000Y-61190000D01*
X157671000Y-60940000D01*
G37*
X157671000Y-60940000D02*
X157421000Y-60940000D01*
X157421000Y-61190000D01*
X157671000Y-61190000D01*
X157671000Y-60940000D01*
G36*
X160921000Y-60940000D02*
G01*
X160671000Y-60940000D01*
X160671000Y-61190000D01*
X160921000Y-61190000D01*
X160921000Y-60940000D01*
G37*
X160921000Y-60940000D02*
X160671000Y-60940000D01*
X160671000Y-61190000D01*
X160921000Y-61190000D01*
X160921000Y-60940000D01*
G36*
X161171000Y-60940000D02*
G01*
X160921000Y-60940000D01*
X160921000Y-61190000D01*
X161171000Y-61190000D01*
X161171000Y-60940000D01*
G37*
X161171000Y-60940000D02*
X160921000Y-60940000D01*
X160921000Y-61190000D01*
X161171000Y-61190000D01*
X161171000Y-60940000D01*
G36*
X139421000Y-60690000D02*
G01*
X139171000Y-60690000D01*
X139171000Y-60940000D01*
X139421000Y-60940000D01*
X139421000Y-60690000D01*
G37*
X139421000Y-60690000D02*
X139171000Y-60690000D01*
X139171000Y-60940000D01*
X139421000Y-60940000D01*
X139421000Y-60690000D01*
G36*
X139671000Y-60690000D02*
G01*
X139421000Y-60690000D01*
X139421000Y-60940000D01*
X139671000Y-60940000D01*
X139671000Y-60690000D01*
G37*
X139671000Y-60690000D02*
X139421000Y-60690000D01*
X139421000Y-60940000D01*
X139671000Y-60940000D01*
X139671000Y-60690000D01*
G36*
X141921000Y-60690000D02*
G01*
X141671000Y-60690000D01*
X141671000Y-60940000D01*
X141921000Y-60940000D01*
X141921000Y-60690000D01*
G37*
X141921000Y-60690000D02*
X141671000Y-60690000D01*
X141671000Y-60940000D01*
X141921000Y-60940000D01*
X141921000Y-60690000D01*
G36*
X142171000Y-60690000D02*
G01*
X141921000Y-60690000D01*
X141921000Y-60940000D01*
X142171000Y-60940000D01*
X142171000Y-60690000D01*
G37*
X142171000Y-60690000D02*
X141921000Y-60690000D01*
X141921000Y-60940000D01*
X142171000Y-60940000D01*
X142171000Y-60690000D01*
G36*
X142421000Y-60690000D02*
G01*
X142171000Y-60690000D01*
X142171000Y-60940000D01*
X142421000Y-60940000D01*
X142421000Y-60690000D01*
G37*
X142421000Y-60690000D02*
X142171000Y-60690000D01*
X142171000Y-60940000D01*
X142421000Y-60940000D01*
X142421000Y-60690000D01*
G36*
X142671000Y-60690000D02*
G01*
X142421000Y-60690000D01*
X142421000Y-60940000D01*
X142671000Y-60940000D01*
X142671000Y-60690000D01*
G37*
X142671000Y-60690000D02*
X142421000Y-60690000D01*
X142421000Y-60940000D01*
X142671000Y-60940000D01*
X142671000Y-60690000D01*
G36*
X143921000Y-60690000D02*
G01*
X143671000Y-60690000D01*
X143671000Y-60940000D01*
X143921000Y-60940000D01*
X143921000Y-60690000D01*
G37*
X143921000Y-60690000D02*
X143671000Y-60690000D01*
X143671000Y-60940000D01*
X143921000Y-60940000D01*
X143921000Y-60690000D01*
G36*
X144171000Y-60690000D02*
G01*
X143921000Y-60690000D01*
X143921000Y-60940000D01*
X144171000Y-60940000D01*
X144171000Y-60690000D01*
G37*
X144171000Y-60690000D02*
X143921000Y-60690000D01*
X143921000Y-60940000D01*
X144171000Y-60940000D01*
X144171000Y-60690000D01*
G36*
X147921000Y-60690000D02*
G01*
X147671000Y-60690000D01*
X147671000Y-60940000D01*
X147921000Y-60940000D01*
X147921000Y-60690000D01*
G37*
X147921000Y-60690000D02*
X147671000Y-60690000D01*
X147671000Y-60940000D01*
X147921000Y-60940000D01*
X147921000Y-60690000D01*
G36*
X148171000Y-60690000D02*
G01*
X147921000Y-60690000D01*
X147921000Y-60940000D01*
X148171000Y-60940000D01*
X148171000Y-60690000D01*
G37*
X148171000Y-60690000D02*
X147921000Y-60690000D01*
X147921000Y-60940000D01*
X148171000Y-60940000D01*
X148171000Y-60690000D01*
G36*
X151421000Y-60690000D02*
G01*
X151171000Y-60690000D01*
X151171000Y-60940000D01*
X151421000Y-60940000D01*
X151421000Y-60690000D01*
G37*
X151421000Y-60690000D02*
X151171000Y-60690000D01*
X151171000Y-60940000D01*
X151421000Y-60940000D01*
X151421000Y-60690000D01*
G36*
X151671000Y-60690000D02*
G01*
X151421000Y-60690000D01*
X151421000Y-60940000D01*
X151671000Y-60940000D01*
X151671000Y-60690000D01*
G37*
X151671000Y-60690000D02*
X151421000Y-60690000D01*
X151421000Y-60940000D01*
X151671000Y-60940000D01*
X151671000Y-60690000D01*
G36*
X152921000Y-60690000D02*
G01*
X152671000Y-60690000D01*
X152671000Y-60940000D01*
X152921000Y-60940000D01*
X152921000Y-60690000D01*
G37*
X152921000Y-60690000D02*
X152671000Y-60690000D01*
X152671000Y-60940000D01*
X152921000Y-60940000D01*
X152921000Y-60690000D01*
G36*
X153171000Y-60690000D02*
G01*
X152921000Y-60690000D01*
X152921000Y-60940000D01*
X153171000Y-60940000D01*
X153171000Y-60690000D01*
G37*
X153171000Y-60690000D02*
X152921000Y-60690000D01*
X152921000Y-60940000D01*
X153171000Y-60940000D01*
X153171000Y-60690000D01*
G36*
X154921000Y-60690000D02*
G01*
X154671000Y-60690000D01*
X154671000Y-60940000D01*
X154921000Y-60940000D01*
X154921000Y-60690000D01*
G37*
X154921000Y-60690000D02*
X154671000Y-60690000D01*
X154671000Y-60940000D01*
X154921000Y-60940000D01*
X154921000Y-60690000D01*
G36*
X155171000Y-60690000D02*
G01*
X154921000Y-60690000D01*
X154921000Y-60940000D01*
X155171000Y-60940000D01*
X155171000Y-60690000D01*
G37*
X155171000Y-60690000D02*
X154921000Y-60690000D01*
X154921000Y-60940000D01*
X155171000Y-60940000D01*
X155171000Y-60690000D01*
G36*
X156921000Y-60690000D02*
G01*
X156671000Y-60690000D01*
X156671000Y-60940000D01*
X156921000Y-60940000D01*
X156921000Y-60690000D01*
G37*
X156921000Y-60690000D02*
X156671000Y-60690000D01*
X156671000Y-60940000D01*
X156921000Y-60940000D01*
X156921000Y-60690000D01*
G36*
X157171000Y-60690000D02*
G01*
X156921000Y-60690000D01*
X156921000Y-60940000D01*
X157171000Y-60940000D01*
X157171000Y-60690000D01*
G37*
X157171000Y-60690000D02*
X156921000Y-60690000D01*
X156921000Y-60940000D01*
X157171000Y-60940000D01*
X157171000Y-60690000D01*
G36*
X157421000Y-60690000D02*
G01*
X157171000Y-60690000D01*
X157171000Y-60940000D01*
X157421000Y-60940000D01*
X157421000Y-60690000D01*
G37*
X157421000Y-60690000D02*
X157171000Y-60690000D01*
X157171000Y-60940000D01*
X157421000Y-60940000D01*
X157421000Y-60690000D01*
G36*
X157671000Y-60690000D02*
G01*
X157421000Y-60690000D01*
X157421000Y-60940000D01*
X157671000Y-60940000D01*
X157671000Y-60690000D01*
G37*
X157671000Y-60690000D02*
X157421000Y-60690000D01*
X157421000Y-60940000D01*
X157671000Y-60940000D01*
X157671000Y-60690000D01*
G36*
X160921000Y-60690000D02*
G01*
X160671000Y-60690000D01*
X160671000Y-60940000D01*
X160921000Y-60940000D01*
X160921000Y-60690000D01*
G37*
X160921000Y-60690000D02*
X160671000Y-60690000D01*
X160671000Y-60940000D01*
X160921000Y-60940000D01*
X160921000Y-60690000D01*
G36*
X161171000Y-60690000D02*
G01*
X160921000Y-60690000D01*
X160921000Y-60940000D01*
X161171000Y-60940000D01*
X161171000Y-60690000D01*
G37*
X161171000Y-60690000D02*
X160921000Y-60690000D01*
X160921000Y-60940000D01*
X161171000Y-60940000D01*
X161171000Y-60690000D01*
G36*
X137921000Y-60440000D02*
G01*
X137671000Y-60440000D01*
X137671000Y-60690000D01*
X137921000Y-60690000D01*
X137921000Y-60440000D01*
G37*
X137921000Y-60440000D02*
X137671000Y-60440000D01*
X137671000Y-60690000D01*
X137921000Y-60690000D01*
X137921000Y-60440000D01*
G36*
X138171000Y-60440000D02*
G01*
X137921000Y-60440000D01*
X137921000Y-60690000D01*
X138171000Y-60690000D01*
X138171000Y-60440000D01*
G37*
X138171000Y-60440000D02*
X137921000Y-60440000D01*
X137921000Y-60690000D01*
X138171000Y-60690000D01*
X138171000Y-60440000D01*
G36*
X138421000Y-60440000D02*
G01*
X138171000Y-60440000D01*
X138171000Y-60690000D01*
X138421000Y-60690000D01*
X138421000Y-60440000D01*
G37*
X138421000Y-60440000D02*
X138171000Y-60440000D01*
X138171000Y-60690000D01*
X138421000Y-60690000D01*
X138421000Y-60440000D01*
G36*
X138671000Y-60440000D02*
G01*
X138421000Y-60440000D01*
X138421000Y-60690000D01*
X138671000Y-60690000D01*
X138671000Y-60440000D01*
G37*
X138671000Y-60440000D02*
X138421000Y-60440000D01*
X138421000Y-60690000D01*
X138671000Y-60690000D01*
X138671000Y-60440000D01*
G36*
X138921000Y-60440000D02*
G01*
X138671000Y-60440000D01*
X138671000Y-60690000D01*
X138921000Y-60690000D01*
X138921000Y-60440000D01*
G37*
X138921000Y-60440000D02*
X138671000Y-60440000D01*
X138671000Y-60690000D01*
X138921000Y-60690000D01*
X138921000Y-60440000D01*
G36*
X139171000Y-60440000D02*
G01*
X138921000Y-60440000D01*
X138921000Y-60690000D01*
X139171000Y-60690000D01*
X139171000Y-60440000D01*
G37*
X139171000Y-60440000D02*
X138921000Y-60440000D01*
X138921000Y-60690000D01*
X139171000Y-60690000D01*
X139171000Y-60440000D01*
G36*
X144421000Y-60440000D02*
G01*
X144171000Y-60440000D01*
X144171000Y-60690000D01*
X144421000Y-60690000D01*
X144421000Y-60440000D01*
G37*
X144421000Y-60440000D02*
X144171000Y-60440000D01*
X144171000Y-60690000D01*
X144421000Y-60690000D01*
X144421000Y-60440000D01*
G36*
X144671000Y-60440000D02*
G01*
X144421000Y-60440000D01*
X144421000Y-60690000D01*
X144671000Y-60690000D01*
X144671000Y-60440000D01*
G37*
X144671000Y-60440000D02*
X144421000Y-60440000D01*
X144421000Y-60690000D01*
X144671000Y-60690000D01*
X144671000Y-60440000D01*
G36*
X144921000Y-60440000D02*
G01*
X144671000Y-60440000D01*
X144671000Y-60690000D01*
X144921000Y-60690000D01*
X144921000Y-60440000D01*
G37*
X144921000Y-60440000D02*
X144671000Y-60440000D01*
X144671000Y-60690000D01*
X144921000Y-60690000D01*
X144921000Y-60440000D01*
G36*
X145171000Y-60440000D02*
G01*
X144921000Y-60440000D01*
X144921000Y-60690000D01*
X145171000Y-60690000D01*
X145171000Y-60440000D01*
G37*
X145171000Y-60440000D02*
X144921000Y-60440000D01*
X144921000Y-60690000D01*
X145171000Y-60690000D01*
X145171000Y-60440000D01*
G36*
X145421000Y-60440000D02*
G01*
X145171000Y-60440000D01*
X145171000Y-60690000D01*
X145421000Y-60690000D01*
X145421000Y-60440000D01*
G37*
X145421000Y-60440000D02*
X145171000Y-60440000D01*
X145171000Y-60690000D01*
X145421000Y-60690000D01*
X145421000Y-60440000D01*
G36*
X145671000Y-60440000D02*
G01*
X145421000Y-60440000D01*
X145421000Y-60690000D01*
X145671000Y-60690000D01*
X145671000Y-60440000D01*
G37*
X145671000Y-60440000D02*
X145421000Y-60440000D01*
X145421000Y-60690000D01*
X145671000Y-60690000D01*
X145671000Y-60440000D01*
G36*
X147921000Y-60440000D02*
G01*
X147671000Y-60440000D01*
X147671000Y-60690000D01*
X147921000Y-60690000D01*
X147921000Y-60440000D01*
G37*
X147921000Y-60440000D02*
X147671000Y-60440000D01*
X147671000Y-60690000D01*
X147921000Y-60690000D01*
X147921000Y-60440000D01*
G36*
X148171000Y-60440000D02*
G01*
X147921000Y-60440000D01*
X147921000Y-60690000D01*
X148171000Y-60690000D01*
X148171000Y-60440000D01*
G37*
X148171000Y-60440000D02*
X147921000Y-60440000D01*
X147921000Y-60690000D01*
X148171000Y-60690000D01*
X148171000Y-60440000D01*
G36*
X149921000Y-60440000D02*
G01*
X149671000Y-60440000D01*
X149671000Y-60690000D01*
X149921000Y-60690000D01*
X149921000Y-60440000D01*
G37*
X149921000Y-60440000D02*
X149671000Y-60440000D01*
X149671000Y-60690000D01*
X149921000Y-60690000D01*
X149921000Y-60440000D01*
G36*
X150171000Y-60440000D02*
G01*
X149921000Y-60440000D01*
X149921000Y-60690000D01*
X150171000Y-60690000D01*
X150171000Y-60440000D01*
G37*
X150171000Y-60440000D02*
X149921000Y-60440000D01*
X149921000Y-60690000D01*
X150171000Y-60690000D01*
X150171000Y-60440000D01*
G36*
X150421000Y-60440000D02*
G01*
X150171000Y-60440000D01*
X150171000Y-60690000D01*
X150421000Y-60690000D01*
X150421000Y-60440000D01*
G37*
X150421000Y-60440000D02*
X150171000Y-60440000D01*
X150171000Y-60690000D01*
X150421000Y-60690000D01*
X150421000Y-60440000D01*
G36*
X150671000Y-60440000D02*
G01*
X150421000Y-60440000D01*
X150421000Y-60690000D01*
X150671000Y-60690000D01*
X150671000Y-60440000D01*
G37*
X150671000Y-60440000D02*
X150421000Y-60440000D01*
X150421000Y-60690000D01*
X150671000Y-60690000D01*
X150671000Y-60440000D01*
G36*
X150921000Y-60440000D02*
G01*
X150671000Y-60440000D01*
X150671000Y-60690000D01*
X150921000Y-60690000D01*
X150921000Y-60440000D01*
G37*
X150921000Y-60440000D02*
X150671000Y-60440000D01*
X150671000Y-60690000D01*
X150921000Y-60690000D01*
X150921000Y-60440000D01*
G36*
X151171000Y-60440000D02*
G01*
X150921000Y-60440000D01*
X150921000Y-60690000D01*
X151171000Y-60690000D01*
X151171000Y-60440000D01*
G37*
X151171000Y-60440000D02*
X150921000Y-60440000D01*
X150921000Y-60690000D01*
X151171000Y-60690000D01*
X151171000Y-60440000D01*
G36*
X153421000Y-60440000D02*
G01*
X153171000Y-60440000D01*
X153171000Y-60690000D01*
X153421000Y-60690000D01*
X153421000Y-60440000D01*
G37*
X153421000Y-60440000D02*
X153171000Y-60440000D01*
X153171000Y-60690000D01*
X153421000Y-60690000D01*
X153421000Y-60440000D01*
G36*
X153671000Y-60440000D02*
G01*
X153421000Y-60440000D01*
X153421000Y-60690000D01*
X153671000Y-60690000D01*
X153671000Y-60440000D01*
G37*
X153671000Y-60440000D02*
X153421000Y-60440000D01*
X153421000Y-60690000D01*
X153671000Y-60690000D01*
X153671000Y-60440000D01*
G36*
X153921000Y-60440000D02*
G01*
X153671000Y-60440000D01*
X153671000Y-60690000D01*
X153921000Y-60690000D01*
X153921000Y-60440000D01*
G37*
X153921000Y-60440000D02*
X153671000Y-60440000D01*
X153671000Y-60690000D01*
X153921000Y-60690000D01*
X153921000Y-60440000D01*
G36*
X154171000Y-60440000D02*
G01*
X153921000Y-60440000D01*
X153921000Y-60690000D01*
X154171000Y-60690000D01*
X154171000Y-60440000D01*
G37*
X154171000Y-60440000D02*
X153921000Y-60440000D01*
X153921000Y-60690000D01*
X154171000Y-60690000D01*
X154171000Y-60440000D01*
G36*
X154421000Y-60440000D02*
G01*
X154171000Y-60440000D01*
X154171000Y-60690000D01*
X154421000Y-60690000D01*
X154421000Y-60440000D01*
G37*
X154421000Y-60440000D02*
X154171000Y-60440000D01*
X154171000Y-60690000D01*
X154421000Y-60690000D01*
X154421000Y-60440000D01*
G36*
X154671000Y-60440000D02*
G01*
X154421000Y-60440000D01*
X154421000Y-60690000D01*
X154671000Y-60690000D01*
X154671000Y-60440000D01*
G37*
X154671000Y-60440000D02*
X154421000Y-60440000D01*
X154421000Y-60690000D01*
X154671000Y-60690000D01*
X154671000Y-60440000D01*
G36*
X154921000Y-60440000D02*
G01*
X154671000Y-60440000D01*
X154671000Y-60690000D01*
X154921000Y-60690000D01*
X154921000Y-60440000D01*
G37*
X154921000Y-60440000D02*
X154671000Y-60440000D01*
X154671000Y-60690000D01*
X154921000Y-60690000D01*
X154921000Y-60440000D01*
G36*
X155171000Y-60440000D02*
G01*
X154921000Y-60440000D01*
X154921000Y-60690000D01*
X155171000Y-60690000D01*
X155171000Y-60440000D01*
G37*
X155171000Y-60440000D02*
X154921000Y-60440000D01*
X154921000Y-60690000D01*
X155171000Y-60690000D01*
X155171000Y-60440000D01*
G36*
X159421000Y-60440000D02*
G01*
X159171000Y-60440000D01*
X159171000Y-60690000D01*
X159421000Y-60690000D01*
X159421000Y-60440000D01*
G37*
X159421000Y-60440000D02*
X159171000Y-60440000D01*
X159171000Y-60690000D01*
X159421000Y-60690000D01*
X159421000Y-60440000D01*
G36*
X159671000Y-60440000D02*
G01*
X159421000Y-60440000D01*
X159421000Y-60690000D01*
X159671000Y-60690000D01*
X159671000Y-60440000D01*
G37*
X159671000Y-60440000D02*
X159421000Y-60440000D01*
X159421000Y-60690000D01*
X159671000Y-60690000D01*
X159671000Y-60440000D01*
G36*
X159921000Y-60440000D02*
G01*
X159671000Y-60440000D01*
X159671000Y-60690000D01*
X159921000Y-60690000D01*
X159921000Y-60440000D01*
G37*
X159921000Y-60440000D02*
X159671000Y-60440000D01*
X159671000Y-60690000D01*
X159921000Y-60690000D01*
X159921000Y-60440000D01*
G36*
X160171000Y-60440000D02*
G01*
X159921000Y-60440000D01*
X159921000Y-60690000D01*
X160171000Y-60690000D01*
X160171000Y-60440000D01*
G37*
X160171000Y-60440000D02*
X159921000Y-60440000D01*
X159921000Y-60690000D01*
X160171000Y-60690000D01*
X160171000Y-60440000D01*
G36*
X160421000Y-60440000D02*
G01*
X160171000Y-60440000D01*
X160171000Y-60690000D01*
X160421000Y-60690000D01*
X160421000Y-60440000D01*
G37*
X160421000Y-60440000D02*
X160171000Y-60440000D01*
X160171000Y-60690000D01*
X160421000Y-60690000D01*
X160421000Y-60440000D01*
G36*
X160671000Y-60440000D02*
G01*
X160421000Y-60440000D01*
X160421000Y-60690000D01*
X160671000Y-60690000D01*
X160671000Y-60440000D01*
G37*
X160671000Y-60440000D02*
X160421000Y-60440000D01*
X160421000Y-60690000D01*
X160671000Y-60690000D01*
X160671000Y-60440000D01*
G36*
X137921000Y-60190000D02*
G01*
X137671000Y-60190000D01*
X137671000Y-60440000D01*
X137921000Y-60440000D01*
X137921000Y-60190000D01*
G37*
X137921000Y-60190000D02*
X137671000Y-60190000D01*
X137671000Y-60440000D01*
X137921000Y-60440000D01*
X137921000Y-60190000D01*
G36*
X138171000Y-60190000D02*
G01*
X137921000Y-60190000D01*
X137921000Y-60440000D01*
X138171000Y-60440000D01*
X138171000Y-60190000D01*
G37*
X138171000Y-60190000D02*
X137921000Y-60190000D01*
X137921000Y-60440000D01*
X138171000Y-60440000D01*
X138171000Y-60190000D01*
G36*
X138421000Y-60190000D02*
G01*
X138171000Y-60190000D01*
X138171000Y-60440000D01*
X138421000Y-60440000D01*
X138421000Y-60190000D01*
G37*
X138421000Y-60190000D02*
X138171000Y-60190000D01*
X138171000Y-60440000D01*
X138421000Y-60440000D01*
X138421000Y-60190000D01*
G36*
X138671000Y-60190000D02*
G01*
X138421000Y-60190000D01*
X138421000Y-60440000D01*
X138671000Y-60440000D01*
X138671000Y-60190000D01*
G37*
X138671000Y-60190000D02*
X138421000Y-60190000D01*
X138421000Y-60440000D01*
X138671000Y-60440000D01*
X138671000Y-60190000D01*
G36*
X138921000Y-60190000D02*
G01*
X138671000Y-60190000D01*
X138671000Y-60440000D01*
X138921000Y-60440000D01*
X138921000Y-60190000D01*
G37*
X138921000Y-60190000D02*
X138671000Y-60190000D01*
X138671000Y-60440000D01*
X138921000Y-60440000D01*
X138921000Y-60190000D01*
G36*
X139171000Y-60190000D02*
G01*
X138921000Y-60190000D01*
X138921000Y-60440000D01*
X139171000Y-60440000D01*
X139171000Y-60190000D01*
G37*
X139171000Y-60190000D02*
X138921000Y-60190000D01*
X138921000Y-60440000D01*
X139171000Y-60440000D01*
X139171000Y-60190000D01*
G36*
X144421000Y-60190000D02*
G01*
X144171000Y-60190000D01*
X144171000Y-60440000D01*
X144421000Y-60440000D01*
X144421000Y-60190000D01*
G37*
X144421000Y-60190000D02*
X144171000Y-60190000D01*
X144171000Y-60440000D01*
X144421000Y-60440000D01*
X144421000Y-60190000D01*
G36*
X144671000Y-60190000D02*
G01*
X144421000Y-60190000D01*
X144421000Y-60440000D01*
X144671000Y-60440000D01*
X144671000Y-60190000D01*
G37*
X144671000Y-60190000D02*
X144421000Y-60190000D01*
X144421000Y-60440000D01*
X144671000Y-60440000D01*
X144671000Y-60190000D01*
G36*
X144921000Y-60190000D02*
G01*
X144671000Y-60190000D01*
X144671000Y-60440000D01*
X144921000Y-60440000D01*
X144921000Y-60190000D01*
G37*
X144921000Y-60190000D02*
X144671000Y-60190000D01*
X144671000Y-60440000D01*
X144921000Y-60440000D01*
X144921000Y-60190000D01*
G36*
X145171000Y-60190000D02*
G01*
X144921000Y-60190000D01*
X144921000Y-60440000D01*
X145171000Y-60440000D01*
X145171000Y-60190000D01*
G37*
X145171000Y-60190000D02*
X144921000Y-60190000D01*
X144921000Y-60440000D01*
X145171000Y-60440000D01*
X145171000Y-60190000D01*
G36*
X145421000Y-60190000D02*
G01*
X145171000Y-60190000D01*
X145171000Y-60440000D01*
X145421000Y-60440000D01*
X145421000Y-60190000D01*
G37*
X145421000Y-60190000D02*
X145171000Y-60190000D01*
X145171000Y-60440000D01*
X145421000Y-60440000D01*
X145421000Y-60190000D01*
G36*
X145671000Y-60190000D02*
G01*
X145421000Y-60190000D01*
X145421000Y-60440000D01*
X145671000Y-60440000D01*
X145671000Y-60190000D01*
G37*
X145671000Y-60190000D02*
X145421000Y-60190000D01*
X145421000Y-60440000D01*
X145671000Y-60440000D01*
X145671000Y-60190000D01*
G36*
X147921000Y-60190000D02*
G01*
X147671000Y-60190000D01*
X147671000Y-60440000D01*
X147921000Y-60440000D01*
X147921000Y-60190000D01*
G37*
X147921000Y-60190000D02*
X147671000Y-60190000D01*
X147671000Y-60440000D01*
X147921000Y-60440000D01*
X147921000Y-60190000D01*
G36*
X148171000Y-60190000D02*
G01*
X147921000Y-60190000D01*
X147921000Y-60440000D01*
X148171000Y-60440000D01*
X148171000Y-60190000D01*
G37*
X148171000Y-60190000D02*
X147921000Y-60190000D01*
X147921000Y-60440000D01*
X148171000Y-60440000D01*
X148171000Y-60190000D01*
G36*
X149921000Y-60190000D02*
G01*
X149671000Y-60190000D01*
X149671000Y-60440000D01*
X149921000Y-60440000D01*
X149921000Y-60190000D01*
G37*
X149921000Y-60190000D02*
X149671000Y-60190000D01*
X149671000Y-60440000D01*
X149921000Y-60440000D01*
X149921000Y-60190000D01*
G36*
X150171000Y-60190000D02*
G01*
X149921000Y-60190000D01*
X149921000Y-60440000D01*
X150171000Y-60440000D01*
X150171000Y-60190000D01*
G37*
X150171000Y-60190000D02*
X149921000Y-60190000D01*
X149921000Y-60440000D01*
X150171000Y-60440000D01*
X150171000Y-60190000D01*
G36*
X150421000Y-60190000D02*
G01*
X150171000Y-60190000D01*
X150171000Y-60440000D01*
X150421000Y-60440000D01*
X150421000Y-60190000D01*
G37*
X150421000Y-60190000D02*
X150171000Y-60190000D01*
X150171000Y-60440000D01*
X150421000Y-60440000D01*
X150421000Y-60190000D01*
G36*
X150671000Y-60190000D02*
G01*
X150421000Y-60190000D01*
X150421000Y-60440000D01*
X150671000Y-60440000D01*
X150671000Y-60190000D01*
G37*
X150671000Y-60190000D02*
X150421000Y-60190000D01*
X150421000Y-60440000D01*
X150671000Y-60440000D01*
X150671000Y-60190000D01*
G36*
X150921000Y-60190000D02*
G01*
X150671000Y-60190000D01*
X150671000Y-60440000D01*
X150921000Y-60440000D01*
X150921000Y-60190000D01*
G37*
X150921000Y-60190000D02*
X150671000Y-60190000D01*
X150671000Y-60440000D01*
X150921000Y-60440000D01*
X150921000Y-60190000D01*
G36*
X151171000Y-60190000D02*
G01*
X150921000Y-60190000D01*
X150921000Y-60440000D01*
X151171000Y-60440000D01*
X151171000Y-60190000D01*
G37*
X151171000Y-60190000D02*
X150921000Y-60190000D01*
X150921000Y-60440000D01*
X151171000Y-60440000D01*
X151171000Y-60190000D01*
G36*
X153421000Y-60190000D02*
G01*
X153171000Y-60190000D01*
X153171000Y-60440000D01*
X153421000Y-60440000D01*
X153421000Y-60190000D01*
G37*
X153421000Y-60190000D02*
X153171000Y-60190000D01*
X153171000Y-60440000D01*
X153421000Y-60440000D01*
X153421000Y-60190000D01*
G36*
X153671000Y-60190000D02*
G01*
X153421000Y-60190000D01*
X153421000Y-60440000D01*
X153671000Y-60440000D01*
X153671000Y-60190000D01*
G37*
X153671000Y-60190000D02*
X153421000Y-60190000D01*
X153421000Y-60440000D01*
X153671000Y-60440000D01*
X153671000Y-60190000D01*
G36*
X153921000Y-60190000D02*
G01*
X153671000Y-60190000D01*
X153671000Y-60440000D01*
X153921000Y-60440000D01*
X153921000Y-60190000D01*
G37*
X153921000Y-60190000D02*
X153671000Y-60190000D01*
X153671000Y-60440000D01*
X153921000Y-60440000D01*
X153921000Y-60190000D01*
G36*
X154171000Y-60190000D02*
G01*
X153921000Y-60190000D01*
X153921000Y-60440000D01*
X154171000Y-60440000D01*
X154171000Y-60190000D01*
G37*
X154171000Y-60190000D02*
X153921000Y-60190000D01*
X153921000Y-60440000D01*
X154171000Y-60440000D01*
X154171000Y-60190000D01*
G36*
X154421000Y-60190000D02*
G01*
X154171000Y-60190000D01*
X154171000Y-60440000D01*
X154421000Y-60440000D01*
X154421000Y-60190000D01*
G37*
X154421000Y-60190000D02*
X154171000Y-60190000D01*
X154171000Y-60440000D01*
X154421000Y-60440000D01*
X154421000Y-60190000D01*
G36*
X154671000Y-60190000D02*
G01*
X154421000Y-60190000D01*
X154421000Y-60440000D01*
X154671000Y-60440000D01*
X154671000Y-60190000D01*
G37*
X154671000Y-60190000D02*
X154421000Y-60190000D01*
X154421000Y-60440000D01*
X154671000Y-60440000D01*
X154671000Y-60190000D01*
G36*
X154921000Y-60190000D02*
G01*
X154671000Y-60190000D01*
X154671000Y-60440000D01*
X154921000Y-60440000D01*
X154921000Y-60190000D01*
G37*
X154921000Y-60190000D02*
X154671000Y-60190000D01*
X154671000Y-60440000D01*
X154921000Y-60440000D01*
X154921000Y-60190000D01*
G36*
X155171000Y-60190000D02*
G01*
X154921000Y-60190000D01*
X154921000Y-60440000D01*
X155171000Y-60440000D01*
X155171000Y-60190000D01*
G37*
X155171000Y-60190000D02*
X154921000Y-60190000D01*
X154921000Y-60440000D01*
X155171000Y-60440000D01*
X155171000Y-60190000D01*
G36*
X159421000Y-60190000D02*
G01*
X159171000Y-60190000D01*
X159171000Y-60440000D01*
X159421000Y-60440000D01*
X159421000Y-60190000D01*
G37*
X159421000Y-60190000D02*
X159171000Y-60190000D01*
X159171000Y-60440000D01*
X159421000Y-60440000D01*
X159421000Y-60190000D01*
G36*
X159671000Y-60190000D02*
G01*
X159421000Y-60190000D01*
X159421000Y-60440000D01*
X159671000Y-60440000D01*
X159671000Y-60190000D01*
G37*
X159671000Y-60190000D02*
X159421000Y-60190000D01*
X159421000Y-60440000D01*
X159671000Y-60440000D01*
X159671000Y-60190000D01*
G36*
X159921000Y-60190000D02*
G01*
X159671000Y-60190000D01*
X159671000Y-60440000D01*
X159921000Y-60440000D01*
X159921000Y-60190000D01*
G37*
X159921000Y-60190000D02*
X159671000Y-60190000D01*
X159671000Y-60440000D01*
X159921000Y-60440000D01*
X159921000Y-60190000D01*
G36*
X160171000Y-60190000D02*
G01*
X159921000Y-60190000D01*
X159921000Y-60440000D01*
X160171000Y-60440000D01*
X160171000Y-60190000D01*
G37*
X160171000Y-60190000D02*
X159921000Y-60190000D01*
X159921000Y-60440000D01*
X160171000Y-60440000D01*
X160171000Y-60190000D01*
G36*
X160421000Y-60190000D02*
G01*
X160171000Y-60190000D01*
X160171000Y-60440000D01*
X160421000Y-60440000D01*
X160421000Y-60190000D01*
G37*
X160421000Y-60190000D02*
X160171000Y-60190000D01*
X160171000Y-60440000D01*
X160421000Y-60440000D01*
X160421000Y-60190000D01*
G36*
X160671000Y-60190000D02*
G01*
X160421000Y-60190000D01*
X160421000Y-60440000D01*
X160671000Y-60440000D01*
X160671000Y-60190000D01*
G37*
X160671000Y-60190000D02*
X160421000Y-60190000D01*
X160421000Y-60440000D01*
X160671000Y-60440000D01*
X160671000Y-60190000D01*
G36*
X141921000Y-59940000D02*
G01*
X141671000Y-59940000D01*
X141671000Y-60190000D01*
X141921000Y-60190000D01*
X141921000Y-59940000D01*
G37*
X141921000Y-59940000D02*
X141671000Y-59940000D01*
X141671000Y-60190000D01*
X141921000Y-60190000D01*
X141921000Y-59940000D01*
G36*
X142171000Y-59940000D02*
G01*
X141921000Y-59940000D01*
X141921000Y-60190000D01*
X142171000Y-60190000D01*
X142171000Y-59940000D01*
G37*
X142171000Y-59940000D02*
X141921000Y-59940000D01*
X141921000Y-60190000D01*
X142171000Y-60190000D01*
X142171000Y-59940000D01*
G36*
X147921000Y-59940000D02*
G01*
X147671000Y-59940000D01*
X147671000Y-60190000D01*
X147921000Y-60190000D01*
X147921000Y-59940000D01*
G37*
X147921000Y-59940000D02*
X147671000Y-59940000D01*
X147671000Y-60190000D01*
X147921000Y-60190000D01*
X147921000Y-59940000D01*
G36*
X148171000Y-59940000D02*
G01*
X147921000Y-59940000D01*
X147921000Y-60190000D01*
X148171000Y-60190000D01*
X148171000Y-59940000D01*
G37*
X148171000Y-59940000D02*
X147921000Y-59940000D01*
X147921000Y-60190000D01*
X148171000Y-60190000D01*
X148171000Y-59940000D01*
G36*
X156921000Y-59940000D02*
G01*
X156671000Y-59940000D01*
X156671000Y-60190000D01*
X156921000Y-60190000D01*
X156921000Y-59940000D01*
G37*
X156921000Y-59940000D02*
X156671000Y-59940000D01*
X156671000Y-60190000D01*
X156921000Y-60190000D01*
X156921000Y-59940000D01*
G36*
X157171000Y-59940000D02*
G01*
X156921000Y-59940000D01*
X156921000Y-60190000D01*
X157171000Y-60190000D01*
X157171000Y-59940000D01*
G37*
X157171000Y-59940000D02*
X156921000Y-59940000D01*
X156921000Y-60190000D01*
X157171000Y-60190000D01*
X157171000Y-59940000D01*
G36*
X141921000Y-59690000D02*
G01*
X141671000Y-59690000D01*
X141671000Y-59940000D01*
X141921000Y-59940000D01*
X141921000Y-59690000D01*
G37*
X141921000Y-59690000D02*
X141671000Y-59690000D01*
X141671000Y-59940000D01*
X141921000Y-59940000D01*
X141921000Y-59690000D01*
G36*
X142171000Y-59690000D02*
G01*
X141921000Y-59690000D01*
X141921000Y-59940000D01*
X142171000Y-59940000D01*
X142171000Y-59690000D01*
G37*
X142171000Y-59690000D02*
X141921000Y-59690000D01*
X141921000Y-59940000D01*
X142171000Y-59940000D01*
X142171000Y-59690000D01*
G36*
X147921000Y-59690000D02*
G01*
X147671000Y-59690000D01*
X147671000Y-59940000D01*
X147921000Y-59940000D01*
X147921000Y-59690000D01*
G37*
X147921000Y-59690000D02*
X147671000Y-59690000D01*
X147671000Y-59940000D01*
X147921000Y-59940000D01*
X147921000Y-59690000D01*
G36*
X148171000Y-59690000D02*
G01*
X147921000Y-59690000D01*
X147921000Y-59940000D01*
X148171000Y-59940000D01*
X148171000Y-59690000D01*
G37*
X148171000Y-59690000D02*
X147921000Y-59690000D01*
X147921000Y-59940000D01*
X148171000Y-59940000D01*
X148171000Y-59690000D01*
G36*
X156921000Y-59690000D02*
G01*
X156671000Y-59690000D01*
X156671000Y-59940000D01*
X156921000Y-59940000D01*
X156921000Y-59690000D01*
G37*
X156921000Y-59690000D02*
X156671000Y-59690000D01*
X156671000Y-59940000D01*
X156921000Y-59940000D01*
X156921000Y-59690000D01*
G36*
X157171000Y-59690000D02*
G01*
X156921000Y-59690000D01*
X156921000Y-59940000D01*
X157171000Y-59940000D01*
X157171000Y-59690000D01*
G37*
X157171000Y-59690000D02*
X156921000Y-59690000D01*
X156921000Y-59940000D01*
X157171000Y-59940000D01*
X157171000Y-59690000D01*
D10*
%TO.C,J1*%
X123269285Y-111164666D02*
X122793095Y-111164666D01*
X123364523Y-111450380D02*
X123031190Y-110450380D01*
X122697857Y-111450380D01*
X121840714Y-111450380D02*
X122412142Y-111450380D01*
X122126428Y-111450380D02*
X122126428Y-110450380D01*
X122221666Y-110593238D01*
X122316904Y-110688476D01*
X122412142Y-110736095D01*
X177085476Y-111164666D02*
X176609285Y-111164666D01*
X177180714Y-111450380D02*
X176847380Y-110450380D01*
X176514047Y-111450380D01*
X176228333Y-110545619D02*
X176180714Y-110498000D01*
X176085476Y-110450380D01*
X175847380Y-110450380D01*
X175752142Y-110498000D01*
X175704523Y-110545619D01*
X175656904Y-110640857D01*
X175656904Y-110736095D01*
X175704523Y-110878952D01*
X176275952Y-111450380D01*
X175656904Y-111450380D01*
X175275952Y-110545619D02*
X175228333Y-110498000D01*
X175133095Y-110450380D01*
X174895000Y-110450380D01*
X174799761Y-110498000D01*
X174752142Y-110545619D01*
X174704523Y-110640857D01*
X174704523Y-110736095D01*
X174752142Y-110878952D01*
X175323571Y-111450380D01*
X174704523Y-111450380D01*
%TD*%
M02*
