%TF.GenerationSoftware,KiCad,Pcbnew,(5.1.8)-1*%
%TF.CreationDate,2021-04-11T23:00:19+02:00*%
%TF.ProjectId,ZX Cartridge 2021,5a582043-6172-4747-9269-646765203230,rev?*%
%TF.SameCoordinates,Original*%
%TF.FileFunction,Copper,L2,Bot*%
%TF.FilePolarity,Positive*%
%FSLAX46Y46*%
G04 Gerber Fmt 4.6, Leading zero omitted, Abs format (unit mm)*
G04 Created by KiCad (PCBNEW (5.1.8)-1) date 2021-04-11 23:00:19*
%MOMM*%
%LPD*%
G01*
G04 APERTURE LIST*
%TA.AperFunction,ConnectorPad*%
%ADD10R,1.500000X8.000000*%
%TD*%
%TA.AperFunction,ComponentPad*%
%ADD11C,1.600000*%
%TD*%
%TA.AperFunction,ComponentPad*%
%ADD12R,2.400000X1.600000*%
%TD*%
%TA.AperFunction,ComponentPad*%
%ADD13O,2.400000X1.600000*%
%TD*%
%TA.AperFunction,ComponentPad*%
%ADD14C,3.500000*%
%TD*%
%TA.AperFunction,ViaPad*%
%ADD15C,0.600000*%
%TD*%
%TA.AperFunction,Conductor*%
%ADD16C,0.250000*%
%TD*%
%TA.AperFunction,Conductor*%
%ADD17C,0.381000*%
%TD*%
%TA.AperFunction,Conductor*%
%ADD18C,0.254000*%
%TD*%
%TA.AperFunction,Conductor*%
%ADD19C,0.100000*%
%TD*%
G04 APERTURE END LIST*
D10*
%TO.P,J1,B22*%
%TO.N,GND*%
X175895000Y-116078000D03*
%TO.P,J1,B21*%
%TO.N,N/C*%
X173355000Y-116078000D03*
%TO.P,J1,B20*%
X170815000Y-116078000D03*
%TO.P,J1,B19*%
X168275000Y-116078000D03*
%TO.P,J1,B18*%
%TO.N,Net-(J1-PadB18)*%
X165735000Y-116078000D03*
%TO.P,J1,B17*%
%TO.N,Net-(J1-PadB17)*%
X163195000Y-116078000D03*
%TO.P,J1,B15*%
%TO.N,VCC*%
X158115000Y-116078000D03*
%TO.P,J1,B14*%
%TO.N,/A12*%
X155575000Y-116078000D03*
%TO.P,J1,B13*%
%TO.N,/A7*%
X153035000Y-116078000D03*
%TO.P,J1,B12*%
%TO.N,/A6*%
X150495000Y-116078000D03*
%TO.P,J1,B10*%
%TO.N,/A5*%
X145415000Y-116078000D03*
%TO.P,J1,B9*%
%TO.N,/A4*%
X142875000Y-116078000D03*
%TO.P,J1,B8*%
%TO.N,/A3*%
X140335000Y-116078000D03*
%TO.P,J1,B7*%
%TO.N,/A2*%
X137795000Y-116078000D03*
%TO.P,J1,B6*%
%TO.N,/A1*%
X135255000Y-116078000D03*
%TO.P,J1,B5*%
%TO.N,/A0*%
X132715000Y-116078000D03*
%TO.P,J1,B4*%
%TO.N,/D0*%
X130175000Y-116078000D03*
%TO.P,J1,B3*%
%TO.N,/D1*%
X127635000Y-116078000D03*
%TO.P,J1,B2*%
%TO.N,/D2*%
X125095000Y-116078000D03*
%TO.P,J1,B1*%
%TO.N,GND*%
X122555000Y-116078000D03*
%TD*%
D11*
%TO.P,C1,1*%
%TO.N,VCC*%
X147574000Y-67945000D03*
%TO.P,C1,2*%
%TO.N,GND*%
X147574000Y-72945000D03*
%TD*%
D12*
%TO.P,U1,1*%
%TO.N,/BA15*%
X128524000Y-67945000D03*
D13*
%TO.P,U1,15*%
%TO.N,/D3*%
X143764000Y-100965000D03*
%TO.P,U1,2*%
%TO.N,/A12*%
X128524000Y-70485000D03*
%TO.P,U1,16*%
%TO.N,/D4*%
X143764000Y-98425000D03*
%TO.P,U1,3*%
%TO.N,/A7*%
X128524000Y-73025000D03*
%TO.P,U1,17*%
%TO.N,/D5*%
X143764000Y-95885000D03*
%TO.P,U1,4*%
%TO.N,/A6*%
X128524000Y-75565000D03*
%TO.P,U1,18*%
%TO.N,/D6*%
X143764000Y-93345000D03*
%TO.P,U1,5*%
%TO.N,/A5*%
X128524000Y-78105000D03*
%TO.P,U1,19*%
%TO.N,/D7*%
X143764000Y-90805000D03*
%TO.P,U1,6*%
%TO.N,/A4*%
X128524000Y-80645000D03*
%TO.P,U1,20*%
%TO.N,/~ROM_0*%
X143764000Y-88265000D03*
%TO.P,U1,7*%
%TO.N,/A3*%
X128524000Y-83185000D03*
%TO.P,U1,21*%
%TO.N,/A10*%
X143764000Y-85725000D03*
%TO.P,U1,8*%
%TO.N,/A2*%
X128524000Y-85725000D03*
%TO.P,U1,22*%
%TO.N,/~ROM_OE*%
X143764000Y-83185000D03*
%TO.P,U1,9*%
%TO.N,/A1*%
X128524000Y-88265000D03*
%TO.P,U1,23*%
%TO.N,/A11*%
X143764000Y-80645000D03*
%TO.P,U1,10*%
%TO.N,/A0*%
X128524000Y-90805000D03*
%TO.P,U1,24*%
%TO.N,/A9*%
X143764000Y-78105000D03*
%TO.P,U1,11*%
%TO.N,/D0*%
X128524000Y-93345000D03*
%TO.P,U1,25*%
%TO.N,/A8*%
X143764000Y-75565000D03*
%TO.P,U1,12*%
%TO.N,/D1*%
X128524000Y-95885000D03*
%TO.P,U1,26*%
%TO.N,/A13*%
X143764000Y-73025000D03*
%TO.P,U1,13*%
%TO.N,/D2*%
X128524000Y-98425000D03*
%TO.P,U1,27*%
%TO.N,/BA14*%
X143764000Y-70485000D03*
%TO.P,U1,14*%
%TO.N,GND*%
X128524000Y-100965000D03*
%TO.P,U1,28*%
%TO.N,VCC*%
X143764000Y-67945000D03*
%TD*%
D14*
%TO.P,M1,1*%
%TO.N,N/C*%
X123444000Y-100330000D03*
%TD*%
%TO.P,M2,1*%
%TO.N,N/C*%
X175011000Y-100330000D03*
%TD*%
%TO.P,M3,1*%
%TO.N,N/C*%
X175011000Y-62230000D03*
%TD*%
%TO.P,M4,1*%
%TO.N,N/C*%
X123444000Y-62230000D03*
%TD*%
D11*
%TO.P,C2,1*%
%TO.N,VCC*%
X173609000Y-67945000D03*
%TO.P,C2,2*%
%TO.N,GND*%
X173609000Y-72945000D03*
%TD*%
D12*
%TO.P,U2,1*%
%TO.N,/BA15*%
X154559000Y-67945000D03*
D13*
%TO.P,U2,15*%
%TO.N,/D3*%
X169799000Y-100965000D03*
%TO.P,U2,2*%
%TO.N,/A12*%
X154559000Y-70485000D03*
%TO.P,U2,16*%
%TO.N,/D4*%
X169799000Y-98425000D03*
%TO.P,U2,3*%
%TO.N,/A7*%
X154559000Y-73025000D03*
%TO.P,U2,17*%
%TO.N,/D5*%
X169799000Y-95885000D03*
%TO.P,U2,4*%
%TO.N,/A6*%
X154559000Y-75565000D03*
%TO.P,U2,18*%
%TO.N,/D6*%
X169799000Y-93345000D03*
%TO.P,U2,5*%
%TO.N,/A5*%
X154559000Y-78105000D03*
%TO.P,U2,19*%
%TO.N,/D7*%
X169799000Y-90805000D03*
%TO.P,U2,6*%
%TO.N,/A4*%
X154559000Y-80645000D03*
%TO.P,U2,20*%
%TO.N,/~ROM_1*%
X169799000Y-88265000D03*
%TO.P,U2,7*%
%TO.N,/A3*%
X154559000Y-83185000D03*
%TO.P,U2,21*%
%TO.N,/A10*%
X169799000Y-85725000D03*
%TO.P,U2,8*%
%TO.N,/A2*%
X154559000Y-85725000D03*
%TO.P,U2,22*%
%TO.N,/~ROM_OE*%
X169799000Y-83185000D03*
%TO.P,U2,9*%
%TO.N,/A1*%
X154559000Y-88265000D03*
%TO.P,U2,23*%
%TO.N,/A11*%
X169799000Y-80645000D03*
%TO.P,U2,10*%
%TO.N,/A0*%
X154559000Y-90805000D03*
%TO.P,U2,24*%
%TO.N,/A9*%
X169799000Y-78105000D03*
%TO.P,U2,11*%
%TO.N,/D0*%
X154559000Y-93345000D03*
%TO.P,U2,25*%
%TO.N,/A8*%
X169799000Y-75565000D03*
%TO.P,U2,12*%
%TO.N,/D1*%
X154559000Y-95885000D03*
%TO.P,U2,26*%
%TO.N,/A13*%
X169799000Y-73025000D03*
%TO.P,U2,13*%
%TO.N,/D2*%
X154559000Y-98425000D03*
%TO.P,U2,27*%
%TO.N,/BA14*%
X169799000Y-70485000D03*
%TO.P,U2,14*%
%TO.N,GND*%
X154559000Y-100965000D03*
%TO.P,U2,28*%
%TO.N,VCC*%
X169799000Y-67945000D03*
%TD*%
D15*
%TO.N,/A12*%
X148773358Y-109464000D03*
%TO.N,/A7*%
X136388000Y-74295000D03*
X135001000Y-73533000D03*
X148115761Y-110089000D03*
%TO.N,/A6*%
X136388000Y-76835000D03*
X134429500Y-76009500D03*
X148844000Y-110714000D03*
%TO.N,/A5*%
X136388000Y-79375000D03*
X133858000Y-78486000D03*
X144907000Y-111379000D03*
%TO.N,/A4*%
X136388000Y-81915000D03*
X133604000Y-81280000D03*
X142367000Y-111379000D03*
%TO.N,/A3*%
X136388000Y-84455000D03*
X133032500Y-83756500D03*
X140335000Y-111379000D03*
%TO.N,/A10*%
X147701000Y-85725000D03*
X138811000Y-110871000D03*
%TO.N,/A2*%
X136388000Y-86995000D03*
X132461000Y-86233000D03*
X137795000Y-110871016D03*
%TO.N,/A1*%
X136388000Y-89535000D03*
X131889500Y-88709500D03*
X135255000Y-110871000D03*
%TO.N,/A11*%
X148209000Y-80645000D03*
X143383000Y-111379000D03*
%TO.N,/A0*%
X136388000Y-92075000D03*
X131318000Y-91186000D03*
X132715000Y-110871000D03*
%TO.N,/A9*%
X148717000Y-78105000D03*
X145923000Y-111379000D03*
%TO.N,/A8*%
X149225000Y-75565000D03*
X149987000Y-108839000D03*
%TO.N,GND*%
X122555000Y-108839000D03*
X175895000Y-108839000D03*
%TO.N,VCC*%
X151511000Y-65659000D03*
X155067000Y-108839000D03*
%TO.N,/D7*%
X133731000Y-110871000D03*
%TO.N,/D6*%
X131191000Y-110871000D03*
%TO.N,/D5*%
X128651000Y-110871000D03*
%TO.N,/D4*%
X126111000Y-110871000D03*
%TO.N,/D3*%
X123571000Y-110871000D03*
%TO.N,/D2*%
X136388000Y-98425000D03*
X125095000Y-110871000D03*
%TO.N,/D1*%
X136388000Y-97155000D03*
X130492500Y-96456500D03*
X127635000Y-110871000D03*
%TO.N,/D0*%
X136388000Y-94615000D03*
X131064000Y-93980000D03*
X130175000Y-110871000D03*
%TO.N,/A13*%
X150114000Y-71755000D03*
X151003000Y-108839000D03*
%TO.N,/~ROM_0*%
X165989000Y-100965000D03*
X165989000Y-87503000D03*
%TO.N,/~ROM_OE*%
X165364000Y-100320000D03*
X165354000Y-81915000D03*
%TO.N,/~ROM_1*%
X167894000Y-100330000D03*
%TO.N,Net-(J1-PadB18)*%
X172456000Y-86360000D03*
X167259000Y-100965000D03*
X167259000Y-110871000D03*
%TO.N,Net-(J1-PadB17)*%
X166634000Y-95123000D03*
X166634000Y-101727000D03*
X166634000Y-110305313D03*
%TD*%
D16*
%TO.N,/A12*%
X155575000Y-112141000D02*
X155575000Y-116078000D01*
X152898000Y-109464000D02*
X155575000Y-112141000D01*
X148773358Y-109464000D02*
X152898000Y-109464000D01*
%TO.N,/A7*%
X135763000Y-74295000D02*
X135001000Y-73533000D01*
X136388000Y-74295000D02*
X135763000Y-74295000D01*
X153035000Y-111950500D02*
X153035000Y-116078000D01*
X151173500Y-110089000D02*
X153035000Y-111950500D01*
X148115761Y-110089000D02*
X151173500Y-110089000D01*
%TO.N,/A6*%
X135255000Y-76835000D02*
X134429500Y-76009500D01*
X136388000Y-76835000D02*
X135255000Y-76835000D01*
X150495000Y-112141000D02*
X150495000Y-116078000D01*
X149068000Y-110714000D02*
X150495000Y-112141000D01*
X148844000Y-110714000D02*
X149068000Y-110714000D01*
%TO.N,/A5*%
X134747000Y-79375000D02*
X133858000Y-78486000D01*
X136388000Y-79375000D02*
X134747000Y-79375000D01*
X145415000Y-116078000D02*
X145415000Y-111887000D01*
X145415000Y-111887000D02*
X144907000Y-111379000D01*
%TO.N,/A4*%
X136388000Y-81915000D02*
X134239000Y-81915000D01*
X134239000Y-81915000D02*
X133604000Y-81280000D01*
X142875000Y-111887000D02*
X142367000Y-111379000D01*
X142875000Y-116078000D02*
X142875000Y-111887000D01*
%TO.N,/A3*%
X133731000Y-84455000D02*
X133032500Y-83756500D01*
X136388000Y-84455000D02*
X133731000Y-84455000D01*
X140335000Y-116078000D02*
X140335000Y-111379000D01*
%TO.N,/A10*%
X148463000Y-107315000D02*
X147955000Y-107823000D01*
X148463000Y-86487000D02*
X148463000Y-107315000D01*
X147701000Y-85725000D02*
X148463000Y-86487000D01*
X139319000Y-110363000D02*
X143383000Y-110363000D01*
X147955000Y-107823000D02*
X145923000Y-107823000D01*
X143383000Y-110363000D02*
X145923000Y-107823000D01*
X139319000Y-110363000D02*
X138811000Y-110871000D01*
%TO.N,/A2*%
X133223000Y-86995000D02*
X132461000Y-86233000D01*
X136388000Y-86995000D02*
X133223000Y-86995000D01*
X137795000Y-116078000D02*
X137795000Y-110871016D01*
%TO.N,/A1*%
X132715000Y-89535000D02*
X131889500Y-88709500D01*
X136388000Y-89535000D02*
X132715000Y-89535000D01*
X135255000Y-116078000D02*
X135255000Y-110871000D01*
%TO.N,/A11*%
X148913009Y-81349009D02*
X148209000Y-80645000D01*
X148913009Y-107880991D02*
X148913009Y-81349009D01*
X148463000Y-108331000D02*
X148913009Y-107880991D01*
X146431000Y-108331000D02*
X148463000Y-108331000D01*
X143383000Y-111379000D02*
X146431000Y-108331000D01*
%TO.N,/A0*%
X132207000Y-92075000D02*
X131318000Y-91186000D01*
X136388000Y-92075000D02*
X132207000Y-92075000D01*
X132715000Y-116078000D02*
X132715000Y-110871000D01*
%TO.N,/A9*%
X145923000Y-109855000D02*
X145923000Y-111379000D01*
X146939000Y-108839000D02*
X145923000Y-109855000D01*
X148971000Y-108839000D02*
X146939000Y-108839000D01*
X149479000Y-108331000D02*
X148971000Y-108839000D01*
X149479000Y-78867000D02*
X149479000Y-108331000D01*
X148717000Y-78105000D02*
X149479000Y-78867000D01*
%TO.N,/A8*%
X149987000Y-76327000D02*
X149225000Y-75565000D01*
X149987000Y-108331000D02*
X149987000Y-76327000D01*
X149987000Y-108331000D02*
X149987000Y-108839000D01*
D17*
%TO.N,GND*%
X122555000Y-116078000D02*
X122555000Y-108839000D01*
X175895000Y-116078000D02*
X175895000Y-108839000D01*
%TO.N,VCC*%
X151003000Y-66167000D02*
X151511000Y-65659000D01*
X147574000Y-67945000D02*
X151003000Y-67945000D01*
X151003000Y-67945000D02*
X151003000Y-66167000D01*
X155366999Y-109138999D02*
X155067000Y-108839000D01*
X158115000Y-115570000D02*
X158115000Y-111887000D01*
X158115000Y-111887000D02*
X155366999Y-109138999D01*
X151003000Y-67945000D02*
X151003000Y-107569000D01*
X151003000Y-107569000D02*
X151973001Y-108539001D01*
X151973001Y-108539001D02*
X154767001Y-108539001D01*
X154767001Y-108539001D02*
X155067000Y-108839000D01*
D16*
%TO.N,/D7*%
X147447000Y-107315000D02*
X147955000Y-106807000D01*
X147955000Y-106807000D02*
X147955000Y-91567000D01*
X147193000Y-90805000D02*
X143764000Y-90805000D01*
X147955000Y-91567000D02*
X147193000Y-90805000D01*
X133731000Y-110871000D02*
X134747000Y-109855000D01*
X142875000Y-109855000D02*
X145415000Y-107315000D01*
X145415000Y-107315000D02*
X147447000Y-107315000D01*
X134747000Y-109855000D02*
X142875000Y-109855000D01*
%TO.N,/D6*%
X146939000Y-106807000D02*
X147447000Y-106299000D01*
X147447000Y-106299000D02*
X147447000Y-94107000D01*
X146685000Y-93345000D02*
X143764000Y-93345000D01*
X147447000Y-94107000D02*
X146685000Y-93345000D01*
X145415000Y-106807000D02*
X146939000Y-106807000D01*
X144907000Y-106807000D02*
X145415000Y-106807000D01*
X142367000Y-109347000D02*
X144907000Y-106807000D01*
X132715000Y-109347000D02*
X142367000Y-109347000D01*
X131191000Y-110871000D02*
X132715000Y-109347000D01*
%TO.N,/D5*%
X146431000Y-106299000D02*
X146939000Y-105791000D01*
X146939000Y-105791000D02*
X146939000Y-96647000D01*
X146177000Y-95885000D02*
X143764000Y-95885000D01*
X146939000Y-96647000D02*
X146177000Y-95885000D01*
X128651000Y-110871000D02*
X130683000Y-108839000D01*
X141859000Y-108839000D02*
X144399000Y-106299000D01*
X144399000Y-106299000D02*
X146431000Y-106299000D01*
X130683000Y-108839000D02*
X141859000Y-108839000D01*
%TO.N,/D4*%
X145669000Y-98425000D02*
X143764000Y-98425000D01*
X146431000Y-105283000D02*
X146431000Y-99187000D01*
X145923000Y-105791000D02*
X146431000Y-105283000D01*
X146431000Y-99187000D02*
X145669000Y-98425000D01*
X126111000Y-110871000D02*
X128651000Y-108331000D01*
X141351000Y-108331000D02*
X143891000Y-105791000D01*
X128651000Y-108331000D02*
X141351000Y-108331000D01*
X143891000Y-105791000D02*
X145923000Y-105791000D01*
%TO.N,/D3*%
X145923000Y-104775000D02*
X145415000Y-105283000D01*
X145923000Y-101727000D02*
X145923000Y-104775000D01*
X145161000Y-100965000D02*
X145923000Y-101727000D01*
X143764000Y-100965000D02*
X145161000Y-100965000D01*
X123571000Y-110871000D02*
X126619000Y-107823000D01*
X140843000Y-107823000D02*
X143383000Y-105283000D01*
X126619000Y-107823000D02*
X140843000Y-107823000D01*
X145415000Y-105283000D02*
X143383000Y-105283000D01*
%TO.N,/D2*%
X136144000Y-98425000D02*
X128524000Y-98425000D01*
X136144000Y-98425000D02*
X136388000Y-98425000D01*
X125095000Y-116078000D02*
X125095000Y-110871000D01*
%TO.N,/D1*%
X131191000Y-97155000D02*
X130492500Y-96456500D01*
X136388000Y-97155000D02*
X131191000Y-97155000D01*
X127635000Y-116078000D02*
X127635000Y-110871000D01*
%TO.N,/D0*%
X131699000Y-94615000D02*
X131064000Y-93980000D01*
X136388000Y-94615000D02*
X131699000Y-94615000D01*
X130175000Y-116078000D02*
X130175000Y-110871000D01*
%TO.N,/A13*%
X150437010Y-72078010D02*
X150114000Y-71755000D01*
X150437010Y-108273010D02*
X150437010Y-72078010D01*
X151003000Y-108839000D02*
X150437010Y-108273010D01*
%TO.N,/~ROM_0*%
X165989000Y-100965000D02*
X165989000Y-87503000D01*
%TO.N,/~ROM_OE*%
X165364000Y-100320000D02*
X165364000Y-81925000D01*
X165364000Y-81925000D02*
X165354000Y-81915000D01*
%TO.N,/~ROM_1*%
X169799000Y-88265000D02*
X168349000Y-88265000D01*
X168349000Y-88265000D02*
X167894000Y-88720000D01*
X167894000Y-88720000D02*
X167894000Y-100330000D01*
%TO.N,Net-(J1-PadB18)*%
X172456000Y-86360000D02*
X171821000Y-86995000D01*
X171821000Y-86995000D02*
X167894000Y-86995000D01*
X167894000Y-86995000D02*
X167259000Y-87630000D01*
X167259000Y-87630000D02*
X167259000Y-93345000D01*
X167259000Y-93345000D02*
X167259000Y-100965000D01*
X165735000Y-112395000D02*
X167259000Y-110871000D01*
X165735000Y-116078000D02*
X165735000Y-112395000D01*
%TO.N,Net-(J1-PadB17)*%
X166634000Y-95123000D02*
X166634000Y-101727000D01*
X163195000Y-116078000D02*
X163195000Y-111887000D01*
X163195000Y-111887000D02*
X164211000Y-110871000D01*
X166068313Y-110871000D02*
X166634000Y-110305313D01*
X164211000Y-110871000D02*
X166068313Y-110871000D01*
%TD*%
D18*
%TO.N,GND*%
X175595429Y-59253166D02*
X176162406Y-59424347D01*
X176685339Y-59702396D01*
X177144302Y-60076716D01*
X177521821Y-60533060D01*
X177803513Y-61054038D01*
X177978645Y-61619802D01*
X178041246Y-62215403D01*
X178041297Y-62230197D01*
X178041298Y-109728000D01*
X166878673Y-109728000D01*
X166816889Y-109702408D01*
X166695754Y-109678313D01*
X166572246Y-109678313D01*
X166451111Y-109702408D01*
X166389327Y-109728000D01*
X156687855Y-109728000D01*
X155714957Y-108755102D01*
X155714952Y-108755098D01*
X155683298Y-108723444D01*
X155669905Y-108656111D01*
X155622640Y-108542004D01*
X155554023Y-108439311D01*
X155466689Y-108351977D01*
X155363996Y-108283360D01*
X155249889Y-108236095D01*
X155182557Y-108222702D01*
X155150904Y-108191050D01*
X155134699Y-108171303D01*
X155055899Y-108106634D01*
X154965998Y-108058581D01*
X154868449Y-108028990D01*
X154792414Y-108021501D01*
X154767001Y-108018998D01*
X154741588Y-108021501D01*
X152187356Y-108021501D01*
X151520500Y-107354645D01*
X151520500Y-101314039D01*
X152767096Y-101314039D01*
X152784633Y-101396818D01*
X152895285Y-101656646D01*
X153054500Y-101889895D01*
X153256161Y-102087601D01*
X153492517Y-102242166D01*
X153754486Y-102347650D01*
X154032000Y-102400000D01*
X154432000Y-102400000D01*
X154432000Y-101092000D01*
X154686000Y-101092000D01*
X154686000Y-102400000D01*
X155086000Y-102400000D01*
X155363514Y-102347650D01*
X155625483Y-102242166D01*
X155861839Y-102087601D01*
X156063500Y-101889895D01*
X156222715Y-101656646D01*
X156333367Y-101396818D01*
X156350904Y-101314039D01*
X156228915Y-101092000D01*
X154686000Y-101092000D01*
X154432000Y-101092000D01*
X152889085Y-101092000D01*
X152767096Y-101314039D01*
X151520500Y-101314039D01*
X151520500Y-100615961D01*
X152767096Y-100615961D01*
X152889085Y-100838000D01*
X154432000Y-100838000D01*
X154432000Y-100818000D01*
X154686000Y-100818000D01*
X154686000Y-100838000D01*
X156228915Y-100838000D01*
X156350904Y-100615961D01*
X156333367Y-100533182D01*
X156222715Y-100273354D01*
X156063500Y-100040105D01*
X155861839Y-99842399D01*
X155625483Y-99687834D01*
X155363514Y-99582350D01*
X155138048Y-99539818D01*
X155179931Y-99535693D01*
X155392371Y-99471250D01*
X155588157Y-99366600D01*
X155759765Y-99225765D01*
X155900600Y-99054157D01*
X156005250Y-98858371D01*
X156069693Y-98645931D01*
X156091453Y-98425000D01*
X156069693Y-98204069D01*
X156005250Y-97991629D01*
X155900600Y-97795843D01*
X155759765Y-97624235D01*
X155588157Y-97483400D01*
X155392371Y-97378750D01*
X155179931Y-97314307D01*
X155014365Y-97298000D01*
X154103635Y-97298000D01*
X153938069Y-97314307D01*
X153725629Y-97378750D01*
X153529843Y-97483400D01*
X153358235Y-97624235D01*
X153217400Y-97795843D01*
X153112750Y-97991629D01*
X153048307Y-98204069D01*
X153026547Y-98425000D01*
X153048307Y-98645931D01*
X153112750Y-98858371D01*
X153217400Y-99054157D01*
X153358235Y-99225765D01*
X153529843Y-99366600D01*
X153725629Y-99471250D01*
X153938069Y-99535693D01*
X153979952Y-99539818D01*
X153754486Y-99582350D01*
X153492517Y-99687834D01*
X153256161Y-99842399D01*
X153054500Y-100040105D01*
X152895285Y-100273354D01*
X152784633Y-100533182D01*
X152767096Y-100615961D01*
X151520500Y-100615961D01*
X151520500Y-95885000D01*
X153026547Y-95885000D01*
X153048307Y-96105931D01*
X153112750Y-96318371D01*
X153217400Y-96514157D01*
X153358235Y-96685765D01*
X153529843Y-96826600D01*
X153725629Y-96931250D01*
X153938069Y-96995693D01*
X154103635Y-97012000D01*
X155014365Y-97012000D01*
X155179931Y-96995693D01*
X155392371Y-96931250D01*
X155588157Y-96826600D01*
X155759765Y-96685765D01*
X155900600Y-96514157D01*
X156005250Y-96318371D01*
X156069693Y-96105931D01*
X156091453Y-95885000D01*
X156069693Y-95664069D01*
X156005250Y-95451629D01*
X155900600Y-95255843D01*
X155759765Y-95084235D01*
X155588157Y-94943400D01*
X155392371Y-94838750D01*
X155179931Y-94774307D01*
X155014365Y-94758000D01*
X154103635Y-94758000D01*
X153938069Y-94774307D01*
X153725629Y-94838750D01*
X153529843Y-94943400D01*
X153358235Y-95084235D01*
X153217400Y-95255843D01*
X153112750Y-95451629D01*
X153048307Y-95664069D01*
X153026547Y-95885000D01*
X151520500Y-95885000D01*
X151520500Y-93345000D01*
X153026547Y-93345000D01*
X153048307Y-93565931D01*
X153112750Y-93778371D01*
X153217400Y-93974157D01*
X153358235Y-94145765D01*
X153529843Y-94286600D01*
X153725629Y-94391250D01*
X153938069Y-94455693D01*
X154103635Y-94472000D01*
X155014365Y-94472000D01*
X155179931Y-94455693D01*
X155392371Y-94391250D01*
X155588157Y-94286600D01*
X155759765Y-94145765D01*
X155900600Y-93974157D01*
X156005250Y-93778371D01*
X156069693Y-93565931D01*
X156091453Y-93345000D01*
X156069693Y-93124069D01*
X156005250Y-92911629D01*
X155900600Y-92715843D01*
X155759765Y-92544235D01*
X155588157Y-92403400D01*
X155392371Y-92298750D01*
X155179931Y-92234307D01*
X155014365Y-92218000D01*
X154103635Y-92218000D01*
X153938069Y-92234307D01*
X153725629Y-92298750D01*
X153529843Y-92403400D01*
X153358235Y-92544235D01*
X153217400Y-92715843D01*
X153112750Y-92911629D01*
X153048307Y-93124069D01*
X153026547Y-93345000D01*
X151520500Y-93345000D01*
X151520500Y-90805000D01*
X153026547Y-90805000D01*
X153048307Y-91025931D01*
X153112750Y-91238371D01*
X153217400Y-91434157D01*
X153358235Y-91605765D01*
X153529843Y-91746600D01*
X153725629Y-91851250D01*
X153938069Y-91915693D01*
X154103635Y-91932000D01*
X155014365Y-91932000D01*
X155179931Y-91915693D01*
X155392371Y-91851250D01*
X155588157Y-91746600D01*
X155759765Y-91605765D01*
X155900600Y-91434157D01*
X156005250Y-91238371D01*
X156069693Y-91025931D01*
X156091453Y-90805000D01*
X156069693Y-90584069D01*
X156005250Y-90371629D01*
X155900600Y-90175843D01*
X155759765Y-90004235D01*
X155588157Y-89863400D01*
X155392371Y-89758750D01*
X155179931Y-89694307D01*
X155014365Y-89678000D01*
X154103635Y-89678000D01*
X153938069Y-89694307D01*
X153725629Y-89758750D01*
X153529843Y-89863400D01*
X153358235Y-90004235D01*
X153217400Y-90175843D01*
X153112750Y-90371629D01*
X153048307Y-90584069D01*
X153026547Y-90805000D01*
X151520500Y-90805000D01*
X151520500Y-88265000D01*
X153026547Y-88265000D01*
X153048307Y-88485931D01*
X153112750Y-88698371D01*
X153217400Y-88894157D01*
X153358235Y-89065765D01*
X153529843Y-89206600D01*
X153725629Y-89311250D01*
X153938069Y-89375693D01*
X154103635Y-89392000D01*
X155014365Y-89392000D01*
X155179931Y-89375693D01*
X155392371Y-89311250D01*
X155588157Y-89206600D01*
X155759765Y-89065765D01*
X155900600Y-88894157D01*
X156005250Y-88698371D01*
X156069693Y-88485931D01*
X156091453Y-88265000D01*
X156069693Y-88044069D01*
X156005250Y-87831629D01*
X155900600Y-87635843D01*
X155759765Y-87464235D01*
X155588157Y-87323400D01*
X155392371Y-87218750D01*
X155179931Y-87154307D01*
X155014365Y-87138000D01*
X154103635Y-87138000D01*
X153938069Y-87154307D01*
X153725629Y-87218750D01*
X153529843Y-87323400D01*
X153358235Y-87464235D01*
X153217400Y-87635843D01*
X153112750Y-87831629D01*
X153048307Y-88044069D01*
X153026547Y-88265000D01*
X151520500Y-88265000D01*
X151520500Y-85725000D01*
X153026547Y-85725000D01*
X153048307Y-85945931D01*
X153112750Y-86158371D01*
X153217400Y-86354157D01*
X153358235Y-86525765D01*
X153529843Y-86666600D01*
X153725629Y-86771250D01*
X153938069Y-86835693D01*
X154103635Y-86852000D01*
X155014365Y-86852000D01*
X155179931Y-86835693D01*
X155392371Y-86771250D01*
X155588157Y-86666600D01*
X155759765Y-86525765D01*
X155900600Y-86354157D01*
X156005250Y-86158371D01*
X156069693Y-85945931D01*
X156091453Y-85725000D01*
X156069693Y-85504069D01*
X156005250Y-85291629D01*
X155900600Y-85095843D01*
X155759765Y-84924235D01*
X155588157Y-84783400D01*
X155392371Y-84678750D01*
X155179931Y-84614307D01*
X155014365Y-84598000D01*
X154103635Y-84598000D01*
X153938069Y-84614307D01*
X153725629Y-84678750D01*
X153529843Y-84783400D01*
X153358235Y-84924235D01*
X153217400Y-85095843D01*
X153112750Y-85291629D01*
X153048307Y-85504069D01*
X153026547Y-85725000D01*
X151520500Y-85725000D01*
X151520500Y-83185000D01*
X153026547Y-83185000D01*
X153048307Y-83405931D01*
X153112750Y-83618371D01*
X153217400Y-83814157D01*
X153358235Y-83985765D01*
X153529843Y-84126600D01*
X153725629Y-84231250D01*
X153938069Y-84295693D01*
X154103635Y-84312000D01*
X155014365Y-84312000D01*
X155179931Y-84295693D01*
X155392371Y-84231250D01*
X155588157Y-84126600D01*
X155759765Y-83985765D01*
X155900600Y-83814157D01*
X156005250Y-83618371D01*
X156069693Y-83405931D01*
X156091453Y-83185000D01*
X156069693Y-82964069D01*
X156005250Y-82751629D01*
X155900600Y-82555843D01*
X155759765Y-82384235D01*
X155588157Y-82243400D01*
X155392371Y-82138750D01*
X155179931Y-82074307D01*
X155014365Y-82058000D01*
X154103635Y-82058000D01*
X153938069Y-82074307D01*
X153725629Y-82138750D01*
X153529843Y-82243400D01*
X153358235Y-82384235D01*
X153217400Y-82555843D01*
X153112750Y-82751629D01*
X153048307Y-82964069D01*
X153026547Y-83185000D01*
X151520500Y-83185000D01*
X151520500Y-81853246D01*
X164727000Y-81853246D01*
X164727000Y-81976754D01*
X164751095Y-82097889D01*
X164798360Y-82211996D01*
X164866977Y-82314689D01*
X164912001Y-82359713D01*
X164912000Y-99885288D01*
X164876977Y-99920311D01*
X164808360Y-100023004D01*
X164761095Y-100137111D01*
X164737000Y-100258246D01*
X164737000Y-100381754D01*
X164761095Y-100502889D01*
X164808360Y-100616996D01*
X164876977Y-100719689D01*
X164964311Y-100807023D01*
X165067004Y-100875640D01*
X165181111Y-100922905D01*
X165302246Y-100947000D01*
X165362000Y-100947000D01*
X165362000Y-101026754D01*
X165386095Y-101147889D01*
X165433360Y-101261996D01*
X165501977Y-101364689D01*
X165589311Y-101452023D01*
X165692004Y-101520640D01*
X165806111Y-101567905D01*
X165927246Y-101592000D01*
X166021569Y-101592000D01*
X166007000Y-101665246D01*
X166007000Y-101788754D01*
X166031095Y-101909889D01*
X166078360Y-102023996D01*
X166146977Y-102126689D01*
X166234311Y-102214023D01*
X166337004Y-102282640D01*
X166451111Y-102329905D01*
X166572246Y-102354000D01*
X166695754Y-102354000D01*
X166816889Y-102329905D01*
X166930996Y-102282640D01*
X167033689Y-102214023D01*
X167121023Y-102126689D01*
X167189640Y-102023996D01*
X167236905Y-101909889D01*
X167261000Y-101788754D01*
X167261000Y-101665246D01*
X167246431Y-101592000D01*
X167320754Y-101592000D01*
X167441889Y-101567905D01*
X167555996Y-101520640D01*
X167658689Y-101452023D01*
X167746023Y-101364689D01*
X167814640Y-101261996D01*
X167861905Y-101147889D01*
X167886000Y-101026754D01*
X167886000Y-100957000D01*
X167955754Y-100957000D01*
X168076889Y-100932905D01*
X168190996Y-100885640D01*
X168280236Y-100826012D01*
X168266547Y-100965000D01*
X168288307Y-101185931D01*
X168352750Y-101398371D01*
X168457400Y-101594157D01*
X168598235Y-101765765D01*
X168769843Y-101906600D01*
X168965629Y-102011250D01*
X169178069Y-102075693D01*
X169343635Y-102092000D01*
X170254365Y-102092000D01*
X170419931Y-102075693D01*
X170632371Y-102011250D01*
X170828157Y-101906600D01*
X170999765Y-101765765D01*
X171140600Y-101594157D01*
X171245250Y-101398371D01*
X171309693Y-101185931D01*
X171331453Y-100965000D01*
X171309693Y-100744069D01*
X171245250Y-100531629D01*
X171140600Y-100335843D01*
X170999765Y-100164235D01*
X170952485Y-100125433D01*
X172934000Y-100125433D01*
X172934000Y-100534567D01*
X173013818Y-100935839D01*
X173170386Y-101313829D01*
X173397689Y-101654011D01*
X173686989Y-101943311D01*
X174027171Y-102170614D01*
X174405161Y-102327182D01*
X174806433Y-102407000D01*
X175215567Y-102407000D01*
X175616839Y-102327182D01*
X175994829Y-102170614D01*
X176335011Y-101943311D01*
X176624311Y-101654011D01*
X176851614Y-101313829D01*
X177008182Y-100935839D01*
X177088000Y-100534567D01*
X177088000Y-100125433D01*
X177008182Y-99724161D01*
X176851614Y-99346171D01*
X176624311Y-99005989D01*
X176335011Y-98716689D01*
X175994829Y-98489386D01*
X175616839Y-98332818D01*
X175215567Y-98253000D01*
X174806433Y-98253000D01*
X174405161Y-98332818D01*
X174027171Y-98489386D01*
X173686989Y-98716689D01*
X173397689Y-99005989D01*
X173170386Y-99346171D01*
X173013818Y-99724161D01*
X172934000Y-100125433D01*
X170952485Y-100125433D01*
X170828157Y-100023400D01*
X170632371Y-99918750D01*
X170419931Y-99854307D01*
X170254365Y-99838000D01*
X169343635Y-99838000D01*
X169178069Y-99854307D01*
X168965629Y-99918750D01*
X168769843Y-100023400D01*
X168598235Y-100164235D01*
X168519415Y-100260277D01*
X168496905Y-100147111D01*
X168449640Y-100033004D01*
X168381023Y-99930311D01*
X168346000Y-99895288D01*
X168346000Y-98836119D01*
X168352750Y-98858371D01*
X168457400Y-99054157D01*
X168598235Y-99225765D01*
X168769843Y-99366600D01*
X168965629Y-99471250D01*
X169178069Y-99535693D01*
X169343635Y-99552000D01*
X170254365Y-99552000D01*
X170419931Y-99535693D01*
X170632371Y-99471250D01*
X170828157Y-99366600D01*
X170999765Y-99225765D01*
X171140600Y-99054157D01*
X171245250Y-98858371D01*
X171309693Y-98645931D01*
X171331453Y-98425000D01*
X171309693Y-98204069D01*
X171245250Y-97991629D01*
X171140600Y-97795843D01*
X170999765Y-97624235D01*
X170828157Y-97483400D01*
X170632371Y-97378750D01*
X170419931Y-97314307D01*
X170254365Y-97298000D01*
X169343635Y-97298000D01*
X169178069Y-97314307D01*
X168965629Y-97378750D01*
X168769843Y-97483400D01*
X168598235Y-97624235D01*
X168457400Y-97795843D01*
X168352750Y-97991629D01*
X168346000Y-98013881D01*
X168346000Y-96296119D01*
X168352750Y-96318371D01*
X168457400Y-96514157D01*
X168598235Y-96685765D01*
X168769843Y-96826600D01*
X168965629Y-96931250D01*
X169178069Y-96995693D01*
X169343635Y-97012000D01*
X170254365Y-97012000D01*
X170419931Y-96995693D01*
X170632371Y-96931250D01*
X170828157Y-96826600D01*
X170999765Y-96685765D01*
X171140600Y-96514157D01*
X171245250Y-96318371D01*
X171309693Y-96105931D01*
X171331453Y-95885000D01*
X171309693Y-95664069D01*
X171245250Y-95451629D01*
X171140600Y-95255843D01*
X170999765Y-95084235D01*
X170828157Y-94943400D01*
X170632371Y-94838750D01*
X170419931Y-94774307D01*
X170254365Y-94758000D01*
X169343635Y-94758000D01*
X169178069Y-94774307D01*
X168965629Y-94838750D01*
X168769843Y-94943400D01*
X168598235Y-95084235D01*
X168457400Y-95255843D01*
X168352750Y-95451629D01*
X168346000Y-95473881D01*
X168346000Y-93756119D01*
X168352750Y-93778371D01*
X168457400Y-93974157D01*
X168598235Y-94145765D01*
X168769843Y-94286600D01*
X168965629Y-94391250D01*
X169178069Y-94455693D01*
X169343635Y-94472000D01*
X170254365Y-94472000D01*
X170419931Y-94455693D01*
X170632371Y-94391250D01*
X170828157Y-94286600D01*
X170999765Y-94145765D01*
X171140600Y-93974157D01*
X171245250Y-93778371D01*
X171309693Y-93565931D01*
X171331453Y-93345000D01*
X171309693Y-93124069D01*
X171245250Y-92911629D01*
X171140600Y-92715843D01*
X170999765Y-92544235D01*
X170828157Y-92403400D01*
X170632371Y-92298750D01*
X170419931Y-92234307D01*
X170254365Y-92218000D01*
X169343635Y-92218000D01*
X169178069Y-92234307D01*
X168965629Y-92298750D01*
X168769843Y-92403400D01*
X168598235Y-92544235D01*
X168457400Y-92715843D01*
X168352750Y-92911629D01*
X168346000Y-92933881D01*
X168346000Y-91216119D01*
X168352750Y-91238371D01*
X168457400Y-91434157D01*
X168598235Y-91605765D01*
X168769843Y-91746600D01*
X168965629Y-91851250D01*
X169178069Y-91915693D01*
X169343635Y-91932000D01*
X170254365Y-91932000D01*
X170419931Y-91915693D01*
X170632371Y-91851250D01*
X170828157Y-91746600D01*
X170999765Y-91605765D01*
X171140600Y-91434157D01*
X171245250Y-91238371D01*
X171309693Y-91025931D01*
X171331453Y-90805000D01*
X171309693Y-90584069D01*
X171245250Y-90371629D01*
X171140600Y-90175843D01*
X170999765Y-90004235D01*
X170828157Y-89863400D01*
X170632371Y-89758750D01*
X170419931Y-89694307D01*
X170254365Y-89678000D01*
X169343635Y-89678000D01*
X169178069Y-89694307D01*
X168965629Y-89758750D01*
X168769843Y-89863400D01*
X168598235Y-90004235D01*
X168457400Y-90175843D01*
X168352750Y-90371629D01*
X168346000Y-90393881D01*
X168346000Y-88907224D01*
X168423148Y-88830076D01*
X168457400Y-88894157D01*
X168598235Y-89065765D01*
X168769843Y-89206600D01*
X168965629Y-89311250D01*
X169178069Y-89375693D01*
X169343635Y-89392000D01*
X170254365Y-89392000D01*
X170419931Y-89375693D01*
X170632371Y-89311250D01*
X170828157Y-89206600D01*
X170999765Y-89065765D01*
X171140600Y-88894157D01*
X171245250Y-88698371D01*
X171309693Y-88485931D01*
X171331453Y-88265000D01*
X171309693Y-88044069D01*
X171245250Y-87831629D01*
X171140600Y-87635843D01*
X170999765Y-87464235D01*
X170978764Y-87447000D01*
X171798795Y-87447000D01*
X171821000Y-87449187D01*
X171843205Y-87447000D01*
X171909607Y-87440460D01*
X171994810Y-87414614D01*
X172073333Y-87372643D01*
X172142159Y-87316159D01*
X172156323Y-87298900D01*
X172468224Y-86987000D01*
X172517754Y-86987000D01*
X172638889Y-86962905D01*
X172752996Y-86915640D01*
X172855689Y-86847023D01*
X172943023Y-86759689D01*
X173011640Y-86656996D01*
X173058905Y-86542889D01*
X173083000Y-86421754D01*
X173083000Y-86298246D01*
X173058905Y-86177111D01*
X173011640Y-86063004D01*
X172943023Y-85960311D01*
X172855689Y-85872977D01*
X172752996Y-85804360D01*
X172638889Y-85757095D01*
X172517754Y-85733000D01*
X172394246Y-85733000D01*
X172273111Y-85757095D01*
X172159004Y-85804360D01*
X172056311Y-85872977D01*
X171968977Y-85960311D01*
X171900360Y-86063004D01*
X171853095Y-86177111D01*
X171829000Y-86298246D01*
X171829000Y-86347776D01*
X171633777Y-86543000D01*
X170978764Y-86543000D01*
X170999765Y-86525765D01*
X171140600Y-86354157D01*
X171245250Y-86158371D01*
X171309693Y-85945931D01*
X171331453Y-85725000D01*
X171309693Y-85504069D01*
X171245250Y-85291629D01*
X171140600Y-85095843D01*
X170999765Y-84924235D01*
X170828157Y-84783400D01*
X170632371Y-84678750D01*
X170419931Y-84614307D01*
X170254365Y-84598000D01*
X169343635Y-84598000D01*
X169178069Y-84614307D01*
X168965629Y-84678750D01*
X168769843Y-84783400D01*
X168598235Y-84924235D01*
X168457400Y-85095843D01*
X168352750Y-85291629D01*
X168288307Y-85504069D01*
X168266547Y-85725000D01*
X168288307Y-85945931D01*
X168352750Y-86158371D01*
X168457400Y-86354157D01*
X168598235Y-86525765D01*
X168619236Y-86543000D01*
X167916205Y-86543000D01*
X167894000Y-86540813D01*
X167805392Y-86549540D01*
X167720190Y-86575386D01*
X167641667Y-86617357D01*
X167572841Y-86673841D01*
X167558681Y-86691095D01*
X166955100Y-87294677D01*
X166937841Y-87308841D01*
X166881357Y-87377668D01*
X166861609Y-87414614D01*
X166839386Y-87456191D01*
X166813540Y-87541393D01*
X166804813Y-87630000D01*
X166807000Y-87652205D01*
X166807001Y-93322786D01*
X166807000Y-93322796D01*
X166807000Y-94518128D01*
X166695754Y-94496000D01*
X166572246Y-94496000D01*
X166451111Y-94520095D01*
X166441000Y-94524283D01*
X166441000Y-87937712D01*
X166476023Y-87902689D01*
X166544640Y-87799996D01*
X166591905Y-87685889D01*
X166616000Y-87564754D01*
X166616000Y-87441246D01*
X166591905Y-87320111D01*
X166544640Y-87206004D01*
X166476023Y-87103311D01*
X166388689Y-87015977D01*
X166285996Y-86947360D01*
X166171889Y-86900095D01*
X166050754Y-86876000D01*
X165927246Y-86876000D01*
X165816000Y-86898128D01*
X165816000Y-83185000D01*
X168266547Y-83185000D01*
X168288307Y-83405931D01*
X168352750Y-83618371D01*
X168457400Y-83814157D01*
X168598235Y-83985765D01*
X168769843Y-84126600D01*
X168965629Y-84231250D01*
X169178069Y-84295693D01*
X169343635Y-84312000D01*
X170254365Y-84312000D01*
X170419931Y-84295693D01*
X170632371Y-84231250D01*
X170828157Y-84126600D01*
X170999765Y-83985765D01*
X171140600Y-83814157D01*
X171245250Y-83618371D01*
X171309693Y-83405931D01*
X171331453Y-83185000D01*
X171309693Y-82964069D01*
X171245250Y-82751629D01*
X171140600Y-82555843D01*
X170999765Y-82384235D01*
X170828157Y-82243400D01*
X170632371Y-82138750D01*
X170419931Y-82074307D01*
X170254365Y-82058000D01*
X169343635Y-82058000D01*
X169178069Y-82074307D01*
X168965629Y-82138750D01*
X168769843Y-82243400D01*
X168598235Y-82384235D01*
X168457400Y-82555843D01*
X168352750Y-82751629D01*
X168288307Y-82964069D01*
X168266547Y-83185000D01*
X165816000Y-83185000D01*
X165816000Y-82339712D01*
X165841023Y-82314689D01*
X165909640Y-82211996D01*
X165956905Y-82097889D01*
X165981000Y-81976754D01*
X165981000Y-81853246D01*
X165956905Y-81732111D01*
X165909640Y-81618004D01*
X165841023Y-81515311D01*
X165753689Y-81427977D01*
X165650996Y-81359360D01*
X165536889Y-81312095D01*
X165415754Y-81288000D01*
X165292246Y-81288000D01*
X165171111Y-81312095D01*
X165057004Y-81359360D01*
X164954311Y-81427977D01*
X164866977Y-81515311D01*
X164798360Y-81618004D01*
X164751095Y-81732111D01*
X164727000Y-81853246D01*
X151520500Y-81853246D01*
X151520500Y-80645000D01*
X153026547Y-80645000D01*
X153048307Y-80865931D01*
X153112750Y-81078371D01*
X153217400Y-81274157D01*
X153358235Y-81445765D01*
X153529843Y-81586600D01*
X153725629Y-81691250D01*
X153938069Y-81755693D01*
X154103635Y-81772000D01*
X155014365Y-81772000D01*
X155179931Y-81755693D01*
X155392371Y-81691250D01*
X155588157Y-81586600D01*
X155759765Y-81445765D01*
X155900600Y-81274157D01*
X156005250Y-81078371D01*
X156069693Y-80865931D01*
X156091453Y-80645000D01*
X168266547Y-80645000D01*
X168288307Y-80865931D01*
X168352750Y-81078371D01*
X168457400Y-81274157D01*
X168598235Y-81445765D01*
X168769843Y-81586600D01*
X168965629Y-81691250D01*
X169178069Y-81755693D01*
X169343635Y-81772000D01*
X170254365Y-81772000D01*
X170419931Y-81755693D01*
X170632371Y-81691250D01*
X170828157Y-81586600D01*
X170999765Y-81445765D01*
X171140600Y-81274157D01*
X171245250Y-81078371D01*
X171309693Y-80865931D01*
X171331453Y-80645000D01*
X171309693Y-80424069D01*
X171245250Y-80211629D01*
X171140600Y-80015843D01*
X170999765Y-79844235D01*
X170828157Y-79703400D01*
X170632371Y-79598750D01*
X170419931Y-79534307D01*
X170254365Y-79518000D01*
X169343635Y-79518000D01*
X169178069Y-79534307D01*
X168965629Y-79598750D01*
X168769843Y-79703400D01*
X168598235Y-79844235D01*
X168457400Y-80015843D01*
X168352750Y-80211629D01*
X168288307Y-80424069D01*
X168266547Y-80645000D01*
X156091453Y-80645000D01*
X156069693Y-80424069D01*
X156005250Y-80211629D01*
X155900600Y-80015843D01*
X155759765Y-79844235D01*
X155588157Y-79703400D01*
X155392371Y-79598750D01*
X155179931Y-79534307D01*
X155014365Y-79518000D01*
X154103635Y-79518000D01*
X153938069Y-79534307D01*
X153725629Y-79598750D01*
X153529843Y-79703400D01*
X153358235Y-79844235D01*
X153217400Y-80015843D01*
X153112750Y-80211629D01*
X153048307Y-80424069D01*
X153026547Y-80645000D01*
X151520500Y-80645000D01*
X151520500Y-78105000D01*
X153026547Y-78105000D01*
X153048307Y-78325931D01*
X153112750Y-78538371D01*
X153217400Y-78734157D01*
X153358235Y-78905765D01*
X153529843Y-79046600D01*
X153725629Y-79151250D01*
X153938069Y-79215693D01*
X154103635Y-79232000D01*
X155014365Y-79232000D01*
X155179931Y-79215693D01*
X155392371Y-79151250D01*
X155588157Y-79046600D01*
X155759765Y-78905765D01*
X155900600Y-78734157D01*
X156005250Y-78538371D01*
X156069693Y-78325931D01*
X156091453Y-78105000D01*
X168266547Y-78105000D01*
X168288307Y-78325931D01*
X168352750Y-78538371D01*
X168457400Y-78734157D01*
X168598235Y-78905765D01*
X168769843Y-79046600D01*
X168965629Y-79151250D01*
X169178069Y-79215693D01*
X169343635Y-79232000D01*
X170254365Y-79232000D01*
X170419931Y-79215693D01*
X170632371Y-79151250D01*
X170828157Y-79046600D01*
X170999765Y-78905765D01*
X171140600Y-78734157D01*
X171245250Y-78538371D01*
X171309693Y-78325931D01*
X171331453Y-78105000D01*
X171309693Y-77884069D01*
X171245250Y-77671629D01*
X171140600Y-77475843D01*
X170999765Y-77304235D01*
X170828157Y-77163400D01*
X170632371Y-77058750D01*
X170419931Y-76994307D01*
X170254365Y-76978000D01*
X169343635Y-76978000D01*
X169178069Y-76994307D01*
X168965629Y-77058750D01*
X168769843Y-77163400D01*
X168598235Y-77304235D01*
X168457400Y-77475843D01*
X168352750Y-77671629D01*
X168288307Y-77884069D01*
X168266547Y-78105000D01*
X156091453Y-78105000D01*
X156069693Y-77884069D01*
X156005250Y-77671629D01*
X155900600Y-77475843D01*
X155759765Y-77304235D01*
X155588157Y-77163400D01*
X155392371Y-77058750D01*
X155179931Y-76994307D01*
X155014365Y-76978000D01*
X154103635Y-76978000D01*
X153938069Y-76994307D01*
X153725629Y-77058750D01*
X153529843Y-77163400D01*
X153358235Y-77304235D01*
X153217400Y-77475843D01*
X153112750Y-77671629D01*
X153048307Y-77884069D01*
X153026547Y-78105000D01*
X151520500Y-78105000D01*
X151520500Y-75565000D01*
X153026547Y-75565000D01*
X153048307Y-75785931D01*
X153112750Y-75998371D01*
X153217400Y-76194157D01*
X153358235Y-76365765D01*
X153529843Y-76506600D01*
X153725629Y-76611250D01*
X153938069Y-76675693D01*
X154103635Y-76692000D01*
X155014365Y-76692000D01*
X155179931Y-76675693D01*
X155392371Y-76611250D01*
X155588157Y-76506600D01*
X155759765Y-76365765D01*
X155900600Y-76194157D01*
X156005250Y-75998371D01*
X156069693Y-75785931D01*
X156091453Y-75565000D01*
X168266547Y-75565000D01*
X168288307Y-75785931D01*
X168352750Y-75998371D01*
X168457400Y-76194157D01*
X168598235Y-76365765D01*
X168769843Y-76506600D01*
X168965629Y-76611250D01*
X169178069Y-76675693D01*
X169343635Y-76692000D01*
X170254365Y-76692000D01*
X170419931Y-76675693D01*
X170632371Y-76611250D01*
X170828157Y-76506600D01*
X170999765Y-76365765D01*
X171140600Y-76194157D01*
X171245250Y-75998371D01*
X171309693Y-75785931D01*
X171331453Y-75565000D01*
X171309693Y-75344069D01*
X171245250Y-75131629D01*
X171140600Y-74935843D01*
X170999765Y-74764235D01*
X170828157Y-74623400D01*
X170632371Y-74518750D01*
X170419931Y-74454307D01*
X170254365Y-74438000D01*
X169343635Y-74438000D01*
X169178069Y-74454307D01*
X168965629Y-74518750D01*
X168769843Y-74623400D01*
X168598235Y-74764235D01*
X168457400Y-74935843D01*
X168352750Y-75131629D01*
X168288307Y-75344069D01*
X168266547Y-75565000D01*
X156091453Y-75565000D01*
X156069693Y-75344069D01*
X156005250Y-75131629D01*
X155900600Y-74935843D01*
X155759765Y-74764235D01*
X155588157Y-74623400D01*
X155392371Y-74518750D01*
X155179931Y-74454307D01*
X155014365Y-74438000D01*
X154103635Y-74438000D01*
X153938069Y-74454307D01*
X153725629Y-74518750D01*
X153529843Y-74623400D01*
X153358235Y-74764235D01*
X153217400Y-74935843D01*
X153112750Y-75131629D01*
X153048307Y-75344069D01*
X153026547Y-75565000D01*
X151520500Y-75565000D01*
X151520500Y-73025000D01*
X153026547Y-73025000D01*
X153048307Y-73245931D01*
X153112750Y-73458371D01*
X153217400Y-73654157D01*
X153358235Y-73825765D01*
X153529843Y-73966600D01*
X153725629Y-74071250D01*
X153938069Y-74135693D01*
X154103635Y-74152000D01*
X155014365Y-74152000D01*
X155179931Y-74135693D01*
X155392371Y-74071250D01*
X155588157Y-73966600D01*
X155759765Y-73825765D01*
X155900600Y-73654157D01*
X156005250Y-73458371D01*
X156069693Y-73245931D01*
X156091453Y-73025000D01*
X168266547Y-73025000D01*
X168288307Y-73245931D01*
X168352750Y-73458371D01*
X168457400Y-73654157D01*
X168598235Y-73825765D01*
X168769843Y-73966600D01*
X168965629Y-74071250D01*
X169178069Y-74135693D01*
X169343635Y-74152000D01*
X170254365Y-74152000D01*
X170419931Y-74135693D01*
X170632371Y-74071250D01*
X170828157Y-73966600D01*
X170863369Y-73937702D01*
X172795903Y-73937702D01*
X172867486Y-74181671D01*
X173122996Y-74302571D01*
X173397184Y-74371300D01*
X173679512Y-74385217D01*
X173959130Y-74343787D01*
X174225292Y-74248603D01*
X174350514Y-74181671D01*
X174422097Y-73937702D01*
X173609000Y-73124605D01*
X172795903Y-73937702D01*
X170863369Y-73937702D01*
X170999765Y-73825765D01*
X171140600Y-73654157D01*
X171245250Y-73458371D01*
X171309693Y-73245931D01*
X171331453Y-73025000D01*
X171330519Y-73015512D01*
X172168783Y-73015512D01*
X172210213Y-73295130D01*
X172305397Y-73561292D01*
X172372329Y-73686514D01*
X172616298Y-73758097D01*
X173429395Y-72945000D01*
X173788605Y-72945000D01*
X174601702Y-73758097D01*
X174845671Y-73686514D01*
X174966571Y-73431004D01*
X175035300Y-73156816D01*
X175049217Y-72874488D01*
X175007787Y-72594870D01*
X174912603Y-72328708D01*
X174845671Y-72203486D01*
X174601702Y-72131903D01*
X173788605Y-72945000D01*
X173429395Y-72945000D01*
X172616298Y-72131903D01*
X172372329Y-72203486D01*
X172251429Y-72458996D01*
X172182700Y-72733184D01*
X172168783Y-73015512D01*
X171330519Y-73015512D01*
X171309693Y-72804069D01*
X171245250Y-72591629D01*
X171140600Y-72395843D01*
X170999765Y-72224235D01*
X170828157Y-72083400D01*
X170632371Y-71978750D01*
X170545171Y-71952298D01*
X172795903Y-71952298D01*
X173609000Y-72765395D01*
X174422097Y-71952298D01*
X174350514Y-71708329D01*
X174095004Y-71587429D01*
X173820816Y-71518700D01*
X173538488Y-71504783D01*
X173258870Y-71546213D01*
X172992708Y-71641397D01*
X172867486Y-71708329D01*
X172795903Y-71952298D01*
X170545171Y-71952298D01*
X170419931Y-71914307D01*
X170254365Y-71898000D01*
X169343635Y-71898000D01*
X169178069Y-71914307D01*
X168965629Y-71978750D01*
X168769843Y-72083400D01*
X168598235Y-72224235D01*
X168457400Y-72395843D01*
X168352750Y-72591629D01*
X168288307Y-72804069D01*
X168266547Y-73025000D01*
X156091453Y-73025000D01*
X156069693Y-72804069D01*
X156005250Y-72591629D01*
X155900600Y-72395843D01*
X155759765Y-72224235D01*
X155588157Y-72083400D01*
X155392371Y-71978750D01*
X155179931Y-71914307D01*
X155014365Y-71898000D01*
X154103635Y-71898000D01*
X153938069Y-71914307D01*
X153725629Y-71978750D01*
X153529843Y-72083400D01*
X153358235Y-72224235D01*
X153217400Y-72395843D01*
X153112750Y-72591629D01*
X153048307Y-72804069D01*
X153026547Y-73025000D01*
X151520500Y-73025000D01*
X151520500Y-70485000D01*
X153026547Y-70485000D01*
X153048307Y-70705931D01*
X153112750Y-70918371D01*
X153217400Y-71114157D01*
X153358235Y-71285765D01*
X153529843Y-71426600D01*
X153725629Y-71531250D01*
X153938069Y-71595693D01*
X154103635Y-71612000D01*
X155014365Y-71612000D01*
X155179931Y-71595693D01*
X155392371Y-71531250D01*
X155588157Y-71426600D01*
X155759765Y-71285765D01*
X155900600Y-71114157D01*
X156005250Y-70918371D01*
X156069693Y-70705931D01*
X156091453Y-70485000D01*
X168266547Y-70485000D01*
X168288307Y-70705931D01*
X168352750Y-70918371D01*
X168457400Y-71114157D01*
X168598235Y-71285765D01*
X168769843Y-71426600D01*
X168965629Y-71531250D01*
X169178069Y-71595693D01*
X169343635Y-71612000D01*
X170254365Y-71612000D01*
X170419931Y-71595693D01*
X170632371Y-71531250D01*
X170828157Y-71426600D01*
X170999765Y-71285765D01*
X171140600Y-71114157D01*
X171245250Y-70918371D01*
X171309693Y-70705931D01*
X171331453Y-70485000D01*
X171309693Y-70264069D01*
X171245250Y-70051629D01*
X171140600Y-69855843D01*
X170999765Y-69684235D01*
X170828157Y-69543400D01*
X170632371Y-69438750D01*
X170419931Y-69374307D01*
X170254365Y-69358000D01*
X169343635Y-69358000D01*
X169178069Y-69374307D01*
X168965629Y-69438750D01*
X168769843Y-69543400D01*
X168598235Y-69684235D01*
X168457400Y-69855843D01*
X168352750Y-70051629D01*
X168288307Y-70264069D01*
X168266547Y-70485000D01*
X156091453Y-70485000D01*
X156069693Y-70264069D01*
X156005250Y-70051629D01*
X155900600Y-69855843D01*
X155759765Y-69684235D01*
X155588157Y-69543400D01*
X155392371Y-69438750D01*
X155179931Y-69374307D01*
X155014365Y-69358000D01*
X154103635Y-69358000D01*
X153938069Y-69374307D01*
X153725629Y-69438750D01*
X153529843Y-69543400D01*
X153358235Y-69684235D01*
X153217400Y-69855843D01*
X153112750Y-70051629D01*
X153048307Y-70264069D01*
X153026547Y-70485000D01*
X151520500Y-70485000D01*
X151520500Y-67970412D01*
X151523003Y-67945000D01*
X151520500Y-67919587D01*
X151520500Y-67145000D01*
X153030418Y-67145000D01*
X153030418Y-68745000D01*
X153036732Y-68809103D01*
X153055430Y-68870743D01*
X153085794Y-68927550D01*
X153126657Y-68977343D01*
X153176450Y-69018206D01*
X153233257Y-69048570D01*
X153294897Y-69067268D01*
X153359000Y-69073582D01*
X155759000Y-69073582D01*
X155823103Y-69067268D01*
X155884743Y-69048570D01*
X155941550Y-69018206D01*
X155991343Y-68977343D01*
X156032206Y-68927550D01*
X156062570Y-68870743D01*
X156081268Y-68809103D01*
X156087582Y-68745000D01*
X156087582Y-67945000D01*
X168266547Y-67945000D01*
X168288307Y-68165931D01*
X168352750Y-68378371D01*
X168457400Y-68574157D01*
X168598235Y-68745765D01*
X168769843Y-68886600D01*
X168965629Y-68991250D01*
X169178069Y-69055693D01*
X169343635Y-69072000D01*
X170254365Y-69072000D01*
X170419931Y-69055693D01*
X170632371Y-68991250D01*
X170828157Y-68886600D01*
X170999765Y-68745765D01*
X171140600Y-68574157D01*
X171245250Y-68378371D01*
X171309693Y-68165931D01*
X171331453Y-67945000D01*
X171320521Y-67834000D01*
X172482000Y-67834000D01*
X172482000Y-68056000D01*
X172525310Y-68273734D01*
X172610266Y-68478835D01*
X172733602Y-68663421D01*
X172890579Y-68820398D01*
X173075165Y-68943734D01*
X173280266Y-69028690D01*
X173498000Y-69072000D01*
X173720000Y-69072000D01*
X173937734Y-69028690D01*
X174142835Y-68943734D01*
X174327421Y-68820398D01*
X174484398Y-68663421D01*
X174607734Y-68478835D01*
X174692690Y-68273734D01*
X174736000Y-68056000D01*
X174736000Y-67834000D01*
X174692690Y-67616266D01*
X174607734Y-67411165D01*
X174484398Y-67226579D01*
X174327421Y-67069602D01*
X174142835Y-66946266D01*
X173937734Y-66861310D01*
X173720000Y-66818000D01*
X173498000Y-66818000D01*
X173280266Y-66861310D01*
X173075165Y-66946266D01*
X172890579Y-67069602D01*
X172733602Y-67226579D01*
X172610266Y-67411165D01*
X172525310Y-67616266D01*
X172482000Y-67834000D01*
X171320521Y-67834000D01*
X171309693Y-67724069D01*
X171245250Y-67511629D01*
X171140600Y-67315843D01*
X170999765Y-67144235D01*
X170828157Y-67003400D01*
X170632371Y-66898750D01*
X170419931Y-66834307D01*
X170254365Y-66818000D01*
X169343635Y-66818000D01*
X169178069Y-66834307D01*
X168965629Y-66898750D01*
X168769843Y-67003400D01*
X168598235Y-67144235D01*
X168457400Y-67315843D01*
X168352750Y-67511629D01*
X168288307Y-67724069D01*
X168266547Y-67945000D01*
X156087582Y-67945000D01*
X156087582Y-67145000D01*
X156081268Y-67080897D01*
X156062570Y-67019257D01*
X156032206Y-66962450D01*
X155991343Y-66912657D01*
X155941550Y-66871794D01*
X155884743Y-66841430D01*
X155823103Y-66822732D01*
X155759000Y-66816418D01*
X153359000Y-66816418D01*
X153294897Y-66822732D01*
X153233257Y-66841430D01*
X153176450Y-66871794D01*
X153126657Y-66912657D01*
X153085794Y-66962450D01*
X153055430Y-67019257D01*
X153036732Y-67080897D01*
X153030418Y-67145000D01*
X151520500Y-67145000D01*
X151520500Y-66381355D01*
X151626558Y-66275298D01*
X151693889Y-66261905D01*
X151807996Y-66214640D01*
X151910689Y-66146023D01*
X151998023Y-66058689D01*
X152066640Y-65955996D01*
X152113905Y-65841889D01*
X152138000Y-65720754D01*
X152138000Y-65597246D01*
X152113905Y-65476111D01*
X152066640Y-65362004D01*
X151998023Y-65259311D01*
X151910689Y-65171977D01*
X151807996Y-65103360D01*
X151693889Y-65056095D01*
X151572754Y-65032000D01*
X151449246Y-65032000D01*
X151328111Y-65056095D01*
X151214004Y-65103360D01*
X151111311Y-65171977D01*
X151023977Y-65259311D01*
X150955360Y-65362004D01*
X150908095Y-65476111D01*
X150894702Y-65543442D01*
X150655043Y-65783102D01*
X150635303Y-65799302D01*
X150570634Y-65878102D01*
X150544949Y-65926156D01*
X150522580Y-65968004D01*
X150492989Y-66065553D01*
X150482997Y-66167000D01*
X150485501Y-66192422D01*
X150485500Y-67427500D01*
X148579500Y-67427500D01*
X148572734Y-67411165D01*
X148449398Y-67226579D01*
X148292421Y-67069602D01*
X148107835Y-66946266D01*
X147902734Y-66861310D01*
X147685000Y-66818000D01*
X147463000Y-66818000D01*
X147245266Y-66861310D01*
X147040165Y-66946266D01*
X146855579Y-67069602D01*
X146698602Y-67226579D01*
X146575266Y-67411165D01*
X146490310Y-67616266D01*
X146447000Y-67834000D01*
X146447000Y-68056000D01*
X146490310Y-68273734D01*
X146575266Y-68478835D01*
X146698602Y-68663421D01*
X146855579Y-68820398D01*
X147040165Y-68943734D01*
X147245266Y-69028690D01*
X147463000Y-69072000D01*
X147685000Y-69072000D01*
X147902734Y-69028690D01*
X148107835Y-68943734D01*
X148292421Y-68820398D01*
X148449398Y-68663421D01*
X148572734Y-68478835D01*
X148579500Y-68462500D01*
X150485500Y-68462500D01*
X150485500Y-71249142D01*
X150410996Y-71199360D01*
X150296889Y-71152095D01*
X150175754Y-71128000D01*
X150052246Y-71128000D01*
X149931111Y-71152095D01*
X149817004Y-71199360D01*
X149714311Y-71267977D01*
X149626977Y-71355311D01*
X149558360Y-71458004D01*
X149511095Y-71572111D01*
X149487000Y-71693246D01*
X149487000Y-71816754D01*
X149511095Y-71937889D01*
X149558360Y-72051996D01*
X149626977Y-72154689D01*
X149714311Y-72242023D01*
X149817004Y-72310640D01*
X149931111Y-72357905D01*
X149985011Y-72368626D01*
X149985011Y-75685787D01*
X149852000Y-75552777D01*
X149852000Y-75503246D01*
X149827905Y-75382111D01*
X149780640Y-75268004D01*
X149712023Y-75165311D01*
X149624689Y-75077977D01*
X149521996Y-75009360D01*
X149407889Y-74962095D01*
X149286754Y-74938000D01*
X149163246Y-74938000D01*
X149042111Y-74962095D01*
X148928004Y-75009360D01*
X148825311Y-75077977D01*
X148737977Y-75165311D01*
X148669360Y-75268004D01*
X148622095Y-75382111D01*
X148598000Y-75503246D01*
X148598000Y-75626754D01*
X148622095Y-75747889D01*
X148669360Y-75861996D01*
X148737977Y-75964689D01*
X148825311Y-76052023D01*
X148928004Y-76120640D01*
X149042111Y-76167905D01*
X149163246Y-76192000D01*
X149212777Y-76192000D01*
X149535001Y-76514225D01*
X149535001Y-78283777D01*
X149344000Y-78092777D01*
X149344000Y-78043246D01*
X149319905Y-77922111D01*
X149272640Y-77808004D01*
X149204023Y-77705311D01*
X149116689Y-77617977D01*
X149013996Y-77549360D01*
X148899889Y-77502095D01*
X148778754Y-77478000D01*
X148655246Y-77478000D01*
X148534111Y-77502095D01*
X148420004Y-77549360D01*
X148317311Y-77617977D01*
X148229977Y-77705311D01*
X148161360Y-77808004D01*
X148114095Y-77922111D01*
X148090000Y-78043246D01*
X148090000Y-78166754D01*
X148114095Y-78287889D01*
X148161360Y-78401996D01*
X148229977Y-78504689D01*
X148317311Y-78592023D01*
X148420004Y-78660640D01*
X148534111Y-78707905D01*
X148655246Y-78732000D01*
X148704777Y-78732000D01*
X149027000Y-79054224D01*
X149027000Y-80823776D01*
X148836000Y-80632776D01*
X148836000Y-80583246D01*
X148811905Y-80462111D01*
X148764640Y-80348004D01*
X148696023Y-80245311D01*
X148608689Y-80157977D01*
X148505996Y-80089360D01*
X148391889Y-80042095D01*
X148270754Y-80018000D01*
X148147246Y-80018000D01*
X148026111Y-80042095D01*
X147912004Y-80089360D01*
X147809311Y-80157977D01*
X147721977Y-80245311D01*
X147653360Y-80348004D01*
X147606095Y-80462111D01*
X147582000Y-80583246D01*
X147582000Y-80706754D01*
X147606095Y-80827889D01*
X147653360Y-80941996D01*
X147721977Y-81044689D01*
X147809311Y-81132023D01*
X147912004Y-81200640D01*
X148026111Y-81247905D01*
X148147246Y-81272000D01*
X148196776Y-81272000D01*
X148461010Y-81536235D01*
X148461010Y-85845786D01*
X148328000Y-85712777D01*
X148328000Y-85663246D01*
X148303905Y-85542111D01*
X148256640Y-85428004D01*
X148188023Y-85325311D01*
X148100689Y-85237977D01*
X147997996Y-85169360D01*
X147883889Y-85122095D01*
X147762754Y-85098000D01*
X147639246Y-85098000D01*
X147518111Y-85122095D01*
X147404004Y-85169360D01*
X147301311Y-85237977D01*
X147213977Y-85325311D01*
X147145360Y-85428004D01*
X147098095Y-85542111D01*
X147074000Y-85663246D01*
X147074000Y-85786754D01*
X147098095Y-85907889D01*
X147145360Y-86021996D01*
X147213977Y-86124689D01*
X147301311Y-86212023D01*
X147404004Y-86280640D01*
X147518111Y-86327905D01*
X147639246Y-86352000D01*
X147688777Y-86352000D01*
X148011000Y-86674224D01*
X148011000Y-90983777D01*
X147528323Y-90501100D01*
X147514159Y-90483841D01*
X147445333Y-90427357D01*
X147366810Y-90385386D01*
X147281607Y-90359540D01*
X147215205Y-90353000D01*
X147193000Y-90350813D01*
X147170795Y-90353000D01*
X145200293Y-90353000D01*
X145105600Y-90175843D01*
X144964765Y-90004235D01*
X144793157Y-89863400D01*
X144597371Y-89758750D01*
X144384931Y-89694307D01*
X144219365Y-89678000D01*
X143308635Y-89678000D01*
X143143069Y-89694307D01*
X142930629Y-89758750D01*
X142734843Y-89863400D01*
X142563235Y-90004235D01*
X142422400Y-90175843D01*
X142317750Y-90371629D01*
X142253307Y-90584069D01*
X142231547Y-90805000D01*
X142253307Y-91025931D01*
X142317750Y-91238371D01*
X142422400Y-91434157D01*
X142563235Y-91605765D01*
X142734843Y-91746600D01*
X142930629Y-91851250D01*
X143143069Y-91915693D01*
X143308635Y-91932000D01*
X144219365Y-91932000D01*
X144384931Y-91915693D01*
X144597371Y-91851250D01*
X144793157Y-91746600D01*
X144964765Y-91605765D01*
X145105600Y-91434157D01*
X145200293Y-91257000D01*
X147005777Y-91257000D01*
X147503001Y-91754225D01*
X147503001Y-93523777D01*
X147020323Y-93041100D01*
X147006159Y-93023841D01*
X146937333Y-92967357D01*
X146858810Y-92925386D01*
X146773607Y-92899540D01*
X146707205Y-92893000D01*
X146685000Y-92890813D01*
X146662795Y-92893000D01*
X145200293Y-92893000D01*
X145105600Y-92715843D01*
X144964765Y-92544235D01*
X144793157Y-92403400D01*
X144597371Y-92298750D01*
X144384931Y-92234307D01*
X144219365Y-92218000D01*
X143308635Y-92218000D01*
X143143069Y-92234307D01*
X142930629Y-92298750D01*
X142734843Y-92403400D01*
X142563235Y-92544235D01*
X142422400Y-92715843D01*
X142317750Y-92911629D01*
X142253307Y-93124069D01*
X142231547Y-93345000D01*
X142253307Y-93565931D01*
X142317750Y-93778371D01*
X142422400Y-93974157D01*
X142563235Y-94145765D01*
X142734843Y-94286600D01*
X142930629Y-94391250D01*
X143143069Y-94455693D01*
X143308635Y-94472000D01*
X144219365Y-94472000D01*
X144384931Y-94455693D01*
X144597371Y-94391250D01*
X144793157Y-94286600D01*
X144964765Y-94145765D01*
X145105600Y-93974157D01*
X145200293Y-93797000D01*
X146497777Y-93797000D01*
X146995001Y-94294225D01*
X146995001Y-96063777D01*
X146512323Y-95581100D01*
X146498159Y-95563841D01*
X146429333Y-95507357D01*
X146350810Y-95465386D01*
X146265607Y-95439540D01*
X146199205Y-95433000D01*
X146177000Y-95430813D01*
X146154795Y-95433000D01*
X145200293Y-95433000D01*
X145105600Y-95255843D01*
X144964765Y-95084235D01*
X144793157Y-94943400D01*
X144597371Y-94838750D01*
X144384931Y-94774307D01*
X144219365Y-94758000D01*
X143308635Y-94758000D01*
X143143069Y-94774307D01*
X142930629Y-94838750D01*
X142734843Y-94943400D01*
X142563235Y-95084235D01*
X142422400Y-95255843D01*
X142317750Y-95451629D01*
X142253307Y-95664069D01*
X142231547Y-95885000D01*
X142253307Y-96105931D01*
X142317750Y-96318371D01*
X142422400Y-96514157D01*
X142563235Y-96685765D01*
X142734843Y-96826600D01*
X142930629Y-96931250D01*
X143143069Y-96995693D01*
X143308635Y-97012000D01*
X144219365Y-97012000D01*
X144384931Y-96995693D01*
X144597371Y-96931250D01*
X144793157Y-96826600D01*
X144964765Y-96685765D01*
X145105600Y-96514157D01*
X145200293Y-96337000D01*
X145989777Y-96337000D01*
X146487001Y-96834225D01*
X146487001Y-98603777D01*
X146004323Y-98121100D01*
X145990159Y-98103841D01*
X145921333Y-98047357D01*
X145842810Y-98005386D01*
X145757607Y-97979540D01*
X145691205Y-97973000D01*
X145669000Y-97970813D01*
X145646795Y-97973000D01*
X145200293Y-97973000D01*
X145105600Y-97795843D01*
X144964765Y-97624235D01*
X144793157Y-97483400D01*
X144597371Y-97378750D01*
X144384931Y-97314307D01*
X144219365Y-97298000D01*
X143308635Y-97298000D01*
X143143069Y-97314307D01*
X142930629Y-97378750D01*
X142734843Y-97483400D01*
X142563235Y-97624235D01*
X142422400Y-97795843D01*
X142317750Y-97991629D01*
X142253307Y-98204069D01*
X142231547Y-98425000D01*
X142253307Y-98645931D01*
X142317750Y-98858371D01*
X142422400Y-99054157D01*
X142563235Y-99225765D01*
X142734843Y-99366600D01*
X142930629Y-99471250D01*
X143143069Y-99535693D01*
X143308635Y-99552000D01*
X144219365Y-99552000D01*
X144384931Y-99535693D01*
X144597371Y-99471250D01*
X144793157Y-99366600D01*
X144964765Y-99225765D01*
X145105600Y-99054157D01*
X145200293Y-98877000D01*
X145481777Y-98877000D01*
X145979001Y-99374225D01*
X145979001Y-101143777D01*
X145496323Y-100661100D01*
X145482159Y-100643841D01*
X145413333Y-100587357D01*
X145334810Y-100545386D01*
X145249607Y-100519540D01*
X145201242Y-100514776D01*
X145105600Y-100335843D01*
X144964765Y-100164235D01*
X144793157Y-100023400D01*
X144597371Y-99918750D01*
X144384931Y-99854307D01*
X144219365Y-99838000D01*
X143308635Y-99838000D01*
X143143069Y-99854307D01*
X142930629Y-99918750D01*
X142734843Y-100023400D01*
X142563235Y-100164235D01*
X142422400Y-100335843D01*
X142317750Y-100531629D01*
X142253307Y-100744069D01*
X142231547Y-100965000D01*
X142253307Y-101185931D01*
X142317750Y-101398371D01*
X142422400Y-101594157D01*
X142563235Y-101765765D01*
X142734843Y-101906600D01*
X142930629Y-102011250D01*
X143143069Y-102075693D01*
X143308635Y-102092000D01*
X144219365Y-102092000D01*
X144384931Y-102075693D01*
X144597371Y-102011250D01*
X144793157Y-101906600D01*
X144964765Y-101765765D01*
X145105600Y-101594157D01*
X145121391Y-101564614D01*
X145471000Y-101914224D01*
X145471001Y-104587775D01*
X145227776Y-104831000D01*
X143405202Y-104831000D01*
X143382999Y-104828813D01*
X143360796Y-104831000D01*
X143360795Y-104831000D01*
X143294393Y-104837540D01*
X143209190Y-104863386D01*
X143130667Y-104905357D01*
X143061841Y-104961841D01*
X143047686Y-104979089D01*
X140655777Y-107371000D01*
X126641205Y-107371000D01*
X126619000Y-107368813D01*
X126530392Y-107377540D01*
X126445190Y-107403386D01*
X126366667Y-107445357D01*
X126297841Y-107501841D01*
X126283681Y-107519095D01*
X124074777Y-109728000D01*
X120408703Y-109728000D01*
X120408703Y-100125433D01*
X121367000Y-100125433D01*
X121367000Y-100534567D01*
X121446818Y-100935839D01*
X121603386Y-101313829D01*
X121830689Y-101654011D01*
X122119989Y-101943311D01*
X122460171Y-102170614D01*
X122838161Y-102327182D01*
X123239433Y-102407000D01*
X123648567Y-102407000D01*
X124049839Y-102327182D01*
X124427829Y-102170614D01*
X124768011Y-101943311D01*
X125057311Y-101654011D01*
X125284473Y-101314039D01*
X126732096Y-101314039D01*
X126749633Y-101396818D01*
X126860285Y-101656646D01*
X127019500Y-101889895D01*
X127221161Y-102087601D01*
X127457517Y-102242166D01*
X127719486Y-102347650D01*
X127997000Y-102400000D01*
X128397000Y-102400000D01*
X128397000Y-101092000D01*
X128651000Y-101092000D01*
X128651000Y-102400000D01*
X129051000Y-102400000D01*
X129328514Y-102347650D01*
X129590483Y-102242166D01*
X129826839Y-102087601D01*
X130028500Y-101889895D01*
X130187715Y-101656646D01*
X130298367Y-101396818D01*
X130315904Y-101314039D01*
X130193915Y-101092000D01*
X128651000Y-101092000D01*
X128397000Y-101092000D01*
X126854085Y-101092000D01*
X126732096Y-101314039D01*
X125284473Y-101314039D01*
X125284614Y-101313829D01*
X125441182Y-100935839D01*
X125504809Y-100615961D01*
X126732096Y-100615961D01*
X126854085Y-100838000D01*
X128397000Y-100838000D01*
X128397000Y-100818000D01*
X128651000Y-100818000D01*
X128651000Y-100838000D01*
X130193915Y-100838000D01*
X130315904Y-100615961D01*
X130298367Y-100533182D01*
X130187715Y-100273354D01*
X130028500Y-100040105D01*
X129826839Y-99842399D01*
X129590483Y-99687834D01*
X129328514Y-99582350D01*
X129103048Y-99539818D01*
X129144931Y-99535693D01*
X129357371Y-99471250D01*
X129553157Y-99366600D01*
X129724765Y-99225765D01*
X129865600Y-99054157D01*
X129960293Y-98877000D01*
X135953288Y-98877000D01*
X135988311Y-98912023D01*
X136091004Y-98980640D01*
X136205111Y-99027905D01*
X136326246Y-99052000D01*
X136449754Y-99052000D01*
X136570889Y-99027905D01*
X136684996Y-98980640D01*
X136787689Y-98912023D01*
X136875023Y-98824689D01*
X136943640Y-98721996D01*
X136990905Y-98607889D01*
X137015000Y-98486754D01*
X137015000Y-98363246D01*
X136990905Y-98242111D01*
X136943640Y-98128004D01*
X136875023Y-98025311D01*
X136787689Y-97937977D01*
X136684996Y-97869360D01*
X136570889Y-97822095D01*
X136449754Y-97798000D01*
X136326246Y-97798000D01*
X136205111Y-97822095D01*
X136091004Y-97869360D01*
X135988311Y-97937977D01*
X135953288Y-97973000D01*
X129960293Y-97973000D01*
X129865600Y-97795843D01*
X129724765Y-97624235D01*
X129553157Y-97483400D01*
X129357371Y-97378750D01*
X129144931Y-97314307D01*
X128979365Y-97298000D01*
X128068635Y-97298000D01*
X127903069Y-97314307D01*
X127690629Y-97378750D01*
X127494843Y-97483400D01*
X127323235Y-97624235D01*
X127182400Y-97795843D01*
X127077750Y-97991629D01*
X127013307Y-98204069D01*
X126991547Y-98425000D01*
X127013307Y-98645931D01*
X127077750Y-98858371D01*
X127182400Y-99054157D01*
X127323235Y-99225765D01*
X127494843Y-99366600D01*
X127690629Y-99471250D01*
X127903069Y-99535693D01*
X127944952Y-99539818D01*
X127719486Y-99582350D01*
X127457517Y-99687834D01*
X127221161Y-99842399D01*
X127019500Y-100040105D01*
X126860285Y-100273354D01*
X126749633Y-100533182D01*
X126732096Y-100615961D01*
X125504809Y-100615961D01*
X125521000Y-100534567D01*
X125521000Y-100125433D01*
X125441182Y-99724161D01*
X125284614Y-99346171D01*
X125057311Y-99005989D01*
X124768011Y-98716689D01*
X124427829Y-98489386D01*
X124049839Y-98332818D01*
X123648567Y-98253000D01*
X123239433Y-98253000D01*
X122838161Y-98332818D01*
X122460171Y-98489386D01*
X122119989Y-98716689D01*
X121830689Y-99005989D01*
X121603386Y-99346171D01*
X121446818Y-99724161D01*
X121367000Y-100125433D01*
X120408703Y-100125433D01*
X120408703Y-95885000D01*
X126991547Y-95885000D01*
X127013307Y-96105931D01*
X127077750Y-96318371D01*
X127182400Y-96514157D01*
X127323235Y-96685765D01*
X127494843Y-96826600D01*
X127690629Y-96931250D01*
X127903069Y-96995693D01*
X128068635Y-97012000D01*
X128979365Y-97012000D01*
X129144931Y-96995693D01*
X129357371Y-96931250D01*
X129553157Y-96826600D01*
X129724765Y-96685765D01*
X129865500Y-96514279D01*
X129865500Y-96518254D01*
X129889595Y-96639389D01*
X129936860Y-96753496D01*
X130005477Y-96856189D01*
X130092811Y-96943523D01*
X130195504Y-97012140D01*
X130309611Y-97059405D01*
X130430746Y-97083500D01*
X130480276Y-97083500D01*
X130855685Y-97458910D01*
X130869841Y-97476159D01*
X130938667Y-97532643D01*
X130979913Y-97554689D01*
X131017190Y-97574614D01*
X131102392Y-97600460D01*
X131190999Y-97609187D01*
X131213204Y-97607000D01*
X135953288Y-97607000D01*
X135988311Y-97642023D01*
X136091004Y-97710640D01*
X136205111Y-97757905D01*
X136326246Y-97782000D01*
X136449754Y-97782000D01*
X136570889Y-97757905D01*
X136684996Y-97710640D01*
X136787689Y-97642023D01*
X136875023Y-97554689D01*
X136943640Y-97451996D01*
X136990905Y-97337889D01*
X137015000Y-97216754D01*
X137015000Y-97093246D01*
X136990905Y-96972111D01*
X136943640Y-96858004D01*
X136875023Y-96755311D01*
X136787689Y-96667977D01*
X136684996Y-96599360D01*
X136570889Y-96552095D01*
X136449754Y-96528000D01*
X136326246Y-96528000D01*
X136205111Y-96552095D01*
X136091004Y-96599360D01*
X135988311Y-96667977D01*
X135953288Y-96703000D01*
X131378225Y-96703000D01*
X131119500Y-96444276D01*
X131119500Y-96394746D01*
X131095405Y-96273611D01*
X131048140Y-96159504D01*
X130979523Y-96056811D01*
X130892189Y-95969477D01*
X130789496Y-95900860D01*
X130675389Y-95853595D01*
X130554254Y-95829500D01*
X130430746Y-95829500D01*
X130309611Y-95853595D01*
X130195504Y-95900860D01*
X130092811Y-95969477D01*
X130043251Y-96019037D01*
X130056453Y-95885000D01*
X130034693Y-95664069D01*
X129970250Y-95451629D01*
X129865600Y-95255843D01*
X129724765Y-95084235D01*
X129553157Y-94943400D01*
X129357371Y-94838750D01*
X129144931Y-94774307D01*
X128979365Y-94758000D01*
X128068635Y-94758000D01*
X127903069Y-94774307D01*
X127690629Y-94838750D01*
X127494843Y-94943400D01*
X127323235Y-95084235D01*
X127182400Y-95255843D01*
X127077750Y-95451629D01*
X127013307Y-95664069D01*
X126991547Y-95885000D01*
X120408703Y-95885000D01*
X120408703Y-93345000D01*
X126991547Y-93345000D01*
X127013307Y-93565931D01*
X127077750Y-93778371D01*
X127182400Y-93974157D01*
X127323235Y-94145765D01*
X127494843Y-94286600D01*
X127690629Y-94391250D01*
X127903069Y-94455693D01*
X128068635Y-94472000D01*
X128979365Y-94472000D01*
X129144931Y-94455693D01*
X129357371Y-94391250D01*
X129553157Y-94286600D01*
X129724765Y-94145765D01*
X129865600Y-93974157D01*
X129895485Y-93918246D01*
X130437000Y-93918246D01*
X130437000Y-94041754D01*
X130461095Y-94162889D01*
X130508360Y-94276996D01*
X130576977Y-94379689D01*
X130664311Y-94467023D01*
X130767004Y-94535640D01*
X130881111Y-94582905D01*
X131002246Y-94607000D01*
X131051777Y-94607000D01*
X131363681Y-94918905D01*
X131377841Y-94936159D01*
X131446667Y-94992643D01*
X131487913Y-95014689D01*
X131525190Y-95034614D01*
X131610392Y-95060460D01*
X131699000Y-95069187D01*
X131721205Y-95067000D01*
X135953288Y-95067000D01*
X135988311Y-95102023D01*
X136091004Y-95170640D01*
X136205111Y-95217905D01*
X136326246Y-95242000D01*
X136449754Y-95242000D01*
X136570889Y-95217905D01*
X136684996Y-95170640D01*
X136787689Y-95102023D01*
X136875023Y-95014689D01*
X136943640Y-94911996D01*
X136990905Y-94797889D01*
X137015000Y-94676754D01*
X137015000Y-94553246D01*
X136990905Y-94432111D01*
X136943640Y-94318004D01*
X136875023Y-94215311D01*
X136787689Y-94127977D01*
X136684996Y-94059360D01*
X136570889Y-94012095D01*
X136449754Y-93988000D01*
X136326246Y-93988000D01*
X136205111Y-94012095D01*
X136091004Y-94059360D01*
X135988311Y-94127977D01*
X135953288Y-94163000D01*
X131886224Y-94163000D01*
X131691000Y-93967777D01*
X131691000Y-93918246D01*
X131666905Y-93797111D01*
X131619640Y-93683004D01*
X131551023Y-93580311D01*
X131463689Y-93492977D01*
X131360996Y-93424360D01*
X131246889Y-93377095D01*
X131125754Y-93353000D01*
X131002246Y-93353000D01*
X130881111Y-93377095D01*
X130767004Y-93424360D01*
X130664311Y-93492977D01*
X130576977Y-93580311D01*
X130508360Y-93683004D01*
X130461095Y-93797111D01*
X130437000Y-93918246D01*
X129895485Y-93918246D01*
X129970250Y-93778371D01*
X130034693Y-93565931D01*
X130056453Y-93345000D01*
X130034693Y-93124069D01*
X129970250Y-92911629D01*
X129865600Y-92715843D01*
X129724765Y-92544235D01*
X129553157Y-92403400D01*
X129357371Y-92298750D01*
X129144931Y-92234307D01*
X128979365Y-92218000D01*
X128068635Y-92218000D01*
X127903069Y-92234307D01*
X127690629Y-92298750D01*
X127494843Y-92403400D01*
X127323235Y-92544235D01*
X127182400Y-92715843D01*
X127077750Y-92911629D01*
X127013307Y-93124069D01*
X126991547Y-93345000D01*
X120408703Y-93345000D01*
X120408703Y-90805000D01*
X126991547Y-90805000D01*
X127013307Y-91025931D01*
X127077750Y-91238371D01*
X127182400Y-91434157D01*
X127323235Y-91605765D01*
X127494843Y-91746600D01*
X127690629Y-91851250D01*
X127903069Y-91915693D01*
X128068635Y-91932000D01*
X128979365Y-91932000D01*
X129144931Y-91915693D01*
X129357371Y-91851250D01*
X129553157Y-91746600D01*
X129724765Y-91605765D01*
X129865600Y-91434157D01*
X129970250Y-91238371D01*
X130004869Y-91124246D01*
X130691000Y-91124246D01*
X130691000Y-91247754D01*
X130715095Y-91368889D01*
X130762360Y-91482996D01*
X130830977Y-91585689D01*
X130918311Y-91673023D01*
X131021004Y-91741640D01*
X131135111Y-91788905D01*
X131256246Y-91813000D01*
X131305777Y-91813000D01*
X131871681Y-92378905D01*
X131885841Y-92396159D01*
X131954667Y-92452643D01*
X131995913Y-92474689D01*
X132033190Y-92494614D01*
X132118392Y-92520460D01*
X132207000Y-92529187D01*
X132229205Y-92527000D01*
X135953288Y-92527000D01*
X135988311Y-92562023D01*
X136091004Y-92630640D01*
X136205111Y-92677905D01*
X136326246Y-92702000D01*
X136449754Y-92702000D01*
X136570889Y-92677905D01*
X136684996Y-92630640D01*
X136787689Y-92562023D01*
X136875023Y-92474689D01*
X136943640Y-92371996D01*
X136990905Y-92257889D01*
X137015000Y-92136754D01*
X137015000Y-92013246D01*
X136990905Y-91892111D01*
X136943640Y-91778004D01*
X136875023Y-91675311D01*
X136787689Y-91587977D01*
X136684996Y-91519360D01*
X136570889Y-91472095D01*
X136449754Y-91448000D01*
X136326246Y-91448000D01*
X136205111Y-91472095D01*
X136091004Y-91519360D01*
X135988311Y-91587977D01*
X135953288Y-91623000D01*
X132394224Y-91623000D01*
X131945000Y-91173777D01*
X131945000Y-91124246D01*
X131920905Y-91003111D01*
X131873640Y-90889004D01*
X131805023Y-90786311D01*
X131717689Y-90698977D01*
X131614996Y-90630360D01*
X131500889Y-90583095D01*
X131379754Y-90559000D01*
X131256246Y-90559000D01*
X131135111Y-90583095D01*
X131021004Y-90630360D01*
X130918311Y-90698977D01*
X130830977Y-90786311D01*
X130762360Y-90889004D01*
X130715095Y-91003111D01*
X130691000Y-91124246D01*
X130004869Y-91124246D01*
X130034693Y-91025931D01*
X130056453Y-90805000D01*
X130034693Y-90584069D01*
X129970250Y-90371629D01*
X129865600Y-90175843D01*
X129724765Y-90004235D01*
X129553157Y-89863400D01*
X129357371Y-89758750D01*
X129144931Y-89694307D01*
X128979365Y-89678000D01*
X128068635Y-89678000D01*
X127903069Y-89694307D01*
X127690629Y-89758750D01*
X127494843Y-89863400D01*
X127323235Y-90004235D01*
X127182400Y-90175843D01*
X127077750Y-90371629D01*
X127013307Y-90584069D01*
X126991547Y-90805000D01*
X120408703Y-90805000D01*
X120408703Y-88265000D01*
X126991547Y-88265000D01*
X127013307Y-88485931D01*
X127077750Y-88698371D01*
X127182400Y-88894157D01*
X127323235Y-89065765D01*
X127494843Y-89206600D01*
X127690629Y-89311250D01*
X127903069Y-89375693D01*
X128068635Y-89392000D01*
X128979365Y-89392000D01*
X129144931Y-89375693D01*
X129357371Y-89311250D01*
X129553157Y-89206600D01*
X129724765Y-89065765D01*
X129865600Y-88894157D01*
X129970250Y-88698371D01*
X129985606Y-88647746D01*
X131262500Y-88647746D01*
X131262500Y-88771254D01*
X131286595Y-88892389D01*
X131333860Y-89006496D01*
X131402477Y-89109189D01*
X131489811Y-89196523D01*
X131592504Y-89265140D01*
X131706611Y-89312405D01*
X131827746Y-89336500D01*
X131877276Y-89336500D01*
X132379685Y-89838910D01*
X132393841Y-89856159D01*
X132462667Y-89912643D01*
X132541190Y-89954614D01*
X132606562Y-89974444D01*
X132626392Y-89980460D01*
X132714999Y-89989187D01*
X132737204Y-89987000D01*
X135953288Y-89987000D01*
X135988311Y-90022023D01*
X136091004Y-90090640D01*
X136205111Y-90137905D01*
X136326246Y-90162000D01*
X136449754Y-90162000D01*
X136570889Y-90137905D01*
X136684996Y-90090640D01*
X136787689Y-90022023D01*
X136875023Y-89934689D01*
X136943640Y-89831996D01*
X136990905Y-89717889D01*
X137015000Y-89596754D01*
X137015000Y-89473246D01*
X136990905Y-89352111D01*
X136943640Y-89238004D01*
X136875023Y-89135311D01*
X136787689Y-89047977D01*
X136684996Y-88979360D01*
X136570889Y-88932095D01*
X136449754Y-88908000D01*
X136326246Y-88908000D01*
X136205111Y-88932095D01*
X136091004Y-88979360D01*
X135988311Y-89047977D01*
X135953288Y-89083000D01*
X132902225Y-89083000D01*
X132516500Y-88697276D01*
X132516500Y-88647746D01*
X132492405Y-88526611D01*
X132445140Y-88412504D01*
X132376523Y-88309811D01*
X132331712Y-88265000D01*
X142231547Y-88265000D01*
X142253307Y-88485931D01*
X142317750Y-88698371D01*
X142422400Y-88894157D01*
X142563235Y-89065765D01*
X142734843Y-89206600D01*
X142930629Y-89311250D01*
X143143069Y-89375693D01*
X143308635Y-89392000D01*
X144219365Y-89392000D01*
X144384931Y-89375693D01*
X144597371Y-89311250D01*
X144793157Y-89206600D01*
X144964765Y-89065765D01*
X145105600Y-88894157D01*
X145210250Y-88698371D01*
X145274693Y-88485931D01*
X145296453Y-88265000D01*
X145274693Y-88044069D01*
X145210250Y-87831629D01*
X145105600Y-87635843D01*
X144964765Y-87464235D01*
X144793157Y-87323400D01*
X144597371Y-87218750D01*
X144384931Y-87154307D01*
X144219365Y-87138000D01*
X143308635Y-87138000D01*
X143143069Y-87154307D01*
X142930629Y-87218750D01*
X142734843Y-87323400D01*
X142563235Y-87464235D01*
X142422400Y-87635843D01*
X142317750Y-87831629D01*
X142253307Y-88044069D01*
X142231547Y-88265000D01*
X132331712Y-88265000D01*
X132289189Y-88222477D01*
X132186496Y-88153860D01*
X132072389Y-88106595D01*
X131951254Y-88082500D01*
X131827746Y-88082500D01*
X131706611Y-88106595D01*
X131592504Y-88153860D01*
X131489811Y-88222477D01*
X131402477Y-88309811D01*
X131333860Y-88412504D01*
X131286595Y-88526611D01*
X131262500Y-88647746D01*
X129985606Y-88647746D01*
X130034693Y-88485931D01*
X130056453Y-88265000D01*
X130034693Y-88044069D01*
X129970250Y-87831629D01*
X129865600Y-87635843D01*
X129724765Y-87464235D01*
X129553157Y-87323400D01*
X129357371Y-87218750D01*
X129144931Y-87154307D01*
X128979365Y-87138000D01*
X128068635Y-87138000D01*
X127903069Y-87154307D01*
X127690629Y-87218750D01*
X127494843Y-87323400D01*
X127323235Y-87464235D01*
X127182400Y-87635843D01*
X127077750Y-87831629D01*
X127013307Y-88044069D01*
X126991547Y-88265000D01*
X120408703Y-88265000D01*
X120408703Y-85725000D01*
X126991547Y-85725000D01*
X127013307Y-85945931D01*
X127077750Y-86158371D01*
X127182400Y-86354157D01*
X127323235Y-86525765D01*
X127494843Y-86666600D01*
X127690629Y-86771250D01*
X127903069Y-86835693D01*
X128068635Y-86852000D01*
X128979365Y-86852000D01*
X129144931Y-86835693D01*
X129357371Y-86771250D01*
X129553157Y-86666600D01*
X129724765Y-86525765D01*
X129865600Y-86354157D01*
X129963368Y-86171246D01*
X131834000Y-86171246D01*
X131834000Y-86294754D01*
X131858095Y-86415889D01*
X131905360Y-86529996D01*
X131973977Y-86632689D01*
X132061311Y-86720023D01*
X132164004Y-86788640D01*
X132278111Y-86835905D01*
X132399246Y-86860000D01*
X132448777Y-86860000D01*
X132887681Y-87298905D01*
X132901841Y-87316159D01*
X132970667Y-87372643D01*
X133011913Y-87394689D01*
X133049190Y-87414614D01*
X133134392Y-87440460D01*
X133223000Y-87449187D01*
X133245205Y-87447000D01*
X135953288Y-87447000D01*
X135988311Y-87482023D01*
X136091004Y-87550640D01*
X136205111Y-87597905D01*
X136326246Y-87622000D01*
X136449754Y-87622000D01*
X136570889Y-87597905D01*
X136684996Y-87550640D01*
X136787689Y-87482023D01*
X136875023Y-87394689D01*
X136943640Y-87291996D01*
X136990905Y-87177889D01*
X137015000Y-87056754D01*
X137015000Y-86933246D01*
X136990905Y-86812111D01*
X136943640Y-86698004D01*
X136875023Y-86595311D01*
X136787689Y-86507977D01*
X136684996Y-86439360D01*
X136570889Y-86392095D01*
X136449754Y-86368000D01*
X136326246Y-86368000D01*
X136205111Y-86392095D01*
X136091004Y-86439360D01*
X135988311Y-86507977D01*
X135953288Y-86543000D01*
X133410224Y-86543000D01*
X133088000Y-86220777D01*
X133088000Y-86171246D01*
X133063905Y-86050111D01*
X133016640Y-85936004D01*
X132948023Y-85833311D01*
X132860689Y-85745977D01*
X132829295Y-85725000D01*
X142231547Y-85725000D01*
X142253307Y-85945931D01*
X142317750Y-86158371D01*
X142422400Y-86354157D01*
X142563235Y-86525765D01*
X142734843Y-86666600D01*
X142930629Y-86771250D01*
X143143069Y-86835693D01*
X143308635Y-86852000D01*
X144219365Y-86852000D01*
X144384931Y-86835693D01*
X144597371Y-86771250D01*
X144793157Y-86666600D01*
X144964765Y-86525765D01*
X145105600Y-86354157D01*
X145210250Y-86158371D01*
X145274693Y-85945931D01*
X145296453Y-85725000D01*
X145274693Y-85504069D01*
X145210250Y-85291629D01*
X145105600Y-85095843D01*
X144964765Y-84924235D01*
X144793157Y-84783400D01*
X144597371Y-84678750D01*
X144384931Y-84614307D01*
X144219365Y-84598000D01*
X143308635Y-84598000D01*
X143143069Y-84614307D01*
X142930629Y-84678750D01*
X142734843Y-84783400D01*
X142563235Y-84924235D01*
X142422400Y-85095843D01*
X142317750Y-85291629D01*
X142253307Y-85504069D01*
X142231547Y-85725000D01*
X132829295Y-85725000D01*
X132757996Y-85677360D01*
X132643889Y-85630095D01*
X132522754Y-85606000D01*
X132399246Y-85606000D01*
X132278111Y-85630095D01*
X132164004Y-85677360D01*
X132061311Y-85745977D01*
X131973977Y-85833311D01*
X131905360Y-85936004D01*
X131858095Y-86050111D01*
X131834000Y-86171246D01*
X129963368Y-86171246D01*
X129970250Y-86158371D01*
X130034693Y-85945931D01*
X130056453Y-85725000D01*
X130034693Y-85504069D01*
X129970250Y-85291629D01*
X129865600Y-85095843D01*
X129724765Y-84924235D01*
X129553157Y-84783400D01*
X129357371Y-84678750D01*
X129144931Y-84614307D01*
X128979365Y-84598000D01*
X128068635Y-84598000D01*
X127903069Y-84614307D01*
X127690629Y-84678750D01*
X127494843Y-84783400D01*
X127323235Y-84924235D01*
X127182400Y-85095843D01*
X127077750Y-85291629D01*
X127013307Y-85504069D01*
X126991547Y-85725000D01*
X120408703Y-85725000D01*
X120408703Y-83185000D01*
X126991547Y-83185000D01*
X127013307Y-83405931D01*
X127077750Y-83618371D01*
X127182400Y-83814157D01*
X127323235Y-83985765D01*
X127494843Y-84126600D01*
X127690629Y-84231250D01*
X127903069Y-84295693D01*
X128068635Y-84312000D01*
X128979365Y-84312000D01*
X129144931Y-84295693D01*
X129357371Y-84231250D01*
X129553157Y-84126600D01*
X129724765Y-83985765D01*
X129865600Y-83814157D01*
X129929426Y-83694746D01*
X132405500Y-83694746D01*
X132405500Y-83818254D01*
X132429595Y-83939389D01*
X132476860Y-84053496D01*
X132545477Y-84156189D01*
X132632811Y-84243523D01*
X132735504Y-84312140D01*
X132849611Y-84359405D01*
X132970746Y-84383500D01*
X133020276Y-84383500D01*
X133395685Y-84758910D01*
X133409841Y-84776159D01*
X133478667Y-84832643D01*
X133519913Y-84854689D01*
X133557190Y-84874614D01*
X133642392Y-84900460D01*
X133730999Y-84909187D01*
X133753204Y-84907000D01*
X135953288Y-84907000D01*
X135988311Y-84942023D01*
X136091004Y-85010640D01*
X136205111Y-85057905D01*
X136326246Y-85082000D01*
X136449754Y-85082000D01*
X136570889Y-85057905D01*
X136684996Y-85010640D01*
X136787689Y-84942023D01*
X136875023Y-84854689D01*
X136943640Y-84751996D01*
X136990905Y-84637889D01*
X137015000Y-84516754D01*
X137015000Y-84393246D01*
X136990905Y-84272111D01*
X136943640Y-84158004D01*
X136875023Y-84055311D01*
X136787689Y-83967977D01*
X136684996Y-83899360D01*
X136570889Y-83852095D01*
X136449754Y-83828000D01*
X136326246Y-83828000D01*
X136205111Y-83852095D01*
X136091004Y-83899360D01*
X135988311Y-83967977D01*
X135953288Y-84003000D01*
X133918225Y-84003000D01*
X133659500Y-83744276D01*
X133659500Y-83694746D01*
X133635405Y-83573611D01*
X133588140Y-83459504D01*
X133519523Y-83356811D01*
X133432189Y-83269477D01*
X133329496Y-83200860D01*
X133291207Y-83185000D01*
X142231547Y-83185000D01*
X142253307Y-83405931D01*
X142317750Y-83618371D01*
X142422400Y-83814157D01*
X142563235Y-83985765D01*
X142734843Y-84126600D01*
X142930629Y-84231250D01*
X143143069Y-84295693D01*
X143308635Y-84312000D01*
X144219365Y-84312000D01*
X144384931Y-84295693D01*
X144597371Y-84231250D01*
X144793157Y-84126600D01*
X144964765Y-83985765D01*
X145105600Y-83814157D01*
X145210250Y-83618371D01*
X145274693Y-83405931D01*
X145296453Y-83185000D01*
X145274693Y-82964069D01*
X145210250Y-82751629D01*
X145105600Y-82555843D01*
X144964765Y-82384235D01*
X144793157Y-82243400D01*
X144597371Y-82138750D01*
X144384931Y-82074307D01*
X144219365Y-82058000D01*
X143308635Y-82058000D01*
X143143069Y-82074307D01*
X142930629Y-82138750D01*
X142734843Y-82243400D01*
X142563235Y-82384235D01*
X142422400Y-82555843D01*
X142317750Y-82751629D01*
X142253307Y-82964069D01*
X142231547Y-83185000D01*
X133291207Y-83185000D01*
X133215389Y-83153595D01*
X133094254Y-83129500D01*
X132970746Y-83129500D01*
X132849611Y-83153595D01*
X132735504Y-83200860D01*
X132632811Y-83269477D01*
X132545477Y-83356811D01*
X132476860Y-83459504D01*
X132429595Y-83573611D01*
X132405500Y-83694746D01*
X129929426Y-83694746D01*
X129970250Y-83618371D01*
X130034693Y-83405931D01*
X130056453Y-83185000D01*
X130034693Y-82964069D01*
X129970250Y-82751629D01*
X129865600Y-82555843D01*
X129724765Y-82384235D01*
X129553157Y-82243400D01*
X129357371Y-82138750D01*
X129144931Y-82074307D01*
X128979365Y-82058000D01*
X128068635Y-82058000D01*
X127903069Y-82074307D01*
X127690629Y-82138750D01*
X127494843Y-82243400D01*
X127323235Y-82384235D01*
X127182400Y-82555843D01*
X127077750Y-82751629D01*
X127013307Y-82964069D01*
X126991547Y-83185000D01*
X120408703Y-83185000D01*
X120408703Y-80645000D01*
X126991547Y-80645000D01*
X127013307Y-80865931D01*
X127077750Y-81078371D01*
X127182400Y-81274157D01*
X127323235Y-81445765D01*
X127494843Y-81586600D01*
X127690629Y-81691250D01*
X127903069Y-81755693D01*
X128068635Y-81772000D01*
X128979365Y-81772000D01*
X129144931Y-81755693D01*
X129357371Y-81691250D01*
X129553157Y-81586600D01*
X129724765Y-81445765D01*
X129865600Y-81274157D01*
X129895485Y-81218246D01*
X132977000Y-81218246D01*
X132977000Y-81341754D01*
X133001095Y-81462889D01*
X133048360Y-81576996D01*
X133116977Y-81679689D01*
X133204311Y-81767023D01*
X133307004Y-81835640D01*
X133421111Y-81882905D01*
X133542246Y-81907000D01*
X133591777Y-81907000D01*
X133903681Y-82218905D01*
X133917841Y-82236159D01*
X133986667Y-82292643D01*
X134027913Y-82314689D01*
X134065190Y-82334614D01*
X134150392Y-82360460D01*
X134239000Y-82369187D01*
X134261205Y-82367000D01*
X135953288Y-82367000D01*
X135988311Y-82402023D01*
X136091004Y-82470640D01*
X136205111Y-82517905D01*
X136326246Y-82542000D01*
X136449754Y-82542000D01*
X136570889Y-82517905D01*
X136684996Y-82470640D01*
X136787689Y-82402023D01*
X136875023Y-82314689D01*
X136943640Y-82211996D01*
X136990905Y-82097889D01*
X137015000Y-81976754D01*
X137015000Y-81853246D01*
X136990905Y-81732111D01*
X136943640Y-81618004D01*
X136875023Y-81515311D01*
X136787689Y-81427977D01*
X136684996Y-81359360D01*
X136570889Y-81312095D01*
X136449754Y-81288000D01*
X136326246Y-81288000D01*
X136205111Y-81312095D01*
X136091004Y-81359360D01*
X135988311Y-81427977D01*
X135953288Y-81463000D01*
X134426224Y-81463000D01*
X134231000Y-81267777D01*
X134231000Y-81218246D01*
X134206905Y-81097111D01*
X134159640Y-80983004D01*
X134091023Y-80880311D01*
X134003689Y-80792977D01*
X133900996Y-80724360D01*
X133786889Y-80677095D01*
X133665754Y-80653000D01*
X133542246Y-80653000D01*
X133421111Y-80677095D01*
X133307004Y-80724360D01*
X133204311Y-80792977D01*
X133116977Y-80880311D01*
X133048360Y-80983004D01*
X133001095Y-81097111D01*
X132977000Y-81218246D01*
X129895485Y-81218246D01*
X129970250Y-81078371D01*
X130034693Y-80865931D01*
X130056453Y-80645000D01*
X142231547Y-80645000D01*
X142253307Y-80865931D01*
X142317750Y-81078371D01*
X142422400Y-81274157D01*
X142563235Y-81445765D01*
X142734843Y-81586600D01*
X142930629Y-81691250D01*
X143143069Y-81755693D01*
X143308635Y-81772000D01*
X144219365Y-81772000D01*
X144384931Y-81755693D01*
X144597371Y-81691250D01*
X144793157Y-81586600D01*
X144964765Y-81445765D01*
X145105600Y-81274157D01*
X145210250Y-81078371D01*
X145274693Y-80865931D01*
X145296453Y-80645000D01*
X145274693Y-80424069D01*
X145210250Y-80211629D01*
X145105600Y-80015843D01*
X144964765Y-79844235D01*
X144793157Y-79703400D01*
X144597371Y-79598750D01*
X144384931Y-79534307D01*
X144219365Y-79518000D01*
X143308635Y-79518000D01*
X143143069Y-79534307D01*
X142930629Y-79598750D01*
X142734843Y-79703400D01*
X142563235Y-79844235D01*
X142422400Y-80015843D01*
X142317750Y-80211629D01*
X142253307Y-80424069D01*
X142231547Y-80645000D01*
X130056453Y-80645000D01*
X130034693Y-80424069D01*
X129970250Y-80211629D01*
X129865600Y-80015843D01*
X129724765Y-79844235D01*
X129553157Y-79703400D01*
X129357371Y-79598750D01*
X129144931Y-79534307D01*
X128979365Y-79518000D01*
X128068635Y-79518000D01*
X127903069Y-79534307D01*
X127690629Y-79598750D01*
X127494843Y-79703400D01*
X127323235Y-79844235D01*
X127182400Y-80015843D01*
X127077750Y-80211629D01*
X127013307Y-80424069D01*
X126991547Y-80645000D01*
X120408703Y-80645000D01*
X120408703Y-79399569D01*
X120517801Y-79099010D01*
X120517858Y-79098824D01*
X120517930Y-79098652D01*
X120520436Y-79091007D01*
X120812391Y-78105000D01*
X126991547Y-78105000D01*
X127013307Y-78325931D01*
X127077750Y-78538371D01*
X127182400Y-78734157D01*
X127323235Y-78905765D01*
X127494843Y-79046600D01*
X127690629Y-79151250D01*
X127903069Y-79215693D01*
X128068635Y-79232000D01*
X128979365Y-79232000D01*
X129144931Y-79215693D01*
X129357371Y-79151250D01*
X129553157Y-79046600D01*
X129724765Y-78905765D01*
X129865600Y-78734157D01*
X129970250Y-78538371D01*
X130004869Y-78424246D01*
X133231000Y-78424246D01*
X133231000Y-78547754D01*
X133255095Y-78668889D01*
X133302360Y-78782996D01*
X133370977Y-78885689D01*
X133458311Y-78973023D01*
X133561004Y-79041640D01*
X133675111Y-79088905D01*
X133796246Y-79113000D01*
X133845777Y-79113000D01*
X134411681Y-79678905D01*
X134425841Y-79696159D01*
X134494667Y-79752643D01*
X134535913Y-79774689D01*
X134573190Y-79794614D01*
X134658392Y-79820460D01*
X134747000Y-79829187D01*
X134769205Y-79827000D01*
X135953288Y-79827000D01*
X135988311Y-79862023D01*
X136091004Y-79930640D01*
X136205111Y-79977905D01*
X136326246Y-80002000D01*
X136449754Y-80002000D01*
X136570889Y-79977905D01*
X136684996Y-79930640D01*
X136787689Y-79862023D01*
X136875023Y-79774689D01*
X136943640Y-79671996D01*
X136990905Y-79557889D01*
X137015000Y-79436754D01*
X137015000Y-79313246D01*
X136990905Y-79192111D01*
X136943640Y-79078004D01*
X136875023Y-78975311D01*
X136787689Y-78887977D01*
X136684996Y-78819360D01*
X136570889Y-78772095D01*
X136449754Y-78748000D01*
X136326246Y-78748000D01*
X136205111Y-78772095D01*
X136091004Y-78819360D01*
X135988311Y-78887977D01*
X135953288Y-78923000D01*
X134934224Y-78923000D01*
X134485000Y-78473777D01*
X134485000Y-78424246D01*
X134460905Y-78303111D01*
X134413640Y-78189004D01*
X134357511Y-78105000D01*
X142231547Y-78105000D01*
X142253307Y-78325931D01*
X142317750Y-78538371D01*
X142422400Y-78734157D01*
X142563235Y-78905765D01*
X142734843Y-79046600D01*
X142930629Y-79151250D01*
X143143069Y-79215693D01*
X143308635Y-79232000D01*
X144219365Y-79232000D01*
X144384931Y-79215693D01*
X144597371Y-79151250D01*
X144793157Y-79046600D01*
X144964765Y-78905765D01*
X145105600Y-78734157D01*
X145210250Y-78538371D01*
X145274693Y-78325931D01*
X145296453Y-78105000D01*
X145274693Y-77884069D01*
X145210250Y-77671629D01*
X145105600Y-77475843D01*
X144964765Y-77304235D01*
X144793157Y-77163400D01*
X144597371Y-77058750D01*
X144384931Y-76994307D01*
X144219365Y-76978000D01*
X143308635Y-76978000D01*
X143143069Y-76994307D01*
X142930629Y-77058750D01*
X142734843Y-77163400D01*
X142563235Y-77304235D01*
X142422400Y-77475843D01*
X142317750Y-77671629D01*
X142253307Y-77884069D01*
X142231547Y-78105000D01*
X134357511Y-78105000D01*
X134345023Y-78086311D01*
X134257689Y-77998977D01*
X134154996Y-77930360D01*
X134040889Y-77883095D01*
X133919754Y-77859000D01*
X133796246Y-77859000D01*
X133675111Y-77883095D01*
X133561004Y-77930360D01*
X133458311Y-77998977D01*
X133370977Y-78086311D01*
X133302360Y-78189004D01*
X133255095Y-78303111D01*
X133231000Y-78424246D01*
X130004869Y-78424246D01*
X130034693Y-78325931D01*
X130056453Y-78105000D01*
X130034693Y-77884069D01*
X129970250Y-77671629D01*
X129865600Y-77475843D01*
X129724765Y-77304235D01*
X129553157Y-77163400D01*
X129357371Y-77058750D01*
X129144931Y-76994307D01*
X128979365Y-76978000D01*
X128068635Y-76978000D01*
X127903069Y-76994307D01*
X127690629Y-77058750D01*
X127494843Y-77163400D01*
X127323235Y-77304235D01*
X127182400Y-77475843D01*
X127077750Y-77671629D01*
X127013307Y-77884069D01*
X126991547Y-78105000D01*
X120812391Y-78105000D01*
X120979969Y-77539049D01*
X120980662Y-77536196D01*
X120981512Y-77533404D01*
X120983246Y-77525548D01*
X121286366Y-75935622D01*
X121286770Y-75932724D01*
X121287341Y-75929853D01*
X121288286Y-75921863D01*
X121320097Y-75565000D01*
X126991547Y-75565000D01*
X127013307Y-75785931D01*
X127077750Y-75998371D01*
X127182400Y-76194157D01*
X127323235Y-76365765D01*
X127494843Y-76506600D01*
X127690629Y-76611250D01*
X127903069Y-76675693D01*
X128068635Y-76692000D01*
X128979365Y-76692000D01*
X129144931Y-76675693D01*
X129357371Y-76611250D01*
X129553157Y-76506600D01*
X129724765Y-76365765D01*
X129865600Y-76194157D01*
X129970250Y-75998371D01*
X129985606Y-75947746D01*
X133802500Y-75947746D01*
X133802500Y-76071254D01*
X133826595Y-76192389D01*
X133873860Y-76306496D01*
X133942477Y-76409189D01*
X134029811Y-76496523D01*
X134132504Y-76565140D01*
X134246611Y-76612405D01*
X134367746Y-76636500D01*
X134417276Y-76636500D01*
X134919685Y-77138910D01*
X134933841Y-77156159D01*
X135002667Y-77212643D01*
X135081190Y-77254614D01*
X135146562Y-77274444D01*
X135166392Y-77280460D01*
X135254999Y-77289187D01*
X135277204Y-77287000D01*
X135953288Y-77287000D01*
X135988311Y-77322023D01*
X136091004Y-77390640D01*
X136205111Y-77437905D01*
X136326246Y-77462000D01*
X136449754Y-77462000D01*
X136570889Y-77437905D01*
X136684996Y-77390640D01*
X136787689Y-77322023D01*
X136875023Y-77234689D01*
X136943640Y-77131996D01*
X136990905Y-77017889D01*
X137015000Y-76896754D01*
X137015000Y-76773246D01*
X136990905Y-76652111D01*
X136943640Y-76538004D01*
X136875023Y-76435311D01*
X136787689Y-76347977D01*
X136684996Y-76279360D01*
X136570889Y-76232095D01*
X136449754Y-76208000D01*
X136326246Y-76208000D01*
X136205111Y-76232095D01*
X136091004Y-76279360D01*
X135988311Y-76347977D01*
X135953288Y-76383000D01*
X135442225Y-76383000D01*
X135056500Y-75997276D01*
X135056500Y-75947746D01*
X135032405Y-75826611D01*
X134985140Y-75712504D01*
X134916523Y-75609811D01*
X134871712Y-75565000D01*
X142231547Y-75565000D01*
X142253307Y-75785931D01*
X142317750Y-75998371D01*
X142422400Y-76194157D01*
X142563235Y-76365765D01*
X142734843Y-76506600D01*
X142930629Y-76611250D01*
X143143069Y-76675693D01*
X143308635Y-76692000D01*
X144219365Y-76692000D01*
X144384931Y-76675693D01*
X144597371Y-76611250D01*
X144793157Y-76506600D01*
X144964765Y-76365765D01*
X145105600Y-76194157D01*
X145210250Y-75998371D01*
X145274693Y-75785931D01*
X145296453Y-75565000D01*
X145274693Y-75344069D01*
X145210250Y-75131629D01*
X145105600Y-74935843D01*
X144964765Y-74764235D01*
X144793157Y-74623400D01*
X144597371Y-74518750D01*
X144384931Y-74454307D01*
X144219365Y-74438000D01*
X143308635Y-74438000D01*
X143143069Y-74454307D01*
X142930629Y-74518750D01*
X142734843Y-74623400D01*
X142563235Y-74764235D01*
X142422400Y-74935843D01*
X142317750Y-75131629D01*
X142253307Y-75344069D01*
X142231547Y-75565000D01*
X134871712Y-75565000D01*
X134829189Y-75522477D01*
X134726496Y-75453860D01*
X134612389Y-75406595D01*
X134491254Y-75382500D01*
X134367746Y-75382500D01*
X134246611Y-75406595D01*
X134132504Y-75453860D01*
X134029811Y-75522477D01*
X133942477Y-75609811D01*
X133873860Y-75712504D01*
X133826595Y-75826611D01*
X133802500Y-75947746D01*
X129985606Y-75947746D01*
X130034693Y-75785931D01*
X130056453Y-75565000D01*
X130034693Y-75344069D01*
X129970250Y-75131629D01*
X129865600Y-74935843D01*
X129724765Y-74764235D01*
X129553157Y-74623400D01*
X129357371Y-74518750D01*
X129144931Y-74454307D01*
X128979365Y-74438000D01*
X128068635Y-74438000D01*
X127903069Y-74454307D01*
X127690629Y-74518750D01*
X127494843Y-74623400D01*
X127323235Y-74764235D01*
X127182400Y-74935843D01*
X127077750Y-75131629D01*
X127013307Y-75344069D01*
X126991547Y-75565000D01*
X121320097Y-75565000D01*
X121431997Y-74309693D01*
X121432112Y-74306764D01*
X121432394Y-74303856D01*
X121432541Y-74295812D01*
X121419099Y-73025000D01*
X126991547Y-73025000D01*
X127013307Y-73245931D01*
X127077750Y-73458371D01*
X127182400Y-73654157D01*
X127323235Y-73825765D01*
X127494843Y-73966600D01*
X127690629Y-74071250D01*
X127903069Y-74135693D01*
X128068635Y-74152000D01*
X128979365Y-74152000D01*
X129144931Y-74135693D01*
X129357371Y-74071250D01*
X129553157Y-73966600D01*
X129724765Y-73825765D01*
X129865600Y-73654157D01*
X129963368Y-73471246D01*
X134374000Y-73471246D01*
X134374000Y-73594754D01*
X134398095Y-73715889D01*
X134445360Y-73829996D01*
X134513977Y-73932689D01*
X134601311Y-74020023D01*
X134704004Y-74088640D01*
X134818111Y-74135905D01*
X134939246Y-74160000D01*
X134988777Y-74160000D01*
X135427681Y-74598905D01*
X135441841Y-74616159D01*
X135510667Y-74672643D01*
X135551913Y-74694689D01*
X135589190Y-74714614D01*
X135674392Y-74740460D01*
X135763000Y-74749187D01*
X135785205Y-74747000D01*
X135953288Y-74747000D01*
X135988311Y-74782023D01*
X136091004Y-74850640D01*
X136205111Y-74897905D01*
X136326246Y-74922000D01*
X136449754Y-74922000D01*
X136570889Y-74897905D01*
X136684996Y-74850640D01*
X136787689Y-74782023D01*
X136875023Y-74694689D01*
X136943640Y-74591996D01*
X136990905Y-74477889D01*
X137015000Y-74356754D01*
X137015000Y-74233246D01*
X136990905Y-74112111D01*
X136943640Y-73998004D01*
X136875023Y-73895311D01*
X136787689Y-73807977D01*
X136684996Y-73739360D01*
X136570889Y-73692095D01*
X136449754Y-73668000D01*
X136326246Y-73668000D01*
X136205111Y-73692095D01*
X136091004Y-73739360D01*
X135988311Y-73807977D01*
X135953288Y-73843000D01*
X135950224Y-73843000D01*
X135628000Y-73520777D01*
X135628000Y-73471246D01*
X135603905Y-73350111D01*
X135556640Y-73236004D01*
X135488023Y-73133311D01*
X135400689Y-73045977D01*
X135369295Y-73025000D01*
X142231547Y-73025000D01*
X142253307Y-73245931D01*
X142317750Y-73458371D01*
X142422400Y-73654157D01*
X142563235Y-73825765D01*
X142734843Y-73966600D01*
X142930629Y-74071250D01*
X143143069Y-74135693D01*
X143308635Y-74152000D01*
X144219365Y-74152000D01*
X144384931Y-74135693D01*
X144597371Y-74071250D01*
X144793157Y-73966600D01*
X144828369Y-73937702D01*
X146760903Y-73937702D01*
X146832486Y-74181671D01*
X147087996Y-74302571D01*
X147362184Y-74371300D01*
X147644512Y-74385217D01*
X147924130Y-74343787D01*
X148190292Y-74248603D01*
X148315514Y-74181671D01*
X148387097Y-73937702D01*
X147574000Y-73124605D01*
X146760903Y-73937702D01*
X144828369Y-73937702D01*
X144964765Y-73825765D01*
X145105600Y-73654157D01*
X145210250Y-73458371D01*
X145274693Y-73245931D01*
X145296453Y-73025000D01*
X145295519Y-73015512D01*
X146133783Y-73015512D01*
X146175213Y-73295130D01*
X146270397Y-73561292D01*
X146337329Y-73686514D01*
X146581298Y-73758097D01*
X147394395Y-72945000D01*
X147753605Y-72945000D01*
X148566702Y-73758097D01*
X148810671Y-73686514D01*
X148931571Y-73431004D01*
X149000300Y-73156816D01*
X149014217Y-72874488D01*
X148972787Y-72594870D01*
X148877603Y-72328708D01*
X148810671Y-72203486D01*
X148566702Y-72131903D01*
X147753605Y-72945000D01*
X147394395Y-72945000D01*
X146581298Y-72131903D01*
X146337329Y-72203486D01*
X146216429Y-72458996D01*
X146147700Y-72733184D01*
X146133783Y-73015512D01*
X145295519Y-73015512D01*
X145274693Y-72804069D01*
X145210250Y-72591629D01*
X145105600Y-72395843D01*
X144964765Y-72224235D01*
X144793157Y-72083400D01*
X144597371Y-71978750D01*
X144510171Y-71952298D01*
X146760903Y-71952298D01*
X147574000Y-72765395D01*
X148387097Y-71952298D01*
X148315514Y-71708329D01*
X148060004Y-71587429D01*
X147785816Y-71518700D01*
X147503488Y-71504783D01*
X147223870Y-71546213D01*
X146957708Y-71641397D01*
X146832486Y-71708329D01*
X146760903Y-71952298D01*
X144510171Y-71952298D01*
X144384931Y-71914307D01*
X144219365Y-71898000D01*
X143308635Y-71898000D01*
X143143069Y-71914307D01*
X142930629Y-71978750D01*
X142734843Y-72083400D01*
X142563235Y-72224235D01*
X142422400Y-72395843D01*
X142317750Y-72591629D01*
X142253307Y-72804069D01*
X142231547Y-73025000D01*
X135369295Y-73025000D01*
X135297996Y-72977360D01*
X135183889Y-72930095D01*
X135062754Y-72906000D01*
X134939246Y-72906000D01*
X134818111Y-72930095D01*
X134704004Y-72977360D01*
X134601311Y-73045977D01*
X134513977Y-73133311D01*
X134445360Y-73236004D01*
X134398095Y-73350111D01*
X134374000Y-73471246D01*
X129963368Y-73471246D01*
X129970250Y-73458371D01*
X130034693Y-73245931D01*
X130056453Y-73025000D01*
X130034693Y-72804069D01*
X129970250Y-72591629D01*
X129865600Y-72395843D01*
X129724765Y-72224235D01*
X129553157Y-72083400D01*
X129357371Y-71978750D01*
X129144931Y-71914307D01*
X128979365Y-71898000D01*
X128068635Y-71898000D01*
X127903069Y-71914307D01*
X127690629Y-71978750D01*
X127494843Y-72083400D01*
X127323235Y-72224235D01*
X127182400Y-72395843D01*
X127077750Y-72591629D01*
X127013307Y-72804069D01*
X126991547Y-73025000D01*
X121419099Y-73025000D01*
X121415421Y-72677339D01*
X121415244Y-72674413D01*
X121415236Y-72671491D01*
X121414584Y-72663472D01*
X121236802Y-71054703D01*
X121236335Y-71051806D01*
X121236037Y-71048902D01*
X121234591Y-71040988D01*
X121116351Y-70485000D01*
X126991547Y-70485000D01*
X127013307Y-70705931D01*
X127077750Y-70918371D01*
X127182400Y-71114157D01*
X127323235Y-71285765D01*
X127494843Y-71426600D01*
X127690629Y-71531250D01*
X127903069Y-71595693D01*
X128068635Y-71612000D01*
X128979365Y-71612000D01*
X129144931Y-71595693D01*
X129357371Y-71531250D01*
X129553157Y-71426600D01*
X129724765Y-71285765D01*
X129865600Y-71114157D01*
X129970250Y-70918371D01*
X130034693Y-70705931D01*
X130056453Y-70485000D01*
X142231547Y-70485000D01*
X142253307Y-70705931D01*
X142317750Y-70918371D01*
X142422400Y-71114157D01*
X142563235Y-71285765D01*
X142734843Y-71426600D01*
X142930629Y-71531250D01*
X143143069Y-71595693D01*
X143308635Y-71612000D01*
X144219365Y-71612000D01*
X144384931Y-71595693D01*
X144597371Y-71531250D01*
X144793157Y-71426600D01*
X144964765Y-71285765D01*
X145105600Y-71114157D01*
X145210250Y-70918371D01*
X145274693Y-70705931D01*
X145296453Y-70485000D01*
X145274693Y-70264069D01*
X145210250Y-70051629D01*
X145105600Y-69855843D01*
X144964765Y-69684235D01*
X144793157Y-69543400D01*
X144597371Y-69438750D01*
X144384931Y-69374307D01*
X144219365Y-69358000D01*
X143308635Y-69358000D01*
X143143069Y-69374307D01*
X142930629Y-69438750D01*
X142734843Y-69543400D01*
X142563235Y-69684235D01*
X142422400Y-69855843D01*
X142317750Y-70051629D01*
X142253307Y-70264069D01*
X142231547Y-70485000D01*
X130056453Y-70485000D01*
X130034693Y-70264069D01*
X129970250Y-70051629D01*
X129865600Y-69855843D01*
X129724765Y-69684235D01*
X129553157Y-69543400D01*
X129357371Y-69438750D01*
X129144931Y-69374307D01*
X128979365Y-69358000D01*
X128068635Y-69358000D01*
X127903069Y-69374307D01*
X127690629Y-69438750D01*
X127494843Y-69543400D01*
X127323235Y-69684235D01*
X127182400Y-69855843D01*
X127077750Y-70051629D01*
X127013307Y-70264069D01*
X126991547Y-70485000D01*
X121116351Y-70485000D01*
X120897906Y-69457830D01*
X120897155Y-69454999D01*
X120896569Y-69452133D01*
X120894344Y-69444401D01*
X120408703Y-67923241D01*
X120408703Y-67145000D01*
X126995418Y-67145000D01*
X126995418Y-68745000D01*
X127001732Y-68809103D01*
X127020430Y-68870743D01*
X127050794Y-68927550D01*
X127091657Y-68977343D01*
X127141450Y-69018206D01*
X127198257Y-69048570D01*
X127259897Y-69067268D01*
X127324000Y-69073582D01*
X129724000Y-69073582D01*
X129788103Y-69067268D01*
X129849743Y-69048570D01*
X129906550Y-69018206D01*
X129956343Y-68977343D01*
X129997206Y-68927550D01*
X130027570Y-68870743D01*
X130046268Y-68809103D01*
X130052582Y-68745000D01*
X130052582Y-67945000D01*
X142231547Y-67945000D01*
X142253307Y-68165931D01*
X142317750Y-68378371D01*
X142422400Y-68574157D01*
X142563235Y-68745765D01*
X142734843Y-68886600D01*
X142930629Y-68991250D01*
X143143069Y-69055693D01*
X143308635Y-69072000D01*
X144219365Y-69072000D01*
X144384931Y-69055693D01*
X144597371Y-68991250D01*
X144793157Y-68886600D01*
X144964765Y-68745765D01*
X145105600Y-68574157D01*
X145210250Y-68378371D01*
X145274693Y-68165931D01*
X145296453Y-67945000D01*
X145274693Y-67724069D01*
X145210250Y-67511629D01*
X145105600Y-67315843D01*
X144964765Y-67144235D01*
X144793157Y-67003400D01*
X144597371Y-66898750D01*
X144384931Y-66834307D01*
X144219365Y-66818000D01*
X143308635Y-66818000D01*
X143143069Y-66834307D01*
X142930629Y-66898750D01*
X142734843Y-67003400D01*
X142563235Y-67144235D01*
X142422400Y-67315843D01*
X142317750Y-67511629D01*
X142253307Y-67724069D01*
X142231547Y-67945000D01*
X130052582Y-67945000D01*
X130052582Y-67145000D01*
X130046268Y-67080897D01*
X130027570Y-67019257D01*
X129997206Y-66962450D01*
X129956343Y-66912657D01*
X129906550Y-66871794D01*
X129849743Y-66841430D01*
X129788103Y-66822732D01*
X129724000Y-66816418D01*
X127324000Y-66816418D01*
X127259897Y-66822732D01*
X127198257Y-66841430D01*
X127141450Y-66871794D01*
X127091657Y-66912657D01*
X127050794Y-66962450D01*
X127020430Y-67019257D01*
X127001732Y-67080897D01*
X126995418Y-67145000D01*
X120408703Y-67145000D01*
X120408703Y-62236830D01*
X120429430Y-62025433D01*
X121367000Y-62025433D01*
X121367000Y-62434567D01*
X121446818Y-62835839D01*
X121603386Y-63213829D01*
X121830689Y-63554011D01*
X122119989Y-63843311D01*
X122460171Y-64070614D01*
X122838161Y-64227182D01*
X123239433Y-64307000D01*
X123648567Y-64307000D01*
X124049839Y-64227182D01*
X124427829Y-64070614D01*
X124768011Y-63843311D01*
X125057311Y-63554011D01*
X125284614Y-63213829D01*
X125441182Y-62835839D01*
X125521000Y-62434567D01*
X125521000Y-62025433D01*
X172934000Y-62025433D01*
X172934000Y-62434567D01*
X173013818Y-62835839D01*
X173170386Y-63213829D01*
X173397689Y-63554011D01*
X173686989Y-63843311D01*
X174027171Y-64070614D01*
X174405161Y-64227182D01*
X174806433Y-64307000D01*
X175215567Y-64307000D01*
X175616839Y-64227182D01*
X175994829Y-64070614D01*
X176335011Y-63843311D01*
X176624311Y-63554011D01*
X176851614Y-63213829D01*
X177008182Y-62835839D01*
X177088000Y-62434567D01*
X177088000Y-62025433D01*
X177008182Y-61624161D01*
X176851614Y-61246171D01*
X176624311Y-60905989D01*
X176335011Y-60616689D01*
X175994829Y-60389386D01*
X175616839Y-60232818D01*
X175215567Y-60153000D01*
X174806433Y-60153000D01*
X174405161Y-60232818D01*
X174027171Y-60389386D01*
X173686989Y-60616689D01*
X173397689Y-60905989D01*
X173170386Y-61246171D01*
X173013818Y-61624161D01*
X172934000Y-62025433D01*
X125521000Y-62025433D01*
X125441182Y-61624161D01*
X125284614Y-61246171D01*
X125057311Y-60905989D01*
X124768011Y-60616689D01*
X124427829Y-60389386D01*
X124049839Y-60232818D01*
X123648567Y-60153000D01*
X123239433Y-60153000D01*
X122838161Y-60232818D01*
X122460171Y-60389386D01*
X122119989Y-60616689D01*
X121830689Y-60905989D01*
X121603386Y-61246171D01*
X121446818Y-61624161D01*
X121367000Y-62025433D01*
X120429430Y-62025433D01*
X120467166Y-61640571D01*
X120638347Y-61073594D01*
X120916396Y-60550661D01*
X121290716Y-60091698D01*
X121747060Y-59714179D01*
X122268038Y-59432487D01*
X122833802Y-59257355D01*
X123429403Y-59194754D01*
X123444197Y-59194703D01*
X174999170Y-59194703D01*
X175595429Y-59253166D01*
%TA.AperFunction,Conductor*%
D19*
G36*
X175595429Y-59253166D02*
G01*
X176162406Y-59424347D01*
X176685339Y-59702396D01*
X177144302Y-60076716D01*
X177521821Y-60533060D01*
X177803513Y-61054038D01*
X177978645Y-61619802D01*
X178041246Y-62215403D01*
X178041297Y-62230197D01*
X178041298Y-109728000D01*
X166878673Y-109728000D01*
X166816889Y-109702408D01*
X166695754Y-109678313D01*
X166572246Y-109678313D01*
X166451111Y-109702408D01*
X166389327Y-109728000D01*
X156687855Y-109728000D01*
X155714957Y-108755102D01*
X155714952Y-108755098D01*
X155683298Y-108723444D01*
X155669905Y-108656111D01*
X155622640Y-108542004D01*
X155554023Y-108439311D01*
X155466689Y-108351977D01*
X155363996Y-108283360D01*
X155249889Y-108236095D01*
X155182557Y-108222702D01*
X155150904Y-108191050D01*
X155134699Y-108171303D01*
X155055899Y-108106634D01*
X154965998Y-108058581D01*
X154868449Y-108028990D01*
X154792414Y-108021501D01*
X154767001Y-108018998D01*
X154741588Y-108021501D01*
X152187356Y-108021501D01*
X151520500Y-107354645D01*
X151520500Y-101314039D01*
X152767096Y-101314039D01*
X152784633Y-101396818D01*
X152895285Y-101656646D01*
X153054500Y-101889895D01*
X153256161Y-102087601D01*
X153492517Y-102242166D01*
X153754486Y-102347650D01*
X154032000Y-102400000D01*
X154432000Y-102400000D01*
X154432000Y-101092000D01*
X154686000Y-101092000D01*
X154686000Y-102400000D01*
X155086000Y-102400000D01*
X155363514Y-102347650D01*
X155625483Y-102242166D01*
X155861839Y-102087601D01*
X156063500Y-101889895D01*
X156222715Y-101656646D01*
X156333367Y-101396818D01*
X156350904Y-101314039D01*
X156228915Y-101092000D01*
X154686000Y-101092000D01*
X154432000Y-101092000D01*
X152889085Y-101092000D01*
X152767096Y-101314039D01*
X151520500Y-101314039D01*
X151520500Y-100615961D01*
X152767096Y-100615961D01*
X152889085Y-100838000D01*
X154432000Y-100838000D01*
X154432000Y-100818000D01*
X154686000Y-100818000D01*
X154686000Y-100838000D01*
X156228915Y-100838000D01*
X156350904Y-100615961D01*
X156333367Y-100533182D01*
X156222715Y-100273354D01*
X156063500Y-100040105D01*
X155861839Y-99842399D01*
X155625483Y-99687834D01*
X155363514Y-99582350D01*
X155138048Y-99539818D01*
X155179931Y-99535693D01*
X155392371Y-99471250D01*
X155588157Y-99366600D01*
X155759765Y-99225765D01*
X155900600Y-99054157D01*
X156005250Y-98858371D01*
X156069693Y-98645931D01*
X156091453Y-98425000D01*
X156069693Y-98204069D01*
X156005250Y-97991629D01*
X155900600Y-97795843D01*
X155759765Y-97624235D01*
X155588157Y-97483400D01*
X155392371Y-97378750D01*
X155179931Y-97314307D01*
X155014365Y-97298000D01*
X154103635Y-97298000D01*
X153938069Y-97314307D01*
X153725629Y-97378750D01*
X153529843Y-97483400D01*
X153358235Y-97624235D01*
X153217400Y-97795843D01*
X153112750Y-97991629D01*
X153048307Y-98204069D01*
X153026547Y-98425000D01*
X153048307Y-98645931D01*
X153112750Y-98858371D01*
X153217400Y-99054157D01*
X153358235Y-99225765D01*
X153529843Y-99366600D01*
X153725629Y-99471250D01*
X153938069Y-99535693D01*
X153979952Y-99539818D01*
X153754486Y-99582350D01*
X153492517Y-99687834D01*
X153256161Y-99842399D01*
X153054500Y-100040105D01*
X152895285Y-100273354D01*
X152784633Y-100533182D01*
X152767096Y-100615961D01*
X151520500Y-100615961D01*
X151520500Y-95885000D01*
X153026547Y-95885000D01*
X153048307Y-96105931D01*
X153112750Y-96318371D01*
X153217400Y-96514157D01*
X153358235Y-96685765D01*
X153529843Y-96826600D01*
X153725629Y-96931250D01*
X153938069Y-96995693D01*
X154103635Y-97012000D01*
X155014365Y-97012000D01*
X155179931Y-96995693D01*
X155392371Y-96931250D01*
X155588157Y-96826600D01*
X155759765Y-96685765D01*
X155900600Y-96514157D01*
X156005250Y-96318371D01*
X156069693Y-96105931D01*
X156091453Y-95885000D01*
X156069693Y-95664069D01*
X156005250Y-95451629D01*
X155900600Y-95255843D01*
X155759765Y-95084235D01*
X155588157Y-94943400D01*
X155392371Y-94838750D01*
X155179931Y-94774307D01*
X155014365Y-94758000D01*
X154103635Y-94758000D01*
X153938069Y-94774307D01*
X153725629Y-94838750D01*
X153529843Y-94943400D01*
X153358235Y-95084235D01*
X153217400Y-95255843D01*
X153112750Y-95451629D01*
X153048307Y-95664069D01*
X153026547Y-95885000D01*
X151520500Y-95885000D01*
X151520500Y-93345000D01*
X153026547Y-93345000D01*
X153048307Y-93565931D01*
X153112750Y-93778371D01*
X153217400Y-93974157D01*
X153358235Y-94145765D01*
X153529843Y-94286600D01*
X153725629Y-94391250D01*
X153938069Y-94455693D01*
X154103635Y-94472000D01*
X155014365Y-94472000D01*
X155179931Y-94455693D01*
X155392371Y-94391250D01*
X155588157Y-94286600D01*
X155759765Y-94145765D01*
X155900600Y-93974157D01*
X156005250Y-93778371D01*
X156069693Y-93565931D01*
X156091453Y-93345000D01*
X156069693Y-93124069D01*
X156005250Y-92911629D01*
X155900600Y-92715843D01*
X155759765Y-92544235D01*
X155588157Y-92403400D01*
X155392371Y-92298750D01*
X155179931Y-92234307D01*
X155014365Y-92218000D01*
X154103635Y-92218000D01*
X153938069Y-92234307D01*
X153725629Y-92298750D01*
X153529843Y-92403400D01*
X153358235Y-92544235D01*
X153217400Y-92715843D01*
X153112750Y-92911629D01*
X153048307Y-93124069D01*
X153026547Y-93345000D01*
X151520500Y-93345000D01*
X151520500Y-90805000D01*
X153026547Y-90805000D01*
X153048307Y-91025931D01*
X153112750Y-91238371D01*
X153217400Y-91434157D01*
X153358235Y-91605765D01*
X153529843Y-91746600D01*
X153725629Y-91851250D01*
X153938069Y-91915693D01*
X154103635Y-91932000D01*
X155014365Y-91932000D01*
X155179931Y-91915693D01*
X155392371Y-91851250D01*
X155588157Y-91746600D01*
X155759765Y-91605765D01*
X155900600Y-91434157D01*
X156005250Y-91238371D01*
X156069693Y-91025931D01*
X156091453Y-90805000D01*
X156069693Y-90584069D01*
X156005250Y-90371629D01*
X155900600Y-90175843D01*
X155759765Y-90004235D01*
X155588157Y-89863400D01*
X155392371Y-89758750D01*
X155179931Y-89694307D01*
X155014365Y-89678000D01*
X154103635Y-89678000D01*
X153938069Y-89694307D01*
X153725629Y-89758750D01*
X153529843Y-89863400D01*
X153358235Y-90004235D01*
X153217400Y-90175843D01*
X153112750Y-90371629D01*
X153048307Y-90584069D01*
X153026547Y-90805000D01*
X151520500Y-90805000D01*
X151520500Y-88265000D01*
X153026547Y-88265000D01*
X153048307Y-88485931D01*
X153112750Y-88698371D01*
X153217400Y-88894157D01*
X153358235Y-89065765D01*
X153529843Y-89206600D01*
X153725629Y-89311250D01*
X153938069Y-89375693D01*
X154103635Y-89392000D01*
X155014365Y-89392000D01*
X155179931Y-89375693D01*
X155392371Y-89311250D01*
X155588157Y-89206600D01*
X155759765Y-89065765D01*
X155900600Y-88894157D01*
X156005250Y-88698371D01*
X156069693Y-88485931D01*
X156091453Y-88265000D01*
X156069693Y-88044069D01*
X156005250Y-87831629D01*
X155900600Y-87635843D01*
X155759765Y-87464235D01*
X155588157Y-87323400D01*
X155392371Y-87218750D01*
X155179931Y-87154307D01*
X155014365Y-87138000D01*
X154103635Y-87138000D01*
X153938069Y-87154307D01*
X153725629Y-87218750D01*
X153529843Y-87323400D01*
X153358235Y-87464235D01*
X153217400Y-87635843D01*
X153112750Y-87831629D01*
X153048307Y-88044069D01*
X153026547Y-88265000D01*
X151520500Y-88265000D01*
X151520500Y-85725000D01*
X153026547Y-85725000D01*
X153048307Y-85945931D01*
X153112750Y-86158371D01*
X153217400Y-86354157D01*
X153358235Y-86525765D01*
X153529843Y-86666600D01*
X153725629Y-86771250D01*
X153938069Y-86835693D01*
X154103635Y-86852000D01*
X155014365Y-86852000D01*
X155179931Y-86835693D01*
X155392371Y-86771250D01*
X155588157Y-86666600D01*
X155759765Y-86525765D01*
X155900600Y-86354157D01*
X156005250Y-86158371D01*
X156069693Y-85945931D01*
X156091453Y-85725000D01*
X156069693Y-85504069D01*
X156005250Y-85291629D01*
X155900600Y-85095843D01*
X155759765Y-84924235D01*
X155588157Y-84783400D01*
X155392371Y-84678750D01*
X155179931Y-84614307D01*
X155014365Y-84598000D01*
X154103635Y-84598000D01*
X153938069Y-84614307D01*
X153725629Y-84678750D01*
X153529843Y-84783400D01*
X153358235Y-84924235D01*
X153217400Y-85095843D01*
X153112750Y-85291629D01*
X153048307Y-85504069D01*
X153026547Y-85725000D01*
X151520500Y-85725000D01*
X151520500Y-83185000D01*
X153026547Y-83185000D01*
X153048307Y-83405931D01*
X153112750Y-83618371D01*
X153217400Y-83814157D01*
X153358235Y-83985765D01*
X153529843Y-84126600D01*
X153725629Y-84231250D01*
X153938069Y-84295693D01*
X154103635Y-84312000D01*
X155014365Y-84312000D01*
X155179931Y-84295693D01*
X155392371Y-84231250D01*
X155588157Y-84126600D01*
X155759765Y-83985765D01*
X155900600Y-83814157D01*
X156005250Y-83618371D01*
X156069693Y-83405931D01*
X156091453Y-83185000D01*
X156069693Y-82964069D01*
X156005250Y-82751629D01*
X155900600Y-82555843D01*
X155759765Y-82384235D01*
X155588157Y-82243400D01*
X155392371Y-82138750D01*
X155179931Y-82074307D01*
X155014365Y-82058000D01*
X154103635Y-82058000D01*
X153938069Y-82074307D01*
X153725629Y-82138750D01*
X153529843Y-82243400D01*
X153358235Y-82384235D01*
X153217400Y-82555843D01*
X153112750Y-82751629D01*
X153048307Y-82964069D01*
X153026547Y-83185000D01*
X151520500Y-83185000D01*
X151520500Y-81853246D01*
X164727000Y-81853246D01*
X164727000Y-81976754D01*
X164751095Y-82097889D01*
X164798360Y-82211996D01*
X164866977Y-82314689D01*
X164912001Y-82359713D01*
X164912000Y-99885288D01*
X164876977Y-99920311D01*
X164808360Y-100023004D01*
X164761095Y-100137111D01*
X164737000Y-100258246D01*
X164737000Y-100381754D01*
X164761095Y-100502889D01*
X164808360Y-100616996D01*
X164876977Y-100719689D01*
X164964311Y-100807023D01*
X165067004Y-100875640D01*
X165181111Y-100922905D01*
X165302246Y-100947000D01*
X165362000Y-100947000D01*
X165362000Y-101026754D01*
X165386095Y-101147889D01*
X165433360Y-101261996D01*
X165501977Y-101364689D01*
X165589311Y-101452023D01*
X165692004Y-101520640D01*
X165806111Y-101567905D01*
X165927246Y-101592000D01*
X166021569Y-101592000D01*
X166007000Y-101665246D01*
X166007000Y-101788754D01*
X166031095Y-101909889D01*
X166078360Y-102023996D01*
X166146977Y-102126689D01*
X166234311Y-102214023D01*
X166337004Y-102282640D01*
X166451111Y-102329905D01*
X166572246Y-102354000D01*
X166695754Y-102354000D01*
X166816889Y-102329905D01*
X166930996Y-102282640D01*
X167033689Y-102214023D01*
X167121023Y-102126689D01*
X167189640Y-102023996D01*
X167236905Y-101909889D01*
X167261000Y-101788754D01*
X167261000Y-101665246D01*
X167246431Y-101592000D01*
X167320754Y-101592000D01*
X167441889Y-101567905D01*
X167555996Y-101520640D01*
X167658689Y-101452023D01*
X167746023Y-101364689D01*
X167814640Y-101261996D01*
X167861905Y-101147889D01*
X167886000Y-101026754D01*
X167886000Y-100957000D01*
X167955754Y-100957000D01*
X168076889Y-100932905D01*
X168190996Y-100885640D01*
X168280236Y-100826012D01*
X168266547Y-100965000D01*
X168288307Y-101185931D01*
X168352750Y-101398371D01*
X168457400Y-101594157D01*
X168598235Y-101765765D01*
X168769843Y-101906600D01*
X168965629Y-102011250D01*
X169178069Y-102075693D01*
X169343635Y-102092000D01*
X170254365Y-102092000D01*
X170419931Y-102075693D01*
X170632371Y-102011250D01*
X170828157Y-101906600D01*
X170999765Y-101765765D01*
X171140600Y-101594157D01*
X171245250Y-101398371D01*
X171309693Y-101185931D01*
X171331453Y-100965000D01*
X171309693Y-100744069D01*
X171245250Y-100531629D01*
X171140600Y-100335843D01*
X170999765Y-100164235D01*
X170952485Y-100125433D01*
X172934000Y-100125433D01*
X172934000Y-100534567D01*
X173013818Y-100935839D01*
X173170386Y-101313829D01*
X173397689Y-101654011D01*
X173686989Y-101943311D01*
X174027171Y-102170614D01*
X174405161Y-102327182D01*
X174806433Y-102407000D01*
X175215567Y-102407000D01*
X175616839Y-102327182D01*
X175994829Y-102170614D01*
X176335011Y-101943311D01*
X176624311Y-101654011D01*
X176851614Y-101313829D01*
X177008182Y-100935839D01*
X177088000Y-100534567D01*
X177088000Y-100125433D01*
X177008182Y-99724161D01*
X176851614Y-99346171D01*
X176624311Y-99005989D01*
X176335011Y-98716689D01*
X175994829Y-98489386D01*
X175616839Y-98332818D01*
X175215567Y-98253000D01*
X174806433Y-98253000D01*
X174405161Y-98332818D01*
X174027171Y-98489386D01*
X173686989Y-98716689D01*
X173397689Y-99005989D01*
X173170386Y-99346171D01*
X173013818Y-99724161D01*
X172934000Y-100125433D01*
X170952485Y-100125433D01*
X170828157Y-100023400D01*
X170632371Y-99918750D01*
X170419931Y-99854307D01*
X170254365Y-99838000D01*
X169343635Y-99838000D01*
X169178069Y-99854307D01*
X168965629Y-99918750D01*
X168769843Y-100023400D01*
X168598235Y-100164235D01*
X168519415Y-100260277D01*
X168496905Y-100147111D01*
X168449640Y-100033004D01*
X168381023Y-99930311D01*
X168346000Y-99895288D01*
X168346000Y-98836119D01*
X168352750Y-98858371D01*
X168457400Y-99054157D01*
X168598235Y-99225765D01*
X168769843Y-99366600D01*
X168965629Y-99471250D01*
X169178069Y-99535693D01*
X169343635Y-99552000D01*
X170254365Y-99552000D01*
X170419931Y-99535693D01*
X170632371Y-99471250D01*
X170828157Y-99366600D01*
X170999765Y-99225765D01*
X171140600Y-99054157D01*
X171245250Y-98858371D01*
X171309693Y-98645931D01*
X171331453Y-98425000D01*
X171309693Y-98204069D01*
X171245250Y-97991629D01*
X171140600Y-97795843D01*
X170999765Y-97624235D01*
X170828157Y-97483400D01*
X170632371Y-97378750D01*
X170419931Y-97314307D01*
X170254365Y-97298000D01*
X169343635Y-97298000D01*
X169178069Y-97314307D01*
X168965629Y-97378750D01*
X168769843Y-97483400D01*
X168598235Y-97624235D01*
X168457400Y-97795843D01*
X168352750Y-97991629D01*
X168346000Y-98013881D01*
X168346000Y-96296119D01*
X168352750Y-96318371D01*
X168457400Y-96514157D01*
X168598235Y-96685765D01*
X168769843Y-96826600D01*
X168965629Y-96931250D01*
X169178069Y-96995693D01*
X169343635Y-97012000D01*
X170254365Y-97012000D01*
X170419931Y-96995693D01*
X170632371Y-96931250D01*
X170828157Y-96826600D01*
X170999765Y-96685765D01*
X171140600Y-96514157D01*
X171245250Y-96318371D01*
X171309693Y-96105931D01*
X171331453Y-95885000D01*
X171309693Y-95664069D01*
X171245250Y-95451629D01*
X171140600Y-95255843D01*
X170999765Y-95084235D01*
X170828157Y-94943400D01*
X170632371Y-94838750D01*
X170419931Y-94774307D01*
X170254365Y-94758000D01*
X169343635Y-94758000D01*
X169178069Y-94774307D01*
X168965629Y-94838750D01*
X168769843Y-94943400D01*
X168598235Y-95084235D01*
X168457400Y-95255843D01*
X168352750Y-95451629D01*
X168346000Y-95473881D01*
X168346000Y-93756119D01*
X168352750Y-93778371D01*
X168457400Y-93974157D01*
X168598235Y-94145765D01*
X168769843Y-94286600D01*
X168965629Y-94391250D01*
X169178069Y-94455693D01*
X169343635Y-94472000D01*
X170254365Y-94472000D01*
X170419931Y-94455693D01*
X170632371Y-94391250D01*
X170828157Y-94286600D01*
X170999765Y-94145765D01*
X171140600Y-93974157D01*
X171245250Y-93778371D01*
X171309693Y-93565931D01*
X171331453Y-93345000D01*
X171309693Y-93124069D01*
X171245250Y-92911629D01*
X171140600Y-92715843D01*
X170999765Y-92544235D01*
X170828157Y-92403400D01*
X170632371Y-92298750D01*
X170419931Y-92234307D01*
X170254365Y-92218000D01*
X169343635Y-92218000D01*
X169178069Y-92234307D01*
X168965629Y-92298750D01*
X168769843Y-92403400D01*
X168598235Y-92544235D01*
X168457400Y-92715843D01*
X168352750Y-92911629D01*
X168346000Y-92933881D01*
X168346000Y-91216119D01*
X168352750Y-91238371D01*
X168457400Y-91434157D01*
X168598235Y-91605765D01*
X168769843Y-91746600D01*
X168965629Y-91851250D01*
X169178069Y-91915693D01*
X169343635Y-91932000D01*
X170254365Y-91932000D01*
X170419931Y-91915693D01*
X170632371Y-91851250D01*
X170828157Y-91746600D01*
X170999765Y-91605765D01*
X171140600Y-91434157D01*
X171245250Y-91238371D01*
X171309693Y-91025931D01*
X171331453Y-90805000D01*
X171309693Y-90584069D01*
X171245250Y-90371629D01*
X171140600Y-90175843D01*
X170999765Y-90004235D01*
X170828157Y-89863400D01*
X170632371Y-89758750D01*
X170419931Y-89694307D01*
X170254365Y-89678000D01*
X169343635Y-89678000D01*
X169178069Y-89694307D01*
X168965629Y-89758750D01*
X168769843Y-89863400D01*
X168598235Y-90004235D01*
X168457400Y-90175843D01*
X168352750Y-90371629D01*
X168346000Y-90393881D01*
X168346000Y-88907224D01*
X168423148Y-88830076D01*
X168457400Y-88894157D01*
X168598235Y-89065765D01*
X168769843Y-89206600D01*
X168965629Y-89311250D01*
X169178069Y-89375693D01*
X169343635Y-89392000D01*
X170254365Y-89392000D01*
X170419931Y-89375693D01*
X170632371Y-89311250D01*
X170828157Y-89206600D01*
X170999765Y-89065765D01*
X171140600Y-88894157D01*
X171245250Y-88698371D01*
X171309693Y-88485931D01*
X171331453Y-88265000D01*
X171309693Y-88044069D01*
X171245250Y-87831629D01*
X171140600Y-87635843D01*
X170999765Y-87464235D01*
X170978764Y-87447000D01*
X171798795Y-87447000D01*
X171821000Y-87449187D01*
X171843205Y-87447000D01*
X171909607Y-87440460D01*
X171994810Y-87414614D01*
X172073333Y-87372643D01*
X172142159Y-87316159D01*
X172156323Y-87298900D01*
X172468224Y-86987000D01*
X172517754Y-86987000D01*
X172638889Y-86962905D01*
X172752996Y-86915640D01*
X172855689Y-86847023D01*
X172943023Y-86759689D01*
X173011640Y-86656996D01*
X173058905Y-86542889D01*
X173083000Y-86421754D01*
X173083000Y-86298246D01*
X173058905Y-86177111D01*
X173011640Y-86063004D01*
X172943023Y-85960311D01*
X172855689Y-85872977D01*
X172752996Y-85804360D01*
X172638889Y-85757095D01*
X172517754Y-85733000D01*
X172394246Y-85733000D01*
X172273111Y-85757095D01*
X172159004Y-85804360D01*
X172056311Y-85872977D01*
X171968977Y-85960311D01*
X171900360Y-86063004D01*
X171853095Y-86177111D01*
X171829000Y-86298246D01*
X171829000Y-86347776D01*
X171633777Y-86543000D01*
X170978764Y-86543000D01*
X170999765Y-86525765D01*
X171140600Y-86354157D01*
X171245250Y-86158371D01*
X171309693Y-85945931D01*
X171331453Y-85725000D01*
X171309693Y-85504069D01*
X171245250Y-85291629D01*
X171140600Y-85095843D01*
X170999765Y-84924235D01*
X170828157Y-84783400D01*
X170632371Y-84678750D01*
X170419931Y-84614307D01*
X170254365Y-84598000D01*
X169343635Y-84598000D01*
X169178069Y-84614307D01*
X168965629Y-84678750D01*
X168769843Y-84783400D01*
X168598235Y-84924235D01*
X168457400Y-85095843D01*
X168352750Y-85291629D01*
X168288307Y-85504069D01*
X168266547Y-85725000D01*
X168288307Y-85945931D01*
X168352750Y-86158371D01*
X168457400Y-86354157D01*
X168598235Y-86525765D01*
X168619236Y-86543000D01*
X167916205Y-86543000D01*
X167894000Y-86540813D01*
X167805392Y-86549540D01*
X167720190Y-86575386D01*
X167641667Y-86617357D01*
X167572841Y-86673841D01*
X167558681Y-86691095D01*
X166955100Y-87294677D01*
X166937841Y-87308841D01*
X166881357Y-87377668D01*
X166861609Y-87414614D01*
X166839386Y-87456191D01*
X166813540Y-87541393D01*
X166804813Y-87630000D01*
X166807000Y-87652205D01*
X166807001Y-93322786D01*
X166807000Y-93322796D01*
X166807000Y-94518128D01*
X166695754Y-94496000D01*
X166572246Y-94496000D01*
X166451111Y-94520095D01*
X166441000Y-94524283D01*
X166441000Y-87937712D01*
X166476023Y-87902689D01*
X166544640Y-87799996D01*
X166591905Y-87685889D01*
X166616000Y-87564754D01*
X166616000Y-87441246D01*
X166591905Y-87320111D01*
X166544640Y-87206004D01*
X166476023Y-87103311D01*
X166388689Y-87015977D01*
X166285996Y-86947360D01*
X166171889Y-86900095D01*
X166050754Y-86876000D01*
X165927246Y-86876000D01*
X165816000Y-86898128D01*
X165816000Y-83185000D01*
X168266547Y-83185000D01*
X168288307Y-83405931D01*
X168352750Y-83618371D01*
X168457400Y-83814157D01*
X168598235Y-83985765D01*
X168769843Y-84126600D01*
X168965629Y-84231250D01*
X169178069Y-84295693D01*
X169343635Y-84312000D01*
X170254365Y-84312000D01*
X170419931Y-84295693D01*
X170632371Y-84231250D01*
X170828157Y-84126600D01*
X170999765Y-83985765D01*
X171140600Y-83814157D01*
X171245250Y-83618371D01*
X171309693Y-83405931D01*
X171331453Y-83185000D01*
X171309693Y-82964069D01*
X171245250Y-82751629D01*
X171140600Y-82555843D01*
X170999765Y-82384235D01*
X170828157Y-82243400D01*
X170632371Y-82138750D01*
X170419931Y-82074307D01*
X170254365Y-82058000D01*
X169343635Y-82058000D01*
X169178069Y-82074307D01*
X168965629Y-82138750D01*
X168769843Y-82243400D01*
X168598235Y-82384235D01*
X168457400Y-82555843D01*
X168352750Y-82751629D01*
X168288307Y-82964069D01*
X168266547Y-83185000D01*
X165816000Y-83185000D01*
X165816000Y-82339712D01*
X165841023Y-82314689D01*
X165909640Y-82211996D01*
X165956905Y-82097889D01*
X165981000Y-81976754D01*
X165981000Y-81853246D01*
X165956905Y-81732111D01*
X165909640Y-81618004D01*
X165841023Y-81515311D01*
X165753689Y-81427977D01*
X165650996Y-81359360D01*
X165536889Y-81312095D01*
X165415754Y-81288000D01*
X165292246Y-81288000D01*
X165171111Y-81312095D01*
X165057004Y-81359360D01*
X164954311Y-81427977D01*
X164866977Y-81515311D01*
X164798360Y-81618004D01*
X164751095Y-81732111D01*
X164727000Y-81853246D01*
X151520500Y-81853246D01*
X151520500Y-80645000D01*
X153026547Y-80645000D01*
X153048307Y-80865931D01*
X153112750Y-81078371D01*
X153217400Y-81274157D01*
X153358235Y-81445765D01*
X153529843Y-81586600D01*
X153725629Y-81691250D01*
X153938069Y-81755693D01*
X154103635Y-81772000D01*
X155014365Y-81772000D01*
X155179931Y-81755693D01*
X155392371Y-81691250D01*
X155588157Y-81586600D01*
X155759765Y-81445765D01*
X155900600Y-81274157D01*
X156005250Y-81078371D01*
X156069693Y-80865931D01*
X156091453Y-80645000D01*
X168266547Y-80645000D01*
X168288307Y-80865931D01*
X168352750Y-81078371D01*
X168457400Y-81274157D01*
X168598235Y-81445765D01*
X168769843Y-81586600D01*
X168965629Y-81691250D01*
X169178069Y-81755693D01*
X169343635Y-81772000D01*
X170254365Y-81772000D01*
X170419931Y-81755693D01*
X170632371Y-81691250D01*
X170828157Y-81586600D01*
X170999765Y-81445765D01*
X171140600Y-81274157D01*
X171245250Y-81078371D01*
X171309693Y-80865931D01*
X171331453Y-80645000D01*
X171309693Y-80424069D01*
X171245250Y-80211629D01*
X171140600Y-80015843D01*
X170999765Y-79844235D01*
X170828157Y-79703400D01*
X170632371Y-79598750D01*
X170419931Y-79534307D01*
X170254365Y-79518000D01*
X169343635Y-79518000D01*
X169178069Y-79534307D01*
X168965629Y-79598750D01*
X168769843Y-79703400D01*
X168598235Y-79844235D01*
X168457400Y-80015843D01*
X168352750Y-80211629D01*
X168288307Y-80424069D01*
X168266547Y-80645000D01*
X156091453Y-80645000D01*
X156069693Y-80424069D01*
X156005250Y-80211629D01*
X155900600Y-80015843D01*
X155759765Y-79844235D01*
X155588157Y-79703400D01*
X155392371Y-79598750D01*
X155179931Y-79534307D01*
X155014365Y-79518000D01*
X154103635Y-79518000D01*
X153938069Y-79534307D01*
X153725629Y-79598750D01*
X153529843Y-79703400D01*
X153358235Y-79844235D01*
X153217400Y-80015843D01*
X153112750Y-80211629D01*
X153048307Y-80424069D01*
X153026547Y-80645000D01*
X151520500Y-80645000D01*
X151520500Y-78105000D01*
X153026547Y-78105000D01*
X153048307Y-78325931D01*
X153112750Y-78538371D01*
X153217400Y-78734157D01*
X153358235Y-78905765D01*
X153529843Y-79046600D01*
X153725629Y-79151250D01*
X153938069Y-79215693D01*
X154103635Y-79232000D01*
X155014365Y-79232000D01*
X155179931Y-79215693D01*
X155392371Y-79151250D01*
X155588157Y-79046600D01*
X155759765Y-78905765D01*
X155900600Y-78734157D01*
X156005250Y-78538371D01*
X156069693Y-78325931D01*
X156091453Y-78105000D01*
X168266547Y-78105000D01*
X168288307Y-78325931D01*
X168352750Y-78538371D01*
X168457400Y-78734157D01*
X168598235Y-78905765D01*
X168769843Y-79046600D01*
X168965629Y-79151250D01*
X169178069Y-79215693D01*
X169343635Y-79232000D01*
X170254365Y-79232000D01*
X170419931Y-79215693D01*
X170632371Y-79151250D01*
X170828157Y-79046600D01*
X170999765Y-78905765D01*
X171140600Y-78734157D01*
X171245250Y-78538371D01*
X171309693Y-78325931D01*
X171331453Y-78105000D01*
X171309693Y-77884069D01*
X171245250Y-77671629D01*
X171140600Y-77475843D01*
X170999765Y-77304235D01*
X170828157Y-77163400D01*
X170632371Y-77058750D01*
X170419931Y-76994307D01*
X170254365Y-76978000D01*
X169343635Y-76978000D01*
X169178069Y-76994307D01*
X168965629Y-77058750D01*
X168769843Y-77163400D01*
X168598235Y-77304235D01*
X168457400Y-77475843D01*
X168352750Y-77671629D01*
X168288307Y-77884069D01*
X168266547Y-78105000D01*
X156091453Y-78105000D01*
X156069693Y-77884069D01*
X156005250Y-77671629D01*
X155900600Y-77475843D01*
X155759765Y-77304235D01*
X155588157Y-77163400D01*
X155392371Y-77058750D01*
X155179931Y-76994307D01*
X155014365Y-76978000D01*
X154103635Y-76978000D01*
X153938069Y-76994307D01*
X153725629Y-77058750D01*
X153529843Y-77163400D01*
X153358235Y-77304235D01*
X153217400Y-77475843D01*
X153112750Y-77671629D01*
X153048307Y-77884069D01*
X153026547Y-78105000D01*
X151520500Y-78105000D01*
X151520500Y-75565000D01*
X153026547Y-75565000D01*
X153048307Y-75785931D01*
X153112750Y-75998371D01*
X153217400Y-76194157D01*
X153358235Y-76365765D01*
X153529843Y-76506600D01*
X153725629Y-76611250D01*
X153938069Y-76675693D01*
X154103635Y-76692000D01*
X155014365Y-76692000D01*
X155179931Y-76675693D01*
X155392371Y-76611250D01*
X155588157Y-76506600D01*
X155759765Y-76365765D01*
X155900600Y-76194157D01*
X156005250Y-75998371D01*
X156069693Y-75785931D01*
X156091453Y-75565000D01*
X168266547Y-75565000D01*
X168288307Y-75785931D01*
X168352750Y-75998371D01*
X168457400Y-76194157D01*
X168598235Y-76365765D01*
X168769843Y-76506600D01*
X168965629Y-76611250D01*
X169178069Y-76675693D01*
X169343635Y-76692000D01*
X170254365Y-76692000D01*
X170419931Y-76675693D01*
X170632371Y-76611250D01*
X170828157Y-76506600D01*
X170999765Y-76365765D01*
X171140600Y-76194157D01*
X171245250Y-75998371D01*
X171309693Y-75785931D01*
X171331453Y-75565000D01*
X171309693Y-75344069D01*
X171245250Y-75131629D01*
X171140600Y-74935843D01*
X170999765Y-74764235D01*
X170828157Y-74623400D01*
X170632371Y-74518750D01*
X170419931Y-74454307D01*
X170254365Y-74438000D01*
X169343635Y-74438000D01*
X169178069Y-74454307D01*
X168965629Y-74518750D01*
X168769843Y-74623400D01*
X168598235Y-74764235D01*
X168457400Y-74935843D01*
X168352750Y-75131629D01*
X168288307Y-75344069D01*
X168266547Y-75565000D01*
X156091453Y-75565000D01*
X156069693Y-75344069D01*
X156005250Y-75131629D01*
X155900600Y-74935843D01*
X155759765Y-74764235D01*
X155588157Y-74623400D01*
X155392371Y-74518750D01*
X155179931Y-74454307D01*
X155014365Y-74438000D01*
X154103635Y-74438000D01*
X153938069Y-74454307D01*
X153725629Y-74518750D01*
X153529843Y-74623400D01*
X153358235Y-74764235D01*
X153217400Y-74935843D01*
X153112750Y-75131629D01*
X153048307Y-75344069D01*
X153026547Y-75565000D01*
X151520500Y-75565000D01*
X151520500Y-73025000D01*
X153026547Y-73025000D01*
X153048307Y-73245931D01*
X153112750Y-73458371D01*
X153217400Y-73654157D01*
X153358235Y-73825765D01*
X153529843Y-73966600D01*
X153725629Y-74071250D01*
X153938069Y-74135693D01*
X154103635Y-74152000D01*
X155014365Y-74152000D01*
X155179931Y-74135693D01*
X155392371Y-74071250D01*
X155588157Y-73966600D01*
X155759765Y-73825765D01*
X155900600Y-73654157D01*
X156005250Y-73458371D01*
X156069693Y-73245931D01*
X156091453Y-73025000D01*
X168266547Y-73025000D01*
X168288307Y-73245931D01*
X168352750Y-73458371D01*
X168457400Y-73654157D01*
X168598235Y-73825765D01*
X168769843Y-73966600D01*
X168965629Y-74071250D01*
X169178069Y-74135693D01*
X169343635Y-74152000D01*
X170254365Y-74152000D01*
X170419931Y-74135693D01*
X170632371Y-74071250D01*
X170828157Y-73966600D01*
X170863369Y-73937702D01*
X172795903Y-73937702D01*
X172867486Y-74181671D01*
X173122996Y-74302571D01*
X173397184Y-74371300D01*
X173679512Y-74385217D01*
X173959130Y-74343787D01*
X174225292Y-74248603D01*
X174350514Y-74181671D01*
X174422097Y-73937702D01*
X173609000Y-73124605D01*
X172795903Y-73937702D01*
X170863369Y-73937702D01*
X170999765Y-73825765D01*
X171140600Y-73654157D01*
X171245250Y-73458371D01*
X171309693Y-73245931D01*
X171331453Y-73025000D01*
X171330519Y-73015512D01*
X172168783Y-73015512D01*
X172210213Y-73295130D01*
X172305397Y-73561292D01*
X172372329Y-73686514D01*
X172616298Y-73758097D01*
X173429395Y-72945000D01*
X173788605Y-72945000D01*
X174601702Y-73758097D01*
X174845671Y-73686514D01*
X174966571Y-73431004D01*
X175035300Y-73156816D01*
X175049217Y-72874488D01*
X175007787Y-72594870D01*
X174912603Y-72328708D01*
X174845671Y-72203486D01*
X174601702Y-72131903D01*
X173788605Y-72945000D01*
X173429395Y-72945000D01*
X172616298Y-72131903D01*
X172372329Y-72203486D01*
X172251429Y-72458996D01*
X172182700Y-72733184D01*
X172168783Y-73015512D01*
X171330519Y-73015512D01*
X171309693Y-72804069D01*
X171245250Y-72591629D01*
X171140600Y-72395843D01*
X170999765Y-72224235D01*
X170828157Y-72083400D01*
X170632371Y-71978750D01*
X170545171Y-71952298D01*
X172795903Y-71952298D01*
X173609000Y-72765395D01*
X174422097Y-71952298D01*
X174350514Y-71708329D01*
X174095004Y-71587429D01*
X173820816Y-71518700D01*
X173538488Y-71504783D01*
X173258870Y-71546213D01*
X172992708Y-71641397D01*
X172867486Y-71708329D01*
X172795903Y-71952298D01*
X170545171Y-71952298D01*
X170419931Y-71914307D01*
X170254365Y-71898000D01*
X169343635Y-71898000D01*
X169178069Y-71914307D01*
X168965629Y-71978750D01*
X168769843Y-72083400D01*
X168598235Y-72224235D01*
X168457400Y-72395843D01*
X168352750Y-72591629D01*
X168288307Y-72804069D01*
X168266547Y-73025000D01*
X156091453Y-73025000D01*
X156069693Y-72804069D01*
X156005250Y-72591629D01*
X155900600Y-72395843D01*
X155759765Y-72224235D01*
X155588157Y-72083400D01*
X155392371Y-71978750D01*
X155179931Y-71914307D01*
X155014365Y-71898000D01*
X154103635Y-71898000D01*
X153938069Y-71914307D01*
X153725629Y-71978750D01*
X153529843Y-72083400D01*
X153358235Y-72224235D01*
X153217400Y-72395843D01*
X153112750Y-72591629D01*
X153048307Y-72804069D01*
X153026547Y-73025000D01*
X151520500Y-73025000D01*
X151520500Y-70485000D01*
X153026547Y-70485000D01*
X153048307Y-70705931D01*
X153112750Y-70918371D01*
X153217400Y-71114157D01*
X153358235Y-71285765D01*
X153529843Y-71426600D01*
X153725629Y-71531250D01*
X153938069Y-71595693D01*
X154103635Y-71612000D01*
X155014365Y-71612000D01*
X155179931Y-71595693D01*
X155392371Y-71531250D01*
X155588157Y-71426600D01*
X155759765Y-71285765D01*
X155900600Y-71114157D01*
X156005250Y-70918371D01*
X156069693Y-70705931D01*
X156091453Y-70485000D01*
X168266547Y-70485000D01*
X168288307Y-70705931D01*
X168352750Y-70918371D01*
X168457400Y-71114157D01*
X168598235Y-71285765D01*
X168769843Y-71426600D01*
X168965629Y-71531250D01*
X169178069Y-71595693D01*
X169343635Y-71612000D01*
X170254365Y-71612000D01*
X170419931Y-71595693D01*
X170632371Y-71531250D01*
X170828157Y-71426600D01*
X170999765Y-71285765D01*
X171140600Y-71114157D01*
X171245250Y-70918371D01*
X171309693Y-70705931D01*
X171331453Y-70485000D01*
X171309693Y-70264069D01*
X171245250Y-70051629D01*
X171140600Y-69855843D01*
X170999765Y-69684235D01*
X170828157Y-69543400D01*
X170632371Y-69438750D01*
X170419931Y-69374307D01*
X170254365Y-69358000D01*
X169343635Y-69358000D01*
X169178069Y-69374307D01*
X168965629Y-69438750D01*
X168769843Y-69543400D01*
X168598235Y-69684235D01*
X168457400Y-69855843D01*
X168352750Y-70051629D01*
X168288307Y-70264069D01*
X168266547Y-70485000D01*
X156091453Y-70485000D01*
X156069693Y-70264069D01*
X156005250Y-70051629D01*
X155900600Y-69855843D01*
X155759765Y-69684235D01*
X155588157Y-69543400D01*
X155392371Y-69438750D01*
X155179931Y-69374307D01*
X155014365Y-69358000D01*
X154103635Y-69358000D01*
X153938069Y-69374307D01*
X153725629Y-69438750D01*
X153529843Y-69543400D01*
X153358235Y-69684235D01*
X153217400Y-69855843D01*
X153112750Y-70051629D01*
X153048307Y-70264069D01*
X153026547Y-70485000D01*
X151520500Y-70485000D01*
X151520500Y-67970412D01*
X151523003Y-67945000D01*
X151520500Y-67919587D01*
X151520500Y-67145000D01*
X153030418Y-67145000D01*
X153030418Y-68745000D01*
X153036732Y-68809103D01*
X153055430Y-68870743D01*
X153085794Y-68927550D01*
X153126657Y-68977343D01*
X153176450Y-69018206D01*
X153233257Y-69048570D01*
X153294897Y-69067268D01*
X153359000Y-69073582D01*
X155759000Y-69073582D01*
X155823103Y-69067268D01*
X155884743Y-69048570D01*
X155941550Y-69018206D01*
X155991343Y-68977343D01*
X156032206Y-68927550D01*
X156062570Y-68870743D01*
X156081268Y-68809103D01*
X156087582Y-68745000D01*
X156087582Y-67945000D01*
X168266547Y-67945000D01*
X168288307Y-68165931D01*
X168352750Y-68378371D01*
X168457400Y-68574157D01*
X168598235Y-68745765D01*
X168769843Y-68886600D01*
X168965629Y-68991250D01*
X169178069Y-69055693D01*
X169343635Y-69072000D01*
X170254365Y-69072000D01*
X170419931Y-69055693D01*
X170632371Y-68991250D01*
X170828157Y-68886600D01*
X170999765Y-68745765D01*
X171140600Y-68574157D01*
X171245250Y-68378371D01*
X171309693Y-68165931D01*
X171331453Y-67945000D01*
X171320521Y-67834000D01*
X172482000Y-67834000D01*
X172482000Y-68056000D01*
X172525310Y-68273734D01*
X172610266Y-68478835D01*
X172733602Y-68663421D01*
X172890579Y-68820398D01*
X173075165Y-68943734D01*
X173280266Y-69028690D01*
X173498000Y-69072000D01*
X173720000Y-69072000D01*
X173937734Y-69028690D01*
X174142835Y-68943734D01*
X174327421Y-68820398D01*
X174484398Y-68663421D01*
X174607734Y-68478835D01*
X174692690Y-68273734D01*
X174736000Y-68056000D01*
X174736000Y-67834000D01*
X174692690Y-67616266D01*
X174607734Y-67411165D01*
X174484398Y-67226579D01*
X174327421Y-67069602D01*
X174142835Y-66946266D01*
X173937734Y-66861310D01*
X173720000Y-66818000D01*
X173498000Y-66818000D01*
X173280266Y-66861310D01*
X173075165Y-66946266D01*
X172890579Y-67069602D01*
X172733602Y-67226579D01*
X172610266Y-67411165D01*
X172525310Y-67616266D01*
X172482000Y-67834000D01*
X171320521Y-67834000D01*
X171309693Y-67724069D01*
X171245250Y-67511629D01*
X171140600Y-67315843D01*
X170999765Y-67144235D01*
X170828157Y-67003400D01*
X170632371Y-66898750D01*
X170419931Y-66834307D01*
X170254365Y-66818000D01*
X169343635Y-66818000D01*
X169178069Y-66834307D01*
X168965629Y-66898750D01*
X168769843Y-67003400D01*
X168598235Y-67144235D01*
X168457400Y-67315843D01*
X168352750Y-67511629D01*
X168288307Y-67724069D01*
X168266547Y-67945000D01*
X156087582Y-67945000D01*
X156087582Y-67145000D01*
X156081268Y-67080897D01*
X156062570Y-67019257D01*
X156032206Y-66962450D01*
X155991343Y-66912657D01*
X155941550Y-66871794D01*
X155884743Y-66841430D01*
X155823103Y-66822732D01*
X155759000Y-66816418D01*
X153359000Y-66816418D01*
X153294897Y-66822732D01*
X153233257Y-66841430D01*
X153176450Y-66871794D01*
X153126657Y-66912657D01*
X153085794Y-66962450D01*
X153055430Y-67019257D01*
X153036732Y-67080897D01*
X153030418Y-67145000D01*
X151520500Y-67145000D01*
X151520500Y-66381355D01*
X151626558Y-66275298D01*
X151693889Y-66261905D01*
X151807996Y-66214640D01*
X151910689Y-66146023D01*
X151998023Y-66058689D01*
X152066640Y-65955996D01*
X152113905Y-65841889D01*
X152138000Y-65720754D01*
X152138000Y-65597246D01*
X152113905Y-65476111D01*
X152066640Y-65362004D01*
X151998023Y-65259311D01*
X151910689Y-65171977D01*
X151807996Y-65103360D01*
X151693889Y-65056095D01*
X151572754Y-65032000D01*
X151449246Y-65032000D01*
X151328111Y-65056095D01*
X151214004Y-65103360D01*
X151111311Y-65171977D01*
X151023977Y-65259311D01*
X150955360Y-65362004D01*
X150908095Y-65476111D01*
X150894702Y-65543442D01*
X150655043Y-65783102D01*
X150635303Y-65799302D01*
X150570634Y-65878102D01*
X150544949Y-65926156D01*
X150522580Y-65968004D01*
X150492989Y-66065553D01*
X150482997Y-66167000D01*
X150485501Y-66192422D01*
X150485500Y-67427500D01*
X148579500Y-67427500D01*
X148572734Y-67411165D01*
X148449398Y-67226579D01*
X148292421Y-67069602D01*
X148107835Y-66946266D01*
X147902734Y-66861310D01*
X147685000Y-66818000D01*
X147463000Y-66818000D01*
X147245266Y-66861310D01*
X147040165Y-66946266D01*
X146855579Y-67069602D01*
X146698602Y-67226579D01*
X146575266Y-67411165D01*
X146490310Y-67616266D01*
X146447000Y-67834000D01*
X146447000Y-68056000D01*
X146490310Y-68273734D01*
X146575266Y-68478835D01*
X146698602Y-68663421D01*
X146855579Y-68820398D01*
X147040165Y-68943734D01*
X147245266Y-69028690D01*
X147463000Y-69072000D01*
X147685000Y-69072000D01*
X147902734Y-69028690D01*
X148107835Y-68943734D01*
X148292421Y-68820398D01*
X148449398Y-68663421D01*
X148572734Y-68478835D01*
X148579500Y-68462500D01*
X150485500Y-68462500D01*
X150485500Y-71249142D01*
X150410996Y-71199360D01*
X150296889Y-71152095D01*
X150175754Y-71128000D01*
X150052246Y-71128000D01*
X149931111Y-71152095D01*
X149817004Y-71199360D01*
X149714311Y-71267977D01*
X149626977Y-71355311D01*
X149558360Y-71458004D01*
X149511095Y-71572111D01*
X149487000Y-71693246D01*
X149487000Y-71816754D01*
X149511095Y-71937889D01*
X149558360Y-72051996D01*
X149626977Y-72154689D01*
X149714311Y-72242023D01*
X149817004Y-72310640D01*
X149931111Y-72357905D01*
X149985011Y-72368626D01*
X149985011Y-75685787D01*
X149852000Y-75552777D01*
X149852000Y-75503246D01*
X149827905Y-75382111D01*
X149780640Y-75268004D01*
X149712023Y-75165311D01*
X149624689Y-75077977D01*
X149521996Y-75009360D01*
X149407889Y-74962095D01*
X149286754Y-74938000D01*
X149163246Y-74938000D01*
X149042111Y-74962095D01*
X148928004Y-75009360D01*
X148825311Y-75077977D01*
X148737977Y-75165311D01*
X148669360Y-75268004D01*
X148622095Y-75382111D01*
X148598000Y-75503246D01*
X148598000Y-75626754D01*
X148622095Y-75747889D01*
X148669360Y-75861996D01*
X148737977Y-75964689D01*
X148825311Y-76052023D01*
X148928004Y-76120640D01*
X149042111Y-76167905D01*
X149163246Y-76192000D01*
X149212777Y-76192000D01*
X149535001Y-76514225D01*
X149535001Y-78283777D01*
X149344000Y-78092777D01*
X149344000Y-78043246D01*
X149319905Y-77922111D01*
X149272640Y-77808004D01*
X149204023Y-77705311D01*
X149116689Y-77617977D01*
X149013996Y-77549360D01*
X148899889Y-77502095D01*
X148778754Y-77478000D01*
X148655246Y-77478000D01*
X148534111Y-77502095D01*
X148420004Y-77549360D01*
X148317311Y-77617977D01*
X148229977Y-77705311D01*
X148161360Y-77808004D01*
X148114095Y-77922111D01*
X148090000Y-78043246D01*
X148090000Y-78166754D01*
X148114095Y-78287889D01*
X148161360Y-78401996D01*
X148229977Y-78504689D01*
X148317311Y-78592023D01*
X148420004Y-78660640D01*
X148534111Y-78707905D01*
X148655246Y-78732000D01*
X148704777Y-78732000D01*
X149027000Y-79054224D01*
X149027000Y-80823776D01*
X148836000Y-80632776D01*
X148836000Y-80583246D01*
X148811905Y-80462111D01*
X148764640Y-80348004D01*
X148696023Y-80245311D01*
X148608689Y-80157977D01*
X148505996Y-80089360D01*
X148391889Y-80042095D01*
X148270754Y-80018000D01*
X148147246Y-80018000D01*
X148026111Y-80042095D01*
X147912004Y-80089360D01*
X147809311Y-80157977D01*
X147721977Y-80245311D01*
X147653360Y-80348004D01*
X147606095Y-80462111D01*
X147582000Y-80583246D01*
X147582000Y-80706754D01*
X147606095Y-80827889D01*
X147653360Y-80941996D01*
X147721977Y-81044689D01*
X147809311Y-81132023D01*
X147912004Y-81200640D01*
X148026111Y-81247905D01*
X148147246Y-81272000D01*
X148196776Y-81272000D01*
X148461010Y-81536235D01*
X148461010Y-85845786D01*
X148328000Y-85712777D01*
X148328000Y-85663246D01*
X148303905Y-85542111D01*
X148256640Y-85428004D01*
X148188023Y-85325311D01*
X148100689Y-85237977D01*
X147997996Y-85169360D01*
X147883889Y-85122095D01*
X147762754Y-85098000D01*
X147639246Y-85098000D01*
X147518111Y-85122095D01*
X147404004Y-85169360D01*
X147301311Y-85237977D01*
X147213977Y-85325311D01*
X147145360Y-85428004D01*
X147098095Y-85542111D01*
X147074000Y-85663246D01*
X147074000Y-85786754D01*
X147098095Y-85907889D01*
X147145360Y-86021996D01*
X147213977Y-86124689D01*
X147301311Y-86212023D01*
X147404004Y-86280640D01*
X147518111Y-86327905D01*
X147639246Y-86352000D01*
X147688777Y-86352000D01*
X148011000Y-86674224D01*
X148011000Y-90983777D01*
X147528323Y-90501100D01*
X147514159Y-90483841D01*
X147445333Y-90427357D01*
X147366810Y-90385386D01*
X147281607Y-90359540D01*
X147215205Y-90353000D01*
X147193000Y-90350813D01*
X147170795Y-90353000D01*
X145200293Y-90353000D01*
X145105600Y-90175843D01*
X144964765Y-90004235D01*
X144793157Y-89863400D01*
X144597371Y-89758750D01*
X144384931Y-89694307D01*
X144219365Y-89678000D01*
X143308635Y-89678000D01*
X143143069Y-89694307D01*
X142930629Y-89758750D01*
X142734843Y-89863400D01*
X142563235Y-90004235D01*
X142422400Y-90175843D01*
X142317750Y-90371629D01*
X142253307Y-90584069D01*
X142231547Y-90805000D01*
X142253307Y-91025931D01*
X142317750Y-91238371D01*
X142422400Y-91434157D01*
X142563235Y-91605765D01*
X142734843Y-91746600D01*
X142930629Y-91851250D01*
X143143069Y-91915693D01*
X143308635Y-91932000D01*
X144219365Y-91932000D01*
X144384931Y-91915693D01*
X144597371Y-91851250D01*
X144793157Y-91746600D01*
X144964765Y-91605765D01*
X145105600Y-91434157D01*
X145200293Y-91257000D01*
X147005777Y-91257000D01*
X147503001Y-91754225D01*
X147503001Y-93523777D01*
X147020323Y-93041100D01*
X147006159Y-93023841D01*
X146937333Y-92967357D01*
X146858810Y-92925386D01*
X146773607Y-92899540D01*
X146707205Y-92893000D01*
X146685000Y-92890813D01*
X146662795Y-92893000D01*
X145200293Y-92893000D01*
X145105600Y-92715843D01*
X144964765Y-92544235D01*
X144793157Y-92403400D01*
X144597371Y-92298750D01*
X144384931Y-92234307D01*
X144219365Y-92218000D01*
X143308635Y-92218000D01*
X143143069Y-92234307D01*
X142930629Y-92298750D01*
X142734843Y-92403400D01*
X142563235Y-92544235D01*
X142422400Y-92715843D01*
X142317750Y-92911629D01*
X142253307Y-93124069D01*
X142231547Y-93345000D01*
X142253307Y-93565931D01*
X142317750Y-93778371D01*
X142422400Y-93974157D01*
X142563235Y-94145765D01*
X142734843Y-94286600D01*
X142930629Y-94391250D01*
X143143069Y-94455693D01*
X143308635Y-94472000D01*
X144219365Y-94472000D01*
X144384931Y-94455693D01*
X144597371Y-94391250D01*
X144793157Y-94286600D01*
X144964765Y-94145765D01*
X145105600Y-93974157D01*
X145200293Y-93797000D01*
X146497777Y-93797000D01*
X146995001Y-94294225D01*
X146995001Y-96063777D01*
X146512323Y-95581100D01*
X146498159Y-95563841D01*
X146429333Y-95507357D01*
X146350810Y-95465386D01*
X146265607Y-95439540D01*
X146199205Y-95433000D01*
X146177000Y-95430813D01*
X146154795Y-95433000D01*
X145200293Y-95433000D01*
X145105600Y-95255843D01*
X144964765Y-95084235D01*
X144793157Y-94943400D01*
X144597371Y-94838750D01*
X144384931Y-94774307D01*
X144219365Y-94758000D01*
X143308635Y-94758000D01*
X143143069Y-94774307D01*
X142930629Y-94838750D01*
X142734843Y-94943400D01*
X142563235Y-95084235D01*
X142422400Y-95255843D01*
X142317750Y-95451629D01*
X142253307Y-95664069D01*
X142231547Y-95885000D01*
X142253307Y-96105931D01*
X142317750Y-96318371D01*
X142422400Y-96514157D01*
X142563235Y-96685765D01*
X142734843Y-96826600D01*
X142930629Y-96931250D01*
X143143069Y-96995693D01*
X143308635Y-97012000D01*
X144219365Y-97012000D01*
X144384931Y-96995693D01*
X144597371Y-96931250D01*
X144793157Y-96826600D01*
X144964765Y-96685765D01*
X145105600Y-96514157D01*
X145200293Y-96337000D01*
X145989777Y-96337000D01*
X146487001Y-96834225D01*
X146487001Y-98603777D01*
X146004323Y-98121100D01*
X145990159Y-98103841D01*
X145921333Y-98047357D01*
X145842810Y-98005386D01*
X145757607Y-97979540D01*
X145691205Y-97973000D01*
X145669000Y-97970813D01*
X145646795Y-97973000D01*
X145200293Y-97973000D01*
X145105600Y-97795843D01*
X144964765Y-97624235D01*
X144793157Y-97483400D01*
X144597371Y-97378750D01*
X144384931Y-97314307D01*
X144219365Y-97298000D01*
X143308635Y-97298000D01*
X143143069Y-97314307D01*
X142930629Y-97378750D01*
X142734843Y-97483400D01*
X142563235Y-97624235D01*
X142422400Y-97795843D01*
X142317750Y-97991629D01*
X142253307Y-98204069D01*
X142231547Y-98425000D01*
X142253307Y-98645931D01*
X142317750Y-98858371D01*
X142422400Y-99054157D01*
X142563235Y-99225765D01*
X142734843Y-99366600D01*
X142930629Y-99471250D01*
X143143069Y-99535693D01*
X143308635Y-99552000D01*
X144219365Y-99552000D01*
X144384931Y-99535693D01*
X144597371Y-99471250D01*
X144793157Y-99366600D01*
X144964765Y-99225765D01*
X145105600Y-99054157D01*
X145200293Y-98877000D01*
X145481777Y-98877000D01*
X145979001Y-99374225D01*
X145979001Y-101143777D01*
X145496323Y-100661100D01*
X145482159Y-100643841D01*
X145413333Y-100587357D01*
X145334810Y-100545386D01*
X145249607Y-100519540D01*
X145201242Y-100514776D01*
X145105600Y-100335843D01*
X144964765Y-100164235D01*
X144793157Y-100023400D01*
X144597371Y-99918750D01*
X144384931Y-99854307D01*
X144219365Y-99838000D01*
X143308635Y-99838000D01*
X143143069Y-99854307D01*
X142930629Y-99918750D01*
X142734843Y-100023400D01*
X142563235Y-100164235D01*
X142422400Y-100335843D01*
X142317750Y-100531629D01*
X142253307Y-100744069D01*
X142231547Y-100965000D01*
X142253307Y-101185931D01*
X142317750Y-101398371D01*
X142422400Y-101594157D01*
X142563235Y-101765765D01*
X142734843Y-101906600D01*
X142930629Y-102011250D01*
X143143069Y-102075693D01*
X143308635Y-102092000D01*
X144219365Y-102092000D01*
X144384931Y-102075693D01*
X144597371Y-102011250D01*
X144793157Y-101906600D01*
X144964765Y-101765765D01*
X145105600Y-101594157D01*
X145121391Y-101564614D01*
X145471000Y-101914224D01*
X145471001Y-104587775D01*
X145227776Y-104831000D01*
X143405202Y-104831000D01*
X143382999Y-104828813D01*
X143360796Y-104831000D01*
X143360795Y-104831000D01*
X143294393Y-104837540D01*
X143209190Y-104863386D01*
X143130667Y-104905357D01*
X143061841Y-104961841D01*
X143047686Y-104979089D01*
X140655777Y-107371000D01*
X126641205Y-107371000D01*
X126619000Y-107368813D01*
X126530392Y-107377540D01*
X126445190Y-107403386D01*
X126366667Y-107445357D01*
X126297841Y-107501841D01*
X126283681Y-107519095D01*
X124074777Y-109728000D01*
X120408703Y-109728000D01*
X120408703Y-100125433D01*
X121367000Y-100125433D01*
X121367000Y-100534567D01*
X121446818Y-100935839D01*
X121603386Y-101313829D01*
X121830689Y-101654011D01*
X122119989Y-101943311D01*
X122460171Y-102170614D01*
X122838161Y-102327182D01*
X123239433Y-102407000D01*
X123648567Y-102407000D01*
X124049839Y-102327182D01*
X124427829Y-102170614D01*
X124768011Y-101943311D01*
X125057311Y-101654011D01*
X125284473Y-101314039D01*
X126732096Y-101314039D01*
X126749633Y-101396818D01*
X126860285Y-101656646D01*
X127019500Y-101889895D01*
X127221161Y-102087601D01*
X127457517Y-102242166D01*
X127719486Y-102347650D01*
X127997000Y-102400000D01*
X128397000Y-102400000D01*
X128397000Y-101092000D01*
X128651000Y-101092000D01*
X128651000Y-102400000D01*
X129051000Y-102400000D01*
X129328514Y-102347650D01*
X129590483Y-102242166D01*
X129826839Y-102087601D01*
X130028500Y-101889895D01*
X130187715Y-101656646D01*
X130298367Y-101396818D01*
X130315904Y-101314039D01*
X130193915Y-101092000D01*
X128651000Y-101092000D01*
X128397000Y-101092000D01*
X126854085Y-101092000D01*
X126732096Y-101314039D01*
X125284473Y-101314039D01*
X125284614Y-101313829D01*
X125441182Y-100935839D01*
X125504809Y-100615961D01*
X126732096Y-100615961D01*
X126854085Y-100838000D01*
X128397000Y-100838000D01*
X128397000Y-100818000D01*
X128651000Y-100818000D01*
X128651000Y-100838000D01*
X130193915Y-100838000D01*
X130315904Y-100615961D01*
X130298367Y-100533182D01*
X130187715Y-100273354D01*
X130028500Y-100040105D01*
X129826839Y-99842399D01*
X129590483Y-99687834D01*
X129328514Y-99582350D01*
X129103048Y-99539818D01*
X129144931Y-99535693D01*
X129357371Y-99471250D01*
X129553157Y-99366600D01*
X129724765Y-99225765D01*
X129865600Y-99054157D01*
X129960293Y-98877000D01*
X135953288Y-98877000D01*
X135988311Y-98912023D01*
X136091004Y-98980640D01*
X136205111Y-99027905D01*
X136326246Y-99052000D01*
X136449754Y-99052000D01*
X136570889Y-99027905D01*
X136684996Y-98980640D01*
X136787689Y-98912023D01*
X136875023Y-98824689D01*
X136943640Y-98721996D01*
X136990905Y-98607889D01*
X137015000Y-98486754D01*
X137015000Y-98363246D01*
X136990905Y-98242111D01*
X136943640Y-98128004D01*
X136875023Y-98025311D01*
X136787689Y-97937977D01*
X136684996Y-97869360D01*
X136570889Y-97822095D01*
X136449754Y-97798000D01*
X136326246Y-97798000D01*
X136205111Y-97822095D01*
X136091004Y-97869360D01*
X135988311Y-97937977D01*
X135953288Y-97973000D01*
X129960293Y-97973000D01*
X129865600Y-97795843D01*
X129724765Y-97624235D01*
X129553157Y-97483400D01*
X129357371Y-97378750D01*
X129144931Y-97314307D01*
X128979365Y-97298000D01*
X128068635Y-97298000D01*
X127903069Y-97314307D01*
X127690629Y-97378750D01*
X127494843Y-97483400D01*
X127323235Y-97624235D01*
X127182400Y-97795843D01*
X127077750Y-97991629D01*
X127013307Y-98204069D01*
X126991547Y-98425000D01*
X127013307Y-98645931D01*
X127077750Y-98858371D01*
X127182400Y-99054157D01*
X127323235Y-99225765D01*
X127494843Y-99366600D01*
X127690629Y-99471250D01*
X127903069Y-99535693D01*
X127944952Y-99539818D01*
X127719486Y-99582350D01*
X127457517Y-99687834D01*
X127221161Y-99842399D01*
X127019500Y-100040105D01*
X126860285Y-100273354D01*
X126749633Y-100533182D01*
X126732096Y-100615961D01*
X125504809Y-100615961D01*
X125521000Y-100534567D01*
X125521000Y-100125433D01*
X125441182Y-99724161D01*
X125284614Y-99346171D01*
X125057311Y-99005989D01*
X124768011Y-98716689D01*
X124427829Y-98489386D01*
X124049839Y-98332818D01*
X123648567Y-98253000D01*
X123239433Y-98253000D01*
X122838161Y-98332818D01*
X122460171Y-98489386D01*
X122119989Y-98716689D01*
X121830689Y-99005989D01*
X121603386Y-99346171D01*
X121446818Y-99724161D01*
X121367000Y-100125433D01*
X120408703Y-100125433D01*
X120408703Y-95885000D01*
X126991547Y-95885000D01*
X127013307Y-96105931D01*
X127077750Y-96318371D01*
X127182400Y-96514157D01*
X127323235Y-96685765D01*
X127494843Y-96826600D01*
X127690629Y-96931250D01*
X127903069Y-96995693D01*
X128068635Y-97012000D01*
X128979365Y-97012000D01*
X129144931Y-96995693D01*
X129357371Y-96931250D01*
X129553157Y-96826600D01*
X129724765Y-96685765D01*
X129865500Y-96514279D01*
X129865500Y-96518254D01*
X129889595Y-96639389D01*
X129936860Y-96753496D01*
X130005477Y-96856189D01*
X130092811Y-96943523D01*
X130195504Y-97012140D01*
X130309611Y-97059405D01*
X130430746Y-97083500D01*
X130480276Y-97083500D01*
X130855685Y-97458910D01*
X130869841Y-97476159D01*
X130938667Y-97532643D01*
X130979913Y-97554689D01*
X131017190Y-97574614D01*
X131102392Y-97600460D01*
X131190999Y-97609187D01*
X131213204Y-97607000D01*
X135953288Y-97607000D01*
X135988311Y-97642023D01*
X136091004Y-97710640D01*
X136205111Y-97757905D01*
X136326246Y-97782000D01*
X136449754Y-97782000D01*
X136570889Y-97757905D01*
X136684996Y-97710640D01*
X136787689Y-97642023D01*
X136875023Y-97554689D01*
X136943640Y-97451996D01*
X136990905Y-97337889D01*
X137015000Y-97216754D01*
X137015000Y-97093246D01*
X136990905Y-96972111D01*
X136943640Y-96858004D01*
X136875023Y-96755311D01*
X136787689Y-96667977D01*
X136684996Y-96599360D01*
X136570889Y-96552095D01*
X136449754Y-96528000D01*
X136326246Y-96528000D01*
X136205111Y-96552095D01*
X136091004Y-96599360D01*
X135988311Y-96667977D01*
X135953288Y-96703000D01*
X131378225Y-96703000D01*
X131119500Y-96444276D01*
X131119500Y-96394746D01*
X131095405Y-96273611D01*
X131048140Y-96159504D01*
X130979523Y-96056811D01*
X130892189Y-95969477D01*
X130789496Y-95900860D01*
X130675389Y-95853595D01*
X130554254Y-95829500D01*
X130430746Y-95829500D01*
X130309611Y-95853595D01*
X130195504Y-95900860D01*
X130092811Y-95969477D01*
X130043251Y-96019037D01*
X130056453Y-95885000D01*
X130034693Y-95664069D01*
X129970250Y-95451629D01*
X129865600Y-95255843D01*
X129724765Y-95084235D01*
X129553157Y-94943400D01*
X129357371Y-94838750D01*
X129144931Y-94774307D01*
X128979365Y-94758000D01*
X128068635Y-94758000D01*
X127903069Y-94774307D01*
X127690629Y-94838750D01*
X127494843Y-94943400D01*
X127323235Y-95084235D01*
X127182400Y-95255843D01*
X127077750Y-95451629D01*
X127013307Y-95664069D01*
X126991547Y-95885000D01*
X120408703Y-95885000D01*
X120408703Y-93345000D01*
X126991547Y-93345000D01*
X127013307Y-93565931D01*
X127077750Y-93778371D01*
X127182400Y-93974157D01*
X127323235Y-94145765D01*
X127494843Y-94286600D01*
X127690629Y-94391250D01*
X127903069Y-94455693D01*
X128068635Y-94472000D01*
X128979365Y-94472000D01*
X129144931Y-94455693D01*
X129357371Y-94391250D01*
X129553157Y-94286600D01*
X129724765Y-94145765D01*
X129865600Y-93974157D01*
X129895485Y-93918246D01*
X130437000Y-93918246D01*
X130437000Y-94041754D01*
X130461095Y-94162889D01*
X130508360Y-94276996D01*
X130576977Y-94379689D01*
X130664311Y-94467023D01*
X130767004Y-94535640D01*
X130881111Y-94582905D01*
X131002246Y-94607000D01*
X131051777Y-94607000D01*
X131363681Y-94918905D01*
X131377841Y-94936159D01*
X131446667Y-94992643D01*
X131487913Y-95014689D01*
X131525190Y-95034614D01*
X131610392Y-95060460D01*
X131699000Y-95069187D01*
X131721205Y-95067000D01*
X135953288Y-95067000D01*
X135988311Y-95102023D01*
X136091004Y-95170640D01*
X136205111Y-95217905D01*
X136326246Y-95242000D01*
X136449754Y-95242000D01*
X136570889Y-95217905D01*
X136684996Y-95170640D01*
X136787689Y-95102023D01*
X136875023Y-95014689D01*
X136943640Y-94911996D01*
X136990905Y-94797889D01*
X137015000Y-94676754D01*
X137015000Y-94553246D01*
X136990905Y-94432111D01*
X136943640Y-94318004D01*
X136875023Y-94215311D01*
X136787689Y-94127977D01*
X136684996Y-94059360D01*
X136570889Y-94012095D01*
X136449754Y-93988000D01*
X136326246Y-93988000D01*
X136205111Y-94012095D01*
X136091004Y-94059360D01*
X135988311Y-94127977D01*
X135953288Y-94163000D01*
X131886224Y-94163000D01*
X131691000Y-93967777D01*
X131691000Y-93918246D01*
X131666905Y-93797111D01*
X131619640Y-93683004D01*
X131551023Y-93580311D01*
X131463689Y-93492977D01*
X131360996Y-93424360D01*
X131246889Y-93377095D01*
X131125754Y-93353000D01*
X131002246Y-93353000D01*
X130881111Y-93377095D01*
X130767004Y-93424360D01*
X130664311Y-93492977D01*
X130576977Y-93580311D01*
X130508360Y-93683004D01*
X130461095Y-93797111D01*
X130437000Y-93918246D01*
X129895485Y-93918246D01*
X129970250Y-93778371D01*
X130034693Y-93565931D01*
X130056453Y-93345000D01*
X130034693Y-93124069D01*
X129970250Y-92911629D01*
X129865600Y-92715843D01*
X129724765Y-92544235D01*
X129553157Y-92403400D01*
X129357371Y-92298750D01*
X129144931Y-92234307D01*
X128979365Y-92218000D01*
X128068635Y-92218000D01*
X127903069Y-92234307D01*
X127690629Y-92298750D01*
X127494843Y-92403400D01*
X127323235Y-92544235D01*
X127182400Y-92715843D01*
X127077750Y-92911629D01*
X127013307Y-93124069D01*
X126991547Y-93345000D01*
X120408703Y-93345000D01*
X120408703Y-90805000D01*
X126991547Y-90805000D01*
X127013307Y-91025931D01*
X127077750Y-91238371D01*
X127182400Y-91434157D01*
X127323235Y-91605765D01*
X127494843Y-91746600D01*
X127690629Y-91851250D01*
X127903069Y-91915693D01*
X128068635Y-91932000D01*
X128979365Y-91932000D01*
X129144931Y-91915693D01*
X129357371Y-91851250D01*
X129553157Y-91746600D01*
X129724765Y-91605765D01*
X129865600Y-91434157D01*
X129970250Y-91238371D01*
X130004869Y-91124246D01*
X130691000Y-91124246D01*
X130691000Y-91247754D01*
X130715095Y-91368889D01*
X130762360Y-91482996D01*
X130830977Y-91585689D01*
X130918311Y-91673023D01*
X131021004Y-91741640D01*
X131135111Y-91788905D01*
X131256246Y-91813000D01*
X131305777Y-91813000D01*
X131871681Y-92378905D01*
X131885841Y-92396159D01*
X131954667Y-92452643D01*
X131995913Y-92474689D01*
X132033190Y-92494614D01*
X132118392Y-92520460D01*
X132207000Y-92529187D01*
X132229205Y-92527000D01*
X135953288Y-92527000D01*
X135988311Y-92562023D01*
X136091004Y-92630640D01*
X136205111Y-92677905D01*
X136326246Y-92702000D01*
X136449754Y-92702000D01*
X136570889Y-92677905D01*
X136684996Y-92630640D01*
X136787689Y-92562023D01*
X136875023Y-92474689D01*
X136943640Y-92371996D01*
X136990905Y-92257889D01*
X137015000Y-92136754D01*
X137015000Y-92013246D01*
X136990905Y-91892111D01*
X136943640Y-91778004D01*
X136875023Y-91675311D01*
X136787689Y-91587977D01*
X136684996Y-91519360D01*
X136570889Y-91472095D01*
X136449754Y-91448000D01*
X136326246Y-91448000D01*
X136205111Y-91472095D01*
X136091004Y-91519360D01*
X135988311Y-91587977D01*
X135953288Y-91623000D01*
X132394224Y-91623000D01*
X131945000Y-91173777D01*
X131945000Y-91124246D01*
X131920905Y-91003111D01*
X131873640Y-90889004D01*
X131805023Y-90786311D01*
X131717689Y-90698977D01*
X131614996Y-90630360D01*
X131500889Y-90583095D01*
X131379754Y-90559000D01*
X131256246Y-90559000D01*
X131135111Y-90583095D01*
X131021004Y-90630360D01*
X130918311Y-90698977D01*
X130830977Y-90786311D01*
X130762360Y-90889004D01*
X130715095Y-91003111D01*
X130691000Y-91124246D01*
X130004869Y-91124246D01*
X130034693Y-91025931D01*
X130056453Y-90805000D01*
X130034693Y-90584069D01*
X129970250Y-90371629D01*
X129865600Y-90175843D01*
X129724765Y-90004235D01*
X129553157Y-89863400D01*
X129357371Y-89758750D01*
X129144931Y-89694307D01*
X128979365Y-89678000D01*
X128068635Y-89678000D01*
X127903069Y-89694307D01*
X127690629Y-89758750D01*
X127494843Y-89863400D01*
X127323235Y-90004235D01*
X127182400Y-90175843D01*
X127077750Y-90371629D01*
X127013307Y-90584069D01*
X126991547Y-90805000D01*
X120408703Y-90805000D01*
X120408703Y-88265000D01*
X126991547Y-88265000D01*
X127013307Y-88485931D01*
X127077750Y-88698371D01*
X127182400Y-88894157D01*
X127323235Y-89065765D01*
X127494843Y-89206600D01*
X127690629Y-89311250D01*
X127903069Y-89375693D01*
X128068635Y-89392000D01*
X128979365Y-89392000D01*
X129144931Y-89375693D01*
X129357371Y-89311250D01*
X129553157Y-89206600D01*
X129724765Y-89065765D01*
X129865600Y-88894157D01*
X129970250Y-88698371D01*
X129985606Y-88647746D01*
X131262500Y-88647746D01*
X131262500Y-88771254D01*
X131286595Y-88892389D01*
X131333860Y-89006496D01*
X131402477Y-89109189D01*
X131489811Y-89196523D01*
X131592504Y-89265140D01*
X131706611Y-89312405D01*
X131827746Y-89336500D01*
X131877276Y-89336500D01*
X132379685Y-89838910D01*
X132393841Y-89856159D01*
X132462667Y-89912643D01*
X132541190Y-89954614D01*
X132606562Y-89974444D01*
X132626392Y-89980460D01*
X132714999Y-89989187D01*
X132737204Y-89987000D01*
X135953288Y-89987000D01*
X135988311Y-90022023D01*
X136091004Y-90090640D01*
X136205111Y-90137905D01*
X136326246Y-90162000D01*
X136449754Y-90162000D01*
X136570889Y-90137905D01*
X136684996Y-90090640D01*
X136787689Y-90022023D01*
X136875023Y-89934689D01*
X136943640Y-89831996D01*
X136990905Y-89717889D01*
X137015000Y-89596754D01*
X137015000Y-89473246D01*
X136990905Y-89352111D01*
X136943640Y-89238004D01*
X136875023Y-89135311D01*
X136787689Y-89047977D01*
X136684996Y-88979360D01*
X136570889Y-88932095D01*
X136449754Y-88908000D01*
X136326246Y-88908000D01*
X136205111Y-88932095D01*
X136091004Y-88979360D01*
X135988311Y-89047977D01*
X135953288Y-89083000D01*
X132902225Y-89083000D01*
X132516500Y-88697276D01*
X132516500Y-88647746D01*
X132492405Y-88526611D01*
X132445140Y-88412504D01*
X132376523Y-88309811D01*
X132331712Y-88265000D01*
X142231547Y-88265000D01*
X142253307Y-88485931D01*
X142317750Y-88698371D01*
X142422400Y-88894157D01*
X142563235Y-89065765D01*
X142734843Y-89206600D01*
X142930629Y-89311250D01*
X143143069Y-89375693D01*
X143308635Y-89392000D01*
X144219365Y-89392000D01*
X144384931Y-89375693D01*
X144597371Y-89311250D01*
X144793157Y-89206600D01*
X144964765Y-89065765D01*
X145105600Y-88894157D01*
X145210250Y-88698371D01*
X145274693Y-88485931D01*
X145296453Y-88265000D01*
X145274693Y-88044069D01*
X145210250Y-87831629D01*
X145105600Y-87635843D01*
X144964765Y-87464235D01*
X144793157Y-87323400D01*
X144597371Y-87218750D01*
X144384931Y-87154307D01*
X144219365Y-87138000D01*
X143308635Y-87138000D01*
X143143069Y-87154307D01*
X142930629Y-87218750D01*
X142734843Y-87323400D01*
X142563235Y-87464235D01*
X142422400Y-87635843D01*
X142317750Y-87831629D01*
X142253307Y-88044069D01*
X142231547Y-88265000D01*
X132331712Y-88265000D01*
X132289189Y-88222477D01*
X132186496Y-88153860D01*
X132072389Y-88106595D01*
X131951254Y-88082500D01*
X131827746Y-88082500D01*
X131706611Y-88106595D01*
X131592504Y-88153860D01*
X131489811Y-88222477D01*
X131402477Y-88309811D01*
X131333860Y-88412504D01*
X131286595Y-88526611D01*
X131262500Y-88647746D01*
X129985606Y-88647746D01*
X130034693Y-88485931D01*
X130056453Y-88265000D01*
X130034693Y-88044069D01*
X129970250Y-87831629D01*
X129865600Y-87635843D01*
X129724765Y-87464235D01*
X129553157Y-87323400D01*
X129357371Y-87218750D01*
X129144931Y-87154307D01*
X128979365Y-87138000D01*
X128068635Y-87138000D01*
X127903069Y-87154307D01*
X127690629Y-87218750D01*
X127494843Y-87323400D01*
X127323235Y-87464235D01*
X127182400Y-87635843D01*
X127077750Y-87831629D01*
X127013307Y-88044069D01*
X126991547Y-88265000D01*
X120408703Y-88265000D01*
X120408703Y-85725000D01*
X126991547Y-85725000D01*
X127013307Y-85945931D01*
X127077750Y-86158371D01*
X127182400Y-86354157D01*
X127323235Y-86525765D01*
X127494843Y-86666600D01*
X127690629Y-86771250D01*
X127903069Y-86835693D01*
X128068635Y-86852000D01*
X128979365Y-86852000D01*
X129144931Y-86835693D01*
X129357371Y-86771250D01*
X129553157Y-86666600D01*
X129724765Y-86525765D01*
X129865600Y-86354157D01*
X129963368Y-86171246D01*
X131834000Y-86171246D01*
X131834000Y-86294754D01*
X131858095Y-86415889D01*
X131905360Y-86529996D01*
X131973977Y-86632689D01*
X132061311Y-86720023D01*
X132164004Y-86788640D01*
X132278111Y-86835905D01*
X132399246Y-86860000D01*
X132448777Y-86860000D01*
X132887681Y-87298905D01*
X132901841Y-87316159D01*
X132970667Y-87372643D01*
X133011913Y-87394689D01*
X133049190Y-87414614D01*
X133134392Y-87440460D01*
X133223000Y-87449187D01*
X133245205Y-87447000D01*
X135953288Y-87447000D01*
X135988311Y-87482023D01*
X136091004Y-87550640D01*
X136205111Y-87597905D01*
X136326246Y-87622000D01*
X136449754Y-87622000D01*
X136570889Y-87597905D01*
X136684996Y-87550640D01*
X136787689Y-87482023D01*
X136875023Y-87394689D01*
X136943640Y-87291996D01*
X136990905Y-87177889D01*
X137015000Y-87056754D01*
X137015000Y-86933246D01*
X136990905Y-86812111D01*
X136943640Y-86698004D01*
X136875023Y-86595311D01*
X136787689Y-86507977D01*
X136684996Y-86439360D01*
X136570889Y-86392095D01*
X136449754Y-86368000D01*
X136326246Y-86368000D01*
X136205111Y-86392095D01*
X136091004Y-86439360D01*
X135988311Y-86507977D01*
X135953288Y-86543000D01*
X133410224Y-86543000D01*
X133088000Y-86220777D01*
X133088000Y-86171246D01*
X133063905Y-86050111D01*
X133016640Y-85936004D01*
X132948023Y-85833311D01*
X132860689Y-85745977D01*
X132829295Y-85725000D01*
X142231547Y-85725000D01*
X142253307Y-85945931D01*
X142317750Y-86158371D01*
X142422400Y-86354157D01*
X142563235Y-86525765D01*
X142734843Y-86666600D01*
X142930629Y-86771250D01*
X143143069Y-86835693D01*
X143308635Y-86852000D01*
X144219365Y-86852000D01*
X144384931Y-86835693D01*
X144597371Y-86771250D01*
X144793157Y-86666600D01*
X144964765Y-86525765D01*
X145105600Y-86354157D01*
X145210250Y-86158371D01*
X145274693Y-85945931D01*
X145296453Y-85725000D01*
X145274693Y-85504069D01*
X145210250Y-85291629D01*
X145105600Y-85095843D01*
X144964765Y-84924235D01*
X144793157Y-84783400D01*
X144597371Y-84678750D01*
X144384931Y-84614307D01*
X144219365Y-84598000D01*
X143308635Y-84598000D01*
X143143069Y-84614307D01*
X142930629Y-84678750D01*
X142734843Y-84783400D01*
X142563235Y-84924235D01*
X142422400Y-85095843D01*
X142317750Y-85291629D01*
X142253307Y-85504069D01*
X142231547Y-85725000D01*
X132829295Y-85725000D01*
X132757996Y-85677360D01*
X132643889Y-85630095D01*
X132522754Y-85606000D01*
X132399246Y-85606000D01*
X132278111Y-85630095D01*
X132164004Y-85677360D01*
X132061311Y-85745977D01*
X131973977Y-85833311D01*
X131905360Y-85936004D01*
X131858095Y-86050111D01*
X131834000Y-86171246D01*
X129963368Y-86171246D01*
X129970250Y-86158371D01*
X130034693Y-85945931D01*
X130056453Y-85725000D01*
X130034693Y-85504069D01*
X129970250Y-85291629D01*
X129865600Y-85095843D01*
X129724765Y-84924235D01*
X129553157Y-84783400D01*
X129357371Y-84678750D01*
X129144931Y-84614307D01*
X128979365Y-84598000D01*
X128068635Y-84598000D01*
X127903069Y-84614307D01*
X127690629Y-84678750D01*
X127494843Y-84783400D01*
X127323235Y-84924235D01*
X127182400Y-85095843D01*
X127077750Y-85291629D01*
X127013307Y-85504069D01*
X126991547Y-85725000D01*
X120408703Y-85725000D01*
X120408703Y-83185000D01*
X126991547Y-83185000D01*
X127013307Y-83405931D01*
X127077750Y-83618371D01*
X127182400Y-83814157D01*
X127323235Y-83985765D01*
X127494843Y-84126600D01*
X127690629Y-84231250D01*
X127903069Y-84295693D01*
X128068635Y-84312000D01*
X128979365Y-84312000D01*
X129144931Y-84295693D01*
X129357371Y-84231250D01*
X129553157Y-84126600D01*
X129724765Y-83985765D01*
X129865600Y-83814157D01*
X129929426Y-83694746D01*
X132405500Y-83694746D01*
X132405500Y-83818254D01*
X132429595Y-83939389D01*
X132476860Y-84053496D01*
X132545477Y-84156189D01*
X132632811Y-84243523D01*
X132735504Y-84312140D01*
X132849611Y-84359405D01*
X132970746Y-84383500D01*
X133020276Y-84383500D01*
X133395685Y-84758910D01*
X133409841Y-84776159D01*
X133478667Y-84832643D01*
X133519913Y-84854689D01*
X133557190Y-84874614D01*
X133642392Y-84900460D01*
X133730999Y-84909187D01*
X133753204Y-84907000D01*
X135953288Y-84907000D01*
X135988311Y-84942023D01*
X136091004Y-85010640D01*
X136205111Y-85057905D01*
X136326246Y-85082000D01*
X136449754Y-85082000D01*
X136570889Y-85057905D01*
X136684996Y-85010640D01*
X136787689Y-84942023D01*
X136875023Y-84854689D01*
X136943640Y-84751996D01*
X136990905Y-84637889D01*
X137015000Y-84516754D01*
X137015000Y-84393246D01*
X136990905Y-84272111D01*
X136943640Y-84158004D01*
X136875023Y-84055311D01*
X136787689Y-83967977D01*
X136684996Y-83899360D01*
X136570889Y-83852095D01*
X136449754Y-83828000D01*
X136326246Y-83828000D01*
X136205111Y-83852095D01*
X136091004Y-83899360D01*
X135988311Y-83967977D01*
X135953288Y-84003000D01*
X133918225Y-84003000D01*
X133659500Y-83744276D01*
X133659500Y-83694746D01*
X133635405Y-83573611D01*
X133588140Y-83459504D01*
X133519523Y-83356811D01*
X133432189Y-83269477D01*
X133329496Y-83200860D01*
X133291207Y-83185000D01*
X142231547Y-83185000D01*
X142253307Y-83405931D01*
X142317750Y-83618371D01*
X142422400Y-83814157D01*
X142563235Y-83985765D01*
X142734843Y-84126600D01*
X142930629Y-84231250D01*
X143143069Y-84295693D01*
X143308635Y-84312000D01*
X144219365Y-84312000D01*
X144384931Y-84295693D01*
X144597371Y-84231250D01*
X144793157Y-84126600D01*
X144964765Y-83985765D01*
X145105600Y-83814157D01*
X145210250Y-83618371D01*
X145274693Y-83405931D01*
X145296453Y-83185000D01*
X145274693Y-82964069D01*
X145210250Y-82751629D01*
X145105600Y-82555843D01*
X144964765Y-82384235D01*
X144793157Y-82243400D01*
X144597371Y-82138750D01*
X144384931Y-82074307D01*
X144219365Y-82058000D01*
X143308635Y-82058000D01*
X143143069Y-82074307D01*
X142930629Y-82138750D01*
X142734843Y-82243400D01*
X142563235Y-82384235D01*
X142422400Y-82555843D01*
X142317750Y-82751629D01*
X142253307Y-82964069D01*
X142231547Y-83185000D01*
X133291207Y-83185000D01*
X133215389Y-83153595D01*
X133094254Y-83129500D01*
X132970746Y-83129500D01*
X132849611Y-83153595D01*
X132735504Y-83200860D01*
X132632811Y-83269477D01*
X132545477Y-83356811D01*
X132476860Y-83459504D01*
X132429595Y-83573611D01*
X132405500Y-83694746D01*
X129929426Y-83694746D01*
X129970250Y-83618371D01*
X130034693Y-83405931D01*
X130056453Y-83185000D01*
X130034693Y-82964069D01*
X129970250Y-82751629D01*
X129865600Y-82555843D01*
X129724765Y-82384235D01*
X129553157Y-82243400D01*
X129357371Y-82138750D01*
X129144931Y-82074307D01*
X128979365Y-82058000D01*
X128068635Y-82058000D01*
X127903069Y-82074307D01*
X127690629Y-82138750D01*
X127494843Y-82243400D01*
X127323235Y-82384235D01*
X127182400Y-82555843D01*
X127077750Y-82751629D01*
X127013307Y-82964069D01*
X126991547Y-83185000D01*
X120408703Y-83185000D01*
X120408703Y-80645000D01*
X126991547Y-80645000D01*
X127013307Y-80865931D01*
X127077750Y-81078371D01*
X127182400Y-81274157D01*
X127323235Y-81445765D01*
X127494843Y-81586600D01*
X127690629Y-81691250D01*
X127903069Y-81755693D01*
X128068635Y-81772000D01*
X128979365Y-81772000D01*
X129144931Y-81755693D01*
X129357371Y-81691250D01*
X129553157Y-81586600D01*
X129724765Y-81445765D01*
X129865600Y-81274157D01*
X129895485Y-81218246D01*
X132977000Y-81218246D01*
X132977000Y-81341754D01*
X133001095Y-81462889D01*
X133048360Y-81576996D01*
X133116977Y-81679689D01*
X133204311Y-81767023D01*
X133307004Y-81835640D01*
X133421111Y-81882905D01*
X133542246Y-81907000D01*
X133591777Y-81907000D01*
X133903681Y-82218905D01*
X133917841Y-82236159D01*
X133986667Y-82292643D01*
X134027913Y-82314689D01*
X134065190Y-82334614D01*
X134150392Y-82360460D01*
X134239000Y-82369187D01*
X134261205Y-82367000D01*
X135953288Y-82367000D01*
X135988311Y-82402023D01*
X136091004Y-82470640D01*
X136205111Y-82517905D01*
X136326246Y-82542000D01*
X136449754Y-82542000D01*
X136570889Y-82517905D01*
X136684996Y-82470640D01*
X136787689Y-82402023D01*
X136875023Y-82314689D01*
X136943640Y-82211996D01*
X136990905Y-82097889D01*
X137015000Y-81976754D01*
X137015000Y-81853246D01*
X136990905Y-81732111D01*
X136943640Y-81618004D01*
X136875023Y-81515311D01*
X136787689Y-81427977D01*
X136684996Y-81359360D01*
X136570889Y-81312095D01*
X136449754Y-81288000D01*
X136326246Y-81288000D01*
X136205111Y-81312095D01*
X136091004Y-81359360D01*
X135988311Y-81427977D01*
X135953288Y-81463000D01*
X134426224Y-81463000D01*
X134231000Y-81267777D01*
X134231000Y-81218246D01*
X134206905Y-81097111D01*
X134159640Y-80983004D01*
X134091023Y-80880311D01*
X134003689Y-80792977D01*
X133900996Y-80724360D01*
X133786889Y-80677095D01*
X133665754Y-80653000D01*
X133542246Y-80653000D01*
X133421111Y-80677095D01*
X133307004Y-80724360D01*
X133204311Y-80792977D01*
X133116977Y-80880311D01*
X133048360Y-80983004D01*
X133001095Y-81097111D01*
X132977000Y-81218246D01*
X129895485Y-81218246D01*
X129970250Y-81078371D01*
X130034693Y-80865931D01*
X130056453Y-80645000D01*
X142231547Y-80645000D01*
X142253307Y-80865931D01*
X142317750Y-81078371D01*
X142422400Y-81274157D01*
X142563235Y-81445765D01*
X142734843Y-81586600D01*
X142930629Y-81691250D01*
X143143069Y-81755693D01*
X143308635Y-81772000D01*
X144219365Y-81772000D01*
X144384931Y-81755693D01*
X144597371Y-81691250D01*
X144793157Y-81586600D01*
X144964765Y-81445765D01*
X145105600Y-81274157D01*
X145210250Y-81078371D01*
X145274693Y-80865931D01*
X145296453Y-80645000D01*
X145274693Y-80424069D01*
X145210250Y-80211629D01*
X145105600Y-80015843D01*
X144964765Y-79844235D01*
X144793157Y-79703400D01*
X144597371Y-79598750D01*
X144384931Y-79534307D01*
X144219365Y-79518000D01*
X143308635Y-79518000D01*
X143143069Y-79534307D01*
X142930629Y-79598750D01*
X142734843Y-79703400D01*
X142563235Y-79844235D01*
X142422400Y-80015843D01*
X142317750Y-80211629D01*
X142253307Y-80424069D01*
X142231547Y-80645000D01*
X130056453Y-80645000D01*
X130034693Y-80424069D01*
X129970250Y-80211629D01*
X129865600Y-80015843D01*
X129724765Y-79844235D01*
X129553157Y-79703400D01*
X129357371Y-79598750D01*
X129144931Y-79534307D01*
X128979365Y-79518000D01*
X128068635Y-79518000D01*
X127903069Y-79534307D01*
X127690629Y-79598750D01*
X127494843Y-79703400D01*
X127323235Y-79844235D01*
X127182400Y-80015843D01*
X127077750Y-80211629D01*
X127013307Y-80424069D01*
X126991547Y-80645000D01*
X120408703Y-80645000D01*
X120408703Y-79399569D01*
X120517801Y-79099010D01*
X120517858Y-79098824D01*
X120517930Y-79098652D01*
X120520436Y-79091007D01*
X120812391Y-78105000D01*
X126991547Y-78105000D01*
X127013307Y-78325931D01*
X127077750Y-78538371D01*
X127182400Y-78734157D01*
X127323235Y-78905765D01*
X127494843Y-79046600D01*
X127690629Y-79151250D01*
X127903069Y-79215693D01*
X128068635Y-79232000D01*
X128979365Y-79232000D01*
X129144931Y-79215693D01*
X129357371Y-79151250D01*
X129553157Y-79046600D01*
X129724765Y-78905765D01*
X129865600Y-78734157D01*
X129970250Y-78538371D01*
X130004869Y-78424246D01*
X133231000Y-78424246D01*
X133231000Y-78547754D01*
X133255095Y-78668889D01*
X133302360Y-78782996D01*
X133370977Y-78885689D01*
X133458311Y-78973023D01*
X133561004Y-79041640D01*
X133675111Y-79088905D01*
X133796246Y-79113000D01*
X133845777Y-79113000D01*
X134411681Y-79678905D01*
X134425841Y-79696159D01*
X134494667Y-79752643D01*
X134535913Y-79774689D01*
X134573190Y-79794614D01*
X134658392Y-79820460D01*
X134747000Y-79829187D01*
X134769205Y-79827000D01*
X135953288Y-79827000D01*
X135988311Y-79862023D01*
X136091004Y-79930640D01*
X136205111Y-79977905D01*
X136326246Y-80002000D01*
X136449754Y-80002000D01*
X136570889Y-79977905D01*
X136684996Y-79930640D01*
X136787689Y-79862023D01*
X136875023Y-79774689D01*
X136943640Y-79671996D01*
X136990905Y-79557889D01*
X137015000Y-79436754D01*
X137015000Y-79313246D01*
X136990905Y-79192111D01*
X136943640Y-79078004D01*
X136875023Y-78975311D01*
X136787689Y-78887977D01*
X136684996Y-78819360D01*
X136570889Y-78772095D01*
X136449754Y-78748000D01*
X136326246Y-78748000D01*
X136205111Y-78772095D01*
X136091004Y-78819360D01*
X135988311Y-78887977D01*
X135953288Y-78923000D01*
X134934224Y-78923000D01*
X134485000Y-78473777D01*
X134485000Y-78424246D01*
X134460905Y-78303111D01*
X134413640Y-78189004D01*
X134357511Y-78105000D01*
X142231547Y-78105000D01*
X142253307Y-78325931D01*
X142317750Y-78538371D01*
X142422400Y-78734157D01*
X142563235Y-78905765D01*
X142734843Y-79046600D01*
X142930629Y-79151250D01*
X143143069Y-79215693D01*
X143308635Y-79232000D01*
X144219365Y-79232000D01*
X144384931Y-79215693D01*
X144597371Y-79151250D01*
X144793157Y-79046600D01*
X144964765Y-78905765D01*
X145105600Y-78734157D01*
X145210250Y-78538371D01*
X145274693Y-78325931D01*
X145296453Y-78105000D01*
X145274693Y-77884069D01*
X145210250Y-77671629D01*
X145105600Y-77475843D01*
X144964765Y-77304235D01*
X144793157Y-77163400D01*
X144597371Y-77058750D01*
X144384931Y-76994307D01*
X144219365Y-76978000D01*
X143308635Y-76978000D01*
X143143069Y-76994307D01*
X142930629Y-77058750D01*
X142734843Y-77163400D01*
X142563235Y-77304235D01*
X142422400Y-77475843D01*
X142317750Y-77671629D01*
X142253307Y-77884069D01*
X142231547Y-78105000D01*
X134357511Y-78105000D01*
X134345023Y-78086311D01*
X134257689Y-77998977D01*
X134154996Y-77930360D01*
X134040889Y-77883095D01*
X133919754Y-77859000D01*
X133796246Y-77859000D01*
X133675111Y-77883095D01*
X133561004Y-77930360D01*
X133458311Y-77998977D01*
X133370977Y-78086311D01*
X133302360Y-78189004D01*
X133255095Y-78303111D01*
X133231000Y-78424246D01*
X130004869Y-78424246D01*
X130034693Y-78325931D01*
X130056453Y-78105000D01*
X130034693Y-77884069D01*
X129970250Y-77671629D01*
X129865600Y-77475843D01*
X129724765Y-77304235D01*
X129553157Y-77163400D01*
X129357371Y-77058750D01*
X129144931Y-76994307D01*
X128979365Y-76978000D01*
X128068635Y-76978000D01*
X127903069Y-76994307D01*
X127690629Y-77058750D01*
X127494843Y-77163400D01*
X127323235Y-77304235D01*
X127182400Y-77475843D01*
X127077750Y-77671629D01*
X127013307Y-77884069D01*
X126991547Y-78105000D01*
X120812391Y-78105000D01*
X120979969Y-77539049D01*
X120980662Y-77536196D01*
X120981512Y-77533404D01*
X120983246Y-77525548D01*
X121286366Y-75935622D01*
X121286770Y-75932724D01*
X121287341Y-75929853D01*
X121288286Y-75921863D01*
X121320097Y-75565000D01*
X126991547Y-75565000D01*
X127013307Y-75785931D01*
X127077750Y-75998371D01*
X127182400Y-76194157D01*
X127323235Y-76365765D01*
X127494843Y-76506600D01*
X127690629Y-76611250D01*
X127903069Y-76675693D01*
X128068635Y-76692000D01*
X128979365Y-76692000D01*
X129144931Y-76675693D01*
X129357371Y-76611250D01*
X129553157Y-76506600D01*
X129724765Y-76365765D01*
X129865600Y-76194157D01*
X129970250Y-75998371D01*
X129985606Y-75947746D01*
X133802500Y-75947746D01*
X133802500Y-76071254D01*
X133826595Y-76192389D01*
X133873860Y-76306496D01*
X133942477Y-76409189D01*
X134029811Y-76496523D01*
X134132504Y-76565140D01*
X134246611Y-76612405D01*
X134367746Y-76636500D01*
X134417276Y-76636500D01*
X134919685Y-77138910D01*
X134933841Y-77156159D01*
X135002667Y-77212643D01*
X135081190Y-77254614D01*
X135146562Y-77274444D01*
X135166392Y-77280460D01*
X135254999Y-77289187D01*
X135277204Y-77287000D01*
X135953288Y-77287000D01*
X135988311Y-77322023D01*
X136091004Y-77390640D01*
X136205111Y-77437905D01*
X136326246Y-77462000D01*
X136449754Y-77462000D01*
X136570889Y-77437905D01*
X136684996Y-77390640D01*
X136787689Y-77322023D01*
X136875023Y-77234689D01*
X136943640Y-77131996D01*
X136990905Y-77017889D01*
X137015000Y-76896754D01*
X137015000Y-76773246D01*
X136990905Y-76652111D01*
X136943640Y-76538004D01*
X136875023Y-76435311D01*
X136787689Y-76347977D01*
X136684996Y-76279360D01*
X136570889Y-76232095D01*
X136449754Y-76208000D01*
X136326246Y-76208000D01*
X136205111Y-76232095D01*
X136091004Y-76279360D01*
X135988311Y-76347977D01*
X135953288Y-76383000D01*
X135442225Y-76383000D01*
X135056500Y-75997276D01*
X135056500Y-75947746D01*
X135032405Y-75826611D01*
X134985140Y-75712504D01*
X134916523Y-75609811D01*
X134871712Y-75565000D01*
X142231547Y-75565000D01*
X142253307Y-75785931D01*
X142317750Y-75998371D01*
X142422400Y-76194157D01*
X142563235Y-76365765D01*
X142734843Y-76506600D01*
X142930629Y-76611250D01*
X143143069Y-76675693D01*
X143308635Y-76692000D01*
X144219365Y-76692000D01*
X144384931Y-76675693D01*
X144597371Y-76611250D01*
X144793157Y-76506600D01*
X144964765Y-76365765D01*
X145105600Y-76194157D01*
X145210250Y-75998371D01*
X145274693Y-75785931D01*
X145296453Y-75565000D01*
X145274693Y-75344069D01*
X145210250Y-75131629D01*
X145105600Y-74935843D01*
X144964765Y-74764235D01*
X144793157Y-74623400D01*
X144597371Y-74518750D01*
X144384931Y-74454307D01*
X144219365Y-74438000D01*
X143308635Y-74438000D01*
X143143069Y-74454307D01*
X142930629Y-74518750D01*
X142734843Y-74623400D01*
X142563235Y-74764235D01*
X142422400Y-74935843D01*
X142317750Y-75131629D01*
X142253307Y-75344069D01*
X142231547Y-75565000D01*
X134871712Y-75565000D01*
X134829189Y-75522477D01*
X134726496Y-75453860D01*
X134612389Y-75406595D01*
X134491254Y-75382500D01*
X134367746Y-75382500D01*
X134246611Y-75406595D01*
X134132504Y-75453860D01*
X134029811Y-75522477D01*
X133942477Y-75609811D01*
X133873860Y-75712504D01*
X133826595Y-75826611D01*
X133802500Y-75947746D01*
X129985606Y-75947746D01*
X130034693Y-75785931D01*
X130056453Y-75565000D01*
X130034693Y-75344069D01*
X129970250Y-75131629D01*
X129865600Y-74935843D01*
X129724765Y-74764235D01*
X129553157Y-74623400D01*
X129357371Y-74518750D01*
X129144931Y-74454307D01*
X128979365Y-74438000D01*
X128068635Y-74438000D01*
X127903069Y-74454307D01*
X127690629Y-74518750D01*
X127494843Y-74623400D01*
X127323235Y-74764235D01*
X127182400Y-74935843D01*
X127077750Y-75131629D01*
X127013307Y-75344069D01*
X126991547Y-75565000D01*
X121320097Y-75565000D01*
X121431997Y-74309693D01*
X121432112Y-74306764D01*
X121432394Y-74303856D01*
X121432541Y-74295812D01*
X121419099Y-73025000D01*
X126991547Y-73025000D01*
X127013307Y-73245931D01*
X127077750Y-73458371D01*
X127182400Y-73654157D01*
X127323235Y-73825765D01*
X127494843Y-73966600D01*
X127690629Y-74071250D01*
X127903069Y-74135693D01*
X128068635Y-74152000D01*
X128979365Y-74152000D01*
X129144931Y-74135693D01*
X129357371Y-74071250D01*
X129553157Y-73966600D01*
X129724765Y-73825765D01*
X129865600Y-73654157D01*
X129963368Y-73471246D01*
X134374000Y-73471246D01*
X134374000Y-73594754D01*
X134398095Y-73715889D01*
X134445360Y-73829996D01*
X134513977Y-73932689D01*
X134601311Y-74020023D01*
X134704004Y-74088640D01*
X134818111Y-74135905D01*
X134939246Y-74160000D01*
X134988777Y-74160000D01*
X135427681Y-74598905D01*
X135441841Y-74616159D01*
X135510667Y-74672643D01*
X135551913Y-74694689D01*
X135589190Y-74714614D01*
X135674392Y-74740460D01*
X135763000Y-74749187D01*
X135785205Y-74747000D01*
X135953288Y-74747000D01*
X135988311Y-74782023D01*
X136091004Y-74850640D01*
X136205111Y-74897905D01*
X136326246Y-74922000D01*
X136449754Y-74922000D01*
X136570889Y-74897905D01*
X136684996Y-74850640D01*
X136787689Y-74782023D01*
X136875023Y-74694689D01*
X136943640Y-74591996D01*
X136990905Y-74477889D01*
X137015000Y-74356754D01*
X137015000Y-74233246D01*
X136990905Y-74112111D01*
X136943640Y-73998004D01*
X136875023Y-73895311D01*
X136787689Y-73807977D01*
X136684996Y-73739360D01*
X136570889Y-73692095D01*
X136449754Y-73668000D01*
X136326246Y-73668000D01*
X136205111Y-73692095D01*
X136091004Y-73739360D01*
X135988311Y-73807977D01*
X135953288Y-73843000D01*
X135950224Y-73843000D01*
X135628000Y-73520777D01*
X135628000Y-73471246D01*
X135603905Y-73350111D01*
X135556640Y-73236004D01*
X135488023Y-73133311D01*
X135400689Y-73045977D01*
X135369295Y-73025000D01*
X142231547Y-73025000D01*
X142253307Y-73245931D01*
X142317750Y-73458371D01*
X142422400Y-73654157D01*
X142563235Y-73825765D01*
X142734843Y-73966600D01*
X142930629Y-74071250D01*
X143143069Y-74135693D01*
X143308635Y-74152000D01*
X144219365Y-74152000D01*
X144384931Y-74135693D01*
X144597371Y-74071250D01*
X144793157Y-73966600D01*
X144828369Y-73937702D01*
X146760903Y-73937702D01*
X146832486Y-74181671D01*
X147087996Y-74302571D01*
X147362184Y-74371300D01*
X147644512Y-74385217D01*
X147924130Y-74343787D01*
X148190292Y-74248603D01*
X148315514Y-74181671D01*
X148387097Y-73937702D01*
X147574000Y-73124605D01*
X146760903Y-73937702D01*
X144828369Y-73937702D01*
X144964765Y-73825765D01*
X145105600Y-73654157D01*
X145210250Y-73458371D01*
X145274693Y-73245931D01*
X145296453Y-73025000D01*
X145295519Y-73015512D01*
X146133783Y-73015512D01*
X146175213Y-73295130D01*
X146270397Y-73561292D01*
X146337329Y-73686514D01*
X146581298Y-73758097D01*
X147394395Y-72945000D01*
X147753605Y-72945000D01*
X148566702Y-73758097D01*
X148810671Y-73686514D01*
X148931571Y-73431004D01*
X149000300Y-73156816D01*
X149014217Y-72874488D01*
X148972787Y-72594870D01*
X148877603Y-72328708D01*
X148810671Y-72203486D01*
X148566702Y-72131903D01*
X147753605Y-72945000D01*
X147394395Y-72945000D01*
X146581298Y-72131903D01*
X146337329Y-72203486D01*
X146216429Y-72458996D01*
X146147700Y-72733184D01*
X146133783Y-73015512D01*
X145295519Y-73015512D01*
X145274693Y-72804069D01*
X145210250Y-72591629D01*
X145105600Y-72395843D01*
X144964765Y-72224235D01*
X144793157Y-72083400D01*
X144597371Y-71978750D01*
X144510171Y-71952298D01*
X146760903Y-71952298D01*
X147574000Y-72765395D01*
X148387097Y-71952298D01*
X148315514Y-71708329D01*
X148060004Y-71587429D01*
X147785816Y-71518700D01*
X147503488Y-71504783D01*
X147223870Y-71546213D01*
X146957708Y-71641397D01*
X146832486Y-71708329D01*
X146760903Y-71952298D01*
X144510171Y-71952298D01*
X144384931Y-71914307D01*
X144219365Y-71898000D01*
X143308635Y-71898000D01*
X143143069Y-71914307D01*
X142930629Y-71978750D01*
X142734843Y-72083400D01*
X142563235Y-72224235D01*
X142422400Y-72395843D01*
X142317750Y-72591629D01*
X142253307Y-72804069D01*
X142231547Y-73025000D01*
X135369295Y-73025000D01*
X135297996Y-72977360D01*
X135183889Y-72930095D01*
X135062754Y-72906000D01*
X134939246Y-72906000D01*
X134818111Y-72930095D01*
X134704004Y-72977360D01*
X134601311Y-73045977D01*
X134513977Y-73133311D01*
X134445360Y-73236004D01*
X134398095Y-73350111D01*
X134374000Y-73471246D01*
X129963368Y-73471246D01*
X129970250Y-73458371D01*
X130034693Y-73245931D01*
X130056453Y-73025000D01*
X130034693Y-72804069D01*
X129970250Y-72591629D01*
X129865600Y-72395843D01*
X129724765Y-72224235D01*
X129553157Y-72083400D01*
X129357371Y-71978750D01*
X129144931Y-71914307D01*
X128979365Y-71898000D01*
X128068635Y-71898000D01*
X127903069Y-71914307D01*
X127690629Y-71978750D01*
X127494843Y-72083400D01*
X127323235Y-72224235D01*
X127182400Y-72395843D01*
X127077750Y-72591629D01*
X127013307Y-72804069D01*
X126991547Y-73025000D01*
X121419099Y-73025000D01*
X121415421Y-72677339D01*
X121415244Y-72674413D01*
X121415236Y-72671491D01*
X121414584Y-72663472D01*
X121236802Y-71054703D01*
X121236335Y-71051806D01*
X121236037Y-71048902D01*
X121234591Y-71040988D01*
X121116351Y-70485000D01*
X126991547Y-70485000D01*
X127013307Y-70705931D01*
X127077750Y-70918371D01*
X127182400Y-71114157D01*
X127323235Y-71285765D01*
X127494843Y-71426600D01*
X127690629Y-71531250D01*
X127903069Y-71595693D01*
X128068635Y-71612000D01*
X128979365Y-71612000D01*
X129144931Y-71595693D01*
X129357371Y-71531250D01*
X129553157Y-71426600D01*
X129724765Y-71285765D01*
X129865600Y-71114157D01*
X129970250Y-70918371D01*
X130034693Y-70705931D01*
X130056453Y-70485000D01*
X142231547Y-70485000D01*
X142253307Y-70705931D01*
X142317750Y-70918371D01*
X142422400Y-71114157D01*
X142563235Y-71285765D01*
X142734843Y-71426600D01*
X142930629Y-71531250D01*
X143143069Y-71595693D01*
X143308635Y-71612000D01*
X144219365Y-71612000D01*
X144384931Y-71595693D01*
X144597371Y-71531250D01*
X144793157Y-71426600D01*
X144964765Y-71285765D01*
X145105600Y-71114157D01*
X145210250Y-70918371D01*
X145274693Y-70705931D01*
X145296453Y-70485000D01*
X145274693Y-70264069D01*
X145210250Y-70051629D01*
X145105600Y-69855843D01*
X144964765Y-69684235D01*
X144793157Y-69543400D01*
X144597371Y-69438750D01*
X144384931Y-69374307D01*
X144219365Y-69358000D01*
X143308635Y-69358000D01*
X143143069Y-69374307D01*
X142930629Y-69438750D01*
X142734843Y-69543400D01*
X142563235Y-69684235D01*
X142422400Y-69855843D01*
X142317750Y-70051629D01*
X142253307Y-70264069D01*
X142231547Y-70485000D01*
X130056453Y-70485000D01*
X130034693Y-70264069D01*
X129970250Y-70051629D01*
X129865600Y-69855843D01*
X129724765Y-69684235D01*
X129553157Y-69543400D01*
X129357371Y-69438750D01*
X129144931Y-69374307D01*
X128979365Y-69358000D01*
X128068635Y-69358000D01*
X127903069Y-69374307D01*
X127690629Y-69438750D01*
X127494843Y-69543400D01*
X127323235Y-69684235D01*
X127182400Y-69855843D01*
X127077750Y-70051629D01*
X127013307Y-70264069D01*
X126991547Y-70485000D01*
X121116351Y-70485000D01*
X120897906Y-69457830D01*
X120897155Y-69454999D01*
X120896569Y-69452133D01*
X120894344Y-69444401D01*
X120408703Y-67923241D01*
X120408703Y-67145000D01*
X126995418Y-67145000D01*
X126995418Y-68745000D01*
X127001732Y-68809103D01*
X127020430Y-68870743D01*
X127050794Y-68927550D01*
X127091657Y-68977343D01*
X127141450Y-69018206D01*
X127198257Y-69048570D01*
X127259897Y-69067268D01*
X127324000Y-69073582D01*
X129724000Y-69073582D01*
X129788103Y-69067268D01*
X129849743Y-69048570D01*
X129906550Y-69018206D01*
X129956343Y-68977343D01*
X129997206Y-68927550D01*
X130027570Y-68870743D01*
X130046268Y-68809103D01*
X130052582Y-68745000D01*
X130052582Y-67945000D01*
X142231547Y-67945000D01*
X142253307Y-68165931D01*
X142317750Y-68378371D01*
X142422400Y-68574157D01*
X142563235Y-68745765D01*
X142734843Y-68886600D01*
X142930629Y-68991250D01*
X143143069Y-69055693D01*
X143308635Y-69072000D01*
X144219365Y-69072000D01*
X144384931Y-69055693D01*
X144597371Y-68991250D01*
X144793157Y-68886600D01*
X144964765Y-68745765D01*
X145105600Y-68574157D01*
X145210250Y-68378371D01*
X145274693Y-68165931D01*
X145296453Y-67945000D01*
X145274693Y-67724069D01*
X145210250Y-67511629D01*
X145105600Y-67315843D01*
X144964765Y-67144235D01*
X144793157Y-67003400D01*
X144597371Y-66898750D01*
X144384931Y-66834307D01*
X144219365Y-66818000D01*
X143308635Y-66818000D01*
X143143069Y-66834307D01*
X142930629Y-66898750D01*
X142734843Y-67003400D01*
X142563235Y-67144235D01*
X142422400Y-67315843D01*
X142317750Y-67511629D01*
X142253307Y-67724069D01*
X142231547Y-67945000D01*
X130052582Y-67945000D01*
X130052582Y-67145000D01*
X130046268Y-67080897D01*
X130027570Y-67019257D01*
X129997206Y-66962450D01*
X129956343Y-66912657D01*
X129906550Y-66871794D01*
X129849743Y-66841430D01*
X129788103Y-66822732D01*
X129724000Y-66816418D01*
X127324000Y-66816418D01*
X127259897Y-66822732D01*
X127198257Y-66841430D01*
X127141450Y-66871794D01*
X127091657Y-66912657D01*
X127050794Y-66962450D01*
X127020430Y-67019257D01*
X127001732Y-67080897D01*
X126995418Y-67145000D01*
X120408703Y-67145000D01*
X120408703Y-62236830D01*
X120429430Y-62025433D01*
X121367000Y-62025433D01*
X121367000Y-62434567D01*
X121446818Y-62835839D01*
X121603386Y-63213829D01*
X121830689Y-63554011D01*
X122119989Y-63843311D01*
X122460171Y-64070614D01*
X122838161Y-64227182D01*
X123239433Y-64307000D01*
X123648567Y-64307000D01*
X124049839Y-64227182D01*
X124427829Y-64070614D01*
X124768011Y-63843311D01*
X125057311Y-63554011D01*
X125284614Y-63213829D01*
X125441182Y-62835839D01*
X125521000Y-62434567D01*
X125521000Y-62025433D01*
X172934000Y-62025433D01*
X172934000Y-62434567D01*
X173013818Y-62835839D01*
X173170386Y-63213829D01*
X173397689Y-63554011D01*
X173686989Y-63843311D01*
X174027171Y-64070614D01*
X174405161Y-64227182D01*
X174806433Y-64307000D01*
X175215567Y-64307000D01*
X175616839Y-64227182D01*
X175994829Y-64070614D01*
X176335011Y-63843311D01*
X176624311Y-63554011D01*
X176851614Y-63213829D01*
X177008182Y-62835839D01*
X177088000Y-62434567D01*
X177088000Y-62025433D01*
X177008182Y-61624161D01*
X176851614Y-61246171D01*
X176624311Y-60905989D01*
X176335011Y-60616689D01*
X175994829Y-60389386D01*
X175616839Y-60232818D01*
X175215567Y-60153000D01*
X174806433Y-60153000D01*
X174405161Y-60232818D01*
X174027171Y-60389386D01*
X173686989Y-60616689D01*
X173397689Y-60905989D01*
X173170386Y-61246171D01*
X173013818Y-61624161D01*
X172934000Y-62025433D01*
X125521000Y-62025433D01*
X125441182Y-61624161D01*
X125284614Y-61246171D01*
X125057311Y-60905989D01*
X124768011Y-60616689D01*
X124427829Y-60389386D01*
X124049839Y-60232818D01*
X123648567Y-60153000D01*
X123239433Y-60153000D01*
X122838161Y-60232818D01*
X122460171Y-60389386D01*
X122119989Y-60616689D01*
X121830689Y-60905989D01*
X121603386Y-61246171D01*
X121446818Y-61624161D01*
X121367000Y-62025433D01*
X120429430Y-62025433D01*
X120467166Y-61640571D01*
X120638347Y-61073594D01*
X120916396Y-60550661D01*
X121290716Y-60091698D01*
X121747060Y-59714179D01*
X122268038Y-59432487D01*
X122833802Y-59257355D01*
X123429403Y-59194754D01*
X123444197Y-59194703D01*
X174999170Y-59194703D01*
X175595429Y-59253166D01*
G37*
%TD.AperFunction*%
%TD*%
M02*
