%TF.GenerationSoftware,KiCad,Pcbnew,(5.1.8)-1*%
%TF.CreationDate,2021-04-11T23:00:19+02:00*%
%TF.ProjectId,ZX Cartridge 2021,5a582043-6172-4747-9269-646765203230,rev?*%
%TF.SameCoordinates,Original*%
%TF.FileFunction,Legend,Top*%
%TF.FilePolarity,Positive*%
%FSLAX46Y46*%
G04 Gerber Fmt 4.6, Leading zero omitted, Abs format (unit mm)*
G04 Created by KiCad (PCBNEW (5.1.8)-1) date 2021-04-11 23:00:19*
%MOMM*%
%LPD*%
G01*
G04 APERTURE LIST*
%ADD10C,0.150000*%
%ADD11C,0.100000*%
%ADD12C,0.010000*%
%ADD13C,0.120000*%
%ADD14C,0.114000*%
G04 APERTURE END LIST*
D10*
X136431976Y-74096619D02*
X136479595Y-74049000D01*
X136574833Y-74001380D01*
X136812928Y-74001380D01*
X136908166Y-74049000D01*
X136955785Y-74096619D01*
X137003404Y-74191857D01*
X137003404Y-74287095D01*
X136955785Y-74429952D01*
X136384357Y-75001380D01*
X137003404Y-75001380D01*
X137908166Y-74001380D02*
X137431976Y-74001380D01*
X137384357Y-74477571D01*
X137431976Y-74429952D01*
X137527214Y-74382333D01*
X137765309Y-74382333D01*
X137860547Y-74429952D01*
X137908166Y-74477571D01*
X137955785Y-74572809D01*
X137955785Y-74810904D01*
X137908166Y-74906142D01*
X137860547Y-74953761D01*
X137765309Y-75001380D01*
X137527214Y-75001380D01*
X137431976Y-74953761D01*
X137384357Y-74906142D01*
X138812928Y-74001380D02*
X138622452Y-74001380D01*
X138527214Y-74049000D01*
X138479595Y-74096619D01*
X138384357Y-74239476D01*
X138336738Y-74429952D01*
X138336738Y-74810904D01*
X138384357Y-74906142D01*
X138431976Y-74953761D01*
X138527214Y-75001380D01*
X138717690Y-75001380D01*
X138812928Y-74953761D01*
X138860547Y-74906142D01*
X138908166Y-74810904D01*
X138908166Y-74572809D01*
X138860547Y-74477571D01*
X138812928Y-74429952D01*
X138717690Y-74382333D01*
X138527214Y-74382333D01*
X138431976Y-74429952D01*
X138384357Y-74477571D01*
X138336738Y-74572809D01*
X137003404Y-76525380D02*
X136431976Y-76525380D01*
X136717690Y-76525380D02*
X136717690Y-75525380D01*
X136622452Y-75668238D01*
X136527214Y-75763476D01*
X136431976Y-75811095D01*
X137384357Y-75620619D02*
X137431976Y-75573000D01*
X137527214Y-75525380D01*
X137765309Y-75525380D01*
X137860547Y-75573000D01*
X137908166Y-75620619D01*
X137955785Y-75715857D01*
X137955785Y-75811095D01*
X137908166Y-75953952D01*
X137336738Y-76525380D01*
X137955785Y-76525380D01*
X138527214Y-75953952D02*
X138431976Y-75906333D01*
X138384357Y-75858714D01*
X138336738Y-75763476D01*
X138336738Y-75715857D01*
X138384357Y-75620619D01*
X138431976Y-75573000D01*
X138527214Y-75525380D01*
X138717690Y-75525380D01*
X138812928Y-75573000D01*
X138860547Y-75620619D01*
X138908166Y-75715857D01*
X138908166Y-75763476D01*
X138860547Y-75858714D01*
X138812928Y-75906333D01*
X138717690Y-75953952D01*
X138527214Y-75953952D01*
X138431976Y-76001571D01*
X138384357Y-76049190D01*
X138336738Y-76144428D01*
X138336738Y-76334904D01*
X138384357Y-76430142D01*
X138431976Y-76477761D01*
X138527214Y-76525380D01*
X138717690Y-76525380D01*
X138812928Y-76477761D01*
X138860547Y-76430142D01*
X138908166Y-76334904D01*
X138908166Y-76144428D01*
X138860547Y-76049190D01*
X138812928Y-76001571D01*
X138717690Y-75953952D01*
X163038404Y-76525380D02*
X162466976Y-76525380D01*
X162752690Y-76525380D02*
X162752690Y-75525380D01*
X162657452Y-75668238D01*
X162562214Y-75763476D01*
X162466976Y-75811095D01*
X163419357Y-75620619D02*
X163466976Y-75573000D01*
X163562214Y-75525380D01*
X163800309Y-75525380D01*
X163895547Y-75573000D01*
X163943166Y-75620619D01*
X163990785Y-75715857D01*
X163990785Y-75811095D01*
X163943166Y-75953952D01*
X163371738Y-76525380D01*
X163990785Y-76525380D01*
X164562214Y-75953952D02*
X164466976Y-75906333D01*
X164419357Y-75858714D01*
X164371738Y-75763476D01*
X164371738Y-75715857D01*
X164419357Y-75620619D01*
X164466976Y-75573000D01*
X164562214Y-75525380D01*
X164752690Y-75525380D01*
X164847928Y-75573000D01*
X164895547Y-75620619D01*
X164943166Y-75715857D01*
X164943166Y-75763476D01*
X164895547Y-75858714D01*
X164847928Y-75906333D01*
X164752690Y-75953952D01*
X164562214Y-75953952D01*
X164466976Y-76001571D01*
X164419357Y-76049190D01*
X164371738Y-76144428D01*
X164371738Y-76334904D01*
X164419357Y-76430142D01*
X164466976Y-76477761D01*
X164562214Y-76525380D01*
X164752690Y-76525380D01*
X164847928Y-76477761D01*
X164895547Y-76430142D01*
X164943166Y-76334904D01*
X164943166Y-76144428D01*
X164895547Y-76049190D01*
X164847928Y-76001571D01*
X164752690Y-75953952D01*
X162466976Y-74096619D02*
X162514595Y-74049000D01*
X162609833Y-74001380D01*
X162847928Y-74001380D01*
X162943166Y-74049000D01*
X162990785Y-74096619D01*
X163038404Y-74191857D01*
X163038404Y-74287095D01*
X162990785Y-74429952D01*
X162419357Y-75001380D01*
X163038404Y-75001380D01*
X163943166Y-74001380D02*
X163466976Y-74001380D01*
X163419357Y-74477571D01*
X163466976Y-74429952D01*
X163562214Y-74382333D01*
X163800309Y-74382333D01*
X163895547Y-74429952D01*
X163943166Y-74477571D01*
X163990785Y-74572809D01*
X163990785Y-74810904D01*
X163943166Y-74906142D01*
X163895547Y-74953761D01*
X163800309Y-75001380D01*
X163562214Y-75001380D01*
X163466976Y-74953761D01*
X163419357Y-74906142D01*
X164847928Y-74001380D02*
X164657452Y-74001380D01*
X164562214Y-74049000D01*
X164514595Y-74096619D01*
X164419357Y-74239476D01*
X164371738Y-74429952D01*
X164371738Y-74810904D01*
X164419357Y-74906142D01*
X164466976Y-74953761D01*
X164562214Y-75001380D01*
X164752690Y-75001380D01*
X164847928Y-74953761D01*
X164895547Y-74906142D01*
X164943166Y-74810904D01*
X164943166Y-74572809D01*
X164895547Y-74477571D01*
X164847928Y-74429952D01*
X164752690Y-74382333D01*
X164562214Y-74382333D01*
X164466976Y-74429952D01*
X164419357Y-74477571D01*
X164371738Y-74572809D01*
D11*
X164395190Y-87865095D02*
X164357095Y-87979380D01*
X164357095Y-88169857D01*
X164395190Y-88246047D01*
X164433285Y-88284142D01*
X164509476Y-88322238D01*
X164585666Y-88322238D01*
X164661857Y-88284142D01*
X164699952Y-88246047D01*
X164738047Y-88169857D01*
X164776142Y-88017476D01*
X164814238Y-87941285D01*
X164852333Y-87903190D01*
X164928523Y-87865095D01*
X165004714Y-87865095D01*
X165080904Y-87903190D01*
X165119000Y-87941285D01*
X165157095Y-88017476D01*
X165157095Y-88207952D01*
X165119000Y-88322238D01*
X164357095Y-88665095D02*
X165157095Y-88665095D01*
X165157095Y-88969857D02*
X165157095Y-89503190D01*
X164357095Y-88969857D01*
X164357095Y-89503190D01*
X164776142Y-89807952D02*
X164776142Y-90074619D01*
X164357095Y-90188904D02*
X164357095Y-89807952D01*
X165157095Y-89807952D01*
X165157095Y-90188904D01*
X160508904Y-86874619D02*
X160547000Y-86912714D01*
X160585095Y-86988904D01*
X160585095Y-87179380D01*
X160547000Y-87255571D01*
X160508904Y-87293666D01*
X160432714Y-87331761D01*
X160356523Y-87331761D01*
X160242238Y-87293666D01*
X159785095Y-86836523D01*
X159785095Y-87331761D01*
X160585095Y-87598428D02*
X160585095Y-88131761D01*
X159785095Y-87788904D01*
X159861285Y-88893666D02*
X159823190Y-88855571D01*
X159785095Y-88741285D01*
X159785095Y-88665095D01*
X159823190Y-88550809D01*
X159899380Y-88474619D01*
X159975571Y-88436523D01*
X160127952Y-88398428D01*
X160242238Y-88398428D01*
X160394619Y-88436523D01*
X160470809Y-88474619D01*
X160547000Y-88550809D01*
X160585095Y-88665095D01*
X160585095Y-88741285D01*
X160547000Y-88855571D01*
X160508904Y-88893666D01*
X159785095Y-89655571D02*
X159785095Y-89198428D01*
X159785095Y-89427000D02*
X160585095Y-89427000D01*
X160470809Y-89350809D01*
X160394619Y-89274619D01*
X160356523Y-89198428D01*
X160508904Y-89960333D02*
X160547000Y-89998428D01*
X160585095Y-90074619D01*
X160585095Y-90265095D01*
X160547000Y-90341285D01*
X160508904Y-90379380D01*
X160432714Y-90417476D01*
X160356523Y-90417476D01*
X160242238Y-90379380D01*
X159785095Y-89922238D01*
X159785095Y-90417476D01*
X160242238Y-90874619D02*
X160280333Y-90798428D01*
X160318428Y-90760333D01*
X160394619Y-90722238D01*
X160432714Y-90722238D01*
X160508904Y-90760333D01*
X160547000Y-90798428D01*
X160585095Y-90874619D01*
X160585095Y-91027000D01*
X160547000Y-91103190D01*
X160508904Y-91141285D01*
X160432714Y-91179380D01*
X160394619Y-91179380D01*
X160318428Y-91141285D01*
X160280333Y-91103190D01*
X160242238Y-91027000D01*
X160242238Y-90874619D01*
X160204142Y-90798428D01*
X160166047Y-90760333D01*
X160089857Y-90722238D01*
X159937476Y-90722238D01*
X159861285Y-90760333D01*
X159823190Y-90798428D01*
X159785095Y-90874619D01*
X159785095Y-91027000D01*
X159823190Y-91103190D01*
X159861285Y-91141285D01*
X159937476Y-91179380D01*
X160089857Y-91179380D01*
X160166047Y-91141285D01*
X160204142Y-91103190D01*
X160242238Y-91027000D01*
X162032904Y-86874619D02*
X162071000Y-86912714D01*
X162109095Y-86988904D01*
X162109095Y-87179380D01*
X162071000Y-87255571D01*
X162032904Y-87293666D01*
X161956714Y-87331761D01*
X161880523Y-87331761D01*
X161766238Y-87293666D01*
X161309095Y-86836523D01*
X161309095Y-87331761D01*
X162109095Y-87598428D02*
X162109095Y-88131761D01*
X161309095Y-87788904D01*
X161385285Y-88893666D02*
X161347190Y-88855571D01*
X161309095Y-88741285D01*
X161309095Y-88665095D01*
X161347190Y-88550809D01*
X161423380Y-88474619D01*
X161499571Y-88436523D01*
X161651952Y-88398428D01*
X161766238Y-88398428D01*
X161918619Y-88436523D01*
X161994809Y-88474619D01*
X162071000Y-88550809D01*
X162109095Y-88665095D01*
X162109095Y-88741285D01*
X162071000Y-88855571D01*
X162032904Y-88893666D01*
X162032904Y-89198428D02*
X162071000Y-89236523D01*
X162109095Y-89312714D01*
X162109095Y-89503190D01*
X162071000Y-89579380D01*
X162032904Y-89617476D01*
X161956714Y-89655571D01*
X161880523Y-89655571D01*
X161766238Y-89617476D01*
X161309095Y-89160333D01*
X161309095Y-89655571D01*
X162109095Y-90379380D02*
X162109095Y-89998428D01*
X161728142Y-89960333D01*
X161766238Y-89998428D01*
X161804333Y-90074619D01*
X161804333Y-90265095D01*
X161766238Y-90341285D01*
X161728142Y-90379380D01*
X161651952Y-90417476D01*
X161461476Y-90417476D01*
X161385285Y-90379380D01*
X161347190Y-90341285D01*
X161309095Y-90265095D01*
X161309095Y-90074619D01*
X161347190Y-89998428D01*
X161385285Y-89960333D01*
X162109095Y-91103190D02*
X162109095Y-90950809D01*
X162071000Y-90874619D01*
X162032904Y-90836523D01*
X161918619Y-90760333D01*
X161766238Y-90722238D01*
X161461476Y-90722238D01*
X161385285Y-90760333D01*
X161347190Y-90798428D01*
X161309095Y-90874619D01*
X161309095Y-91027000D01*
X161347190Y-91103190D01*
X161385285Y-91141285D01*
X161461476Y-91179380D01*
X161651952Y-91179380D01*
X161728142Y-91141285D01*
X161766238Y-91103190D01*
X161804333Y-91027000D01*
X161804333Y-90874619D01*
X161766238Y-90798428D01*
X161728142Y-90760333D01*
X161651952Y-90722238D01*
X163556904Y-86874619D02*
X163595000Y-86912714D01*
X163633095Y-86988904D01*
X163633095Y-87179380D01*
X163595000Y-87255571D01*
X163556904Y-87293666D01*
X163480714Y-87331761D01*
X163404523Y-87331761D01*
X163290238Y-87293666D01*
X162833095Y-86836523D01*
X162833095Y-87331761D01*
X163633095Y-87598428D02*
X163633095Y-88131761D01*
X162833095Y-87788904D01*
X162909285Y-88893666D02*
X162871190Y-88855571D01*
X162833095Y-88741285D01*
X162833095Y-88665095D01*
X162871190Y-88550809D01*
X162947380Y-88474619D01*
X163023571Y-88436523D01*
X163175952Y-88398428D01*
X163290238Y-88398428D01*
X163442619Y-88436523D01*
X163518809Y-88474619D01*
X163595000Y-88550809D01*
X163633095Y-88665095D01*
X163633095Y-88741285D01*
X163595000Y-88855571D01*
X163556904Y-88893666D01*
X163633095Y-89617476D02*
X163633095Y-89236523D01*
X163252142Y-89198428D01*
X163290238Y-89236523D01*
X163328333Y-89312714D01*
X163328333Y-89503190D01*
X163290238Y-89579380D01*
X163252142Y-89617476D01*
X163175952Y-89655571D01*
X162985476Y-89655571D01*
X162909285Y-89617476D01*
X162871190Y-89579380D01*
X162833095Y-89503190D01*
X162833095Y-89312714D01*
X162871190Y-89236523D01*
X162909285Y-89198428D01*
X162833095Y-90417476D02*
X162833095Y-89960333D01*
X162833095Y-90188904D02*
X163633095Y-90188904D01*
X163518809Y-90112714D01*
X163442619Y-90036523D01*
X163404523Y-89960333D01*
X163556904Y-90722238D02*
X163595000Y-90760333D01*
X163633095Y-90836523D01*
X163633095Y-91027000D01*
X163595000Y-91103190D01*
X163556904Y-91141285D01*
X163480714Y-91179380D01*
X163404523Y-91179380D01*
X163290238Y-91141285D01*
X162833095Y-90684142D01*
X162833095Y-91179380D01*
X160508904Y-96558238D02*
X160547000Y-96596333D01*
X160585095Y-96672523D01*
X160585095Y-96863000D01*
X160547000Y-96939190D01*
X160508904Y-96977285D01*
X160432714Y-97015380D01*
X160356523Y-97015380D01*
X160242238Y-96977285D01*
X159785095Y-96520142D01*
X159785095Y-97015380D01*
X160089857Y-97358238D02*
X160089857Y-97967761D01*
X160585095Y-98272523D02*
X160585095Y-98767761D01*
X160280333Y-98501095D01*
X160280333Y-98615380D01*
X160242238Y-98691571D01*
X160204142Y-98729666D01*
X160127952Y-98767761D01*
X159937476Y-98767761D01*
X159861285Y-98729666D01*
X159823190Y-98691571D01*
X159785095Y-98615380D01*
X159785095Y-98386809D01*
X159823190Y-98310619D01*
X159861285Y-98272523D01*
X160508904Y-92494238D02*
X160547000Y-92532333D01*
X160585095Y-92608523D01*
X160585095Y-92799000D01*
X160547000Y-92875190D01*
X160508904Y-92913285D01*
X160432714Y-92951380D01*
X160356523Y-92951380D01*
X160242238Y-92913285D01*
X159785095Y-92456142D01*
X159785095Y-92951380D01*
X160089857Y-93294238D02*
X160089857Y-93903761D01*
X160585095Y-94208523D02*
X160585095Y-94703761D01*
X160280333Y-94437095D01*
X160280333Y-94551380D01*
X160242238Y-94627571D01*
X160204142Y-94665666D01*
X160127952Y-94703761D01*
X159937476Y-94703761D01*
X159861285Y-94665666D01*
X159823190Y-94627571D01*
X159785095Y-94551380D01*
X159785095Y-94322809D01*
X159823190Y-94246619D01*
X159861285Y-94208523D01*
X162032904Y-92494238D02*
X162071000Y-92532333D01*
X162109095Y-92608523D01*
X162109095Y-92799000D01*
X162071000Y-92875190D01*
X162032904Y-92913285D01*
X161956714Y-92951380D01*
X161880523Y-92951380D01*
X161766238Y-92913285D01*
X161309095Y-92456142D01*
X161309095Y-92951380D01*
X161613857Y-93294238D02*
X161613857Y-93903761D01*
X162109095Y-94208523D02*
X162109095Y-94703761D01*
X161804333Y-94437095D01*
X161804333Y-94551380D01*
X161766238Y-94627571D01*
X161728142Y-94665666D01*
X161651952Y-94703761D01*
X161461476Y-94703761D01*
X161385285Y-94665666D01*
X161347190Y-94627571D01*
X161309095Y-94551380D01*
X161309095Y-94322809D01*
X161347190Y-94246619D01*
X161385285Y-94208523D01*
X161309095Y-97015380D02*
X161309095Y-96558238D01*
X161309095Y-96786809D02*
X162109095Y-96786809D01*
X161994809Y-96710619D01*
X161918619Y-96634428D01*
X161880523Y-96558238D01*
X161613857Y-97358238D02*
X161613857Y-97967761D01*
X162032904Y-98310619D02*
X162071000Y-98348714D01*
X162109095Y-98424904D01*
X162109095Y-98615380D01*
X162071000Y-98691571D01*
X162032904Y-98729666D01*
X161956714Y-98767761D01*
X161880523Y-98767761D01*
X161766238Y-98729666D01*
X161309095Y-98272523D01*
X161309095Y-98767761D01*
X162833095Y-97015380D02*
X162833095Y-96558238D01*
X162833095Y-96786809D02*
X163633095Y-96786809D01*
X163518809Y-96710619D01*
X163442619Y-96634428D01*
X163404523Y-96558238D01*
X163137857Y-97358238D02*
X163137857Y-97967761D01*
X163556904Y-98310619D02*
X163595000Y-98348714D01*
X163633095Y-98424904D01*
X163633095Y-98615380D01*
X163595000Y-98691571D01*
X163556904Y-98729666D01*
X163480714Y-98767761D01*
X163404523Y-98767761D01*
X163290238Y-98729666D01*
X162833095Y-98272523D01*
X162833095Y-98767761D01*
X162833095Y-92951380D02*
X162833095Y-92494238D01*
X162833095Y-92722809D02*
X163633095Y-92722809D01*
X163518809Y-92646619D01*
X163442619Y-92570428D01*
X163404523Y-92494238D01*
X163137857Y-93294238D02*
X163137857Y-93903761D01*
X163556904Y-94246619D02*
X163595000Y-94284714D01*
X163633095Y-94360904D01*
X163633095Y-94551380D01*
X163595000Y-94627571D01*
X163556904Y-94665666D01*
X163480714Y-94703761D01*
X163404523Y-94703761D01*
X163290238Y-94665666D01*
X162833095Y-94208523D01*
X162833095Y-94703761D01*
X164585666Y-96710619D02*
X164585666Y-97091571D01*
X164357095Y-96634428D02*
X165157095Y-96901095D01*
X164357095Y-97167761D01*
X164357095Y-97853476D02*
X164357095Y-97396333D01*
X164357095Y-97624904D02*
X165157095Y-97624904D01*
X165042809Y-97548714D01*
X164966619Y-97472523D01*
X164928523Y-97396333D01*
X164890428Y-98539190D02*
X164357095Y-98539190D01*
X165195190Y-98348714D02*
X164623761Y-98158238D01*
X164623761Y-98653476D01*
X164585666Y-92646619D02*
X164585666Y-93027571D01*
X164357095Y-92570428D02*
X165157095Y-92837095D01*
X164357095Y-93103761D01*
X164357095Y-93789476D02*
X164357095Y-93332333D01*
X164357095Y-93560904D02*
X165157095Y-93560904D01*
X165042809Y-93484714D01*
X164966619Y-93408523D01*
X164928523Y-93332333D01*
X165157095Y-94513285D02*
X165157095Y-94132333D01*
X164776142Y-94094238D01*
X164814238Y-94132333D01*
X164852333Y-94208523D01*
X164852333Y-94399000D01*
X164814238Y-94475190D01*
X164776142Y-94513285D01*
X164699952Y-94551380D01*
X164509476Y-94551380D01*
X164433285Y-94513285D01*
X164395190Y-94475190D01*
X164357095Y-94399000D01*
X164357095Y-94208523D01*
X164395190Y-94132333D01*
X164433285Y-94094238D01*
D10*
X160536142Y-103957380D02*
X160202809Y-103481190D01*
X159964714Y-103957380D02*
X159964714Y-102957380D01*
X160345666Y-102957380D01*
X160440904Y-103005000D01*
X160488523Y-103052619D01*
X160536142Y-103147857D01*
X160536142Y-103290714D01*
X160488523Y-103385952D01*
X160440904Y-103433571D01*
X160345666Y-103481190D01*
X159964714Y-103481190D01*
X161155190Y-102957380D02*
X161345666Y-102957380D01*
X161440904Y-103005000D01*
X161536142Y-103100238D01*
X161583761Y-103290714D01*
X161583761Y-103624047D01*
X161536142Y-103814523D01*
X161440904Y-103909761D01*
X161345666Y-103957380D01*
X161155190Y-103957380D01*
X161059952Y-103909761D01*
X160964714Y-103814523D01*
X160917095Y-103624047D01*
X160917095Y-103290714D01*
X160964714Y-103100238D01*
X161059952Y-103005000D01*
X161155190Y-102957380D01*
X162012333Y-103957380D02*
X162012333Y-102957380D01*
X162345666Y-103671666D01*
X162679000Y-102957380D01*
X162679000Y-103957380D01*
X164440904Y-103957380D02*
X163869476Y-103957380D01*
X164155190Y-103957380D02*
X164155190Y-102957380D01*
X164059952Y-103100238D01*
X163964714Y-103195476D01*
X163869476Y-103243095D01*
X134501142Y-103957380D02*
X134167809Y-103481190D01*
X133929714Y-103957380D02*
X133929714Y-102957380D01*
X134310666Y-102957380D01*
X134405904Y-103005000D01*
X134453523Y-103052619D01*
X134501142Y-103147857D01*
X134501142Y-103290714D01*
X134453523Y-103385952D01*
X134405904Y-103433571D01*
X134310666Y-103481190D01*
X133929714Y-103481190D01*
X135120190Y-102957380D02*
X135310666Y-102957380D01*
X135405904Y-103005000D01*
X135501142Y-103100238D01*
X135548761Y-103290714D01*
X135548761Y-103624047D01*
X135501142Y-103814523D01*
X135405904Y-103909761D01*
X135310666Y-103957380D01*
X135120190Y-103957380D01*
X135024952Y-103909761D01*
X134929714Y-103814523D01*
X134882095Y-103624047D01*
X134882095Y-103290714D01*
X134929714Y-103100238D01*
X135024952Y-103005000D01*
X135120190Y-102957380D01*
X135977333Y-103957380D02*
X135977333Y-102957380D01*
X136310666Y-103671666D01*
X136644000Y-102957380D01*
X136644000Y-103957380D01*
X138072571Y-102957380D02*
X138167809Y-102957380D01*
X138263047Y-103005000D01*
X138310666Y-103052619D01*
X138358285Y-103147857D01*
X138405904Y-103338333D01*
X138405904Y-103576428D01*
X138358285Y-103766904D01*
X138310666Y-103862142D01*
X138263047Y-103909761D01*
X138167809Y-103957380D01*
X138072571Y-103957380D01*
X137977333Y-103909761D01*
X137929714Y-103862142D01*
X137882095Y-103766904D01*
X137834476Y-103576428D01*
X137834476Y-103338333D01*
X137882095Y-103147857D01*
X137929714Y-103052619D01*
X137977333Y-103005000D01*
X138072571Y-102957380D01*
D12*
%TO.C,sinclair_title*%
G36*
X141279000Y-59690000D02*
G01*
X141529000Y-59690000D01*
X141529000Y-59940000D01*
X141279000Y-59940000D01*
X141279000Y-59690000D01*
G37*
X141279000Y-59690000D02*
X141529000Y-59690000D01*
X141529000Y-59940000D01*
X141279000Y-59940000D01*
X141279000Y-59690000D01*
G36*
X141529000Y-59690000D02*
G01*
X141779000Y-59690000D01*
X141779000Y-59940000D01*
X141529000Y-59940000D01*
X141529000Y-59690000D01*
G37*
X141529000Y-59690000D02*
X141779000Y-59690000D01*
X141779000Y-59940000D01*
X141529000Y-59940000D01*
X141529000Y-59690000D01*
G36*
X150279000Y-59690000D02*
G01*
X150529000Y-59690000D01*
X150529000Y-59940000D01*
X150279000Y-59940000D01*
X150279000Y-59690000D01*
G37*
X150279000Y-59690000D02*
X150529000Y-59690000D01*
X150529000Y-59940000D01*
X150279000Y-59940000D01*
X150279000Y-59690000D01*
G36*
X150529000Y-59690000D02*
G01*
X150779000Y-59690000D01*
X150779000Y-59940000D01*
X150529000Y-59940000D01*
X150529000Y-59690000D01*
G37*
X150529000Y-59690000D02*
X150779000Y-59690000D01*
X150779000Y-59940000D01*
X150529000Y-59940000D01*
X150529000Y-59690000D01*
G36*
X156279000Y-59690000D02*
G01*
X156529000Y-59690000D01*
X156529000Y-59940000D01*
X156279000Y-59940000D01*
X156279000Y-59690000D01*
G37*
X156279000Y-59690000D02*
X156529000Y-59690000D01*
X156529000Y-59940000D01*
X156279000Y-59940000D01*
X156279000Y-59690000D01*
G36*
X156529000Y-59690000D02*
G01*
X156779000Y-59690000D01*
X156779000Y-59940000D01*
X156529000Y-59940000D01*
X156529000Y-59690000D01*
G37*
X156529000Y-59690000D02*
X156779000Y-59690000D01*
X156779000Y-59940000D01*
X156529000Y-59940000D01*
X156529000Y-59690000D01*
G36*
X141279000Y-59940000D02*
G01*
X141529000Y-59940000D01*
X141529000Y-60190000D01*
X141279000Y-60190000D01*
X141279000Y-59940000D01*
G37*
X141279000Y-59940000D02*
X141529000Y-59940000D01*
X141529000Y-60190000D01*
X141279000Y-60190000D01*
X141279000Y-59940000D01*
G36*
X141529000Y-59940000D02*
G01*
X141779000Y-59940000D01*
X141779000Y-60190000D01*
X141529000Y-60190000D01*
X141529000Y-59940000D01*
G37*
X141529000Y-59940000D02*
X141779000Y-59940000D01*
X141779000Y-60190000D01*
X141529000Y-60190000D01*
X141529000Y-59940000D01*
G36*
X150279000Y-59940000D02*
G01*
X150529000Y-59940000D01*
X150529000Y-60190000D01*
X150279000Y-60190000D01*
X150279000Y-59940000D01*
G37*
X150279000Y-59940000D02*
X150529000Y-59940000D01*
X150529000Y-60190000D01*
X150279000Y-60190000D01*
X150279000Y-59940000D01*
G36*
X150529000Y-59940000D02*
G01*
X150779000Y-59940000D01*
X150779000Y-60190000D01*
X150529000Y-60190000D01*
X150529000Y-59940000D01*
G37*
X150529000Y-59940000D02*
X150779000Y-59940000D01*
X150779000Y-60190000D01*
X150529000Y-60190000D01*
X150529000Y-59940000D01*
G36*
X156279000Y-59940000D02*
G01*
X156529000Y-59940000D01*
X156529000Y-60190000D01*
X156279000Y-60190000D01*
X156279000Y-59940000D01*
G37*
X156279000Y-59940000D02*
X156529000Y-59940000D01*
X156529000Y-60190000D01*
X156279000Y-60190000D01*
X156279000Y-59940000D01*
G36*
X156529000Y-59940000D02*
G01*
X156779000Y-59940000D01*
X156779000Y-60190000D01*
X156529000Y-60190000D01*
X156529000Y-59940000D01*
G37*
X156529000Y-59940000D02*
X156779000Y-59940000D01*
X156779000Y-60190000D01*
X156529000Y-60190000D01*
X156529000Y-59940000D01*
G36*
X137779000Y-60190000D02*
G01*
X138029000Y-60190000D01*
X138029000Y-60440000D01*
X137779000Y-60440000D01*
X137779000Y-60190000D01*
G37*
X137779000Y-60190000D02*
X138029000Y-60190000D01*
X138029000Y-60440000D01*
X137779000Y-60440000D01*
X137779000Y-60190000D01*
G36*
X138029000Y-60190000D02*
G01*
X138279000Y-60190000D01*
X138279000Y-60440000D01*
X138029000Y-60440000D01*
X138029000Y-60190000D01*
G37*
X138029000Y-60190000D02*
X138279000Y-60190000D01*
X138279000Y-60440000D01*
X138029000Y-60440000D01*
X138029000Y-60190000D01*
G36*
X138279000Y-60190000D02*
G01*
X138529000Y-60190000D01*
X138529000Y-60440000D01*
X138279000Y-60440000D01*
X138279000Y-60190000D01*
G37*
X138279000Y-60190000D02*
X138529000Y-60190000D01*
X138529000Y-60440000D01*
X138279000Y-60440000D01*
X138279000Y-60190000D01*
G36*
X138529000Y-60190000D02*
G01*
X138779000Y-60190000D01*
X138779000Y-60440000D01*
X138529000Y-60440000D01*
X138529000Y-60190000D01*
G37*
X138529000Y-60190000D02*
X138779000Y-60190000D01*
X138779000Y-60440000D01*
X138529000Y-60440000D01*
X138529000Y-60190000D01*
G36*
X138779000Y-60190000D02*
G01*
X139029000Y-60190000D01*
X139029000Y-60440000D01*
X138779000Y-60440000D01*
X138779000Y-60190000D01*
G37*
X138779000Y-60190000D02*
X139029000Y-60190000D01*
X139029000Y-60440000D01*
X138779000Y-60440000D01*
X138779000Y-60190000D01*
G36*
X139029000Y-60190000D02*
G01*
X139279000Y-60190000D01*
X139279000Y-60440000D01*
X139029000Y-60440000D01*
X139029000Y-60190000D01*
G37*
X139029000Y-60190000D02*
X139279000Y-60190000D01*
X139279000Y-60440000D01*
X139029000Y-60440000D01*
X139029000Y-60190000D01*
G36*
X143279000Y-60190000D02*
G01*
X143529000Y-60190000D01*
X143529000Y-60440000D01*
X143279000Y-60440000D01*
X143279000Y-60190000D01*
G37*
X143279000Y-60190000D02*
X143529000Y-60190000D01*
X143529000Y-60440000D01*
X143279000Y-60440000D01*
X143279000Y-60190000D01*
G36*
X143529000Y-60190000D02*
G01*
X143779000Y-60190000D01*
X143779000Y-60440000D01*
X143529000Y-60440000D01*
X143529000Y-60190000D01*
G37*
X143529000Y-60190000D02*
X143779000Y-60190000D01*
X143779000Y-60440000D01*
X143529000Y-60440000D01*
X143529000Y-60190000D01*
G36*
X143779000Y-60190000D02*
G01*
X144029000Y-60190000D01*
X144029000Y-60440000D01*
X143779000Y-60440000D01*
X143779000Y-60190000D01*
G37*
X143779000Y-60190000D02*
X144029000Y-60190000D01*
X144029000Y-60440000D01*
X143779000Y-60440000D01*
X143779000Y-60190000D01*
G36*
X144029000Y-60190000D02*
G01*
X144279000Y-60190000D01*
X144279000Y-60440000D01*
X144029000Y-60440000D01*
X144029000Y-60190000D01*
G37*
X144029000Y-60190000D02*
X144279000Y-60190000D01*
X144279000Y-60440000D01*
X144029000Y-60440000D01*
X144029000Y-60190000D01*
G36*
X144279000Y-60190000D02*
G01*
X144529000Y-60190000D01*
X144529000Y-60440000D01*
X144279000Y-60440000D01*
X144279000Y-60190000D01*
G37*
X144279000Y-60190000D02*
X144529000Y-60190000D01*
X144529000Y-60440000D01*
X144279000Y-60440000D01*
X144279000Y-60190000D01*
G36*
X144529000Y-60190000D02*
G01*
X144779000Y-60190000D01*
X144779000Y-60440000D01*
X144529000Y-60440000D01*
X144529000Y-60190000D01*
G37*
X144529000Y-60190000D02*
X144779000Y-60190000D01*
X144779000Y-60440000D01*
X144529000Y-60440000D01*
X144529000Y-60190000D01*
G36*
X144779000Y-60190000D02*
G01*
X145029000Y-60190000D01*
X145029000Y-60440000D01*
X144779000Y-60440000D01*
X144779000Y-60190000D01*
G37*
X144779000Y-60190000D02*
X145029000Y-60190000D01*
X145029000Y-60440000D01*
X144779000Y-60440000D01*
X144779000Y-60190000D01*
G36*
X145029000Y-60190000D02*
G01*
X145279000Y-60190000D01*
X145279000Y-60440000D01*
X145029000Y-60440000D01*
X145029000Y-60190000D01*
G37*
X145029000Y-60190000D02*
X145279000Y-60190000D01*
X145279000Y-60440000D01*
X145029000Y-60440000D01*
X145029000Y-60190000D01*
G36*
X147279000Y-60190000D02*
G01*
X147529000Y-60190000D01*
X147529000Y-60440000D01*
X147279000Y-60440000D01*
X147279000Y-60190000D01*
G37*
X147279000Y-60190000D02*
X147529000Y-60190000D01*
X147529000Y-60440000D01*
X147279000Y-60440000D01*
X147279000Y-60190000D01*
G36*
X147529000Y-60190000D02*
G01*
X147779000Y-60190000D01*
X147779000Y-60440000D01*
X147529000Y-60440000D01*
X147529000Y-60190000D01*
G37*
X147529000Y-60190000D02*
X147779000Y-60190000D01*
X147779000Y-60440000D01*
X147529000Y-60440000D01*
X147529000Y-60190000D01*
G36*
X147779000Y-60190000D02*
G01*
X148029000Y-60190000D01*
X148029000Y-60440000D01*
X147779000Y-60440000D01*
X147779000Y-60190000D01*
G37*
X147779000Y-60190000D02*
X148029000Y-60190000D01*
X148029000Y-60440000D01*
X147779000Y-60440000D01*
X147779000Y-60190000D01*
G36*
X148029000Y-60190000D02*
G01*
X148279000Y-60190000D01*
X148279000Y-60440000D01*
X148029000Y-60440000D01*
X148029000Y-60190000D01*
G37*
X148029000Y-60190000D02*
X148279000Y-60190000D01*
X148279000Y-60440000D01*
X148029000Y-60440000D01*
X148029000Y-60190000D01*
G36*
X148279000Y-60190000D02*
G01*
X148529000Y-60190000D01*
X148529000Y-60440000D01*
X148279000Y-60440000D01*
X148279000Y-60190000D01*
G37*
X148279000Y-60190000D02*
X148529000Y-60190000D01*
X148529000Y-60440000D01*
X148279000Y-60440000D01*
X148279000Y-60190000D01*
G36*
X148529000Y-60190000D02*
G01*
X148779000Y-60190000D01*
X148779000Y-60440000D01*
X148529000Y-60440000D01*
X148529000Y-60190000D01*
G37*
X148529000Y-60190000D02*
X148779000Y-60190000D01*
X148779000Y-60440000D01*
X148529000Y-60440000D01*
X148529000Y-60190000D01*
G36*
X150279000Y-60190000D02*
G01*
X150529000Y-60190000D01*
X150529000Y-60440000D01*
X150279000Y-60440000D01*
X150279000Y-60190000D01*
G37*
X150279000Y-60190000D02*
X150529000Y-60190000D01*
X150529000Y-60440000D01*
X150279000Y-60440000D01*
X150279000Y-60190000D01*
G36*
X150529000Y-60190000D02*
G01*
X150779000Y-60190000D01*
X150779000Y-60440000D01*
X150529000Y-60440000D01*
X150529000Y-60190000D01*
G37*
X150529000Y-60190000D02*
X150779000Y-60190000D01*
X150779000Y-60440000D01*
X150529000Y-60440000D01*
X150529000Y-60190000D01*
G36*
X152779000Y-60190000D02*
G01*
X153029000Y-60190000D01*
X153029000Y-60440000D01*
X152779000Y-60440000D01*
X152779000Y-60190000D01*
G37*
X152779000Y-60190000D02*
X153029000Y-60190000D01*
X153029000Y-60440000D01*
X152779000Y-60440000D01*
X152779000Y-60190000D01*
G36*
X153029000Y-60190000D02*
G01*
X153279000Y-60190000D01*
X153279000Y-60440000D01*
X153029000Y-60440000D01*
X153029000Y-60190000D01*
G37*
X153029000Y-60190000D02*
X153279000Y-60190000D01*
X153279000Y-60440000D01*
X153029000Y-60440000D01*
X153029000Y-60190000D01*
G36*
X153279000Y-60190000D02*
G01*
X153529000Y-60190000D01*
X153529000Y-60440000D01*
X153279000Y-60440000D01*
X153279000Y-60190000D01*
G37*
X153279000Y-60190000D02*
X153529000Y-60190000D01*
X153529000Y-60440000D01*
X153279000Y-60440000D01*
X153279000Y-60190000D01*
G36*
X153529000Y-60190000D02*
G01*
X153779000Y-60190000D01*
X153779000Y-60440000D01*
X153529000Y-60440000D01*
X153529000Y-60190000D01*
G37*
X153529000Y-60190000D02*
X153779000Y-60190000D01*
X153779000Y-60440000D01*
X153529000Y-60440000D01*
X153529000Y-60190000D01*
G36*
X153779000Y-60190000D02*
G01*
X154029000Y-60190000D01*
X154029000Y-60440000D01*
X153779000Y-60440000D01*
X153779000Y-60190000D01*
G37*
X153779000Y-60190000D02*
X154029000Y-60190000D01*
X154029000Y-60440000D01*
X153779000Y-60440000D01*
X153779000Y-60190000D01*
G36*
X154029000Y-60190000D02*
G01*
X154279000Y-60190000D01*
X154279000Y-60440000D01*
X154029000Y-60440000D01*
X154029000Y-60190000D01*
G37*
X154029000Y-60190000D02*
X154279000Y-60190000D01*
X154279000Y-60440000D01*
X154029000Y-60440000D01*
X154029000Y-60190000D01*
G36*
X159279000Y-60190000D02*
G01*
X159529000Y-60190000D01*
X159529000Y-60440000D01*
X159279000Y-60440000D01*
X159279000Y-60190000D01*
G37*
X159279000Y-60190000D02*
X159529000Y-60190000D01*
X159529000Y-60440000D01*
X159279000Y-60440000D01*
X159279000Y-60190000D01*
G36*
X159529000Y-60190000D02*
G01*
X159779000Y-60190000D01*
X159779000Y-60440000D01*
X159529000Y-60440000D01*
X159529000Y-60190000D01*
G37*
X159529000Y-60190000D02*
X159779000Y-60190000D01*
X159779000Y-60440000D01*
X159529000Y-60440000D01*
X159529000Y-60190000D01*
G36*
X159779000Y-60190000D02*
G01*
X160029000Y-60190000D01*
X160029000Y-60440000D01*
X159779000Y-60440000D01*
X159779000Y-60190000D01*
G37*
X159779000Y-60190000D02*
X160029000Y-60190000D01*
X160029000Y-60440000D01*
X159779000Y-60440000D01*
X159779000Y-60190000D01*
G36*
X160029000Y-60190000D02*
G01*
X160279000Y-60190000D01*
X160279000Y-60440000D01*
X160029000Y-60440000D01*
X160029000Y-60190000D01*
G37*
X160029000Y-60190000D02*
X160279000Y-60190000D01*
X160279000Y-60440000D01*
X160029000Y-60440000D01*
X160029000Y-60190000D01*
G36*
X160279000Y-60190000D02*
G01*
X160529000Y-60190000D01*
X160529000Y-60440000D01*
X160279000Y-60440000D01*
X160279000Y-60190000D01*
G37*
X160279000Y-60190000D02*
X160529000Y-60190000D01*
X160529000Y-60440000D01*
X160279000Y-60440000D01*
X160279000Y-60190000D01*
G36*
X160529000Y-60190000D02*
G01*
X160779000Y-60190000D01*
X160779000Y-60440000D01*
X160529000Y-60440000D01*
X160529000Y-60190000D01*
G37*
X160529000Y-60190000D02*
X160779000Y-60190000D01*
X160779000Y-60440000D01*
X160529000Y-60440000D01*
X160529000Y-60190000D01*
G36*
X137779000Y-60440000D02*
G01*
X138029000Y-60440000D01*
X138029000Y-60690000D01*
X137779000Y-60690000D01*
X137779000Y-60440000D01*
G37*
X137779000Y-60440000D02*
X138029000Y-60440000D01*
X138029000Y-60690000D01*
X137779000Y-60690000D01*
X137779000Y-60440000D01*
G36*
X138029000Y-60440000D02*
G01*
X138279000Y-60440000D01*
X138279000Y-60690000D01*
X138029000Y-60690000D01*
X138029000Y-60440000D01*
G37*
X138029000Y-60440000D02*
X138279000Y-60440000D01*
X138279000Y-60690000D01*
X138029000Y-60690000D01*
X138029000Y-60440000D01*
G36*
X138279000Y-60440000D02*
G01*
X138529000Y-60440000D01*
X138529000Y-60690000D01*
X138279000Y-60690000D01*
X138279000Y-60440000D01*
G37*
X138279000Y-60440000D02*
X138529000Y-60440000D01*
X138529000Y-60690000D01*
X138279000Y-60690000D01*
X138279000Y-60440000D01*
G36*
X138529000Y-60440000D02*
G01*
X138779000Y-60440000D01*
X138779000Y-60690000D01*
X138529000Y-60690000D01*
X138529000Y-60440000D01*
G37*
X138529000Y-60440000D02*
X138779000Y-60440000D01*
X138779000Y-60690000D01*
X138529000Y-60690000D01*
X138529000Y-60440000D01*
G36*
X138779000Y-60440000D02*
G01*
X139029000Y-60440000D01*
X139029000Y-60690000D01*
X138779000Y-60690000D01*
X138779000Y-60440000D01*
G37*
X138779000Y-60440000D02*
X139029000Y-60440000D01*
X139029000Y-60690000D01*
X138779000Y-60690000D01*
X138779000Y-60440000D01*
G36*
X139029000Y-60440000D02*
G01*
X139279000Y-60440000D01*
X139279000Y-60690000D01*
X139029000Y-60690000D01*
X139029000Y-60440000D01*
G37*
X139029000Y-60440000D02*
X139279000Y-60440000D01*
X139279000Y-60690000D01*
X139029000Y-60690000D01*
X139029000Y-60440000D01*
G36*
X143279000Y-60440000D02*
G01*
X143529000Y-60440000D01*
X143529000Y-60690000D01*
X143279000Y-60690000D01*
X143279000Y-60440000D01*
G37*
X143279000Y-60440000D02*
X143529000Y-60440000D01*
X143529000Y-60690000D01*
X143279000Y-60690000D01*
X143279000Y-60440000D01*
G36*
X143529000Y-60440000D02*
G01*
X143779000Y-60440000D01*
X143779000Y-60690000D01*
X143529000Y-60690000D01*
X143529000Y-60440000D01*
G37*
X143529000Y-60440000D02*
X143779000Y-60440000D01*
X143779000Y-60690000D01*
X143529000Y-60690000D01*
X143529000Y-60440000D01*
G36*
X143779000Y-60440000D02*
G01*
X144029000Y-60440000D01*
X144029000Y-60690000D01*
X143779000Y-60690000D01*
X143779000Y-60440000D01*
G37*
X143779000Y-60440000D02*
X144029000Y-60440000D01*
X144029000Y-60690000D01*
X143779000Y-60690000D01*
X143779000Y-60440000D01*
G36*
X144029000Y-60440000D02*
G01*
X144279000Y-60440000D01*
X144279000Y-60690000D01*
X144029000Y-60690000D01*
X144029000Y-60440000D01*
G37*
X144029000Y-60440000D02*
X144279000Y-60440000D01*
X144279000Y-60690000D01*
X144029000Y-60690000D01*
X144029000Y-60440000D01*
G36*
X144279000Y-60440000D02*
G01*
X144529000Y-60440000D01*
X144529000Y-60690000D01*
X144279000Y-60690000D01*
X144279000Y-60440000D01*
G37*
X144279000Y-60440000D02*
X144529000Y-60440000D01*
X144529000Y-60690000D01*
X144279000Y-60690000D01*
X144279000Y-60440000D01*
G36*
X144529000Y-60440000D02*
G01*
X144779000Y-60440000D01*
X144779000Y-60690000D01*
X144529000Y-60690000D01*
X144529000Y-60440000D01*
G37*
X144529000Y-60440000D02*
X144779000Y-60440000D01*
X144779000Y-60690000D01*
X144529000Y-60690000D01*
X144529000Y-60440000D01*
G36*
X144779000Y-60440000D02*
G01*
X145029000Y-60440000D01*
X145029000Y-60690000D01*
X144779000Y-60690000D01*
X144779000Y-60440000D01*
G37*
X144779000Y-60440000D02*
X145029000Y-60440000D01*
X145029000Y-60690000D01*
X144779000Y-60690000D01*
X144779000Y-60440000D01*
G36*
X145029000Y-60440000D02*
G01*
X145279000Y-60440000D01*
X145279000Y-60690000D01*
X145029000Y-60690000D01*
X145029000Y-60440000D01*
G37*
X145029000Y-60440000D02*
X145279000Y-60440000D01*
X145279000Y-60690000D01*
X145029000Y-60690000D01*
X145029000Y-60440000D01*
G36*
X147279000Y-60440000D02*
G01*
X147529000Y-60440000D01*
X147529000Y-60690000D01*
X147279000Y-60690000D01*
X147279000Y-60440000D01*
G37*
X147279000Y-60440000D02*
X147529000Y-60440000D01*
X147529000Y-60690000D01*
X147279000Y-60690000D01*
X147279000Y-60440000D01*
G36*
X147529000Y-60440000D02*
G01*
X147779000Y-60440000D01*
X147779000Y-60690000D01*
X147529000Y-60690000D01*
X147529000Y-60440000D01*
G37*
X147529000Y-60440000D02*
X147779000Y-60440000D01*
X147779000Y-60690000D01*
X147529000Y-60690000D01*
X147529000Y-60440000D01*
G36*
X147779000Y-60440000D02*
G01*
X148029000Y-60440000D01*
X148029000Y-60690000D01*
X147779000Y-60690000D01*
X147779000Y-60440000D01*
G37*
X147779000Y-60440000D02*
X148029000Y-60440000D01*
X148029000Y-60690000D01*
X147779000Y-60690000D01*
X147779000Y-60440000D01*
G36*
X148029000Y-60440000D02*
G01*
X148279000Y-60440000D01*
X148279000Y-60690000D01*
X148029000Y-60690000D01*
X148029000Y-60440000D01*
G37*
X148029000Y-60440000D02*
X148279000Y-60440000D01*
X148279000Y-60690000D01*
X148029000Y-60690000D01*
X148029000Y-60440000D01*
G36*
X148279000Y-60440000D02*
G01*
X148529000Y-60440000D01*
X148529000Y-60690000D01*
X148279000Y-60690000D01*
X148279000Y-60440000D01*
G37*
X148279000Y-60440000D02*
X148529000Y-60440000D01*
X148529000Y-60690000D01*
X148279000Y-60690000D01*
X148279000Y-60440000D01*
G36*
X148529000Y-60440000D02*
G01*
X148779000Y-60440000D01*
X148779000Y-60690000D01*
X148529000Y-60690000D01*
X148529000Y-60440000D01*
G37*
X148529000Y-60440000D02*
X148779000Y-60440000D01*
X148779000Y-60690000D01*
X148529000Y-60690000D01*
X148529000Y-60440000D01*
G36*
X150279000Y-60440000D02*
G01*
X150529000Y-60440000D01*
X150529000Y-60690000D01*
X150279000Y-60690000D01*
X150279000Y-60440000D01*
G37*
X150279000Y-60440000D02*
X150529000Y-60440000D01*
X150529000Y-60690000D01*
X150279000Y-60690000D01*
X150279000Y-60440000D01*
G36*
X150529000Y-60440000D02*
G01*
X150779000Y-60440000D01*
X150779000Y-60690000D01*
X150529000Y-60690000D01*
X150529000Y-60440000D01*
G37*
X150529000Y-60440000D02*
X150779000Y-60440000D01*
X150779000Y-60690000D01*
X150529000Y-60690000D01*
X150529000Y-60440000D01*
G36*
X152779000Y-60440000D02*
G01*
X153029000Y-60440000D01*
X153029000Y-60690000D01*
X152779000Y-60690000D01*
X152779000Y-60440000D01*
G37*
X152779000Y-60440000D02*
X153029000Y-60440000D01*
X153029000Y-60690000D01*
X152779000Y-60690000D01*
X152779000Y-60440000D01*
G36*
X153029000Y-60440000D02*
G01*
X153279000Y-60440000D01*
X153279000Y-60690000D01*
X153029000Y-60690000D01*
X153029000Y-60440000D01*
G37*
X153029000Y-60440000D02*
X153279000Y-60440000D01*
X153279000Y-60690000D01*
X153029000Y-60690000D01*
X153029000Y-60440000D01*
G36*
X153279000Y-60440000D02*
G01*
X153529000Y-60440000D01*
X153529000Y-60690000D01*
X153279000Y-60690000D01*
X153279000Y-60440000D01*
G37*
X153279000Y-60440000D02*
X153529000Y-60440000D01*
X153529000Y-60690000D01*
X153279000Y-60690000D01*
X153279000Y-60440000D01*
G36*
X153529000Y-60440000D02*
G01*
X153779000Y-60440000D01*
X153779000Y-60690000D01*
X153529000Y-60690000D01*
X153529000Y-60440000D01*
G37*
X153529000Y-60440000D02*
X153779000Y-60440000D01*
X153779000Y-60690000D01*
X153529000Y-60690000D01*
X153529000Y-60440000D01*
G36*
X153779000Y-60440000D02*
G01*
X154029000Y-60440000D01*
X154029000Y-60690000D01*
X153779000Y-60690000D01*
X153779000Y-60440000D01*
G37*
X153779000Y-60440000D02*
X154029000Y-60440000D01*
X154029000Y-60690000D01*
X153779000Y-60690000D01*
X153779000Y-60440000D01*
G36*
X154029000Y-60440000D02*
G01*
X154279000Y-60440000D01*
X154279000Y-60690000D01*
X154029000Y-60690000D01*
X154029000Y-60440000D01*
G37*
X154029000Y-60440000D02*
X154279000Y-60440000D01*
X154279000Y-60690000D01*
X154029000Y-60690000D01*
X154029000Y-60440000D01*
G36*
X159279000Y-60440000D02*
G01*
X159529000Y-60440000D01*
X159529000Y-60690000D01*
X159279000Y-60690000D01*
X159279000Y-60440000D01*
G37*
X159279000Y-60440000D02*
X159529000Y-60440000D01*
X159529000Y-60690000D01*
X159279000Y-60690000D01*
X159279000Y-60440000D01*
G36*
X159529000Y-60440000D02*
G01*
X159779000Y-60440000D01*
X159779000Y-60690000D01*
X159529000Y-60690000D01*
X159529000Y-60440000D01*
G37*
X159529000Y-60440000D02*
X159779000Y-60440000D01*
X159779000Y-60690000D01*
X159529000Y-60690000D01*
X159529000Y-60440000D01*
G36*
X159779000Y-60440000D02*
G01*
X160029000Y-60440000D01*
X160029000Y-60690000D01*
X159779000Y-60690000D01*
X159779000Y-60440000D01*
G37*
X159779000Y-60440000D02*
X160029000Y-60440000D01*
X160029000Y-60690000D01*
X159779000Y-60690000D01*
X159779000Y-60440000D01*
G36*
X160029000Y-60440000D02*
G01*
X160279000Y-60440000D01*
X160279000Y-60690000D01*
X160029000Y-60690000D01*
X160029000Y-60440000D01*
G37*
X160029000Y-60440000D02*
X160279000Y-60440000D01*
X160279000Y-60690000D01*
X160029000Y-60690000D01*
X160029000Y-60440000D01*
G36*
X160279000Y-60440000D02*
G01*
X160529000Y-60440000D01*
X160529000Y-60690000D01*
X160279000Y-60690000D01*
X160279000Y-60440000D01*
G37*
X160279000Y-60440000D02*
X160529000Y-60440000D01*
X160529000Y-60690000D01*
X160279000Y-60690000D01*
X160279000Y-60440000D01*
G36*
X160529000Y-60440000D02*
G01*
X160779000Y-60440000D01*
X160779000Y-60690000D01*
X160529000Y-60690000D01*
X160529000Y-60440000D01*
G37*
X160529000Y-60440000D02*
X160779000Y-60440000D01*
X160779000Y-60690000D01*
X160529000Y-60690000D01*
X160529000Y-60440000D01*
G36*
X137279000Y-60690000D02*
G01*
X137529000Y-60690000D01*
X137529000Y-60940000D01*
X137279000Y-60940000D01*
X137279000Y-60690000D01*
G37*
X137279000Y-60690000D02*
X137529000Y-60690000D01*
X137529000Y-60940000D01*
X137279000Y-60940000D01*
X137279000Y-60690000D01*
G36*
X137529000Y-60690000D02*
G01*
X137779000Y-60690000D01*
X137779000Y-60940000D01*
X137529000Y-60940000D01*
X137529000Y-60690000D01*
G37*
X137529000Y-60690000D02*
X137779000Y-60690000D01*
X137779000Y-60940000D01*
X137529000Y-60940000D01*
X137529000Y-60690000D01*
G36*
X140779000Y-60690000D02*
G01*
X141029000Y-60690000D01*
X141029000Y-60940000D01*
X140779000Y-60940000D01*
X140779000Y-60690000D01*
G37*
X140779000Y-60690000D02*
X141029000Y-60690000D01*
X141029000Y-60940000D01*
X140779000Y-60940000D01*
X140779000Y-60690000D01*
G36*
X141029000Y-60690000D02*
G01*
X141279000Y-60690000D01*
X141279000Y-60940000D01*
X141029000Y-60940000D01*
X141029000Y-60690000D01*
G37*
X141029000Y-60690000D02*
X141279000Y-60690000D01*
X141279000Y-60940000D01*
X141029000Y-60940000D01*
X141029000Y-60690000D01*
G36*
X141279000Y-60690000D02*
G01*
X141529000Y-60690000D01*
X141529000Y-60940000D01*
X141279000Y-60940000D01*
X141279000Y-60690000D01*
G37*
X141279000Y-60690000D02*
X141529000Y-60690000D01*
X141529000Y-60940000D01*
X141279000Y-60940000D01*
X141279000Y-60690000D01*
G36*
X141529000Y-60690000D02*
G01*
X141779000Y-60690000D01*
X141779000Y-60940000D01*
X141529000Y-60940000D01*
X141529000Y-60690000D01*
G37*
X141529000Y-60690000D02*
X141779000Y-60690000D01*
X141779000Y-60940000D01*
X141529000Y-60940000D01*
X141529000Y-60690000D01*
G36*
X143279000Y-60690000D02*
G01*
X143529000Y-60690000D01*
X143529000Y-60940000D01*
X143279000Y-60940000D01*
X143279000Y-60690000D01*
G37*
X143279000Y-60690000D02*
X143529000Y-60690000D01*
X143529000Y-60940000D01*
X143279000Y-60940000D01*
X143279000Y-60690000D01*
G36*
X143529000Y-60690000D02*
G01*
X143779000Y-60690000D01*
X143779000Y-60940000D01*
X143529000Y-60940000D01*
X143529000Y-60690000D01*
G37*
X143529000Y-60690000D02*
X143779000Y-60690000D01*
X143779000Y-60940000D01*
X143529000Y-60940000D01*
X143529000Y-60690000D01*
G36*
X145279000Y-60690000D02*
G01*
X145529000Y-60690000D01*
X145529000Y-60940000D01*
X145279000Y-60940000D01*
X145279000Y-60690000D01*
G37*
X145279000Y-60690000D02*
X145529000Y-60690000D01*
X145529000Y-60940000D01*
X145279000Y-60940000D01*
X145279000Y-60690000D01*
G36*
X145529000Y-60690000D02*
G01*
X145779000Y-60690000D01*
X145779000Y-60940000D01*
X145529000Y-60940000D01*
X145529000Y-60690000D01*
G37*
X145529000Y-60690000D02*
X145779000Y-60690000D01*
X145779000Y-60940000D01*
X145529000Y-60940000D01*
X145529000Y-60690000D01*
G36*
X146779000Y-60690000D02*
G01*
X147029000Y-60690000D01*
X147029000Y-60940000D01*
X146779000Y-60940000D01*
X146779000Y-60690000D01*
G37*
X146779000Y-60690000D02*
X147029000Y-60690000D01*
X147029000Y-60940000D01*
X146779000Y-60940000D01*
X146779000Y-60690000D01*
G36*
X147029000Y-60690000D02*
G01*
X147279000Y-60690000D01*
X147279000Y-60940000D01*
X147029000Y-60940000D01*
X147029000Y-60690000D01*
G37*
X147029000Y-60690000D02*
X147279000Y-60690000D01*
X147279000Y-60940000D01*
X147029000Y-60940000D01*
X147029000Y-60690000D01*
G36*
X150279000Y-60690000D02*
G01*
X150529000Y-60690000D01*
X150529000Y-60940000D01*
X150279000Y-60940000D01*
X150279000Y-60690000D01*
G37*
X150279000Y-60690000D02*
X150529000Y-60690000D01*
X150529000Y-60940000D01*
X150279000Y-60940000D01*
X150279000Y-60690000D01*
G36*
X150529000Y-60690000D02*
G01*
X150779000Y-60690000D01*
X150779000Y-60940000D01*
X150529000Y-60940000D01*
X150529000Y-60690000D01*
G37*
X150529000Y-60690000D02*
X150779000Y-60690000D01*
X150779000Y-60940000D01*
X150529000Y-60940000D01*
X150529000Y-60690000D01*
G36*
X154279000Y-60690000D02*
G01*
X154529000Y-60690000D01*
X154529000Y-60940000D01*
X154279000Y-60940000D01*
X154279000Y-60690000D01*
G37*
X154279000Y-60690000D02*
X154529000Y-60690000D01*
X154529000Y-60940000D01*
X154279000Y-60940000D01*
X154279000Y-60690000D01*
G36*
X154529000Y-60690000D02*
G01*
X154779000Y-60690000D01*
X154779000Y-60940000D01*
X154529000Y-60940000D01*
X154529000Y-60690000D01*
G37*
X154529000Y-60690000D02*
X154779000Y-60690000D01*
X154779000Y-60940000D01*
X154529000Y-60940000D01*
X154529000Y-60690000D01*
G36*
X155779000Y-60690000D02*
G01*
X156029000Y-60690000D01*
X156029000Y-60940000D01*
X155779000Y-60940000D01*
X155779000Y-60690000D01*
G37*
X155779000Y-60690000D02*
X156029000Y-60690000D01*
X156029000Y-60940000D01*
X155779000Y-60940000D01*
X155779000Y-60690000D01*
G36*
X156029000Y-60690000D02*
G01*
X156279000Y-60690000D01*
X156279000Y-60940000D01*
X156029000Y-60940000D01*
X156029000Y-60690000D01*
G37*
X156029000Y-60690000D02*
X156279000Y-60690000D01*
X156279000Y-60940000D01*
X156029000Y-60940000D01*
X156029000Y-60690000D01*
G36*
X156279000Y-60690000D02*
G01*
X156529000Y-60690000D01*
X156529000Y-60940000D01*
X156279000Y-60940000D01*
X156279000Y-60690000D01*
G37*
X156279000Y-60690000D02*
X156529000Y-60690000D01*
X156529000Y-60940000D01*
X156279000Y-60940000D01*
X156279000Y-60690000D01*
G36*
X156529000Y-60690000D02*
G01*
X156779000Y-60690000D01*
X156779000Y-60940000D01*
X156529000Y-60940000D01*
X156529000Y-60690000D01*
G37*
X156529000Y-60690000D02*
X156779000Y-60690000D01*
X156779000Y-60940000D01*
X156529000Y-60940000D01*
X156529000Y-60690000D01*
G36*
X158779000Y-60690000D02*
G01*
X159029000Y-60690000D01*
X159029000Y-60940000D01*
X158779000Y-60940000D01*
X158779000Y-60690000D01*
G37*
X158779000Y-60690000D02*
X159029000Y-60690000D01*
X159029000Y-60940000D01*
X158779000Y-60940000D01*
X158779000Y-60690000D01*
G36*
X159029000Y-60690000D02*
G01*
X159279000Y-60690000D01*
X159279000Y-60940000D01*
X159029000Y-60940000D01*
X159029000Y-60690000D01*
G37*
X159029000Y-60690000D02*
X159279000Y-60690000D01*
X159279000Y-60940000D01*
X159029000Y-60940000D01*
X159029000Y-60690000D01*
G36*
X137279000Y-60940000D02*
G01*
X137529000Y-60940000D01*
X137529000Y-61190000D01*
X137279000Y-61190000D01*
X137279000Y-60940000D01*
G37*
X137279000Y-60940000D02*
X137529000Y-60940000D01*
X137529000Y-61190000D01*
X137279000Y-61190000D01*
X137279000Y-60940000D01*
G36*
X137529000Y-60940000D02*
G01*
X137779000Y-60940000D01*
X137779000Y-61190000D01*
X137529000Y-61190000D01*
X137529000Y-60940000D01*
G37*
X137529000Y-60940000D02*
X137779000Y-60940000D01*
X137779000Y-61190000D01*
X137529000Y-61190000D01*
X137529000Y-60940000D01*
G36*
X140779000Y-60940000D02*
G01*
X141029000Y-60940000D01*
X141029000Y-61190000D01*
X140779000Y-61190000D01*
X140779000Y-60940000D01*
G37*
X140779000Y-60940000D02*
X141029000Y-60940000D01*
X141029000Y-61190000D01*
X140779000Y-61190000D01*
X140779000Y-60940000D01*
G36*
X141029000Y-60940000D02*
G01*
X141279000Y-60940000D01*
X141279000Y-61190000D01*
X141029000Y-61190000D01*
X141029000Y-60940000D01*
G37*
X141029000Y-60940000D02*
X141279000Y-60940000D01*
X141279000Y-61190000D01*
X141029000Y-61190000D01*
X141029000Y-60940000D01*
G36*
X141279000Y-60940000D02*
G01*
X141529000Y-60940000D01*
X141529000Y-61190000D01*
X141279000Y-61190000D01*
X141279000Y-60940000D01*
G37*
X141279000Y-60940000D02*
X141529000Y-60940000D01*
X141529000Y-61190000D01*
X141279000Y-61190000D01*
X141279000Y-60940000D01*
G36*
X141529000Y-60940000D02*
G01*
X141779000Y-60940000D01*
X141779000Y-61190000D01*
X141529000Y-61190000D01*
X141529000Y-60940000D01*
G37*
X141529000Y-60940000D02*
X141779000Y-60940000D01*
X141779000Y-61190000D01*
X141529000Y-61190000D01*
X141529000Y-60940000D01*
G36*
X143279000Y-60940000D02*
G01*
X143529000Y-60940000D01*
X143529000Y-61190000D01*
X143279000Y-61190000D01*
X143279000Y-60940000D01*
G37*
X143279000Y-60940000D02*
X143529000Y-60940000D01*
X143529000Y-61190000D01*
X143279000Y-61190000D01*
X143279000Y-60940000D01*
G36*
X143529000Y-60940000D02*
G01*
X143779000Y-60940000D01*
X143779000Y-61190000D01*
X143529000Y-61190000D01*
X143529000Y-60940000D01*
G37*
X143529000Y-60940000D02*
X143779000Y-60940000D01*
X143779000Y-61190000D01*
X143529000Y-61190000D01*
X143529000Y-60940000D01*
G36*
X145279000Y-60940000D02*
G01*
X145529000Y-60940000D01*
X145529000Y-61190000D01*
X145279000Y-61190000D01*
X145279000Y-60940000D01*
G37*
X145279000Y-60940000D02*
X145529000Y-60940000D01*
X145529000Y-61190000D01*
X145279000Y-61190000D01*
X145279000Y-60940000D01*
G36*
X145529000Y-60940000D02*
G01*
X145779000Y-60940000D01*
X145779000Y-61190000D01*
X145529000Y-61190000D01*
X145529000Y-60940000D01*
G37*
X145529000Y-60940000D02*
X145779000Y-60940000D01*
X145779000Y-61190000D01*
X145529000Y-61190000D01*
X145529000Y-60940000D01*
G36*
X146779000Y-60940000D02*
G01*
X147029000Y-60940000D01*
X147029000Y-61190000D01*
X146779000Y-61190000D01*
X146779000Y-60940000D01*
G37*
X146779000Y-60940000D02*
X147029000Y-60940000D01*
X147029000Y-61190000D01*
X146779000Y-61190000D01*
X146779000Y-60940000D01*
G36*
X147029000Y-60940000D02*
G01*
X147279000Y-60940000D01*
X147279000Y-61190000D01*
X147029000Y-61190000D01*
X147029000Y-60940000D01*
G37*
X147029000Y-60940000D02*
X147279000Y-60940000D01*
X147279000Y-61190000D01*
X147029000Y-61190000D01*
X147029000Y-60940000D01*
G36*
X150279000Y-60940000D02*
G01*
X150529000Y-60940000D01*
X150529000Y-61190000D01*
X150279000Y-61190000D01*
X150279000Y-60940000D01*
G37*
X150279000Y-60940000D02*
X150529000Y-60940000D01*
X150529000Y-61190000D01*
X150279000Y-61190000D01*
X150279000Y-60940000D01*
G36*
X150529000Y-60940000D02*
G01*
X150779000Y-60940000D01*
X150779000Y-61190000D01*
X150529000Y-61190000D01*
X150529000Y-60940000D01*
G37*
X150529000Y-60940000D02*
X150779000Y-60940000D01*
X150779000Y-61190000D01*
X150529000Y-61190000D01*
X150529000Y-60940000D01*
G36*
X154279000Y-60940000D02*
G01*
X154529000Y-60940000D01*
X154529000Y-61190000D01*
X154279000Y-61190000D01*
X154279000Y-60940000D01*
G37*
X154279000Y-60940000D02*
X154529000Y-60940000D01*
X154529000Y-61190000D01*
X154279000Y-61190000D01*
X154279000Y-60940000D01*
G36*
X154529000Y-60940000D02*
G01*
X154779000Y-60940000D01*
X154779000Y-61190000D01*
X154529000Y-61190000D01*
X154529000Y-60940000D01*
G37*
X154529000Y-60940000D02*
X154779000Y-60940000D01*
X154779000Y-61190000D01*
X154529000Y-61190000D01*
X154529000Y-60940000D01*
G36*
X155779000Y-60940000D02*
G01*
X156029000Y-60940000D01*
X156029000Y-61190000D01*
X155779000Y-61190000D01*
X155779000Y-60940000D01*
G37*
X155779000Y-60940000D02*
X156029000Y-60940000D01*
X156029000Y-61190000D01*
X155779000Y-61190000D01*
X155779000Y-60940000D01*
G36*
X156029000Y-60940000D02*
G01*
X156279000Y-60940000D01*
X156279000Y-61190000D01*
X156029000Y-61190000D01*
X156029000Y-60940000D01*
G37*
X156029000Y-60940000D02*
X156279000Y-60940000D01*
X156279000Y-61190000D01*
X156029000Y-61190000D01*
X156029000Y-60940000D01*
G36*
X156279000Y-60940000D02*
G01*
X156529000Y-60940000D01*
X156529000Y-61190000D01*
X156279000Y-61190000D01*
X156279000Y-60940000D01*
G37*
X156279000Y-60940000D02*
X156529000Y-60940000D01*
X156529000Y-61190000D01*
X156279000Y-61190000D01*
X156279000Y-60940000D01*
G36*
X156529000Y-60940000D02*
G01*
X156779000Y-60940000D01*
X156779000Y-61190000D01*
X156529000Y-61190000D01*
X156529000Y-60940000D01*
G37*
X156529000Y-60940000D02*
X156779000Y-60940000D01*
X156779000Y-61190000D01*
X156529000Y-61190000D01*
X156529000Y-60940000D01*
G36*
X158779000Y-60940000D02*
G01*
X159029000Y-60940000D01*
X159029000Y-61190000D01*
X158779000Y-61190000D01*
X158779000Y-60940000D01*
G37*
X158779000Y-60940000D02*
X159029000Y-60940000D01*
X159029000Y-61190000D01*
X158779000Y-61190000D01*
X158779000Y-60940000D01*
G36*
X159029000Y-60940000D02*
G01*
X159279000Y-60940000D01*
X159279000Y-61190000D01*
X159029000Y-61190000D01*
X159029000Y-60940000D01*
G37*
X159029000Y-60940000D02*
X159279000Y-60940000D01*
X159279000Y-61190000D01*
X159029000Y-61190000D01*
X159029000Y-60940000D01*
G36*
X137779000Y-61190000D02*
G01*
X138029000Y-61190000D01*
X138029000Y-61440000D01*
X137779000Y-61440000D01*
X137779000Y-61190000D01*
G37*
X137779000Y-61190000D02*
X138029000Y-61190000D01*
X138029000Y-61440000D01*
X137779000Y-61440000D01*
X137779000Y-61190000D01*
G36*
X138029000Y-61190000D02*
G01*
X138279000Y-61190000D01*
X138279000Y-61440000D01*
X138029000Y-61440000D01*
X138029000Y-61190000D01*
G37*
X138029000Y-61190000D02*
X138279000Y-61190000D01*
X138279000Y-61440000D01*
X138029000Y-61440000D01*
X138029000Y-61190000D01*
G36*
X138279000Y-61190000D02*
G01*
X138529000Y-61190000D01*
X138529000Y-61440000D01*
X138279000Y-61440000D01*
X138279000Y-61190000D01*
G37*
X138279000Y-61190000D02*
X138529000Y-61190000D01*
X138529000Y-61440000D01*
X138279000Y-61440000D01*
X138279000Y-61190000D01*
G36*
X138529000Y-61190000D02*
G01*
X138779000Y-61190000D01*
X138779000Y-61440000D01*
X138529000Y-61440000D01*
X138529000Y-61190000D01*
G37*
X138529000Y-61190000D02*
X138779000Y-61190000D01*
X138779000Y-61440000D01*
X138529000Y-61440000D01*
X138529000Y-61190000D01*
G36*
X138779000Y-61190000D02*
G01*
X139029000Y-61190000D01*
X139029000Y-61440000D01*
X138779000Y-61440000D01*
X138779000Y-61190000D01*
G37*
X138779000Y-61190000D02*
X139029000Y-61190000D01*
X139029000Y-61440000D01*
X138779000Y-61440000D01*
X138779000Y-61190000D01*
G36*
X139029000Y-61190000D02*
G01*
X139279000Y-61190000D01*
X139279000Y-61440000D01*
X139029000Y-61440000D01*
X139029000Y-61190000D01*
G37*
X139029000Y-61190000D02*
X139279000Y-61190000D01*
X139279000Y-61440000D01*
X139029000Y-61440000D01*
X139029000Y-61190000D01*
G36*
X141279000Y-61190000D02*
G01*
X141529000Y-61190000D01*
X141529000Y-61440000D01*
X141279000Y-61440000D01*
X141279000Y-61190000D01*
G37*
X141279000Y-61190000D02*
X141529000Y-61190000D01*
X141529000Y-61440000D01*
X141279000Y-61440000D01*
X141279000Y-61190000D01*
G36*
X141529000Y-61190000D02*
G01*
X141779000Y-61190000D01*
X141779000Y-61440000D01*
X141529000Y-61440000D01*
X141529000Y-61190000D01*
G37*
X141529000Y-61190000D02*
X141779000Y-61190000D01*
X141779000Y-61440000D01*
X141529000Y-61440000D01*
X141529000Y-61190000D01*
G36*
X143279000Y-61190000D02*
G01*
X143529000Y-61190000D01*
X143529000Y-61440000D01*
X143279000Y-61440000D01*
X143279000Y-61190000D01*
G37*
X143279000Y-61190000D02*
X143529000Y-61190000D01*
X143529000Y-61440000D01*
X143279000Y-61440000D01*
X143279000Y-61190000D01*
G36*
X143529000Y-61190000D02*
G01*
X143779000Y-61190000D01*
X143779000Y-61440000D01*
X143529000Y-61440000D01*
X143529000Y-61190000D01*
G37*
X143529000Y-61190000D02*
X143779000Y-61190000D01*
X143779000Y-61440000D01*
X143529000Y-61440000D01*
X143529000Y-61190000D01*
G36*
X145279000Y-61190000D02*
G01*
X145529000Y-61190000D01*
X145529000Y-61440000D01*
X145279000Y-61440000D01*
X145279000Y-61190000D01*
G37*
X145279000Y-61190000D02*
X145529000Y-61190000D01*
X145529000Y-61440000D01*
X145279000Y-61440000D01*
X145279000Y-61190000D01*
G36*
X145529000Y-61190000D02*
G01*
X145779000Y-61190000D01*
X145779000Y-61440000D01*
X145529000Y-61440000D01*
X145529000Y-61190000D01*
G37*
X145529000Y-61190000D02*
X145779000Y-61190000D01*
X145779000Y-61440000D01*
X145529000Y-61440000D01*
X145529000Y-61190000D01*
G36*
X146779000Y-61190000D02*
G01*
X147029000Y-61190000D01*
X147029000Y-61440000D01*
X146779000Y-61440000D01*
X146779000Y-61190000D01*
G37*
X146779000Y-61190000D02*
X147029000Y-61190000D01*
X147029000Y-61440000D01*
X146779000Y-61440000D01*
X146779000Y-61190000D01*
G36*
X147029000Y-61190000D02*
G01*
X147279000Y-61190000D01*
X147279000Y-61440000D01*
X147029000Y-61440000D01*
X147029000Y-61190000D01*
G37*
X147029000Y-61190000D02*
X147279000Y-61190000D01*
X147279000Y-61440000D01*
X147029000Y-61440000D01*
X147029000Y-61190000D01*
G36*
X150279000Y-61190000D02*
G01*
X150529000Y-61190000D01*
X150529000Y-61440000D01*
X150279000Y-61440000D01*
X150279000Y-61190000D01*
G37*
X150279000Y-61190000D02*
X150529000Y-61190000D01*
X150529000Y-61440000D01*
X150279000Y-61440000D01*
X150279000Y-61190000D01*
G36*
X150529000Y-61190000D02*
G01*
X150779000Y-61190000D01*
X150779000Y-61440000D01*
X150529000Y-61440000D01*
X150529000Y-61190000D01*
G37*
X150529000Y-61190000D02*
X150779000Y-61190000D01*
X150779000Y-61440000D01*
X150529000Y-61440000D01*
X150529000Y-61190000D01*
G36*
X152779000Y-61190000D02*
G01*
X153029000Y-61190000D01*
X153029000Y-61440000D01*
X152779000Y-61440000D01*
X152779000Y-61190000D01*
G37*
X152779000Y-61190000D02*
X153029000Y-61190000D01*
X153029000Y-61440000D01*
X152779000Y-61440000D01*
X152779000Y-61190000D01*
G36*
X153029000Y-61190000D02*
G01*
X153279000Y-61190000D01*
X153279000Y-61440000D01*
X153029000Y-61440000D01*
X153029000Y-61190000D01*
G37*
X153029000Y-61190000D02*
X153279000Y-61190000D01*
X153279000Y-61440000D01*
X153029000Y-61440000D01*
X153029000Y-61190000D01*
G36*
X153279000Y-61190000D02*
G01*
X153529000Y-61190000D01*
X153529000Y-61440000D01*
X153279000Y-61440000D01*
X153279000Y-61190000D01*
G37*
X153279000Y-61190000D02*
X153529000Y-61190000D01*
X153529000Y-61440000D01*
X153279000Y-61440000D01*
X153279000Y-61190000D01*
G36*
X153529000Y-61190000D02*
G01*
X153779000Y-61190000D01*
X153779000Y-61440000D01*
X153529000Y-61440000D01*
X153529000Y-61190000D01*
G37*
X153529000Y-61190000D02*
X153779000Y-61190000D01*
X153779000Y-61440000D01*
X153529000Y-61440000D01*
X153529000Y-61190000D01*
G36*
X153779000Y-61190000D02*
G01*
X154029000Y-61190000D01*
X154029000Y-61440000D01*
X153779000Y-61440000D01*
X153779000Y-61190000D01*
G37*
X153779000Y-61190000D02*
X154029000Y-61190000D01*
X154029000Y-61440000D01*
X153779000Y-61440000D01*
X153779000Y-61190000D01*
G36*
X154029000Y-61190000D02*
G01*
X154279000Y-61190000D01*
X154279000Y-61440000D01*
X154029000Y-61440000D01*
X154029000Y-61190000D01*
G37*
X154029000Y-61190000D02*
X154279000Y-61190000D01*
X154279000Y-61440000D01*
X154029000Y-61440000D01*
X154029000Y-61190000D01*
G36*
X154279000Y-61190000D02*
G01*
X154529000Y-61190000D01*
X154529000Y-61440000D01*
X154279000Y-61440000D01*
X154279000Y-61190000D01*
G37*
X154279000Y-61190000D02*
X154529000Y-61190000D01*
X154529000Y-61440000D01*
X154279000Y-61440000D01*
X154279000Y-61190000D01*
G36*
X154529000Y-61190000D02*
G01*
X154779000Y-61190000D01*
X154779000Y-61440000D01*
X154529000Y-61440000D01*
X154529000Y-61190000D01*
G37*
X154529000Y-61190000D02*
X154779000Y-61190000D01*
X154779000Y-61440000D01*
X154529000Y-61440000D01*
X154529000Y-61190000D01*
G36*
X156279000Y-61190000D02*
G01*
X156529000Y-61190000D01*
X156529000Y-61440000D01*
X156279000Y-61440000D01*
X156279000Y-61190000D01*
G37*
X156279000Y-61190000D02*
X156529000Y-61190000D01*
X156529000Y-61440000D01*
X156279000Y-61440000D01*
X156279000Y-61190000D01*
G36*
X156529000Y-61190000D02*
G01*
X156779000Y-61190000D01*
X156779000Y-61440000D01*
X156529000Y-61440000D01*
X156529000Y-61190000D01*
G37*
X156529000Y-61190000D02*
X156779000Y-61190000D01*
X156779000Y-61440000D01*
X156529000Y-61440000D01*
X156529000Y-61190000D01*
G36*
X158779000Y-61190000D02*
G01*
X159029000Y-61190000D01*
X159029000Y-61440000D01*
X158779000Y-61440000D01*
X158779000Y-61190000D01*
G37*
X158779000Y-61190000D02*
X159029000Y-61190000D01*
X159029000Y-61440000D01*
X158779000Y-61440000D01*
X158779000Y-61190000D01*
G36*
X159029000Y-61190000D02*
G01*
X159279000Y-61190000D01*
X159279000Y-61440000D01*
X159029000Y-61440000D01*
X159029000Y-61190000D01*
G37*
X159029000Y-61190000D02*
X159279000Y-61190000D01*
X159279000Y-61440000D01*
X159029000Y-61440000D01*
X159029000Y-61190000D01*
G36*
X137779000Y-61440000D02*
G01*
X138029000Y-61440000D01*
X138029000Y-61690000D01*
X137779000Y-61690000D01*
X137779000Y-61440000D01*
G37*
X137779000Y-61440000D02*
X138029000Y-61440000D01*
X138029000Y-61690000D01*
X137779000Y-61690000D01*
X137779000Y-61440000D01*
G36*
X138029000Y-61440000D02*
G01*
X138279000Y-61440000D01*
X138279000Y-61690000D01*
X138029000Y-61690000D01*
X138029000Y-61440000D01*
G37*
X138029000Y-61440000D02*
X138279000Y-61440000D01*
X138279000Y-61690000D01*
X138029000Y-61690000D01*
X138029000Y-61440000D01*
G36*
X138279000Y-61440000D02*
G01*
X138529000Y-61440000D01*
X138529000Y-61690000D01*
X138279000Y-61690000D01*
X138279000Y-61440000D01*
G37*
X138279000Y-61440000D02*
X138529000Y-61440000D01*
X138529000Y-61690000D01*
X138279000Y-61690000D01*
X138279000Y-61440000D01*
G36*
X138529000Y-61440000D02*
G01*
X138779000Y-61440000D01*
X138779000Y-61690000D01*
X138529000Y-61690000D01*
X138529000Y-61440000D01*
G37*
X138529000Y-61440000D02*
X138779000Y-61440000D01*
X138779000Y-61690000D01*
X138529000Y-61690000D01*
X138529000Y-61440000D01*
G36*
X138779000Y-61440000D02*
G01*
X139029000Y-61440000D01*
X139029000Y-61690000D01*
X138779000Y-61690000D01*
X138779000Y-61440000D01*
G37*
X138779000Y-61440000D02*
X139029000Y-61440000D01*
X139029000Y-61690000D01*
X138779000Y-61690000D01*
X138779000Y-61440000D01*
G36*
X139029000Y-61440000D02*
G01*
X139279000Y-61440000D01*
X139279000Y-61690000D01*
X139029000Y-61690000D01*
X139029000Y-61440000D01*
G37*
X139029000Y-61440000D02*
X139279000Y-61440000D01*
X139279000Y-61690000D01*
X139029000Y-61690000D01*
X139029000Y-61440000D01*
G36*
X141279000Y-61440000D02*
G01*
X141529000Y-61440000D01*
X141529000Y-61690000D01*
X141279000Y-61690000D01*
X141279000Y-61440000D01*
G37*
X141279000Y-61440000D02*
X141529000Y-61440000D01*
X141529000Y-61690000D01*
X141279000Y-61690000D01*
X141279000Y-61440000D01*
G36*
X141529000Y-61440000D02*
G01*
X141779000Y-61440000D01*
X141779000Y-61690000D01*
X141529000Y-61690000D01*
X141529000Y-61440000D01*
G37*
X141529000Y-61440000D02*
X141779000Y-61440000D01*
X141779000Y-61690000D01*
X141529000Y-61690000D01*
X141529000Y-61440000D01*
G36*
X143279000Y-61440000D02*
G01*
X143529000Y-61440000D01*
X143529000Y-61690000D01*
X143279000Y-61690000D01*
X143279000Y-61440000D01*
G37*
X143279000Y-61440000D02*
X143529000Y-61440000D01*
X143529000Y-61690000D01*
X143279000Y-61690000D01*
X143279000Y-61440000D01*
G36*
X143529000Y-61440000D02*
G01*
X143779000Y-61440000D01*
X143779000Y-61690000D01*
X143529000Y-61690000D01*
X143529000Y-61440000D01*
G37*
X143529000Y-61440000D02*
X143779000Y-61440000D01*
X143779000Y-61690000D01*
X143529000Y-61690000D01*
X143529000Y-61440000D01*
G36*
X145279000Y-61440000D02*
G01*
X145529000Y-61440000D01*
X145529000Y-61690000D01*
X145279000Y-61690000D01*
X145279000Y-61440000D01*
G37*
X145279000Y-61440000D02*
X145529000Y-61440000D01*
X145529000Y-61690000D01*
X145279000Y-61690000D01*
X145279000Y-61440000D01*
G36*
X145529000Y-61440000D02*
G01*
X145779000Y-61440000D01*
X145779000Y-61690000D01*
X145529000Y-61690000D01*
X145529000Y-61440000D01*
G37*
X145529000Y-61440000D02*
X145779000Y-61440000D01*
X145779000Y-61690000D01*
X145529000Y-61690000D01*
X145529000Y-61440000D01*
G36*
X146779000Y-61440000D02*
G01*
X147029000Y-61440000D01*
X147029000Y-61690000D01*
X146779000Y-61690000D01*
X146779000Y-61440000D01*
G37*
X146779000Y-61440000D02*
X147029000Y-61440000D01*
X147029000Y-61690000D01*
X146779000Y-61690000D01*
X146779000Y-61440000D01*
G36*
X147029000Y-61440000D02*
G01*
X147279000Y-61440000D01*
X147279000Y-61690000D01*
X147029000Y-61690000D01*
X147029000Y-61440000D01*
G37*
X147029000Y-61440000D02*
X147279000Y-61440000D01*
X147279000Y-61690000D01*
X147029000Y-61690000D01*
X147029000Y-61440000D01*
G36*
X150279000Y-61440000D02*
G01*
X150529000Y-61440000D01*
X150529000Y-61690000D01*
X150279000Y-61690000D01*
X150279000Y-61440000D01*
G37*
X150279000Y-61440000D02*
X150529000Y-61440000D01*
X150529000Y-61690000D01*
X150279000Y-61690000D01*
X150279000Y-61440000D01*
G36*
X150529000Y-61440000D02*
G01*
X150779000Y-61440000D01*
X150779000Y-61690000D01*
X150529000Y-61690000D01*
X150529000Y-61440000D01*
G37*
X150529000Y-61440000D02*
X150779000Y-61440000D01*
X150779000Y-61690000D01*
X150529000Y-61690000D01*
X150529000Y-61440000D01*
G36*
X152779000Y-61440000D02*
G01*
X153029000Y-61440000D01*
X153029000Y-61690000D01*
X152779000Y-61690000D01*
X152779000Y-61440000D01*
G37*
X152779000Y-61440000D02*
X153029000Y-61440000D01*
X153029000Y-61690000D01*
X152779000Y-61690000D01*
X152779000Y-61440000D01*
G36*
X153029000Y-61440000D02*
G01*
X153279000Y-61440000D01*
X153279000Y-61690000D01*
X153029000Y-61690000D01*
X153029000Y-61440000D01*
G37*
X153029000Y-61440000D02*
X153279000Y-61440000D01*
X153279000Y-61690000D01*
X153029000Y-61690000D01*
X153029000Y-61440000D01*
G36*
X153279000Y-61440000D02*
G01*
X153529000Y-61440000D01*
X153529000Y-61690000D01*
X153279000Y-61690000D01*
X153279000Y-61440000D01*
G37*
X153279000Y-61440000D02*
X153529000Y-61440000D01*
X153529000Y-61690000D01*
X153279000Y-61690000D01*
X153279000Y-61440000D01*
G36*
X153529000Y-61440000D02*
G01*
X153779000Y-61440000D01*
X153779000Y-61690000D01*
X153529000Y-61690000D01*
X153529000Y-61440000D01*
G37*
X153529000Y-61440000D02*
X153779000Y-61440000D01*
X153779000Y-61690000D01*
X153529000Y-61690000D01*
X153529000Y-61440000D01*
G36*
X153779000Y-61440000D02*
G01*
X154029000Y-61440000D01*
X154029000Y-61690000D01*
X153779000Y-61690000D01*
X153779000Y-61440000D01*
G37*
X153779000Y-61440000D02*
X154029000Y-61440000D01*
X154029000Y-61690000D01*
X153779000Y-61690000D01*
X153779000Y-61440000D01*
G36*
X154029000Y-61440000D02*
G01*
X154279000Y-61440000D01*
X154279000Y-61690000D01*
X154029000Y-61690000D01*
X154029000Y-61440000D01*
G37*
X154029000Y-61440000D02*
X154279000Y-61440000D01*
X154279000Y-61690000D01*
X154029000Y-61690000D01*
X154029000Y-61440000D01*
G36*
X154279000Y-61440000D02*
G01*
X154529000Y-61440000D01*
X154529000Y-61690000D01*
X154279000Y-61690000D01*
X154279000Y-61440000D01*
G37*
X154279000Y-61440000D02*
X154529000Y-61440000D01*
X154529000Y-61690000D01*
X154279000Y-61690000D01*
X154279000Y-61440000D01*
G36*
X154529000Y-61440000D02*
G01*
X154779000Y-61440000D01*
X154779000Y-61690000D01*
X154529000Y-61690000D01*
X154529000Y-61440000D01*
G37*
X154529000Y-61440000D02*
X154779000Y-61440000D01*
X154779000Y-61690000D01*
X154529000Y-61690000D01*
X154529000Y-61440000D01*
G36*
X156279000Y-61440000D02*
G01*
X156529000Y-61440000D01*
X156529000Y-61690000D01*
X156279000Y-61690000D01*
X156279000Y-61440000D01*
G37*
X156279000Y-61440000D02*
X156529000Y-61440000D01*
X156529000Y-61690000D01*
X156279000Y-61690000D01*
X156279000Y-61440000D01*
G36*
X156529000Y-61440000D02*
G01*
X156779000Y-61440000D01*
X156779000Y-61690000D01*
X156529000Y-61690000D01*
X156529000Y-61440000D01*
G37*
X156529000Y-61440000D02*
X156779000Y-61440000D01*
X156779000Y-61690000D01*
X156529000Y-61690000D01*
X156529000Y-61440000D01*
G36*
X158779000Y-61440000D02*
G01*
X159029000Y-61440000D01*
X159029000Y-61690000D01*
X158779000Y-61690000D01*
X158779000Y-61440000D01*
G37*
X158779000Y-61440000D02*
X159029000Y-61440000D01*
X159029000Y-61690000D01*
X158779000Y-61690000D01*
X158779000Y-61440000D01*
G36*
X159029000Y-61440000D02*
G01*
X159279000Y-61440000D01*
X159279000Y-61690000D01*
X159029000Y-61690000D01*
X159029000Y-61440000D01*
G37*
X159029000Y-61440000D02*
X159279000Y-61440000D01*
X159279000Y-61690000D01*
X159029000Y-61690000D01*
X159029000Y-61440000D01*
G36*
X139279000Y-61690000D02*
G01*
X139529000Y-61690000D01*
X139529000Y-61940000D01*
X139279000Y-61940000D01*
X139279000Y-61690000D01*
G37*
X139279000Y-61690000D02*
X139529000Y-61690000D01*
X139529000Y-61940000D01*
X139279000Y-61940000D01*
X139279000Y-61690000D01*
G36*
X139529000Y-61690000D02*
G01*
X139779000Y-61690000D01*
X139779000Y-61940000D01*
X139529000Y-61940000D01*
X139529000Y-61690000D01*
G37*
X139529000Y-61690000D02*
X139779000Y-61690000D01*
X139779000Y-61940000D01*
X139529000Y-61940000D01*
X139529000Y-61690000D01*
G36*
X141279000Y-61690000D02*
G01*
X141529000Y-61690000D01*
X141529000Y-61940000D01*
X141279000Y-61940000D01*
X141279000Y-61690000D01*
G37*
X141279000Y-61690000D02*
X141529000Y-61690000D01*
X141529000Y-61940000D01*
X141279000Y-61940000D01*
X141279000Y-61690000D01*
G36*
X141529000Y-61690000D02*
G01*
X141779000Y-61690000D01*
X141779000Y-61940000D01*
X141529000Y-61940000D01*
X141529000Y-61690000D01*
G37*
X141529000Y-61690000D02*
X141779000Y-61690000D01*
X141779000Y-61940000D01*
X141529000Y-61940000D01*
X141529000Y-61690000D01*
G36*
X143279000Y-61690000D02*
G01*
X143529000Y-61690000D01*
X143529000Y-61940000D01*
X143279000Y-61940000D01*
X143279000Y-61690000D01*
G37*
X143279000Y-61690000D02*
X143529000Y-61690000D01*
X143529000Y-61940000D01*
X143279000Y-61940000D01*
X143279000Y-61690000D01*
G36*
X143529000Y-61690000D02*
G01*
X143779000Y-61690000D01*
X143779000Y-61940000D01*
X143529000Y-61940000D01*
X143529000Y-61690000D01*
G37*
X143529000Y-61690000D02*
X143779000Y-61690000D01*
X143779000Y-61940000D01*
X143529000Y-61940000D01*
X143529000Y-61690000D01*
G36*
X145279000Y-61690000D02*
G01*
X145529000Y-61690000D01*
X145529000Y-61940000D01*
X145279000Y-61940000D01*
X145279000Y-61690000D01*
G37*
X145279000Y-61690000D02*
X145529000Y-61690000D01*
X145529000Y-61940000D01*
X145279000Y-61940000D01*
X145279000Y-61690000D01*
G36*
X145529000Y-61690000D02*
G01*
X145779000Y-61690000D01*
X145779000Y-61940000D01*
X145529000Y-61940000D01*
X145529000Y-61690000D01*
G37*
X145529000Y-61690000D02*
X145779000Y-61690000D01*
X145779000Y-61940000D01*
X145529000Y-61940000D01*
X145529000Y-61690000D01*
G36*
X146779000Y-61690000D02*
G01*
X147029000Y-61690000D01*
X147029000Y-61940000D01*
X146779000Y-61940000D01*
X146779000Y-61690000D01*
G37*
X146779000Y-61690000D02*
X147029000Y-61690000D01*
X147029000Y-61940000D01*
X146779000Y-61940000D01*
X146779000Y-61690000D01*
G36*
X147029000Y-61690000D02*
G01*
X147279000Y-61690000D01*
X147279000Y-61940000D01*
X147029000Y-61940000D01*
X147029000Y-61690000D01*
G37*
X147029000Y-61690000D02*
X147279000Y-61690000D01*
X147279000Y-61940000D01*
X147029000Y-61940000D01*
X147029000Y-61690000D01*
G36*
X150279000Y-61690000D02*
G01*
X150529000Y-61690000D01*
X150529000Y-61940000D01*
X150279000Y-61940000D01*
X150279000Y-61690000D01*
G37*
X150279000Y-61690000D02*
X150529000Y-61690000D01*
X150529000Y-61940000D01*
X150279000Y-61940000D01*
X150279000Y-61690000D01*
G36*
X150529000Y-61690000D02*
G01*
X150779000Y-61690000D01*
X150779000Y-61940000D01*
X150529000Y-61940000D01*
X150529000Y-61690000D01*
G37*
X150529000Y-61690000D02*
X150779000Y-61690000D01*
X150779000Y-61940000D01*
X150529000Y-61940000D01*
X150529000Y-61690000D01*
G36*
X152279000Y-61690000D02*
G01*
X152529000Y-61690000D01*
X152529000Y-61940000D01*
X152279000Y-61940000D01*
X152279000Y-61690000D01*
G37*
X152279000Y-61690000D02*
X152529000Y-61690000D01*
X152529000Y-61940000D01*
X152279000Y-61940000D01*
X152279000Y-61690000D01*
G36*
X152529000Y-61690000D02*
G01*
X152779000Y-61690000D01*
X152779000Y-61940000D01*
X152529000Y-61940000D01*
X152529000Y-61690000D01*
G37*
X152529000Y-61690000D02*
X152779000Y-61690000D01*
X152779000Y-61940000D01*
X152529000Y-61940000D01*
X152529000Y-61690000D01*
G36*
X154279000Y-61690000D02*
G01*
X154529000Y-61690000D01*
X154529000Y-61940000D01*
X154279000Y-61940000D01*
X154279000Y-61690000D01*
G37*
X154279000Y-61690000D02*
X154529000Y-61690000D01*
X154529000Y-61940000D01*
X154279000Y-61940000D01*
X154279000Y-61690000D01*
G36*
X154529000Y-61690000D02*
G01*
X154779000Y-61690000D01*
X154779000Y-61940000D01*
X154529000Y-61940000D01*
X154529000Y-61690000D01*
G37*
X154529000Y-61690000D02*
X154779000Y-61690000D01*
X154779000Y-61940000D01*
X154529000Y-61940000D01*
X154529000Y-61690000D01*
G36*
X156279000Y-61690000D02*
G01*
X156529000Y-61690000D01*
X156529000Y-61940000D01*
X156279000Y-61940000D01*
X156279000Y-61690000D01*
G37*
X156279000Y-61690000D02*
X156529000Y-61690000D01*
X156529000Y-61940000D01*
X156279000Y-61940000D01*
X156279000Y-61690000D01*
G36*
X156529000Y-61690000D02*
G01*
X156779000Y-61690000D01*
X156779000Y-61940000D01*
X156529000Y-61940000D01*
X156529000Y-61690000D01*
G37*
X156529000Y-61690000D02*
X156779000Y-61690000D01*
X156779000Y-61940000D01*
X156529000Y-61940000D01*
X156529000Y-61690000D01*
G36*
X158779000Y-61690000D02*
G01*
X159029000Y-61690000D01*
X159029000Y-61940000D01*
X158779000Y-61940000D01*
X158779000Y-61690000D01*
G37*
X158779000Y-61690000D02*
X159029000Y-61690000D01*
X159029000Y-61940000D01*
X158779000Y-61940000D01*
X158779000Y-61690000D01*
G36*
X159029000Y-61690000D02*
G01*
X159279000Y-61690000D01*
X159279000Y-61940000D01*
X159029000Y-61940000D01*
X159029000Y-61690000D01*
G37*
X159029000Y-61690000D02*
X159279000Y-61690000D01*
X159279000Y-61940000D01*
X159029000Y-61940000D01*
X159029000Y-61690000D01*
G36*
X139279000Y-61940000D02*
G01*
X139529000Y-61940000D01*
X139529000Y-62190000D01*
X139279000Y-62190000D01*
X139279000Y-61940000D01*
G37*
X139279000Y-61940000D02*
X139529000Y-61940000D01*
X139529000Y-62190000D01*
X139279000Y-62190000D01*
X139279000Y-61940000D01*
G36*
X139529000Y-61940000D02*
G01*
X139779000Y-61940000D01*
X139779000Y-62190000D01*
X139529000Y-62190000D01*
X139529000Y-61940000D01*
G37*
X139529000Y-61940000D02*
X139779000Y-61940000D01*
X139779000Y-62190000D01*
X139529000Y-62190000D01*
X139529000Y-61940000D01*
G36*
X141279000Y-61940000D02*
G01*
X141529000Y-61940000D01*
X141529000Y-62190000D01*
X141279000Y-62190000D01*
X141279000Y-61940000D01*
G37*
X141279000Y-61940000D02*
X141529000Y-61940000D01*
X141529000Y-62190000D01*
X141279000Y-62190000D01*
X141279000Y-61940000D01*
G36*
X141529000Y-61940000D02*
G01*
X141779000Y-61940000D01*
X141779000Y-62190000D01*
X141529000Y-62190000D01*
X141529000Y-61940000D01*
G37*
X141529000Y-61940000D02*
X141779000Y-61940000D01*
X141779000Y-62190000D01*
X141529000Y-62190000D01*
X141529000Y-61940000D01*
G36*
X143279000Y-61940000D02*
G01*
X143529000Y-61940000D01*
X143529000Y-62190000D01*
X143279000Y-62190000D01*
X143279000Y-61940000D01*
G37*
X143279000Y-61940000D02*
X143529000Y-61940000D01*
X143529000Y-62190000D01*
X143279000Y-62190000D01*
X143279000Y-61940000D01*
G36*
X143529000Y-61940000D02*
G01*
X143779000Y-61940000D01*
X143779000Y-62190000D01*
X143529000Y-62190000D01*
X143529000Y-61940000D01*
G37*
X143529000Y-61940000D02*
X143779000Y-61940000D01*
X143779000Y-62190000D01*
X143529000Y-62190000D01*
X143529000Y-61940000D01*
G36*
X145279000Y-61940000D02*
G01*
X145529000Y-61940000D01*
X145529000Y-62190000D01*
X145279000Y-62190000D01*
X145279000Y-61940000D01*
G37*
X145279000Y-61940000D02*
X145529000Y-61940000D01*
X145529000Y-62190000D01*
X145279000Y-62190000D01*
X145279000Y-61940000D01*
G36*
X145529000Y-61940000D02*
G01*
X145779000Y-61940000D01*
X145779000Y-62190000D01*
X145529000Y-62190000D01*
X145529000Y-61940000D01*
G37*
X145529000Y-61940000D02*
X145779000Y-61940000D01*
X145779000Y-62190000D01*
X145529000Y-62190000D01*
X145529000Y-61940000D01*
G36*
X146779000Y-61940000D02*
G01*
X147029000Y-61940000D01*
X147029000Y-62190000D01*
X146779000Y-62190000D01*
X146779000Y-61940000D01*
G37*
X146779000Y-61940000D02*
X147029000Y-61940000D01*
X147029000Y-62190000D01*
X146779000Y-62190000D01*
X146779000Y-61940000D01*
G36*
X147029000Y-61940000D02*
G01*
X147279000Y-61940000D01*
X147279000Y-62190000D01*
X147029000Y-62190000D01*
X147029000Y-61940000D01*
G37*
X147029000Y-61940000D02*
X147279000Y-61940000D01*
X147279000Y-62190000D01*
X147029000Y-62190000D01*
X147029000Y-61940000D01*
G36*
X150279000Y-61940000D02*
G01*
X150529000Y-61940000D01*
X150529000Y-62190000D01*
X150279000Y-62190000D01*
X150279000Y-61940000D01*
G37*
X150279000Y-61940000D02*
X150529000Y-61940000D01*
X150529000Y-62190000D01*
X150279000Y-62190000D01*
X150279000Y-61940000D01*
G36*
X150529000Y-61940000D02*
G01*
X150779000Y-61940000D01*
X150779000Y-62190000D01*
X150529000Y-62190000D01*
X150529000Y-61940000D01*
G37*
X150529000Y-61940000D02*
X150779000Y-61940000D01*
X150779000Y-62190000D01*
X150529000Y-62190000D01*
X150529000Y-61940000D01*
G36*
X152279000Y-61940000D02*
G01*
X152529000Y-61940000D01*
X152529000Y-62190000D01*
X152279000Y-62190000D01*
X152279000Y-61940000D01*
G37*
X152279000Y-61940000D02*
X152529000Y-61940000D01*
X152529000Y-62190000D01*
X152279000Y-62190000D01*
X152279000Y-61940000D01*
G36*
X152529000Y-61940000D02*
G01*
X152779000Y-61940000D01*
X152779000Y-62190000D01*
X152529000Y-62190000D01*
X152529000Y-61940000D01*
G37*
X152529000Y-61940000D02*
X152779000Y-61940000D01*
X152779000Y-62190000D01*
X152529000Y-62190000D01*
X152529000Y-61940000D01*
G36*
X154279000Y-61940000D02*
G01*
X154529000Y-61940000D01*
X154529000Y-62190000D01*
X154279000Y-62190000D01*
X154279000Y-61940000D01*
G37*
X154279000Y-61940000D02*
X154529000Y-61940000D01*
X154529000Y-62190000D01*
X154279000Y-62190000D01*
X154279000Y-61940000D01*
G36*
X154529000Y-61940000D02*
G01*
X154779000Y-61940000D01*
X154779000Y-62190000D01*
X154529000Y-62190000D01*
X154529000Y-61940000D01*
G37*
X154529000Y-61940000D02*
X154779000Y-61940000D01*
X154779000Y-62190000D01*
X154529000Y-62190000D01*
X154529000Y-61940000D01*
G36*
X156279000Y-61940000D02*
G01*
X156529000Y-61940000D01*
X156529000Y-62190000D01*
X156279000Y-62190000D01*
X156279000Y-61940000D01*
G37*
X156279000Y-61940000D02*
X156529000Y-61940000D01*
X156529000Y-62190000D01*
X156279000Y-62190000D01*
X156279000Y-61940000D01*
G36*
X156529000Y-61940000D02*
G01*
X156779000Y-61940000D01*
X156779000Y-62190000D01*
X156529000Y-62190000D01*
X156529000Y-61940000D01*
G37*
X156529000Y-61940000D02*
X156779000Y-61940000D01*
X156779000Y-62190000D01*
X156529000Y-62190000D01*
X156529000Y-61940000D01*
G36*
X158779000Y-61940000D02*
G01*
X159029000Y-61940000D01*
X159029000Y-62190000D01*
X158779000Y-62190000D01*
X158779000Y-61940000D01*
G37*
X158779000Y-61940000D02*
X159029000Y-61940000D01*
X159029000Y-62190000D01*
X158779000Y-62190000D01*
X158779000Y-61940000D01*
G36*
X159029000Y-61940000D02*
G01*
X159279000Y-61940000D01*
X159279000Y-62190000D01*
X159029000Y-62190000D01*
X159029000Y-61940000D01*
G37*
X159029000Y-61940000D02*
X159279000Y-61940000D01*
X159279000Y-62190000D01*
X159029000Y-62190000D01*
X159029000Y-61940000D01*
G36*
X137279000Y-62190000D02*
G01*
X137529000Y-62190000D01*
X137529000Y-62440000D01*
X137279000Y-62440000D01*
X137279000Y-62190000D01*
G37*
X137279000Y-62190000D02*
X137529000Y-62190000D01*
X137529000Y-62440000D01*
X137279000Y-62440000D01*
X137279000Y-62190000D01*
G36*
X137529000Y-62190000D02*
G01*
X137779000Y-62190000D01*
X137779000Y-62440000D01*
X137529000Y-62440000D01*
X137529000Y-62190000D01*
G37*
X137529000Y-62190000D02*
X137779000Y-62190000D01*
X137779000Y-62440000D01*
X137529000Y-62440000D01*
X137529000Y-62190000D01*
G36*
X137779000Y-62190000D02*
G01*
X138029000Y-62190000D01*
X138029000Y-62440000D01*
X137779000Y-62440000D01*
X137779000Y-62190000D01*
G37*
X137779000Y-62190000D02*
X138029000Y-62190000D01*
X138029000Y-62440000D01*
X137779000Y-62440000D01*
X137779000Y-62190000D01*
G36*
X138029000Y-62190000D02*
G01*
X138279000Y-62190000D01*
X138279000Y-62440000D01*
X138029000Y-62440000D01*
X138029000Y-62190000D01*
G37*
X138029000Y-62190000D02*
X138279000Y-62190000D01*
X138279000Y-62440000D01*
X138029000Y-62440000D01*
X138029000Y-62190000D01*
G36*
X138279000Y-62190000D02*
G01*
X138529000Y-62190000D01*
X138529000Y-62440000D01*
X138279000Y-62440000D01*
X138279000Y-62190000D01*
G37*
X138279000Y-62190000D02*
X138529000Y-62190000D01*
X138529000Y-62440000D01*
X138279000Y-62440000D01*
X138279000Y-62190000D01*
G36*
X138529000Y-62190000D02*
G01*
X138779000Y-62190000D01*
X138779000Y-62440000D01*
X138529000Y-62440000D01*
X138529000Y-62190000D01*
G37*
X138529000Y-62190000D02*
X138779000Y-62190000D01*
X138779000Y-62440000D01*
X138529000Y-62440000D01*
X138529000Y-62190000D01*
G36*
X138779000Y-62190000D02*
G01*
X139029000Y-62190000D01*
X139029000Y-62440000D01*
X138779000Y-62440000D01*
X138779000Y-62190000D01*
G37*
X138779000Y-62190000D02*
X139029000Y-62190000D01*
X139029000Y-62440000D01*
X138779000Y-62440000D01*
X138779000Y-62190000D01*
G36*
X139029000Y-62190000D02*
G01*
X139279000Y-62190000D01*
X139279000Y-62440000D01*
X139029000Y-62440000D01*
X139029000Y-62190000D01*
G37*
X139029000Y-62190000D02*
X139279000Y-62190000D01*
X139279000Y-62440000D01*
X139029000Y-62440000D01*
X139029000Y-62190000D01*
G36*
X140779000Y-62190000D02*
G01*
X141029000Y-62190000D01*
X141029000Y-62440000D01*
X140779000Y-62440000D01*
X140779000Y-62190000D01*
G37*
X140779000Y-62190000D02*
X141029000Y-62190000D01*
X141029000Y-62440000D01*
X140779000Y-62440000D01*
X140779000Y-62190000D01*
G36*
X141029000Y-62190000D02*
G01*
X141279000Y-62190000D01*
X141279000Y-62440000D01*
X141029000Y-62440000D01*
X141029000Y-62190000D01*
G37*
X141029000Y-62190000D02*
X141279000Y-62190000D01*
X141279000Y-62440000D01*
X141029000Y-62440000D01*
X141029000Y-62190000D01*
G36*
X141279000Y-62190000D02*
G01*
X141529000Y-62190000D01*
X141529000Y-62440000D01*
X141279000Y-62440000D01*
X141279000Y-62190000D01*
G37*
X141279000Y-62190000D02*
X141529000Y-62190000D01*
X141529000Y-62440000D01*
X141279000Y-62440000D01*
X141279000Y-62190000D01*
G36*
X141529000Y-62190000D02*
G01*
X141779000Y-62190000D01*
X141779000Y-62440000D01*
X141529000Y-62440000D01*
X141529000Y-62190000D01*
G37*
X141529000Y-62190000D02*
X141779000Y-62190000D01*
X141779000Y-62440000D01*
X141529000Y-62440000D01*
X141529000Y-62190000D01*
G36*
X141779000Y-62190000D02*
G01*
X142029000Y-62190000D01*
X142029000Y-62440000D01*
X141779000Y-62440000D01*
X141779000Y-62190000D01*
G37*
X141779000Y-62190000D02*
X142029000Y-62190000D01*
X142029000Y-62440000D01*
X141779000Y-62440000D01*
X141779000Y-62190000D01*
G36*
X142029000Y-62190000D02*
G01*
X142279000Y-62190000D01*
X142279000Y-62440000D01*
X142029000Y-62440000D01*
X142029000Y-62190000D01*
G37*
X142029000Y-62190000D02*
X142279000Y-62190000D01*
X142279000Y-62440000D01*
X142029000Y-62440000D01*
X142029000Y-62190000D01*
G36*
X143279000Y-62190000D02*
G01*
X143529000Y-62190000D01*
X143529000Y-62440000D01*
X143279000Y-62440000D01*
X143279000Y-62190000D01*
G37*
X143279000Y-62190000D02*
X143529000Y-62190000D01*
X143529000Y-62440000D01*
X143279000Y-62440000D01*
X143279000Y-62190000D01*
G36*
X143529000Y-62190000D02*
G01*
X143779000Y-62190000D01*
X143779000Y-62440000D01*
X143529000Y-62440000D01*
X143529000Y-62190000D01*
G37*
X143529000Y-62190000D02*
X143779000Y-62190000D01*
X143779000Y-62440000D01*
X143529000Y-62440000D01*
X143529000Y-62190000D01*
G36*
X145279000Y-62190000D02*
G01*
X145529000Y-62190000D01*
X145529000Y-62440000D01*
X145279000Y-62440000D01*
X145279000Y-62190000D01*
G37*
X145279000Y-62190000D02*
X145529000Y-62190000D01*
X145529000Y-62440000D01*
X145279000Y-62440000D01*
X145279000Y-62190000D01*
G36*
X145529000Y-62190000D02*
G01*
X145779000Y-62190000D01*
X145779000Y-62440000D01*
X145529000Y-62440000D01*
X145529000Y-62190000D01*
G37*
X145529000Y-62190000D02*
X145779000Y-62190000D01*
X145779000Y-62440000D01*
X145529000Y-62440000D01*
X145529000Y-62190000D01*
G36*
X147279000Y-62190000D02*
G01*
X147529000Y-62190000D01*
X147529000Y-62440000D01*
X147279000Y-62440000D01*
X147279000Y-62190000D01*
G37*
X147279000Y-62190000D02*
X147529000Y-62190000D01*
X147529000Y-62440000D01*
X147279000Y-62440000D01*
X147279000Y-62190000D01*
G36*
X147529000Y-62190000D02*
G01*
X147779000Y-62190000D01*
X147779000Y-62440000D01*
X147529000Y-62440000D01*
X147529000Y-62190000D01*
G37*
X147529000Y-62190000D02*
X147779000Y-62190000D01*
X147779000Y-62440000D01*
X147529000Y-62440000D01*
X147529000Y-62190000D01*
G36*
X147779000Y-62190000D02*
G01*
X148029000Y-62190000D01*
X148029000Y-62440000D01*
X147779000Y-62440000D01*
X147779000Y-62190000D01*
G37*
X147779000Y-62190000D02*
X148029000Y-62190000D01*
X148029000Y-62440000D01*
X147779000Y-62440000D01*
X147779000Y-62190000D01*
G36*
X148029000Y-62190000D02*
G01*
X148279000Y-62190000D01*
X148279000Y-62440000D01*
X148029000Y-62440000D01*
X148029000Y-62190000D01*
G37*
X148029000Y-62190000D02*
X148279000Y-62190000D01*
X148279000Y-62440000D01*
X148029000Y-62440000D01*
X148029000Y-62190000D01*
G36*
X148279000Y-62190000D02*
G01*
X148529000Y-62190000D01*
X148529000Y-62440000D01*
X148279000Y-62440000D01*
X148279000Y-62190000D01*
G37*
X148279000Y-62190000D02*
X148529000Y-62190000D01*
X148529000Y-62440000D01*
X148279000Y-62440000D01*
X148279000Y-62190000D01*
G36*
X148529000Y-62190000D02*
G01*
X148779000Y-62190000D01*
X148779000Y-62440000D01*
X148529000Y-62440000D01*
X148529000Y-62190000D01*
G37*
X148529000Y-62190000D02*
X148779000Y-62190000D01*
X148779000Y-62440000D01*
X148529000Y-62440000D01*
X148529000Y-62190000D01*
G36*
X150779000Y-62190000D02*
G01*
X151029000Y-62190000D01*
X151029000Y-62440000D01*
X150779000Y-62440000D01*
X150779000Y-62190000D01*
G37*
X150779000Y-62190000D02*
X151029000Y-62190000D01*
X151029000Y-62440000D01*
X150779000Y-62440000D01*
X150779000Y-62190000D01*
G36*
X151029000Y-62190000D02*
G01*
X151279000Y-62190000D01*
X151279000Y-62440000D01*
X151029000Y-62440000D01*
X151029000Y-62190000D01*
G37*
X151029000Y-62190000D02*
X151279000Y-62190000D01*
X151279000Y-62440000D01*
X151029000Y-62440000D01*
X151029000Y-62190000D01*
G36*
X151279000Y-62190000D02*
G01*
X151529000Y-62190000D01*
X151529000Y-62440000D01*
X151279000Y-62440000D01*
X151279000Y-62190000D01*
G37*
X151279000Y-62190000D02*
X151529000Y-62190000D01*
X151529000Y-62440000D01*
X151279000Y-62440000D01*
X151279000Y-62190000D01*
G36*
X151529000Y-62190000D02*
G01*
X151779000Y-62190000D01*
X151779000Y-62440000D01*
X151529000Y-62440000D01*
X151529000Y-62190000D01*
G37*
X151529000Y-62190000D02*
X151779000Y-62190000D01*
X151779000Y-62440000D01*
X151529000Y-62440000D01*
X151529000Y-62190000D01*
G36*
X152779000Y-62190000D02*
G01*
X153029000Y-62190000D01*
X153029000Y-62440000D01*
X152779000Y-62440000D01*
X152779000Y-62190000D01*
G37*
X152779000Y-62190000D02*
X153029000Y-62190000D01*
X153029000Y-62440000D01*
X152779000Y-62440000D01*
X152779000Y-62190000D01*
G36*
X153029000Y-62190000D02*
G01*
X153279000Y-62190000D01*
X153279000Y-62440000D01*
X153029000Y-62440000D01*
X153029000Y-62190000D01*
G37*
X153029000Y-62190000D02*
X153279000Y-62190000D01*
X153279000Y-62440000D01*
X153029000Y-62440000D01*
X153029000Y-62190000D01*
G36*
X153279000Y-62190000D02*
G01*
X153529000Y-62190000D01*
X153529000Y-62440000D01*
X153279000Y-62440000D01*
X153279000Y-62190000D01*
G37*
X153279000Y-62190000D02*
X153529000Y-62190000D01*
X153529000Y-62440000D01*
X153279000Y-62440000D01*
X153279000Y-62190000D01*
G36*
X153529000Y-62190000D02*
G01*
X153779000Y-62190000D01*
X153779000Y-62440000D01*
X153529000Y-62440000D01*
X153529000Y-62190000D01*
G37*
X153529000Y-62190000D02*
X153779000Y-62190000D01*
X153779000Y-62440000D01*
X153529000Y-62440000D01*
X153529000Y-62190000D01*
G36*
X153779000Y-62190000D02*
G01*
X154029000Y-62190000D01*
X154029000Y-62440000D01*
X153779000Y-62440000D01*
X153779000Y-62190000D01*
G37*
X153779000Y-62190000D02*
X154029000Y-62190000D01*
X154029000Y-62440000D01*
X153779000Y-62440000D01*
X153779000Y-62190000D01*
G36*
X154029000Y-62190000D02*
G01*
X154279000Y-62190000D01*
X154279000Y-62440000D01*
X154029000Y-62440000D01*
X154029000Y-62190000D01*
G37*
X154029000Y-62190000D02*
X154279000Y-62190000D01*
X154279000Y-62440000D01*
X154029000Y-62440000D01*
X154029000Y-62190000D01*
G36*
X154279000Y-62190000D02*
G01*
X154529000Y-62190000D01*
X154529000Y-62440000D01*
X154279000Y-62440000D01*
X154279000Y-62190000D01*
G37*
X154279000Y-62190000D02*
X154529000Y-62190000D01*
X154529000Y-62440000D01*
X154279000Y-62440000D01*
X154279000Y-62190000D01*
G36*
X154529000Y-62190000D02*
G01*
X154779000Y-62190000D01*
X154779000Y-62440000D01*
X154529000Y-62440000D01*
X154529000Y-62190000D01*
G37*
X154529000Y-62190000D02*
X154779000Y-62190000D01*
X154779000Y-62440000D01*
X154529000Y-62440000D01*
X154529000Y-62190000D01*
G36*
X155779000Y-62190000D02*
G01*
X156029000Y-62190000D01*
X156029000Y-62440000D01*
X155779000Y-62440000D01*
X155779000Y-62190000D01*
G37*
X155779000Y-62190000D02*
X156029000Y-62190000D01*
X156029000Y-62440000D01*
X155779000Y-62440000D01*
X155779000Y-62190000D01*
G36*
X156029000Y-62190000D02*
G01*
X156279000Y-62190000D01*
X156279000Y-62440000D01*
X156029000Y-62440000D01*
X156029000Y-62190000D01*
G37*
X156029000Y-62190000D02*
X156279000Y-62190000D01*
X156279000Y-62440000D01*
X156029000Y-62440000D01*
X156029000Y-62190000D01*
G36*
X156279000Y-62190000D02*
G01*
X156529000Y-62190000D01*
X156529000Y-62440000D01*
X156279000Y-62440000D01*
X156279000Y-62190000D01*
G37*
X156279000Y-62190000D02*
X156529000Y-62190000D01*
X156529000Y-62440000D01*
X156279000Y-62440000D01*
X156279000Y-62190000D01*
G36*
X156529000Y-62190000D02*
G01*
X156779000Y-62190000D01*
X156779000Y-62440000D01*
X156529000Y-62440000D01*
X156529000Y-62190000D01*
G37*
X156529000Y-62190000D02*
X156779000Y-62190000D01*
X156779000Y-62440000D01*
X156529000Y-62440000D01*
X156529000Y-62190000D01*
G36*
X156779000Y-62190000D02*
G01*
X157029000Y-62190000D01*
X157029000Y-62440000D01*
X156779000Y-62440000D01*
X156779000Y-62190000D01*
G37*
X156779000Y-62190000D02*
X157029000Y-62190000D01*
X157029000Y-62440000D01*
X156779000Y-62440000D01*
X156779000Y-62190000D01*
G36*
X157029000Y-62190000D02*
G01*
X157279000Y-62190000D01*
X157279000Y-62440000D01*
X157029000Y-62440000D01*
X157029000Y-62190000D01*
G37*
X157029000Y-62190000D02*
X157279000Y-62190000D01*
X157279000Y-62440000D01*
X157029000Y-62440000D01*
X157029000Y-62190000D01*
G36*
X158779000Y-62190000D02*
G01*
X159029000Y-62190000D01*
X159029000Y-62440000D01*
X158779000Y-62440000D01*
X158779000Y-62190000D01*
G37*
X158779000Y-62190000D02*
X159029000Y-62190000D01*
X159029000Y-62440000D01*
X158779000Y-62440000D01*
X158779000Y-62190000D01*
G36*
X159029000Y-62190000D02*
G01*
X159279000Y-62190000D01*
X159279000Y-62440000D01*
X159029000Y-62440000D01*
X159029000Y-62190000D01*
G37*
X159029000Y-62190000D02*
X159279000Y-62190000D01*
X159279000Y-62440000D01*
X159029000Y-62440000D01*
X159029000Y-62190000D01*
G36*
X137279000Y-62440000D02*
G01*
X137529000Y-62440000D01*
X137529000Y-62690000D01*
X137279000Y-62690000D01*
X137279000Y-62440000D01*
G37*
X137279000Y-62440000D02*
X137529000Y-62440000D01*
X137529000Y-62690000D01*
X137279000Y-62690000D01*
X137279000Y-62440000D01*
G36*
X137529000Y-62440000D02*
G01*
X137779000Y-62440000D01*
X137779000Y-62690000D01*
X137529000Y-62690000D01*
X137529000Y-62440000D01*
G37*
X137529000Y-62440000D02*
X137779000Y-62440000D01*
X137779000Y-62690000D01*
X137529000Y-62690000D01*
X137529000Y-62440000D01*
G36*
X137779000Y-62440000D02*
G01*
X138029000Y-62440000D01*
X138029000Y-62690000D01*
X137779000Y-62690000D01*
X137779000Y-62440000D01*
G37*
X137779000Y-62440000D02*
X138029000Y-62440000D01*
X138029000Y-62690000D01*
X137779000Y-62690000D01*
X137779000Y-62440000D01*
G36*
X138029000Y-62440000D02*
G01*
X138279000Y-62440000D01*
X138279000Y-62690000D01*
X138029000Y-62690000D01*
X138029000Y-62440000D01*
G37*
X138029000Y-62440000D02*
X138279000Y-62440000D01*
X138279000Y-62690000D01*
X138029000Y-62690000D01*
X138029000Y-62440000D01*
G36*
X138279000Y-62440000D02*
G01*
X138529000Y-62440000D01*
X138529000Y-62690000D01*
X138279000Y-62690000D01*
X138279000Y-62440000D01*
G37*
X138279000Y-62440000D02*
X138529000Y-62440000D01*
X138529000Y-62690000D01*
X138279000Y-62690000D01*
X138279000Y-62440000D01*
G36*
X138529000Y-62440000D02*
G01*
X138779000Y-62440000D01*
X138779000Y-62690000D01*
X138529000Y-62690000D01*
X138529000Y-62440000D01*
G37*
X138529000Y-62440000D02*
X138779000Y-62440000D01*
X138779000Y-62690000D01*
X138529000Y-62690000D01*
X138529000Y-62440000D01*
G36*
X138779000Y-62440000D02*
G01*
X139029000Y-62440000D01*
X139029000Y-62690000D01*
X138779000Y-62690000D01*
X138779000Y-62440000D01*
G37*
X138779000Y-62440000D02*
X139029000Y-62440000D01*
X139029000Y-62690000D01*
X138779000Y-62690000D01*
X138779000Y-62440000D01*
G36*
X139029000Y-62440000D02*
G01*
X139279000Y-62440000D01*
X139279000Y-62690000D01*
X139029000Y-62690000D01*
X139029000Y-62440000D01*
G37*
X139029000Y-62440000D02*
X139279000Y-62440000D01*
X139279000Y-62690000D01*
X139029000Y-62690000D01*
X139029000Y-62440000D01*
G36*
X140779000Y-62440000D02*
G01*
X141029000Y-62440000D01*
X141029000Y-62690000D01*
X140779000Y-62690000D01*
X140779000Y-62440000D01*
G37*
X140779000Y-62440000D02*
X141029000Y-62440000D01*
X141029000Y-62690000D01*
X140779000Y-62690000D01*
X140779000Y-62440000D01*
G36*
X141029000Y-62440000D02*
G01*
X141279000Y-62440000D01*
X141279000Y-62690000D01*
X141029000Y-62690000D01*
X141029000Y-62440000D01*
G37*
X141029000Y-62440000D02*
X141279000Y-62440000D01*
X141279000Y-62690000D01*
X141029000Y-62690000D01*
X141029000Y-62440000D01*
G36*
X141279000Y-62440000D02*
G01*
X141529000Y-62440000D01*
X141529000Y-62690000D01*
X141279000Y-62690000D01*
X141279000Y-62440000D01*
G37*
X141279000Y-62440000D02*
X141529000Y-62440000D01*
X141529000Y-62690000D01*
X141279000Y-62690000D01*
X141279000Y-62440000D01*
G36*
X141529000Y-62440000D02*
G01*
X141779000Y-62440000D01*
X141779000Y-62690000D01*
X141529000Y-62690000D01*
X141529000Y-62440000D01*
G37*
X141529000Y-62440000D02*
X141779000Y-62440000D01*
X141779000Y-62690000D01*
X141529000Y-62690000D01*
X141529000Y-62440000D01*
G36*
X141779000Y-62440000D02*
G01*
X142029000Y-62440000D01*
X142029000Y-62690000D01*
X141779000Y-62690000D01*
X141779000Y-62440000D01*
G37*
X141779000Y-62440000D02*
X142029000Y-62440000D01*
X142029000Y-62690000D01*
X141779000Y-62690000D01*
X141779000Y-62440000D01*
G36*
X142029000Y-62440000D02*
G01*
X142279000Y-62440000D01*
X142279000Y-62690000D01*
X142029000Y-62690000D01*
X142029000Y-62440000D01*
G37*
X142029000Y-62440000D02*
X142279000Y-62440000D01*
X142279000Y-62690000D01*
X142029000Y-62690000D01*
X142029000Y-62440000D01*
G36*
X143279000Y-62440000D02*
G01*
X143529000Y-62440000D01*
X143529000Y-62690000D01*
X143279000Y-62690000D01*
X143279000Y-62440000D01*
G37*
X143279000Y-62440000D02*
X143529000Y-62440000D01*
X143529000Y-62690000D01*
X143279000Y-62690000D01*
X143279000Y-62440000D01*
G36*
X143529000Y-62440000D02*
G01*
X143779000Y-62440000D01*
X143779000Y-62690000D01*
X143529000Y-62690000D01*
X143529000Y-62440000D01*
G37*
X143529000Y-62440000D02*
X143779000Y-62440000D01*
X143779000Y-62690000D01*
X143529000Y-62690000D01*
X143529000Y-62440000D01*
G36*
X145279000Y-62440000D02*
G01*
X145529000Y-62440000D01*
X145529000Y-62690000D01*
X145279000Y-62690000D01*
X145279000Y-62440000D01*
G37*
X145279000Y-62440000D02*
X145529000Y-62440000D01*
X145529000Y-62690000D01*
X145279000Y-62690000D01*
X145279000Y-62440000D01*
G36*
X145529000Y-62440000D02*
G01*
X145779000Y-62440000D01*
X145779000Y-62690000D01*
X145529000Y-62690000D01*
X145529000Y-62440000D01*
G37*
X145529000Y-62440000D02*
X145779000Y-62440000D01*
X145779000Y-62690000D01*
X145529000Y-62690000D01*
X145529000Y-62440000D01*
G36*
X147279000Y-62440000D02*
G01*
X147529000Y-62440000D01*
X147529000Y-62690000D01*
X147279000Y-62690000D01*
X147279000Y-62440000D01*
G37*
X147279000Y-62440000D02*
X147529000Y-62440000D01*
X147529000Y-62690000D01*
X147279000Y-62690000D01*
X147279000Y-62440000D01*
G36*
X147529000Y-62440000D02*
G01*
X147779000Y-62440000D01*
X147779000Y-62690000D01*
X147529000Y-62690000D01*
X147529000Y-62440000D01*
G37*
X147529000Y-62440000D02*
X147779000Y-62440000D01*
X147779000Y-62690000D01*
X147529000Y-62690000D01*
X147529000Y-62440000D01*
G36*
X147779000Y-62440000D02*
G01*
X148029000Y-62440000D01*
X148029000Y-62690000D01*
X147779000Y-62690000D01*
X147779000Y-62440000D01*
G37*
X147779000Y-62440000D02*
X148029000Y-62440000D01*
X148029000Y-62690000D01*
X147779000Y-62690000D01*
X147779000Y-62440000D01*
G36*
X148029000Y-62440000D02*
G01*
X148279000Y-62440000D01*
X148279000Y-62690000D01*
X148029000Y-62690000D01*
X148029000Y-62440000D01*
G37*
X148029000Y-62440000D02*
X148279000Y-62440000D01*
X148279000Y-62690000D01*
X148029000Y-62690000D01*
X148029000Y-62440000D01*
G36*
X148279000Y-62440000D02*
G01*
X148529000Y-62440000D01*
X148529000Y-62690000D01*
X148279000Y-62690000D01*
X148279000Y-62440000D01*
G37*
X148279000Y-62440000D02*
X148529000Y-62440000D01*
X148529000Y-62690000D01*
X148279000Y-62690000D01*
X148279000Y-62440000D01*
G36*
X148529000Y-62440000D02*
G01*
X148779000Y-62440000D01*
X148779000Y-62690000D01*
X148529000Y-62690000D01*
X148529000Y-62440000D01*
G37*
X148529000Y-62440000D02*
X148779000Y-62440000D01*
X148779000Y-62690000D01*
X148529000Y-62690000D01*
X148529000Y-62440000D01*
G36*
X150779000Y-62440000D02*
G01*
X151029000Y-62440000D01*
X151029000Y-62690000D01*
X150779000Y-62690000D01*
X150779000Y-62440000D01*
G37*
X150779000Y-62440000D02*
X151029000Y-62440000D01*
X151029000Y-62690000D01*
X150779000Y-62690000D01*
X150779000Y-62440000D01*
G36*
X151029000Y-62440000D02*
G01*
X151279000Y-62440000D01*
X151279000Y-62690000D01*
X151029000Y-62690000D01*
X151029000Y-62440000D01*
G37*
X151029000Y-62440000D02*
X151279000Y-62440000D01*
X151279000Y-62690000D01*
X151029000Y-62690000D01*
X151029000Y-62440000D01*
G36*
X151279000Y-62440000D02*
G01*
X151529000Y-62440000D01*
X151529000Y-62690000D01*
X151279000Y-62690000D01*
X151279000Y-62440000D01*
G37*
X151279000Y-62440000D02*
X151529000Y-62440000D01*
X151529000Y-62690000D01*
X151279000Y-62690000D01*
X151279000Y-62440000D01*
G36*
X151529000Y-62440000D02*
G01*
X151779000Y-62440000D01*
X151779000Y-62690000D01*
X151529000Y-62690000D01*
X151529000Y-62440000D01*
G37*
X151529000Y-62440000D02*
X151779000Y-62440000D01*
X151779000Y-62690000D01*
X151529000Y-62690000D01*
X151529000Y-62440000D01*
G36*
X152779000Y-62440000D02*
G01*
X153029000Y-62440000D01*
X153029000Y-62690000D01*
X152779000Y-62690000D01*
X152779000Y-62440000D01*
G37*
X152779000Y-62440000D02*
X153029000Y-62440000D01*
X153029000Y-62690000D01*
X152779000Y-62690000D01*
X152779000Y-62440000D01*
G36*
X153029000Y-62440000D02*
G01*
X153279000Y-62440000D01*
X153279000Y-62690000D01*
X153029000Y-62690000D01*
X153029000Y-62440000D01*
G37*
X153029000Y-62440000D02*
X153279000Y-62440000D01*
X153279000Y-62690000D01*
X153029000Y-62690000D01*
X153029000Y-62440000D01*
G36*
X153279000Y-62440000D02*
G01*
X153529000Y-62440000D01*
X153529000Y-62690000D01*
X153279000Y-62690000D01*
X153279000Y-62440000D01*
G37*
X153279000Y-62440000D02*
X153529000Y-62440000D01*
X153529000Y-62690000D01*
X153279000Y-62690000D01*
X153279000Y-62440000D01*
G36*
X153529000Y-62440000D02*
G01*
X153779000Y-62440000D01*
X153779000Y-62690000D01*
X153529000Y-62690000D01*
X153529000Y-62440000D01*
G37*
X153529000Y-62440000D02*
X153779000Y-62440000D01*
X153779000Y-62690000D01*
X153529000Y-62690000D01*
X153529000Y-62440000D01*
G36*
X153779000Y-62440000D02*
G01*
X154029000Y-62440000D01*
X154029000Y-62690000D01*
X153779000Y-62690000D01*
X153779000Y-62440000D01*
G37*
X153779000Y-62440000D02*
X154029000Y-62440000D01*
X154029000Y-62690000D01*
X153779000Y-62690000D01*
X153779000Y-62440000D01*
G36*
X154029000Y-62440000D02*
G01*
X154279000Y-62440000D01*
X154279000Y-62690000D01*
X154029000Y-62690000D01*
X154029000Y-62440000D01*
G37*
X154029000Y-62440000D02*
X154279000Y-62440000D01*
X154279000Y-62690000D01*
X154029000Y-62690000D01*
X154029000Y-62440000D01*
G36*
X154279000Y-62440000D02*
G01*
X154529000Y-62440000D01*
X154529000Y-62690000D01*
X154279000Y-62690000D01*
X154279000Y-62440000D01*
G37*
X154279000Y-62440000D02*
X154529000Y-62440000D01*
X154529000Y-62690000D01*
X154279000Y-62690000D01*
X154279000Y-62440000D01*
G36*
X154529000Y-62440000D02*
G01*
X154779000Y-62440000D01*
X154779000Y-62690000D01*
X154529000Y-62690000D01*
X154529000Y-62440000D01*
G37*
X154529000Y-62440000D02*
X154779000Y-62440000D01*
X154779000Y-62690000D01*
X154529000Y-62690000D01*
X154529000Y-62440000D01*
G36*
X155779000Y-62440000D02*
G01*
X156029000Y-62440000D01*
X156029000Y-62690000D01*
X155779000Y-62690000D01*
X155779000Y-62440000D01*
G37*
X155779000Y-62440000D02*
X156029000Y-62440000D01*
X156029000Y-62690000D01*
X155779000Y-62690000D01*
X155779000Y-62440000D01*
G36*
X156029000Y-62440000D02*
G01*
X156279000Y-62440000D01*
X156279000Y-62690000D01*
X156029000Y-62690000D01*
X156029000Y-62440000D01*
G37*
X156029000Y-62440000D02*
X156279000Y-62440000D01*
X156279000Y-62690000D01*
X156029000Y-62690000D01*
X156029000Y-62440000D01*
G36*
X156279000Y-62440000D02*
G01*
X156529000Y-62440000D01*
X156529000Y-62690000D01*
X156279000Y-62690000D01*
X156279000Y-62440000D01*
G37*
X156279000Y-62440000D02*
X156529000Y-62440000D01*
X156529000Y-62690000D01*
X156279000Y-62690000D01*
X156279000Y-62440000D01*
G36*
X156529000Y-62440000D02*
G01*
X156779000Y-62440000D01*
X156779000Y-62690000D01*
X156529000Y-62690000D01*
X156529000Y-62440000D01*
G37*
X156529000Y-62440000D02*
X156779000Y-62440000D01*
X156779000Y-62690000D01*
X156529000Y-62690000D01*
X156529000Y-62440000D01*
G36*
X156779000Y-62440000D02*
G01*
X157029000Y-62440000D01*
X157029000Y-62690000D01*
X156779000Y-62690000D01*
X156779000Y-62440000D01*
G37*
X156779000Y-62440000D02*
X157029000Y-62440000D01*
X157029000Y-62690000D01*
X156779000Y-62690000D01*
X156779000Y-62440000D01*
G36*
X157029000Y-62440000D02*
G01*
X157279000Y-62440000D01*
X157279000Y-62690000D01*
X157029000Y-62690000D01*
X157029000Y-62440000D01*
G37*
X157029000Y-62440000D02*
X157279000Y-62440000D01*
X157279000Y-62690000D01*
X157029000Y-62690000D01*
X157029000Y-62440000D01*
G36*
X158779000Y-62440000D02*
G01*
X159029000Y-62440000D01*
X159029000Y-62690000D01*
X158779000Y-62690000D01*
X158779000Y-62440000D01*
G37*
X158779000Y-62440000D02*
X159029000Y-62440000D01*
X159029000Y-62690000D01*
X158779000Y-62690000D01*
X158779000Y-62440000D01*
G36*
X159029000Y-62440000D02*
G01*
X159279000Y-62440000D01*
X159279000Y-62690000D01*
X159029000Y-62690000D01*
X159029000Y-62440000D01*
G37*
X159029000Y-62440000D02*
X159279000Y-62440000D01*
X159279000Y-62690000D01*
X159029000Y-62690000D01*
X159029000Y-62440000D01*
G36*
X137529000Y-63440000D02*
G01*
X137779000Y-63440000D01*
X137779000Y-63690000D01*
X137529000Y-63690000D01*
X137529000Y-63440000D01*
G37*
X137529000Y-63440000D02*
X137779000Y-63440000D01*
X137779000Y-63690000D01*
X137529000Y-63690000D01*
X137529000Y-63440000D01*
G36*
X137779000Y-63440000D02*
G01*
X138029000Y-63440000D01*
X138029000Y-63690000D01*
X137779000Y-63690000D01*
X137779000Y-63440000D01*
G37*
X137779000Y-63440000D02*
X138029000Y-63440000D01*
X138029000Y-63690000D01*
X137779000Y-63690000D01*
X137779000Y-63440000D01*
G36*
X138029000Y-63440000D02*
G01*
X138279000Y-63440000D01*
X138279000Y-63690000D01*
X138029000Y-63690000D01*
X138029000Y-63440000D01*
G37*
X138029000Y-63440000D02*
X138279000Y-63440000D01*
X138279000Y-63690000D01*
X138029000Y-63690000D01*
X138029000Y-63440000D01*
G36*
X138279000Y-63440000D02*
G01*
X138529000Y-63440000D01*
X138529000Y-63690000D01*
X138279000Y-63690000D01*
X138279000Y-63440000D01*
G37*
X138279000Y-63440000D02*
X138529000Y-63440000D01*
X138529000Y-63690000D01*
X138279000Y-63690000D01*
X138279000Y-63440000D01*
G36*
X138529000Y-63440000D02*
G01*
X138779000Y-63440000D01*
X138779000Y-63690000D01*
X138529000Y-63690000D01*
X138529000Y-63440000D01*
G37*
X138529000Y-63440000D02*
X138779000Y-63440000D01*
X138779000Y-63690000D01*
X138529000Y-63690000D01*
X138529000Y-63440000D01*
G36*
X138779000Y-63440000D02*
G01*
X139029000Y-63440000D01*
X139029000Y-63690000D01*
X138779000Y-63690000D01*
X138779000Y-63440000D01*
G37*
X138779000Y-63440000D02*
X139029000Y-63440000D01*
X139029000Y-63690000D01*
X138779000Y-63690000D01*
X138779000Y-63440000D01*
G36*
X139279000Y-63440000D02*
G01*
X139529000Y-63440000D01*
X139529000Y-63690000D01*
X139279000Y-63690000D01*
X139279000Y-63440000D01*
G37*
X139279000Y-63440000D02*
X139529000Y-63440000D01*
X139529000Y-63690000D01*
X139279000Y-63690000D01*
X139279000Y-63440000D01*
G36*
X140529000Y-63440000D02*
G01*
X140779000Y-63440000D01*
X140779000Y-63690000D01*
X140529000Y-63690000D01*
X140529000Y-63440000D01*
G37*
X140529000Y-63440000D02*
X140779000Y-63440000D01*
X140779000Y-63690000D01*
X140529000Y-63690000D01*
X140529000Y-63440000D01*
G36*
X141279000Y-63440000D02*
G01*
X141529000Y-63440000D01*
X141529000Y-63690000D01*
X141279000Y-63690000D01*
X141279000Y-63440000D01*
G37*
X141279000Y-63440000D02*
X141529000Y-63440000D01*
X141529000Y-63690000D01*
X141279000Y-63690000D01*
X141279000Y-63440000D01*
G36*
X141529000Y-63440000D02*
G01*
X141779000Y-63440000D01*
X141779000Y-63690000D01*
X141529000Y-63690000D01*
X141529000Y-63440000D01*
G37*
X141529000Y-63440000D02*
X141779000Y-63440000D01*
X141779000Y-63690000D01*
X141529000Y-63690000D01*
X141529000Y-63440000D01*
G36*
X141779000Y-63440000D02*
G01*
X142029000Y-63440000D01*
X142029000Y-63690000D01*
X141779000Y-63690000D01*
X141779000Y-63440000D01*
G37*
X141779000Y-63440000D02*
X142029000Y-63440000D01*
X142029000Y-63690000D01*
X141779000Y-63690000D01*
X141779000Y-63440000D01*
G36*
X142029000Y-63440000D02*
G01*
X142279000Y-63440000D01*
X142279000Y-63690000D01*
X142029000Y-63690000D01*
X142029000Y-63440000D01*
G37*
X142029000Y-63440000D02*
X142279000Y-63440000D01*
X142279000Y-63690000D01*
X142029000Y-63690000D01*
X142029000Y-63440000D01*
G36*
X148529000Y-63440000D02*
G01*
X148779000Y-63440000D01*
X148779000Y-63690000D01*
X148529000Y-63690000D01*
X148529000Y-63440000D01*
G37*
X148529000Y-63440000D02*
X148779000Y-63440000D01*
X148779000Y-63690000D01*
X148529000Y-63690000D01*
X148529000Y-63440000D01*
G36*
X156779000Y-63440000D02*
G01*
X157029000Y-63440000D01*
X157029000Y-63690000D01*
X156779000Y-63690000D01*
X156779000Y-63440000D01*
G37*
X156779000Y-63440000D02*
X157029000Y-63440000D01*
X157029000Y-63690000D01*
X156779000Y-63690000D01*
X156779000Y-63440000D01*
G36*
X158029000Y-63440000D02*
G01*
X158279000Y-63440000D01*
X158279000Y-63690000D01*
X158029000Y-63690000D01*
X158029000Y-63440000D01*
G37*
X158029000Y-63440000D02*
X158279000Y-63440000D01*
X158279000Y-63690000D01*
X158029000Y-63690000D01*
X158029000Y-63440000D01*
G36*
X158279000Y-63440000D02*
G01*
X158529000Y-63440000D01*
X158529000Y-63690000D01*
X158279000Y-63690000D01*
X158279000Y-63440000D01*
G37*
X158279000Y-63440000D02*
X158529000Y-63440000D01*
X158529000Y-63690000D01*
X158279000Y-63690000D01*
X158279000Y-63440000D01*
G36*
X158529000Y-63440000D02*
G01*
X158779000Y-63440000D01*
X158779000Y-63690000D01*
X158529000Y-63690000D01*
X158529000Y-63440000D01*
G37*
X158529000Y-63440000D02*
X158779000Y-63440000D01*
X158779000Y-63690000D01*
X158529000Y-63690000D01*
X158529000Y-63440000D01*
G36*
X158779000Y-63440000D02*
G01*
X159029000Y-63440000D01*
X159029000Y-63690000D01*
X158779000Y-63690000D01*
X158779000Y-63440000D01*
G37*
X158779000Y-63440000D02*
X159029000Y-63440000D01*
X159029000Y-63690000D01*
X158779000Y-63690000D01*
X158779000Y-63440000D01*
G36*
X159529000Y-63440000D02*
G01*
X159779000Y-63440000D01*
X159779000Y-63690000D01*
X159529000Y-63690000D01*
X159529000Y-63440000D01*
G37*
X159529000Y-63440000D02*
X159779000Y-63440000D01*
X159779000Y-63690000D01*
X159529000Y-63690000D01*
X159529000Y-63440000D01*
G36*
X160529000Y-63440000D02*
G01*
X160779000Y-63440000D01*
X160779000Y-63690000D01*
X160529000Y-63690000D01*
X160529000Y-63440000D01*
G37*
X160529000Y-63440000D02*
X160779000Y-63440000D01*
X160779000Y-63690000D01*
X160529000Y-63690000D01*
X160529000Y-63440000D01*
G36*
X138529000Y-63690000D02*
G01*
X138779000Y-63690000D01*
X138779000Y-63940000D01*
X138529000Y-63940000D01*
X138529000Y-63690000D01*
G37*
X138529000Y-63690000D02*
X138779000Y-63690000D01*
X138779000Y-63940000D01*
X138529000Y-63940000D01*
X138529000Y-63690000D01*
G36*
X139529000Y-63690000D02*
G01*
X139779000Y-63690000D01*
X139779000Y-63940000D01*
X139529000Y-63940000D01*
X139529000Y-63690000D01*
G37*
X139529000Y-63690000D02*
X139779000Y-63690000D01*
X139779000Y-63940000D01*
X139529000Y-63940000D01*
X139529000Y-63690000D01*
G36*
X140279000Y-63690000D02*
G01*
X140529000Y-63690000D01*
X140529000Y-63940000D01*
X140279000Y-63940000D01*
X140279000Y-63690000D01*
G37*
X140279000Y-63690000D02*
X140529000Y-63690000D01*
X140529000Y-63940000D01*
X140279000Y-63940000D01*
X140279000Y-63690000D01*
G36*
X141029000Y-63690000D02*
G01*
X141279000Y-63690000D01*
X141279000Y-63940000D01*
X141029000Y-63940000D01*
X141029000Y-63690000D01*
G37*
X141029000Y-63690000D02*
X141279000Y-63690000D01*
X141279000Y-63940000D01*
X141029000Y-63940000D01*
X141029000Y-63690000D01*
G36*
X142779000Y-63690000D02*
G01*
X143029000Y-63690000D01*
X143029000Y-63940000D01*
X142779000Y-63940000D01*
X142779000Y-63690000D01*
G37*
X142779000Y-63690000D02*
X143029000Y-63690000D01*
X143029000Y-63940000D01*
X142779000Y-63940000D01*
X142779000Y-63690000D01*
G36*
X143029000Y-63690000D02*
G01*
X143279000Y-63690000D01*
X143279000Y-63940000D01*
X143029000Y-63940000D01*
X143029000Y-63690000D01*
G37*
X143029000Y-63690000D02*
X143279000Y-63690000D01*
X143279000Y-63940000D01*
X143029000Y-63940000D01*
X143029000Y-63690000D01*
G36*
X143279000Y-63690000D02*
G01*
X143529000Y-63690000D01*
X143529000Y-63940000D01*
X143279000Y-63940000D01*
X143279000Y-63690000D01*
G37*
X143279000Y-63690000D02*
X143529000Y-63690000D01*
X143529000Y-63940000D01*
X143279000Y-63940000D01*
X143279000Y-63690000D01*
G36*
X143529000Y-63690000D02*
G01*
X143779000Y-63690000D01*
X143779000Y-63940000D01*
X143529000Y-63940000D01*
X143529000Y-63690000D01*
G37*
X143529000Y-63690000D02*
X143779000Y-63690000D01*
X143779000Y-63940000D01*
X143529000Y-63940000D01*
X143529000Y-63690000D01*
G36*
X144779000Y-63690000D02*
G01*
X145029000Y-63690000D01*
X145029000Y-63940000D01*
X144779000Y-63940000D01*
X144779000Y-63690000D01*
G37*
X144779000Y-63690000D02*
X145029000Y-63690000D01*
X145029000Y-63940000D01*
X144779000Y-63940000D01*
X144779000Y-63690000D01*
G36*
X145029000Y-63690000D02*
G01*
X145279000Y-63690000D01*
X145279000Y-63940000D01*
X145029000Y-63940000D01*
X145029000Y-63690000D01*
G37*
X145029000Y-63690000D02*
X145279000Y-63690000D01*
X145279000Y-63940000D01*
X145029000Y-63940000D01*
X145029000Y-63690000D01*
G36*
X145279000Y-63690000D02*
G01*
X145529000Y-63690000D01*
X145529000Y-63940000D01*
X145279000Y-63940000D01*
X145279000Y-63690000D01*
G37*
X145279000Y-63690000D02*
X145529000Y-63690000D01*
X145529000Y-63940000D01*
X145279000Y-63940000D01*
X145279000Y-63690000D01*
G36*
X146779000Y-63690000D02*
G01*
X147029000Y-63690000D01*
X147029000Y-63940000D01*
X146779000Y-63940000D01*
X146779000Y-63690000D01*
G37*
X146779000Y-63690000D02*
X147029000Y-63690000D01*
X147029000Y-63940000D01*
X146779000Y-63940000D01*
X146779000Y-63690000D01*
G36*
X147029000Y-63690000D02*
G01*
X147279000Y-63690000D01*
X147279000Y-63940000D01*
X147029000Y-63940000D01*
X147029000Y-63690000D01*
G37*
X147029000Y-63690000D02*
X147279000Y-63690000D01*
X147279000Y-63940000D01*
X147029000Y-63940000D01*
X147029000Y-63690000D01*
G36*
X147279000Y-63690000D02*
G01*
X147529000Y-63690000D01*
X147529000Y-63940000D01*
X147279000Y-63940000D01*
X147279000Y-63690000D01*
G37*
X147279000Y-63690000D02*
X147529000Y-63690000D01*
X147529000Y-63940000D01*
X147279000Y-63940000D01*
X147279000Y-63690000D01*
G36*
X148279000Y-63690000D02*
G01*
X148529000Y-63690000D01*
X148529000Y-63940000D01*
X148279000Y-63940000D01*
X148279000Y-63690000D01*
G37*
X148279000Y-63690000D02*
X148529000Y-63690000D01*
X148529000Y-63940000D01*
X148279000Y-63940000D01*
X148279000Y-63690000D01*
G36*
X148529000Y-63690000D02*
G01*
X148779000Y-63690000D01*
X148779000Y-63940000D01*
X148529000Y-63940000D01*
X148529000Y-63690000D01*
G37*
X148529000Y-63690000D02*
X148779000Y-63690000D01*
X148779000Y-63940000D01*
X148529000Y-63940000D01*
X148529000Y-63690000D01*
G36*
X148779000Y-63690000D02*
G01*
X149029000Y-63690000D01*
X149029000Y-63940000D01*
X148779000Y-63940000D01*
X148779000Y-63690000D01*
G37*
X148779000Y-63690000D02*
X149029000Y-63690000D01*
X149029000Y-63940000D01*
X148779000Y-63940000D01*
X148779000Y-63690000D01*
G36*
X150279000Y-63690000D02*
G01*
X150529000Y-63690000D01*
X150529000Y-63940000D01*
X150279000Y-63940000D01*
X150279000Y-63690000D01*
G37*
X150279000Y-63690000D02*
X150529000Y-63690000D01*
X150529000Y-63940000D01*
X150279000Y-63940000D01*
X150279000Y-63690000D01*
G36*
X150529000Y-63690000D02*
G01*
X150779000Y-63690000D01*
X150779000Y-63940000D01*
X150529000Y-63940000D01*
X150529000Y-63690000D01*
G37*
X150529000Y-63690000D02*
X150779000Y-63690000D01*
X150779000Y-63940000D01*
X150529000Y-63940000D01*
X150529000Y-63690000D01*
G36*
X150779000Y-63690000D02*
G01*
X151029000Y-63690000D01*
X151029000Y-63940000D01*
X150779000Y-63940000D01*
X150779000Y-63690000D01*
G37*
X150779000Y-63690000D02*
X151029000Y-63690000D01*
X151029000Y-63940000D01*
X150779000Y-63940000D01*
X150779000Y-63690000D01*
G36*
X151529000Y-63690000D02*
G01*
X151779000Y-63690000D01*
X151779000Y-63940000D01*
X151529000Y-63940000D01*
X151529000Y-63690000D01*
G37*
X151529000Y-63690000D02*
X151779000Y-63690000D01*
X151779000Y-63940000D01*
X151529000Y-63940000D01*
X151529000Y-63690000D01*
G36*
X152529000Y-63690000D02*
G01*
X152779000Y-63690000D01*
X152779000Y-63940000D01*
X152529000Y-63940000D01*
X152529000Y-63690000D01*
G37*
X152529000Y-63690000D02*
X152779000Y-63690000D01*
X152779000Y-63940000D01*
X152529000Y-63940000D01*
X152529000Y-63690000D01*
G36*
X153279000Y-63690000D02*
G01*
X153529000Y-63690000D01*
X153529000Y-63940000D01*
X153279000Y-63940000D01*
X153279000Y-63690000D01*
G37*
X153279000Y-63690000D02*
X153529000Y-63690000D01*
X153529000Y-63940000D01*
X153279000Y-63940000D01*
X153279000Y-63690000D01*
G36*
X153529000Y-63690000D02*
G01*
X153779000Y-63690000D01*
X153779000Y-63940000D01*
X153529000Y-63940000D01*
X153529000Y-63690000D01*
G37*
X153529000Y-63690000D02*
X153779000Y-63690000D01*
X153779000Y-63940000D01*
X153529000Y-63940000D01*
X153529000Y-63690000D01*
G36*
X154029000Y-63690000D02*
G01*
X154279000Y-63690000D01*
X154279000Y-63940000D01*
X154029000Y-63940000D01*
X154029000Y-63690000D01*
G37*
X154029000Y-63690000D02*
X154279000Y-63690000D01*
X154279000Y-63940000D01*
X154029000Y-63940000D01*
X154029000Y-63690000D01*
G36*
X156529000Y-63690000D02*
G01*
X156779000Y-63690000D01*
X156779000Y-63940000D01*
X156529000Y-63940000D01*
X156529000Y-63690000D01*
G37*
X156529000Y-63690000D02*
X156779000Y-63690000D01*
X156779000Y-63940000D01*
X156529000Y-63940000D01*
X156529000Y-63690000D01*
G36*
X156779000Y-63690000D02*
G01*
X157029000Y-63690000D01*
X157029000Y-63940000D01*
X156779000Y-63940000D01*
X156779000Y-63690000D01*
G37*
X156779000Y-63690000D02*
X157029000Y-63690000D01*
X157029000Y-63940000D01*
X156779000Y-63940000D01*
X156779000Y-63690000D01*
G36*
X157779000Y-63690000D02*
G01*
X158029000Y-63690000D01*
X158029000Y-63940000D01*
X157779000Y-63940000D01*
X157779000Y-63690000D01*
G37*
X157779000Y-63690000D02*
X158029000Y-63690000D01*
X158029000Y-63940000D01*
X157779000Y-63940000D01*
X157779000Y-63690000D01*
G36*
X159029000Y-63690000D02*
G01*
X159279000Y-63690000D01*
X159279000Y-63940000D01*
X159029000Y-63940000D01*
X159029000Y-63690000D01*
G37*
X159029000Y-63690000D02*
X159279000Y-63690000D01*
X159279000Y-63940000D01*
X159029000Y-63940000D01*
X159029000Y-63690000D01*
G36*
X159529000Y-63690000D02*
G01*
X159779000Y-63690000D01*
X159779000Y-63940000D01*
X159529000Y-63940000D01*
X159529000Y-63690000D01*
G37*
X159529000Y-63690000D02*
X159779000Y-63690000D01*
X159779000Y-63940000D01*
X159529000Y-63940000D01*
X159529000Y-63690000D01*
G36*
X160279000Y-63690000D02*
G01*
X160529000Y-63690000D01*
X160529000Y-63940000D01*
X160279000Y-63940000D01*
X160279000Y-63690000D01*
G37*
X160279000Y-63690000D02*
X160529000Y-63690000D01*
X160529000Y-63940000D01*
X160279000Y-63940000D01*
X160279000Y-63690000D01*
G36*
X138279000Y-63940000D02*
G01*
X138529000Y-63940000D01*
X138529000Y-64190000D01*
X138279000Y-64190000D01*
X138279000Y-63940000D01*
G37*
X138279000Y-63940000D02*
X138529000Y-63940000D01*
X138529000Y-64190000D01*
X138279000Y-64190000D01*
X138279000Y-63940000D01*
G36*
X139779000Y-63940000D02*
G01*
X140029000Y-63940000D01*
X140029000Y-64190000D01*
X139779000Y-64190000D01*
X139779000Y-63940000D01*
G37*
X139779000Y-63940000D02*
X140029000Y-63940000D01*
X140029000Y-64190000D01*
X139779000Y-64190000D01*
X139779000Y-63940000D01*
G36*
X140029000Y-63940000D02*
G01*
X140279000Y-63940000D01*
X140279000Y-64190000D01*
X140029000Y-64190000D01*
X140029000Y-63940000D01*
G37*
X140029000Y-63940000D02*
X140279000Y-63940000D01*
X140279000Y-64190000D01*
X140029000Y-64190000D01*
X140029000Y-63940000D01*
G36*
X141279000Y-63940000D02*
G01*
X141529000Y-63940000D01*
X141529000Y-64190000D01*
X141279000Y-64190000D01*
X141279000Y-63940000D01*
G37*
X141279000Y-63940000D02*
X141529000Y-63940000D01*
X141529000Y-64190000D01*
X141279000Y-64190000D01*
X141279000Y-63940000D01*
G36*
X141529000Y-63940000D02*
G01*
X141779000Y-63940000D01*
X141779000Y-64190000D01*
X141529000Y-64190000D01*
X141529000Y-63940000D01*
G37*
X141529000Y-63940000D02*
X141779000Y-63940000D01*
X141779000Y-64190000D01*
X141529000Y-64190000D01*
X141529000Y-63940000D01*
G36*
X141779000Y-63940000D02*
G01*
X142029000Y-63940000D01*
X142029000Y-64190000D01*
X141779000Y-64190000D01*
X141779000Y-63940000D01*
G37*
X141779000Y-63940000D02*
X142029000Y-63940000D01*
X142029000Y-64190000D01*
X141779000Y-64190000D01*
X141779000Y-63940000D01*
G36*
X142029000Y-63940000D02*
G01*
X142279000Y-63940000D01*
X142279000Y-64190000D01*
X142029000Y-64190000D01*
X142029000Y-63940000D01*
G37*
X142029000Y-63940000D02*
X142279000Y-63940000D01*
X142279000Y-64190000D01*
X142029000Y-64190000D01*
X142029000Y-63940000D01*
G36*
X142779000Y-63940000D02*
G01*
X143029000Y-63940000D01*
X143029000Y-64190000D01*
X142779000Y-64190000D01*
X142779000Y-63940000D01*
G37*
X142779000Y-63940000D02*
X143029000Y-63940000D01*
X143029000Y-64190000D01*
X142779000Y-64190000D01*
X142779000Y-63940000D01*
G36*
X143779000Y-63940000D02*
G01*
X144029000Y-63940000D01*
X144029000Y-64190000D01*
X143779000Y-64190000D01*
X143779000Y-63940000D01*
G37*
X143779000Y-63940000D02*
X144029000Y-63940000D01*
X144029000Y-64190000D01*
X143779000Y-64190000D01*
X143779000Y-63940000D01*
G36*
X144529000Y-63940000D02*
G01*
X144779000Y-63940000D01*
X144779000Y-64190000D01*
X144529000Y-64190000D01*
X144529000Y-63940000D01*
G37*
X144529000Y-63940000D02*
X144779000Y-63940000D01*
X144779000Y-64190000D01*
X144529000Y-64190000D01*
X144529000Y-63940000D01*
G36*
X145529000Y-63940000D02*
G01*
X145779000Y-63940000D01*
X145779000Y-64190000D01*
X145529000Y-64190000D01*
X145529000Y-63940000D01*
G37*
X145529000Y-63940000D02*
X145779000Y-63940000D01*
X145779000Y-64190000D01*
X145529000Y-64190000D01*
X145529000Y-63940000D01*
G36*
X146529000Y-63940000D02*
G01*
X146779000Y-63940000D01*
X146779000Y-64190000D01*
X146529000Y-64190000D01*
X146529000Y-63940000D01*
G37*
X146529000Y-63940000D02*
X146779000Y-63940000D01*
X146779000Y-64190000D01*
X146529000Y-64190000D01*
X146529000Y-63940000D01*
G36*
X148529000Y-63940000D02*
G01*
X148779000Y-63940000D01*
X148779000Y-64190000D01*
X148529000Y-64190000D01*
X148529000Y-63940000D01*
G37*
X148529000Y-63940000D02*
X148779000Y-63940000D01*
X148779000Y-64190000D01*
X148529000Y-64190000D01*
X148529000Y-63940000D01*
G36*
X150029000Y-63940000D02*
G01*
X150279000Y-63940000D01*
X150279000Y-64190000D01*
X150029000Y-64190000D01*
X150029000Y-63940000D01*
G37*
X150029000Y-63940000D02*
X150279000Y-63940000D01*
X150279000Y-64190000D01*
X150029000Y-64190000D01*
X150029000Y-63940000D01*
G36*
X151529000Y-63940000D02*
G01*
X151779000Y-63940000D01*
X151779000Y-64190000D01*
X151529000Y-64190000D01*
X151529000Y-63940000D01*
G37*
X151529000Y-63940000D02*
X151779000Y-63940000D01*
X151779000Y-64190000D01*
X151529000Y-64190000D01*
X151529000Y-63940000D01*
G36*
X152529000Y-63940000D02*
G01*
X152779000Y-63940000D01*
X152779000Y-64190000D01*
X152529000Y-64190000D01*
X152529000Y-63940000D01*
G37*
X152529000Y-63940000D02*
X152779000Y-63940000D01*
X152779000Y-64190000D01*
X152529000Y-64190000D01*
X152529000Y-63940000D01*
G36*
X153279000Y-63940000D02*
G01*
X153529000Y-63940000D01*
X153529000Y-64190000D01*
X153279000Y-64190000D01*
X153279000Y-63940000D01*
G37*
X153279000Y-63940000D02*
X153529000Y-63940000D01*
X153529000Y-64190000D01*
X153279000Y-64190000D01*
X153279000Y-63940000D01*
G36*
X153779000Y-63940000D02*
G01*
X154029000Y-63940000D01*
X154029000Y-64190000D01*
X153779000Y-64190000D01*
X153779000Y-63940000D01*
G37*
X153779000Y-63940000D02*
X154029000Y-63940000D01*
X154029000Y-64190000D01*
X153779000Y-64190000D01*
X153779000Y-63940000D01*
G36*
X154279000Y-63940000D02*
G01*
X154529000Y-63940000D01*
X154529000Y-64190000D01*
X154279000Y-64190000D01*
X154279000Y-63940000D01*
G37*
X154279000Y-63940000D02*
X154529000Y-63940000D01*
X154529000Y-64190000D01*
X154279000Y-64190000D01*
X154279000Y-63940000D01*
G36*
X156279000Y-63940000D02*
G01*
X156529000Y-63940000D01*
X156529000Y-64190000D01*
X156279000Y-64190000D01*
X156279000Y-63940000D01*
G37*
X156279000Y-63940000D02*
X156529000Y-63940000D01*
X156529000Y-64190000D01*
X156279000Y-64190000D01*
X156279000Y-63940000D01*
G36*
X156779000Y-63940000D02*
G01*
X157029000Y-63940000D01*
X157029000Y-64190000D01*
X156779000Y-64190000D01*
X156779000Y-63940000D01*
G37*
X156779000Y-63940000D02*
X157029000Y-63940000D01*
X157029000Y-64190000D01*
X156779000Y-64190000D01*
X156779000Y-63940000D01*
G36*
X158029000Y-63940000D02*
G01*
X158279000Y-63940000D01*
X158279000Y-64190000D01*
X158029000Y-64190000D01*
X158029000Y-63940000D01*
G37*
X158029000Y-63940000D02*
X158279000Y-63940000D01*
X158279000Y-64190000D01*
X158029000Y-64190000D01*
X158029000Y-63940000D01*
G36*
X158279000Y-63940000D02*
G01*
X158529000Y-63940000D01*
X158529000Y-64190000D01*
X158279000Y-64190000D01*
X158279000Y-63940000D01*
G37*
X158279000Y-63940000D02*
X158529000Y-63940000D01*
X158529000Y-64190000D01*
X158279000Y-64190000D01*
X158279000Y-63940000D01*
G36*
X158529000Y-63940000D02*
G01*
X158779000Y-63940000D01*
X158779000Y-64190000D01*
X158529000Y-64190000D01*
X158529000Y-63940000D01*
G37*
X158529000Y-63940000D02*
X158779000Y-63940000D01*
X158779000Y-64190000D01*
X158529000Y-64190000D01*
X158529000Y-63940000D01*
G36*
X158779000Y-63940000D02*
G01*
X159029000Y-63940000D01*
X159029000Y-64190000D01*
X158779000Y-64190000D01*
X158779000Y-63940000D01*
G37*
X158779000Y-63940000D02*
X159029000Y-63940000D01*
X159029000Y-64190000D01*
X158779000Y-64190000D01*
X158779000Y-63940000D01*
G36*
X159529000Y-63940000D02*
G01*
X159779000Y-63940000D01*
X159779000Y-64190000D01*
X159529000Y-64190000D01*
X159529000Y-63940000D01*
G37*
X159529000Y-63940000D02*
X159779000Y-63940000D01*
X159779000Y-64190000D01*
X159529000Y-64190000D01*
X159529000Y-63940000D01*
G36*
X159779000Y-63940000D02*
G01*
X160029000Y-63940000D01*
X160029000Y-64190000D01*
X159779000Y-64190000D01*
X159779000Y-63940000D01*
G37*
X159779000Y-63940000D02*
X160029000Y-63940000D01*
X160029000Y-64190000D01*
X159779000Y-64190000D01*
X159779000Y-63940000D01*
G36*
X160029000Y-63940000D02*
G01*
X160279000Y-63940000D01*
X160279000Y-64190000D01*
X160029000Y-64190000D01*
X160029000Y-63940000D01*
G37*
X160029000Y-63940000D02*
X160279000Y-63940000D01*
X160279000Y-64190000D01*
X160029000Y-64190000D01*
X160029000Y-63940000D01*
G36*
X138029000Y-64190000D02*
G01*
X138279000Y-64190000D01*
X138279000Y-64440000D01*
X138029000Y-64440000D01*
X138029000Y-64190000D01*
G37*
X138029000Y-64190000D02*
X138279000Y-64190000D01*
X138279000Y-64440000D01*
X138029000Y-64440000D01*
X138029000Y-64190000D01*
G36*
X139779000Y-64190000D02*
G01*
X140029000Y-64190000D01*
X140029000Y-64440000D01*
X139779000Y-64440000D01*
X139779000Y-64190000D01*
G37*
X139779000Y-64190000D02*
X140029000Y-64190000D01*
X140029000Y-64440000D01*
X139779000Y-64440000D01*
X139779000Y-64190000D01*
G36*
X140029000Y-64190000D02*
G01*
X140279000Y-64190000D01*
X140279000Y-64440000D01*
X140029000Y-64440000D01*
X140029000Y-64190000D01*
G37*
X140029000Y-64190000D02*
X140279000Y-64190000D01*
X140279000Y-64440000D01*
X140029000Y-64440000D01*
X140029000Y-64190000D01*
G36*
X142279000Y-64190000D02*
G01*
X142529000Y-64190000D01*
X142529000Y-64440000D01*
X142279000Y-64440000D01*
X142279000Y-64190000D01*
G37*
X142279000Y-64190000D02*
X142529000Y-64190000D01*
X142529000Y-64440000D01*
X142279000Y-64440000D01*
X142279000Y-64190000D01*
G36*
X142779000Y-64190000D02*
G01*
X143029000Y-64190000D01*
X143029000Y-64440000D01*
X142779000Y-64440000D01*
X142779000Y-64190000D01*
G37*
X142779000Y-64190000D02*
X143029000Y-64190000D01*
X143029000Y-64440000D01*
X142779000Y-64440000D01*
X142779000Y-64190000D01*
G36*
X143779000Y-64190000D02*
G01*
X144029000Y-64190000D01*
X144029000Y-64440000D01*
X143779000Y-64440000D01*
X143779000Y-64190000D01*
G37*
X143779000Y-64190000D02*
X144029000Y-64190000D01*
X144029000Y-64440000D01*
X143779000Y-64440000D01*
X143779000Y-64190000D01*
G36*
X144529000Y-64190000D02*
G01*
X144779000Y-64190000D01*
X144779000Y-64440000D01*
X144529000Y-64440000D01*
X144529000Y-64190000D01*
G37*
X144529000Y-64190000D02*
X144779000Y-64190000D01*
X144779000Y-64440000D01*
X144529000Y-64440000D01*
X144529000Y-64190000D01*
G36*
X144779000Y-64190000D02*
G01*
X145029000Y-64190000D01*
X145029000Y-64440000D01*
X144779000Y-64440000D01*
X144779000Y-64190000D01*
G37*
X144779000Y-64190000D02*
X145029000Y-64190000D01*
X145029000Y-64440000D01*
X144779000Y-64440000D01*
X144779000Y-64190000D01*
G36*
X145029000Y-64190000D02*
G01*
X145279000Y-64190000D01*
X145279000Y-64440000D01*
X145029000Y-64440000D01*
X145029000Y-64190000D01*
G37*
X145029000Y-64190000D02*
X145279000Y-64190000D01*
X145279000Y-64440000D01*
X145029000Y-64440000D01*
X145029000Y-64190000D01*
G36*
X145279000Y-64190000D02*
G01*
X145529000Y-64190000D01*
X145529000Y-64440000D01*
X145279000Y-64440000D01*
X145279000Y-64190000D01*
G37*
X145279000Y-64190000D02*
X145529000Y-64190000D01*
X145529000Y-64440000D01*
X145279000Y-64440000D01*
X145279000Y-64190000D01*
G36*
X146529000Y-64190000D02*
G01*
X146779000Y-64190000D01*
X146779000Y-64440000D01*
X146529000Y-64440000D01*
X146529000Y-64190000D01*
G37*
X146529000Y-64190000D02*
X146779000Y-64190000D01*
X146779000Y-64440000D01*
X146529000Y-64440000D01*
X146529000Y-64190000D01*
G36*
X148529000Y-64190000D02*
G01*
X148779000Y-64190000D01*
X148779000Y-64440000D01*
X148529000Y-64440000D01*
X148529000Y-64190000D01*
G37*
X148529000Y-64190000D02*
X148779000Y-64190000D01*
X148779000Y-64440000D01*
X148529000Y-64440000D01*
X148529000Y-64190000D01*
G36*
X150029000Y-64190000D02*
G01*
X150279000Y-64190000D01*
X150279000Y-64440000D01*
X150029000Y-64440000D01*
X150029000Y-64190000D01*
G37*
X150029000Y-64190000D02*
X150279000Y-64190000D01*
X150279000Y-64440000D01*
X150029000Y-64440000D01*
X150029000Y-64190000D01*
G36*
X151529000Y-64190000D02*
G01*
X151779000Y-64190000D01*
X151779000Y-64440000D01*
X151529000Y-64440000D01*
X151529000Y-64190000D01*
G37*
X151529000Y-64190000D02*
X151779000Y-64190000D01*
X151779000Y-64440000D01*
X151529000Y-64440000D01*
X151529000Y-64190000D01*
G36*
X152529000Y-64190000D02*
G01*
X152779000Y-64190000D01*
X152779000Y-64440000D01*
X152529000Y-64440000D01*
X152529000Y-64190000D01*
G37*
X152529000Y-64190000D02*
X152779000Y-64190000D01*
X152779000Y-64440000D01*
X152529000Y-64440000D01*
X152529000Y-64190000D01*
G36*
X153279000Y-64190000D02*
G01*
X153529000Y-64190000D01*
X153529000Y-64440000D01*
X153279000Y-64440000D01*
X153279000Y-64190000D01*
G37*
X153279000Y-64190000D02*
X153529000Y-64190000D01*
X153529000Y-64440000D01*
X153279000Y-64440000D01*
X153279000Y-64190000D01*
G36*
X153779000Y-64190000D02*
G01*
X154029000Y-64190000D01*
X154029000Y-64440000D01*
X153779000Y-64440000D01*
X153779000Y-64190000D01*
G37*
X153779000Y-64190000D02*
X154029000Y-64190000D01*
X154029000Y-64440000D01*
X153779000Y-64440000D01*
X153779000Y-64190000D01*
G36*
X154279000Y-64190000D02*
G01*
X154529000Y-64190000D01*
X154529000Y-64440000D01*
X154279000Y-64440000D01*
X154279000Y-64190000D01*
G37*
X154279000Y-64190000D02*
X154529000Y-64190000D01*
X154529000Y-64440000D01*
X154279000Y-64440000D01*
X154279000Y-64190000D01*
G36*
X156029000Y-64190000D02*
G01*
X156279000Y-64190000D01*
X156279000Y-64440000D01*
X156029000Y-64440000D01*
X156029000Y-64190000D01*
G37*
X156029000Y-64190000D02*
X156279000Y-64190000D01*
X156279000Y-64440000D01*
X156029000Y-64440000D01*
X156029000Y-64190000D01*
G36*
X156779000Y-64190000D02*
G01*
X157029000Y-64190000D01*
X157029000Y-64440000D01*
X156779000Y-64440000D01*
X156779000Y-64190000D01*
G37*
X156779000Y-64190000D02*
X157029000Y-64190000D01*
X157029000Y-64440000D01*
X156779000Y-64440000D01*
X156779000Y-64190000D01*
G36*
X157779000Y-64190000D02*
G01*
X158029000Y-64190000D01*
X158029000Y-64440000D01*
X157779000Y-64440000D01*
X157779000Y-64190000D01*
G37*
X157779000Y-64190000D02*
X158029000Y-64190000D01*
X158029000Y-64440000D01*
X157779000Y-64440000D01*
X157779000Y-64190000D01*
G36*
X159029000Y-64190000D02*
G01*
X159279000Y-64190000D01*
X159279000Y-64440000D01*
X159029000Y-64440000D01*
X159029000Y-64190000D01*
G37*
X159029000Y-64190000D02*
X159279000Y-64190000D01*
X159279000Y-64440000D01*
X159029000Y-64440000D01*
X159029000Y-64190000D01*
G36*
X159529000Y-64190000D02*
G01*
X159779000Y-64190000D01*
X159779000Y-64440000D01*
X159529000Y-64440000D01*
X159529000Y-64190000D01*
G37*
X159529000Y-64190000D02*
X159779000Y-64190000D01*
X159779000Y-64440000D01*
X159529000Y-64440000D01*
X159529000Y-64190000D01*
G36*
X160279000Y-64190000D02*
G01*
X160529000Y-64190000D01*
X160529000Y-64440000D01*
X160279000Y-64440000D01*
X160279000Y-64190000D01*
G37*
X160279000Y-64190000D02*
X160529000Y-64190000D01*
X160529000Y-64440000D01*
X160279000Y-64440000D01*
X160279000Y-64190000D01*
G36*
X137779000Y-64440000D02*
G01*
X138029000Y-64440000D01*
X138029000Y-64690000D01*
X137779000Y-64690000D01*
X137779000Y-64440000D01*
G37*
X137779000Y-64440000D02*
X138029000Y-64440000D01*
X138029000Y-64690000D01*
X137779000Y-64690000D01*
X137779000Y-64440000D01*
G36*
X139529000Y-64440000D02*
G01*
X139779000Y-64440000D01*
X139779000Y-64690000D01*
X139529000Y-64690000D01*
X139529000Y-64440000D01*
G37*
X139529000Y-64440000D02*
X139779000Y-64440000D01*
X139779000Y-64690000D01*
X139529000Y-64690000D01*
X139529000Y-64440000D01*
G36*
X140279000Y-64440000D02*
G01*
X140529000Y-64440000D01*
X140529000Y-64690000D01*
X140279000Y-64690000D01*
X140279000Y-64440000D01*
G37*
X140279000Y-64440000D02*
X140529000Y-64440000D01*
X140529000Y-64690000D01*
X140279000Y-64690000D01*
X140279000Y-64440000D01*
G36*
X141029000Y-64440000D02*
G01*
X141279000Y-64440000D01*
X141279000Y-64690000D01*
X141029000Y-64690000D01*
X141029000Y-64440000D01*
G37*
X141029000Y-64440000D02*
X141279000Y-64440000D01*
X141279000Y-64690000D01*
X141029000Y-64690000D01*
X141029000Y-64440000D01*
G36*
X142279000Y-64440000D02*
G01*
X142529000Y-64440000D01*
X142529000Y-64690000D01*
X142279000Y-64690000D01*
X142279000Y-64440000D01*
G37*
X142279000Y-64440000D02*
X142529000Y-64440000D01*
X142529000Y-64690000D01*
X142279000Y-64690000D01*
X142279000Y-64440000D01*
G36*
X142779000Y-64440000D02*
G01*
X143029000Y-64440000D01*
X143029000Y-64690000D01*
X142779000Y-64690000D01*
X142779000Y-64440000D01*
G37*
X142779000Y-64440000D02*
X143029000Y-64440000D01*
X143029000Y-64690000D01*
X142779000Y-64690000D01*
X142779000Y-64440000D01*
G36*
X143029000Y-64440000D02*
G01*
X143279000Y-64440000D01*
X143279000Y-64690000D01*
X143029000Y-64690000D01*
X143029000Y-64440000D01*
G37*
X143029000Y-64440000D02*
X143279000Y-64440000D01*
X143279000Y-64690000D01*
X143029000Y-64690000D01*
X143029000Y-64440000D01*
G36*
X143279000Y-64440000D02*
G01*
X143529000Y-64440000D01*
X143529000Y-64690000D01*
X143279000Y-64690000D01*
X143279000Y-64440000D01*
G37*
X143279000Y-64440000D02*
X143529000Y-64440000D01*
X143529000Y-64690000D01*
X143279000Y-64690000D01*
X143279000Y-64440000D01*
G36*
X143529000Y-64440000D02*
G01*
X143779000Y-64440000D01*
X143779000Y-64690000D01*
X143529000Y-64690000D01*
X143529000Y-64440000D01*
G37*
X143529000Y-64440000D02*
X143779000Y-64440000D01*
X143779000Y-64690000D01*
X143529000Y-64690000D01*
X143529000Y-64440000D01*
G36*
X144529000Y-64440000D02*
G01*
X144779000Y-64440000D01*
X144779000Y-64690000D01*
X144529000Y-64690000D01*
X144529000Y-64440000D01*
G37*
X144529000Y-64440000D02*
X144779000Y-64440000D01*
X144779000Y-64690000D01*
X144529000Y-64690000D01*
X144529000Y-64440000D01*
G36*
X146529000Y-64440000D02*
G01*
X146779000Y-64440000D01*
X146779000Y-64690000D01*
X146529000Y-64690000D01*
X146529000Y-64440000D01*
G37*
X146529000Y-64440000D02*
X146779000Y-64440000D01*
X146779000Y-64690000D01*
X146529000Y-64690000D01*
X146529000Y-64440000D01*
G36*
X148529000Y-64440000D02*
G01*
X148779000Y-64440000D01*
X148779000Y-64690000D01*
X148529000Y-64690000D01*
X148529000Y-64440000D01*
G37*
X148529000Y-64440000D02*
X148779000Y-64440000D01*
X148779000Y-64690000D01*
X148529000Y-64690000D01*
X148529000Y-64440000D01*
G36*
X150029000Y-64440000D02*
G01*
X150279000Y-64440000D01*
X150279000Y-64690000D01*
X150029000Y-64690000D01*
X150029000Y-64440000D01*
G37*
X150029000Y-64440000D02*
X150279000Y-64440000D01*
X150279000Y-64690000D01*
X150029000Y-64690000D01*
X150029000Y-64440000D01*
G36*
X151529000Y-64440000D02*
G01*
X151779000Y-64440000D01*
X151779000Y-64690000D01*
X151529000Y-64690000D01*
X151529000Y-64440000D01*
G37*
X151529000Y-64440000D02*
X151779000Y-64440000D01*
X151779000Y-64690000D01*
X151529000Y-64690000D01*
X151529000Y-64440000D01*
G36*
X152529000Y-64440000D02*
G01*
X152779000Y-64440000D01*
X152779000Y-64690000D01*
X152529000Y-64690000D01*
X152529000Y-64440000D01*
G37*
X152529000Y-64440000D02*
X152779000Y-64440000D01*
X152779000Y-64690000D01*
X152529000Y-64690000D01*
X152529000Y-64440000D01*
G36*
X153279000Y-64440000D02*
G01*
X153529000Y-64440000D01*
X153529000Y-64690000D01*
X153279000Y-64690000D01*
X153279000Y-64440000D01*
G37*
X153279000Y-64440000D02*
X153529000Y-64440000D01*
X153529000Y-64690000D01*
X153279000Y-64690000D01*
X153279000Y-64440000D01*
G36*
X153779000Y-64440000D02*
G01*
X154029000Y-64440000D01*
X154029000Y-64690000D01*
X153779000Y-64690000D01*
X153779000Y-64440000D01*
G37*
X153779000Y-64440000D02*
X154029000Y-64440000D01*
X154029000Y-64690000D01*
X153779000Y-64690000D01*
X153779000Y-64440000D01*
G36*
X154279000Y-64440000D02*
G01*
X154529000Y-64440000D01*
X154529000Y-64690000D01*
X154279000Y-64690000D01*
X154279000Y-64440000D01*
G37*
X154279000Y-64440000D02*
X154529000Y-64440000D01*
X154529000Y-64690000D01*
X154279000Y-64690000D01*
X154279000Y-64440000D01*
G36*
X156029000Y-64440000D02*
G01*
X156279000Y-64440000D01*
X156279000Y-64690000D01*
X156029000Y-64690000D01*
X156029000Y-64440000D01*
G37*
X156029000Y-64440000D02*
X156279000Y-64440000D01*
X156279000Y-64690000D01*
X156029000Y-64690000D01*
X156029000Y-64440000D01*
G36*
X156279000Y-64440000D02*
G01*
X156529000Y-64440000D01*
X156529000Y-64690000D01*
X156279000Y-64690000D01*
X156279000Y-64440000D01*
G37*
X156279000Y-64440000D02*
X156529000Y-64440000D01*
X156529000Y-64690000D01*
X156279000Y-64690000D01*
X156279000Y-64440000D01*
G36*
X156529000Y-64440000D02*
G01*
X156779000Y-64440000D01*
X156779000Y-64690000D01*
X156529000Y-64690000D01*
X156529000Y-64440000D01*
G37*
X156529000Y-64440000D02*
X156779000Y-64440000D01*
X156779000Y-64690000D01*
X156529000Y-64690000D01*
X156529000Y-64440000D01*
G36*
X156779000Y-64440000D02*
G01*
X157029000Y-64440000D01*
X157029000Y-64690000D01*
X156779000Y-64690000D01*
X156779000Y-64440000D01*
G37*
X156779000Y-64440000D02*
X157029000Y-64440000D01*
X157029000Y-64690000D01*
X156779000Y-64690000D01*
X156779000Y-64440000D01*
G36*
X157029000Y-64440000D02*
G01*
X157279000Y-64440000D01*
X157279000Y-64690000D01*
X157029000Y-64690000D01*
X157029000Y-64440000D01*
G37*
X157029000Y-64440000D02*
X157279000Y-64440000D01*
X157279000Y-64690000D01*
X157029000Y-64690000D01*
X157029000Y-64440000D01*
G36*
X157279000Y-64440000D02*
G01*
X157529000Y-64440000D01*
X157529000Y-64690000D01*
X157279000Y-64690000D01*
X157279000Y-64440000D01*
G37*
X157279000Y-64440000D02*
X157529000Y-64440000D01*
X157529000Y-64690000D01*
X157279000Y-64690000D01*
X157279000Y-64440000D01*
G36*
X157779000Y-64440000D02*
G01*
X158029000Y-64440000D01*
X158029000Y-64690000D01*
X157779000Y-64690000D01*
X157779000Y-64440000D01*
G37*
X157779000Y-64440000D02*
X158029000Y-64440000D01*
X158029000Y-64690000D01*
X157779000Y-64690000D01*
X157779000Y-64440000D01*
G36*
X159029000Y-64440000D02*
G01*
X159279000Y-64440000D01*
X159279000Y-64690000D01*
X159029000Y-64690000D01*
X159029000Y-64440000D01*
G37*
X159029000Y-64440000D02*
X159279000Y-64440000D01*
X159279000Y-64690000D01*
X159029000Y-64690000D01*
X159029000Y-64440000D01*
G36*
X159529000Y-64440000D02*
G01*
X159779000Y-64440000D01*
X159779000Y-64690000D01*
X159529000Y-64690000D01*
X159529000Y-64440000D01*
G37*
X159529000Y-64440000D02*
X159779000Y-64440000D01*
X159779000Y-64690000D01*
X159529000Y-64690000D01*
X159529000Y-64440000D01*
G36*
X160529000Y-64440000D02*
G01*
X160779000Y-64440000D01*
X160779000Y-64690000D01*
X160529000Y-64690000D01*
X160529000Y-64440000D01*
G37*
X160529000Y-64440000D02*
X160779000Y-64440000D01*
X160779000Y-64690000D01*
X160529000Y-64690000D01*
X160529000Y-64440000D01*
G36*
X137529000Y-64690000D02*
G01*
X137779000Y-64690000D01*
X137779000Y-64940000D01*
X137529000Y-64940000D01*
X137529000Y-64690000D01*
G37*
X137529000Y-64690000D02*
X137779000Y-64690000D01*
X137779000Y-64940000D01*
X137529000Y-64940000D01*
X137529000Y-64690000D01*
G36*
X137779000Y-64690000D02*
G01*
X138029000Y-64690000D01*
X138029000Y-64940000D01*
X137779000Y-64940000D01*
X137779000Y-64690000D01*
G37*
X137779000Y-64690000D02*
X138029000Y-64690000D01*
X138029000Y-64940000D01*
X137779000Y-64940000D01*
X137779000Y-64690000D01*
G36*
X138029000Y-64690000D02*
G01*
X138279000Y-64690000D01*
X138279000Y-64940000D01*
X138029000Y-64940000D01*
X138029000Y-64690000D01*
G37*
X138029000Y-64690000D02*
X138279000Y-64690000D01*
X138279000Y-64940000D01*
X138029000Y-64940000D01*
X138029000Y-64690000D01*
G36*
X138279000Y-64690000D02*
G01*
X138529000Y-64690000D01*
X138529000Y-64940000D01*
X138279000Y-64940000D01*
X138279000Y-64690000D01*
G37*
X138279000Y-64690000D02*
X138529000Y-64690000D01*
X138529000Y-64940000D01*
X138279000Y-64940000D01*
X138279000Y-64690000D01*
G36*
X138529000Y-64690000D02*
G01*
X138779000Y-64690000D01*
X138779000Y-64940000D01*
X138529000Y-64940000D01*
X138529000Y-64690000D01*
G37*
X138529000Y-64690000D02*
X138779000Y-64690000D01*
X138779000Y-64940000D01*
X138529000Y-64940000D01*
X138529000Y-64690000D01*
G36*
X138779000Y-64690000D02*
G01*
X139029000Y-64690000D01*
X139029000Y-64940000D01*
X138779000Y-64940000D01*
X138779000Y-64690000D01*
G37*
X138779000Y-64690000D02*
X139029000Y-64690000D01*
X139029000Y-64940000D01*
X138779000Y-64940000D01*
X138779000Y-64690000D01*
G36*
X139279000Y-64690000D02*
G01*
X139529000Y-64690000D01*
X139529000Y-64940000D01*
X139279000Y-64940000D01*
X139279000Y-64690000D01*
G37*
X139279000Y-64690000D02*
X139529000Y-64690000D01*
X139529000Y-64940000D01*
X139279000Y-64940000D01*
X139279000Y-64690000D01*
G36*
X140529000Y-64690000D02*
G01*
X140779000Y-64690000D01*
X140779000Y-64940000D01*
X140529000Y-64940000D01*
X140529000Y-64690000D01*
G37*
X140529000Y-64690000D02*
X140779000Y-64690000D01*
X140779000Y-64940000D01*
X140529000Y-64940000D01*
X140529000Y-64690000D01*
G36*
X141279000Y-64690000D02*
G01*
X141529000Y-64690000D01*
X141529000Y-64940000D01*
X141279000Y-64940000D01*
X141279000Y-64690000D01*
G37*
X141279000Y-64690000D02*
X141529000Y-64690000D01*
X141529000Y-64940000D01*
X141279000Y-64940000D01*
X141279000Y-64690000D01*
G36*
X141529000Y-64690000D02*
G01*
X141779000Y-64690000D01*
X141779000Y-64940000D01*
X141529000Y-64940000D01*
X141529000Y-64690000D01*
G37*
X141529000Y-64690000D02*
X141779000Y-64690000D01*
X141779000Y-64940000D01*
X141529000Y-64940000D01*
X141529000Y-64690000D01*
G36*
X141779000Y-64690000D02*
G01*
X142029000Y-64690000D01*
X142029000Y-64940000D01*
X141779000Y-64940000D01*
X141779000Y-64690000D01*
G37*
X141779000Y-64690000D02*
X142029000Y-64690000D01*
X142029000Y-64940000D01*
X141779000Y-64940000D01*
X141779000Y-64690000D01*
G36*
X142029000Y-64690000D02*
G01*
X142279000Y-64690000D01*
X142279000Y-64940000D01*
X142029000Y-64940000D01*
X142029000Y-64690000D01*
G37*
X142029000Y-64690000D02*
X142279000Y-64690000D01*
X142279000Y-64940000D01*
X142029000Y-64940000D01*
X142029000Y-64690000D01*
G36*
X142779000Y-64690000D02*
G01*
X143029000Y-64690000D01*
X143029000Y-64940000D01*
X142779000Y-64940000D01*
X142779000Y-64690000D01*
G37*
X142779000Y-64690000D02*
X143029000Y-64690000D01*
X143029000Y-64940000D01*
X142779000Y-64940000D01*
X142779000Y-64690000D01*
G36*
X144779000Y-64690000D02*
G01*
X145029000Y-64690000D01*
X145029000Y-64940000D01*
X144779000Y-64940000D01*
X144779000Y-64690000D01*
G37*
X144779000Y-64690000D02*
X145029000Y-64690000D01*
X145029000Y-64940000D01*
X144779000Y-64940000D01*
X144779000Y-64690000D01*
G36*
X145029000Y-64690000D02*
G01*
X145279000Y-64690000D01*
X145279000Y-64940000D01*
X145029000Y-64940000D01*
X145029000Y-64690000D01*
G37*
X145029000Y-64690000D02*
X145279000Y-64690000D01*
X145279000Y-64940000D01*
X145029000Y-64940000D01*
X145029000Y-64690000D01*
G36*
X145279000Y-64690000D02*
G01*
X145529000Y-64690000D01*
X145529000Y-64940000D01*
X145279000Y-64940000D01*
X145279000Y-64690000D01*
G37*
X145279000Y-64690000D02*
X145529000Y-64690000D01*
X145529000Y-64940000D01*
X145279000Y-64940000D01*
X145279000Y-64690000D01*
G36*
X145529000Y-64690000D02*
G01*
X145779000Y-64690000D01*
X145779000Y-64940000D01*
X145529000Y-64940000D01*
X145529000Y-64690000D01*
G37*
X145529000Y-64690000D02*
X145779000Y-64690000D01*
X145779000Y-64940000D01*
X145529000Y-64940000D01*
X145529000Y-64690000D01*
G36*
X146779000Y-64690000D02*
G01*
X147029000Y-64690000D01*
X147029000Y-64940000D01*
X146779000Y-64940000D01*
X146779000Y-64690000D01*
G37*
X146779000Y-64690000D02*
X147029000Y-64690000D01*
X147029000Y-64940000D01*
X146779000Y-64940000D01*
X146779000Y-64690000D01*
G36*
X147029000Y-64690000D02*
G01*
X147279000Y-64690000D01*
X147279000Y-64940000D01*
X147029000Y-64940000D01*
X147029000Y-64690000D01*
G37*
X147029000Y-64690000D02*
X147279000Y-64690000D01*
X147279000Y-64940000D01*
X147029000Y-64940000D01*
X147029000Y-64690000D01*
G36*
X147279000Y-64690000D02*
G01*
X147529000Y-64690000D01*
X147529000Y-64940000D01*
X147279000Y-64940000D01*
X147279000Y-64690000D01*
G37*
X147279000Y-64690000D02*
X147529000Y-64690000D01*
X147529000Y-64940000D01*
X147279000Y-64940000D01*
X147279000Y-64690000D01*
G36*
X148779000Y-64690000D02*
G01*
X149029000Y-64690000D01*
X149029000Y-64940000D01*
X148779000Y-64940000D01*
X148779000Y-64690000D01*
G37*
X148779000Y-64690000D02*
X149029000Y-64690000D01*
X149029000Y-64940000D01*
X148779000Y-64940000D01*
X148779000Y-64690000D01*
G36*
X149029000Y-64690000D02*
G01*
X149279000Y-64690000D01*
X149279000Y-64940000D01*
X149029000Y-64940000D01*
X149029000Y-64690000D01*
G37*
X149029000Y-64690000D02*
X149279000Y-64690000D01*
X149279000Y-64940000D01*
X149029000Y-64940000D01*
X149029000Y-64690000D01*
G36*
X150029000Y-64690000D02*
G01*
X150279000Y-64690000D01*
X150279000Y-64940000D01*
X150029000Y-64940000D01*
X150029000Y-64690000D01*
G37*
X150029000Y-64690000D02*
X150279000Y-64690000D01*
X150279000Y-64940000D01*
X150029000Y-64940000D01*
X150029000Y-64690000D01*
G36*
X151779000Y-64690000D02*
G01*
X152029000Y-64690000D01*
X152029000Y-64940000D01*
X151779000Y-64940000D01*
X151779000Y-64690000D01*
G37*
X151779000Y-64690000D02*
X152029000Y-64690000D01*
X152029000Y-64940000D01*
X151779000Y-64940000D01*
X151779000Y-64690000D01*
G36*
X152029000Y-64690000D02*
G01*
X152279000Y-64690000D01*
X152279000Y-64940000D01*
X152029000Y-64940000D01*
X152029000Y-64690000D01*
G37*
X152029000Y-64690000D02*
X152279000Y-64690000D01*
X152279000Y-64940000D01*
X152029000Y-64940000D01*
X152029000Y-64690000D01*
G36*
X152279000Y-64690000D02*
G01*
X152529000Y-64690000D01*
X152529000Y-64940000D01*
X152279000Y-64940000D01*
X152279000Y-64690000D01*
G37*
X152279000Y-64690000D02*
X152529000Y-64690000D01*
X152529000Y-64940000D01*
X152279000Y-64940000D01*
X152279000Y-64690000D01*
G36*
X153279000Y-64690000D02*
G01*
X153529000Y-64690000D01*
X153529000Y-64940000D01*
X153279000Y-64940000D01*
X153279000Y-64690000D01*
G37*
X153279000Y-64690000D02*
X153529000Y-64690000D01*
X153529000Y-64940000D01*
X153279000Y-64940000D01*
X153279000Y-64690000D01*
G36*
X153779000Y-64690000D02*
G01*
X154029000Y-64690000D01*
X154029000Y-64940000D01*
X153779000Y-64940000D01*
X153779000Y-64690000D01*
G37*
X153779000Y-64690000D02*
X154029000Y-64690000D01*
X154029000Y-64940000D01*
X153779000Y-64940000D01*
X153779000Y-64690000D01*
G36*
X154279000Y-64690000D02*
G01*
X154529000Y-64690000D01*
X154529000Y-64940000D01*
X154279000Y-64940000D01*
X154279000Y-64690000D01*
G37*
X154279000Y-64690000D02*
X154529000Y-64690000D01*
X154529000Y-64940000D01*
X154279000Y-64940000D01*
X154279000Y-64690000D01*
G36*
X156779000Y-64690000D02*
G01*
X157029000Y-64690000D01*
X157029000Y-64940000D01*
X156779000Y-64940000D01*
X156779000Y-64690000D01*
G37*
X156779000Y-64690000D02*
X157029000Y-64690000D01*
X157029000Y-64940000D01*
X156779000Y-64940000D01*
X156779000Y-64690000D01*
G36*
X158029000Y-64690000D02*
G01*
X158279000Y-64690000D01*
X158279000Y-64940000D01*
X158029000Y-64940000D01*
X158029000Y-64690000D01*
G37*
X158029000Y-64690000D02*
X158279000Y-64690000D01*
X158279000Y-64940000D01*
X158029000Y-64940000D01*
X158029000Y-64690000D01*
G36*
X158279000Y-64690000D02*
G01*
X158529000Y-64690000D01*
X158529000Y-64940000D01*
X158279000Y-64940000D01*
X158279000Y-64690000D01*
G37*
X158279000Y-64690000D02*
X158529000Y-64690000D01*
X158529000Y-64940000D01*
X158279000Y-64940000D01*
X158279000Y-64690000D01*
G36*
X158529000Y-64690000D02*
G01*
X158779000Y-64690000D01*
X158779000Y-64940000D01*
X158529000Y-64940000D01*
X158529000Y-64690000D01*
G37*
X158529000Y-64690000D02*
X158779000Y-64690000D01*
X158779000Y-64940000D01*
X158529000Y-64940000D01*
X158529000Y-64690000D01*
G36*
X158779000Y-64690000D02*
G01*
X159029000Y-64690000D01*
X159029000Y-64940000D01*
X158779000Y-64940000D01*
X158779000Y-64690000D01*
G37*
X158779000Y-64690000D02*
X159029000Y-64690000D01*
X159029000Y-64940000D01*
X158779000Y-64940000D01*
X158779000Y-64690000D01*
G36*
X159529000Y-64690000D02*
G01*
X159779000Y-64690000D01*
X159779000Y-64940000D01*
X159529000Y-64940000D01*
X159529000Y-64690000D01*
G37*
X159529000Y-64690000D02*
X159779000Y-64690000D01*
X159779000Y-64940000D01*
X159529000Y-64940000D01*
X159529000Y-64690000D01*
G36*
X160779000Y-64690000D02*
G01*
X161029000Y-64690000D01*
X161029000Y-64940000D01*
X160779000Y-64940000D01*
X160779000Y-64690000D01*
G37*
X160779000Y-64690000D02*
X161029000Y-64690000D01*
X161029000Y-64940000D01*
X160779000Y-64940000D01*
X160779000Y-64690000D01*
G36*
X142779000Y-64940000D02*
G01*
X143029000Y-64940000D01*
X143029000Y-65190000D01*
X142779000Y-65190000D01*
X142779000Y-64940000D01*
G37*
X142779000Y-64940000D02*
X143029000Y-64940000D01*
X143029000Y-65190000D01*
X142779000Y-65190000D01*
X142779000Y-64940000D01*
D13*
%TO.C,C1*%
X148944000Y-67975000D02*
X148944000Y-72915000D01*
X146204000Y-67975000D02*
X146204000Y-72915000D01*
X148944000Y-67975000D02*
X148629000Y-67975000D01*
X146519000Y-67975000D02*
X146204000Y-67975000D01*
X148944000Y-72915000D02*
X148629000Y-72915000D01*
X146519000Y-72915000D02*
X146204000Y-72915000D01*
%TO.C,U1*%
X135144000Y-66615000D02*
X130084000Y-66615000D01*
X130084000Y-66615000D02*
X130084000Y-102295000D01*
X130084000Y-102295000D02*
X142204000Y-102295000D01*
X142204000Y-102295000D02*
X142204000Y-66615000D01*
X142204000Y-66615000D02*
X137144000Y-66615000D01*
X127084000Y-66555000D02*
X127084000Y-102355000D01*
X127084000Y-102355000D02*
X145204000Y-102355000D01*
X145204000Y-102355000D02*
X145204000Y-66555000D01*
X145204000Y-66555000D02*
X127084000Y-66555000D01*
X137144000Y-66615000D02*
G75*
G02*
X135144000Y-66615000I-1000000J0D01*
G01*
%TO.C,C2*%
X172554000Y-72915000D02*
X172239000Y-72915000D01*
X174979000Y-72915000D02*
X174664000Y-72915000D01*
X172554000Y-67975000D02*
X172239000Y-67975000D01*
X174979000Y-67975000D02*
X174664000Y-67975000D01*
X172239000Y-67975000D02*
X172239000Y-72915000D01*
X174979000Y-67975000D02*
X174979000Y-72915000D01*
%TO.C,U2*%
X171239000Y-66555000D02*
X153119000Y-66555000D01*
X171239000Y-102355000D02*
X171239000Y-66555000D01*
X153119000Y-102355000D02*
X171239000Y-102355000D01*
X153119000Y-66555000D02*
X153119000Y-102355000D01*
X168239000Y-66615000D02*
X163179000Y-66615000D01*
X168239000Y-102295000D02*
X168239000Y-66615000D01*
X156119000Y-102295000D02*
X168239000Y-102295000D01*
X156119000Y-66615000D02*
X156119000Y-102295000D01*
X161179000Y-66615000D02*
X156119000Y-66615000D01*
X163179000Y-66615000D02*
G75*
G02*
X161179000Y-66615000I-1000000J0D01*
G01*
D10*
%TO.C,JP1*%
X176149000Y-79629000D02*
X176403000Y-79629000D01*
X173355000Y-77343000D02*
X173355000Y-83693000D01*
X173355000Y-83693000D02*
X176403000Y-83693000D01*
X176149000Y-83185000D02*
X176403000Y-83185000D01*
X176403000Y-83185000D02*
X176403000Y-79629000D01*
X176403000Y-79121000D02*
X176403000Y-77343000D01*
X176403000Y-77343000D02*
X173355000Y-77343000D01*
%TO.C,JP2*%
X176403000Y-87503000D02*
X173355000Y-87503000D01*
X176403000Y-89281000D02*
X176403000Y-87503000D01*
X176403000Y-93345000D02*
X176403000Y-89789000D01*
X176149000Y-93345000D02*
X176403000Y-93345000D01*
X173355000Y-93853000D02*
X176403000Y-93853000D01*
X173355000Y-87503000D02*
X173355000Y-93853000D01*
X176149000Y-89789000D02*
X176403000Y-89789000D01*
%TO.C,J1*%
X121840714Y-111164666D02*
X122316904Y-111164666D01*
X121745476Y-111450380D02*
X122078809Y-110450380D01*
X122412142Y-111450380D01*
X123269285Y-111450380D02*
X122697857Y-111450380D01*
X122983571Y-111450380D02*
X122983571Y-110450380D01*
X122888333Y-110593238D01*
X122793095Y-110688476D01*
X122697857Y-110736095D01*
X174704523Y-111164666D02*
X175180714Y-111164666D01*
X174609285Y-111450380D02*
X174942619Y-110450380D01*
X175275952Y-111450380D01*
X175561666Y-110545619D02*
X175609285Y-110498000D01*
X175704523Y-110450380D01*
X175942619Y-110450380D01*
X176037857Y-110498000D01*
X176085476Y-110545619D01*
X176133095Y-110640857D01*
X176133095Y-110736095D01*
X176085476Y-110878952D01*
X175514047Y-111450380D01*
X176133095Y-111450380D01*
X176514047Y-110545619D02*
X176561666Y-110498000D01*
X176656904Y-110450380D01*
X176895000Y-110450380D01*
X176990238Y-110498000D01*
X177037857Y-110545619D01*
X177085476Y-110640857D01*
X177085476Y-110736095D01*
X177037857Y-110878952D01*
X176466428Y-111450380D01*
X177085476Y-111450380D01*
%TO.C,sinclair_title*%
%TO.C,C1*%
X147407333Y-70842142D02*
X147359714Y-70889761D01*
X147216857Y-70937380D01*
X147121619Y-70937380D01*
X146978761Y-70889761D01*
X146883523Y-70794523D01*
X146835904Y-70699285D01*
X146788285Y-70508809D01*
X146788285Y-70365952D01*
X146835904Y-70175476D01*
X146883523Y-70080238D01*
X146978761Y-69985000D01*
X147121619Y-69937380D01*
X147216857Y-69937380D01*
X147359714Y-69985000D01*
X147407333Y-70032619D01*
X148359714Y-70937380D02*
X147788285Y-70937380D01*
X148074000Y-70937380D02*
X148074000Y-69937380D01*
X147978761Y-70080238D01*
X147883523Y-70175476D01*
X147788285Y-70223095D01*
%TO.C,U1*%
X135382095Y-69937380D02*
X135382095Y-70746904D01*
X135429714Y-70842142D01*
X135477333Y-70889761D01*
X135572571Y-70937380D01*
X135763047Y-70937380D01*
X135858285Y-70889761D01*
X135905904Y-70842142D01*
X135953523Y-70746904D01*
X135953523Y-69937380D01*
X136953523Y-70937380D02*
X136382095Y-70937380D01*
X136667809Y-70937380D02*
X136667809Y-69937380D01*
X136572571Y-70080238D01*
X136477333Y-70175476D01*
X136382095Y-70223095D01*
X133453523Y-72572619D02*
X133501142Y-72525000D01*
X133596380Y-72477380D01*
X133834476Y-72477380D01*
X133929714Y-72525000D01*
X133977333Y-72572619D01*
X134024952Y-72667857D01*
X134024952Y-72763095D01*
X133977333Y-72905952D01*
X133405904Y-73477380D01*
X134024952Y-73477380D01*
X134358285Y-72477380D02*
X135024952Y-72477380D01*
X134596380Y-73477380D01*
X135977333Y-73382142D02*
X135929714Y-73429761D01*
X135786857Y-73477380D01*
X135691619Y-73477380D01*
X135548761Y-73429761D01*
X135453523Y-73334523D01*
X135405904Y-73239285D01*
X135358285Y-73048809D01*
X135358285Y-72905952D01*
X135405904Y-72715476D01*
X135453523Y-72620238D01*
X135548761Y-72525000D01*
X135691619Y-72477380D01*
X135786857Y-72477380D01*
X135929714Y-72525000D01*
X135977333Y-72572619D01*
X136882095Y-72477380D02*
X136405904Y-72477380D01*
X136358285Y-72953571D01*
X136405904Y-72905952D01*
X136501142Y-72858333D01*
X136739238Y-72858333D01*
X136834476Y-72905952D01*
X136882095Y-72953571D01*
X136929714Y-73048809D01*
X136929714Y-73286904D01*
X136882095Y-73382142D01*
X136834476Y-73429761D01*
X136739238Y-73477380D01*
X136501142Y-73477380D01*
X136405904Y-73429761D01*
X136358285Y-73382142D01*
X137882095Y-73477380D02*
X137310666Y-73477380D01*
X137596380Y-73477380D02*
X137596380Y-72477380D01*
X137501142Y-72620238D01*
X137405904Y-72715476D01*
X137310666Y-72763095D01*
X138263047Y-72572619D02*
X138310666Y-72525000D01*
X138405904Y-72477380D01*
X138644000Y-72477380D01*
X138739238Y-72525000D01*
X138786857Y-72572619D01*
X138834476Y-72667857D01*
X138834476Y-72763095D01*
X138786857Y-72905952D01*
X138215428Y-73477380D01*
X138834476Y-73477380D01*
%TO.C,C2*%
X173442333Y-70802142D02*
X173394714Y-70849761D01*
X173251857Y-70897380D01*
X173156619Y-70897380D01*
X173013761Y-70849761D01*
X172918523Y-70754523D01*
X172870904Y-70659285D01*
X172823285Y-70468809D01*
X172823285Y-70325952D01*
X172870904Y-70135476D01*
X172918523Y-70040238D01*
X173013761Y-69945000D01*
X173156619Y-69897380D01*
X173251857Y-69897380D01*
X173394714Y-69945000D01*
X173442333Y-69992619D01*
X173823285Y-69992619D02*
X173870904Y-69945000D01*
X173966142Y-69897380D01*
X174204238Y-69897380D01*
X174299476Y-69945000D01*
X174347095Y-69992619D01*
X174394714Y-70087857D01*
X174394714Y-70183095D01*
X174347095Y-70325952D01*
X173775666Y-70897380D01*
X174394714Y-70897380D01*
%TO.C,U2*%
X161417095Y-69937380D02*
X161417095Y-70746904D01*
X161464714Y-70842142D01*
X161512333Y-70889761D01*
X161607571Y-70937380D01*
X161798047Y-70937380D01*
X161893285Y-70889761D01*
X161940904Y-70842142D01*
X161988523Y-70746904D01*
X161988523Y-69937380D01*
X162417095Y-70032619D02*
X162464714Y-69985000D01*
X162559952Y-69937380D01*
X162798047Y-69937380D01*
X162893285Y-69985000D01*
X162940904Y-70032619D01*
X162988523Y-70127857D01*
X162988523Y-70223095D01*
X162940904Y-70365952D01*
X162369476Y-70937380D01*
X162988523Y-70937380D01*
X159488523Y-72572619D02*
X159536142Y-72525000D01*
X159631380Y-72477380D01*
X159869476Y-72477380D01*
X159964714Y-72525000D01*
X160012333Y-72572619D01*
X160059952Y-72667857D01*
X160059952Y-72763095D01*
X160012333Y-72905952D01*
X159440904Y-73477380D01*
X160059952Y-73477380D01*
X160393285Y-72477380D02*
X161059952Y-72477380D01*
X160631380Y-73477380D01*
X162012333Y-73382142D02*
X161964714Y-73429761D01*
X161821857Y-73477380D01*
X161726619Y-73477380D01*
X161583761Y-73429761D01*
X161488523Y-73334523D01*
X161440904Y-73239285D01*
X161393285Y-73048809D01*
X161393285Y-72905952D01*
X161440904Y-72715476D01*
X161488523Y-72620238D01*
X161583761Y-72525000D01*
X161726619Y-72477380D01*
X161821857Y-72477380D01*
X161964714Y-72525000D01*
X162012333Y-72572619D01*
X162917095Y-72477380D02*
X162440904Y-72477380D01*
X162393285Y-72953571D01*
X162440904Y-72905952D01*
X162536142Y-72858333D01*
X162774238Y-72858333D01*
X162869476Y-72905952D01*
X162917095Y-72953571D01*
X162964714Y-73048809D01*
X162964714Y-73286904D01*
X162917095Y-73382142D01*
X162869476Y-73429761D01*
X162774238Y-73477380D01*
X162536142Y-73477380D01*
X162440904Y-73429761D01*
X162393285Y-73382142D01*
X163917095Y-73477380D02*
X163345666Y-73477380D01*
X163631380Y-73477380D02*
X163631380Y-72477380D01*
X163536142Y-72620238D01*
X163440904Y-72715476D01*
X163345666Y-72763095D01*
X164298047Y-72572619D02*
X164345666Y-72525000D01*
X164440904Y-72477380D01*
X164679000Y-72477380D01*
X164774238Y-72525000D01*
X164821857Y-72572619D01*
X164869476Y-72667857D01*
X164869476Y-72763095D01*
X164821857Y-72905952D01*
X164250428Y-73477380D01*
X164869476Y-73477380D01*
%TO.C,JP1*%
D11*
X173926619Y-76460333D02*
X174307571Y-76460333D01*
X173850428Y-76688904D02*
X174117095Y-75888904D01*
X174383761Y-76688904D01*
X175069476Y-76688904D02*
X174612333Y-76688904D01*
X174840904Y-76688904D02*
X174840904Y-75888904D01*
X174764714Y-76003190D01*
X174688523Y-76079380D01*
X174612333Y-76117476D01*
X175793285Y-75888904D02*
X175412333Y-75888904D01*
X175374238Y-76269857D01*
X175412333Y-76231761D01*
X175488523Y-76193666D01*
X175679000Y-76193666D01*
X175755190Y-76231761D01*
X175793285Y-76269857D01*
X175831380Y-76346047D01*
X175831380Y-76536523D01*
X175793285Y-76612714D01*
X175755190Y-76650809D01*
X175679000Y-76688904D01*
X175488523Y-76688904D01*
X175412333Y-76650809D01*
X175374238Y-76612714D01*
D14*
X171922809Y-78992333D02*
X172465666Y-78992333D01*
X172574238Y-79028523D01*
X172646619Y-79100904D01*
X172682809Y-79209476D01*
X172682809Y-79281857D01*
X172682809Y-78630428D02*
X171922809Y-78630428D01*
X171922809Y-78340904D01*
X171959000Y-78268523D01*
X171995190Y-78232333D01*
X172067571Y-78196142D01*
X172176142Y-78196142D01*
X172248523Y-78232333D01*
X172284714Y-78268523D01*
X172320904Y-78340904D01*
X172320904Y-78630428D01*
X172682809Y-77472333D02*
X172682809Y-77906619D01*
X172682809Y-77689476D02*
X171922809Y-77689476D01*
X172031380Y-77761857D01*
X172103761Y-77834238D01*
X172139952Y-77906619D01*
%TO.C,JP2*%
D11*
X173926619Y-86620333D02*
X174307571Y-86620333D01*
X173850428Y-86848904D02*
X174117095Y-86048904D01*
X174383761Y-86848904D01*
X175069476Y-86848904D02*
X174612333Y-86848904D01*
X174840904Y-86848904D02*
X174840904Y-86048904D01*
X174764714Y-86163190D01*
X174688523Y-86239380D01*
X174612333Y-86277476D01*
X175755190Y-86315571D02*
X175755190Y-86848904D01*
X175564714Y-86010809D02*
X175374238Y-86582238D01*
X175869476Y-86582238D01*
D14*
X171922809Y-89152333D02*
X172465666Y-89152333D01*
X172574238Y-89188523D01*
X172646619Y-89260904D01*
X172682809Y-89369476D01*
X172682809Y-89441857D01*
X172682809Y-88790428D02*
X171922809Y-88790428D01*
X171922809Y-88500904D01*
X171959000Y-88428523D01*
X171995190Y-88392333D01*
X172067571Y-88356142D01*
X172176142Y-88356142D01*
X172248523Y-88392333D01*
X172284714Y-88428523D01*
X172320904Y-88500904D01*
X172320904Y-88790428D01*
X171995190Y-88066619D02*
X171959000Y-88030428D01*
X171922809Y-87958047D01*
X171922809Y-87777095D01*
X171959000Y-87704714D01*
X171995190Y-87668523D01*
X172067571Y-87632333D01*
X172139952Y-87632333D01*
X172248523Y-87668523D01*
X172682809Y-88102809D01*
X172682809Y-87632333D01*
%TD*%
M02*
