M48
INCH,TZ
T1C0.0157
T2C0.0315
T3C0.1200
%
G90
G05
T1
X48250Y-42850
X48650Y-43650
X49250Y-43650
X49650Y-43650
X50250Y-43650
X50650Y-43650
X51250Y-43650
X51375Y-37975
X51600Y-37000
X51650Y-43650
X51700Y-35900
X51925Y-34925
X52150Y-33950
X52250Y-43650
X52375Y-32975
X52600Y-32000
X52650Y-43650
X52700Y-30900
X52925Y-29925
X53150Y-28950
X53250Y-43650
X53696Y-29250
X53696Y-30250
X53696Y-31250
X53696Y-32250
X53696Y-33250
X53696Y-34250
X53696Y-35250
X53696Y-36250
X53696Y-37250
X53696Y-38250
X53696Y-38750
X54250Y-43650
X54650Y-43650
X55250Y-43850
X56050Y-43850
X56450Y-43850
X57050Y-43850
X57450Y-43850
X58150Y-33750
X58313Y-43342
X58350Y-31750
X58550Y-30750
X58572Y-43096
X58600Y-43588
X58750Y-29750
X59050Y-42850
X59100Y-28250
X59450Y-42850
X59650Y-25850
X61050Y-42850
X65100Y-32250
X65104Y-39496
X65350Y-34450
X65350Y-39750
X65604Y-37450
X65604Y-40050
X65604Y-43427
X65850Y-39750
X65850Y-43650
X66100Y-39500
X67896Y-34000
X69250Y-42850
T2
X60850Y-26750
X60850Y-27750
X60850Y-28750
X60850Y-29750
X60850Y-30750
X60850Y-31750
X60850Y-32750
X60850Y-33750
X60850Y-34750
X60850Y-35750
X60850Y-36750
X60850Y-37750
X60850Y-38750
X60850Y-39750
X66850Y-26750
X66850Y-27750
X66850Y-28750
X66850Y-29750
X66850Y-30750
X66850Y-31750
X66850Y-32750
X66850Y-33750
X66850Y-34750
X66850Y-35750
X66850Y-36750
X66850Y-37750
X66850Y-38750
X66850Y-39750
X50600Y-26750
X50600Y-27750
X50600Y-28750
X50600Y-29750
X50600Y-30750
X50600Y-31750
X50600Y-32750
X50600Y-33750
X50600Y-34750
X50600Y-35750
X50600Y-36750
X50600Y-37750
X50600Y-38750
X50600Y-39750
X56600Y-26750
X56600Y-27750
X56600Y-28750
X56600Y-29750
X56600Y-30750
X56600Y-31750
X56600Y-32750
X56600Y-33750
X56600Y-34750
X56600Y-35750
X56600Y-36750
X56600Y-37750
X56600Y-38750
X56600Y-39750
X58100Y-26750
X58100Y-28719
X68350Y-26750
X68350Y-28719
T3
X68902Y-24500
X48600Y-39500
X68902Y-39500
X48600Y-24500
T0
M30
