%TF.GenerationSoftware,KiCad,Pcbnew,(5.1.8)-1*%
%TF.CreationDate,2021-03-07T18:54:55+01:00*%
%TF.ProjectId,ZX Cartridge 2021,5a582043-6172-4747-9269-646765203230,rev?*%
%TF.SameCoordinates,Original*%
%TF.FileFunction,Copper,L1,Top*%
%TF.FilePolarity,Positive*%
%FSLAX46Y46*%
G04 Gerber Fmt 4.6, Leading zero omitted, Abs format (unit mm)*
G04 Created by KiCad (PCBNEW (5.1.8)-1) date 2021-03-07 18:54:55*
%MOMM*%
%LPD*%
G01*
G04 APERTURE LIST*
%TA.AperFunction,ConnectorPad*%
%ADD10R,1.500000X8.000000*%
%TD*%
%TA.AperFunction,ComponentPad*%
%ADD11C,1.600000*%
%TD*%
%TA.AperFunction,ComponentPad*%
%ADD12R,2.400000X1.600000*%
%TD*%
%TA.AperFunction,ComponentPad*%
%ADD13O,2.400000X1.600000*%
%TD*%
%TA.AperFunction,ComponentPad*%
%ADD14C,3.500000*%
%TD*%
%TA.AperFunction,SMDPad,CuDef*%
%ADD15R,2.000000X1.500000*%
%TD*%
%TA.AperFunction,SMDPad,CuDef*%
%ADD16O,2.000000X1.500000*%
%TD*%
%TA.AperFunction,ViaPad*%
%ADD17C,0.600000*%
%TD*%
%TA.AperFunction,Conductor*%
%ADD18C,0.250000*%
%TD*%
%TA.AperFunction,Conductor*%
%ADD19C,0.381000*%
%TD*%
G04 APERTURE END LIST*
D10*
%TO.P,J1,B22*%
%TO.N,GND*%
X175895000Y-116078000D03*
%TO.P,J1,B21*%
%TO.N,N/C*%
X173355000Y-116078000D03*
%TO.P,J1,B20*%
X170815000Y-116078000D03*
%TO.P,J1,B19*%
X168275000Y-116078000D03*
%TO.P,J1,B18*%
%TO.N,Net-(J1-PadB18)*%
X165735000Y-116078000D03*
%TO.P,J1,B17*%
%TO.N,Net-(J1-PadB17)*%
X163195000Y-116078000D03*
%TO.P,J1,B15*%
%TO.N,VCC*%
X158115000Y-116078000D03*
%TO.P,J1,B14*%
%TO.N,/A12*%
X155575000Y-116078000D03*
%TO.P,J1,B13*%
%TO.N,/A7*%
X153035000Y-116078000D03*
%TO.P,J1,B12*%
%TO.N,/A6*%
X150495000Y-116078000D03*
%TO.P,J1,B10*%
%TO.N,/A5*%
X145415000Y-116078000D03*
%TO.P,J1,B9*%
%TO.N,/A4*%
X142875000Y-116078000D03*
%TO.P,J1,B8*%
%TO.N,/A3*%
X140335000Y-116078000D03*
%TO.P,J1,B7*%
%TO.N,/A2*%
X137795000Y-116078000D03*
%TO.P,J1,B6*%
%TO.N,/A1*%
X135255000Y-116078000D03*
%TO.P,J1,B5*%
%TO.N,/A0*%
X132715000Y-116078000D03*
%TO.P,J1,B4*%
%TO.N,/D0*%
X130175000Y-116078000D03*
%TO.P,J1,B3*%
%TO.N,/D1*%
X127635000Y-116078000D03*
%TO.P,J1,B2*%
%TO.N,/D2*%
X125095000Y-116078000D03*
%TO.P,J1,B1*%
%TO.N,GND*%
X122555000Y-116078000D03*
%TD*%
D11*
%TO.P,C1,1*%
%TO.N,VCC*%
X147574000Y-67945000D03*
%TO.P,C1,2*%
%TO.N,GND*%
X147574000Y-72945000D03*
%TD*%
D12*
%TO.P,U1,1*%
%TO.N,/BA15*%
X128524000Y-67945000D03*
D13*
%TO.P,U1,15*%
%TO.N,/D3*%
X143764000Y-100965000D03*
%TO.P,U1,2*%
%TO.N,/A12*%
X128524000Y-70485000D03*
%TO.P,U1,16*%
%TO.N,/D4*%
X143764000Y-98425000D03*
%TO.P,U1,3*%
%TO.N,/A7*%
X128524000Y-73025000D03*
%TO.P,U1,17*%
%TO.N,/D5*%
X143764000Y-95885000D03*
%TO.P,U1,4*%
%TO.N,/A6*%
X128524000Y-75565000D03*
%TO.P,U1,18*%
%TO.N,/D6*%
X143764000Y-93345000D03*
%TO.P,U1,5*%
%TO.N,/A5*%
X128524000Y-78105000D03*
%TO.P,U1,19*%
%TO.N,/D7*%
X143764000Y-90805000D03*
%TO.P,U1,6*%
%TO.N,/A4*%
X128524000Y-80645000D03*
%TO.P,U1,20*%
%TO.N,/~ROM_0*%
X143764000Y-88265000D03*
%TO.P,U1,7*%
%TO.N,/A3*%
X128524000Y-83185000D03*
%TO.P,U1,21*%
%TO.N,/A10*%
X143764000Y-85725000D03*
%TO.P,U1,8*%
%TO.N,/A2*%
X128524000Y-85725000D03*
%TO.P,U1,22*%
%TO.N,/~ROM_OE*%
X143764000Y-83185000D03*
%TO.P,U1,9*%
%TO.N,/A1*%
X128524000Y-88265000D03*
%TO.P,U1,23*%
%TO.N,/A11*%
X143764000Y-80645000D03*
%TO.P,U1,10*%
%TO.N,/A0*%
X128524000Y-90805000D03*
%TO.P,U1,24*%
%TO.N,/A9*%
X143764000Y-78105000D03*
%TO.P,U1,11*%
%TO.N,/D0*%
X128524000Y-93345000D03*
%TO.P,U1,25*%
%TO.N,/A8*%
X143764000Y-75565000D03*
%TO.P,U1,12*%
%TO.N,/D1*%
X128524000Y-95885000D03*
%TO.P,U1,26*%
%TO.N,/A13*%
X143764000Y-73025000D03*
%TO.P,U1,13*%
%TO.N,/D2*%
X128524000Y-98425000D03*
%TO.P,U1,27*%
%TO.N,/BA14*%
X143764000Y-70485000D03*
%TO.P,U1,14*%
%TO.N,GND*%
X128524000Y-100965000D03*
%TO.P,U1,28*%
%TO.N,VCC*%
X143764000Y-67945000D03*
%TD*%
D14*
%TO.P,M1,1*%
%TO.N,N/C*%
X123444000Y-100330000D03*
%TD*%
%TO.P,M2,1*%
%TO.N,N/C*%
X175011000Y-100330000D03*
%TD*%
%TO.P,M3,1*%
%TO.N,N/C*%
X175011000Y-62230000D03*
%TD*%
%TO.P,M4,1*%
%TO.N,N/C*%
X123444000Y-62230000D03*
%TD*%
D11*
%TO.P,C2,1*%
%TO.N,VCC*%
X173609000Y-67945000D03*
%TO.P,C2,2*%
%TO.N,GND*%
X173609000Y-72945000D03*
%TD*%
D12*
%TO.P,U2,1*%
%TO.N,/BA15*%
X154559000Y-67945000D03*
D13*
%TO.P,U2,15*%
%TO.N,/D3*%
X169799000Y-100965000D03*
%TO.P,U2,2*%
%TO.N,/A12*%
X154559000Y-70485000D03*
%TO.P,U2,16*%
%TO.N,/D4*%
X169799000Y-98425000D03*
%TO.P,U2,3*%
%TO.N,/A7*%
X154559000Y-73025000D03*
%TO.P,U2,17*%
%TO.N,/D5*%
X169799000Y-95885000D03*
%TO.P,U2,4*%
%TO.N,/A6*%
X154559000Y-75565000D03*
%TO.P,U2,18*%
%TO.N,/D6*%
X169799000Y-93345000D03*
%TO.P,U2,5*%
%TO.N,/A5*%
X154559000Y-78105000D03*
%TO.P,U2,19*%
%TO.N,/D7*%
X169799000Y-90805000D03*
%TO.P,U2,6*%
%TO.N,/A4*%
X154559000Y-80645000D03*
%TO.P,U2,20*%
%TO.N,/~ROM_1*%
X169799000Y-88265000D03*
%TO.P,U2,7*%
%TO.N,/A3*%
X154559000Y-83185000D03*
%TO.P,U2,21*%
%TO.N,/A10*%
X169799000Y-85725000D03*
%TO.P,U2,8*%
%TO.N,/A2*%
X154559000Y-85725000D03*
%TO.P,U2,22*%
%TO.N,/~ROM_OE*%
X169799000Y-83185000D03*
%TO.P,U2,9*%
%TO.N,/A1*%
X154559000Y-88265000D03*
%TO.P,U2,23*%
%TO.N,/A11*%
X169799000Y-80645000D03*
%TO.P,U2,10*%
%TO.N,/A0*%
X154559000Y-90805000D03*
%TO.P,U2,24*%
%TO.N,/A9*%
X169799000Y-78105000D03*
%TO.P,U2,11*%
%TO.N,/D0*%
X154559000Y-93345000D03*
%TO.P,U2,25*%
%TO.N,/A8*%
X169799000Y-75565000D03*
%TO.P,U2,12*%
%TO.N,/D1*%
X154559000Y-95885000D03*
%TO.P,U2,26*%
%TO.N,/A13*%
X169799000Y-73025000D03*
%TO.P,U2,13*%
%TO.N,/D2*%
X154559000Y-98425000D03*
%TO.P,U2,27*%
%TO.N,/BA14*%
X169799000Y-70485000D03*
%TO.P,U2,14*%
%TO.N,GND*%
X154559000Y-100965000D03*
%TO.P,U2,28*%
%TO.N,VCC*%
X169799000Y-67945000D03*
%TD*%
D15*
%TO.P,JP1,1*%
%TO.N,Net-(J1-PadB18)*%
X174879000Y-82423000D03*
D16*
%TO.P,JP1,2*%
%TO.N,/BA15*%
X174879000Y-80518000D03*
%TO.P,JP1,3*%
%TO.N,VCC*%
X174879000Y-78613000D03*
%TD*%
%TO.P,JP2,3*%
%TO.N,VCC*%
X174879000Y-88773000D03*
%TO.P,JP2,2*%
%TO.N,/BA14*%
X174879000Y-90678000D03*
D15*
%TO.P,JP2,1*%
%TO.N,Net-(J1-PadB17)*%
X174879000Y-92583000D03*
%TD*%
D17*
%TO.N,/A7*%
X136388000Y-74295000D03*
X135001000Y-73533000D03*
%TO.N,/A6*%
X136388000Y-76835000D03*
X134429500Y-76009500D03*
%TO.N,/A5*%
X136388000Y-79375000D03*
X133858000Y-78486000D03*
%TO.N,/A4*%
X136388000Y-81915000D03*
X133604000Y-81280000D03*
%TO.N,/A3*%
X136388000Y-84455000D03*
X133032500Y-83756500D03*
%TO.N,/A10*%
X147701000Y-85725000D03*
%TO.N,/A2*%
X136388000Y-86995000D03*
X132461000Y-86233000D03*
%TO.N,/A1*%
X136388000Y-89535000D03*
X131889500Y-88709500D03*
%TO.N,/A11*%
X148209000Y-80645000D03*
%TO.N,/A0*%
X136388000Y-92075000D03*
X131318000Y-91186000D03*
%TO.N,/A9*%
X148717000Y-78105000D03*
%TO.N,/A8*%
X149225000Y-75565000D03*
%TO.N,GND*%
X122555000Y-108839000D03*
X175895000Y-108839000D03*
%TO.N,VCC*%
X157607000Y-108839000D03*
X151511000Y-65659000D03*
%TO.N,/D2*%
X136388000Y-98425000D03*
%TO.N,/D1*%
X136388000Y-97155000D03*
X130492500Y-96456500D03*
%TO.N,/D0*%
X136388000Y-94615000D03*
X131064000Y-93980000D03*
%TO.N,/A13*%
X150114000Y-71755000D03*
%TO.N,/~ROM_0*%
X156464000Y-86995000D03*
X157099000Y-100330000D03*
X165735006Y-111125000D03*
%TO.N,/~ROM_OE*%
X163195000Y-107569000D03*
X157724000Y-100965000D03*
X157734000Y-81915000D03*
%TO.N,/~ROM_1*%
X167894000Y-100330000D03*
X167894000Y-111125000D03*
%TO.N,Net-(J1-PadB18)*%
X172456000Y-86360000D03*
X167259000Y-100965000D03*
%TO.N,Net-(J1-PadB17)*%
X166634000Y-95123000D03*
X166634000Y-101727000D03*
X163820000Y-108270055D03*
X163820000Y-110871000D03*
%TD*%
D18*
%TO.N,/A12*%
X155575000Y-116078000D02*
X155575000Y-109855000D01*
X155575000Y-109855000D02*
X155067000Y-109347000D01*
X155067000Y-109347000D02*
X145923000Y-109347000D01*
X145923000Y-109347000D02*
X135763000Y-99187000D01*
X135763000Y-99187000D02*
X135763000Y-71247000D01*
X135001000Y-70485000D02*
X128524000Y-70485000D01*
X135763000Y-71247000D02*
X135001000Y-70485000D01*
X136271000Y-71755000D02*
X135763000Y-71247000D01*
X145161000Y-71755000D02*
X136271000Y-71755000D01*
X146431000Y-70485000D02*
X145161000Y-71755000D01*
X154559000Y-70485000D02*
X146431000Y-70485000D01*
%TO.N,/A7*%
X135255000Y-99695000D02*
X135255000Y-73787000D01*
X134493000Y-73025000D02*
X128524000Y-73025000D01*
X145415000Y-109855000D02*
X135255000Y-99695000D01*
X152527000Y-109855000D02*
X145415000Y-109855000D01*
X153035000Y-110363000D02*
X152527000Y-109855000D01*
X153035000Y-116078000D02*
X153035000Y-110363000D01*
X154559000Y-73025000D02*
X153289000Y-73025000D01*
X152019000Y-74295000D02*
X136388000Y-74295000D01*
X153289000Y-73025000D02*
X152019000Y-74295000D01*
X135001000Y-73533000D02*
X134493000Y-73025000D01*
X135255000Y-73787000D02*
X135001000Y-73533000D01*
%TO.N,/A6*%
X133985000Y-75565000D02*
X128524000Y-75565000D01*
X134689010Y-100145010D02*
X134689010Y-76269010D01*
X144907000Y-110363000D02*
X134689010Y-100145010D01*
X149479000Y-110363000D02*
X144907000Y-110363000D01*
X150495000Y-111379000D02*
X149479000Y-110363000D01*
X150495000Y-116078000D02*
X150495000Y-111379000D01*
X154559000Y-75565000D02*
X153289000Y-75565000D01*
X152019000Y-76835000D02*
X136388000Y-76835000D01*
X153289000Y-75565000D02*
X152019000Y-76835000D01*
X134429500Y-76009500D02*
X133985000Y-75565000D01*
X134689010Y-76269010D02*
X134429500Y-76009500D01*
%TO.N,/A5*%
X133477000Y-78105000D02*
X128524000Y-78105000D01*
X134239000Y-100652000D02*
X134239000Y-78867000D01*
X145415000Y-111828000D02*
X134239000Y-100652000D01*
X145415000Y-116078000D02*
X145415000Y-111828000D01*
X154559000Y-78105000D02*
X153289000Y-78105000D01*
X152019000Y-79375000D02*
X136388000Y-79375000D01*
X153289000Y-78105000D02*
X152019000Y-79375000D01*
X133858000Y-78486000D02*
X133477000Y-78105000D01*
X134239000Y-78867000D02*
X133858000Y-78486000D01*
%TO.N,/A4*%
X132969000Y-80645000D02*
X128524000Y-80645000D01*
X133731000Y-103759000D02*
X133731000Y-81407000D01*
X142875000Y-112903000D02*
X133731000Y-103759000D01*
X142875000Y-116078000D02*
X142875000Y-112903000D01*
X154559000Y-80645000D02*
X153289000Y-80645000D01*
X152019000Y-81915000D02*
X136388000Y-81915000D01*
X153289000Y-80645000D02*
X152019000Y-81915000D01*
X133604000Y-81280000D02*
X132969000Y-80645000D01*
X133731000Y-81407000D02*
X133604000Y-81280000D01*
%TO.N,/A3*%
X132461000Y-83185000D02*
X128524000Y-83185000D01*
X133223000Y-104716000D02*
X133223000Y-83947000D01*
X140335000Y-111828000D02*
X133223000Y-104716000D01*
X140335000Y-116078000D02*
X140335000Y-111828000D01*
X154559000Y-83185000D02*
X153289000Y-83185000D01*
X152019000Y-84455000D02*
X136388000Y-84455000D01*
X153289000Y-83185000D02*
X152019000Y-84455000D01*
X133032500Y-83756500D02*
X132461000Y-83185000D01*
X133223000Y-83947000D02*
X133032500Y-83756500D01*
%TO.N,/A10*%
X155829000Y-84455000D02*
X157099000Y-85725000D01*
X153289000Y-84455000D02*
X155829000Y-84455000D01*
X152019000Y-85725000D02*
X153289000Y-84455000D01*
X143764000Y-85725000D02*
X152019000Y-85725000D01*
X157099000Y-85725000D02*
X169799000Y-85725000D01*
%TO.N,/A2*%
X131953000Y-85725000D02*
X128524000Y-85725000D01*
X132715000Y-106748000D02*
X132715000Y-86487000D01*
X137795000Y-111828000D02*
X132715000Y-106748000D01*
X137795000Y-116078000D02*
X137795000Y-111828000D01*
X154559000Y-85725000D02*
X153289000Y-85725000D01*
X152019000Y-86995000D02*
X136388000Y-86995000D01*
X153289000Y-85725000D02*
X152019000Y-86995000D01*
X132461000Y-86233000D02*
X131953000Y-85725000D01*
X132715000Y-86487000D02*
X132461000Y-86233000D01*
%TO.N,/A1*%
X135255000Y-111822795D02*
X135255000Y-116078000D01*
X132207000Y-108774795D02*
X135255000Y-111822795D01*
X132207000Y-89027000D02*
X132207000Y-108774795D01*
X128524000Y-88265000D02*
X131445000Y-88265000D01*
X154559000Y-88265000D02*
X153289000Y-88265000D01*
X152019000Y-89535000D02*
X136388000Y-89535000D01*
X153289000Y-88265000D02*
X152019000Y-89535000D01*
X131889500Y-88709500D02*
X132207000Y-89027000D01*
X131445000Y-88265000D02*
X131889500Y-88709500D01*
%TO.N,/A11*%
X168529000Y-79375000D02*
X169799000Y-80645000D01*
X153289000Y-79375000D02*
X168529000Y-79375000D01*
X152019000Y-80645000D02*
X153289000Y-79375000D01*
X143764000Y-80645000D02*
X152019000Y-80645000D01*
%TO.N,/A0*%
X130937000Y-90805000D02*
X128524000Y-90805000D01*
X131699000Y-109855000D02*
X131699000Y-91567000D01*
X132715000Y-110871000D02*
X131699000Y-109855000D01*
X132715000Y-116078000D02*
X132715000Y-110871000D01*
X154559000Y-90805000D02*
X153289000Y-90805000D01*
X152019000Y-92075000D02*
X136388000Y-92075000D01*
X153289000Y-90805000D02*
X152019000Y-92075000D01*
X131318000Y-91186000D02*
X130937000Y-90805000D01*
X131699000Y-91567000D02*
X131318000Y-91186000D01*
%TO.N,/A9*%
X168529000Y-76835000D02*
X169799000Y-78105000D01*
X153289000Y-76835000D02*
X168529000Y-76835000D01*
X152019000Y-78105000D02*
X153289000Y-76835000D01*
X143764000Y-78105000D02*
X152019000Y-78105000D01*
%TO.N,/A8*%
X153289000Y-74295000D02*
X152019000Y-75565000D01*
X168529000Y-74295000D02*
X153289000Y-74295000D01*
X152019000Y-75565000D02*
X143764000Y-75565000D01*
X169799000Y-75565000D02*
X168529000Y-74295000D01*
D19*
%TO.N,GND*%
X122555000Y-116078000D02*
X122555000Y-108839000D01*
X175895000Y-116078000D02*
X175895000Y-108839000D01*
%TO.N,VCC*%
X158115000Y-109347000D02*
X157607000Y-108839000D01*
X158115000Y-116078000D02*
X158115000Y-109347000D01*
X169799000Y-66167000D02*
X169799000Y-67945000D01*
X169291000Y-65659000D02*
X169799000Y-66167000D01*
X169799000Y-67945000D02*
X173609000Y-67945000D01*
X143764000Y-67945000D02*
X147574000Y-67945000D01*
X169291000Y-65659000D02*
X151511000Y-65659000D01*
X174879000Y-67945000D02*
X173609000Y-67945000D01*
X176149000Y-88773000D02*
X176911000Y-88011000D01*
X174879000Y-88773000D02*
X176149000Y-88773000D01*
X176276000Y-78613000D02*
X176911000Y-77978000D01*
X174879000Y-78613000D02*
X176276000Y-78613000D01*
X176911000Y-77978000D02*
X176911000Y-76835000D01*
X176911000Y-88011000D02*
X176911000Y-77978000D01*
X176911000Y-76835000D02*
X176911000Y-68707000D01*
X176149000Y-67945000D02*
X174879000Y-67945000D01*
X176911000Y-68707000D02*
X176149000Y-67945000D01*
D18*
%TO.N,/D7*%
X168529000Y-89535000D02*
X169799000Y-90805000D01*
X153289000Y-89535000D02*
X168529000Y-89535000D01*
X152019000Y-90805000D02*
X153289000Y-89535000D01*
X143764000Y-90805000D02*
X152019000Y-90805000D01*
%TO.N,/D6*%
X168529000Y-92075000D02*
X169799000Y-93345000D01*
X153289000Y-92075000D02*
X168529000Y-92075000D01*
X152019000Y-93345000D02*
X153289000Y-92075000D01*
X143764000Y-93345000D02*
X152019000Y-93345000D01*
%TO.N,/D5*%
X153289000Y-94615000D02*
X155829000Y-94615000D01*
X155829000Y-94615000D02*
X157099000Y-95885000D01*
X152019000Y-95885000D02*
X153289000Y-94615000D01*
X143764000Y-95885000D02*
X152019000Y-95885000D01*
X157099000Y-95885000D02*
X169799000Y-95885000D01*
%TO.N,/D4*%
X168529000Y-97155000D02*
X169799000Y-98425000D01*
X153289000Y-97155000D02*
X168529000Y-97155000D01*
X152019000Y-98425000D02*
X153289000Y-97155000D01*
X143764000Y-98425000D02*
X152019000Y-98425000D01*
%TO.N,/D3*%
X153289000Y-99695000D02*
X168529000Y-99695000D01*
X168529000Y-99695000D02*
X169799000Y-100965000D01*
X152019000Y-100965000D02*
X153289000Y-99695000D01*
X143764000Y-100965000D02*
X152019000Y-100965000D01*
%TO.N,/D2*%
X125095000Y-108331000D02*
X125095000Y-116078000D01*
X125095000Y-107823000D02*
X125095000Y-108331000D01*
X130175000Y-102743000D02*
X125095000Y-107823000D01*
X130175000Y-99187000D02*
X130175000Y-102743000D01*
X129413000Y-98425000D02*
X130175000Y-99187000D01*
X128524000Y-98425000D02*
X129413000Y-98425000D01*
X137658000Y-99695000D02*
X136388000Y-98425000D01*
X152019000Y-99695000D02*
X137658000Y-99695000D01*
X153289000Y-98425000D02*
X152019000Y-99695000D01*
X154559000Y-98425000D02*
X153289000Y-98425000D01*
%TO.N,/D1*%
X129921000Y-95885000D02*
X128524000Y-95885000D01*
X130683000Y-103251000D02*
X130683000Y-96647000D01*
X127635000Y-106299000D02*
X130683000Y-103251000D01*
X127635000Y-116078000D02*
X127635000Y-106299000D01*
X154559000Y-95885000D02*
X153289000Y-95885000D01*
X152019000Y-97155000D02*
X136388000Y-97155000D01*
X153289000Y-95885000D02*
X152019000Y-97155000D01*
X130492500Y-96456500D02*
X129921000Y-95885000D01*
X130683000Y-96647000D02*
X130492500Y-96456500D01*
%TO.N,/D0*%
X130429000Y-93345000D02*
X128524000Y-93345000D01*
X131191000Y-103759000D02*
X131191000Y-94107000D01*
X130175000Y-104775000D02*
X131191000Y-103759000D01*
X130175000Y-116078000D02*
X130175000Y-104775000D01*
X154559000Y-93345000D02*
X153289000Y-93345000D01*
X152019000Y-94615000D02*
X136388000Y-94615000D01*
X153289000Y-93345000D02*
X152019000Y-94615000D01*
X131064000Y-93980000D02*
X130429000Y-93345000D01*
X131191000Y-94107000D02*
X131064000Y-93980000D01*
%TO.N,/A13*%
X168529000Y-71755000D02*
X169799000Y-73025000D01*
X150114000Y-71755000D02*
X168529000Y-71755000D01*
X146431000Y-71755000D02*
X150114000Y-71755000D01*
X145161000Y-73025000D02*
X146431000Y-71755000D01*
X143764000Y-73025000D02*
X145161000Y-73025000D01*
%TO.N,/~ROM_0*%
X143764000Y-88265000D02*
X152019000Y-88265000D01*
X153289000Y-86995000D02*
X156464000Y-86995000D01*
X152019000Y-88265000D02*
X153289000Y-86995000D01*
X157099000Y-100330000D02*
X157099000Y-102488994D01*
X161417003Y-106806997D02*
X157606997Y-106806997D01*
X161417003Y-106806997D02*
X165735006Y-111125000D01*
X157099000Y-106299000D02*
X157099000Y-102488994D01*
X157606997Y-106806997D02*
X157099000Y-106299000D01*
%TO.N,/~ROM_OE*%
X168529000Y-81915000D02*
X169799000Y-83185000D01*
X152019000Y-83185000D02*
X153289000Y-81915000D01*
X143764000Y-83185000D02*
X152019000Y-83185000D01*
X163195000Y-107569000D02*
X161671000Y-106045000D01*
X161671000Y-106045000D02*
X158115000Y-106045000D01*
X158115000Y-106045000D02*
X157607000Y-105537000D01*
X157724000Y-105420000D02*
X157724000Y-100965000D01*
X157607000Y-105537000D02*
X157724000Y-105420000D01*
X157734000Y-81915000D02*
X168529000Y-81915000D01*
X153289000Y-81915000D02*
X157734000Y-81915000D01*
%TO.N,/BA14*%
X157353000Y-70485000D02*
X169799000Y-70485000D01*
X156083000Y-69215000D02*
X157353000Y-70485000D01*
X146431000Y-69215000D02*
X156083000Y-69215000D01*
X145161000Y-70485000D02*
X146431000Y-69215000D01*
X143764000Y-70485000D02*
X145161000Y-70485000D01*
X171831000Y-71247000D02*
X171069000Y-70485000D01*
X171831000Y-90233500D02*
X171831000Y-71247000D01*
X172275500Y-90678000D02*
X171831000Y-90233500D01*
X171069000Y-70485000D02*
X169799000Y-70485000D01*
X174879000Y-90678000D02*
X172275500Y-90678000D01*
%TO.N,/BA15*%
X128524000Y-67945000D02*
X128524000Y-67818000D01*
X128524000Y-67818000D02*
X129667000Y-66675000D01*
X153289000Y-66675000D02*
X154559000Y-67945000D01*
X129667000Y-66675000D02*
X153289000Y-66675000D01*
X154559000Y-67945000D02*
X167005000Y-67945000D01*
X167005000Y-67945000D02*
X168275000Y-69215000D01*
X168275000Y-69215000D02*
X171831000Y-69215000D01*
X171831000Y-69215000D02*
X172339000Y-69723000D01*
X172339000Y-69723000D02*
X172339000Y-79883000D01*
X172974000Y-80518000D02*
X174879000Y-80518000D01*
X172339000Y-79883000D02*
X172974000Y-80518000D01*
%TO.N,/~ROM_1*%
X167894000Y-110700736D02*
X167894000Y-111125000D01*
X167894000Y-100330000D02*
X167894000Y-110700736D01*
%TO.N,Net-(J1-PadB18)*%
X174879000Y-82423000D02*
X173101000Y-82423000D01*
X172456000Y-83068000D02*
X172456000Y-86360000D01*
X173101000Y-82423000D02*
X172456000Y-83068000D01*
X165735000Y-112014000D02*
X165735000Y-116078000D01*
X166624000Y-111125000D02*
X165735000Y-112014000D01*
X167259000Y-110490000D02*
X166624000Y-111125000D01*
X167259000Y-100965000D02*
X167259000Y-110490000D01*
%TO.N,Net-(J1-PadB17)*%
X174879000Y-92583000D02*
X172339000Y-92583000D01*
X172339000Y-92583000D02*
X171831000Y-93091000D01*
X171831000Y-93091000D02*
X171831000Y-94107000D01*
X171831000Y-94107000D02*
X171323000Y-94615000D01*
X167142000Y-94615000D02*
X166634000Y-95123000D01*
X171323000Y-94615000D02*
X167142000Y-94615000D01*
X166634000Y-105456055D02*
X163820000Y-108270055D01*
X166634000Y-101727000D02*
X166634000Y-105456055D01*
X163820000Y-110871000D02*
X163195000Y-111496000D01*
X163195000Y-111496000D02*
X163195000Y-116078000D01*
%TD*%
M02*
