M48
INCH,TZ
T1C0.0157
T2C0.0315
T3C0.1200
%
G90
G05
T1
X50350Y-43000
X53600Y-35750
X53850Y-36750
X54100Y-33750
X54350Y-32750
X55350Y-31750
X55600Y-30750
X55600Y-36750
X56950Y-43050
X57350Y-36750
X57450Y-43050
X57950Y-43050
X58450Y-43050
X59843Y-35243
X60051Y-31750
X60100Y-32500
X60350Y-32750
X60600Y-42250
X60850Y-31750
X61100Y-29250
X61350Y-30000
X61600Y-31500
X63600Y-31500
X63850Y-29250
X65250Y-42850
X68600Y-29000
X68600Y-31250
X68600Y-33750
T2
X66350Y-28250
X66350Y-29250
X66350Y-30250
X66350Y-31250
X69350Y-28250
X69350Y-29250
X69350Y-30250
X69350Y-31250
X61100Y-26500
X61100Y-32500
X62100Y-26500
X62100Y-32500
X63100Y-26500
X63100Y-32500
X64100Y-26500
X64100Y-32500
X65100Y-26500
X65100Y-32500
X66350Y-33000
X69350Y-33000
X58100Y-27500
X58100Y-29469
X69350Y-34500
X69350Y-37500
X63100Y-40000
X67100Y-40000
X50600Y-26500
X50600Y-27500
X50600Y-28500
X50600Y-29500
X50600Y-30500
X50600Y-31500
X50600Y-32500
X50600Y-33500
X50600Y-34500
X50600Y-35500
X50600Y-36500
X50600Y-37500
X50600Y-38500
X50600Y-39500
X50600Y-40500
X50600Y-41500
X56600Y-26500
X56600Y-27500
X56600Y-28500
X56600Y-29500
X56600Y-30500
X56600Y-31500
X56600Y-32500
X56600Y-33500
X56600Y-34500
X56600Y-35500
X56600Y-36500
X56600Y-37500
X56600Y-38500
X56600Y-39500
X56600Y-40500
X56600Y-41500
X58100Y-35000
X58100Y-36969
X66350Y-26250
X69350Y-26250
X59600Y-34500
X59600Y-37500
X60600Y-34500
X60600Y-37500
X61600Y-34500
X61600Y-37500
X62600Y-34500
X62600Y-37500
X63600Y-34500
X63600Y-37500
X64600Y-34500
X64600Y-37500
X65600Y-34500
X65600Y-37500
X66600Y-34500
X66600Y-37500
X68100Y-34500
X68100Y-37500
X59100Y-40000
X62100Y-40000
T3
X48600Y-39500
X48600Y-24500
X68902Y-24500
X68902Y-39500
T0
M30
