%TF.GenerationSoftware,KiCad,Pcbnew,(5.1.8)-1*%
%TF.CreationDate,2021-05-10T00:25:44+02:00*%
%TF.ProjectId,ZX Cartridge 1983,5a582043-6172-4747-9269-646765203139,rev?*%
%TF.SameCoordinates,Original*%
%TF.FileFunction,Legend,Top*%
%TF.FilePolarity,Positive*%
%FSLAX46Y46*%
G04 Gerber Fmt 4.6, Leading zero omitted, Abs format (unit mm)*
G04 Created by KiCad (PCBNEW (5.1.8)-1) date 2021-05-10 00:25:44*
%MOMM*%
%LPD*%
G01*
G04 APERTURE LIST*
%ADD10C,0.100000*%
%ADD11C,0.150000*%
%ADD12C,0.120000*%
%ADD13C,0.010000*%
%ADD14C,0.114000*%
G04 APERTURE END LIST*
D10*
X139592095Y-89369761D02*
X139554000Y-89331666D01*
X139515904Y-89255476D01*
X139515904Y-89065000D01*
X139554000Y-88988809D01*
X139592095Y-88950714D01*
X139668285Y-88912619D01*
X139744476Y-88912619D01*
X139858761Y-88950714D01*
X140315904Y-89407857D01*
X140315904Y-88912619D01*
X140011142Y-88569761D02*
X140011142Y-87960238D01*
X139515904Y-87655476D02*
X139515904Y-87160238D01*
X139820666Y-87426904D01*
X139820666Y-87312619D01*
X139858761Y-87236428D01*
X139896857Y-87198333D01*
X139973047Y-87160238D01*
X140163523Y-87160238D01*
X140239714Y-87198333D01*
X140277809Y-87236428D01*
X140315904Y-87312619D01*
X140315904Y-87541190D01*
X140277809Y-87617380D01*
X140239714Y-87655476D01*
X136544095Y-89369761D02*
X136506000Y-89331666D01*
X136467904Y-89255476D01*
X136467904Y-89065000D01*
X136506000Y-88988809D01*
X136544095Y-88950714D01*
X136620285Y-88912619D01*
X136696476Y-88912619D01*
X136810761Y-88950714D01*
X137267904Y-89407857D01*
X137267904Y-88912619D01*
X136963142Y-88569761D02*
X136963142Y-87960238D01*
X136467904Y-87655476D02*
X136467904Y-87160238D01*
X136772666Y-87426904D01*
X136772666Y-87312619D01*
X136810761Y-87236428D01*
X136848857Y-87198333D01*
X136925047Y-87160238D01*
X137115523Y-87160238D01*
X137191714Y-87198333D01*
X137229809Y-87236428D01*
X137267904Y-87312619D01*
X137267904Y-87541190D01*
X137229809Y-87617380D01*
X137191714Y-87655476D01*
X138068095Y-89369761D02*
X138030000Y-89331666D01*
X137991904Y-89255476D01*
X137991904Y-89065000D01*
X138030000Y-88988809D01*
X138068095Y-88950714D01*
X138144285Y-88912619D01*
X138220476Y-88912619D01*
X138334761Y-88950714D01*
X138791904Y-89407857D01*
X138791904Y-88912619D01*
X138487142Y-88569761D02*
X138487142Y-87960238D01*
X137991904Y-87655476D02*
X137991904Y-87160238D01*
X138296666Y-87426904D01*
X138296666Y-87312619D01*
X138334761Y-87236428D01*
X138372857Y-87198333D01*
X138449047Y-87160238D01*
X138639523Y-87160238D01*
X138715714Y-87198333D01*
X138753809Y-87236428D01*
X138791904Y-87312619D01*
X138791904Y-87541190D01*
X138753809Y-87617380D01*
X138715714Y-87655476D01*
X134219904Y-88912619D02*
X134219904Y-89369761D01*
X134219904Y-89141190D02*
X133419904Y-89141190D01*
X133534190Y-89217380D01*
X133610380Y-89293571D01*
X133648476Y-89369761D01*
X133915142Y-88569761D02*
X133915142Y-87960238D01*
X133496095Y-87617380D02*
X133458000Y-87579285D01*
X133419904Y-87503095D01*
X133419904Y-87312619D01*
X133458000Y-87236428D01*
X133496095Y-87198333D01*
X133572285Y-87160238D01*
X133648476Y-87160238D01*
X133762761Y-87198333D01*
X134219904Y-87655476D01*
X134219904Y-87160238D01*
X138753809Y-97859476D02*
X138791904Y-97745190D01*
X138791904Y-97554714D01*
X138753809Y-97478523D01*
X138715714Y-97440428D01*
X138639523Y-97402333D01*
X138563333Y-97402333D01*
X138487142Y-97440428D01*
X138449047Y-97478523D01*
X138410952Y-97554714D01*
X138372857Y-97707095D01*
X138334761Y-97783285D01*
X138296666Y-97821380D01*
X138220476Y-97859476D01*
X138144285Y-97859476D01*
X138068095Y-97821380D01*
X138030000Y-97783285D01*
X137991904Y-97707095D01*
X137991904Y-97516619D01*
X138030000Y-97402333D01*
X137991904Y-97135666D02*
X138791904Y-96945190D01*
X138220476Y-96792809D01*
X138791904Y-96640428D01*
X137991904Y-96449952D01*
X138868095Y-96335666D02*
X138868095Y-95726142D01*
X138791904Y-95535666D02*
X137991904Y-95535666D01*
X137991904Y-95345190D01*
X138030000Y-95230904D01*
X138106190Y-95154714D01*
X138182380Y-95116619D01*
X138334761Y-95078523D01*
X138449047Y-95078523D01*
X138601428Y-95116619D01*
X138677619Y-95154714D01*
X138753809Y-95230904D01*
X138791904Y-95345190D01*
X138791904Y-95535666D01*
X138791904Y-94735666D02*
X137991904Y-94735666D01*
X138791904Y-94354714D02*
X137991904Y-94354714D01*
X137991904Y-94049952D01*
X138030000Y-93973761D01*
X138068095Y-93935666D01*
X138144285Y-93897571D01*
X138258571Y-93897571D01*
X138334761Y-93935666D01*
X138372857Y-93973761D01*
X138410952Y-94049952D01*
X138410952Y-94354714D01*
X138868095Y-93745190D02*
X138868095Y-93135666D01*
X138791904Y-93021380D02*
X138258571Y-92602333D01*
X138258571Y-93021380D02*
X138791904Y-92602333D01*
X138791904Y-91878523D02*
X138791904Y-92335666D01*
X138791904Y-92107095D02*
X137991904Y-92107095D01*
X138106190Y-92183285D01*
X138182380Y-92259476D01*
X138220476Y-92335666D01*
X137229809Y-97859476D02*
X137267904Y-97745190D01*
X137267904Y-97554714D01*
X137229809Y-97478523D01*
X137191714Y-97440428D01*
X137115523Y-97402333D01*
X137039333Y-97402333D01*
X136963142Y-97440428D01*
X136925047Y-97478523D01*
X136886952Y-97554714D01*
X136848857Y-97707095D01*
X136810761Y-97783285D01*
X136772666Y-97821380D01*
X136696476Y-97859476D01*
X136620285Y-97859476D01*
X136544095Y-97821380D01*
X136506000Y-97783285D01*
X136467904Y-97707095D01*
X136467904Y-97516619D01*
X136506000Y-97402333D01*
X136467904Y-97135666D02*
X137267904Y-96945190D01*
X136696476Y-96792809D01*
X137267904Y-96640428D01*
X136467904Y-96449952D01*
X137344095Y-96335666D02*
X137344095Y-95726142D01*
X137267904Y-95535666D02*
X136467904Y-95535666D01*
X136467904Y-95345190D01*
X136506000Y-95230904D01*
X136582190Y-95154714D01*
X136658380Y-95116619D01*
X136810761Y-95078523D01*
X136925047Y-95078523D01*
X137077428Y-95116619D01*
X137153619Y-95154714D01*
X137229809Y-95230904D01*
X137267904Y-95345190D01*
X137267904Y-95535666D01*
X137267904Y-94735666D02*
X136467904Y-94735666D01*
X137267904Y-94354714D02*
X136467904Y-94354714D01*
X136467904Y-94049952D01*
X136506000Y-93973761D01*
X136544095Y-93935666D01*
X136620285Y-93897571D01*
X136734571Y-93897571D01*
X136810761Y-93935666D01*
X136848857Y-93973761D01*
X136886952Y-94049952D01*
X136886952Y-94354714D01*
X137344095Y-93745190D02*
X137344095Y-93135666D01*
X137267904Y-93021380D02*
X136734571Y-92602333D01*
X136734571Y-93021380D02*
X137267904Y-92602333D01*
X136544095Y-92335666D02*
X136506000Y-92297571D01*
X136467904Y-92221380D01*
X136467904Y-92030904D01*
X136506000Y-91954714D01*
X136544095Y-91916619D01*
X136620285Y-91878523D01*
X136696476Y-91878523D01*
X136810761Y-91916619D01*
X137267904Y-92373761D01*
X137267904Y-91878523D01*
X135705809Y-97859476D02*
X135743904Y-97745190D01*
X135743904Y-97554714D01*
X135705809Y-97478523D01*
X135667714Y-97440428D01*
X135591523Y-97402333D01*
X135515333Y-97402333D01*
X135439142Y-97440428D01*
X135401047Y-97478523D01*
X135362952Y-97554714D01*
X135324857Y-97707095D01*
X135286761Y-97783285D01*
X135248666Y-97821380D01*
X135172476Y-97859476D01*
X135096285Y-97859476D01*
X135020095Y-97821380D01*
X134982000Y-97783285D01*
X134943904Y-97707095D01*
X134943904Y-97516619D01*
X134982000Y-97402333D01*
X134943904Y-97135666D02*
X135743904Y-96945190D01*
X135172476Y-96792809D01*
X135743904Y-96640428D01*
X134943904Y-96449952D01*
X135820095Y-96335666D02*
X135820095Y-95726142D01*
X135743904Y-95535666D02*
X134943904Y-95535666D01*
X134943904Y-95345190D01*
X134982000Y-95230904D01*
X135058190Y-95154714D01*
X135134380Y-95116619D01*
X135286761Y-95078523D01*
X135401047Y-95078523D01*
X135553428Y-95116619D01*
X135629619Y-95154714D01*
X135705809Y-95230904D01*
X135743904Y-95345190D01*
X135743904Y-95535666D01*
X135743904Y-94735666D02*
X134943904Y-94735666D01*
X135743904Y-94354714D02*
X134943904Y-94354714D01*
X134943904Y-94049952D01*
X134982000Y-93973761D01*
X135020095Y-93935666D01*
X135096285Y-93897571D01*
X135210571Y-93897571D01*
X135286761Y-93935666D01*
X135324857Y-93973761D01*
X135362952Y-94049952D01*
X135362952Y-94354714D01*
X135820095Y-93745190D02*
X135820095Y-93135666D01*
X135743904Y-93021380D02*
X135210571Y-92602333D01*
X135210571Y-93021380D02*
X135743904Y-92602333D01*
X134943904Y-92373761D02*
X134943904Y-91878523D01*
X135248666Y-92145190D01*
X135248666Y-92030904D01*
X135286761Y-91954714D01*
X135324857Y-91916619D01*
X135401047Y-91878523D01*
X135591523Y-91878523D01*
X135667714Y-91916619D01*
X135705809Y-91954714D01*
X135743904Y-92030904D01*
X135743904Y-92259476D01*
X135705809Y-92335666D01*
X135667714Y-92373761D01*
X133496095Y-103244380D02*
X133458000Y-103206285D01*
X133419904Y-103130095D01*
X133419904Y-102939619D01*
X133458000Y-102863428D01*
X133496095Y-102825333D01*
X133572285Y-102787238D01*
X133648476Y-102787238D01*
X133762761Y-102825333D01*
X134219904Y-103282476D01*
X134219904Y-102787238D01*
X133419904Y-102520571D02*
X133419904Y-101987238D01*
X134219904Y-102330095D01*
X134143714Y-101225333D02*
X134181809Y-101263428D01*
X134219904Y-101377714D01*
X134219904Y-101453904D01*
X134181809Y-101568190D01*
X134105619Y-101644380D01*
X134029428Y-101682476D01*
X133877047Y-101720571D01*
X133762761Y-101720571D01*
X133610380Y-101682476D01*
X133534190Y-101644380D01*
X133458000Y-101568190D01*
X133419904Y-101453904D01*
X133419904Y-101377714D01*
X133458000Y-101263428D01*
X133496095Y-101225333D01*
X133419904Y-100730095D02*
X133419904Y-100653904D01*
X133458000Y-100577714D01*
X133496095Y-100539619D01*
X133572285Y-100501523D01*
X133724666Y-100463428D01*
X133915142Y-100463428D01*
X134067523Y-100501523D01*
X134143714Y-100539619D01*
X134181809Y-100577714D01*
X134219904Y-100653904D01*
X134219904Y-100730095D01*
X134181809Y-100806285D01*
X134143714Y-100844380D01*
X134067523Y-100882476D01*
X133915142Y-100920571D01*
X133724666Y-100920571D01*
X133572285Y-100882476D01*
X133496095Y-100844380D01*
X133458000Y-100806285D01*
X133419904Y-100730095D01*
X133496095Y-100158666D02*
X133458000Y-100120571D01*
X133419904Y-100044380D01*
X133419904Y-99853904D01*
X133458000Y-99777714D01*
X133496095Y-99739619D01*
X133572285Y-99701523D01*
X133648476Y-99701523D01*
X133762761Y-99739619D01*
X134219904Y-100196761D01*
X134219904Y-99701523D01*
X133419904Y-99206285D02*
X133419904Y-99130095D01*
X133458000Y-99053904D01*
X133496095Y-99015809D01*
X133572285Y-98977714D01*
X133724666Y-98939619D01*
X133915142Y-98939619D01*
X134067523Y-98977714D01*
X134143714Y-99015809D01*
X134181809Y-99053904D01*
X134219904Y-99130095D01*
X134219904Y-99206285D01*
X134181809Y-99282476D01*
X134143714Y-99320571D01*
X134067523Y-99358666D01*
X133915142Y-99396761D01*
X133724666Y-99396761D01*
X133572285Y-99358666D01*
X133496095Y-99320571D01*
X133458000Y-99282476D01*
X133419904Y-99206285D01*
D11*
X140589000Y-98298000D02*
X131445000Y-98298000D01*
X140589000Y-91567000D02*
X131445000Y-91567000D01*
X132969000Y-104140000D02*
X132969000Y-86233000D01*
D10*
X134181809Y-97859476D02*
X134219904Y-97745190D01*
X134219904Y-97554714D01*
X134181809Y-97478523D01*
X134143714Y-97440428D01*
X134067523Y-97402333D01*
X133991333Y-97402333D01*
X133915142Y-97440428D01*
X133877047Y-97478523D01*
X133838952Y-97554714D01*
X133800857Y-97707095D01*
X133762761Y-97783285D01*
X133724666Y-97821380D01*
X133648476Y-97859476D01*
X133572285Y-97859476D01*
X133496095Y-97821380D01*
X133458000Y-97783285D01*
X133419904Y-97707095D01*
X133419904Y-97516619D01*
X133458000Y-97402333D01*
X133419904Y-97135666D02*
X134219904Y-96945190D01*
X133648476Y-96792809D01*
X134219904Y-96640428D01*
X133419904Y-96449952D01*
X134296095Y-96335666D02*
X134296095Y-95726142D01*
X134219904Y-95535666D02*
X133419904Y-95535666D01*
X133419904Y-95345190D01*
X133458000Y-95230904D01*
X133534190Y-95154714D01*
X133610380Y-95116619D01*
X133762761Y-95078523D01*
X133877047Y-95078523D01*
X134029428Y-95116619D01*
X134105619Y-95154714D01*
X134181809Y-95230904D01*
X134219904Y-95345190D01*
X134219904Y-95535666D01*
X134219904Y-94735666D02*
X133419904Y-94735666D01*
X134219904Y-94354714D02*
X133419904Y-94354714D01*
X133419904Y-94049952D01*
X133458000Y-93973761D01*
X133496095Y-93935666D01*
X133572285Y-93897571D01*
X133686571Y-93897571D01*
X133762761Y-93935666D01*
X133800857Y-93973761D01*
X133838952Y-94049952D01*
X133838952Y-94354714D01*
X134296095Y-93745190D02*
X134296095Y-93135666D01*
X134219904Y-93021380D02*
X133686571Y-92602333D01*
X133686571Y-93021380D02*
X134219904Y-92602333D01*
X133686571Y-91954714D02*
X134219904Y-91954714D01*
X133381809Y-92145190D02*
X133953238Y-92335666D01*
X133953238Y-91840428D01*
X132441904Y-96996000D02*
X132060952Y-97262666D01*
X132441904Y-97453142D02*
X131641904Y-97453142D01*
X131641904Y-97148380D01*
X131680000Y-97072190D01*
X131718095Y-97034095D01*
X131794285Y-96996000D01*
X131908571Y-96996000D01*
X131984761Y-97034095D01*
X132022857Y-97072190D01*
X132060952Y-97148380D01*
X132060952Y-97453142D01*
X131641904Y-96500761D02*
X131641904Y-96348380D01*
X131680000Y-96272190D01*
X131756190Y-96196000D01*
X131908571Y-96157904D01*
X132175238Y-96157904D01*
X132327619Y-96196000D01*
X132403809Y-96272190D01*
X132441904Y-96348380D01*
X132441904Y-96500761D01*
X132403809Y-96576952D01*
X132327619Y-96653142D01*
X132175238Y-96691238D01*
X131908571Y-96691238D01*
X131756190Y-96653142D01*
X131680000Y-96576952D01*
X131641904Y-96500761D01*
X132441904Y-95815047D02*
X131641904Y-95815047D01*
X132213333Y-95548380D01*
X131641904Y-95281714D01*
X132441904Y-95281714D01*
X132518095Y-95091238D02*
X132518095Y-94481714D01*
X132403809Y-94329333D02*
X132441904Y-94215047D01*
X132441904Y-94024571D01*
X132403809Y-93948380D01*
X132365714Y-93910285D01*
X132289523Y-93872190D01*
X132213333Y-93872190D01*
X132137142Y-93910285D01*
X132099047Y-93948380D01*
X132060952Y-94024571D01*
X132022857Y-94176952D01*
X131984761Y-94253142D01*
X131946666Y-94291238D01*
X131870476Y-94329333D01*
X131794285Y-94329333D01*
X131718095Y-94291238D01*
X131680000Y-94253142D01*
X131641904Y-94176952D01*
X131641904Y-93986476D01*
X131680000Y-93872190D01*
X132022857Y-93529333D02*
X132022857Y-93262666D01*
X132441904Y-93148380D02*
X132441904Y-93529333D01*
X131641904Y-93529333D01*
X131641904Y-93148380D01*
X132441904Y-92424571D02*
X132441904Y-92805523D01*
X131641904Y-92805523D01*
X135020095Y-103244380D02*
X134982000Y-103206285D01*
X134943904Y-103130095D01*
X134943904Y-102939619D01*
X134982000Y-102863428D01*
X135020095Y-102825333D01*
X135096285Y-102787238D01*
X135172476Y-102787238D01*
X135286761Y-102825333D01*
X135743904Y-103282476D01*
X135743904Y-102787238D01*
X134943904Y-102520571D02*
X134943904Y-101987238D01*
X135743904Y-102330095D01*
X135667714Y-101225333D02*
X135705809Y-101263428D01*
X135743904Y-101377714D01*
X135743904Y-101453904D01*
X135705809Y-101568190D01*
X135629619Y-101644380D01*
X135553428Y-101682476D01*
X135401047Y-101720571D01*
X135286761Y-101720571D01*
X135134380Y-101682476D01*
X135058190Y-101644380D01*
X134982000Y-101568190D01*
X134943904Y-101453904D01*
X134943904Y-101377714D01*
X134982000Y-101263428D01*
X135020095Y-101225333D01*
X134943904Y-100730095D02*
X134943904Y-100653904D01*
X134982000Y-100577714D01*
X135020095Y-100539619D01*
X135096285Y-100501523D01*
X135248666Y-100463428D01*
X135439142Y-100463428D01*
X135591523Y-100501523D01*
X135667714Y-100539619D01*
X135705809Y-100577714D01*
X135743904Y-100653904D01*
X135743904Y-100730095D01*
X135705809Y-100806285D01*
X135667714Y-100844380D01*
X135591523Y-100882476D01*
X135439142Y-100920571D01*
X135248666Y-100920571D01*
X135096285Y-100882476D01*
X135020095Y-100844380D01*
X134982000Y-100806285D01*
X134943904Y-100730095D01*
X135743904Y-99701523D02*
X135743904Y-100158666D01*
X135743904Y-99930095D02*
X134943904Y-99930095D01*
X135058190Y-100006285D01*
X135134380Y-100082476D01*
X135172476Y-100158666D01*
X134943904Y-99206285D02*
X134943904Y-99130095D01*
X134982000Y-99053904D01*
X135020095Y-99015809D01*
X135096285Y-98977714D01*
X135248666Y-98939619D01*
X135439142Y-98939619D01*
X135591523Y-98977714D01*
X135667714Y-99015809D01*
X135705809Y-99053904D01*
X135743904Y-99130095D01*
X135743904Y-99206285D01*
X135705809Y-99282476D01*
X135667714Y-99320571D01*
X135591523Y-99358666D01*
X135439142Y-99396761D01*
X135248666Y-99396761D01*
X135096285Y-99358666D01*
X135020095Y-99320571D01*
X134982000Y-99282476D01*
X134943904Y-99206285D01*
D11*
X122071380Y-95407857D02*
X122071380Y-94741190D01*
X123071380Y-95407857D01*
X123071380Y-94741190D01*
X122071380Y-94455476D02*
X123071380Y-93788809D01*
X122071380Y-93788809D02*
X123071380Y-94455476D01*
X122976142Y-92074523D02*
X123023761Y-92122142D01*
X123071380Y-92265000D01*
X123071380Y-92360238D01*
X123023761Y-92503095D01*
X122928523Y-92598333D01*
X122833285Y-92645952D01*
X122642809Y-92693571D01*
X122499952Y-92693571D01*
X122309476Y-92645952D01*
X122214238Y-92598333D01*
X122119000Y-92503095D01*
X122071380Y-92360238D01*
X122071380Y-92265000D01*
X122119000Y-92122142D01*
X122166619Y-92074523D01*
X123071380Y-91217380D02*
X122547571Y-91217380D01*
X122452333Y-91265000D01*
X122404714Y-91360238D01*
X122404714Y-91550714D01*
X122452333Y-91645952D01*
X123023761Y-91217380D02*
X123071380Y-91312619D01*
X123071380Y-91550714D01*
X123023761Y-91645952D01*
X122928523Y-91693571D01*
X122833285Y-91693571D01*
X122738047Y-91645952D01*
X122690428Y-91550714D01*
X122690428Y-91312619D01*
X122642809Y-91217380D01*
X123071380Y-90741190D02*
X122404714Y-90741190D01*
X122595190Y-90741190D02*
X122499952Y-90693571D01*
X122452333Y-90645952D01*
X122404714Y-90550714D01*
X122404714Y-90455476D01*
X122404714Y-90265000D02*
X122404714Y-89884047D01*
X122071380Y-90122142D02*
X122928523Y-90122142D01*
X123023761Y-90074523D01*
X123071380Y-89979285D01*
X123071380Y-89884047D01*
X123071380Y-89550714D02*
X122404714Y-89550714D01*
X122595190Y-89550714D02*
X122499952Y-89503095D01*
X122452333Y-89455476D01*
X122404714Y-89360238D01*
X122404714Y-89265000D01*
X123071380Y-88931666D02*
X122404714Y-88931666D01*
X122071380Y-88931666D02*
X122119000Y-88979285D01*
X122166619Y-88931666D01*
X122119000Y-88884047D01*
X122071380Y-88931666D01*
X122166619Y-88931666D01*
X123071380Y-88026904D02*
X122071380Y-88026904D01*
X123023761Y-88026904D02*
X123071380Y-88122142D01*
X123071380Y-88312619D01*
X123023761Y-88407857D01*
X122976142Y-88455476D01*
X122880904Y-88503095D01*
X122595190Y-88503095D01*
X122499952Y-88455476D01*
X122452333Y-88407857D01*
X122404714Y-88312619D01*
X122404714Y-88122142D01*
X122452333Y-88026904D01*
X122404714Y-87122142D02*
X123214238Y-87122142D01*
X123309476Y-87169761D01*
X123357095Y-87217380D01*
X123404714Y-87312619D01*
X123404714Y-87455476D01*
X123357095Y-87550714D01*
X123023761Y-87122142D02*
X123071380Y-87217380D01*
X123071380Y-87407857D01*
X123023761Y-87503095D01*
X122976142Y-87550714D01*
X122880904Y-87598333D01*
X122595190Y-87598333D01*
X122499952Y-87550714D01*
X122452333Y-87503095D01*
X122404714Y-87407857D01*
X122404714Y-87217380D01*
X122452333Y-87122142D01*
X123023761Y-86265000D02*
X123071380Y-86360238D01*
X123071380Y-86550714D01*
X123023761Y-86645952D01*
X122928523Y-86693571D01*
X122547571Y-86693571D01*
X122452333Y-86645952D01*
X122404714Y-86550714D01*
X122404714Y-86360238D01*
X122452333Y-86265000D01*
X122547571Y-86217380D01*
X122642809Y-86217380D01*
X122738047Y-86693571D01*
X123071380Y-84503095D02*
X123071380Y-85074523D01*
X123071380Y-84788809D02*
X122071380Y-84788809D01*
X122214238Y-84884047D01*
X122309476Y-84979285D01*
X122357095Y-85074523D01*
X122976142Y-84074523D02*
X123023761Y-84026904D01*
X123071380Y-84074523D01*
X123023761Y-84122142D01*
X122976142Y-84074523D01*
X123071380Y-84074523D01*
X123071380Y-83550714D02*
X123071380Y-83360238D01*
X123023761Y-83265000D01*
X122976142Y-83217380D01*
X122833285Y-83122142D01*
X122642809Y-83074523D01*
X122261857Y-83074523D01*
X122166619Y-83122142D01*
X122119000Y-83169761D01*
X122071380Y-83265000D01*
X122071380Y-83455476D01*
X122119000Y-83550714D01*
X122166619Y-83598333D01*
X122261857Y-83645952D01*
X122499952Y-83645952D01*
X122595190Y-83598333D01*
X122642809Y-83550714D01*
X122690428Y-83455476D01*
X122690428Y-83265000D01*
X122642809Y-83169761D01*
X122595190Y-83122142D01*
X122499952Y-83074523D01*
X122499952Y-82503095D02*
X122452333Y-82598333D01*
X122404714Y-82645952D01*
X122309476Y-82693571D01*
X122261857Y-82693571D01*
X122166619Y-82645952D01*
X122119000Y-82598333D01*
X122071380Y-82503095D01*
X122071380Y-82312619D01*
X122119000Y-82217380D01*
X122166619Y-82169761D01*
X122261857Y-82122142D01*
X122309476Y-82122142D01*
X122404714Y-82169761D01*
X122452333Y-82217380D01*
X122499952Y-82312619D01*
X122499952Y-82503095D01*
X122547571Y-82598333D01*
X122595190Y-82645952D01*
X122690428Y-82693571D01*
X122880904Y-82693571D01*
X122976142Y-82645952D01*
X123023761Y-82598333D01*
X123071380Y-82503095D01*
X123071380Y-82312619D01*
X123023761Y-82217380D01*
X122976142Y-82169761D01*
X122880904Y-82122142D01*
X122690428Y-82122142D01*
X122595190Y-82169761D01*
X122547571Y-82217380D01*
X122499952Y-82312619D01*
X122071380Y-81788809D02*
X122071380Y-81169761D01*
X122452333Y-81503095D01*
X122452333Y-81360238D01*
X122499952Y-81265000D01*
X122547571Y-81217380D01*
X122642809Y-81169761D01*
X122880904Y-81169761D01*
X122976142Y-81217380D01*
X123023761Y-81265000D01*
X123071380Y-81360238D01*
X123071380Y-81645952D01*
X123023761Y-81741190D01*
X122976142Y-81788809D01*
X124054714Y-93669761D02*
X124864238Y-93669761D01*
X124959476Y-93717380D01*
X125007095Y-93765000D01*
X125054714Y-93860238D01*
X125054714Y-94003095D01*
X125007095Y-94098333D01*
X124673761Y-93669761D02*
X124721380Y-93765000D01*
X124721380Y-93955476D01*
X124673761Y-94050714D01*
X124626142Y-94098333D01*
X124530904Y-94145952D01*
X124245190Y-94145952D01*
X124149952Y-94098333D01*
X124102333Y-94050714D01*
X124054714Y-93955476D01*
X124054714Y-93765000D01*
X124102333Y-93669761D01*
X124721380Y-93193571D02*
X124054714Y-93193571D01*
X123721380Y-93193571D02*
X123769000Y-93241190D01*
X123816619Y-93193571D01*
X123769000Y-93145952D01*
X123721380Y-93193571D01*
X123816619Y-93193571D01*
X124054714Y-92860238D02*
X124054714Y-92479285D01*
X123721380Y-92717380D02*
X124578523Y-92717380D01*
X124673761Y-92669761D01*
X124721380Y-92574523D01*
X124721380Y-92479285D01*
X124721380Y-92145952D02*
X123721380Y-92145952D01*
X124721380Y-91717380D02*
X124197571Y-91717380D01*
X124102333Y-91765000D01*
X124054714Y-91860238D01*
X124054714Y-92003095D01*
X124102333Y-92098333D01*
X124149952Y-92145952D01*
X124054714Y-90812619D02*
X124721380Y-90812619D01*
X124054714Y-91241190D02*
X124578523Y-91241190D01*
X124673761Y-91193571D01*
X124721380Y-91098333D01*
X124721380Y-90955476D01*
X124673761Y-90860238D01*
X124626142Y-90812619D01*
X124721380Y-90336428D02*
X123721380Y-90336428D01*
X124102333Y-90336428D02*
X124054714Y-90241190D01*
X124054714Y-90050714D01*
X124102333Y-89955476D01*
X124149952Y-89907857D01*
X124245190Y-89860238D01*
X124530904Y-89860238D01*
X124626142Y-89907857D01*
X124673761Y-89955476D01*
X124721380Y-90050714D01*
X124721380Y-90241190D01*
X124673761Y-90336428D01*
X124626142Y-89431666D02*
X124673761Y-89384047D01*
X124721380Y-89431666D01*
X124673761Y-89479285D01*
X124626142Y-89431666D01*
X124721380Y-89431666D01*
X124673761Y-88526904D02*
X124721380Y-88622142D01*
X124721380Y-88812619D01*
X124673761Y-88907857D01*
X124626142Y-88955476D01*
X124530904Y-89003095D01*
X124245190Y-89003095D01*
X124149952Y-88955476D01*
X124102333Y-88907857D01*
X124054714Y-88812619D01*
X124054714Y-88622142D01*
X124102333Y-88526904D01*
X124721380Y-87955476D02*
X124673761Y-88050714D01*
X124626142Y-88098333D01*
X124530904Y-88145952D01*
X124245190Y-88145952D01*
X124149952Y-88098333D01*
X124102333Y-88050714D01*
X124054714Y-87955476D01*
X124054714Y-87812619D01*
X124102333Y-87717380D01*
X124149952Y-87669761D01*
X124245190Y-87622142D01*
X124530904Y-87622142D01*
X124626142Y-87669761D01*
X124673761Y-87717380D01*
X124721380Y-87812619D01*
X124721380Y-87955476D01*
X124721380Y-87193571D02*
X124054714Y-87193571D01*
X124149952Y-87193571D02*
X124102333Y-87145952D01*
X124054714Y-87050714D01*
X124054714Y-86907857D01*
X124102333Y-86812619D01*
X124197571Y-86765000D01*
X124721380Y-86765000D01*
X124197571Y-86765000D02*
X124102333Y-86717380D01*
X124054714Y-86622142D01*
X124054714Y-86479285D01*
X124102333Y-86384047D01*
X124197571Y-86336428D01*
X124721380Y-86336428D01*
X123673761Y-85145952D02*
X124959476Y-86003095D01*
X124054714Y-84955476D02*
X124054714Y-84574523D01*
X123721380Y-84812619D02*
X124578523Y-84812619D01*
X124673761Y-84765000D01*
X124721380Y-84669761D01*
X124721380Y-84574523D01*
X124673761Y-83860238D02*
X124721380Y-83955476D01*
X124721380Y-84145952D01*
X124673761Y-84241190D01*
X124578523Y-84288809D01*
X124197571Y-84288809D01*
X124102333Y-84241190D01*
X124054714Y-84145952D01*
X124054714Y-83955476D01*
X124102333Y-83860238D01*
X124197571Y-83812619D01*
X124292809Y-83812619D01*
X124388047Y-84288809D01*
X124721380Y-83384047D02*
X123721380Y-83384047D01*
X124102333Y-83384047D02*
X124054714Y-83288809D01*
X124054714Y-83098333D01*
X124102333Y-83003095D01*
X124149952Y-82955476D01*
X124245190Y-82907857D01*
X124530904Y-82907857D01*
X124626142Y-82955476D01*
X124673761Y-83003095D01*
X124721380Y-83098333D01*
X124721380Y-83288809D01*
X124673761Y-83384047D01*
X124721380Y-82336428D02*
X124673761Y-82431666D01*
X124578523Y-82479285D01*
X123721380Y-82479285D01*
D10*
X132403809Y-102253904D02*
X132441904Y-102139619D01*
X132441904Y-101949142D01*
X132403809Y-101872952D01*
X132365714Y-101834857D01*
X132289523Y-101796761D01*
X132213333Y-101796761D01*
X132137142Y-101834857D01*
X132099047Y-101872952D01*
X132060952Y-101949142D01*
X132022857Y-102101523D01*
X131984761Y-102177714D01*
X131946666Y-102215809D01*
X131870476Y-102253904D01*
X131794285Y-102253904D01*
X131718095Y-102215809D01*
X131680000Y-102177714D01*
X131641904Y-102101523D01*
X131641904Y-101911047D01*
X131680000Y-101796761D01*
X132441904Y-101453904D02*
X131641904Y-101453904D01*
X131641904Y-101149142D02*
X131641904Y-100615809D01*
X132441904Y-101149142D01*
X132441904Y-100615809D01*
X132022857Y-100311047D02*
X132022857Y-100044380D01*
X132441904Y-99930095D02*
X132441904Y-100311047D01*
X131641904Y-100311047D01*
X131641904Y-99930095D01*
X139592095Y-103244380D02*
X139554000Y-103206285D01*
X139515904Y-103130095D01*
X139515904Y-102939619D01*
X139554000Y-102863428D01*
X139592095Y-102825333D01*
X139668285Y-102787238D01*
X139744476Y-102787238D01*
X139858761Y-102825333D01*
X140315904Y-103282476D01*
X140315904Y-102787238D01*
X139515904Y-102520571D02*
X139515904Y-101987238D01*
X140315904Y-102330095D01*
X140239714Y-101225333D02*
X140277809Y-101263428D01*
X140315904Y-101377714D01*
X140315904Y-101453904D01*
X140277809Y-101568190D01*
X140201619Y-101644380D01*
X140125428Y-101682476D01*
X139973047Y-101720571D01*
X139858761Y-101720571D01*
X139706380Y-101682476D01*
X139630190Y-101644380D01*
X139554000Y-101568190D01*
X139515904Y-101453904D01*
X139515904Y-101377714D01*
X139554000Y-101263428D01*
X139592095Y-101225333D01*
X140315904Y-100463428D02*
X140315904Y-100920571D01*
X140315904Y-100692000D02*
X139515904Y-100692000D01*
X139630190Y-100768190D01*
X139706380Y-100844380D01*
X139744476Y-100920571D01*
X139592095Y-100158666D02*
X139554000Y-100120571D01*
X139515904Y-100044380D01*
X139515904Y-99853904D01*
X139554000Y-99777714D01*
X139592095Y-99739619D01*
X139668285Y-99701523D01*
X139744476Y-99701523D01*
X139858761Y-99739619D01*
X140315904Y-100196761D01*
X140315904Y-99701523D01*
X139858761Y-99244380D02*
X139820666Y-99320571D01*
X139782571Y-99358666D01*
X139706380Y-99396761D01*
X139668285Y-99396761D01*
X139592095Y-99358666D01*
X139554000Y-99320571D01*
X139515904Y-99244380D01*
X139515904Y-99092000D01*
X139554000Y-99015809D01*
X139592095Y-98977714D01*
X139668285Y-98939619D01*
X139706380Y-98939619D01*
X139782571Y-98977714D01*
X139820666Y-99015809D01*
X139858761Y-99092000D01*
X139858761Y-99244380D01*
X139896857Y-99320571D01*
X139934952Y-99358666D01*
X140011142Y-99396761D01*
X140163523Y-99396761D01*
X140239714Y-99358666D01*
X140277809Y-99320571D01*
X140315904Y-99244380D01*
X140315904Y-99092000D01*
X140277809Y-99015809D01*
X140239714Y-98977714D01*
X140163523Y-98939619D01*
X140011142Y-98939619D01*
X139934952Y-98977714D01*
X139896857Y-99015809D01*
X139858761Y-99092000D01*
X138068095Y-103244380D02*
X138030000Y-103206285D01*
X137991904Y-103130095D01*
X137991904Y-102939619D01*
X138030000Y-102863428D01*
X138068095Y-102825333D01*
X138144285Y-102787238D01*
X138220476Y-102787238D01*
X138334761Y-102825333D01*
X138791904Y-103282476D01*
X138791904Y-102787238D01*
X137991904Y-102520571D02*
X137991904Y-101987238D01*
X138791904Y-102330095D01*
X138715714Y-101225333D02*
X138753809Y-101263428D01*
X138791904Y-101377714D01*
X138791904Y-101453904D01*
X138753809Y-101568190D01*
X138677619Y-101644380D01*
X138601428Y-101682476D01*
X138449047Y-101720571D01*
X138334761Y-101720571D01*
X138182380Y-101682476D01*
X138106190Y-101644380D01*
X138030000Y-101568190D01*
X137991904Y-101453904D01*
X137991904Y-101377714D01*
X138030000Y-101263428D01*
X138068095Y-101225333D01*
X138068095Y-100920571D02*
X138030000Y-100882476D01*
X137991904Y-100806285D01*
X137991904Y-100615809D01*
X138030000Y-100539619D01*
X138068095Y-100501523D01*
X138144285Y-100463428D01*
X138220476Y-100463428D01*
X138334761Y-100501523D01*
X138791904Y-100958666D01*
X138791904Y-100463428D01*
X137991904Y-99739619D02*
X137991904Y-100120571D01*
X138372857Y-100158666D01*
X138334761Y-100120571D01*
X138296666Y-100044380D01*
X138296666Y-99853904D01*
X138334761Y-99777714D01*
X138372857Y-99739619D01*
X138449047Y-99701523D01*
X138639523Y-99701523D01*
X138715714Y-99739619D01*
X138753809Y-99777714D01*
X138791904Y-99853904D01*
X138791904Y-100044380D01*
X138753809Y-100120571D01*
X138715714Y-100158666D01*
X137991904Y-99015809D02*
X137991904Y-99168190D01*
X138030000Y-99244380D01*
X138068095Y-99282476D01*
X138182380Y-99358666D01*
X138334761Y-99396761D01*
X138639523Y-99396761D01*
X138715714Y-99358666D01*
X138753809Y-99320571D01*
X138791904Y-99244380D01*
X138791904Y-99092000D01*
X138753809Y-99015809D01*
X138715714Y-98977714D01*
X138639523Y-98939619D01*
X138449047Y-98939619D01*
X138372857Y-98977714D01*
X138334761Y-99015809D01*
X138296666Y-99092000D01*
X138296666Y-99244380D01*
X138334761Y-99320571D01*
X138372857Y-99358666D01*
X138449047Y-99396761D01*
X136544095Y-103244380D02*
X136506000Y-103206285D01*
X136467904Y-103130095D01*
X136467904Y-102939619D01*
X136506000Y-102863428D01*
X136544095Y-102825333D01*
X136620285Y-102787238D01*
X136696476Y-102787238D01*
X136810761Y-102825333D01*
X137267904Y-103282476D01*
X137267904Y-102787238D01*
X136467904Y-102520571D02*
X136467904Y-101987238D01*
X137267904Y-102330095D01*
X137191714Y-101225333D02*
X137229809Y-101263428D01*
X137267904Y-101377714D01*
X137267904Y-101453904D01*
X137229809Y-101568190D01*
X137153619Y-101644380D01*
X137077428Y-101682476D01*
X136925047Y-101720571D01*
X136810761Y-101720571D01*
X136658380Y-101682476D01*
X136582190Y-101644380D01*
X136506000Y-101568190D01*
X136467904Y-101453904D01*
X136467904Y-101377714D01*
X136506000Y-101263428D01*
X136544095Y-101225333D01*
X136467904Y-100501523D02*
X136467904Y-100882476D01*
X136848857Y-100920571D01*
X136810761Y-100882476D01*
X136772666Y-100806285D01*
X136772666Y-100615809D01*
X136810761Y-100539619D01*
X136848857Y-100501523D01*
X136925047Y-100463428D01*
X137115523Y-100463428D01*
X137191714Y-100501523D01*
X137229809Y-100539619D01*
X137267904Y-100615809D01*
X137267904Y-100806285D01*
X137229809Y-100882476D01*
X137191714Y-100920571D01*
X137267904Y-99701523D02*
X137267904Y-100158666D01*
X137267904Y-99930095D02*
X136467904Y-99930095D01*
X136582190Y-100006285D01*
X136658380Y-100082476D01*
X136696476Y-100158666D01*
X136544095Y-99396761D02*
X136506000Y-99358666D01*
X136467904Y-99282476D01*
X136467904Y-99092000D01*
X136506000Y-99015809D01*
X136544095Y-98977714D01*
X136620285Y-98939619D01*
X136696476Y-98939619D01*
X136810761Y-98977714D01*
X137267904Y-99434857D01*
X137267904Y-98939619D01*
X135743904Y-89312619D02*
X134943904Y-89312619D01*
X135743904Y-88855476D01*
X134943904Y-88855476D01*
X134905809Y-87903095D02*
X135934380Y-88588809D01*
X135667714Y-87179285D02*
X135705809Y-87217380D01*
X135743904Y-87331666D01*
X135743904Y-87407857D01*
X135705809Y-87522142D01*
X135629619Y-87598333D01*
X135553428Y-87636428D01*
X135401047Y-87674523D01*
X135286761Y-87674523D01*
X135134380Y-87636428D01*
X135058190Y-87598333D01*
X134982000Y-87522142D01*
X134943904Y-87407857D01*
X134943904Y-87331666D01*
X134982000Y-87217380D01*
X135020095Y-87179285D01*
X132441904Y-90226857D02*
X132060952Y-90493523D01*
X132441904Y-90684000D02*
X131641904Y-90684000D01*
X131641904Y-90379238D01*
X131680000Y-90303047D01*
X131718095Y-90264952D01*
X131794285Y-90226857D01*
X131908571Y-90226857D01*
X131984761Y-90264952D01*
X132022857Y-90303047D01*
X132060952Y-90379238D01*
X132060952Y-90684000D01*
X131641904Y-89731619D02*
X131641904Y-89579238D01*
X131680000Y-89503047D01*
X131756190Y-89426857D01*
X131908571Y-89388761D01*
X132175238Y-89388761D01*
X132327619Y-89426857D01*
X132403809Y-89503047D01*
X132441904Y-89579238D01*
X132441904Y-89731619D01*
X132403809Y-89807809D01*
X132327619Y-89884000D01*
X132175238Y-89922095D01*
X131908571Y-89922095D01*
X131756190Y-89884000D01*
X131680000Y-89807809D01*
X131641904Y-89731619D01*
X132441904Y-89045904D02*
X131641904Y-89045904D01*
X132213333Y-88779238D01*
X131641904Y-88512571D01*
X132441904Y-88512571D01*
X132518095Y-88322095D02*
X132518095Y-87712571D01*
X131641904Y-87636380D02*
X131641904Y-87179238D01*
X132441904Y-87407809D02*
X131641904Y-87407809D01*
X132060952Y-86760190D02*
X132441904Y-86760190D01*
X131641904Y-87026857D02*
X132060952Y-86760190D01*
X131641904Y-86493523D01*
X132441904Y-86226857D02*
X131641904Y-86226857D01*
X131641904Y-85922095D01*
X131680000Y-85845904D01*
X131718095Y-85807809D01*
X131794285Y-85769714D01*
X131908571Y-85769714D01*
X131984761Y-85807809D01*
X132022857Y-85845904D01*
X132060952Y-85922095D01*
X132060952Y-86226857D01*
X132022857Y-85426857D02*
X132022857Y-85160190D01*
X132441904Y-85045904D02*
X132441904Y-85426857D01*
X131641904Y-85426857D01*
X131641904Y-85045904D01*
D12*
%TO.C,U1*%
X137144000Y-71060000D02*
G75*
G02*
X135144000Y-71060000I-1000000J0D01*
G01*
X137144000Y-65980000D02*
G75*
G02*
X135144000Y-65980000I-1000000J0D01*
G01*
X145204000Y-65920000D02*
X127084000Y-65920000D01*
X145204000Y-106800000D02*
X145204000Y-65920000D01*
X127084000Y-106800000D02*
X145204000Y-106800000D01*
X127084000Y-65920000D02*
X127084000Y-106800000D01*
X142204000Y-65980000D02*
X137144000Y-65980000D01*
X142204000Y-106740000D02*
X142204000Y-65980000D01*
X130084000Y-106740000D02*
X142204000Y-106740000D01*
X130084000Y-65980000D02*
X130084000Y-106740000D01*
X135144000Y-65980000D02*
X130084000Y-65980000D01*
X145204000Y-71000000D02*
X127084000Y-71000000D01*
X142204000Y-71060000D02*
X137144000Y-71060000D01*
X135144000Y-71060000D02*
X130084000Y-71060000D01*
%TO.C,C2*%
X148944000Y-88930000D02*
X148944000Y-93870000D01*
X146204000Y-88930000D02*
X146204000Y-93870000D01*
X148944000Y-88930000D02*
X148629000Y-88930000D01*
X146519000Y-88930000D02*
X146204000Y-88930000D01*
X148944000Y-93870000D02*
X148629000Y-93870000D01*
X146519000Y-93870000D02*
X146204000Y-93870000D01*
%TO.C,U2*%
X150054000Y-92440000D02*
X150054000Y-93690000D01*
X150054000Y-93690000D02*
X170494000Y-93690000D01*
X170494000Y-93690000D02*
X170494000Y-89190000D01*
X170494000Y-89190000D02*
X150054000Y-89190000D01*
X150054000Y-89190000D02*
X150054000Y-90440000D01*
X149994000Y-96690000D02*
X170554000Y-96690000D01*
X170554000Y-96690000D02*
X170554000Y-86190000D01*
X170554000Y-86190000D02*
X149994000Y-86190000D01*
X149994000Y-86190000D02*
X149994000Y-96690000D01*
X150054000Y-90440000D02*
G75*
G02*
X150054000Y-92440000I0J-1000000D01*
G01*
D13*
%TO.C,sinclair_title*%
G36*
X142779000Y-64940000D02*
G01*
X143029000Y-64940000D01*
X143029000Y-65190000D01*
X142779000Y-65190000D01*
X142779000Y-64940000D01*
G37*
X142779000Y-64940000D02*
X143029000Y-64940000D01*
X143029000Y-65190000D01*
X142779000Y-65190000D01*
X142779000Y-64940000D01*
G36*
X160779000Y-64690000D02*
G01*
X161029000Y-64690000D01*
X161029000Y-64940000D01*
X160779000Y-64940000D01*
X160779000Y-64690000D01*
G37*
X160779000Y-64690000D02*
X161029000Y-64690000D01*
X161029000Y-64940000D01*
X160779000Y-64940000D01*
X160779000Y-64690000D01*
G36*
X159529000Y-64690000D02*
G01*
X159779000Y-64690000D01*
X159779000Y-64940000D01*
X159529000Y-64940000D01*
X159529000Y-64690000D01*
G37*
X159529000Y-64690000D02*
X159779000Y-64690000D01*
X159779000Y-64940000D01*
X159529000Y-64940000D01*
X159529000Y-64690000D01*
G36*
X158779000Y-64690000D02*
G01*
X159029000Y-64690000D01*
X159029000Y-64940000D01*
X158779000Y-64940000D01*
X158779000Y-64690000D01*
G37*
X158779000Y-64690000D02*
X159029000Y-64690000D01*
X159029000Y-64940000D01*
X158779000Y-64940000D01*
X158779000Y-64690000D01*
G36*
X158529000Y-64690000D02*
G01*
X158779000Y-64690000D01*
X158779000Y-64940000D01*
X158529000Y-64940000D01*
X158529000Y-64690000D01*
G37*
X158529000Y-64690000D02*
X158779000Y-64690000D01*
X158779000Y-64940000D01*
X158529000Y-64940000D01*
X158529000Y-64690000D01*
G36*
X158279000Y-64690000D02*
G01*
X158529000Y-64690000D01*
X158529000Y-64940000D01*
X158279000Y-64940000D01*
X158279000Y-64690000D01*
G37*
X158279000Y-64690000D02*
X158529000Y-64690000D01*
X158529000Y-64940000D01*
X158279000Y-64940000D01*
X158279000Y-64690000D01*
G36*
X158029000Y-64690000D02*
G01*
X158279000Y-64690000D01*
X158279000Y-64940000D01*
X158029000Y-64940000D01*
X158029000Y-64690000D01*
G37*
X158029000Y-64690000D02*
X158279000Y-64690000D01*
X158279000Y-64940000D01*
X158029000Y-64940000D01*
X158029000Y-64690000D01*
G36*
X156779000Y-64690000D02*
G01*
X157029000Y-64690000D01*
X157029000Y-64940000D01*
X156779000Y-64940000D01*
X156779000Y-64690000D01*
G37*
X156779000Y-64690000D02*
X157029000Y-64690000D01*
X157029000Y-64940000D01*
X156779000Y-64940000D01*
X156779000Y-64690000D01*
G36*
X154279000Y-64690000D02*
G01*
X154529000Y-64690000D01*
X154529000Y-64940000D01*
X154279000Y-64940000D01*
X154279000Y-64690000D01*
G37*
X154279000Y-64690000D02*
X154529000Y-64690000D01*
X154529000Y-64940000D01*
X154279000Y-64940000D01*
X154279000Y-64690000D01*
G36*
X153779000Y-64690000D02*
G01*
X154029000Y-64690000D01*
X154029000Y-64940000D01*
X153779000Y-64940000D01*
X153779000Y-64690000D01*
G37*
X153779000Y-64690000D02*
X154029000Y-64690000D01*
X154029000Y-64940000D01*
X153779000Y-64940000D01*
X153779000Y-64690000D01*
G36*
X153279000Y-64690000D02*
G01*
X153529000Y-64690000D01*
X153529000Y-64940000D01*
X153279000Y-64940000D01*
X153279000Y-64690000D01*
G37*
X153279000Y-64690000D02*
X153529000Y-64690000D01*
X153529000Y-64940000D01*
X153279000Y-64940000D01*
X153279000Y-64690000D01*
G36*
X152279000Y-64690000D02*
G01*
X152529000Y-64690000D01*
X152529000Y-64940000D01*
X152279000Y-64940000D01*
X152279000Y-64690000D01*
G37*
X152279000Y-64690000D02*
X152529000Y-64690000D01*
X152529000Y-64940000D01*
X152279000Y-64940000D01*
X152279000Y-64690000D01*
G36*
X152029000Y-64690000D02*
G01*
X152279000Y-64690000D01*
X152279000Y-64940000D01*
X152029000Y-64940000D01*
X152029000Y-64690000D01*
G37*
X152029000Y-64690000D02*
X152279000Y-64690000D01*
X152279000Y-64940000D01*
X152029000Y-64940000D01*
X152029000Y-64690000D01*
G36*
X151779000Y-64690000D02*
G01*
X152029000Y-64690000D01*
X152029000Y-64940000D01*
X151779000Y-64940000D01*
X151779000Y-64690000D01*
G37*
X151779000Y-64690000D02*
X152029000Y-64690000D01*
X152029000Y-64940000D01*
X151779000Y-64940000D01*
X151779000Y-64690000D01*
G36*
X150029000Y-64690000D02*
G01*
X150279000Y-64690000D01*
X150279000Y-64940000D01*
X150029000Y-64940000D01*
X150029000Y-64690000D01*
G37*
X150029000Y-64690000D02*
X150279000Y-64690000D01*
X150279000Y-64940000D01*
X150029000Y-64940000D01*
X150029000Y-64690000D01*
G36*
X149029000Y-64690000D02*
G01*
X149279000Y-64690000D01*
X149279000Y-64940000D01*
X149029000Y-64940000D01*
X149029000Y-64690000D01*
G37*
X149029000Y-64690000D02*
X149279000Y-64690000D01*
X149279000Y-64940000D01*
X149029000Y-64940000D01*
X149029000Y-64690000D01*
G36*
X148779000Y-64690000D02*
G01*
X149029000Y-64690000D01*
X149029000Y-64940000D01*
X148779000Y-64940000D01*
X148779000Y-64690000D01*
G37*
X148779000Y-64690000D02*
X149029000Y-64690000D01*
X149029000Y-64940000D01*
X148779000Y-64940000D01*
X148779000Y-64690000D01*
G36*
X147279000Y-64690000D02*
G01*
X147529000Y-64690000D01*
X147529000Y-64940000D01*
X147279000Y-64940000D01*
X147279000Y-64690000D01*
G37*
X147279000Y-64690000D02*
X147529000Y-64690000D01*
X147529000Y-64940000D01*
X147279000Y-64940000D01*
X147279000Y-64690000D01*
G36*
X147029000Y-64690000D02*
G01*
X147279000Y-64690000D01*
X147279000Y-64940000D01*
X147029000Y-64940000D01*
X147029000Y-64690000D01*
G37*
X147029000Y-64690000D02*
X147279000Y-64690000D01*
X147279000Y-64940000D01*
X147029000Y-64940000D01*
X147029000Y-64690000D01*
G36*
X146779000Y-64690000D02*
G01*
X147029000Y-64690000D01*
X147029000Y-64940000D01*
X146779000Y-64940000D01*
X146779000Y-64690000D01*
G37*
X146779000Y-64690000D02*
X147029000Y-64690000D01*
X147029000Y-64940000D01*
X146779000Y-64940000D01*
X146779000Y-64690000D01*
G36*
X145529000Y-64690000D02*
G01*
X145779000Y-64690000D01*
X145779000Y-64940000D01*
X145529000Y-64940000D01*
X145529000Y-64690000D01*
G37*
X145529000Y-64690000D02*
X145779000Y-64690000D01*
X145779000Y-64940000D01*
X145529000Y-64940000D01*
X145529000Y-64690000D01*
G36*
X145279000Y-64690000D02*
G01*
X145529000Y-64690000D01*
X145529000Y-64940000D01*
X145279000Y-64940000D01*
X145279000Y-64690000D01*
G37*
X145279000Y-64690000D02*
X145529000Y-64690000D01*
X145529000Y-64940000D01*
X145279000Y-64940000D01*
X145279000Y-64690000D01*
G36*
X145029000Y-64690000D02*
G01*
X145279000Y-64690000D01*
X145279000Y-64940000D01*
X145029000Y-64940000D01*
X145029000Y-64690000D01*
G37*
X145029000Y-64690000D02*
X145279000Y-64690000D01*
X145279000Y-64940000D01*
X145029000Y-64940000D01*
X145029000Y-64690000D01*
G36*
X144779000Y-64690000D02*
G01*
X145029000Y-64690000D01*
X145029000Y-64940000D01*
X144779000Y-64940000D01*
X144779000Y-64690000D01*
G37*
X144779000Y-64690000D02*
X145029000Y-64690000D01*
X145029000Y-64940000D01*
X144779000Y-64940000D01*
X144779000Y-64690000D01*
G36*
X142779000Y-64690000D02*
G01*
X143029000Y-64690000D01*
X143029000Y-64940000D01*
X142779000Y-64940000D01*
X142779000Y-64690000D01*
G37*
X142779000Y-64690000D02*
X143029000Y-64690000D01*
X143029000Y-64940000D01*
X142779000Y-64940000D01*
X142779000Y-64690000D01*
G36*
X142029000Y-64690000D02*
G01*
X142279000Y-64690000D01*
X142279000Y-64940000D01*
X142029000Y-64940000D01*
X142029000Y-64690000D01*
G37*
X142029000Y-64690000D02*
X142279000Y-64690000D01*
X142279000Y-64940000D01*
X142029000Y-64940000D01*
X142029000Y-64690000D01*
G36*
X141779000Y-64690000D02*
G01*
X142029000Y-64690000D01*
X142029000Y-64940000D01*
X141779000Y-64940000D01*
X141779000Y-64690000D01*
G37*
X141779000Y-64690000D02*
X142029000Y-64690000D01*
X142029000Y-64940000D01*
X141779000Y-64940000D01*
X141779000Y-64690000D01*
G36*
X141529000Y-64690000D02*
G01*
X141779000Y-64690000D01*
X141779000Y-64940000D01*
X141529000Y-64940000D01*
X141529000Y-64690000D01*
G37*
X141529000Y-64690000D02*
X141779000Y-64690000D01*
X141779000Y-64940000D01*
X141529000Y-64940000D01*
X141529000Y-64690000D01*
G36*
X141279000Y-64690000D02*
G01*
X141529000Y-64690000D01*
X141529000Y-64940000D01*
X141279000Y-64940000D01*
X141279000Y-64690000D01*
G37*
X141279000Y-64690000D02*
X141529000Y-64690000D01*
X141529000Y-64940000D01*
X141279000Y-64940000D01*
X141279000Y-64690000D01*
G36*
X140529000Y-64690000D02*
G01*
X140779000Y-64690000D01*
X140779000Y-64940000D01*
X140529000Y-64940000D01*
X140529000Y-64690000D01*
G37*
X140529000Y-64690000D02*
X140779000Y-64690000D01*
X140779000Y-64940000D01*
X140529000Y-64940000D01*
X140529000Y-64690000D01*
G36*
X139279000Y-64690000D02*
G01*
X139529000Y-64690000D01*
X139529000Y-64940000D01*
X139279000Y-64940000D01*
X139279000Y-64690000D01*
G37*
X139279000Y-64690000D02*
X139529000Y-64690000D01*
X139529000Y-64940000D01*
X139279000Y-64940000D01*
X139279000Y-64690000D01*
G36*
X138779000Y-64690000D02*
G01*
X139029000Y-64690000D01*
X139029000Y-64940000D01*
X138779000Y-64940000D01*
X138779000Y-64690000D01*
G37*
X138779000Y-64690000D02*
X139029000Y-64690000D01*
X139029000Y-64940000D01*
X138779000Y-64940000D01*
X138779000Y-64690000D01*
G36*
X138529000Y-64690000D02*
G01*
X138779000Y-64690000D01*
X138779000Y-64940000D01*
X138529000Y-64940000D01*
X138529000Y-64690000D01*
G37*
X138529000Y-64690000D02*
X138779000Y-64690000D01*
X138779000Y-64940000D01*
X138529000Y-64940000D01*
X138529000Y-64690000D01*
G36*
X138279000Y-64690000D02*
G01*
X138529000Y-64690000D01*
X138529000Y-64940000D01*
X138279000Y-64940000D01*
X138279000Y-64690000D01*
G37*
X138279000Y-64690000D02*
X138529000Y-64690000D01*
X138529000Y-64940000D01*
X138279000Y-64940000D01*
X138279000Y-64690000D01*
G36*
X138029000Y-64690000D02*
G01*
X138279000Y-64690000D01*
X138279000Y-64940000D01*
X138029000Y-64940000D01*
X138029000Y-64690000D01*
G37*
X138029000Y-64690000D02*
X138279000Y-64690000D01*
X138279000Y-64940000D01*
X138029000Y-64940000D01*
X138029000Y-64690000D01*
G36*
X137779000Y-64690000D02*
G01*
X138029000Y-64690000D01*
X138029000Y-64940000D01*
X137779000Y-64940000D01*
X137779000Y-64690000D01*
G37*
X137779000Y-64690000D02*
X138029000Y-64690000D01*
X138029000Y-64940000D01*
X137779000Y-64940000D01*
X137779000Y-64690000D01*
G36*
X137529000Y-64690000D02*
G01*
X137779000Y-64690000D01*
X137779000Y-64940000D01*
X137529000Y-64940000D01*
X137529000Y-64690000D01*
G37*
X137529000Y-64690000D02*
X137779000Y-64690000D01*
X137779000Y-64940000D01*
X137529000Y-64940000D01*
X137529000Y-64690000D01*
G36*
X160529000Y-64440000D02*
G01*
X160779000Y-64440000D01*
X160779000Y-64690000D01*
X160529000Y-64690000D01*
X160529000Y-64440000D01*
G37*
X160529000Y-64440000D02*
X160779000Y-64440000D01*
X160779000Y-64690000D01*
X160529000Y-64690000D01*
X160529000Y-64440000D01*
G36*
X159529000Y-64440000D02*
G01*
X159779000Y-64440000D01*
X159779000Y-64690000D01*
X159529000Y-64690000D01*
X159529000Y-64440000D01*
G37*
X159529000Y-64440000D02*
X159779000Y-64440000D01*
X159779000Y-64690000D01*
X159529000Y-64690000D01*
X159529000Y-64440000D01*
G36*
X159029000Y-64440000D02*
G01*
X159279000Y-64440000D01*
X159279000Y-64690000D01*
X159029000Y-64690000D01*
X159029000Y-64440000D01*
G37*
X159029000Y-64440000D02*
X159279000Y-64440000D01*
X159279000Y-64690000D01*
X159029000Y-64690000D01*
X159029000Y-64440000D01*
G36*
X157779000Y-64440000D02*
G01*
X158029000Y-64440000D01*
X158029000Y-64690000D01*
X157779000Y-64690000D01*
X157779000Y-64440000D01*
G37*
X157779000Y-64440000D02*
X158029000Y-64440000D01*
X158029000Y-64690000D01*
X157779000Y-64690000D01*
X157779000Y-64440000D01*
G36*
X157279000Y-64440000D02*
G01*
X157529000Y-64440000D01*
X157529000Y-64690000D01*
X157279000Y-64690000D01*
X157279000Y-64440000D01*
G37*
X157279000Y-64440000D02*
X157529000Y-64440000D01*
X157529000Y-64690000D01*
X157279000Y-64690000D01*
X157279000Y-64440000D01*
G36*
X157029000Y-64440000D02*
G01*
X157279000Y-64440000D01*
X157279000Y-64690000D01*
X157029000Y-64690000D01*
X157029000Y-64440000D01*
G37*
X157029000Y-64440000D02*
X157279000Y-64440000D01*
X157279000Y-64690000D01*
X157029000Y-64690000D01*
X157029000Y-64440000D01*
G36*
X156779000Y-64440000D02*
G01*
X157029000Y-64440000D01*
X157029000Y-64690000D01*
X156779000Y-64690000D01*
X156779000Y-64440000D01*
G37*
X156779000Y-64440000D02*
X157029000Y-64440000D01*
X157029000Y-64690000D01*
X156779000Y-64690000D01*
X156779000Y-64440000D01*
G36*
X156529000Y-64440000D02*
G01*
X156779000Y-64440000D01*
X156779000Y-64690000D01*
X156529000Y-64690000D01*
X156529000Y-64440000D01*
G37*
X156529000Y-64440000D02*
X156779000Y-64440000D01*
X156779000Y-64690000D01*
X156529000Y-64690000D01*
X156529000Y-64440000D01*
G36*
X156279000Y-64440000D02*
G01*
X156529000Y-64440000D01*
X156529000Y-64690000D01*
X156279000Y-64690000D01*
X156279000Y-64440000D01*
G37*
X156279000Y-64440000D02*
X156529000Y-64440000D01*
X156529000Y-64690000D01*
X156279000Y-64690000D01*
X156279000Y-64440000D01*
G36*
X156029000Y-64440000D02*
G01*
X156279000Y-64440000D01*
X156279000Y-64690000D01*
X156029000Y-64690000D01*
X156029000Y-64440000D01*
G37*
X156029000Y-64440000D02*
X156279000Y-64440000D01*
X156279000Y-64690000D01*
X156029000Y-64690000D01*
X156029000Y-64440000D01*
G36*
X154279000Y-64440000D02*
G01*
X154529000Y-64440000D01*
X154529000Y-64690000D01*
X154279000Y-64690000D01*
X154279000Y-64440000D01*
G37*
X154279000Y-64440000D02*
X154529000Y-64440000D01*
X154529000Y-64690000D01*
X154279000Y-64690000D01*
X154279000Y-64440000D01*
G36*
X153779000Y-64440000D02*
G01*
X154029000Y-64440000D01*
X154029000Y-64690000D01*
X153779000Y-64690000D01*
X153779000Y-64440000D01*
G37*
X153779000Y-64440000D02*
X154029000Y-64440000D01*
X154029000Y-64690000D01*
X153779000Y-64690000D01*
X153779000Y-64440000D01*
G36*
X153279000Y-64440000D02*
G01*
X153529000Y-64440000D01*
X153529000Y-64690000D01*
X153279000Y-64690000D01*
X153279000Y-64440000D01*
G37*
X153279000Y-64440000D02*
X153529000Y-64440000D01*
X153529000Y-64690000D01*
X153279000Y-64690000D01*
X153279000Y-64440000D01*
G36*
X152529000Y-64440000D02*
G01*
X152779000Y-64440000D01*
X152779000Y-64690000D01*
X152529000Y-64690000D01*
X152529000Y-64440000D01*
G37*
X152529000Y-64440000D02*
X152779000Y-64440000D01*
X152779000Y-64690000D01*
X152529000Y-64690000D01*
X152529000Y-64440000D01*
G36*
X151529000Y-64440000D02*
G01*
X151779000Y-64440000D01*
X151779000Y-64690000D01*
X151529000Y-64690000D01*
X151529000Y-64440000D01*
G37*
X151529000Y-64440000D02*
X151779000Y-64440000D01*
X151779000Y-64690000D01*
X151529000Y-64690000D01*
X151529000Y-64440000D01*
G36*
X150029000Y-64440000D02*
G01*
X150279000Y-64440000D01*
X150279000Y-64690000D01*
X150029000Y-64690000D01*
X150029000Y-64440000D01*
G37*
X150029000Y-64440000D02*
X150279000Y-64440000D01*
X150279000Y-64690000D01*
X150029000Y-64690000D01*
X150029000Y-64440000D01*
G36*
X148529000Y-64440000D02*
G01*
X148779000Y-64440000D01*
X148779000Y-64690000D01*
X148529000Y-64690000D01*
X148529000Y-64440000D01*
G37*
X148529000Y-64440000D02*
X148779000Y-64440000D01*
X148779000Y-64690000D01*
X148529000Y-64690000D01*
X148529000Y-64440000D01*
G36*
X146529000Y-64440000D02*
G01*
X146779000Y-64440000D01*
X146779000Y-64690000D01*
X146529000Y-64690000D01*
X146529000Y-64440000D01*
G37*
X146529000Y-64440000D02*
X146779000Y-64440000D01*
X146779000Y-64690000D01*
X146529000Y-64690000D01*
X146529000Y-64440000D01*
G36*
X144529000Y-64440000D02*
G01*
X144779000Y-64440000D01*
X144779000Y-64690000D01*
X144529000Y-64690000D01*
X144529000Y-64440000D01*
G37*
X144529000Y-64440000D02*
X144779000Y-64440000D01*
X144779000Y-64690000D01*
X144529000Y-64690000D01*
X144529000Y-64440000D01*
G36*
X143529000Y-64440000D02*
G01*
X143779000Y-64440000D01*
X143779000Y-64690000D01*
X143529000Y-64690000D01*
X143529000Y-64440000D01*
G37*
X143529000Y-64440000D02*
X143779000Y-64440000D01*
X143779000Y-64690000D01*
X143529000Y-64690000D01*
X143529000Y-64440000D01*
G36*
X143279000Y-64440000D02*
G01*
X143529000Y-64440000D01*
X143529000Y-64690000D01*
X143279000Y-64690000D01*
X143279000Y-64440000D01*
G37*
X143279000Y-64440000D02*
X143529000Y-64440000D01*
X143529000Y-64690000D01*
X143279000Y-64690000D01*
X143279000Y-64440000D01*
G36*
X143029000Y-64440000D02*
G01*
X143279000Y-64440000D01*
X143279000Y-64690000D01*
X143029000Y-64690000D01*
X143029000Y-64440000D01*
G37*
X143029000Y-64440000D02*
X143279000Y-64440000D01*
X143279000Y-64690000D01*
X143029000Y-64690000D01*
X143029000Y-64440000D01*
G36*
X142779000Y-64440000D02*
G01*
X143029000Y-64440000D01*
X143029000Y-64690000D01*
X142779000Y-64690000D01*
X142779000Y-64440000D01*
G37*
X142779000Y-64440000D02*
X143029000Y-64440000D01*
X143029000Y-64690000D01*
X142779000Y-64690000D01*
X142779000Y-64440000D01*
G36*
X142279000Y-64440000D02*
G01*
X142529000Y-64440000D01*
X142529000Y-64690000D01*
X142279000Y-64690000D01*
X142279000Y-64440000D01*
G37*
X142279000Y-64440000D02*
X142529000Y-64440000D01*
X142529000Y-64690000D01*
X142279000Y-64690000D01*
X142279000Y-64440000D01*
G36*
X141029000Y-64440000D02*
G01*
X141279000Y-64440000D01*
X141279000Y-64690000D01*
X141029000Y-64690000D01*
X141029000Y-64440000D01*
G37*
X141029000Y-64440000D02*
X141279000Y-64440000D01*
X141279000Y-64690000D01*
X141029000Y-64690000D01*
X141029000Y-64440000D01*
G36*
X140279000Y-64440000D02*
G01*
X140529000Y-64440000D01*
X140529000Y-64690000D01*
X140279000Y-64690000D01*
X140279000Y-64440000D01*
G37*
X140279000Y-64440000D02*
X140529000Y-64440000D01*
X140529000Y-64690000D01*
X140279000Y-64690000D01*
X140279000Y-64440000D01*
G36*
X139529000Y-64440000D02*
G01*
X139779000Y-64440000D01*
X139779000Y-64690000D01*
X139529000Y-64690000D01*
X139529000Y-64440000D01*
G37*
X139529000Y-64440000D02*
X139779000Y-64440000D01*
X139779000Y-64690000D01*
X139529000Y-64690000D01*
X139529000Y-64440000D01*
G36*
X137779000Y-64440000D02*
G01*
X138029000Y-64440000D01*
X138029000Y-64690000D01*
X137779000Y-64690000D01*
X137779000Y-64440000D01*
G37*
X137779000Y-64440000D02*
X138029000Y-64440000D01*
X138029000Y-64690000D01*
X137779000Y-64690000D01*
X137779000Y-64440000D01*
G36*
X160279000Y-64190000D02*
G01*
X160529000Y-64190000D01*
X160529000Y-64440000D01*
X160279000Y-64440000D01*
X160279000Y-64190000D01*
G37*
X160279000Y-64190000D02*
X160529000Y-64190000D01*
X160529000Y-64440000D01*
X160279000Y-64440000D01*
X160279000Y-64190000D01*
G36*
X159529000Y-64190000D02*
G01*
X159779000Y-64190000D01*
X159779000Y-64440000D01*
X159529000Y-64440000D01*
X159529000Y-64190000D01*
G37*
X159529000Y-64190000D02*
X159779000Y-64190000D01*
X159779000Y-64440000D01*
X159529000Y-64440000D01*
X159529000Y-64190000D01*
G36*
X159029000Y-64190000D02*
G01*
X159279000Y-64190000D01*
X159279000Y-64440000D01*
X159029000Y-64440000D01*
X159029000Y-64190000D01*
G37*
X159029000Y-64190000D02*
X159279000Y-64190000D01*
X159279000Y-64440000D01*
X159029000Y-64440000D01*
X159029000Y-64190000D01*
G36*
X157779000Y-64190000D02*
G01*
X158029000Y-64190000D01*
X158029000Y-64440000D01*
X157779000Y-64440000D01*
X157779000Y-64190000D01*
G37*
X157779000Y-64190000D02*
X158029000Y-64190000D01*
X158029000Y-64440000D01*
X157779000Y-64440000D01*
X157779000Y-64190000D01*
G36*
X156779000Y-64190000D02*
G01*
X157029000Y-64190000D01*
X157029000Y-64440000D01*
X156779000Y-64440000D01*
X156779000Y-64190000D01*
G37*
X156779000Y-64190000D02*
X157029000Y-64190000D01*
X157029000Y-64440000D01*
X156779000Y-64440000D01*
X156779000Y-64190000D01*
G36*
X156029000Y-64190000D02*
G01*
X156279000Y-64190000D01*
X156279000Y-64440000D01*
X156029000Y-64440000D01*
X156029000Y-64190000D01*
G37*
X156029000Y-64190000D02*
X156279000Y-64190000D01*
X156279000Y-64440000D01*
X156029000Y-64440000D01*
X156029000Y-64190000D01*
G36*
X154279000Y-64190000D02*
G01*
X154529000Y-64190000D01*
X154529000Y-64440000D01*
X154279000Y-64440000D01*
X154279000Y-64190000D01*
G37*
X154279000Y-64190000D02*
X154529000Y-64190000D01*
X154529000Y-64440000D01*
X154279000Y-64440000D01*
X154279000Y-64190000D01*
G36*
X153779000Y-64190000D02*
G01*
X154029000Y-64190000D01*
X154029000Y-64440000D01*
X153779000Y-64440000D01*
X153779000Y-64190000D01*
G37*
X153779000Y-64190000D02*
X154029000Y-64190000D01*
X154029000Y-64440000D01*
X153779000Y-64440000D01*
X153779000Y-64190000D01*
G36*
X153279000Y-64190000D02*
G01*
X153529000Y-64190000D01*
X153529000Y-64440000D01*
X153279000Y-64440000D01*
X153279000Y-64190000D01*
G37*
X153279000Y-64190000D02*
X153529000Y-64190000D01*
X153529000Y-64440000D01*
X153279000Y-64440000D01*
X153279000Y-64190000D01*
G36*
X152529000Y-64190000D02*
G01*
X152779000Y-64190000D01*
X152779000Y-64440000D01*
X152529000Y-64440000D01*
X152529000Y-64190000D01*
G37*
X152529000Y-64190000D02*
X152779000Y-64190000D01*
X152779000Y-64440000D01*
X152529000Y-64440000D01*
X152529000Y-64190000D01*
G36*
X151529000Y-64190000D02*
G01*
X151779000Y-64190000D01*
X151779000Y-64440000D01*
X151529000Y-64440000D01*
X151529000Y-64190000D01*
G37*
X151529000Y-64190000D02*
X151779000Y-64190000D01*
X151779000Y-64440000D01*
X151529000Y-64440000D01*
X151529000Y-64190000D01*
G36*
X150029000Y-64190000D02*
G01*
X150279000Y-64190000D01*
X150279000Y-64440000D01*
X150029000Y-64440000D01*
X150029000Y-64190000D01*
G37*
X150029000Y-64190000D02*
X150279000Y-64190000D01*
X150279000Y-64440000D01*
X150029000Y-64440000D01*
X150029000Y-64190000D01*
G36*
X148529000Y-64190000D02*
G01*
X148779000Y-64190000D01*
X148779000Y-64440000D01*
X148529000Y-64440000D01*
X148529000Y-64190000D01*
G37*
X148529000Y-64190000D02*
X148779000Y-64190000D01*
X148779000Y-64440000D01*
X148529000Y-64440000D01*
X148529000Y-64190000D01*
G36*
X146529000Y-64190000D02*
G01*
X146779000Y-64190000D01*
X146779000Y-64440000D01*
X146529000Y-64440000D01*
X146529000Y-64190000D01*
G37*
X146529000Y-64190000D02*
X146779000Y-64190000D01*
X146779000Y-64440000D01*
X146529000Y-64440000D01*
X146529000Y-64190000D01*
G36*
X145279000Y-64190000D02*
G01*
X145529000Y-64190000D01*
X145529000Y-64440000D01*
X145279000Y-64440000D01*
X145279000Y-64190000D01*
G37*
X145279000Y-64190000D02*
X145529000Y-64190000D01*
X145529000Y-64440000D01*
X145279000Y-64440000D01*
X145279000Y-64190000D01*
G36*
X145029000Y-64190000D02*
G01*
X145279000Y-64190000D01*
X145279000Y-64440000D01*
X145029000Y-64440000D01*
X145029000Y-64190000D01*
G37*
X145029000Y-64190000D02*
X145279000Y-64190000D01*
X145279000Y-64440000D01*
X145029000Y-64440000D01*
X145029000Y-64190000D01*
G36*
X144779000Y-64190000D02*
G01*
X145029000Y-64190000D01*
X145029000Y-64440000D01*
X144779000Y-64440000D01*
X144779000Y-64190000D01*
G37*
X144779000Y-64190000D02*
X145029000Y-64190000D01*
X145029000Y-64440000D01*
X144779000Y-64440000D01*
X144779000Y-64190000D01*
G36*
X144529000Y-64190000D02*
G01*
X144779000Y-64190000D01*
X144779000Y-64440000D01*
X144529000Y-64440000D01*
X144529000Y-64190000D01*
G37*
X144529000Y-64190000D02*
X144779000Y-64190000D01*
X144779000Y-64440000D01*
X144529000Y-64440000D01*
X144529000Y-64190000D01*
G36*
X143779000Y-64190000D02*
G01*
X144029000Y-64190000D01*
X144029000Y-64440000D01*
X143779000Y-64440000D01*
X143779000Y-64190000D01*
G37*
X143779000Y-64190000D02*
X144029000Y-64190000D01*
X144029000Y-64440000D01*
X143779000Y-64440000D01*
X143779000Y-64190000D01*
G36*
X142779000Y-64190000D02*
G01*
X143029000Y-64190000D01*
X143029000Y-64440000D01*
X142779000Y-64440000D01*
X142779000Y-64190000D01*
G37*
X142779000Y-64190000D02*
X143029000Y-64190000D01*
X143029000Y-64440000D01*
X142779000Y-64440000D01*
X142779000Y-64190000D01*
G36*
X142279000Y-64190000D02*
G01*
X142529000Y-64190000D01*
X142529000Y-64440000D01*
X142279000Y-64440000D01*
X142279000Y-64190000D01*
G37*
X142279000Y-64190000D02*
X142529000Y-64190000D01*
X142529000Y-64440000D01*
X142279000Y-64440000D01*
X142279000Y-64190000D01*
G36*
X140029000Y-64190000D02*
G01*
X140279000Y-64190000D01*
X140279000Y-64440000D01*
X140029000Y-64440000D01*
X140029000Y-64190000D01*
G37*
X140029000Y-64190000D02*
X140279000Y-64190000D01*
X140279000Y-64440000D01*
X140029000Y-64440000D01*
X140029000Y-64190000D01*
G36*
X139779000Y-64190000D02*
G01*
X140029000Y-64190000D01*
X140029000Y-64440000D01*
X139779000Y-64440000D01*
X139779000Y-64190000D01*
G37*
X139779000Y-64190000D02*
X140029000Y-64190000D01*
X140029000Y-64440000D01*
X139779000Y-64440000D01*
X139779000Y-64190000D01*
G36*
X138029000Y-64190000D02*
G01*
X138279000Y-64190000D01*
X138279000Y-64440000D01*
X138029000Y-64440000D01*
X138029000Y-64190000D01*
G37*
X138029000Y-64190000D02*
X138279000Y-64190000D01*
X138279000Y-64440000D01*
X138029000Y-64440000D01*
X138029000Y-64190000D01*
G36*
X160029000Y-63940000D02*
G01*
X160279000Y-63940000D01*
X160279000Y-64190000D01*
X160029000Y-64190000D01*
X160029000Y-63940000D01*
G37*
X160029000Y-63940000D02*
X160279000Y-63940000D01*
X160279000Y-64190000D01*
X160029000Y-64190000D01*
X160029000Y-63940000D01*
G36*
X159779000Y-63940000D02*
G01*
X160029000Y-63940000D01*
X160029000Y-64190000D01*
X159779000Y-64190000D01*
X159779000Y-63940000D01*
G37*
X159779000Y-63940000D02*
X160029000Y-63940000D01*
X160029000Y-64190000D01*
X159779000Y-64190000D01*
X159779000Y-63940000D01*
G36*
X159529000Y-63940000D02*
G01*
X159779000Y-63940000D01*
X159779000Y-64190000D01*
X159529000Y-64190000D01*
X159529000Y-63940000D01*
G37*
X159529000Y-63940000D02*
X159779000Y-63940000D01*
X159779000Y-64190000D01*
X159529000Y-64190000D01*
X159529000Y-63940000D01*
G36*
X158779000Y-63940000D02*
G01*
X159029000Y-63940000D01*
X159029000Y-64190000D01*
X158779000Y-64190000D01*
X158779000Y-63940000D01*
G37*
X158779000Y-63940000D02*
X159029000Y-63940000D01*
X159029000Y-64190000D01*
X158779000Y-64190000D01*
X158779000Y-63940000D01*
G36*
X158529000Y-63940000D02*
G01*
X158779000Y-63940000D01*
X158779000Y-64190000D01*
X158529000Y-64190000D01*
X158529000Y-63940000D01*
G37*
X158529000Y-63940000D02*
X158779000Y-63940000D01*
X158779000Y-64190000D01*
X158529000Y-64190000D01*
X158529000Y-63940000D01*
G36*
X158279000Y-63940000D02*
G01*
X158529000Y-63940000D01*
X158529000Y-64190000D01*
X158279000Y-64190000D01*
X158279000Y-63940000D01*
G37*
X158279000Y-63940000D02*
X158529000Y-63940000D01*
X158529000Y-64190000D01*
X158279000Y-64190000D01*
X158279000Y-63940000D01*
G36*
X158029000Y-63940000D02*
G01*
X158279000Y-63940000D01*
X158279000Y-64190000D01*
X158029000Y-64190000D01*
X158029000Y-63940000D01*
G37*
X158029000Y-63940000D02*
X158279000Y-63940000D01*
X158279000Y-64190000D01*
X158029000Y-64190000D01*
X158029000Y-63940000D01*
G36*
X156779000Y-63940000D02*
G01*
X157029000Y-63940000D01*
X157029000Y-64190000D01*
X156779000Y-64190000D01*
X156779000Y-63940000D01*
G37*
X156779000Y-63940000D02*
X157029000Y-63940000D01*
X157029000Y-64190000D01*
X156779000Y-64190000D01*
X156779000Y-63940000D01*
G36*
X156279000Y-63940000D02*
G01*
X156529000Y-63940000D01*
X156529000Y-64190000D01*
X156279000Y-64190000D01*
X156279000Y-63940000D01*
G37*
X156279000Y-63940000D02*
X156529000Y-63940000D01*
X156529000Y-64190000D01*
X156279000Y-64190000D01*
X156279000Y-63940000D01*
G36*
X154279000Y-63940000D02*
G01*
X154529000Y-63940000D01*
X154529000Y-64190000D01*
X154279000Y-64190000D01*
X154279000Y-63940000D01*
G37*
X154279000Y-63940000D02*
X154529000Y-63940000D01*
X154529000Y-64190000D01*
X154279000Y-64190000D01*
X154279000Y-63940000D01*
G36*
X153779000Y-63940000D02*
G01*
X154029000Y-63940000D01*
X154029000Y-64190000D01*
X153779000Y-64190000D01*
X153779000Y-63940000D01*
G37*
X153779000Y-63940000D02*
X154029000Y-63940000D01*
X154029000Y-64190000D01*
X153779000Y-64190000D01*
X153779000Y-63940000D01*
G36*
X153279000Y-63940000D02*
G01*
X153529000Y-63940000D01*
X153529000Y-64190000D01*
X153279000Y-64190000D01*
X153279000Y-63940000D01*
G37*
X153279000Y-63940000D02*
X153529000Y-63940000D01*
X153529000Y-64190000D01*
X153279000Y-64190000D01*
X153279000Y-63940000D01*
G36*
X152529000Y-63940000D02*
G01*
X152779000Y-63940000D01*
X152779000Y-64190000D01*
X152529000Y-64190000D01*
X152529000Y-63940000D01*
G37*
X152529000Y-63940000D02*
X152779000Y-63940000D01*
X152779000Y-64190000D01*
X152529000Y-64190000D01*
X152529000Y-63940000D01*
G36*
X151529000Y-63940000D02*
G01*
X151779000Y-63940000D01*
X151779000Y-64190000D01*
X151529000Y-64190000D01*
X151529000Y-63940000D01*
G37*
X151529000Y-63940000D02*
X151779000Y-63940000D01*
X151779000Y-64190000D01*
X151529000Y-64190000D01*
X151529000Y-63940000D01*
G36*
X150029000Y-63940000D02*
G01*
X150279000Y-63940000D01*
X150279000Y-64190000D01*
X150029000Y-64190000D01*
X150029000Y-63940000D01*
G37*
X150029000Y-63940000D02*
X150279000Y-63940000D01*
X150279000Y-64190000D01*
X150029000Y-64190000D01*
X150029000Y-63940000D01*
G36*
X148529000Y-63940000D02*
G01*
X148779000Y-63940000D01*
X148779000Y-64190000D01*
X148529000Y-64190000D01*
X148529000Y-63940000D01*
G37*
X148529000Y-63940000D02*
X148779000Y-63940000D01*
X148779000Y-64190000D01*
X148529000Y-64190000D01*
X148529000Y-63940000D01*
G36*
X146529000Y-63940000D02*
G01*
X146779000Y-63940000D01*
X146779000Y-64190000D01*
X146529000Y-64190000D01*
X146529000Y-63940000D01*
G37*
X146529000Y-63940000D02*
X146779000Y-63940000D01*
X146779000Y-64190000D01*
X146529000Y-64190000D01*
X146529000Y-63940000D01*
G36*
X145529000Y-63940000D02*
G01*
X145779000Y-63940000D01*
X145779000Y-64190000D01*
X145529000Y-64190000D01*
X145529000Y-63940000D01*
G37*
X145529000Y-63940000D02*
X145779000Y-63940000D01*
X145779000Y-64190000D01*
X145529000Y-64190000D01*
X145529000Y-63940000D01*
G36*
X144529000Y-63940000D02*
G01*
X144779000Y-63940000D01*
X144779000Y-64190000D01*
X144529000Y-64190000D01*
X144529000Y-63940000D01*
G37*
X144529000Y-63940000D02*
X144779000Y-63940000D01*
X144779000Y-64190000D01*
X144529000Y-64190000D01*
X144529000Y-63940000D01*
G36*
X143779000Y-63940000D02*
G01*
X144029000Y-63940000D01*
X144029000Y-64190000D01*
X143779000Y-64190000D01*
X143779000Y-63940000D01*
G37*
X143779000Y-63940000D02*
X144029000Y-63940000D01*
X144029000Y-64190000D01*
X143779000Y-64190000D01*
X143779000Y-63940000D01*
G36*
X142779000Y-63940000D02*
G01*
X143029000Y-63940000D01*
X143029000Y-64190000D01*
X142779000Y-64190000D01*
X142779000Y-63940000D01*
G37*
X142779000Y-63940000D02*
X143029000Y-63940000D01*
X143029000Y-64190000D01*
X142779000Y-64190000D01*
X142779000Y-63940000D01*
G36*
X142029000Y-63940000D02*
G01*
X142279000Y-63940000D01*
X142279000Y-64190000D01*
X142029000Y-64190000D01*
X142029000Y-63940000D01*
G37*
X142029000Y-63940000D02*
X142279000Y-63940000D01*
X142279000Y-64190000D01*
X142029000Y-64190000D01*
X142029000Y-63940000D01*
G36*
X141779000Y-63940000D02*
G01*
X142029000Y-63940000D01*
X142029000Y-64190000D01*
X141779000Y-64190000D01*
X141779000Y-63940000D01*
G37*
X141779000Y-63940000D02*
X142029000Y-63940000D01*
X142029000Y-64190000D01*
X141779000Y-64190000D01*
X141779000Y-63940000D01*
G36*
X141529000Y-63940000D02*
G01*
X141779000Y-63940000D01*
X141779000Y-64190000D01*
X141529000Y-64190000D01*
X141529000Y-63940000D01*
G37*
X141529000Y-63940000D02*
X141779000Y-63940000D01*
X141779000Y-64190000D01*
X141529000Y-64190000D01*
X141529000Y-63940000D01*
G36*
X141279000Y-63940000D02*
G01*
X141529000Y-63940000D01*
X141529000Y-64190000D01*
X141279000Y-64190000D01*
X141279000Y-63940000D01*
G37*
X141279000Y-63940000D02*
X141529000Y-63940000D01*
X141529000Y-64190000D01*
X141279000Y-64190000D01*
X141279000Y-63940000D01*
G36*
X140029000Y-63940000D02*
G01*
X140279000Y-63940000D01*
X140279000Y-64190000D01*
X140029000Y-64190000D01*
X140029000Y-63940000D01*
G37*
X140029000Y-63940000D02*
X140279000Y-63940000D01*
X140279000Y-64190000D01*
X140029000Y-64190000D01*
X140029000Y-63940000D01*
G36*
X139779000Y-63940000D02*
G01*
X140029000Y-63940000D01*
X140029000Y-64190000D01*
X139779000Y-64190000D01*
X139779000Y-63940000D01*
G37*
X139779000Y-63940000D02*
X140029000Y-63940000D01*
X140029000Y-64190000D01*
X139779000Y-64190000D01*
X139779000Y-63940000D01*
G36*
X138279000Y-63940000D02*
G01*
X138529000Y-63940000D01*
X138529000Y-64190000D01*
X138279000Y-64190000D01*
X138279000Y-63940000D01*
G37*
X138279000Y-63940000D02*
X138529000Y-63940000D01*
X138529000Y-64190000D01*
X138279000Y-64190000D01*
X138279000Y-63940000D01*
G36*
X160279000Y-63690000D02*
G01*
X160529000Y-63690000D01*
X160529000Y-63940000D01*
X160279000Y-63940000D01*
X160279000Y-63690000D01*
G37*
X160279000Y-63690000D02*
X160529000Y-63690000D01*
X160529000Y-63940000D01*
X160279000Y-63940000D01*
X160279000Y-63690000D01*
G36*
X159529000Y-63690000D02*
G01*
X159779000Y-63690000D01*
X159779000Y-63940000D01*
X159529000Y-63940000D01*
X159529000Y-63690000D01*
G37*
X159529000Y-63690000D02*
X159779000Y-63690000D01*
X159779000Y-63940000D01*
X159529000Y-63940000D01*
X159529000Y-63690000D01*
G36*
X159029000Y-63690000D02*
G01*
X159279000Y-63690000D01*
X159279000Y-63940000D01*
X159029000Y-63940000D01*
X159029000Y-63690000D01*
G37*
X159029000Y-63690000D02*
X159279000Y-63690000D01*
X159279000Y-63940000D01*
X159029000Y-63940000D01*
X159029000Y-63690000D01*
G36*
X157779000Y-63690000D02*
G01*
X158029000Y-63690000D01*
X158029000Y-63940000D01*
X157779000Y-63940000D01*
X157779000Y-63690000D01*
G37*
X157779000Y-63690000D02*
X158029000Y-63690000D01*
X158029000Y-63940000D01*
X157779000Y-63940000D01*
X157779000Y-63690000D01*
G36*
X156779000Y-63690000D02*
G01*
X157029000Y-63690000D01*
X157029000Y-63940000D01*
X156779000Y-63940000D01*
X156779000Y-63690000D01*
G37*
X156779000Y-63690000D02*
X157029000Y-63690000D01*
X157029000Y-63940000D01*
X156779000Y-63940000D01*
X156779000Y-63690000D01*
G36*
X156529000Y-63690000D02*
G01*
X156779000Y-63690000D01*
X156779000Y-63940000D01*
X156529000Y-63940000D01*
X156529000Y-63690000D01*
G37*
X156529000Y-63690000D02*
X156779000Y-63690000D01*
X156779000Y-63940000D01*
X156529000Y-63940000D01*
X156529000Y-63690000D01*
G36*
X154029000Y-63690000D02*
G01*
X154279000Y-63690000D01*
X154279000Y-63940000D01*
X154029000Y-63940000D01*
X154029000Y-63690000D01*
G37*
X154029000Y-63690000D02*
X154279000Y-63690000D01*
X154279000Y-63940000D01*
X154029000Y-63940000D01*
X154029000Y-63690000D01*
G36*
X153529000Y-63690000D02*
G01*
X153779000Y-63690000D01*
X153779000Y-63940000D01*
X153529000Y-63940000D01*
X153529000Y-63690000D01*
G37*
X153529000Y-63690000D02*
X153779000Y-63690000D01*
X153779000Y-63940000D01*
X153529000Y-63940000D01*
X153529000Y-63690000D01*
G36*
X153279000Y-63690000D02*
G01*
X153529000Y-63690000D01*
X153529000Y-63940000D01*
X153279000Y-63940000D01*
X153279000Y-63690000D01*
G37*
X153279000Y-63690000D02*
X153529000Y-63690000D01*
X153529000Y-63940000D01*
X153279000Y-63940000D01*
X153279000Y-63690000D01*
G36*
X152529000Y-63690000D02*
G01*
X152779000Y-63690000D01*
X152779000Y-63940000D01*
X152529000Y-63940000D01*
X152529000Y-63690000D01*
G37*
X152529000Y-63690000D02*
X152779000Y-63690000D01*
X152779000Y-63940000D01*
X152529000Y-63940000D01*
X152529000Y-63690000D01*
G36*
X151529000Y-63690000D02*
G01*
X151779000Y-63690000D01*
X151779000Y-63940000D01*
X151529000Y-63940000D01*
X151529000Y-63690000D01*
G37*
X151529000Y-63690000D02*
X151779000Y-63690000D01*
X151779000Y-63940000D01*
X151529000Y-63940000D01*
X151529000Y-63690000D01*
G36*
X150779000Y-63690000D02*
G01*
X151029000Y-63690000D01*
X151029000Y-63940000D01*
X150779000Y-63940000D01*
X150779000Y-63690000D01*
G37*
X150779000Y-63690000D02*
X151029000Y-63690000D01*
X151029000Y-63940000D01*
X150779000Y-63940000D01*
X150779000Y-63690000D01*
G36*
X150529000Y-63690000D02*
G01*
X150779000Y-63690000D01*
X150779000Y-63940000D01*
X150529000Y-63940000D01*
X150529000Y-63690000D01*
G37*
X150529000Y-63690000D02*
X150779000Y-63690000D01*
X150779000Y-63940000D01*
X150529000Y-63940000D01*
X150529000Y-63690000D01*
G36*
X150279000Y-63690000D02*
G01*
X150529000Y-63690000D01*
X150529000Y-63940000D01*
X150279000Y-63940000D01*
X150279000Y-63690000D01*
G37*
X150279000Y-63690000D02*
X150529000Y-63690000D01*
X150529000Y-63940000D01*
X150279000Y-63940000D01*
X150279000Y-63690000D01*
G36*
X148779000Y-63690000D02*
G01*
X149029000Y-63690000D01*
X149029000Y-63940000D01*
X148779000Y-63940000D01*
X148779000Y-63690000D01*
G37*
X148779000Y-63690000D02*
X149029000Y-63690000D01*
X149029000Y-63940000D01*
X148779000Y-63940000D01*
X148779000Y-63690000D01*
G36*
X148529000Y-63690000D02*
G01*
X148779000Y-63690000D01*
X148779000Y-63940000D01*
X148529000Y-63940000D01*
X148529000Y-63690000D01*
G37*
X148529000Y-63690000D02*
X148779000Y-63690000D01*
X148779000Y-63940000D01*
X148529000Y-63940000D01*
X148529000Y-63690000D01*
G36*
X148279000Y-63690000D02*
G01*
X148529000Y-63690000D01*
X148529000Y-63940000D01*
X148279000Y-63940000D01*
X148279000Y-63690000D01*
G37*
X148279000Y-63690000D02*
X148529000Y-63690000D01*
X148529000Y-63940000D01*
X148279000Y-63940000D01*
X148279000Y-63690000D01*
G36*
X147279000Y-63690000D02*
G01*
X147529000Y-63690000D01*
X147529000Y-63940000D01*
X147279000Y-63940000D01*
X147279000Y-63690000D01*
G37*
X147279000Y-63690000D02*
X147529000Y-63690000D01*
X147529000Y-63940000D01*
X147279000Y-63940000D01*
X147279000Y-63690000D01*
G36*
X147029000Y-63690000D02*
G01*
X147279000Y-63690000D01*
X147279000Y-63940000D01*
X147029000Y-63940000D01*
X147029000Y-63690000D01*
G37*
X147029000Y-63690000D02*
X147279000Y-63690000D01*
X147279000Y-63940000D01*
X147029000Y-63940000D01*
X147029000Y-63690000D01*
G36*
X146779000Y-63690000D02*
G01*
X147029000Y-63690000D01*
X147029000Y-63940000D01*
X146779000Y-63940000D01*
X146779000Y-63690000D01*
G37*
X146779000Y-63690000D02*
X147029000Y-63690000D01*
X147029000Y-63940000D01*
X146779000Y-63940000D01*
X146779000Y-63690000D01*
G36*
X145279000Y-63690000D02*
G01*
X145529000Y-63690000D01*
X145529000Y-63940000D01*
X145279000Y-63940000D01*
X145279000Y-63690000D01*
G37*
X145279000Y-63690000D02*
X145529000Y-63690000D01*
X145529000Y-63940000D01*
X145279000Y-63940000D01*
X145279000Y-63690000D01*
G36*
X145029000Y-63690000D02*
G01*
X145279000Y-63690000D01*
X145279000Y-63940000D01*
X145029000Y-63940000D01*
X145029000Y-63690000D01*
G37*
X145029000Y-63690000D02*
X145279000Y-63690000D01*
X145279000Y-63940000D01*
X145029000Y-63940000D01*
X145029000Y-63690000D01*
G36*
X144779000Y-63690000D02*
G01*
X145029000Y-63690000D01*
X145029000Y-63940000D01*
X144779000Y-63940000D01*
X144779000Y-63690000D01*
G37*
X144779000Y-63690000D02*
X145029000Y-63690000D01*
X145029000Y-63940000D01*
X144779000Y-63940000D01*
X144779000Y-63690000D01*
G36*
X143529000Y-63690000D02*
G01*
X143779000Y-63690000D01*
X143779000Y-63940000D01*
X143529000Y-63940000D01*
X143529000Y-63690000D01*
G37*
X143529000Y-63690000D02*
X143779000Y-63690000D01*
X143779000Y-63940000D01*
X143529000Y-63940000D01*
X143529000Y-63690000D01*
G36*
X143279000Y-63690000D02*
G01*
X143529000Y-63690000D01*
X143529000Y-63940000D01*
X143279000Y-63940000D01*
X143279000Y-63690000D01*
G37*
X143279000Y-63690000D02*
X143529000Y-63690000D01*
X143529000Y-63940000D01*
X143279000Y-63940000D01*
X143279000Y-63690000D01*
G36*
X143029000Y-63690000D02*
G01*
X143279000Y-63690000D01*
X143279000Y-63940000D01*
X143029000Y-63940000D01*
X143029000Y-63690000D01*
G37*
X143029000Y-63690000D02*
X143279000Y-63690000D01*
X143279000Y-63940000D01*
X143029000Y-63940000D01*
X143029000Y-63690000D01*
G36*
X142779000Y-63690000D02*
G01*
X143029000Y-63690000D01*
X143029000Y-63940000D01*
X142779000Y-63940000D01*
X142779000Y-63690000D01*
G37*
X142779000Y-63690000D02*
X143029000Y-63690000D01*
X143029000Y-63940000D01*
X142779000Y-63940000D01*
X142779000Y-63690000D01*
G36*
X141029000Y-63690000D02*
G01*
X141279000Y-63690000D01*
X141279000Y-63940000D01*
X141029000Y-63940000D01*
X141029000Y-63690000D01*
G37*
X141029000Y-63690000D02*
X141279000Y-63690000D01*
X141279000Y-63940000D01*
X141029000Y-63940000D01*
X141029000Y-63690000D01*
G36*
X140279000Y-63690000D02*
G01*
X140529000Y-63690000D01*
X140529000Y-63940000D01*
X140279000Y-63940000D01*
X140279000Y-63690000D01*
G37*
X140279000Y-63690000D02*
X140529000Y-63690000D01*
X140529000Y-63940000D01*
X140279000Y-63940000D01*
X140279000Y-63690000D01*
G36*
X139529000Y-63690000D02*
G01*
X139779000Y-63690000D01*
X139779000Y-63940000D01*
X139529000Y-63940000D01*
X139529000Y-63690000D01*
G37*
X139529000Y-63690000D02*
X139779000Y-63690000D01*
X139779000Y-63940000D01*
X139529000Y-63940000D01*
X139529000Y-63690000D01*
G36*
X138529000Y-63690000D02*
G01*
X138779000Y-63690000D01*
X138779000Y-63940000D01*
X138529000Y-63940000D01*
X138529000Y-63690000D01*
G37*
X138529000Y-63690000D02*
X138779000Y-63690000D01*
X138779000Y-63940000D01*
X138529000Y-63940000D01*
X138529000Y-63690000D01*
G36*
X160529000Y-63440000D02*
G01*
X160779000Y-63440000D01*
X160779000Y-63690000D01*
X160529000Y-63690000D01*
X160529000Y-63440000D01*
G37*
X160529000Y-63440000D02*
X160779000Y-63440000D01*
X160779000Y-63690000D01*
X160529000Y-63690000D01*
X160529000Y-63440000D01*
G36*
X159529000Y-63440000D02*
G01*
X159779000Y-63440000D01*
X159779000Y-63690000D01*
X159529000Y-63690000D01*
X159529000Y-63440000D01*
G37*
X159529000Y-63440000D02*
X159779000Y-63440000D01*
X159779000Y-63690000D01*
X159529000Y-63690000D01*
X159529000Y-63440000D01*
G36*
X158779000Y-63440000D02*
G01*
X159029000Y-63440000D01*
X159029000Y-63690000D01*
X158779000Y-63690000D01*
X158779000Y-63440000D01*
G37*
X158779000Y-63440000D02*
X159029000Y-63440000D01*
X159029000Y-63690000D01*
X158779000Y-63690000D01*
X158779000Y-63440000D01*
G36*
X158529000Y-63440000D02*
G01*
X158779000Y-63440000D01*
X158779000Y-63690000D01*
X158529000Y-63690000D01*
X158529000Y-63440000D01*
G37*
X158529000Y-63440000D02*
X158779000Y-63440000D01*
X158779000Y-63690000D01*
X158529000Y-63690000D01*
X158529000Y-63440000D01*
G36*
X158279000Y-63440000D02*
G01*
X158529000Y-63440000D01*
X158529000Y-63690000D01*
X158279000Y-63690000D01*
X158279000Y-63440000D01*
G37*
X158279000Y-63440000D02*
X158529000Y-63440000D01*
X158529000Y-63690000D01*
X158279000Y-63690000D01*
X158279000Y-63440000D01*
G36*
X158029000Y-63440000D02*
G01*
X158279000Y-63440000D01*
X158279000Y-63690000D01*
X158029000Y-63690000D01*
X158029000Y-63440000D01*
G37*
X158029000Y-63440000D02*
X158279000Y-63440000D01*
X158279000Y-63690000D01*
X158029000Y-63690000D01*
X158029000Y-63440000D01*
G36*
X156779000Y-63440000D02*
G01*
X157029000Y-63440000D01*
X157029000Y-63690000D01*
X156779000Y-63690000D01*
X156779000Y-63440000D01*
G37*
X156779000Y-63440000D02*
X157029000Y-63440000D01*
X157029000Y-63690000D01*
X156779000Y-63690000D01*
X156779000Y-63440000D01*
G36*
X148529000Y-63440000D02*
G01*
X148779000Y-63440000D01*
X148779000Y-63690000D01*
X148529000Y-63690000D01*
X148529000Y-63440000D01*
G37*
X148529000Y-63440000D02*
X148779000Y-63440000D01*
X148779000Y-63690000D01*
X148529000Y-63690000D01*
X148529000Y-63440000D01*
G36*
X142029000Y-63440000D02*
G01*
X142279000Y-63440000D01*
X142279000Y-63690000D01*
X142029000Y-63690000D01*
X142029000Y-63440000D01*
G37*
X142029000Y-63440000D02*
X142279000Y-63440000D01*
X142279000Y-63690000D01*
X142029000Y-63690000D01*
X142029000Y-63440000D01*
G36*
X141779000Y-63440000D02*
G01*
X142029000Y-63440000D01*
X142029000Y-63690000D01*
X141779000Y-63690000D01*
X141779000Y-63440000D01*
G37*
X141779000Y-63440000D02*
X142029000Y-63440000D01*
X142029000Y-63690000D01*
X141779000Y-63690000D01*
X141779000Y-63440000D01*
G36*
X141529000Y-63440000D02*
G01*
X141779000Y-63440000D01*
X141779000Y-63690000D01*
X141529000Y-63690000D01*
X141529000Y-63440000D01*
G37*
X141529000Y-63440000D02*
X141779000Y-63440000D01*
X141779000Y-63690000D01*
X141529000Y-63690000D01*
X141529000Y-63440000D01*
G36*
X141279000Y-63440000D02*
G01*
X141529000Y-63440000D01*
X141529000Y-63690000D01*
X141279000Y-63690000D01*
X141279000Y-63440000D01*
G37*
X141279000Y-63440000D02*
X141529000Y-63440000D01*
X141529000Y-63690000D01*
X141279000Y-63690000D01*
X141279000Y-63440000D01*
G36*
X140529000Y-63440000D02*
G01*
X140779000Y-63440000D01*
X140779000Y-63690000D01*
X140529000Y-63690000D01*
X140529000Y-63440000D01*
G37*
X140529000Y-63440000D02*
X140779000Y-63440000D01*
X140779000Y-63690000D01*
X140529000Y-63690000D01*
X140529000Y-63440000D01*
G36*
X139279000Y-63440000D02*
G01*
X139529000Y-63440000D01*
X139529000Y-63690000D01*
X139279000Y-63690000D01*
X139279000Y-63440000D01*
G37*
X139279000Y-63440000D02*
X139529000Y-63440000D01*
X139529000Y-63690000D01*
X139279000Y-63690000D01*
X139279000Y-63440000D01*
G36*
X138779000Y-63440000D02*
G01*
X139029000Y-63440000D01*
X139029000Y-63690000D01*
X138779000Y-63690000D01*
X138779000Y-63440000D01*
G37*
X138779000Y-63440000D02*
X139029000Y-63440000D01*
X139029000Y-63690000D01*
X138779000Y-63690000D01*
X138779000Y-63440000D01*
G36*
X138529000Y-63440000D02*
G01*
X138779000Y-63440000D01*
X138779000Y-63690000D01*
X138529000Y-63690000D01*
X138529000Y-63440000D01*
G37*
X138529000Y-63440000D02*
X138779000Y-63440000D01*
X138779000Y-63690000D01*
X138529000Y-63690000D01*
X138529000Y-63440000D01*
G36*
X138279000Y-63440000D02*
G01*
X138529000Y-63440000D01*
X138529000Y-63690000D01*
X138279000Y-63690000D01*
X138279000Y-63440000D01*
G37*
X138279000Y-63440000D02*
X138529000Y-63440000D01*
X138529000Y-63690000D01*
X138279000Y-63690000D01*
X138279000Y-63440000D01*
G36*
X138029000Y-63440000D02*
G01*
X138279000Y-63440000D01*
X138279000Y-63690000D01*
X138029000Y-63690000D01*
X138029000Y-63440000D01*
G37*
X138029000Y-63440000D02*
X138279000Y-63440000D01*
X138279000Y-63690000D01*
X138029000Y-63690000D01*
X138029000Y-63440000D01*
G36*
X137779000Y-63440000D02*
G01*
X138029000Y-63440000D01*
X138029000Y-63690000D01*
X137779000Y-63690000D01*
X137779000Y-63440000D01*
G37*
X137779000Y-63440000D02*
X138029000Y-63440000D01*
X138029000Y-63690000D01*
X137779000Y-63690000D01*
X137779000Y-63440000D01*
G36*
X137529000Y-63440000D02*
G01*
X137779000Y-63440000D01*
X137779000Y-63690000D01*
X137529000Y-63690000D01*
X137529000Y-63440000D01*
G37*
X137529000Y-63440000D02*
X137779000Y-63440000D01*
X137779000Y-63690000D01*
X137529000Y-63690000D01*
X137529000Y-63440000D01*
G36*
X159029000Y-62440000D02*
G01*
X159279000Y-62440000D01*
X159279000Y-62690000D01*
X159029000Y-62690000D01*
X159029000Y-62440000D01*
G37*
X159029000Y-62440000D02*
X159279000Y-62440000D01*
X159279000Y-62690000D01*
X159029000Y-62690000D01*
X159029000Y-62440000D01*
G36*
X158779000Y-62440000D02*
G01*
X159029000Y-62440000D01*
X159029000Y-62690000D01*
X158779000Y-62690000D01*
X158779000Y-62440000D01*
G37*
X158779000Y-62440000D02*
X159029000Y-62440000D01*
X159029000Y-62690000D01*
X158779000Y-62690000D01*
X158779000Y-62440000D01*
G36*
X157029000Y-62440000D02*
G01*
X157279000Y-62440000D01*
X157279000Y-62690000D01*
X157029000Y-62690000D01*
X157029000Y-62440000D01*
G37*
X157029000Y-62440000D02*
X157279000Y-62440000D01*
X157279000Y-62690000D01*
X157029000Y-62690000D01*
X157029000Y-62440000D01*
G36*
X156779000Y-62440000D02*
G01*
X157029000Y-62440000D01*
X157029000Y-62690000D01*
X156779000Y-62690000D01*
X156779000Y-62440000D01*
G37*
X156779000Y-62440000D02*
X157029000Y-62440000D01*
X157029000Y-62690000D01*
X156779000Y-62690000D01*
X156779000Y-62440000D01*
G36*
X156529000Y-62440000D02*
G01*
X156779000Y-62440000D01*
X156779000Y-62690000D01*
X156529000Y-62690000D01*
X156529000Y-62440000D01*
G37*
X156529000Y-62440000D02*
X156779000Y-62440000D01*
X156779000Y-62690000D01*
X156529000Y-62690000D01*
X156529000Y-62440000D01*
G36*
X156279000Y-62440000D02*
G01*
X156529000Y-62440000D01*
X156529000Y-62690000D01*
X156279000Y-62690000D01*
X156279000Y-62440000D01*
G37*
X156279000Y-62440000D02*
X156529000Y-62440000D01*
X156529000Y-62690000D01*
X156279000Y-62690000D01*
X156279000Y-62440000D01*
G36*
X156029000Y-62440000D02*
G01*
X156279000Y-62440000D01*
X156279000Y-62690000D01*
X156029000Y-62690000D01*
X156029000Y-62440000D01*
G37*
X156029000Y-62440000D02*
X156279000Y-62440000D01*
X156279000Y-62690000D01*
X156029000Y-62690000D01*
X156029000Y-62440000D01*
G36*
X155779000Y-62440000D02*
G01*
X156029000Y-62440000D01*
X156029000Y-62690000D01*
X155779000Y-62690000D01*
X155779000Y-62440000D01*
G37*
X155779000Y-62440000D02*
X156029000Y-62440000D01*
X156029000Y-62690000D01*
X155779000Y-62690000D01*
X155779000Y-62440000D01*
G36*
X154529000Y-62440000D02*
G01*
X154779000Y-62440000D01*
X154779000Y-62690000D01*
X154529000Y-62690000D01*
X154529000Y-62440000D01*
G37*
X154529000Y-62440000D02*
X154779000Y-62440000D01*
X154779000Y-62690000D01*
X154529000Y-62690000D01*
X154529000Y-62440000D01*
G36*
X154279000Y-62440000D02*
G01*
X154529000Y-62440000D01*
X154529000Y-62690000D01*
X154279000Y-62690000D01*
X154279000Y-62440000D01*
G37*
X154279000Y-62440000D02*
X154529000Y-62440000D01*
X154529000Y-62690000D01*
X154279000Y-62690000D01*
X154279000Y-62440000D01*
G36*
X154029000Y-62440000D02*
G01*
X154279000Y-62440000D01*
X154279000Y-62690000D01*
X154029000Y-62690000D01*
X154029000Y-62440000D01*
G37*
X154029000Y-62440000D02*
X154279000Y-62440000D01*
X154279000Y-62690000D01*
X154029000Y-62690000D01*
X154029000Y-62440000D01*
G36*
X153779000Y-62440000D02*
G01*
X154029000Y-62440000D01*
X154029000Y-62690000D01*
X153779000Y-62690000D01*
X153779000Y-62440000D01*
G37*
X153779000Y-62440000D02*
X154029000Y-62440000D01*
X154029000Y-62690000D01*
X153779000Y-62690000D01*
X153779000Y-62440000D01*
G36*
X153529000Y-62440000D02*
G01*
X153779000Y-62440000D01*
X153779000Y-62690000D01*
X153529000Y-62690000D01*
X153529000Y-62440000D01*
G37*
X153529000Y-62440000D02*
X153779000Y-62440000D01*
X153779000Y-62690000D01*
X153529000Y-62690000D01*
X153529000Y-62440000D01*
G36*
X153279000Y-62440000D02*
G01*
X153529000Y-62440000D01*
X153529000Y-62690000D01*
X153279000Y-62690000D01*
X153279000Y-62440000D01*
G37*
X153279000Y-62440000D02*
X153529000Y-62440000D01*
X153529000Y-62690000D01*
X153279000Y-62690000D01*
X153279000Y-62440000D01*
G36*
X153029000Y-62440000D02*
G01*
X153279000Y-62440000D01*
X153279000Y-62690000D01*
X153029000Y-62690000D01*
X153029000Y-62440000D01*
G37*
X153029000Y-62440000D02*
X153279000Y-62440000D01*
X153279000Y-62690000D01*
X153029000Y-62690000D01*
X153029000Y-62440000D01*
G36*
X152779000Y-62440000D02*
G01*
X153029000Y-62440000D01*
X153029000Y-62690000D01*
X152779000Y-62690000D01*
X152779000Y-62440000D01*
G37*
X152779000Y-62440000D02*
X153029000Y-62440000D01*
X153029000Y-62690000D01*
X152779000Y-62690000D01*
X152779000Y-62440000D01*
G36*
X151529000Y-62440000D02*
G01*
X151779000Y-62440000D01*
X151779000Y-62690000D01*
X151529000Y-62690000D01*
X151529000Y-62440000D01*
G37*
X151529000Y-62440000D02*
X151779000Y-62440000D01*
X151779000Y-62690000D01*
X151529000Y-62690000D01*
X151529000Y-62440000D01*
G36*
X151279000Y-62440000D02*
G01*
X151529000Y-62440000D01*
X151529000Y-62690000D01*
X151279000Y-62690000D01*
X151279000Y-62440000D01*
G37*
X151279000Y-62440000D02*
X151529000Y-62440000D01*
X151529000Y-62690000D01*
X151279000Y-62690000D01*
X151279000Y-62440000D01*
G36*
X151029000Y-62440000D02*
G01*
X151279000Y-62440000D01*
X151279000Y-62690000D01*
X151029000Y-62690000D01*
X151029000Y-62440000D01*
G37*
X151029000Y-62440000D02*
X151279000Y-62440000D01*
X151279000Y-62690000D01*
X151029000Y-62690000D01*
X151029000Y-62440000D01*
G36*
X150779000Y-62440000D02*
G01*
X151029000Y-62440000D01*
X151029000Y-62690000D01*
X150779000Y-62690000D01*
X150779000Y-62440000D01*
G37*
X150779000Y-62440000D02*
X151029000Y-62440000D01*
X151029000Y-62690000D01*
X150779000Y-62690000D01*
X150779000Y-62440000D01*
G36*
X148529000Y-62440000D02*
G01*
X148779000Y-62440000D01*
X148779000Y-62690000D01*
X148529000Y-62690000D01*
X148529000Y-62440000D01*
G37*
X148529000Y-62440000D02*
X148779000Y-62440000D01*
X148779000Y-62690000D01*
X148529000Y-62690000D01*
X148529000Y-62440000D01*
G36*
X148279000Y-62440000D02*
G01*
X148529000Y-62440000D01*
X148529000Y-62690000D01*
X148279000Y-62690000D01*
X148279000Y-62440000D01*
G37*
X148279000Y-62440000D02*
X148529000Y-62440000D01*
X148529000Y-62690000D01*
X148279000Y-62690000D01*
X148279000Y-62440000D01*
G36*
X148029000Y-62440000D02*
G01*
X148279000Y-62440000D01*
X148279000Y-62690000D01*
X148029000Y-62690000D01*
X148029000Y-62440000D01*
G37*
X148029000Y-62440000D02*
X148279000Y-62440000D01*
X148279000Y-62690000D01*
X148029000Y-62690000D01*
X148029000Y-62440000D01*
G36*
X147779000Y-62440000D02*
G01*
X148029000Y-62440000D01*
X148029000Y-62690000D01*
X147779000Y-62690000D01*
X147779000Y-62440000D01*
G37*
X147779000Y-62440000D02*
X148029000Y-62440000D01*
X148029000Y-62690000D01*
X147779000Y-62690000D01*
X147779000Y-62440000D01*
G36*
X147529000Y-62440000D02*
G01*
X147779000Y-62440000D01*
X147779000Y-62690000D01*
X147529000Y-62690000D01*
X147529000Y-62440000D01*
G37*
X147529000Y-62440000D02*
X147779000Y-62440000D01*
X147779000Y-62690000D01*
X147529000Y-62690000D01*
X147529000Y-62440000D01*
G36*
X147279000Y-62440000D02*
G01*
X147529000Y-62440000D01*
X147529000Y-62690000D01*
X147279000Y-62690000D01*
X147279000Y-62440000D01*
G37*
X147279000Y-62440000D02*
X147529000Y-62440000D01*
X147529000Y-62690000D01*
X147279000Y-62690000D01*
X147279000Y-62440000D01*
G36*
X145529000Y-62440000D02*
G01*
X145779000Y-62440000D01*
X145779000Y-62690000D01*
X145529000Y-62690000D01*
X145529000Y-62440000D01*
G37*
X145529000Y-62440000D02*
X145779000Y-62440000D01*
X145779000Y-62690000D01*
X145529000Y-62690000D01*
X145529000Y-62440000D01*
G36*
X145279000Y-62440000D02*
G01*
X145529000Y-62440000D01*
X145529000Y-62690000D01*
X145279000Y-62690000D01*
X145279000Y-62440000D01*
G37*
X145279000Y-62440000D02*
X145529000Y-62440000D01*
X145529000Y-62690000D01*
X145279000Y-62690000D01*
X145279000Y-62440000D01*
G36*
X143529000Y-62440000D02*
G01*
X143779000Y-62440000D01*
X143779000Y-62690000D01*
X143529000Y-62690000D01*
X143529000Y-62440000D01*
G37*
X143529000Y-62440000D02*
X143779000Y-62440000D01*
X143779000Y-62690000D01*
X143529000Y-62690000D01*
X143529000Y-62440000D01*
G36*
X143279000Y-62440000D02*
G01*
X143529000Y-62440000D01*
X143529000Y-62690000D01*
X143279000Y-62690000D01*
X143279000Y-62440000D01*
G37*
X143279000Y-62440000D02*
X143529000Y-62440000D01*
X143529000Y-62690000D01*
X143279000Y-62690000D01*
X143279000Y-62440000D01*
G36*
X142029000Y-62440000D02*
G01*
X142279000Y-62440000D01*
X142279000Y-62690000D01*
X142029000Y-62690000D01*
X142029000Y-62440000D01*
G37*
X142029000Y-62440000D02*
X142279000Y-62440000D01*
X142279000Y-62690000D01*
X142029000Y-62690000D01*
X142029000Y-62440000D01*
G36*
X141779000Y-62440000D02*
G01*
X142029000Y-62440000D01*
X142029000Y-62690000D01*
X141779000Y-62690000D01*
X141779000Y-62440000D01*
G37*
X141779000Y-62440000D02*
X142029000Y-62440000D01*
X142029000Y-62690000D01*
X141779000Y-62690000D01*
X141779000Y-62440000D01*
G36*
X141529000Y-62440000D02*
G01*
X141779000Y-62440000D01*
X141779000Y-62690000D01*
X141529000Y-62690000D01*
X141529000Y-62440000D01*
G37*
X141529000Y-62440000D02*
X141779000Y-62440000D01*
X141779000Y-62690000D01*
X141529000Y-62690000D01*
X141529000Y-62440000D01*
G36*
X141279000Y-62440000D02*
G01*
X141529000Y-62440000D01*
X141529000Y-62690000D01*
X141279000Y-62690000D01*
X141279000Y-62440000D01*
G37*
X141279000Y-62440000D02*
X141529000Y-62440000D01*
X141529000Y-62690000D01*
X141279000Y-62690000D01*
X141279000Y-62440000D01*
G36*
X141029000Y-62440000D02*
G01*
X141279000Y-62440000D01*
X141279000Y-62690000D01*
X141029000Y-62690000D01*
X141029000Y-62440000D01*
G37*
X141029000Y-62440000D02*
X141279000Y-62440000D01*
X141279000Y-62690000D01*
X141029000Y-62690000D01*
X141029000Y-62440000D01*
G36*
X140779000Y-62440000D02*
G01*
X141029000Y-62440000D01*
X141029000Y-62690000D01*
X140779000Y-62690000D01*
X140779000Y-62440000D01*
G37*
X140779000Y-62440000D02*
X141029000Y-62440000D01*
X141029000Y-62690000D01*
X140779000Y-62690000D01*
X140779000Y-62440000D01*
G36*
X139029000Y-62440000D02*
G01*
X139279000Y-62440000D01*
X139279000Y-62690000D01*
X139029000Y-62690000D01*
X139029000Y-62440000D01*
G37*
X139029000Y-62440000D02*
X139279000Y-62440000D01*
X139279000Y-62690000D01*
X139029000Y-62690000D01*
X139029000Y-62440000D01*
G36*
X138779000Y-62440000D02*
G01*
X139029000Y-62440000D01*
X139029000Y-62690000D01*
X138779000Y-62690000D01*
X138779000Y-62440000D01*
G37*
X138779000Y-62440000D02*
X139029000Y-62440000D01*
X139029000Y-62690000D01*
X138779000Y-62690000D01*
X138779000Y-62440000D01*
G36*
X138529000Y-62440000D02*
G01*
X138779000Y-62440000D01*
X138779000Y-62690000D01*
X138529000Y-62690000D01*
X138529000Y-62440000D01*
G37*
X138529000Y-62440000D02*
X138779000Y-62440000D01*
X138779000Y-62690000D01*
X138529000Y-62690000D01*
X138529000Y-62440000D01*
G36*
X138279000Y-62440000D02*
G01*
X138529000Y-62440000D01*
X138529000Y-62690000D01*
X138279000Y-62690000D01*
X138279000Y-62440000D01*
G37*
X138279000Y-62440000D02*
X138529000Y-62440000D01*
X138529000Y-62690000D01*
X138279000Y-62690000D01*
X138279000Y-62440000D01*
G36*
X138029000Y-62440000D02*
G01*
X138279000Y-62440000D01*
X138279000Y-62690000D01*
X138029000Y-62690000D01*
X138029000Y-62440000D01*
G37*
X138029000Y-62440000D02*
X138279000Y-62440000D01*
X138279000Y-62690000D01*
X138029000Y-62690000D01*
X138029000Y-62440000D01*
G36*
X137779000Y-62440000D02*
G01*
X138029000Y-62440000D01*
X138029000Y-62690000D01*
X137779000Y-62690000D01*
X137779000Y-62440000D01*
G37*
X137779000Y-62440000D02*
X138029000Y-62440000D01*
X138029000Y-62690000D01*
X137779000Y-62690000D01*
X137779000Y-62440000D01*
G36*
X137529000Y-62440000D02*
G01*
X137779000Y-62440000D01*
X137779000Y-62690000D01*
X137529000Y-62690000D01*
X137529000Y-62440000D01*
G37*
X137529000Y-62440000D02*
X137779000Y-62440000D01*
X137779000Y-62690000D01*
X137529000Y-62690000D01*
X137529000Y-62440000D01*
G36*
X137279000Y-62440000D02*
G01*
X137529000Y-62440000D01*
X137529000Y-62690000D01*
X137279000Y-62690000D01*
X137279000Y-62440000D01*
G37*
X137279000Y-62440000D02*
X137529000Y-62440000D01*
X137529000Y-62690000D01*
X137279000Y-62690000D01*
X137279000Y-62440000D01*
G36*
X159029000Y-62190000D02*
G01*
X159279000Y-62190000D01*
X159279000Y-62440000D01*
X159029000Y-62440000D01*
X159029000Y-62190000D01*
G37*
X159029000Y-62190000D02*
X159279000Y-62190000D01*
X159279000Y-62440000D01*
X159029000Y-62440000D01*
X159029000Y-62190000D01*
G36*
X158779000Y-62190000D02*
G01*
X159029000Y-62190000D01*
X159029000Y-62440000D01*
X158779000Y-62440000D01*
X158779000Y-62190000D01*
G37*
X158779000Y-62190000D02*
X159029000Y-62190000D01*
X159029000Y-62440000D01*
X158779000Y-62440000D01*
X158779000Y-62190000D01*
G36*
X157029000Y-62190000D02*
G01*
X157279000Y-62190000D01*
X157279000Y-62440000D01*
X157029000Y-62440000D01*
X157029000Y-62190000D01*
G37*
X157029000Y-62190000D02*
X157279000Y-62190000D01*
X157279000Y-62440000D01*
X157029000Y-62440000D01*
X157029000Y-62190000D01*
G36*
X156779000Y-62190000D02*
G01*
X157029000Y-62190000D01*
X157029000Y-62440000D01*
X156779000Y-62440000D01*
X156779000Y-62190000D01*
G37*
X156779000Y-62190000D02*
X157029000Y-62190000D01*
X157029000Y-62440000D01*
X156779000Y-62440000D01*
X156779000Y-62190000D01*
G36*
X156529000Y-62190000D02*
G01*
X156779000Y-62190000D01*
X156779000Y-62440000D01*
X156529000Y-62440000D01*
X156529000Y-62190000D01*
G37*
X156529000Y-62190000D02*
X156779000Y-62190000D01*
X156779000Y-62440000D01*
X156529000Y-62440000D01*
X156529000Y-62190000D01*
G36*
X156279000Y-62190000D02*
G01*
X156529000Y-62190000D01*
X156529000Y-62440000D01*
X156279000Y-62440000D01*
X156279000Y-62190000D01*
G37*
X156279000Y-62190000D02*
X156529000Y-62190000D01*
X156529000Y-62440000D01*
X156279000Y-62440000D01*
X156279000Y-62190000D01*
G36*
X156029000Y-62190000D02*
G01*
X156279000Y-62190000D01*
X156279000Y-62440000D01*
X156029000Y-62440000D01*
X156029000Y-62190000D01*
G37*
X156029000Y-62190000D02*
X156279000Y-62190000D01*
X156279000Y-62440000D01*
X156029000Y-62440000D01*
X156029000Y-62190000D01*
G36*
X155779000Y-62190000D02*
G01*
X156029000Y-62190000D01*
X156029000Y-62440000D01*
X155779000Y-62440000D01*
X155779000Y-62190000D01*
G37*
X155779000Y-62190000D02*
X156029000Y-62190000D01*
X156029000Y-62440000D01*
X155779000Y-62440000D01*
X155779000Y-62190000D01*
G36*
X154529000Y-62190000D02*
G01*
X154779000Y-62190000D01*
X154779000Y-62440000D01*
X154529000Y-62440000D01*
X154529000Y-62190000D01*
G37*
X154529000Y-62190000D02*
X154779000Y-62190000D01*
X154779000Y-62440000D01*
X154529000Y-62440000D01*
X154529000Y-62190000D01*
G36*
X154279000Y-62190000D02*
G01*
X154529000Y-62190000D01*
X154529000Y-62440000D01*
X154279000Y-62440000D01*
X154279000Y-62190000D01*
G37*
X154279000Y-62190000D02*
X154529000Y-62190000D01*
X154529000Y-62440000D01*
X154279000Y-62440000D01*
X154279000Y-62190000D01*
G36*
X154029000Y-62190000D02*
G01*
X154279000Y-62190000D01*
X154279000Y-62440000D01*
X154029000Y-62440000D01*
X154029000Y-62190000D01*
G37*
X154029000Y-62190000D02*
X154279000Y-62190000D01*
X154279000Y-62440000D01*
X154029000Y-62440000D01*
X154029000Y-62190000D01*
G36*
X153779000Y-62190000D02*
G01*
X154029000Y-62190000D01*
X154029000Y-62440000D01*
X153779000Y-62440000D01*
X153779000Y-62190000D01*
G37*
X153779000Y-62190000D02*
X154029000Y-62190000D01*
X154029000Y-62440000D01*
X153779000Y-62440000D01*
X153779000Y-62190000D01*
G36*
X153529000Y-62190000D02*
G01*
X153779000Y-62190000D01*
X153779000Y-62440000D01*
X153529000Y-62440000D01*
X153529000Y-62190000D01*
G37*
X153529000Y-62190000D02*
X153779000Y-62190000D01*
X153779000Y-62440000D01*
X153529000Y-62440000D01*
X153529000Y-62190000D01*
G36*
X153279000Y-62190000D02*
G01*
X153529000Y-62190000D01*
X153529000Y-62440000D01*
X153279000Y-62440000D01*
X153279000Y-62190000D01*
G37*
X153279000Y-62190000D02*
X153529000Y-62190000D01*
X153529000Y-62440000D01*
X153279000Y-62440000D01*
X153279000Y-62190000D01*
G36*
X153029000Y-62190000D02*
G01*
X153279000Y-62190000D01*
X153279000Y-62440000D01*
X153029000Y-62440000D01*
X153029000Y-62190000D01*
G37*
X153029000Y-62190000D02*
X153279000Y-62190000D01*
X153279000Y-62440000D01*
X153029000Y-62440000D01*
X153029000Y-62190000D01*
G36*
X152779000Y-62190000D02*
G01*
X153029000Y-62190000D01*
X153029000Y-62440000D01*
X152779000Y-62440000D01*
X152779000Y-62190000D01*
G37*
X152779000Y-62190000D02*
X153029000Y-62190000D01*
X153029000Y-62440000D01*
X152779000Y-62440000D01*
X152779000Y-62190000D01*
G36*
X151529000Y-62190000D02*
G01*
X151779000Y-62190000D01*
X151779000Y-62440000D01*
X151529000Y-62440000D01*
X151529000Y-62190000D01*
G37*
X151529000Y-62190000D02*
X151779000Y-62190000D01*
X151779000Y-62440000D01*
X151529000Y-62440000D01*
X151529000Y-62190000D01*
G36*
X151279000Y-62190000D02*
G01*
X151529000Y-62190000D01*
X151529000Y-62440000D01*
X151279000Y-62440000D01*
X151279000Y-62190000D01*
G37*
X151279000Y-62190000D02*
X151529000Y-62190000D01*
X151529000Y-62440000D01*
X151279000Y-62440000D01*
X151279000Y-62190000D01*
G36*
X151029000Y-62190000D02*
G01*
X151279000Y-62190000D01*
X151279000Y-62440000D01*
X151029000Y-62440000D01*
X151029000Y-62190000D01*
G37*
X151029000Y-62190000D02*
X151279000Y-62190000D01*
X151279000Y-62440000D01*
X151029000Y-62440000D01*
X151029000Y-62190000D01*
G36*
X150779000Y-62190000D02*
G01*
X151029000Y-62190000D01*
X151029000Y-62440000D01*
X150779000Y-62440000D01*
X150779000Y-62190000D01*
G37*
X150779000Y-62190000D02*
X151029000Y-62190000D01*
X151029000Y-62440000D01*
X150779000Y-62440000D01*
X150779000Y-62190000D01*
G36*
X148529000Y-62190000D02*
G01*
X148779000Y-62190000D01*
X148779000Y-62440000D01*
X148529000Y-62440000D01*
X148529000Y-62190000D01*
G37*
X148529000Y-62190000D02*
X148779000Y-62190000D01*
X148779000Y-62440000D01*
X148529000Y-62440000D01*
X148529000Y-62190000D01*
G36*
X148279000Y-62190000D02*
G01*
X148529000Y-62190000D01*
X148529000Y-62440000D01*
X148279000Y-62440000D01*
X148279000Y-62190000D01*
G37*
X148279000Y-62190000D02*
X148529000Y-62190000D01*
X148529000Y-62440000D01*
X148279000Y-62440000D01*
X148279000Y-62190000D01*
G36*
X148029000Y-62190000D02*
G01*
X148279000Y-62190000D01*
X148279000Y-62440000D01*
X148029000Y-62440000D01*
X148029000Y-62190000D01*
G37*
X148029000Y-62190000D02*
X148279000Y-62190000D01*
X148279000Y-62440000D01*
X148029000Y-62440000D01*
X148029000Y-62190000D01*
G36*
X147779000Y-62190000D02*
G01*
X148029000Y-62190000D01*
X148029000Y-62440000D01*
X147779000Y-62440000D01*
X147779000Y-62190000D01*
G37*
X147779000Y-62190000D02*
X148029000Y-62190000D01*
X148029000Y-62440000D01*
X147779000Y-62440000D01*
X147779000Y-62190000D01*
G36*
X147529000Y-62190000D02*
G01*
X147779000Y-62190000D01*
X147779000Y-62440000D01*
X147529000Y-62440000D01*
X147529000Y-62190000D01*
G37*
X147529000Y-62190000D02*
X147779000Y-62190000D01*
X147779000Y-62440000D01*
X147529000Y-62440000D01*
X147529000Y-62190000D01*
G36*
X147279000Y-62190000D02*
G01*
X147529000Y-62190000D01*
X147529000Y-62440000D01*
X147279000Y-62440000D01*
X147279000Y-62190000D01*
G37*
X147279000Y-62190000D02*
X147529000Y-62190000D01*
X147529000Y-62440000D01*
X147279000Y-62440000D01*
X147279000Y-62190000D01*
G36*
X145529000Y-62190000D02*
G01*
X145779000Y-62190000D01*
X145779000Y-62440000D01*
X145529000Y-62440000D01*
X145529000Y-62190000D01*
G37*
X145529000Y-62190000D02*
X145779000Y-62190000D01*
X145779000Y-62440000D01*
X145529000Y-62440000D01*
X145529000Y-62190000D01*
G36*
X145279000Y-62190000D02*
G01*
X145529000Y-62190000D01*
X145529000Y-62440000D01*
X145279000Y-62440000D01*
X145279000Y-62190000D01*
G37*
X145279000Y-62190000D02*
X145529000Y-62190000D01*
X145529000Y-62440000D01*
X145279000Y-62440000D01*
X145279000Y-62190000D01*
G36*
X143529000Y-62190000D02*
G01*
X143779000Y-62190000D01*
X143779000Y-62440000D01*
X143529000Y-62440000D01*
X143529000Y-62190000D01*
G37*
X143529000Y-62190000D02*
X143779000Y-62190000D01*
X143779000Y-62440000D01*
X143529000Y-62440000D01*
X143529000Y-62190000D01*
G36*
X143279000Y-62190000D02*
G01*
X143529000Y-62190000D01*
X143529000Y-62440000D01*
X143279000Y-62440000D01*
X143279000Y-62190000D01*
G37*
X143279000Y-62190000D02*
X143529000Y-62190000D01*
X143529000Y-62440000D01*
X143279000Y-62440000D01*
X143279000Y-62190000D01*
G36*
X142029000Y-62190000D02*
G01*
X142279000Y-62190000D01*
X142279000Y-62440000D01*
X142029000Y-62440000D01*
X142029000Y-62190000D01*
G37*
X142029000Y-62190000D02*
X142279000Y-62190000D01*
X142279000Y-62440000D01*
X142029000Y-62440000D01*
X142029000Y-62190000D01*
G36*
X141779000Y-62190000D02*
G01*
X142029000Y-62190000D01*
X142029000Y-62440000D01*
X141779000Y-62440000D01*
X141779000Y-62190000D01*
G37*
X141779000Y-62190000D02*
X142029000Y-62190000D01*
X142029000Y-62440000D01*
X141779000Y-62440000D01*
X141779000Y-62190000D01*
G36*
X141529000Y-62190000D02*
G01*
X141779000Y-62190000D01*
X141779000Y-62440000D01*
X141529000Y-62440000D01*
X141529000Y-62190000D01*
G37*
X141529000Y-62190000D02*
X141779000Y-62190000D01*
X141779000Y-62440000D01*
X141529000Y-62440000D01*
X141529000Y-62190000D01*
G36*
X141279000Y-62190000D02*
G01*
X141529000Y-62190000D01*
X141529000Y-62440000D01*
X141279000Y-62440000D01*
X141279000Y-62190000D01*
G37*
X141279000Y-62190000D02*
X141529000Y-62190000D01*
X141529000Y-62440000D01*
X141279000Y-62440000D01*
X141279000Y-62190000D01*
G36*
X141029000Y-62190000D02*
G01*
X141279000Y-62190000D01*
X141279000Y-62440000D01*
X141029000Y-62440000D01*
X141029000Y-62190000D01*
G37*
X141029000Y-62190000D02*
X141279000Y-62190000D01*
X141279000Y-62440000D01*
X141029000Y-62440000D01*
X141029000Y-62190000D01*
G36*
X140779000Y-62190000D02*
G01*
X141029000Y-62190000D01*
X141029000Y-62440000D01*
X140779000Y-62440000D01*
X140779000Y-62190000D01*
G37*
X140779000Y-62190000D02*
X141029000Y-62190000D01*
X141029000Y-62440000D01*
X140779000Y-62440000D01*
X140779000Y-62190000D01*
G36*
X139029000Y-62190000D02*
G01*
X139279000Y-62190000D01*
X139279000Y-62440000D01*
X139029000Y-62440000D01*
X139029000Y-62190000D01*
G37*
X139029000Y-62190000D02*
X139279000Y-62190000D01*
X139279000Y-62440000D01*
X139029000Y-62440000D01*
X139029000Y-62190000D01*
G36*
X138779000Y-62190000D02*
G01*
X139029000Y-62190000D01*
X139029000Y-62440000D01*
X138779000Y-62440000D01*
X138779000Y-62190000D01*
G37*
X138779000Y-62190000D02*
X139029000Y-62190000D01*
X139029000Y-62440000D01*
X138779000Y-62440000D01*
X138779000Y-62190000D01*
G36*
X138529000Y-62190000D02*
G01*
X138779000Y-62190000D01*
X138779000Y-62440000D01*
X138529000Y-62440000D01*
X138529000Y-62190000D01*
G37*
X138529000Y-62190000D02*
X138779000Y-62190000D01*
X138779000Y-62440000D01*
X138529000Y-62440000D01*
X138529000Y-62190000D01*
G36*
X138279000Y-62190000D02*
G01*
X138529000Y-62190000D01*
X138529000Y-62440000D01*
X138279000Y-62440000D01*
X138279000Y-62190000D01*
G37*
X138279000Y-62190000D02*
X138529000Y-62190000D01*
X138529000Y-62440000D01*
X138279000Y-62440000D01*
X138279000Y-62190000D01*
G36*
X138029000Y-62190000D02*
G01*
X138279000Y-62190000D01*
X138279000Y-62440000D01*
X138029000Y-62440000D01*
X138029000Y-62190000D01*
G37*
X138029000Y-62190000D02*
X138279000Y-62190000D01*
X138279000Y-62440000D01*
X138029000Y-62440000D01*
X138029000Y-62190000D01*
G36*
X137779000Y-62190000D02*
G01*
X138029000Y-62190000D01*
X138029000Y-62440000D01*
X137779000Y-62440000D01*
X137779000Y-62190000D01*
G37*
X137779000Y-62190000D02*
X138029000Y-62190000D01*
X138029000Y-62440000D01*
X137779000Y-62440000D01*
X137779000Y-62190000D01*
G36*
X137529000Y-62190000D02*
G01*
X137779000Y-62190000D01*
X137779000Y-62440000D01*
X137529000Y-62440000D01*
X137529000Y-62190000D01*
G37*
X137529000Y-62190000D02*
X137779000Y-62190000D01*
X137779000Y-62440000D01*
X137529000Y-62440000D01*
X137529000Y-62190000D01*
G36*
X137279000Y-62190000D02*
G01*
X137529000Y-62190000D01*
X137529000Y-62440000D01*
X137279000Y-62440000D01*
X137279000Y-62190000D01*
G37*
X137279000Y-62190000D02*
X137529000Y-62190000D01*
X137529000Y-62440000D01*
X137279000Y-62440000D01*
X137279000Y-62190000D01*
G36*
X159029000Y-61940000D02*
G01*
X159279000Y-61940000D01*
X159279000Y-62190000D01*
X159029000Y-62190000D01*
X159029000Y-61940000D01*
G37*
X159029000Y-61940000D02*
X159279000Y-61940000D01*
X159279000Y-62190000D01*
X159029000Y-62190000D01*
X159029000Y-61940000D01*
G36*
X158779000Y-61940000D02*
G01*
X159029000Y-61940000D01*
X159029000Y-62190000D01*
X158779000Y-62190000D01*
X158779000Y-61940000D01*
G37*
X158779000Y-61940000D02*
X159029000Y-61940000D01*
X159029000Y-62190000D01*
X158779000Y-62190000D01*
X158779000Y-61940000D01*
G36*
X156529000Y-61940000D02*
G01*
X156779000Y-61940000D01*
X156779000Y-62190000D01*
X156529000Y-62190000D01*
X156529000Y-61940000D01*
G37*
X156529000Y-61940000D02*
X156779000Y-61940000D01*
X156779000Y-62190000D01*
X156529000Y-62190000D01*
X156529000Y-61940000D01*
G36*
X156279000Y-61940000D02*
G01*
X156529000Y-61940000D01*
X156529000Y-62190000D01*
X156279000Y-62190000D01*
X156279000Y-61940000D01*
G37*
X156279000Y-61940000D02*
X156529000Y-61940000D01*
X156529000Y-62190000D01*
X156279000Y-62190000D01*
X156279000Y-61940000D01*
G36*
X154529000Y-61940000D02*
G01*
X154779000Y-61940000D01*
X154779000Y-62190000D01*
X154529000Y-62190000D01*
X154529000Y-61940000D01*
G37*
X154529000Y-61940000D02*
X154779000Y-61940000D01*
X154779000Y-62190000D01*
X154529000Y-62190000D01*
X154529000Y-61940000D01*
G36*
X154279000Y-61940000D02*
G01*
X154529000Y-61940000D01*
X154529000Y-62190000D01*
X154279000Y-62190000D01*
X154279000Y-61940000D01*
G37*
X154279000Y-61940000D02*
X154529000Y-61940000D01*
X154529000Y-62190000D01*
X154279000Y-62190000D01*
X154279000Y-61940000D01*
G36*
X152529000Y-61940000D02*
G01*
X152779000Y-61940000D01*
X152779000Y-62190000D01*
X152529000Y-62190000D01*
X152529000Y-61940000D01*
G37*
X152529000Y-61940000D02*
X152779000Y-61940000D01*
X152779000Y-62190000D01*
X152529000Y-62190000D01*
X152529000Y-61940000D01*
G36*
X152279000Y-61940000D02*
G01*
X152529000Y-61940000D01*
X152529000Y-62190000D01*
X152279000Y-62190000D01*
X152279000Y-61940000D01*
G37*
X152279000Y-61940000D02*
X152529000Y-61940000D01*
X152529000Y-62190000D01*
X152279000Y-62190000D01*
X152279000Y-61940000D01*
G36*
X150529000Y-61940000D02*
G01*
X150779000Y-61940000D01*
X150779000Y-62190000D01*
X150529000Y-62190000D01*
X150529000Y-61940000D01*
G37*
X150529000Y-61940000D02*
X150779000Y-61940000D01*
X150779000Y-62190000D01*
X150529000Y-62190000D01*
X150529000Y-61940000D01*
G36*
X150279000Y-61940000D02*
G01*
X150529000Y-61940000D01*
X150529000Y-62190000D01*
X150279000Y-62190000D01*
X150279000Y-61940000D01*
G37*
X150279000Y-61940000D02*
X150529000Y-61940000D01*
X150529000Y-62190000D01*
X150279000Y-62190000D01*
X150279000Y-61940000D01*
G36*
X147029000Y-61940000D02*
G01*
X147279000Y-61940000D01*
X147279000Y-62190000D01*
X147029000Y-62190000D01*
X147029000Y-61940000D01*
G37*
X147029000Y-61940000D02*
X147279000Y-61940000D01*
X147279000Y-62190000D01*
X147029000Y-62190000D01*
X147029000Y-61940000D01*
G36*
X146779000Y-61940000D02*
G01*
X147029000Y-61940000D01*
X147029000Y-62190000D01*
X146779000Y-62190000D01*
X146779000Y-61940000D01*
G37*
X146779000Y-61940000D02*
X147029000Y-61940000D01*
X147029000Y-62190000D01*
X146779000Y-62190000D01*
X146779000Y-61940000D01*
G36*
X145529000Y-61940000D02*
G01*
X145779000Y-61940000D01*
X145779000Y-62190000D01*
X145529000Y-62190000D01*
X145529000Y-61940000D01*
G37*
X145529000Y-61940000D02*
X145779000Y-61940000D01*
X145779000Y-62190000D01*
X145529000Y-62190000D01*
X145529000Y-61940000D01*
G36*
X145279000Y-61940000D02*
G01*
X145529000Y-61940000D01*
X145529000Y-62190000D01*
X145279000Y-62190000D01*
X145279000Y-61940000D01*
G37*
X145279000Y-61940000D02*
X145529000Y-61940000D01*
X145529000Y-62190000D01*
X145279000Y-62190000D01*
X145279000Y-61940000D01*
G36*
X143529000Y-61940000D02*
G01*
X143779000Y-61940000D01*
X143779000Y-62190000D01*
X143529000Y-62190000D01*
X143529000Y-61940000D01*
G37*
X143529000Y-61940000D02*
X143779000Y-61940000D01*
X143779000Y-62190000D01*
X143529000Y-62190000D01*
X143529000Y-61940000D01*
G36*
X143279000Y-61940000D02*
G01*
X143529000Y-61940000D01*
X143529000Y-62190000D01*
X143279000Y-62190000D01*
X143279000Y-61940000D01*
G37*
X143279000Y-61940000D02*
X143529000Y-61940000D01*
X143529000Y-62190000D01*
X143279000Y-62190000D01*
X143279000Y-61940000D01*
G36*
X141529000Y-61940000D02*
G01*
X141779000Y-61940000D01*
X141779000Y-62190000D01*
X141529000Y-62190000D01*
X141529000Y-61940000D01*
G37*
X141529000Y-61940000D02*
X141779000Y-61940000D01*
X141779000Y-62190000D01*
X141529000Y-62190000D01*
X141529000Y-61940000D01*
G36*
X141279000Y-61940000D02*
G01*
X141529000Y-61940000D01*
X141529000Y-62190000D01*
X141279000Y-62190000D01*
X141279000Y-61940000D01*
G37*
X141279000Y-61940000D02*
X141529000Y-61940000D01*
X141529000Y-62190000D01*
X141279000Y-62190000D01*
X141279000Y-61940000D01*
G36*
X139529000Y-61940000D02*
G01*
X139779000Y-61940000D01*
X139779000Y-62190000D01*
X139529000Y-62190000D01*
X139529000Y-61940000D01*
G37*
X139529000Y-61940000D02*
X139779000Y-61940000D01*
X139779000Y-62190000D01*
X139529000Y-62190000D01*
X139529000Y-61940000D01*
G36*
X139279000Y-61940000D02*
G01*
X139529000Y-61940000D01*
X139529000Y-62190000D01*
X139279000Y-62190000D01*
X139279000Y-61940000D01*
G37*
X139279000Y-61940000D02*
X139529000Y-61940000D01*
X139529000Y-62190000D01*
X139279000Y-62190000D01*
X139279000Y-61940000D01*
G36*
X159029000Y-61690000D02*
G01*
X159279000Y-61690000D01*
X159279000Y-61940000D01*
X159029000Y-61940000D01*
X159029000Y-61690000D01*
G37*
X159029000Y-61690000D02*
X159279000Y-61690000D01*
X159279000Y-61940000D01*
X159029000Y-61940000D01*
X159029000Y-61690000D01*
G36*
X158779000Y-61690000D02*
G01*
X159029000Y-61690000D01*
X159029000Y-61940000D01*
X158779000Y-61940000D01*
X158779000Y-61690000D01*
G37*
X158779000Y-61690000D02*
X159029000Y-61690000D01*
X159029000Y-61940000D01*
X158779000Y-61940000D01*
X158779000Y-61690000D01*
G36*
X156529000Y-61690000D02*
G01*
X156779000Y-61690000D01*
X156779000Y-61940000D01*
X156529000Y-61940000D01*
X156529000Y-61690000D01*
G37*
X156529000Y-61690000D02*
X156779000Y-61690000D01*
X156779000Y-61940000D01*
X156529000Y-61940000D01*
X156529000Y-61690000D01*
G36*
X156279000Y-61690000D02*
G01*
X156529000Y-61690000D01*
X156529000Y-61940000D01*
X156279000Y-61940000D01*
X156279000Y-61690000D01*
G37*
X156279000Y-61690000D02*
X156529000Y-61690000D01*
X156529000Y-61940000D01*
X156279000Y-61940000D01*
X156279000Y-61690000D01*
G36*
X154529000Y-61690000D02*
G01*
X154779000Y-61690000D01*
X154779000Y-61940000D01*
X154529000Y-61940000D01*
X154529000Y-61690000D01*
G37*
X154529000Y-61690000D02*
X154779000Y-61690000D01*
X154779000Y-61940000D01*
X154529000Y-61940000D01*
X154529000Y-61690000D01*
G36*
X154279000Y-61690000D02*
G01*
X154529000Y-61690000D01*
X154529000Y-61940000D01*
X154279000Y-61940000D01*
X154279000Y-61690000D01*
G37*
X154279000Y-61690000D02*
X154529000Y-61690000D01*
X154529000Y-61940000D01*
X154279000Y-61940000D01*
X154279000Y-61690000D01*
G36*
X152529000Y-61690000D02*
G01*
X152779000Y-61690000D01*
X152779000Y-61940000D01*
X152529000Y-61940000D01*
X152529000Y-61690000D01*
G37*
X152529000Y-61690000D02*
X152779000Y-61690000D01*
X152779000Y-61940000D01*
X152529000Y-61940000D01*
X152529000Y-61690000D01*
G36*
X152279000Y-61690000D02*
G01*
X152529000Y-61690000D01*
X152529000Y-61940000D01*
X152279000Y-61940000D01*
X152279000Y-61690000D01*
G37*
X152279000Y-61690000D02*
X152529000Y-61690000D01*
X152529000Y-61940000D01*
X152279000Y-61940000D01*
X152279000Y-61690000D01*
G36*
X150529000Y-61690000D02*
G01*
X150779000Y-61690000D01*
X150779000Y-61940000D01*
X150529000Y-61940000D01*
X150529000Y-61690000D01*
G37*
X150529000Y-61690000D02*
X150779000Y-61690000D01*
X150779000Y-61940000D01*
X150529000Y-61940000D01*
X150529000Y-61690000D01*
G36*
X150279000Y-61690000D02*
G01*
X150529000Y-61690000D01*
X150529000Y-61940000D01*
X150279000Y-61940000D01*
X150279000Y-61690000D01*
G37*
X150279000Y-61690000D02*
X150529000Y-61690000D01*
X150529000Y-61940000D01*
X150279000Y-61940000D01*
X150279000Y-61690000D01*
G36*
X147029000Y-61690000D02*
G01*
X147279000Y-61690000D01*
X147279000Y-61940000D01*
X147029000Y-61940000D01*
X147029000Y-61690000D01*
G37*
X147029000Y-61690000D02*
X147279000Y-61690000D01*
X147279000Y-61940000D01*
X147029000Y-61940000D01*
X147029000Y-61690000D01*
G36*
X146779000Y-61690000D02*
G01*
X147029000Y-61690000D01*
X147029000Y-61940000D01*
X146779000Y-61940000D01*
X146779000Y-61690000D01*
G37*
X146779000Y-61690000D02*
X147029000Y-61690000D01*
X147029000Y-61940000D01*
X146779000Y-61940000D01*
X146779000Y-61690000D01*
G36*
X145529000Y-61690000D02*
G01*
X145779000Y-61690000D01*
X145779000Y-61940000D01*
X145529000Y-61940000D01*
X145529000Y-61690000D01*
G37*
X145529000Y-61690000D02*
X145779000Y-61690000D01*
X145779000Y-61940000D01*
X145529000Y-61940000D01*
X145529000Y-61690000D01*
G36*
X145279000Y-61690000D02*
G01*
X145529000Y-61690000D01*
X145529000Y-61940000D01*
X145279000Y-61940000D01*
X145279000Y-61690000D01*
G37*
X145279000Y-61690000D02*
X145529000Y-61690000D01*
X145529000Y-61940000D01*
X145279000Y-61940000D01*
X145279000Y-61690000D01*
G36*
X143529000Y-61690000D02*
G01*
X143779000Y-61690000D01*
X143779000Y-61940000D01*
X143529000Y-61940000D01*
X143529000Y-61690000D01*
G37*
X143529000Y-61690000D02*
X143779000Y-61690000D01*
X143779000Y-61940000D01*
X143529000Y-61940000D01*
X143529000Y-61690000D01*
G36*
X143279000Y-61690000D02*
G01*
X143529000Y-61690000D01*
X143529000Y-61940000D01*
X143279000Y-61940000D01*
X143279000Y-61690000D01*
G37*
X143279000Y-61690000D02*
X143529000Y-61690000D01*
X143529000Y-61940000D01*
X143279000Y-61940000D01*
X143279000Y-61690000D01*
G36*
X141529000Y-61690000D02*
G01*
X141779000Y-61690000D01*
X141779000Y-61940000D01*
X141529000Y-61940000D01*
X141529000Y-61690000D01*
G37*
X141529000Y-61690000D02*
X141779000Y-61690000D01*
X141779000Y-61940000D01*
X141529000Y-61940000D01*
X141529000Y-61690000D01*
G36*
X141279000Y-61690000D02*
G01*
X141529000Y-61690000D01*
X141529000Y-61940000D01*
X141279000Y-61940000D01*
X141279000Y-61690000D01*
G37*
X141279000Y-61690000D02*
X141529000Y-61690000D01*
X141529000Y-61940000D01*
X141279000Y-61940000D01*
X141279000Y-61690000D01*
G36*
X139529000Y-61690000D02*
G01*
X139779000Y-61690000D01*
X139779000Y-61940000D01*
X139529000Y-61940000D01*
X139529000Y-61690000D01*
G37*
X139529000Y-61690000D02*
X139779000Y-61690000D01*
X139779000Y-61940000D01*
X139529000Y-61940000D01*
X139529000Y-61690000D01*
G36*
X139279000Y-61690000D02*
G01*
X139529000Y-61690000D01*
X139529000Y-61940000D01*
X139279000Y-61940000D01*
X139279000Y-61690000D01*
G37*
X139279000Y-61690000D02*
X139529000Y-61690000D01*
X139529000Y-61940000D01*
X139279000Y-61940000D01*
X139279000Y-61690000D01*
G36*
X159029000Y-61440000D02*
G01*
X159279000Y-61440000D01*
X159279000Y-61690000D01*
X159029000Y-61690000D01*
X159029000Y-61440000D01*
G37*
X159029000Y-61440000D02*
X159279000Y-61440000D01*
X159279000Y-61690000D01*
X159029000Y-61690000D01*
X159029000Y-61440000D01*
G36*
X158779000Y-61440000D02*
G01*
X159029000Y-61440000D01*
X159029000Y-61690000D01*
X158779000Y-61690000D01*
X158779000Y-61440000D01*
G37*
X158779000Y-61440000D02*
X159029000Y-61440000D01*
X159029000Y-61690000D01*
X158779000Y-61690000D01*
X158779000Y-61440000D01*
G36*
X156529000Y-61440000D02*
G01*
X156779000Y-61440000D01*
X156779000Y-61690000D01*
X156529000Y-61690000D01*
X156529000Y-61440000D01*
G37*
X156529000Y-61440000D02*
X156779000Y-61440000D01*
X156779000Y-61690000D01*
X156529000Y-61690000D01*
X156529000Y-61440000D01*
G36*
X156279000Y-61440000D02*
G01*
X156529000Y-61440000D01*
X156529000Y-61690000D01*
X156279000Y-61690000D01*
X156279000Y-61440000D01*
G37*
X156279000Y-61440000D02*
X156529000Y-61440000D01*
X156529000Y-61690000D01*
X156279000Y-61690000D01*
X156279000Y-61440000D01*
G36*
X154529000Y-61440000D02*
G01*
X154779000Y-61440000D01*
X154779000Y-61690000D01*
X154529000Y-61690000D01*
X154529000Y-61440000D01*
G37*
X154529000Y-61440000D02*
X154779000Y-61440000D01*
X154779000Y-61690000D01*
X154529000Y-61690000D01*
X154529000Y-61440000D01*
G36*
X154279000Y-61440000D02*
G01*
X154529000Y-61440000D01*
X154529000Y-61690000D01*
X154279000Y-61690000D01*
X154279000Y-61440000D01*
G37*
X154279000Y-61440000D02*
X154529000Y-61440000D01*
X154529000Y-61690000D01*
X154279000Y-61690000D01*
X154279000Y-61440000D01*
G36*
X154029000Y-61440000D02*
G01*
X154279000Y-61440000D01*
X154279000Y-61690000D01*
X154029000Y-61690000D01*
X154029000Y-61440000D01*
G37*
X154029000Y-61440000D02*
X154279000Y-61440000D01*
X154279000Y-61690000D01*
X154029000Y-61690000D01*
X154029000Y-61440000D01*
G36*
X153779000Y-61440000D02*
G01*
X154029000Y-61440000D01*
X154029000Y-61690000D01*
X153779000Y-61690000D01*
X153779000Y-61440000D01*
G37*
X153779000Y-61440000D02*
X154029000Y-61440000D01*
X154029000Y-61690000D01*
X153779000Y-61690000D01*
X153779000Y-61440000D01*
G36*
X153529000Y-61440000D02*
G01*
X153779000Y-61440000D01*
X153779000Y-61690000D01*
X153529000Y-61690000D01*
X153529000Y-61440000D01*
G37*
X153529000Y-61440000D02*
X153779000Y-61440000D01*
X153779000Y-61690000D01*
X153529000Y-61690000D01*
X153529000Y-61440000D01*
G36*
X153279000Y-61440000D02*
G01*
X153529000Y-61440000D01*
X153529000Y-61690000D01*
X153279000Y-61690000D01*
X153279000Y-61440000D01*
G37*
X153279000Y-61440000D02*
X153529000Y-61440000D01*
X153529000Y-61690000D01*
X153279000Y-61690000D01*
X153279000Y-61440000D01*
G36*
X153029000Y-61440000D02*
G01*
X153279000Y-61440000D01*
X153279000Y-61690000D01*
X153029000Y-61690000D01*
X153029000Y-61440000D01*
G37*
X153029000Y-61440000D02*
X153279000Y-61440000D01*
X153279000Y-61690000D01*
X153029000Y-61690000D01*
X153029000Y-61440000D01*
G36*
X152779000Y-61440000D02*
G01*
X153029000Y-61440000D01*
X153029000Y-61690000D01*
X152779000Y-61690000D01*
X152779000Y-61440000D01*
G37*
X152779000Y-61440000D02*
X153029000Y-61440000D01*
X153029000Y-61690000D01*
X152779000Y-61690000D01*
X152779000Y-61440000D01*
G36*
X150529000Y-61440000D02*
G01*
X150779000Y-61440000D01*
X150779000Y-61690000D01*
X150529000Y-61690000D01*
X150529000Y-61440000D01*
G37*
X150529000Y-61440000D02*
X150779000Y-61440000D01*
X150779000Y-61690000D01*
X150529000Y-61690000D01*
X150529000Y-61440000D01*
G36*
X150279000Y-61440000D02*
G01*
X150529000Y-61440000D01*
X150529000Y-61690000D01*
X150279000Y-61690000D01*
X150279000Y-61440000D01*
G37*
X150279000Y-61440000D02*
X150529000Y-61440000D01*
X150529000Y-61690000D01*
X150279000Y-61690000D01*
X150279000Y-61440000D01*
G36*
X147029000Y-61440000D02*
G01*
X147279000Y-61440000D01*
X147279000Y-61690000D01*
X147029000Y-61690000D01*
X147029000Y-61440000D01*
G37*
X147029000Y-61440000D02*
X147279000Y-61440000D01*
X147279000Y-61690000D01*
X147029000Y-61690000D01*
X147029000Y-61440000D01*
G36*
X146779000Y-61440000D02*
G01*
X147029000Y-61440000D01*
X147029000Y-61690000D01*
X146779000Y-61690000D01*
X146779000Y-61440000D01*
G37*
X146779000Y-61440000D02*
X147029000Y-61440000D01*
X147029000Y-61690000D01*
X146779000Y-61690000D01*
X146779000Y-61440000D01*
G36*
X145529000Y-61440000D02*
G01*
X145779000Y-61440000D01*
X145779000Y-61690000D01*
X145529000Y-61690000D01*
X145529000Y-61440000D01*
G37*
X145529000Y-61440000D02*
X145779000Y-61440000D01*
X145779000Y-61690000D01*
X145529000Y-61690000D01*
X145529000Y-61440000D01*
G36*
X145279000Y-61440000D02*
G01*
X145529000Y-61440000D01*
X145529000Y-61690000D01*
X145279000Y-61690000D01*
X145279000Y-61440000D01*
G37*
X145279000Y-61440000D02*
X145529000Y-61440000D01*
X145529000Y-61690000D01*
X145279000Y-61690000D01*
X145279000Y-61440000D01*
G36*
X143529000Y-61440000D02*
G01*
X143779000Y-61440000D01*
X143779000Y-61690000D01*
X143529000Y-61690000D01*
X143529000Y-61440000D01*
G37*
X143529000Y-61440000D02*
X143779000Y-61440000D01*
X143779000Y-61690000D01*
X143529000Y-61690000D01*
X143529000Y-61440000D01*
G36*
X143279000Y-61440000D02*
G01*
X143529000Y-61440000D01*
X143529000Y-61690000D01*
X143279000Y-61690000D01*
X143279000Y-61440000D01*
G37*
X143279000Y-61440000D02*
X143529000Y-61440000D01*
X143529000Y-61690000D01*
X143279000Y-61690000D01*
X143279000Y-61440000D01*
G36*
X141529000Y-61440000D02*
G01*
X141779000Y-61440000D01*
X141779000Y-61690000D01*
X141529000Y-61690000D01*
X141529000Y-61440000D01*
G37*
X141529000Y-61440000D02*
X141779000Y-61440000D01*
X141779000Y-61690000D01*
X141529000Y-61690000D01*
X141529000Y-61440000D01*
G36*
X141279000Y-61440000D02*
G01*
X141529000Y-61440000D01*
X141529000Y-61690000D01*
X141279000Y-61690000D01*
X141279000Y-61440000D01*
G37*
X141279000Y-61440000D02*
X141529000Y-61440000D01*
X141529000Y-61690000D01*
X141279000Y-61690000D01*
X141279000Y-61440000D01*
G36*
X139029000Y-61440000D02*
G01*
X139279000Y-61440000D01*
X139279000Y-61690000D01*
X139029000Y-61690000D01*
X139029000Y-61440000D01*
G37*
X139029000Y-61440000D02*
X139279000Y-61440000D01*
X139279000Y-61690000D01*
X139029000Y-61690000D01*
X139029000Y-61440000D01*
G36*
X138779000Y-61440000D02*
G01*
X139029000Y-61440000D01*
X139029000Y-61690000D01*
X138779000Y-61690000D01*
X138779000Y-61440000D01*
G37*
X138779000Y-61440000D02*
X139029000Y-61440000D01*
X139029000Y-61690000D01*
X138779000Y-61690000D01*
X138779000Y-61440000D01*
G36*
X138529000Y-61440000D02*
G01*
X138779000Y-61440000D01*
X138779000Y-61690000D01*
X138529000Y-61690000D01*
X138529000Y-61440000D01*
G37*
X138529000Y-61440000D02*
X138779000Y-61440000D01*
X138779000Y-61690000D01*
X138529000Y-61690000D01*
X138529000Y-61440000D01*
G36*
X138279000Y-61440000D02*
G01*
X138529000Y-61440000D01*
X138529000Y-61690000D01*
X138279000Y-61690000D01*
X138279000Y-61440000D01*
G37*
X138279000Y-61440000D02*
X138529000Y-61440000D01*
X138529000Y-61690000D01*
X138279000Y-61690000D01*
X138279000Y-61440000D01*
G36*
X138029000Y-61440000D02*
G01*
X138279000Y-61440000D01*
X138279000Y-61690000D01*
X138029000Y-61690000D01*
X138029000Y-61440000D01*
G37*
X138029000Y-61440000D02*
X138279000Y-61440000D01*
X138279000Y-61690000D01*
X138029000Y-61690000D01*
X138029000Y-61440000D01*
G36*
X137779000Y-61440000D02*
G01*
X138029000Y-61440000D01*
X138029000Y-61690000D01*
X137779000Y-61690000D01*
X137779000Y-61440000D01*
G37*
X137779000Y-61440000D02*
X138029000Y-61440000D01*
X138029000Y-61690000D01*
X137779000Y-61690000D01*
X137779000Y-61440000D01*
G36*
X159029000Y-61190000D02*
G01*
X159279000Y-61190000D01*
X159279000Y-61440000D01*
X159029000Y-61440000D01*
X159029000Y-61190000D01*
G37*
X159029000Y-61190000D02*
X159279000Y-61190000D01*
X159279000Y-61440000D01*
X159029000Y-61440000D01*
X159029000Y-61190000D01*
G36*
X158779000Y-61190000D02*
G01*
X159029000Y-61190000D01*
X159029000Y-61440000D01*
X158779000Y-61440000D01*
X158779000Y-61190000D01*
G37*
X158779000Y-61190000D02*
X159029000Y-61190000D01*
X159029000Y-61440000D01*
X158779000Y-61440000D01*
X158779000Y-61190000D01*
G36*
X156529000Y-61190000D02*
G01*
X156779000Y-61190000D01*
X156779000Y-61440000D01*
X156529000Y-61440000D01*
X156529000Y-61190000D01*
G37*
X156529000Y-61190000D02*
X156779000Y-61190000D01*
X156779000Y-61440000D01*
X156529000Y-61440000D01*
X156529000Y-61190000D01*
G36*
X156279000Y-61190000D02*
G01*
X156529000Y-61190000D01*
X156529000Y-61440000D01*
X156279000Y-61440000D01*
X156279000Y-61190000D01*
G37*
X156279000Y-61190000D02*
X156529000Y-61190000D01*
X156529000Y-61440000D01*
X156279000Y-61440000D01*
X156279000Y-61190000D01*
G36*
X154529000Y-61190000D02*
G01*
X154779000Y-61190000D01*
X154779000Y-61440000D01*
X154529000Y-61440000D01*
X154529000Y-61190000D01*
G37*
X154529000Y-61190000D02*
X154779000Y-61190000D01*
X154779000Y-61440000D01*
X154529000Y-61440000D01*
X154529000Y-61190000D01*
G36*
X154279000Y-61190000D02*
G01*
X154529000Y-61190000D01*
X154529000Y-61440000D01*
X154279000Y-61440000D01*
X154279000Y-61190000D01*
G37*
X154279000Y-61190000D02*
X154529000Y-61190000D01*
X154529000Y-61440000D01*
X154279000Y-61440000D01*
X154279000Y-61190000D01*
G36*
X154029000Y-61190000D02*
G01*
X154279000Y-61190000D01*
X154279000Y-61440000D01*
X154029000Y-61440000D01*
X154029000Y-61190000D01*
G37*
X154029000Y-61190000D02*
X154279000Y-61190000D01*
X154279000Y-61440000D01*
X154029000Y-61440000D01*
X154029000Y-61190000D01*
G36*
X153779000Y-61190000D02*
G01*
X154029000Y-61190000D01*
X154029000Y-61440000D01*
X153779000Y-61440000D01*
X153779000Y-61190000D01*
G37*
X153779000Y-61190000D02*
X154029000Y-61190000D01*
X154029000Y-61440000D01*
X153779000Y-61440000D01*
X153779000Y-61190000D01*
G36*
X153529000Y-61190000D02*
G01*
X153779000Y-61190000D01*
X153779000Y-61440000D01*
X153529000Y-61440000D01*
X153529000Y-61190000D01*
G37*
X153529000Y-61190000D02*
X153779000Y-61190000D01*
X153779000Y-61440000D01*
X153529000Y-61440000D01*
X153529000Y-61190000D01*
G36*
X153279000Y-61190000D02*
G01*
X153529000Y-61190000D01*
X153529000Y-61440000D01*
X153279000Y-61440000D01*
X153279000Y-61190000D01*
G37*
X153279000Y-61190000D02*
X153529000Y-61190000D01*
X153529000Y-61440000D01*
X153279000Y-61440000D01*
X153279000Y-61190000D01*
G36*
X153029000Y-61190000D02*
G01*
X153279000Y-61190000D01*
X153279000Y-61440000D01*
X153029000Y-61440000D01*
X153029000Y-61190000D01*
G37*
X153029000Y-61190000D02*
X153279000Y-61190000D01*
X153279000Y-61440000D01*
X153029000Y-61440000D01*
X153029000Y-61190000D01*
G36*
X152779000Y-61190000D02*
G01*
X153029000Y-61190000D01*
X153029000Y-61440000D01*
X152779000Y-61440000D01*
X152779000Y-61190000D01*
G37*
X152779000Y-61190000D02*
X153029000Y-61190000D01*
X153029000Y-61440000D01*
X152779000Y-61440000D01*
X152779000Y-61190000D01*
G36*
X150529000Y-61190000D02*
G01*
X150779000Y-61190000D01*
X150779000Y-61440000D01*
X150529000Y-61440000D01*
X150529000Y-61190000D01*
G37*
X150529000Y-61190000D02*
X150779000Y-61190000D01*
X150779000Y-61440000D01*
X150529000Y-61440000D01*
X150529000Y-61190000D01*
G36*
X150279000Y-61190000D02*
G01*
X150529000Y-61190000D01*
X150529000Y-61440000D01*
X150279000Y-61440000D01*
X150279000Y-61190000D01*
G37*
X150279000Y-61190000D02*
X150529000Y-61190000D01*
X150529000Y-61440000D01*
X150279000Y-61440000D01*
X150279000Y-61190000D01*
G36*
X147029000Y-61190000D02*
G01*
X147279000Y-61190000D01*
X147279000Y-61440000D01*
X147029000Y-61440000D01*
X147029000Y-61190000D01*
G37*
X147029000Y-61190000D02*
X147279000Y-61190000D01*
X147279000Y-61440000D01*
X147029000Y-61440000D01*
X147029000Y-61190000D01*
G36*
X146779000Y-61190000D02*
G01*
X147029000Y-61190000D01*
X147029000Y-61440000D01*
X146779000Y-61440000D01*
X146779000Y-61190000D01*
G37*
X146779000Y-61190000D02*
X147029000Y-61190000D01*
X147029000Y-61440000D01*
X146779000Y-61440000D01*
X146779000Y-61190000D01*
G36*
X145529000Y-61190000D02*
G01*
X145779000Y-61190000D01*
X145779000Y-61440000D01*
X145529000Y-61440000D01*
X145529000Y-61190000D01*
G37*
X145529000Y-61190000D02*
X145779000Y-61190000D01*
X145779000Y-61440000D01*
X145529000Y-61440000D01*
X145529000Y-61190000D01*
G36*
X145279000Y-61190000D02*
G01*
X145529000Y-61190000D01*
X145529000Y-61440000D01*
X145279000Y-61440000D01*
X145279000Y-61190000D01*
G37*
X145279000Y-61190000D02*
X145529000Y-61190000D01*
X145529000Y-61440000D01*
X145279000Y-61440000D01*
X145279000Y-61190000D01*
G36*
X143529000Y-61190000D02*
G01*
X143779000Y-61190000D01*
X143779000Y-61440000D01*
X143529000Y-61440000D01*
X143529000Y-61190000D01*
G37*
X143529000Y-61190000D02*
X143779000Y-61190000D01*
X143779000Y-61440000D01*
X143529000Y-61440000D01*
X143529000Y-61190000D01*
G36*
X143279000Y-61190000D02*
G01*
X143529000Y-61190000D01*
X143529000Y-61440000D01*
X143279000Y-61440000D01*
X143279000Y-61190000D01*
G37*
X143279000Y-61190000D02*
X143529000Y-61190000D01*
X143529000Y-61440000D01*
X143279000Y-61440000D01*
X143279000Y-61190000D01*
G36*
X141529000Y-61190000D02*
G01*
X141779000Y-61190000D01*
X141779000Y-61440000D01*
X141529000Y-61440000D01*
X141529000Y-61190000D01*
G37*
X141529000Y-61190000D02*
X141779000Y-61190000D01*
X141779000Y-61440000D01*
X141529000Y-61440000D01*
X141529000Y-61190000D01*
G36*
X141279000Y-61190000D02*
G01*
X141529000Y-61190000D01*
X141529000Y-61440000D01*
X141279000Y-61440000D01*
X141279000Y-61190000D01*
G37*
X141279000Y-61190000D02*
X141529000Y-61190000D01*
X141529000Y-61440000D01*
X141279000Y-61440000D01*
X141279000Y-61190000D01*
G36*
X139029000Y-61190000D02*
G01*
X139279000Y-61190000D01*
X139279000Y-61440000D01*
X139029000Y-61440000D01*
X139029000Y-61190000D01*
G37*
X139029000Y-61190000D02*
X139279000Y-61190000D01*
X139279000Y-61440000D01*
X139029000Y-61440000D01*
X139029000Y-61190000D01*
G36*
X138779000Y-61190000D02*
G01*
X139029000Y-61190000D01*
X139029000Y-61440000D01*
X138779000Y-61440000D01*
X138779000Y-61190000D01*
G37*
X138779000Y-61190000D02*
X139029000Y-61190000D01*
X139029000Y-61440000D01*
X138779000Y-61440000D01*
X138779000Y-61190000D01*
G36*
X138529000Y-61190000D02*
G01*
X138779000Y-61190000D01*
X138779000Y-61440000D01*
X138529000Y-61440000D01*
X138529000Y-61190000D01*
G37*
X138529000Y-61190000D02*
X138779000Y-61190000D01*
X138779000Y-61440000D01*
X138529000Y-61440000D01*
X138529000Y-61190000D01*
G36*
X138279000Y-61190000D02*
G01*
X138529000Y-61190000D01*
X138529000Y-61440000D01*
X138279000Y-61440000D01*
X138279000Y-61190000D01*
G37*
X138279000Y-61190000D02*
X138529000Y-61190000D01*
X138529000Y-61440000D01*
X138279000Y-61440000D01*
X138279000Y-61190000D01*
G36*
X138029000Y-61190000D02*
G01*
X138279000Y-61190000D01*
X138279000Y-61440000D01*
X138029000Y-61440000D01*
X138029000Y-61190000D01*
G37*
X138029000Y-61190000D02*
X138279000Y-61190000D01*
X138279000Y-61440000D01*
X138029000Y-61440000D01*
X138029000Y-61190000D01*
G36*
X137779000Y-61190000D02*
G01*
X138029000Y-61190000D01*
X138029000Y-61440000D01*
X137779000Y-61440000D01*
X137779000Y-61190000D01*
G37*
X137779000Y-61190000D02*
X138029000Y-61190000D01*
X138029000Y-61440000D01*
X137779000Y-61440000D01*
X137779000Y-61190000D01*
G36*
X159029000Y-60940000D02*
G01*
X159279000Y-60940000D01*
X159279000Y-61190000D01*
X159029000Y-61190000D01*
X159029000Y-60940000D01*
G37*
X159029000Y-60940000D02*
X159279000Y-60940000D01*
X159279000Y-61190000D01*
X159029000Y-61190000D01*
X159029000Y-60940000D01*
G36*
X158779000Y-60940000D02*
G01*
X159029000Y-60940000D01*
X159029000Y-61190000D01*
X158779000Y-61190000D01*
X158779000Y-60940000D01*
G37*
X158779000Y-60940000D02*
X159029000Y-60940000D01*
X159029000Y-61190000D01*
X158779000Y-61190000D01*
X158779000Y-60940000D01*
G36*
X156529000Y-60940000D02*
G01*
X156779000Y-60940000D01*
X156779000Y-61190000D01*
X156529000Y-61190000D01*
X156529000Y-60940000D01*
G37*
X156529000Y-60940000D02*
X156779000Y-60940000D01*
X156779000Y-61190000D01*
X156529000Y-61190000D01*
X156529000Y-60940000D01*
G36*
X156279000Y-60940000D02*
G01*
X156529000Y-60940000D01*
X156529000Y-61190000D01*
X156279000Y-61190000D01*
X156279000Y-60940000D01*
G37*
X156279000Y-60940000D02*
X156529000Y-60940000D01*
X156529000Y-61190000D01*
X156279000Y-61190000D01*
X156279000Y-60940000D01*
G36*
X156029000Y-60940000D02*
G01*
X156279000Y-60940000D01*
X156279000Y-61190000D01*
X156029000Y-61190000D01*
X156029000Y-60940000D01*
G37*
X156029000Y-60940000D02*
X156279000Y-60940000D01*
X156279000Y-61190000D01*
X156029000Y-61190000D01*
X156029000Y-60940000D01*
G36*
X155779000Y-60940000D02*
G01*
X156029000Y-60940000D01*
X156029000Y-61190000D01*
X155779000Y-61190000D01*
X155779000Y-60940000D01*
G37*
X155779000Y-60940000D02*
X156029000Y-60940000D01*
X156029000Y-61190000D01*
X155779000Y-61190000D01*
X155779000Y-60940000D01*
G36*
X154529000Y-60940000D02*
G01*
X154779000Y-60940000D01*
X154779000Y-61190000D01*
X154529000Y-61190000D01*
X154529000Y-60940000D01*
G37*
X154529000Y-60940000D02*
X154779000Y-60940000D01*
X154779000Y-61190000D01*
X154529000Y-61190000D01*
X154529000Y-60940000D01*
G36*
X154279000Y-60940000D02*
G01*
X154529000Y-60940000D01*
X154529000Y-61190000D01*
X154279000Y-61190000D01*
X154279000Y-60940000D01*
G37*
X154279000Y-60940000D02*
X154529000Y-60940000D01*
X154529000Y-61190000D01*
X154279000Y-61190000D01*
X154279000Y-60940000D01*
G36*
X150529000Y-60940000D02*
G01*
X150779000Y-60940000D01*
X150779000Y-61190000D01*
X150529000Y-61190000D01*
X150529000Y-60940000D01*
G37*
X150529000Y-60940000D02*
X150779000Y-60940000D01*
X150779000Y-61190000D01*
X150529000Y-61190000D01*
X150529000Y-60940000D01*
G36*
X150279000Y-60940000D02*
G01*
X150529000Y-60940000D01*
X150529000Y-61190000D01*
X150279000Y-61190000D01*
X150279000Y-60940000D01*
G37*
X150279000Y-60940000D02*
X150529000Y-60940000D01*
X150529000Y-61190000D01*
X150279000Y-61190000D01*
X150279000Y-60940000D01*
G36*
X147029000Y-60940000D02*
G01*
X147279000Y-60940000D01*
X147279000Y-61190000D01*
X147029000Y-61190000D01*
X147029000Y-60940000D01*
G37*
X147029000Y-60940000D02*
X147279000Y-60940000D01*
X147279000Y-61190000D01*
X147029000Y-61190000D01*
X147029000Y-60940000D01*
G36*
X146779000Y-60940000D02*
G01*
X147029000Y-60940000D01*
X147029000Y-61190000D01*
X146779000Y-61190000D01*
X146779000Y-60940000D01*
G37*
X146779000Y-60940000D02*
X147029000Y-60940000D01*
X147029000Y-61190000D01*
X146779000Y-61190000D01*
X146779000Y-60940000D01*
G36*
X145529000Y-60940000D02*
G01*
X145779000Y-60940000D01*
X145779000Y-61190000D01*
X145529000Y-61190000D01*
X145529000Y-60940000D01*
G37*
X145529000Y-60940000D02*
X145779000Y-60940000D01*
X145779000Y-61190000D01*
X145529000Y-61190000D01*
X145529000Y-60940000D01*
G36*
X145279000Y-60940000D02*
G01*
X145529000Y-60940000D01*
X145529000Y-61190000D01*
X145279000Y-61190000D01*
X145279000Y-60940000D01*
G37*
X145279000Y-60940000D02*
X145529000Y-60940000D01*
X145529000Y-61190000D01*
X145279000Y-61190000D01*
X145279000Y-60940000D01*
G36*
X143529000Y-60940000D02*
G01*
X143779000Y-60940000D01*
X143779000Y-61190000D01*
X143529000Y-61190000D01*
X143529000Y-60940000D01*
G37*
X143529000Y-60940000D02*
X143779000Y-60940000D01*
X143779000Y-61190000D01*
X143529000Y-61190000D01*
X143529000Y-60940000D01*
G36*
X143279000Y-60940000D02*
G01*
X143529000Y-60940000D01*
X143529000Y-61190000D01*
X143279000Y-61190000D01*
X143279000Y-60940000D01*
G37*
X143279000Y-60940000D02*
X143529000Y-60940000D01*
X143529000Y-61190000D01*
X143279000Y-61190000D01*
X143279000Y-60940000D01*
G36*
X141529000Y-60940000D02*
G01*
X141779000Y-60940000D01*
X141779000Y-61190000D01*
X141529000Y-61190000D01*
X141529000Y-60940000D01*
G37*
X141529000Y-60940000D02*
X141779000Y-60940000D01*
X141779000Y-61190000D01*
X141529000Y-61190000D01*
X141529000Y-60940000D01*
G36*
X141279000Y-60940000D02*
G01*
X141529000Y-60940000D01*
X141529000Y-61190000D01*
X141279000Y-61190000D01*
X141279000Y-60940000D01*
G37*
X141279000Y-60940000D02*
X141529000Y-60940000D01*
X141529000Y-61190000D01*
X141279000Y-61190000D01*
X141279000Y-60940000D01*
G36*
X141029000Y-60940000D02*
G01*
X141279000Y-60940000D01*
X141279000Y-61190000D01*
X141029000Y-61190000D01*
X141029000Y-60940000D01*
G37*
X141029000Y-60940000D02*
X141279000Y-60940000D01*
X141279000Y-61190000D01*
X141029000Y-61190000D01*
X141029000Y-60940000D01*
G36*
X140779000Y-60940000D02*
G01*
X141029000Y-60940000D01*
X141029000Y-61190000D01*
X140779000Y-61190000D01*
X140779000Y-60940000D01*
G37*
X140779000Y-60940000D02*
X141029000Y-60940000D01*
X141029000Y-61190000D01*
X140779000Y-61190000D01*
X140779000Y-60940000D01*
G36*
X137529000Y-60940000D02*
G01*
X137779000Y-60940000D01*
X137779000Y-61190000D01*
X137529000Y-61190000D01*
X137529000Y-60940000D01*
G37*
X137529000Y-60940000D02*
X137779000Y-60940000D01*
X137779000Y-61190000D01*
X137529000Y-61190000D01*
X137529000Y-60940000D01*
G36*
X137279000Y-60940000D02*
G01*
X137529000Y-60940000D01*
X137529000Y-61190000D01*
X137279000Y-61190000D01*
X137279000Y-60940000D01*
G37*
X137279000Y-60940000D02*
X137529000Y-60940000D01*
X137529000Y-61190000D01*
X137279000Y-61190000D01*
X137279000Y-60940000D01*
G36*
X159029000Y-60690000D02*
G01*
X159279000Y-60690000D01*
X159279000Y-60940000D01*
X159029000Y-60940000D01*
X159029000Y-60690000D01*
G37*
X159029000Y-60690000D02*
X159279000Y-60690000D01*
X159279000Y-60940000D01*
X159029000Y-60940000D01*
X159029000Y-60690000D01*
G36*
X158779000Y-60690000D02*
G01*
X159029000Y-60690000D01*
X159029000Y-60940000D01*
X158779000Y-60940000D01*
X158779000Y-60690000D01*
G37*
X158779000Y-60690000D02*
X159029000Y-60690000D01*
X159029000Y-60940000D01*
X158779000Y-60940000D01*
X158779000Y-60690000D01*
G36*
X156529000Y-60690000D02*
G01*
X156779000Y-60690000D01*
X156779000Y-60940000D01*
X156529000Y-60940000D01*
X156529000Y-60690000D01*
G37*
X156529000Y-60690000D02*
X156779000Y-60690000D01*
X156779000Y-60940000D01*
X156529000Y-60940000D01*
X156529000Y-60690000D01*
G36*
X156279000Y-60690000D02*
G01*
X156529000Y-60690000D01*
X156529000Y-60940000D01*
X156279000Y-60940000D01*
X156279000Y-60690000D01*
G37*
X156279000Y-60690000D02*
X156529000Y-60690000D01*
X156529000Y-60940000D01*
X156279000Y-60940000D01*
X156279000Y-60690000D01*
G36*
X156029000Y-60690000D02*
G01*
X156279000Y-60690000D01*
X156279000Y-60940000D01*
X156029000Y-60940000D01*
X156029000Y-60690000D01*
G37*
X156029000Y-60690000D02*
X156279000Y-60690000D01*
X156279000Y-60940000D01*
X156029000Y-60940000D01*
X156029000Y-60690000D01*
G36*
X155779000Y-60690000D02*
G01*
X156029000Y-60690000D01*
X156029000Y-60940000D01*
X155779000Y-60940000D01*
X155779000Y-60690000D01*
G37*
X155779000Y-60690000D02*
X156029000Y-60690000D01*
X156029000Y-60940000D01*
X155779000Y-60940000D01*
X155779000Y-60690000D01*
G36*
X154529000Y-60690000D02*
G01*
X154779000Y-60690000D01*
X154779000Y-60940000D01*
X154529000Y-60940000D01*
X154529000Y-60690000D01*
G37*
X154529000Y-60690000D02*
X154779000Y-60690000D01*
X154779000Y-60940000D01*
X154529000Y-60940000D01*
X154529000Y-60690000D01*
G36*
X154279000Y-60690000D02*
G01*
X154529000Y-60690000D01*
X154529000Y-60940000D01*
X154279000Y-60940000D01*
X154279000Y-60690000D01*
G37*
X154279000Y-60690000D02*
X154529000Y-60690000D01*
X154529000Y-60940000D01*
X154279000Y-60940000D01*
X154279000Y-60690000D01*
G36*
X150529000Y-60690000D02*
G01*
X150779000Y-60690000D01*
X150779000Y-60940000D01*
X150529000Y-60940000D01*
X150529000Y-60690000D01*
G37*
X150529000Y-60690000D02*
X150779000Y-60690000D01*
X150779000Y-60940000D01*
X150529000Y-60940000D01*
X150529000Y-60690000D01*
G36*
X150279000Y-60690000D02*
G01*
X150529000Y-60690000D01*
X150529000Y-60940000D01*
X150279000Y-60940000D01*
X150279000Y-60690000D01*
G37*
X150279000Y-60690000D02*
X150529000Y-60690000D01*
X150529000Y-60940000D01*
X150279000Y-60940000D01*
X150279000Y-60690000D01*
G36*
X147029000Y-60690000D02*
G01*
X147279000Y-60690000D01*
X147279000Y-60940000D01*
X147029000Y-60940000D01*
X147029000Y-60690000D01*
G37*
X147029000Y-60690000D02*
X147279000Y-60690000D01*
X147279000Y-60940000D01*
X147029000Y-60940000D01*
X147029000Y-60690000D01*
G36*
X146779000Y-60690000D02*
G01*
X147029000Y-60690000D01*
X147029000Y-60940000D01*
X146779000Y-60940000D01*
X146779000Y-60690000D01*
G37*
X146779000Y-60690000D02*
X147029000Y-60690000D01*
X147029000Y-60940000D01*
X146779000Y-60940000D01*
X146779000Y-60690000D01*
G36*
X145529000Y-60690000D02*
G01*
X145779000Y-60690000D01*
X145779000Y-60940000D01*
X145529000Y-60940000D01*
X145529000Y-60690000D01*
G37*
X145529000Y-60690000D02*
X145779000Y-60690000D01*
X145779000Y-60940000D01*
X145529000Y-60940000D01*
X145529000Y-60690000D01*
G36*
X145279000Y-60690000D02*
G01*
X145529000Y-60690000D01*
X145529000Y-60940000D01*
X145279000Y-60940000D01*
X145279000Y-60690000D01*
G37*
X145279000Y-60690000D02*
X145529000Y-60690000D01*
X145529000Y-60940000D01*
X145279000Y-60940000D01*
X145279000Y-60690000D01*
G36*
X143529000Y-60690000D02*
G01*
X143779000Y-60690000D01*
X143779000Y-60940000D01*
X143529000Y-60940000D01*
X143529000Y-60690000D01*
G37*
X143529000Y-60690000D02*
X143779000Y-60690000D01*
X143779000Y-60940000D01*
X143529000Y-60940000D01*
X143529000Y-60690000D01*
G36*
X143279000Y-60690000D02*
G01*
X143529000Y-60690000D01*
X143529000Y-60940000D01*
X143279000Y-60940000D01*
X143279000Y-60690000D01*
G37*
X143279000Y-60690000D02*
X143529000Y-60690000D01*
X143529000Y-60940000D01*
X143279000Y-60940000D01*
X143279000Y-60690000D01*
G36*
X141529000Y-60690000D02*
G01*
X141779000Y-60690000D01*
X141779000Y-60940000D01*
X141529000Y-60940000D01*
X141529000Y-60690000D01*
G37*
X141529000Y-60690000D02*
X141779000Y-60690000D01*
X141779000Y-60940000D01*
X141529000Y-60940000D01*
X141529000Y-60690000D01*
G36*
X141279000Y-60690000D02*
G01*
X141529000Y-60690000D01*
X141529000Y-60940000D01*
X141279000Y-60940000D01*
X141279000Y-60690000D01*
G37*
X141279000Y-60690000D02*
X141529000Y-60690000D01*
X141529000Y-60940000D01*
X141279000Y-60940000D01*
X141279000Y-60690000D01*
G36*
X141029000Y-60690000D02*
G01*
X141279000Y-60690000D01*
X141279000Y-60940000D01*
X141029000Y-60940000D01*
X141029000Y-60690000D01*
G37*
X141029000Y-60690000D02*
X141279000Y-60690000D01*
X141279000Y-60940000D01*
X141029000Y-60940000D01*
X141029000Y-60690000D01*
G36*
X140779000Y-60690000D02*
G01*
X141029000Y-60690000D01*
X141029000Y-60940000D01*
X140779000Y-60940000D01*
X140779000Y-60690000D01*
G37*
X140779000Y-60690000D02*
X141029000Y-60690000D01*
X141029000Y-60940000D01*
X140779000Y-60940000D01*
X140779000Y-60690000D01*
G36*
X137529000Y-60690000D02*
G01*
X137779000Y-60690000D01*
X137779000Y-60940000D01*
X137529000Y-60940000D01*
X137529000Y-60690000D01*
G37*
X137529000Y-60690000D02*
X137779000Y-60690000D01*
X137779000Y-60940000D01*
X137529000Y-60940000D01*
X137529000Y-60690000D01*
G36*
X137279000Y-60690000D02*
G01*
X137529000Y-60690000D01*
X137529000Y-60940000D01*
X137279000Y-60940000D01*
X137279000Y-60690000D01*
G37*
X137279000Y-60690000D02*
X137529000Y-60690000D01*
X137529000Y-60940000D01*
X137279000Y-60940000D01*
X137279000Y-60690000D01*
G36*
X160529000Y-60440000D02*
G01*
X160779000Y-60440000D01*
X160779000Y-60690000D01*
X160529000Y-60690000D01*
X160529000Y-60440000D01*
G37*
X160529000Y-60440000D02*
X160779000Y-60440000D01*
X160779000Y-60690000D01*
X160529000Y-60690000D01*
X160529000Y-60440000D01*
G36*
X160279000Y-60440000D02*
G01*
X160529000Y-60440000D01*
X160529000Y-60690000D01*
X160279000Y-60690000D01*
X160279000Y-60440000D01*
G37*
X160279000Y-60440000D02*
X160529000Y-60440000D01*
X160529000Y-60690000D01*
X160279000Y-60690000D01*
X160279000Y-60440000D01*
G36*
X160029000Y-60440000D02*
G01*
X160279000Y-60440000D01*
X160279000Y-60690000D01*
X160029000Y-60690000D01*
X160029000Y-60440000D01*
G37*
X160029000Y-60440000D02*
X160279000Y-60440000D01*
X160279000Y-60690000D01*
X160029000Y-60690000D01*
X160029000Y-60440000D01*
G36*
X159779000Y-60440000D02*
G01*
X160029000Y-60440000D01*
X160029000Y-60690000D01*
X159779000Y-60690000D01*
X159779000Y-60440000D01*
G37*
X159779000Y-60440000D02*
X160029000Y-60440000D01*
X160029000Y-60690000D01*
X159779000Y-60690000D01*
X159779000Y-60440000D01*
G36*
X159529000Y-60440000D02*
G01*
X159779000Y-60440000D01*
X159779000Y-60690000D01*
X159529000Y-60690000D01*
X159529000Y-60440000D01*
G37*
X159529000Y-60440000D02*
X159779000Y-60440000D01*
X159779000Y-60690000D01*
X159529000Y-60690000D01*
X159529000Y-60440000D01*
G36*
X159279000Y-60440000D02*
G01*
X159529000Y-60440000D01*
X159529000Y-60690000D01*
X159279000Y-60690000D01*
X159279000Y-60440000D01*
G37*
X159279000Y-60440000D02*
X159529000Y-60440000D01*
X159529000Y-60690000D01*
X159279000Y-60690000D01*
X159279000Y-60440000D01*
G36*
X154029000Y-60440000D02*
G01*
X154279000Y-60440000D01*
X154279000Y-60690000D01*
X154029000Y-60690000D01*
X154029000Y-60440000D01*
G37*
X154029000Y-60440000D02*
X154279000Y-60440000D01*
X154279000Y-60690000D01*
X154029000Y-60690000D01*
X154029000Y-60440000D01*
G36*
X153779000Y-60440000D02*
G01*
X154029000Y-60440000D01*
X154029000Y-60690000D01*
X153779000Y-60690000D01*
X153779000Y-60440000D01*
G37*
X153779000Y-60440000D02*
X154029000Y-60440000D01*
X154029000Y-60690000D01*
X153779000Y-60690000D01*
X153779000Y-60440000D01*
G36*
X153529000Y-60440000D02*
G01*
X153779000Y-60440000D01*
X153779000Y-60690000D01*
X153529000Y-60690000D01*
X153529000Y-60440000D01*
G37*
X153529000Y-60440000D02*
X153779000Y-60440000D01*
X153779000Y-60690000D01*
X153529000Y-60690000D01*
X153529000Y-60440000D01*
G36*
X153279000Y-60440000D02*
G01*
X153529000Y-60440000D01*
X153529000Y-60690000D01*
X153279000Y-60690000D01*
X153279000Y-60440000D01*
G37*
X153279000Y-60440000D02*
X153529000Y-60440000D01*
X153529000Y-60690000D01*
X153279000Y-60690000D01*
X153279000Y-60440000D01*
G36*
X153029000Y-60440000D02*
G01*
X153279000Y-60440000D01*
X153279000Y-60690000D01*
X153029000Y-60690000D01*
X153029000Y-60440000D01*
G37*
X153029000Y-60440000D02*
X153279000Y-60440000D01*
X153279000Y-60690000D01*
X153029000Y-60690000D01*
X153029000Y-60440000D01*
G36*
X152779000Y-60440000D02*
G01*
X153029000Y-60440000D01*
X153029000Y-60690000D01*
X152779000Y-60690000D01*
X152779000Y-60440000D01*
G37*
X152779000Y-60440000D02*
X153029000Y-60440000D01*
X153029000Y-60690000D01*
X152779000Y-60690000D01*
X152779000Y-60440000D01*
G36*
X150529000Y-60440000D02*
G01*
X150779000Y-60440000D01*
X150779000Y-60690000D01*
X150529000Y-60690000D01*
X150529000Y-60440000D01*
G37*
X150529000Y-60440000D02*
X150779000Y-60440000D01*
X150779000Y-60690000D01*
X150529000Y-60690000D01*
X150529000Y-60440000D01*
G36*
X150279000Y-60440000D02*
G01*
X150529000Y-60440000D01*
X150529000Y-60690000D01*
X150279000Y-60690000D01*
X150279000Y-60440000D01*
G37*
X150279000Y-60440000D02*
X150529000Y-60440000D01*
X150529000Y-60690000D01*
X150279000Y-60690000D01*
X150279000Y-60440000D01*
G36*
X148529000Y-60440000D02*
G01*
X148779000Y-60440000D01*
X148779000Y-60690000D01*
X148529000Y-60690000D01*
X148529000Y-60440000D01*
G37*
X148529000Y-60440000D02*
X148779000Y-60440000D01*
X148779000Y-60690000D01*
X148529000Y-60690000D01*
X148529000Y-60440000D01*
G36*
X148279000Y-60440000D02*
G01*
X148529000Y-60440000D01*
X148529000Y-60690000D01*
X148279000Y-60690000D01*
X148279000Y-60440000D01*
G37*
X148279000Y-60440000D02*
X148529000Y-60440000D01*
X148529000Y-60690000D01*
X148279000Y-60690000D01*
X148279000Y-60440000D01*
G36*
X148029000Y-60440000D02*
G01*
X148279000Y-60440000D01*
X148279000Y-60690000D01*
X148029000Y-60690000D01*
X148029000Y-60440000D01*
G37*
X148029000Y-60440000D02*
X148279000Y-60440000D01*
X148279000Y-60690000D01*
X148029000Y-60690000D01*
X148029000Y-60440000D01*
G36*
X147779000Y-60440000D02*
G01*
X148029000Y-60440000D01*
X148029000Y-60690000D01*
X147779000Y-60690000D01*
X147779000Y-60440000D01*
G37*
X147779000Y-60440000D02*
X148029000Y-60440000D01*
X148029000Y-60690000D01*
X147779000Y-60690000D01*
X147779000Y-60440000D01*
G36*
X147529000Y-60440000D02*
G01*
X147779000Y-60440000D01*
X147779000Y-60690000D01*
X147529000Y-60690000D01*
X147529000Y-60440000D01*
G37*
X147529000Y-60440000D02*
X147779000Y-60440000D01*
X147779000Y-60690000D01*
X147529000Y-60690000D01*
X147529000Y-60440000D01*
G36*
X147279000Y-60440000D02*
G01*
X147529000Y-60440000D01*
X147529000Y-60690000D01*
X147279000Y-60690000D01*
X147279000Y-60440000D01*
G37*
X147279000Y-60440000D02*
X147529000Y-60440000D01*
X147529000Y-60690000D01*
X147279000Y-60690000D01*
X147279000Y-60440000D01*
G36*
X145029000Y-60440000D02*
G01*
X145279000Y-60440000D01*
X145279000Y-60690000D01*
X145029000Y-60690000D01*
X145029000Y-60440000D01*
G37*
X145029000Y-60440000D02*
X145279000Y-60440000D01*
X145279000Y-60690000D01*
X145029000Y-60690000D01*
X145029000Y-60440000D01*
G36*
X144779000Y-60440000D02*
G01*
X145029000Y-60440000D01*
X145029000Y-60690000D01*
X144779000Y-60690000D01*
X144779000Y-60440000D01*
G37*
X144779000Y-60440000D02*
X145029000Y-60440000D01*
X145029000Y-60690000D01*
X144779000Y-60690000D01*
X144779000Y-60440000D01*
G36*
X144529000Y-60440000D02*
G01*
X144779000Y-60440000D01*
X144779000Y-60690000D01*
X144529000Y-60690000D01*
X144529000Y-60440000D01*
G37*
X144529000Y-60440000D02*
X144779000Y-60440000D01*
X144779000Y-60690000D01*
X144529000Y-60690000D01*
X144529000Y-60440000D01*
G36*
X144279000Y-60440000D02*
G01*
X144529000Y-60440000D01*
X144529000Y-60690000D01*
X144279000Y-60690000D01*
X144279000Y-60440000D01*
G37*
X144279000Y-60440000D02*
X144529000Y-60440000D01*
X144529000Y-60690000D01*
X144279000Y-60690000D01*
X144279000Y-60440000D01*
G36*
X144029000Y-60440000D02*
G01*
X144279000Y-60440000D01*
X144279000Y-60690000D01*
X144029000Y-60690000D01*
X144029000Y-60440000D01*
G37*
X144029000Y-60440000D02*
X144279000Y-60440000D01*
X144279000Y-60690000D01*
X144029000Y-60690000D01*
X144029000Y-60440000D01*
G36*
X143779000Y-60440000D02*
G01*
X144029000Y-60440000D01*
X144029000Y-60690000D01*
X143779000Y-60690000D01*
X143779000Y-60440000D01*
G37*
X143779000Y-60440000D02*
X144029000Y-60440000D01*
X144029000Y-60690000D01*
X143779000Y-60690000D01*
X143779000Y-60440000D01*
G36*
X143529000Y-60440000D02*
G01*
X143779000Y-60440000D01*
X143779000Y-60690000D01*
X143529000Y-60690000D01*
X143529000Y-60440000D01*
G37*
X143529000Y-60440000D02*
X143779000Y-60440000D01*
X143779000Y-60690000D01*
X143529000Y-60690000D01*
X143529000Y-60440000D01*
G36*
X143279000Y-60440000D02*
G01*
X143529000Y-60440000D01*
X143529000Y-60690000D01*
X143279000Y-60690000D01*
X143279000Y-60440000D01*
G37*
X143279000Y-60440000D02*
X143529000Y-60440000D01*
X143529000Y-60690000D01*
X143279000Y-60690000D01*
X143279000Y-60440000D01*
G36*
X139029000Y-60440000D02*
G01*
X139279000Y-60440000D01*
X139279000Y-60690000D01*
X139029000Y-60690000D01*
X139029000Y-60440000D01*
G37*
X139029000Y-60440000D02*
X139279000Y-60440000D01*
X139279000Y-60690000D01*
X139029000Y-60690000D01*
X139029000Y-60440000D01*
G36*
X138779000Y-60440000D02*
G01*
X139029000Y-60440000D01*
X139029000Y-60690000D01*
X138779000Y-60690000D01*
X138779000Y-60440000D01*
G37*
X138779000Y-60440000D02*
X139029000Y-60440000D01*
X139029000Y-60690000D01*
X138779000Y-60690000D01*
X138779000Y-60440000D01*
G36*
X138529000Y-60440000D02*
G01*
X138779000Y-60440000D01*
X138779000Y-60690000D01*
X138529000Y-60690000D01*
X138529000Y-60440000D01*
G37*
X138529000Y-60440000D02*
X138779000Y-60440000D01*
X138779000Y-60690000D01*
X138529000Y-60690000D01*
X138529000Y-60440000D01*
G36*
X138279000Y-60440000D02*
G01*
X138529000Y-60440000D01*
X138529000Y-60690000D01*
X138279000Y-60690000D01*
X138279000Y-60440000D01*
G37*
X138279000Y-60440000D02*
X138529000Y-60440000D01*
X138529000Y-60690000D01*
X138279000Y-60690000D01*
X138279000Y-60440000D01*
G36*
X138029000Y-60440000D02*
G01*
X138279000Y-60440000D01*
X138279000Y-60690000D01*
X138029000Y-60690000D01*
X138029000Y-60440000D01*
G37*
X138029000Y-60440000D02*
X138279000Y-60440000D01*
X138279000Y-60690000D01*
X138029000Y-60690000D01*
X138029000Y-60440000D01*
G36*
X137779000Y-60440000D02*
G01*
X138029000Y-60440000D01*
X138029000Y-60690000D01*
X137779000Y-60690000D01*
X137779000Y-60440000D01*
G37*
X137779000Y-60440000D02*
X138029000Y-60440000D01*
X138029000Y-60690000D01*
X137779000Y-60690000D01*
X137779000Y-60440000D01*
G36*
X160529000Y-60190000D02*
G01*
X160779000Y-60190000D01*
X160779000Y-60440000D01*
X160529000Y-60440000D01*
X160529000Y-60190000D01*
G37*
X160529000Y-60190000D02*
X160779000Y-60190000D01*
X160779000Y-60440000D01*
X160529000Y-60440000D01*
X160529000Y-60190000D01*
G36*
X160279000Y-60190000D02*
G01*
X160529000Y-60190000D01*
X160529000Y-60440000D01*
X160279000Y-60440000D01*
X160279000Y-60190000D01*
G37*
X160279000Y-60190000D02*
X160529000Y-60190000D01*
X160529000Y-60440000D01*
X160279000Y-60440000D01*
X160279000Y-60190000D01*
G36*
X160029000Y-60190000D02*
G01*
X160279000Y-60190000D01*
X160279000Y-60440000D01*
X160029000Y-60440000D01*
X160029000Y-60190000D01*
G37*
X160029000Y-60190000D02*
X160279000Y-60190000D01*
X160279000Y-60440000D01*
X160029000Y-60440000D01*
X160029000Y-60190000D01*
G36*
X159779000Y-60190000D02*
G01*
X160029000Y-60190000D01*
X160029000Y-60440000D01*
X159779000Y-60440000D01*
X159779000Y-60190000D01*
G37*
X159779000Y-60190000D02*
X160029000Y-60190000D01*
X160029000Y-60440000D01*
X159779000Y-60440000D01*
X159779000Y-60190000D01*
G36*
X159529000Y-60190000D02*
G01*
X159779000Y-60190000D01*
X159779000Y-60440000D01*
X159529000Y-60440000D01*
X159529000Y-60190000D01*
G37*
X159529000Y-60190000D02*
X159779000Y-60190000D01*
X159779000Y-60440000D01*
X159529000Y-60440000D01*
X159529000Y-60190000D01*
G36*
X159279000Y-60190000D02*
G01*
X159529000Y-60190000D01*
X159529000Y-60440000D01*
X159279000Y-60440000D01*
X159279000Y-60190000D01*
G37*
X159279000Y-60190000D02*
X159529000Y-60190000D01*
X159529000Y-60440000D01*
X159279000Y-60440000D01*
X159279000Y-60190000D01*
G36*
X154029000Y-60190000D02*
G01*
X154279000Y-60190000D01*
X154279000Y-60440000D01*
X154029000Y-60440000D01*
X154029000Y-60190000D01*
G37*
X154029000Y-60190000D02*
X154279000Y-60190000D01*
X154279000Y-60440000D01*
X154029000Y-60440000D01*
X154029000Y-60190000D01*
G36*
X153779000Y-60190000D02*
G01*
X154029000Y-60190000D01*
X154029000Y-60440000D01*
X153779000Y-60440000D01*
X153779000Y-60190000D01*
G37*
X153779000Y-60190000D02*
X154029000Y-60190000D01*
X154029000Y-60440000D01*
X153779000Y-60440000D01*
X153779000Y-60190000D01*
G36*
X153529000Y-60190000D02*
G01*
X153779000Y-60190000D01*
X153779000Y-60440000D01*
X153529000Y-60440000D01*
X153529000Y-60190000D01*
G37*
X153529000Y-60190000D02*
X153779000Y-60190000D01*
X153779000Y-60440000D01*
X153529000Y-60440000D01*
X153529000Y-60190000D01*
G36*
X153279000Y-60190000D02*
G01*
X153529000Y-60190000D01*
X153529000Y-60440000D01*
X153279000Y-60440000D01*
X153279000Y-60190000D01*
G37*
X153279000Y-60190000D02*
X153529000Y-60190000D01*
X153529000Y-60440000D01*
X153279000Y-60440000D01*
X153279000Y-60190000D01*
G36*
X153029000Y-60190000D02*
G01*
X153279000Y-60190000D01*
X153279000Y-60440000D01*
X153029000Y-60440000D01*
X153029000Y-60190000D01*
G37*
X153029000Y-60190000D02*
X153279000Y-60190000D01*
X153279000Y-60440000D01*
X153029000Y-60440000D01*
X153029000Y-60190000D01*
G36*
X152779000Y-60190000D02*
G01*
X153029000Y-60190000D01*
X153029000Y-60440000D01*
X152779000Y-60440000D01*
X152779000Y-60190000D01*
G37*
X152779000Y-60190000D02*
X153029000Y-60190000D01*
X153029000Y-60440000D01*
X152779000Y-60440000D01*
X152779000Y-60190000D01*
G36*
X150529000Y-60190000D02*
G01*
X150779000Y-60190000D01*
X150779000Y-60440000D01*
X150529000Y-60440000D01*
X150529000Y-60190000D01*
G37*
X150529000Y-60190000D02*
X150779000Y-60190000D01*
X150779000Y-60440000D01*
X150529000Y-60440000D01*
X150529000Y-60190000D01*
G36*
X150279000Y-60190000D02*
G01*
X150529000Y-60190000D01*
X150529000Y-60440000D01*
X150279000Y-60440000D01*
X150279000Y-60190000D01*
G37*
X150279000Y-60190000D02*
X150529000Y-60190000D01*
X150529000Y-60440000D01*
X150279000Y-60440000D01*
X150279000Y-60190000D01*
G36*
X148529000Y-60190000D02*
G01*
X148779000Y-60190000D01*
X148779000Y-60440000D01*
X148529000Y-60440000D01*
X148529000Y-60190000D01*
G37*
X148529000Y-60190000D02*
X148779000Y-60190000D01*
X148779000Y-60440000D01*
X148529000Y-60440000D01*
X148529000Y-60190000D01*
G36*
X148279000Y-60190000D02*
G01*
X148529000Y-60190000D01*
X148529000Y-60440000D01*
X148279000Y-60440000D01*
X148279000Y-60190000D01*
G37*
X148279000Y-60190000D02*
X148529000Y-60190000D01*
X148529000Y-60440000D01*
X148279000Y-60440000D01*
X148279000Y-60190000D01*
G36*
X148029000Y-60190000D02*
G01*
X148279000Y-60190000D01*
X148279000Y-60440000D01*
X148029000Y-60440000D01*
X148029000Y-60190000D01*
G37*
X148029000Y-60190000D02*
X148279000Y-60190000D01*
X148279000Y-60440000D01*
X148029000Y-60440000D01*
X148029000Y-60190000D01*
G36*
X147779000Y-60190000D02*
G01*
X148029000Y-60190000D01*
X148029000Y-60440000D01*
X147779000Y-60440000D01*
X147779000Y-60190000D01*
G37*
X147779000Y-60190000D02*
X148029000Y-60190000D01*
X148029000Y-60440000D01*
X147779000Y-60440000D01*
X147779000Y-60190000D01*
G36*
X147529000Y-60190000D02*
G01*
X147779000Y-60190000D01*
X147779000Y-60440000D01*
X147529000Y-60440000D01*
X147529000Y-60190000D01*
G37*
X147529000Y-60190000D02*
X147779000Y-60190000D01*
X147779000Y-60440000D01*
X147529000Y-60440000D01*
X147529000Y-60190000D01*
G36*
X147279000Y-60190000D02*
G01*
X147529000Y-60190000D01*
X147529000Y-60440000D01*
X147279000Y-60440000D01*
X147279000Y-60190000D01*
G37*
X147279000Y-60190000D02*
X147529000Y-60190000D01*
X147529000Y-60440000D01*
X147279000Y-60440000D01*
X147279000Y-60190000D01*
G36*
X145029000Y-60190000D02*
G01*
X145279000Y-60190000D01*
X145279000Y-60440000D01*
X145029000Y-60440000D01*
X145029000Y-60190000D01*
G37*
X145029000Y-60190000D02*
X145279000Y-60190000D01*
X145279000Y-60440000D01*
X145029000Y-60440000D01*
X145029000Y-60190000D01*
G36*
X144779000Y-60190000D02*
G01*
X145029000Y-60190000D01*
X145029000Y-60440000D01*
X144779000Y-60440000D01*
X144779000Y-60190000D01*
G37*
X144779000Y-60190000D02*
X145029000Y-60190000D01*
X145029000Y-60440000D01*
X144779000Y-60440000D01*
X144779000Y-60190000D01*
G36*
X144529000Y-60190000D02*
G01*
X144779000Y-60190000D01*
X144779000Y-60440000D01*
X144529000Y-60440000D01*
X144529000Y-60190000D01*
G37*
X144529000Y-60190000D02*
X144779000Y-60190000D01*
X144779000Y-60440000D01*
X144529000Y-60440000D01*
X144529000Y-60190000D01*
G36*
X144279000Y-60190000D02*
G01*
X144529000Y-60190000D01*
X144529000Y-60440000D01*
X144279000Y-60440000D01*
X144279000Y-60190000D01*
G37*
X144279000Y-60190000D02*
X144529000Y-60190000D01*
X144529000Y-60440000D01*
X144279000Y-60440000D01*
X144279000Y-60190000D01*
G36*
X144029000Y-60190000D02*
G01*
X144279000Y-60190000D01*
X144279000Y-60440000D01*
X144029000Y-60440000D01*
X144029000Y-60190000D01*
G37*
X144029000Y-60190000D02*
X144279000Y-60190000D01*
X144279000Y-60440000D01*
X144029000Y-60440000D01*
X144029000Y-60190000D01*
G36*
X143779000Y-60190000D02*
G01*
X144029000Y-60190000D01*
X144029000Y-60440000D01*
X143779000Y-60440000D01*
X143779000Y-60190000D01*
G37*
X143779000Y-60190000D02*
X144029000Y-60190000D01*
X144029000Y-60440000D01*
X143779000Y-60440000D01*
X143779000Y-60190000D01*
G36*
X143529000Y-60190000D02*
G01*
X143779000Y-60190000D01*
X143779000Y-60440000D01*
X143529000Y-60440000D01*
X143529000Y-60190000D01*
G37*
X143529000Y-60190000D02*
X143779000Y-60190000D01*
X143779000Y-60440000D01*
X143529000Y-60440000D01*
X143529000Y-60190000D01*
G36*
X143279000Y-60190000D02*
G01*
X143529000Y-60190000D01*
X143529000Y-60440000D01*
X143279000Y-60440000D01*
X143279000Y-60190000D01*
G37*
X143279000Y-60190000D02*
X143529000Y-60190000D01*
X143529000Y-60440000D01*
X143279000Y-60440000D01*
X143279000Y-60190000D01*
G36*
X139029000Y-60190000D02*
G01*
X139279000Y-60190000D01*
X139279000Y-60440000D01*
X139029000Y-60440000D01*
X139029000Y-60190000D01*
G37*
X139029000Y-60190000D02*
X139279000Y-60190000D01*
X139279000Y-60440000D01*
X139029000Y-60440000D01*
X139029000Y-60190000D01*
G36*
X138779000Y-60190000D02*
G01*
X139029000Y-60190000D01*
X139029000Y-60440000D01*
X138779000Y-60440000D01*
X138779000Y-60190000D01*
G37*
X138779000Y-60190000D02*
X139029000Y-60190000D01*
X139029000Y-60440000D01*
X138779000Y-60440000D01*
X138779000Y-60190000D01*
G36*
X138529000Y-60190000D02*
G01*
X138779000Y-60190000D01*
X138779000Y-60440000D01*
X138529000Y-60440000D01*
X138529000Y-60190000D01*
G37*
X138529000Y-60190000D02*
X138779000Y-60190000D01*
X138779000Y-60440000D01*
X138529000Y-60440000D01*
X138529000Y-60190000D01*
G36*
X138279000Y-60190000D02*
G01*
X138529000Y-60190000D01*
X138529000Y-60440000D01*
X138279000Y-60440000D01*
X138279000Y-60190000D01*
G37*
X138279000Y-60190000D02*
X138529000Y-60190000D01*
X138529000Y-60440000D01*
X138279000Y-60440000D01*
X138279000Y-60190000D01*
G36*
X138029000Y-60190000D02*
G01*
X138279000Y-60190000D01*
X138279000Y-60440000D01*
X138029000Y-60440000D01*
X138029000Y-60190000D01*
G37*
X138029000Y-60190000D02*
X138279000Y-60190000D01*
X138279000Y-60440000D01*
X138029000Y-60440000D01*
X138029000Y-60190000D01*
G36*
X137779000Y-60190000D02*
G01*
X138029000Y-60190000D01*
X138029000Y-60440000D01*
X137779000Y-60440000D01*
X137779000Y-60190000D01*
G37*
X137779000Y-60190000D02*
X138029000Y-60190000D01*
X138029000Y-60440000D01*
X137779000Y-60440000D01*
X137779000Y-60190000D01*
G36*
X156529000Y-59940000D02*
G01*
X156779000Y-59940000D01*
X156779000Y-60190000D01*
X156529000Y-60190000D01*
X156529000Y-59940000D01*
G37*
X156529000Y-59940000D02*
X156779000Y-59940000D01*
X156779000Y-60190000D01*
X156529000Y-60190000D01*
X156529000Y-59940000D01*
G36*
X156279000Y-59940000D02*
G01*
X156529000Y-59940000D01*
X156529000Y-60190000D01*
X156279000Y-60190000D01*
X156279000Y-59940000D01*
G37*
X156279000Y-59940000D02*
X156529000Y-59940000D01*
X156529000Y-60190000D01*
X156279000Y-60190000D01*
X156279000Y-59940000D01*
G36*
X150529000Y-59940000D02*
G01*
X150779000Y-59940000D01*
X150779000Y-60190000D01*
X150529000Y-60190000D01*
X150529000Y-59940000D01*
G37*
X150529000Y-59940000D02*
X150779000Y-59940000D01*
X150779000Y-60190000D01*
X150529000Y-60190000D01*
X150529000Y-59940000D01*
G36*
X150279000Y-59940000D02*
G01*
X150529000Y-59940000D01*
X150529000Y-60190000D01*
X150279000Y-60190000D01*
X150279000Y-59940000D01*
G37*
X150279000Y-59940000D02*
X150529000Y-59940000D01*
X150529000Y-60190000D01*
X150279000Y-60190000D01*
X150279000Y-59940000D01*
G36*
X141529000Y-59940000D02*
G01*
X141779000Y-59940000D01*
X141779000Y-60190000D01*
X141529000Y-60190000D01*
X141529000Y-59940000D01*
G37*
X141529000Y-59940000D02*
X141779000Y-59940000D01*
X141779000Y-60190000D01*
X141529000Y-60190000D01*
X141529000Y-59940000D01*
G36*
X141279000Y-59940000D02*
G01*
X141529000Y-59940000D01*
X141529000Y-60190000D01*
X141279000Y-60190000D01*
X141279000Y-59940000D01*
G37*
X141279000Y-59940000D02*
X141529000Y-59940000D01*
X141529000Y-60190000D01*
X141279000Y-60190000D01*
X141279000Y-59940000D01*
G36*
X156529000Y-59690000D02*
G01*
X156779000Y-59690000D01*
X156779000Y-59940000D01*
X156529000Y-59940000D01*
X156529000Y-59690000D01*
G37*
X156529000Y-59690000D02*
X156779000Y-59690000D01*
X156779000Y-59940000D01*
X156529000Y-59940000D01*
X156529000Y-59690000D01*
G36*
X156279000Y-59690000D02*
G01*
X156529000Y-59690000D01*
X156529000Y-59940000D01*
X156279000Y-59940000D01*
X156279000Y-59690000D01*
G37*
X156279000Y-59690000D02*
X156529000Y-59690000D01*
X156529000Y-59940000D01*
X156279000Y-59940000D01*
X156279000Y-59690000D01*
G36*
X150529000Y-59690000D02*
G01*
X150779000Y-59690000D01*
X150779000Y-59940000D01*
X150529000Y-59940000D01*
X150529000Y-59690000D01*
G37*
X150529000Y-59690000D02*
X150779000Y-59690000D01*
X150779000Y-59940000D01*
X150529000Y-59940000D01*
X150529000Y-59690000D01*
G36*
X150279000Y-59690000D02*
G01*
X150529000Y-59690000D01*
X150529000Y-59940000D01*
X150279000Y-59940000D01*
X150279000Y-59690000D01*
G37*
X150279000Y-59690000D02*
X150529000Y-59690000D01*
X150529000Y-59940000D01*
X150279000Y-59940000D01*
X150279000Y-59690000D01*
G36*
X141529000Y-59690000D02*
G01*
X141779000Y-59690000D01*
X141779000Y-59940000D01*
X141529000Y-59940000D01*
X141529000Y-59690000D01*
G37*
X141529000Y-59690000D02*
X141779000Y-59690000D01*
X141779000Y-59940000D01*
X141529000Y-59940000D01*
X141529000Y-59690000D01*
G36*
X141279000Y-59690000D02*
G01*
X141529000Y-59690000D01*
X141529000Y-59940000D01*
X141279000Y-59940000D01*
X141279000Y-59690000D01*
G37*
X141279000Y-59690000D02*
X141529000Y-59690000D01*
X141529000Y-59940000D01*
X141279000Y-59940000D01*
X141279000Y-59690000D01*
D12*
%TO.C,C1*%
X146519000Y-74820000D02*
X146204000Y-74820000D01*
X148944000Y-74820000D02*
X148629000Y-74820000D01*
X146519000Y-69880000D02*
X146204000Y-69880000D01*
X148944000Y-69880000D02*
X148629000Y-69880000D01*
X146204000Y-69880000D02*
X146204000Y-74820000D01*
X148944000Y-69880000D02*
X148944000Y-74820000D01*
D11*
%TO.C,JP2*%
X152654000Y-71501000D02*
X152908000Y-71501000D01*
X149860000Y-69215000D02*
X149860000Y-75565000D01*
X149860000Y-75565000D02*
X152908000Y-75565000D01*
X152654000Y-75057000D02*
X152908000Y-75057000D01*
X152908000Y-75057000D02*
X152908000Y-71501000D01*
X152908000Y-70993000D02*
X152908000Y-69215000D01*
X152908000Y-69215000D02*
X149860000Y-69215000D01*
D12*
%TO.C,AFF1*%
X164721214Y-79930000D02*
G75*
G03*
X164721214Y-79930000I-447214J0D01*
G01*
X157274000Y-69930000D02*
X164274000Y-69930000D01*
X163274000Y-74930000D02*
X156274000Y-74930000D01*
X164274000Y-69930000D02*
X163274000Y-74930000D01*
X162274000Y-79930000D02*
X163274000Y-74930000D01*
X155274000Y-79930000D02*
X162274000Y-79930000D01*
X156274000Y-74930000D02*
X155274000Y-79930000D01*
X157274000Y-69930000D02*
X156274000Y-74930000D01*
X166574000Y-65295000D02*
X153974000Y-65295000D01*
X154974000Y-84565000D02*
X166574000Y-84565000D01*
X166684000Y-80645000D02*
X166684000Y-69215000D01*
X153864000Y-80645000D02*
X153864000Y-69215000D01*
%TO.C,D1*%
X156044000Y-102720000D02*
X156044000Y-100480000D01*
X156044000Y-100480000D02*
X151804000Y-100480000D01*
X151804000Y-100480000D02*
X151804000Y-102720000D01*
X151804000Y-102720000D02*
X156044000Y-102720000D01*
X156694000Y-101600000D02*
X156044000Y-101600000D01*
X151154000Y-101600000D02*
X151804000Y-101600000D01*
X155324000Y-102720000D02*
X155324000Y-100480000D01*
X155204000Y-102720000D02*
X155204000Y-100480000D01*
X155444000Y-102720000D02*
X155444000Y-100480000D01*
%TO.C,R1*%
X168624000Y-102970000D02*
X168624000Y-100230000D01*
X168624000Y-100230000D02*
X162084000Y-100230000D01*
X162084000Y-100230000D02*
X162084000Y-102970000D01*
X162084000Y-102970000D02*
X168624000Y-102970000D01*
X169394000Y-101600000D02*
X168624000Y-101600000D01*
X161314000Y-101600000D02*
X162084000Y-101600000D01*
%TO.C,SW1*%
X167389000Y-69335000D02*
X177289000Y-69335000D01*
X167389000Y-81795000D02*
X177289000Y-81795000D01*
X167389000Y-69335000D02*
X167389000Y-81795000D01*
X177289000Y-69335000D02*
X177289000Y-81795000D01*
X167149000Y-69095000D02*
X168533000Y-69095000D01*
X167149000Y-69095000D02*
X167149000Y-70478000D01*
X170309000Y-71120000D02*
X170309000Y-72390000D01*
X170309000Y-72390000D02*
X174369000Y-72390000D01*
X174369000Y-72390000D02*
X174369000Y-71120000D01*
X174369000Y-71120000D02*
X170309000Y-71120000D01*
X170309000Y-71240000D02*
X171662333Y-71240000D01*
X170309000Y-71360000D02*
X171662333Y-71360000D01*
X170309000Y-71480000D02*
X171662333Y-71480000D01*
X170309000Y-71600000D02*
X171662333Y-71600000D01*
X170309000Y-71720000D02*
X171662333Y-71720000D01*
X170309000Y-71840000D02*
X171662333Y-71840000D01*
X170309000Y-71960000D02*
X171662333Y-71960000D01*
X170309000Y-72080000D02*
X171662333Y-72080000D01*
X170309000Y-72200000D02*
X171662333Y-72200000D01*
X170309000Y-72320000D02*
X171662333Y-72320000D01*
X171662333Y-71120000D02*
X171662333Y-72390000D01*
X170309000Y-73660000D02*
X170309000Y-74930000D01*
X170309000Y-74930000D02*
X174369000Y-74930000D01*
X174369000Y-74930000D02*
X174369000Y-73660000D01*
X174369000Y-73660000D02*
X170309000Y-73660000D01*
X170309000Y-73780000D02*
X171662333Y-73780000D01*
X170309000Y-73900000D02*
X171662333Y-73900000D01*
X170309000Y-74020000D02*
X171662333Y-74020000D01*
X170309000Y-74140000D02*
X171662333Y-74140000D01*
X170309000Y-74260000D02*
X171662333Y-74260000D01*
X170309000Y-74380000D02*
X171662333Y-74380000D01*
X170309000Y-74500000D02*
X171662333Y-74500000D01*
X170309000Y-74620000D02*
X171662333Y-74620000D01*
X170309000Y-74740000D02*
X171662333Y-74740000D01*
X170309000Y-74860000D02*
X171662333Y-74860000D01*
X171662333Y-73660000D02*
X171662333Y-74930000D01*
X170309000Y-76200000D02*
X170309000Y-77470000D01*
X170309000Y-77470000D02*
X174369000Y-77470000D01*
X174369000Y-77470000D02*
X174369000Y-76200000D01*
X174369000Y-76200000D02*
X170309000Y-76200000D01*
X170309000Y-76320000D02*
X171662333Y-76320000D01*
X170309000Y-76440000D02*
X171662333Y-76440000D01*
X170309000Y-76560000D02*
X171662333Y-76560000D01*
X170309000Y-76680000D02*
X171662333Y-76680000D01*
X170309000Y-76800000D02*
X171662333Y-76800000D01*
X170309000Y-76920000D02*
X171662333Y-76920000D01*
X170309000Y-77040000D02*
X171662333Y-77040000D01*
X170309000Y-77160000D02*
X171662333Y-77160000D01*
X170309000Y-77280000D02*
X171662333Y-77280000D01*
X170309000Y-77400000D02*
X171662333Y-77400000D01*
X171662333Y-76200000D02*
X171662333Y-77470000D01*
X170309000Y-78740000D02*
X170309000Y-80010000D01*
X170309000Y-80010000D02*
X174369000Y-80010000D01*
X174369000Y-80010000D02*
X174369000Y-78740000D01*
X174369000Y-78740000D02*
X170309000Y-78740000D01*
X170309000Y-78860000D02*
X171662333Y-78860000D01*
X170309000Y-78980000D02*
X171662333Y-78980000D01*
X170309000Y-79100000D02*
X171662333Y-79100000D01*
X170309000Y-79220000D02*
X171662333Y-79220000D01*
X170309000Y-79340000D02*
X171662333Y-79340000D01*
X170309000Y-79460000D02*
X171662333Y-79460000D01*
X170309000Y-79580000D02*
X171662333Y-79580000D01*
X170309000Y-79700000D02*
X171662333Y-79700000D01*
X170309000Y-79820000D02*
X171662333Y-79820000D01*
X170309000Y-79940000D02*
X171662333Y-79940000D01*
X171662333Y-78740000D02*
X171662333Y-80010000D01*
%TO.C,R4*%
X171934000Y-94710000D02*
X171604000Y-94710000D01*
X171604000Y-94710000D02*
X171604000Y-88170000D01*
X171604000Y-88170000D02*
X171934000Y-88170000D01*
X174014000Y-94710000D02*
X174344000Y-94710000D01*
X174344000Y-94710000D02*
X174344000Y-88170000D01*
X174344000Y-88170000D02*
X174014000Y-88170000D01*
%TO.C,R2*%
X175609000Y-67715000D02*
X175609000Y-68045000D01*
X175609000Y-68045000D02*
X169069000Y-68045000D01*
X169069000Y-68045000D02*
X169069000Y-67715000D01*
X175609000Y-65635000D02*
X175609000Y-65305000D01*
X175609000Y-65305000D02*
X169069000Y-65305000D01*
X169069000Y-65305000D02*
X169069000Y-65635000D01*
%TO.C,R3*%
X169069000Y-82450000D02*
X169069000Y-82780000D01*
X175609000Y-82450000D02*
X169069000Y-82450000D01*
X175609000Y-82780000D02*
X175609000Y-82450000D01*
X169069000Y-85190000D02*
X169069000Y-84860000D01*
X175609000Y-85190000D02*
X169069000Y-85190000D01*
X175609000Y-84860000D02*
X175609000Y-85190000D01*
%TO.C,R5*%
X175109000Y-94710000D02*
X174779000Y-94710000D01*
X174779000Y-94710000D02*
X174779000Y-88170000D01*
X174779000Y-88170000D02*
X175109000Y-88170000D01*
X177189000Y-94710000D02*
X177519000Y-94710000D01*
X177519000Y-94710000D02*
X177519000Y-88170000D01*
X177519000Y-88170000D02*
X177189000Y-88170000D01*
%TO.C,U1*%
D11*
X135382095Y-76922380D02*
X135382095Y-77731904D01*
X135429714Y-77827142D01*
X135477333Y-77874761D01*
X135572571Y-77922380D01*
X135763047Y-77922380D01*
X135858285Y-77874761D01*
X135905904Y-77827142D01*
X135953523Y-77731904D01*
X135953523Y-76922380D01*
X136953523Y-77922380D02*
X136382095Y-77922380D01*
X136667809Y-77922380D02*
X136667809Y-76922380D01*
X136572571Y-77065238D01*
X136477333Y-77160476D01*
X136382095Y-77208095D01*
X133453523Y-78922619D02*
X133501142Y-78875000D01*
X133596380Y-78827380D01*
X133834476Y-78827380D01*
X133929714Y-78875000D01*
X133977333Y-78922619D01*
X134024952Y-79017857D01*
X134024952Y-79113095D01*
X133977333Y-79255952D01*
X133405904Y-79827380D01*
X134024952Y-79827380D01*
X134358285Y-78827380D02*
X135024952Y-78827380D01*
X134596380Y-79827380D01*
X135977333Y-79732142D02*
X135929714Y-79779761D01*
X135786857Y-79827380D01*
X135691619Y-79827380D01*
X135548761Y-79779761D01*
X135453523Y-79684523D01*
X135405904Y-79589285D01*
X135358285Y-79398809D01*
X135358285Y-79255952D01*
X135405904Y-79065476D01*
X135453523Y-78970238D01*
X135548761Y-78875000D01*
X135691619Y-78827380D01*
X135786857Y-78827380D01*
X135929714Y-78875000D01*
X135977333Y-78922619D01*
X136596380Y-78827380D02*
X136691619Y-78827380D01*
X136786857Y-78875000D01*
X136834476Y-78922619D01*
X136882095Y-79017857D01*
X136929714Y-79208333D01*
X136929714Y-79446428D01*
X136882095Y-79636904D01*
X136834476Y-79732142D01*
X136786857Y-79779761D01*
X136691619Y-79827380D01*
X136596380Y-79827380D01*
X136501142Y-79779761D01*
X136453523Y-79732142D01*
X136405904Y-79636904D01*
X136358285Y-79446428D01*
X136358285Y-79208333D01*
X136405904Y-79017857D01*
X136453523Y-78922619D01*
X136501142Y-78875000D01*
X136596380Y-78827380D01*
X137310666Y-78922619D02*
X137358285Y-78875000D01*
X137453523Y-78827380D01*
X137691619Y-78827380D01*
X137786857Y-78875000D01*
X137834476Y-78922619D01*
X137882095Y-79017857D01*
X137882095Y-79113095D01*
X137834476Y-79255952D01*
X137263047Y-79827380D01*
X137882095Y-79827380D01*
X138501142Y-78827380D02*
X138596380Y-78827380D01*
X138691619Y-78875000D01*
X138739238Y-78922619D01*
X138786857Y-79017857D01*
X138834476Y-79208333D01*
X138834476Y-79446428D01*
X138786857Y-79636904D01*
X138739238Y-79732142D01*
X138691619Y-79779761D01*
X138596380Y-79827380D01*
X138501142Y-79827380D01*
X138405904Y-79779761D01*
X138358285Y-79732142D01*
X138310666Y-79636904D01*
X138263047Y-79446428D01*
X138263047Y-79208333D01*
X138310666Y-79017857D01*
X138358285Y-78922619D01*
X138405904Y-78875000D01*
X138501142Y-78827380D01*
%TO.C,C2*%
X147407333Y-91797142D02*
X147359714Y-91844761D01*
X147216857Y-91892380D01*
X147121619Y-91892380D01*
X146978761Y-91844761D01*
X146883523Y-91749523D01*
X146835904Y-91654285D01*
X146788285Y-91463809D01*
X146788285Y-91320952D01*
X146835904Y-91130476D01*
X146883523Y-91035238D01*
X146978761Y-90940000D01*
X147121619Y-90892380D01*
X147216857Y-90892380D01*
X147359714Y-90940000D01*
X147407333Y-90987619D01*
X147788285Y-90987619D02*
X147835904Y-90940000D01*
X147931142Y-90892380D01*
X148169238Y-90892380D01*
X148264476Y-90940000D01*
X148312095Y-90987619D01*
X148359714Y-91082857D01*
X148359714Y-91178095D01*
X148312095Y-91320952D01*
X147740666Y-91892380D01*
X148359714Y-91892380D01*
%TO.C,U2*%
X153162095Y-90892380D02*
X153162095Y-91701904D01*
X153209714Y-91797142D01*
X153257333Y-91844761D01*
X153352571Y-91892380D01*
X153543047Y-91892380D01*
X153638285Y-91844761D01*
X153685904Y-91797142D01*
X153733523Y-91701904D01*
X153733523Y-90892380D01*
X154162095Y-90987619D02*
X154209714Y-90940000D01*
X154304952Y-90892380D01*
X154543047Y-90892380D01*
X154638285Y-90940000D01*
X154685904Y-90987619D01*
X154733523Y-91082857D01*
X154733523Y-91178095D01*
X154685904Y-91320952D01*
X154114476Y-91892380D01*
X154733523Y-91892380D01*
X157353523Y-91892380D02*
X157353523Y-90892380D01*
X157686857Y-91606666D01*
X158020190Y-90892380D01*
X158020190Y-91892380D01*
X159067809Y-91797142D02*
X159020190Y-91844761D01*
X158877333Y-91892380D01*
X158782095Y-91892380D01*
X158639238Y-91844761D01*
X158544000Y-91749523D01*
X158496380Y-91654285D01*
X158448761Y-91463809D01*
X158448761Y-91320952D01*
X158496380Y-91130476D01*
X158544000Y-91035238D01*
X158639238Y-90940000D01*
X158782095Y-90892380D01*
X158877333Y-90892380D01*
X159020190Y-90940000D01*
X159067809Y-90987619D01*
X160020190Y-91892380D02*
X159448761Y-91892380D01*
X159734476Y-91892380D02*
X159734476Y-90892380D01*
X159639238Y-91035238D01*
X159544000Y-91130476D01*
X159448761Y-91178095D01*
X160877333Y-91225714D02*
X160877333Y-91892380D01*
X160639238Y-90844761D02*
X160401142Y-91559047D01*
X161020190Y-91559047D01*
X161829714Y-91225714D02*
X161829714Y-91892380D01*
X161591619Y-90844761D02*
X161353523Y-91559047D01*
X161972571Y-91559047D01*
X162401142Y-91892380D02*
X162591619Y-91892380D01*
X162686857Y-91844761D01*
X162734476Y-91797142D01*
X162829714Y-91654285D01*
X162877333Y-91463809D01*
X162877333Y-91082857D01*
X162829714Y-90987619D01*
X162782095Y-90940000D01*
X162686857Y-90892380D01*
X162496380Y-90892380D01*
X162401142Y-90940000D01*
X162353523Y-90987619D01*
X162305904Y-91082857D01*
X162305904Y-91320952D01*
X162353523Y-91416190D01*
X162401142Y-91463809D01*
X162496380Y-91511428D01*
X162686857Y-91511428D01*
X162782095Y-91463809D01*
X162829714Y-91416190D01*
X162877333Y-91320952D01*
X163782095Y-90892380D02*
X163305904Y-90892380D01*
X163258285Y-91368571D01*
X163305904Y-91320952D01*
X163401142Y-91273333D01*
X163639238Y-91273333D01*
X163734476Y-91320952D01*
X163782095Y-91368571D01*
X163829714Y-91463809D01*
X163829714Y-91701904D01*
X163782095Y-91797142D01*
X163734476Y-91844761D01*
X163639238Y-91892380D01*
X163401142Y-91892380D01*
X163305904Y-91844761D01*
X163258285Y-91797142D01*
X164258285Y-91892380D02*
X164258285Y-90892380D01*
X164639238Y-90892380D01*
X164734476Y-90940000D01*
X164782095Y-90987619D01*
X164829714Y-91082857D01*
X164829714Y-91225714D01*
X164782095Y-91320952D01*
X164734476Y-91368571D01*
X164639238Y-91416190D01*
X164258285Y-91416190D01*
X165782095Y-91892380D02*
X165210666Y-91892380D01*
X165496380Y-91892380D02*
X165496380Y-90892380D01*
X165401142Y-91035238D01*
X165305904Y-91130476D01*
X165210666Y-91178095D01*
%TO.C,sinclair_title*%
%TO.C,C1*%
X147407333Y-72747142D02*
X147359714Y-72794761D01*
X147216857Y-72842380D01*
X147121619Y-72842380D01*
X146978761Y-72794761D01*
X146883523Y-72699523D01*
X146835904Y-72604285D01*
X146788285Y-72413809D01*
X146788285Y-72270952D01*
X146835904Y-72080476D01*
X146883523Y-71985238D01*
X146978761Y-71890000D01*
X147121619Y-71842380D01*
X147216857Y-71842380D01*
X147359714Y-71890000D01*
X147407333Y-71937619D01*
X148359714Y-72842380D02*
X147788285Y-72842380D01*
X148074000Y-72842380D02*
X148074000Y-71842380D01*
X147978761Y-71985238D01*
X147883523Y-72080476D01*
X147788285Y-72128095D01*
%TO.C,JP2*%
D10*
X147771142Y-68306904D02*
X147504476Y-67925952D01*
X147314000Y-68306904D02*
X147314000Y-67506904D01*
X147618761Y-67506904D01*
X147694952Y-67545000D01*
X147733047Y-67583095D01*
X147771142Y-67659285D01*
X147771142Y-67773571D01*
X147733047Y-67849761D01*
X147694952Y-67887857D01*
X147618761Y-67925952D01*
X147314000Y-67925952D01*
X148266380Y-67506904D02*
X148418761Y-67506904D01*
X148494952Y-67545000D01*
X148571142Y-67621190D01*
X148609238Y-67773571D01*
X148609238Y-68040238D01*
X148571142Y-68192619D01*
X148494952Y-68268809D01*
X148418761Y-68306904D01*
X148266380Y-68306904D01*
X148190190Y-68268809D01*
X148114000Y-68192619D01*
X148075904Y-68040238D01*
X148075904Y-67773571D01*
X148114000Y-67621190D01*
X148190190Y-67545000D01*
X148266380Y-67506904D01*
X148952095Y-68306904D02*
X148952095Y-67506904D01*
X149218761Y-68078333D01*
X149485428Y-67506904D01*
X149485428Y-68306904D01*
X149675904Y-68383095D02*
X150285428Y-68383095D01*
X150361619Y-67506904D02*
X150818761Y-67506904D01*
X150590190Y-68306904D02*
X150590190Y-67506904D01*
X151237809Y-67925952D02*
X151237809Y-68306904D01*
X150971142Y-67506904D02*
X151237809Y-67925952D01*
X151504476Y-67506904D01*
X151771142Y-68306904D02*
X151771142Y-67506904D01*
X152075904Y-67506904D01*
X152152095Y-67545000D01*
X152190190Y-67583095D01*
X152228285Y-67659285D01*
X152228285Y-67773571D01*
X152190190Y-67849761D01*
X152152095Y-67887857D01*
X152075904Y-67925952D01*
X151771142Y-67925952D01*
X152571142Y-67887857D02*
X152837809Y-67887857D01*
X152952095Y-68306904D02*
X152571142Y-68306904D01*
X152571142Y-67506904D01*
X152952095Y-67506904D01*
D14*
X150750666Y-75783809D02*
X150750666Y-76326666D01*
X150714476Y-76435238D01*
X150642095Y-76507619D01*
X150533523Y-76543809D01*
X150461142Y-76543809D01*
X151112571Y-76543809D02*
X151112571Y-75783809D01*
X151402095Y-75783809D01*
X151474476Y-75820000D01*
X151510666Y-75856190D01*
X151546857Y-75928571D01*
X151546857Y-76037142D01*
X151510666Y-76109523D01*
X151474476Y-76145714D01*
X151402095Y-76181904D01*
X151112571Y-76181904D01*
X151836380Y-75856190D02*
X151872571Y-75820000D01*
X151944952Y-75783809D01*
X152125904Y-75783809D01*
X152198285Y-75820000D01*
X152234476Y-75856190D01*
X152270666Y-75928571D01*
X152270666Y-76000952D01*
X152234476Y-76109523D01*
X151800190Y-76543809D01*
X152270666Y-76543809D01*
%TO.C,J1*%
D11*
X155241666Y-110323380D02*
X155241666Y-111037666D01*
X155194047Y-111180523D01*
X155098809Y-111275761D01*
X154955952Y-111323380D01*
X154860714Y-111323380D01*
X156241666Y-111323380D02*
X155670238Y-111323380D01*
X155955952Y-111323380D02*
X155955952Y-110323380D01*
X155860714Y-110466238D01*
X155765476Y-110561476D01*
X155670238Y-110609095D01*
X164544523Y-111164666D02*
X165020714Y-111164666D01*
X164449285Y-111450380D02*
X164782619Y-110450380D01*
X165115952Y-111450380D01*
X165973095Y-111450380D02*
X165401666Y-111450380D01*
X165687380Y-111450380D02*
X165687380Y-110450380D01*
X165592142Y-110593238D01*
X165496904Y-110688476D01*
X165401666Y-110736095D01*
X166877857Y-110450380D02*
X166401666Y-110450380D01*
X166354047Y-110926571D01*
X166401666Y-110878952D01*
X166496904Y-110831333D01*
X166735000Y-110831333D01*
X166830238Y-110878952D01*
X166877857Y-110926571D01*
X166925476Y-111021809D01*
X166925476Y-111259904D01*
X166877857Y-111355142D01*
X166830238Y-111402761D01*
X166735000Y-111450380D01*
X166496904Y-111450380D01*
X166401666Y-111402761D01*
X166354047Y-111355142D01*
X129460714Y-111164666D02*
X129936904Y-111164666D01*
X129365476Y-111450380D02*
X129698809Y-110450380D01*
X130032142Y-111450380D01*
X130889285Y-111450380D02*
X130317857Y-111450380D01*
X130603571Y-111450380D02*
X130603571Y-110450380D01*
X130508333Y-110593238D01*
X130413095Y-110688476D01*
X130317857Y-110736095D01*
%TO.C,AFF1*%
X158575571Y-72429666D02*
X159051761Y-72429666D01*
X158480333Y-72715380D02*
X158813666Y-71715380D01*
X159147000Y-72715380D01*
X159813666Y-72191571D02*
X159480333Y-72191571D01*
X159480333Y-72715380D02*
X159480333Y-71715380D01*
X159956523Y-71715380D01*
X160670809Y-72191571D02*
X160337476Y-72191571D01*
X160337476Y-72715380D02*
X160337476Y-71715380D01*
X160813666Y-71715380D01*
X161718428Y-72715380D02*
X161147000Y-72715380D01*
X161432714Y-72715380D02*
X161432714Y-71715380D01*
X161337476Y-71858238D01*
X161242238Y-71953476D01*
X161147000Y-72001095D01*
D10*
X156096047Y-78682904D02*
X156172238Y-78682904D01*
X156248428Y-78721000D01*
X156286523Y-78759095D01*
X156324619Y-78835285D01*
X156362714Y-78987666D01*
X156362714Y-79178142D01*
X156324619Y-79330523D01*
X156286523Y-79406714D01*
X156248428Y-79444809D01*
X156172238Y-79482904D01*
X156096047Y-79482904D01*
X156019857Y-79444809D01*
X155981761Y-79406714D01*
X155943666Y-79330523D01*
X155905571Y-79178142D01*
X155905571Y-78987666D01*
X155943666Y-78835285D01*
X155981761Y-78759095D01*
X156019857Y-78721000D01*
X156096047Y-78682904D01*
X156705571Y-79406714D02*
X156743666Y-79444809D01*
X156705571Y-79482904D01*
X156667476Y-79444809D01*
X156705571Y-79406714D01*
X156705571Y-79482904D01*
X157467476Y-78682904D02*
X157086523Y-78682904D01*
X157048428Y-79063857D01*
X157086523Y-79025761D01*
X157162714Y-78987666D01*
X157353190Y-78987666D01*
X157429380Y-79025761D01*
X157467476Y-79063857D01*
X157505571Y-79140047D01*
X157505571Y-79330523D01*
X157467476Y-79406714D01*
X157429380Y-79444809D01*
X157353190Y-79482904D01*
X157162714Y-79482904D01*
X157086523Y-79444809D01*
X157048428Y-79406714D01*
X158191285Y-78682904D02*
X158038904Y-78682904D01*
X157962714Y-78721000D01*
X157924619Y-78759095D01*
X157848428Y-78873380D01*
X157810333Y-79025761D01*
X157810333Y-79330523D01*
X157848428Y-79406714D01*
X157886523Y-79444809D01*
X157962714Y-79482904D01*
X158115095Y-79482904D01*
X158191285Y-79444809D01*
X158229380Y-79406714D01*
X158267476Y-79330523D01*
X158267476Y-79140047D01*
X158229380Y-79063857D01*
X158191285Y-79025761D01*
X158115095Y-78987666D01*
X157962714Y-78987666D01*
X157886523Y-79025761D01*
X157848428Y-79063857D01*
X157810333Y-79140047D01*
X158572238Y-78682904D02*
X158572238Y-78835285D01*
X158877000Y-78682904D02*
X158877000Y-78835285D01*
X160286523Y-79406714D02*
X160248428Y-79444809D01*
X160134142Y-79482904D01*
X160057952Y-79482904D01*
X159943666Y-79444809D01*
X159867476Y-79368619D01*
X159829380Y-79292428D01*
X159791285Y-79140047D01*
X159791285Y-79025761D01*
X159829380Y-78873380D01*
X159867476Y-78797190D01*
X159943666Y-78721000D01*
X160057952Y-78682904D01*
X160134142Y-78682904D01*
X160248428Y-78721000D01*
X160286523Y-78759095D01*
X160629380Y-79406714D02*
X160667476Y-79444809D01*
X160629380Y-79482904D01*
X160591285Y-79444809D01*
X160629380Y-79406714D01*
X160629380Y-79482904D01*
X161010333Y-79482904D02*
X161010333Y-78682904D01*
X161467476Y-79482904D02*
X161124619Y-79025761D01*
X161467476Y-78682904D02*
X161010333Y-79140047D01*
X161810333Y-79406714D02*
X161848428Y-79444809D01*
X161810333Y-79482904D01*
X161772238Y-79444809D01*
X161810333Y-79406714D01*
X161810333Y-79482904D01*
%TO.C,D1*%
D11*
X152931904Y-102052380D02*
X152931904Y-101052380D01*
X153170000Y-101052380D01*
X153312857Y-101100000D01*
X153408095Y-101195238D01*
X153455714Y-101290476D01*
X153503333Y-101480952D01*
X153503333Y-101623809D01*
X153455714Y-101814285D01*
X153408095Y-101909523D01*
X153312857Y-102004761D01*
X153170000Y-102052380D01*
X152931904Y-102052380D01*
X154455714Y-102052380D02*
X153884285Y-102052380D01*
X154170000Y-102052380D02*
X154170000Y-101052380D01*
X154074761Y-101195238D01*
X153979523Y-101290476D01*
X153884285Y-101338095D01*
X159504095Y-102052380D02*
X159504095Y-101052380D01*
X160075523Y-102052380D02*
X159646952Y-101480952D01*
X160075523Y-101052380D02*
X159504095Y-101623809D01*
%TO.C,R1*%
X163901380Y-101766666D02*
X163425190Y-102100000D01*
X163901380Y-102338095D02*
X162901380Y-102338095D01*
X162901380Y-101957142D01*
X162949000Y-101861904D01*
X162996619Y-101814285D01*
X163091857Y-101766666D01*
X163234714Y-101766666D01*
X163329952Y-101814285D01*
X163377571Y-101861904D01*
X163425190Y-101957142D01*
X163425190Y-102338095D01*
X163901380Y-100814285D02*
X163901380Y-101385714D01*
X163901380Y-101100000D02*
X162901380Y-101100000D01*
X163044238Y-101195238D01*
X163139476Y-101290476D01*
X163187095Y-101385714D01*
X165862095Y-101052380D02*
X165671619Y-101052380D01*
X165576380Y-101100000D01*
X165528761Y-101147619D01*
X165433523Y-101290476D01*
X165385904Y-101480952D01*
X165385904Y-101861904D01*
X165433523Y-101957142D01*
X165481142Y-102004761D01*
X165576380Y-102052380D01*
X165766857Y-102052380D01*
X165862095Y-102004761D01*
X165909714Y-101957142D01*
X165957333Y-101861904D01*
X165957333Y-101623809D01*
X165909714Y-101528571D01*
X165862095Y-101480952D01*
X165766857Y-101433333D01*
X165576380Y-101433333D01*
X165481142Y-101480952D01*
X165433523Y-101528571D01*
X165385904Y-101623809D01*
X166528761Y-101480952D02*
X166433523Y-101433333D01*
X166385904Y-101385714D01*
X166338285Y-101290476D01*
X166338285Y-101242857D01*
X166385904Y-101147619D01*
X166433523Y-101100000D01*
X166528761Y-101052380D01*
X166719238Y-101052380D01*
X166814476Y-101100000D01*
X166862095Y-101147619D01*
X166909714Y-101242857D01*
X166909714Y-101290476D01*
X166862095Y-101385714D01*
X166814476Y-101433333D01*
X166719238Y-101480952D01*
X166528761Y-101480952D01*
X166433523Y-101528571D01*
X166385904Y-101576190D01*
X166338285Y-101671428D01*
X166338285Y-101861904D01*
X166385904Y-101957142D01*
X166433523Y-102004761D01*
X166528761Y-102052380D01*
X166719238Y-102052380D01*
X166814476Y-102004761D01*
X166862095Y-101957142D01*
X166909714Y-101861904D01*
X166909714Y-101671428D01*
X166862095Y-101576190D01*
X166814476Y-101528571D01*
X166719238Y-101480952D01*
X167528761Y-101052380D02*
X167624000Y-101052380D01*
X167719238Y-101100000D01*
X167766857Y-101147619D01*
X167814476Y-101242857D01*
X167862095Y-101433333D01*
X167862095Y-101671428D01*
X167814476Y-101861904D01*
X167766857Y-101957142D01*
X167719238Y-102004761D01*
X167624000Y-102052380D01*
X167528761Y-102052380D01*
X167433523Y-102004761D01*
X167385904Y-101957142D01*
X167338285Y-101861904D01*
X167290666Y-101671428D01*
X167290666Y-101433333D01*
X167338285Y-101242857D01*
X167385904Y-101147619D01*
X167433523Y-101100000D01*
X167528761Y-101052380D01*
%TO.C,SW1*%
X171005666Y-81303761D02*
X171148523Y-81351380D01*
X171386619Y-81351380D01*
X171481857Y-81303761D01*
X171529476Y-81256142D01*
X171577095Y-81160904D01*
X171577095Y-81065666D01*
X171529476Y-80970428D01*
X171481857Y-80922809D01*
X171386619Y-80875190D01*
X171196142Y-80827571D01*
X171100904Y-80779952D01*
X171053285Y-80732333D01*
X171005666Y-80637095D01*
X171005666Y-80541857D01*
X171053285Y-80446619D01*
X171100904Y-80399000D01*
X171196142Y-80351380D01*
X171434238Y-80351380D01*
X171577095Y-80399000D01*
X171910428Y-80351380D02*
X172148523Y-81351380D01*
X172339000Y-80637095D01*
X172529476Y-81351380D01*
X172767571Y-80351380D01*
X173672333Y-81351380D02*
X173100904Y-81351380D01*
X173386619Y-81351380D02*
X173386619Y-80351380D01*
X173291380Y-80494238D01*
X173196142Y-80589476D01*
X173100904Y-80637095D01*
%TO.C,R4*%
X172807333Y-89987380D02*
X172474000Y-89511190D01*
X172235904Y-89987380D02*
X172235904Y-88987380D01*
X172616857Y-88987380D01*
X172712095Y-89035000D01*
X172759714Y-89082619D01*
X172807333Y-89177857D01*
X172807333Y-89320714D01*
X172759714Y-89415952D01*
X172712095Y-89463571D01*
X172616857Y-89511190D01*
X172235904Y-89511190D01*
X173664476Y-89320714D02*
X173664476Y-89987380D01*
X173426380Y-88939761D02*
X173188285Y-89654047D01*
X173807333Y-89654047D01*
X172759714Y-93400476D02*
X173426380Y-93400476D01*
X172378761Y-93638571D02*
X173093047Y-93876666D01*
X173093047Y-93257619D01*
X173426380Y-92876666D02*
X172426380Y-92876666D01*
X173045428Y-92781428D02*
X173426380Y-92495714D01*
X172759714Y-92495714D02*
X173140666Y-92876666D01*
X172426380Y-92162380D02*
X172426380Y-91495714D01*
X173426380Y-91924285D01*
%TO.C,R2*%
X170886380Y-66841666D02*
X170410190Y-67175000D01*
X170886380Y-67413095D02*
X169886380Y-67413095D01*
X169886380Y-67032142D01*
X169934000Y-66936904D01*
X169981619Y-66889285D01*
X170076857Y-66841666D01*
X170219714Y-66841666D01*
X170314952Y-66889285D01*
X170362571Y-66936904D01*
X170410190Y-67032142D01*
X170410190Y-67413095D01*
X169981619Y-66460714D02*
X169934000Y-66413095D01*
X169886380Y-66317857D01*
X169886380Y-66079761D01*
X169934000Y-65984523D01*
X169981619Y-65936904D01*
X170076857Y-65889285D01*
X170172095Y-65889285D01*
X170314952Y-65936904D01*
X170886380Y-66508333D01*
X170886380Y-65889285D01*
X172918523Y-66460714D02*
X172918523Y-67127380D01*
X172680428Y-66079761D02*
X172442333Y-66794047D01*
X173061380Y-66794047D01*
X173442333Y-67127380D02*
X173442333Y-66127380D01*
X173537571Y-66746428D02*
X173823285Y-67127380D01*
X173823285Y-66460714D02*
X173442333Y-66841666D01*
X174156619Y-66127380D02*
X174823285Y-66127380D01*
X174394714Y-67127380D01*
%TO.C,R3*%
X170886380Y-83986666D02*
X170410190Y-84320000D01*
X170886380Y-84558095D02*
X169886380Y-84558095D01*
X169886380Y-84177142D01*
X169934000Y-84081904D01*
X169981619Y-84034285D01*
X170076857Y-83986666D01*
X170219714Y-83986666D01*
X170314952Y-84034285D01*
X170362571Y-84081904D01*
X170410190Y-84177142D01*
X170410190Y-84558095D01*
X169886380Y-83653333D02*
X169886380Y-83034285D01*
X170267333Y-83367619D01*
X170267333Y-83224761D01*
X170314952Y-83129523D01*
X170362571Y-83081904D01*
X170457809Y-83034285D01*
X170695904Y-83034285D01*
X170791142Y-83081904D01*
X170838761Y-83129523D01*
X170886380Y-83224761D01*
X170886380Y-83510476D01*
X170838761Y-83605714D01*
X170791142Y-83653333D01*
X172918523Y-83605714D02*
X172918523Y-84272380D01*
X172680428Y-83224761D02*
X172442333Y-83939047D01*
X173061380Y-83939047D01*
X173442333Y-84272380D02*
X173442333Y-83272380D01*
X173537571Y-83891428D02*
X173823285Y-84272380D01*
X173823285Y-83605714D02*
X173442333Y-83986666D01*
X174156619Y-83272380D02*
X174823285Y-83272380D01*
X174394714Y-84272380D01*
%TO.C,R5*%
X175982333Y-89987380D02*
X175649000Y-89511190D01*
X175410904Y-89987380D02*
X175410904Y-88987380D01*
X175791857Y-88987380D01*
X175887095Y-89035000D01*
X175934714Y-89082619D01*
X175982333Y-89177857D01*
X175982333Y-89320714D01*
X175934714Y-89415952D01*
X175887095Y-89463571D01*
X175791857Y-89511190D01*
X175410904Y-89511190D01*
X176887095Y-88987380D02*
X176410904Y-88987380D01*
X176363285Y-89463571D01*
X176410904Y-89415952D01*
X176506142Y-89368333D01*
X176744238Y-89368333D01*
X176839476Y-89415952D01*
X176887095Y-89463571D01*
X176934714Y-89558809D01*
X176934714Y-89796904D01*
X176887095Y-89892142D01*
X176839476Y-89939761D01*
X176744238Y-89987380D01*
X176506142Y-89987380D01*
X176410904Y-89939761D01*
X176363285Y-89892142D01*
X175934714Y-93400476D02*
X176601380Y-93400476D01*
X175553761Y-93638571D02*
X176268047Y-93876666D01*
X176268047Y-93257619D01*
X176601380Y-92876666D02*
X175601380Y-92876666D01*
X176220428Y-92781428D02*
X176601380Y-92495714D01*
X175934714Y-92495714D02*
X176315666Y-92876666D01*
X175601380Y-92162380D02*
X175601380Y-91495714D01*
X176601380Y-91924285D01*
%TD*%
M02*
