%TF.GenerationSoftware,KiCad,Pcbnew,(5.1.8)-1*%
%TF.CreationDate,2021-05-10T00:25:44+02:00*%
%TF.ProjectId,ZX Cartridge 1983,5a582043-6172-4747-9269-646765203139,rev?*%
%TF.SameCoordinates,Original*%
%TF.FileFunction,Profile,NP*%
%FSLAX46Y46*%
G04 Gerber Fmt 4.6, Leading zero omitted, Abs format (unit mm)*
G04 Created by KiCad (PCBNEW (5.1.8)-1) date 2021-05-10 00:25:44*
%MOMM*%
%LPD*%
G01*
G04 APERTURE LIST*
%TA.AperFunction,Profile*%
%ADD10C,0.025400*%
%TD*%
G04 APERTURE END LIST*
D10*
X128035000Y-111633000D02*
X121285000Y-111633000D01*
X120269000Y-110617000D02*
G75*
G03*
X121285000Y-111633000I1016000J0D01*
G01*
X128035000Y-111633000D02*
G75*
G02*
X128289000Y-111887000I0J-254000D01*
G01*
X128544320Y-120650000D02*
G75*
G02*
X128290320Y-120396000I0J254000D01*
G01*
X128289000Y-111887000D02*
X128290320Y-120396000D01*
X177165000Y-111633000D02*
G75*
G03*
X178181000Y-110617000I0J1016000D01*
G01*
X120269000Y-67945000D02*
X120269000Y-62230000D01*
X120269000Y-67945000D02*
G75*
G02*
X120269000Y-79374999I-15239999J-5715000D01*
G01*
X123444000Y-59055000D02*
X175006000Y-59055000D01*
X175006000Y-59055000D02*
G75*
G02*
X178181000Y-62230000I0J-3175000D01*
G01*
X120269000Y-62230000D02*
G75*
G02*
X123444000Y-59055000I3175000J0D01*
G01*
X156926000Y-120650000D02*
X167367000Y-120650000D01*
X167621000Y-120396000D02*
X167621000Y-111887000D01*
X167621000Y-111887000D02*
G75*
G02*
X167875000Y-111633000I254000J0D01*
G01*
X167621000Y-120396000D02*
G75*
G02*
X167367000Y-120650000I-254000J0D01*
G01*
X167875000Y-111633000D02*
X177165000Y-111633000D01*
X154224000Y-120650000D02*
X128544320Y-120650000D01*
X156672000Y-111887000D02*
X156672000Y-120396000D01*
X154732000Y-111633000D02*
X156418000Y-111633000D01*
X154478000Y-120396000D02*
X154478000Y-111887000D01*
X154478000Y-120396000D02*
G75*
G02*
X154224000Y-120650000I-254000J0D01*
G01*
X154478000Y-111887000D02*
G75*
G02*
X154732000Y-111633000I254000J0D01*
G01*
X156418000Y-111633000D02*
G75*
G02*
X156672000Y-111887000I0J-254000D01*
G01*
X156926000Y-120650000D02*
G75*
G02*
X156672000Y-120396000I0J254000D01*
G01*
X178181000Y-62230000D02*
X178181000Y-110617000D01*
X120269000Y-79374999D02*
X120269000Y-110617000D01*
M02*
