%TF.GenerationSoftware,KiCad,Pcbnew,(5.1.8)-1*%
%TF.CreationDate,2021-08-26T19:44:27+02:00*%
%TF.ProjectId,ZX Cartridge 1983,5a582043-6172-4747-9269-646765203139,rev?*%
%TF.SameCoordinates,Original*%
%TF.FileFunction,Copper,L2,Bot*%
%TF.FilePolarity,Positive*%
%FSLAX46Y46*%
G04 Gerber Fmt 4.6, Leading zero omitted, Abs format (unit mm)*
G04 Created by KiCad (PCBNEW (5.1.8)-1) date 2021-08-26 19:44:27*
%MOMM*%
%LPD*%
G01*
G04 APERTURE LIST*
%TA.AperFunction,ComponentPad*%
%ADD10R,2.400000X1.600000*%
%TD*%
%TA.AperFunction,ComponentPad*%
%ADD11O,2.400000X1.600000*%
%TD*%
%TA.AperFunction,ComponentPad*%
%ADD12C,1.600000*%
%TD*%
%TA.AperFunction,ComponentPad*%
%ADD13R,1.600000X2.400000*%
%TD*%
%TA.AperFunction,ComponentPad*%
%ADD14O,1.600000X2.400000*%
%TD*%
%TA.AperFunction,ComponentPad*%
%ADD15C,3.500000*%
%TD*%
%TA.AperFunction,ConnectorPad*%
%ADD16R,1.500000X8.000000*%
%TD*%
%TA.AperFunction,ComponentPad*%
%ADD17O,1.524000X2.524000*%
%TD*%
%TA.AperFunction,ComponentPad*%
%ADD18R,1.524000X2.524000*%
%TD*%
%TA.AperFunction,ComponentPad*%
%ADD19R,1.600000X1.600000*%
%TD*%
%TA.AperFunction,ComponentPad*%
%ADD20O,1.600000X1.600000*%
%TD*%
%TA.AperFunction,ViaPad*%
%ADD21C,0.600000*%
%TD*%
%TA.AperFunction,Conductor*%
%ADD22C,0.250000*%
%TD*%
%TA.AperFunction,Conductor*%
%ADD23C,0.381000*%
%TD*%
%TA.AperFunction,Conductor*%
%ADD24C,0.254000*%
%TD*%
%TA.AperFunction,Conductor*%
%ADD25C,0.100000*%
%TD*%
G04 APERTURE END LIST*
D10*
%TO.P,U1,1*%
%TO.N,VCC*%
X128524000Y-67310000D03*
D11*
%TO.P,U1,17*%
%TO.N,/D3*%
X143764000Y-105410000D03*
%TO.P,U1,2*%
%TO.N,/BA16*%
X128524000Y-69850000D03*
%TO.P,U1,18*%
%TO.N,/D4*%
X143764000Y-102870000D03*
D10*
%TO.P,U1,3*%
%TO.N,/BA15*%
X128524000Y-72390000D03*
D11*
%TO.P,U1,19*%
%TO.N,/D5*%
X143764000Y-100330000D03*
%TO.P,U1,4*%
%TO.N,/A12*%
X128524000Y-74930000D03*
%TO.P,U1,20*%
%TO.N,/D6*%
X143764000Y-97790000D03*
%TO.P,U1,5*%
%TO.N,/A7*%
X128524000Y-77470000D03*
%TO.P,U1,21*%
%TO.N,/D7*%
X143764000Y-95250000D03*
%TO.P,U1,6*%
%TO.N,/A6*%
X128524000Y-80010000D03*
%TO.P,U1,22*%
%TO.N,/~MREQ*%
X143764000Y-92710000D03*
%TO.P,U1,7*%
%TO.N,/A5*%
X128524000Y-82550000D03*
%TO.P,U1,23*%
%TO.N,/A10*%
X143764000Y-90170000D03*
%TO.P,U1,8*%
%TO.N,/A4*%
X128524000Y-85090000D03*
%TO.P,U1,24*%
%TO.N,/~ROM_OE*%
X143764000Y-87630000D03*
%TO.P,U1,9*%
%TO.N,/A3*%
X128524000Y-87630000D03*
%TO.P,U1,25*%
%TO.N,/A11*%
X143764000Y-85090000D03*
%TO.P,U1,10*%
%TO.N,/A2*%
X128524000Y-90170000D03*
%TO.P,U1,26*%
%TO.N,/A9*%
X143764000Y-82550000D03*
%TO.P,U1,11*%
%TO.N,/A1*%
X128524000Y-92710000D03*
%TO.P,U1,27*%
%TO.N,/A8*%
X143764000Y-80010000D03*
%TO.P,U1,12*%
%TO.N,/A0*%
X128524000Y-95250000D03*
%TO.P,U1,28*%
%TO.N,/A13*%
X143764000Y-77470000D03*
%TO.P,U1,13*%
%TO.N,/D0*%
X128524000Y-97790000D03*
%TO.P,U1,29*%
%TO.N,/BA14*%
X143764000Y-74930000D03*
%TO.P,U1,14*%
%TO.N,/D1*%
X128524000Y-100330000D03*
%TO.P,U1,30*%
%TO.N,/BA17*%
X143764000Y-72390000D03*
%TO.P,U1,15*%
%TO.N,/D2*%
X128524000Y-102870000D03*
%TO.P,U1,31*%
%TO.N,VCC*%
X143764000Y-69850000D03*
%TO.P,U1,16*%
%TO.N,GND*%
X128524000Y-105410000D03*
%TO.P,U1,32*%
%TO.N,VCC*%
X143764000Y-67310000D03*
%TD*%
D12*
%TO.P,C2,1*%
%TO.N,VCC*%
X147574000Y-88900000D03*
%TO.P,C2,2*%
%TO.N,GND*%
X147574000Y-93900000D03*
%TD*%
D13*
%TO.P,U2,1*%
%TO.N,Net-(AFF1-Pad1)*%
X151384000Y-95250000D03*
D14*
%TO.P,U2,9*%
%TO.N,/BA16*%
X169164000Y-87630000D03*
%TO.P,U2,2*%
%TO.N,Net-(AFF1-Pad9)*%
X153924000Y-95250000D03*
%TO.P,U2,10*%
%TO.N,Net-(JP2-Pad1)*%
X166624000Y-87630000D03*
%TO.P,U2,3*%
%TO.N,Net-(AFF1-Pad10)*%
X156464000Y-95250000D03*
%TO.P,U2,11*%
%TO.N,N/C*%
X164084000Y-87630000D03*
%TO.P,U2,4*%
X159004000Y-95250000D03*
%TO.P,U2,12*%
%TO.N,Net-(AFF1-Pad7)*%
X161544000Y-87630000D03*
%TO.P,U2,5*%
%TO.N,/BA14*%
X161544000Y-95250000D03*
%TO.P,U2,13*%
%TO.N,Net-(AFF1-Pad6)*%
X159004000Y-87630000D03*
%TO.P,U2,6*%
%TO.N,/BA15*%
X164084000Y-95250000D03*
%TO.P,U2,14*%
%TO.N,Net-(AFF1-Pad4)*%
X156464000Y-87630000D03*
%TO.P,U2,7*%
%TO.N,/~MREQ*%
X166624000Y-95250000D03*
%TO.P,U2,15*%
%TO.N,Net-(AFF1-Pad2)*%
X153924000Y-87630000D03*
%TO.P,U2,8*%
%TO.N,GND*%
X169164000Y-95250000D03*
%TO.P,U2,16*%
%TO.N,VCC*%
X151384000Y-87630000D03*
%TD*%
D12*
%TO.P,C1,1*%
%TO.N,VCC*%
X147574000Y-69850000D03*
%TO.P,C1,2*%
%TO.N,GND*%
X147574000Y-74850000D03*
%TD*%
D15*
%TO.P,M1,1*%
%TO.N,N/C*%
X123444000Y-100330000D03*
%TD*%
%TO.P,M2,1*%
%TO.N,N/C*%
X175011000Y-100330000D03*
%TD*%
%TO.P,M3,1*%
%TO.N,N/C*%
X175011000Y-62230000D03*
%TD*%
%TO.P,M4,1*%
%TO.N,N/C*%
X123444000Y-62230000D03*
%TD*%
D16*
%TO.P,J1,B1*%
%TO.N,GND*%
X130175000Y-125578000D03*
%TO.P,J1,B2*%
%TO.N,/D2*%
X132715000Y-125578000D03*
%TO.P,J1,B3*%
%TO.N,/D1*%
X135255000Y-125578000D03*
%TO.P,J1,B4*%
%TO.N,/D0*%
X137795000Y-125578000D03*
%TO.P,J1,B5*%
%TO.N,/A0*%
X140335000Y-125578000D03*
%TO.P,J1,B6*%
%TO.N,/A1*%
X142875000Y-125578000D03*
%TO.P,J1,B7*%
%TO.N,/A2*%
X145415000Y-125578000D03*
%TO.P,J1,B8*%
%TO.N,/A3*%
X147955000Y-125578000D03*
%TO.P,J1,B9*%
%TO.N,/A4*%
X150495000Y-125578000D03*
%TO.P,J1,B10*%
%TO.N,/A5*%
X153035000Y-125578000D03*
%TO.P,J1,B12*%
%TO.N,/A6*%
X158115000Y-125578000D03*
%TO.P,J1,B13*%
%TO.N,/A7*%
X160655000Y-125578000D03*
%TO.P,J1,B14*%
%TO.N,/A12*%
X163195000Y-125578000D03*
%TO.P,J1,B15*%
%TO.N,VCC*%
X165735000Y-125578000D03*
%TD*%
D17*
%TO.P,AFF1,10*%
%TO.N,Net-(AFF1-Pad10)*%
X155194000Y-67310000D03*
%TO.P,AFF1,9*%
%TO.N,Net-(AFF1-Pad9)*%
X157734000Y-67310000D03*
%TO.P,AFF1,8*%
%TO.N,GND*%
X160274000Y-67310000D03*
%TO.P,AFF1,7*%
%TO.N,Net-(AFF1-Pad7)*%
X162814000Y-67310000D03*
%TO.P,AFF1,6*%
%TO.N,Net-(AFF1-Pad6)*%
X165354000Y-67310000D03*
%TO.P,AFF1,5*%
%TO.N,N/C*%
X165354000Y-82550000D03*
%TO.P,AFF1,4*%
%TO.N,Net-(AFF1-Pad4)*%
X162814000Y-82550000D03*
%TO.P,AFF1,3*%
%TO.N,GND*%
X160274000Y-82550000D03*
%TO.P,AFF1,2*%
%TO.N,Net-(AFF1-Pad2)*%
X157734000Y-82550000D03*
D18*
%TO.P,AFF1,1*%
%TO.N,Net-(AFF1-Pad1)*%
X155194000Y-82550000D03*
%TD*%
D19*
%TO.P,D1,1*%
%TO.N,/~ROM_OE*%
X157734000Y-101600000D03*
D20*
%TO.P,D1,2*%
%TO.N,/A14*%
X150114000Y-101600000D03*
%TD*%
D12*
%TO.P,R1,1*%
%TO.N,/A15*%
X170434000Y-101600000D03*
D20*
%TO.P,R1,2*%
%TO.N,/~ROM_OE*%
X160274000Y-101600000D03*
%TD*%
D19*
%TO.P,SW1,1*%
%TO.N,GND*%
X168529000Y-71755000D03*
D20*
%TO.P,SW1,5*%
%TO.N,Net-(JP2-Pad1)*%
X176149000Y-79375000D03*
%TO.P,SW1,2*%
%TO.N,GND*%
X168529000Y-74295000D03*
%TO.P,SW1,6*%
%TO.N,/BA16*%
X176149000Y-76835000D03*
%TO.P,SW1,3*%
%TO.N,GND*%
X168529000Y-76835000D03*
%TO.P,SW1,7*%
%TO.N,/BA15*%
X176149000Y-74295000D03*
%TO.P,SW1,4*%
%TO.N,GND*%
X168529000Y-79375000D03*
%TO.P,SW1,8*%
%TO.N,/BA14*%
X176149000Y-71755000D03*
%TD*%
D12*
%TO.P,R4,1*%
%TO.N,VCC*%
X172974000Y-95250000D03*
D20*
%TO.P,R4,2*%
%TO.N,/BA16*%
X172974000Y-87630000D03*
%TD*%
D12*
%TO.P,R2,1*%
%TO.N,VCC*%
X176149000Y-66675000D03*
D20*
%TO.P,R2,2*%
%TO.N,/BA14*%
X168529000Y-66675000D03*
%TD*%
%TO.P,R3,2*%
%TO.N,/BA15*%
X168529000Y-83820000D03*
D12*
%TO.P,R3,1*%
%TO.N,VCC*%
X176149000Y-83820000D03*
%TD*%
%TO.P,R5,1*%
%TO.N,VCC*%
X176149000Y-95250000D03*
D20*
%TO.P,R5,2*%
%TO.N,Net-(JP2-Pad1)*%
X176149000Y-87630000D03*
%TD*%
D21*
%TO.N,/A10*%
X136144000Y-90805000D03*
X145415000Y-115951000D03*
%TO.N,/A11*%
X137414000Y-85725000D03*
X147447022Y-115951000D03*
%TO.N,/A9*%
X138049000Y-83185000D03*
X148463008Y-115951000D03*
%TO.N,/A8*%
X140589000Y-80645000D03*
X153924000Y-107315000D03*
%TO.N,GND*%
X127889000Y-109220000D03*
%TO.N,VCC*%
X165735000Y-108839000D03*
%TO.N,/A13*%
X141224000Y-78105000D03*
X141224000Y-93345000D03*
%TO.N,/~MREQ*%
X136779000Y-93344992D03*
X146431000Y-115950986D03*
%TO.N,Net-(AFF1-Pad10)*%
X152654000Y-82550000D03*
%TO.N,Net-(AFF1-Pad9)*%
X153289000Y-83185000D03*
%TO.N,Net-(AFF1-Pad7)*%
X161544000Y-80010000D03*
%TO.N,Net-(AFF1-Pad6)*%
X156464000Y-80010000D03*
%TO.N,Net-(AFF1-Pad1)*%
X152001244Y-89517244D03*
%TO.N,/~ROM_OE*%
X145669000Y-93345000D03*
%TO.N,Net-(JP2-Pad1)*%
X174244000Y-73660000D03*
X174244000Y-79375000D03*
X155194000Y-74295000D03*
X162179000Y-74295000D03*
X174244000Y-85725000D03*
%TO.N,/BA14*%
X155829000Y-76200000D03*
%TO.N,/BA15*%
X152529558Y-80645000D03*
X154559000Y-80645000D03*
%TD*%
D22*
%TO.N,/A12*%
X128524000Y-74930000D02*
X132969000Y-74930000D01*
X139954000Y-98425000D02*
X140589000Y-99060000D01*
X132969000Y-74930000D02*
X139954000Y-81915000D01*
X139954000Y-81915000D02*
X139954000Y-98425000D01*
X140589000Y-99060000D02*
X145669000Y-99060000D01*
X163195000Y-112141000D02*
X163195000Y-116078000D01*
X145669000Y-99060000D02*
X146304000Y-99695000D01*
X146304000Y-99695000D02*
X146304000Y-102870000D01*
X146304000Y-102870000D02*
X151384000Y-107950000D01*
X151384000Y-107950000D02*
X159004000Y-107950000D01*
X159004000Y-107950000D02*
X163195000Y-112141000D01*
X163195000Y-116078000D02*
X163195000Y-125578000D01*
%TO.N,/A7*%
X128524000Y-77470000D02*
X134555795Y-77470000D01*
X139319000Y-82233205D02*
X139319000Y-100965000D01*
X134555795Y-77470000D02*
X139319000Y-82233205D01*
X139319000Y-100965000D02*
X139954000Y-101600000D01*
X160655000Y-112141000D02*
X160655000Y-116078000D01*
X139954000Y-101600000D02*
X145034000Y-101600000D01*
X157099000Y-108585000D02*
X160655000Y-112141000D01*
X145034000Y-101600000D02*
X145669000Y-102235000D01*
X145669000Y-102235000D02*
X145669000Y-103505000D01*
X145669000Y-103505000D02*
X150749000Y-108585000D01*
X160655000Y-116078000D02*
X160655000Y-125578000D01*
X150749000Y-108585000D02*
X157099000Y-108585000D01*
%TO.N,/A6*%
X158115000Y-120523000D02*
X158115000Y-125578000D01*
X128524000Y-80010000D02*
X136141180Y-80010000D01*
X138684000Y-82552820D02*
X138684000Y-105156000D01*
X136141180Y-80010000D02*
X138684000Y-82552820D01*
X157607000Y-120015000D02*
X158115000Y-120523000D01*
X138684000Y-105156000D02*
X153543000Y-120015000D01*
X153543000Y-120015000D02*
X157607000Y-120015000D01*
%TO.N,/A5*%
X135509000Y-107061000D02*
X145923000Y-117475000D01*
X135509000Y-88085000D02*
X135509000Y-107061000D01*
X128524000Y-82550000D02*
X129974000Y-82550000D01*
X129974000Y-82550000D02*
X135509000Y-88085000D01*
X145923000Y-117475000D02*
X149182000Y-117475000D01*
X149182000Y-117475000D02*
X153035000Y-121328000D01*
X153035000Y-121328000D02*
X153035000Y-125578000D01*
%TO.N,/A4*%
X150495000Y-120015000D02*
X150495000Y-125578000D01*
X148971000Y-118491000D02*
X150495000Y-120015000D01*
X134874000Y-107442000D02*
X145923000Y-118491000D01*
X145923000Y-118491000D02*
X148971000Y-118491000D01*
X129159000Y-85090000D02*
X134874000Y-90805000D01*
X134874000Y-90805000D02*
X134874000Y-107442000D01*
X128524000Y-85090000D02*
X129159000Y-85090000D01*
%TO.N,/A3*%
X134239000Y-107823000D02*
X135255000Y-108839000D01*
X134239000Y-92710000D02*
X134239000Y-107823000D01*
X129159000Y-87630000D02*
X134239000Y-92710000D01*
X128524000Y-87630000D02*
X129159000Y-87630000D01*
X145923000Y-119507000D02*
X147447000Y-119507000D01*
X147447000Y-119507000D02*
X147955000Y-120015000D01*
X135255000Y-108839000D02*
X145923000Y-119507000D01*
X147955000Y-120015000D02*
X147955000Y-125578000D01*
%TO.N,/A10*%
X136779000Y-107315000D02*
X136144000Y-106680000D01*
X136144000Y-106680000D02*
X136144000Y-90805000D01*
X136779000Y-107315000D02*
X145415000Y-115951000D01*
%TO.N,/A2*%
X145415000Y-120015000D02*
X145415000Y-125578000D01*
X133604000Y-108204000D02*
X145415000Y-120015000D01*
X133604000Y-94615000D02*
X133604000Y-108204000D01*
X129159000Y-90170000D02*
X133604000Y-94615000D01*
X128524000Y-90170000D02*
X129159000Y-90170000D01*
%TO.N,/A1*%
X142875000Y-118491000D02*
X142875000Y-125578000D01*
X132969000Y-108585000D02*
X142875000Y-118491000D01*
X132969000Y-96430000D02*
X132969000Y-108585000D01*
X129249000Y-92710000D02*
X132969000Y-96430000D01*
X128524000Y-92710000D02*
X129249000Y-92710000D01*
%TO.N,/A11*%
X137414000Y-105917978D02*
X147447022Y-115951000D01*
X137414000Y-85725000D02*
X137414000Y-105917978D01*
%TO.N,/A0*%
X140335000Y-116967000D02*
X140335000Y-125578000D01*
X132334000Y-108966000D02*
X140335000Y-116967000D01*
X132334000Y-98425000D02*
X132334000Y-108966000D01*
X129159000Y-95250000D02*
X132334000Y-98425000D01*
X128524000Y-95250000D02*
X129159000Y-95250000D01*
%TO.N,/A9*%
X138049000Y-83185000D02*
X138049000Y-105536992D01*
X138049000Y-105536992D02*
X148463008Y-115951000D01*
%TO.N,/A8*%
X140589000Y-80645000D02*
X140589000Y-95250000D01*
X140589000Y-95250000D02*
X140589000Y-95885000D01*
X140589000Y-95885000D02*
X141224000Y-96520000D01*
X141224000Y-96520000D02*
X145669000Y-96520000D01*
X145669000Y-96520000D02*
X146939000Y-97790000D01*
X146939000Y-97790000D02*
X146939000Y-102235000D01*
X152019000Y-107315000D02*
X153924000Y-107315000D01*
X146939000Y-102235000D02*
X152019000Y-107315000D01*
D23*
%TO.N,GND*%
X130175000Y-111506000D02*
X127889000Y-109220000D01*
X130175000Y-116078000D02*
X130175000Y-111506000D01*
X130175000Y-116078000D02*
X130175000Y-125578000D01*
%TO.N,VCC*%
X148844000Y-87630000D02*
X147574000Y-88900000D01*
X151384000Y-87630000D02*
X148844000Y-87630000D01*
X165735000Y-116078000D02*
X165735000Y-108839000D01*
X165735000Y-116078000D02*
X165735000Y-125578000D01*
D22*
%TO.N,/D2*%
X129794000Y-102870000D02*
X128524000Y-102870000D01*
X130429000Y-103505000D02*
X129794000Y-102870000D01*
X130429000Y-110016000D02*
X130429000Y-103505000D01*
X132715000Y-112302000D02*
X130429000Y-110016000D01*
X132715000Y-116078000D02*
X132715000Y-112302000D01*
X132715000Y-116078000D02*
X132715000Y-125578000D01*
%TO.N,/D1*%
X131064000Y-102235000D02*
X129159000Y-100330000D01*
X131064000Y-109728000D02*
X131064000Y-102235000D01*
X135255000Y-113919000D02*
X131064000Y-109728000D01*
X129159000Y-100330000D02*
X128524000Y-100330000D01*
X135255000Y-125578000D02*
X135255000Y-113919000D01*
%TO.N,/D0*%
X137795000Y-115951000D02*
X137795000Y-125578000D01*
X137795000Y-116078000D02*
X137795000Y-115951000D01*
X129159000Y-97790000D02*
X128524000Y-97790000D01*
X131699000Y-100330000D02*
X129159000Y-97790000D01*
X131699000Y-109347000D02*
X131699000Y-100330000D01*
X137795000Y-115443000D02*
X131699000Y-109347000D01*
X137795000Y-115951000D02*
X137795000Y-115443000D01*
%TO.N,/A13*%
X141224000Y-78105000D02*
X141224000Y-93345000D01*
%TO.N,/~MREQ*%
X136779000Y-93344992D02*
X136779000Y-106298986D01*
X136779000Y-106298986D02*
X146431000Y-115950986D01*
%TO.N,Net-(AFF1-Pad10)*%
X152654000Y-96520000D02*
X153289000Y-97155000D01*
X153289000Y-97155000D02*
X155829000Y-97155000D01*
X155829000Y-97155000D02*
X156464000Y-96520000D01*
X156464000Y-96520000D02*
X156464000Y-95250000D01*
X152654000Y-82550000D02*
X152654000Y-96520000D01*
%TO.N,Net-(AFF1-Pad9)*%
X153924000Y-95250000D02*
X153924000Y-90170000D01*
X153924000Y-90170000D02*
X155194000Y-88900000D01*
X155194000Y-88900000D02*
X155194000Y-86360000D01*
X155194000Y-86360000D02*
X153289000Y-84455000D01*
X153289000Y-84455000D02*
X153289000Y-83185000D01*
%TO.N,Net-(AFF1-Pad7)*%
X161544000Y-87630000D02*
X161544000Y-80010000D01*
%TO.N,Net-(AFF1-Pad6)*%
X159004000Y-87630000D02*
X159004000Y-86180000D01*
X159004000Y-86180000D02*
X156464000Y-83640000D01*
X156464000Y-83640000D02*
X156464000Y-80010000D01*
%TO.N,Net-(AFF1-Pad1)*%
X151384000Y-95250000D02*
X151384000Y-90134488D01*
X151384000Y-90134488D02*
X152001244Y-89517244D01*
%TO.N,/~ROM_OE*%
X143764000Y-87630000D02*
X145034000Y-87630000D01*
X145669000Y-88265000D02*
X145669000Y-93345000D01*
X145034000Y-87630000D02*
X145669000Y-88265000D01*
%TO.N,Net-(JP2-Pad1)*%
X174244000Y-73660000D02*
X174244000Y-79375000D01*
X155194000Y-74295000D02*
X162179000Y-74295000D01*
X166624000Y-87630000D02*
X166624000Y-86360000D01*
X166624000Y-86360000D02*
X167259000Y-85725000D01*
X167259000Y-85725000D02*
X174244000Y-85725000D01*
%TO.N,/BA14*%
X161544000Y-95250000D02*
X161544000Y-90170000D01*
X161544000Y-90170000D02*
X160274000Y-88900000D01*
X160274000Y-88900000D02*
X160274000Y-85725000D01*
X160274000Y-85725000D02*
X159004000Y-84455000D01*
X159004000Y-84455000D02*
X159004000Y-76835000D01*
X159004000Y-76835000D02*
X158369000Y-76200000D01*
X158369000Y-76200000D02*
X155829000Y-76200000D01*
%TO.N,/BA15*%
X152529558Y-80645000D02*
X154559000Y-80645000D01*
X165354000Y-93980000D02*
X164084000Y-95250000D01*
X165354000Y-86360000D02*
X165354000Y-93980000D01*
X167894000Y-83820000D02*
X165354000Y-86360000D01*
X168529000Y-83820000D02*
X167894000Y-83820000D01*
%TD*%
D24*
%TO.N,GND*%
X175595429Y-59253166D02*
X176162406Y-59424347D01*
X176685339Y-59702396D01*
X177144302Y-60076716D01*
X177521821Y-60533060D01*
X177803513Y-61054038D01*
X177978645Y-61619802D01*
X178041246Y-62215403D01*
X178041297Y-62230197D01*
X178041298Y-110610159D01*
X178023951Y-110787074D01*
X177974556Y-110950679D01*
X177894330Y-111101562D01*
X177786318Y-111233998D01*
X177654644Y-111342928D01*
X177504320Y-111424208D01*
X177341072Y-111474741D01*
X177164531Y-111493297D01*
X167868146Y-111493297D01*
X167862135Y-111493889D01*
X167860566Y-111493878D01*
X167858624Y-111494068D01*
X167809322Y-111499250D01*
X167796904Y-111501799D01*
X167784482Y-111504169D01*
X167782614Y-111504733D01*
X167735259Y-111519392D01*
X167723606Y-111524291D01*
X167711849Y-111529041D01*
X167710127Y-111529957D01*
X167666520Y-111553534D01*
X167656013Y-111560621D01*
X167645426Y-111567549D01*
X167643914Y-111568782D01*
X167605718Y-111600381D01*
X167596816Y-111609346D01*
X167587750Y-111618224D01*
X167586506Y-111619727D01*
X167555175Y-111658143D01*
X167548150Y-111668717D01*
X167541017Y-111679135D01*
X167540088Y-111680851D01*
X167516815Y-111724620D01*
X167511978Y-111736355D01*
X167507002Y-111747965D01*
X167506425Y-111749829D01*
X167492097Y-111797285D01*
X167489641Y-111809687D01*
X167487005Y-111822092D01*
X167486801Y-111824032D01*
X167481964Y-111873369D01*
X167481964Y-111873383D01*
X167481298Y-111880146D01*
X167481298Y-112268000D01*
X166252500Y-112268000D01*
X166252500Y-109193077D01*
X166290640Y-109135996D01*
X166337905Y-109021889D01*
X166362000Y-108900754D01*
X166362000Y-108777246D01*
X166337905Y-108656111D01*
X166290640Y-108542004D01*
X166222023Y-108439311D01*
X166134689Y-108351977D01*
X166031996Y-108283360D01*
X165917889Y-108236095D01*
X165796754Y-108212000D01*
X165673246Y-108212000D01*
X165552111Y-108236095D01*
X165438004Y-108283360D01*
X165335311Y-108351977D01*
X165247977Y-108439311D01*
X165179360Y-108542004D01*
X165132095Y-108656111D01*
X165108000Y-108777246D01*
X165108000Y-108900754D01*
X165132095Y-109021889D01*
X165179360Y-109135996D01*
X165217501Y-109193078D01*
X165217501Y-112268000D01*
X163647000Y-112268000D01*
X163647000Y-112163204D01*
X163649187Y-112140999D01*
X163640460Y-112052392D01*
X163614614Y-111967190D01*
X163593457Y-111927608D01*
X163572643Y-111888667D01*
X163516159Y-111819841D01*
X163498906Y-111805682D01*
X159339323Y-107646100D01*
X159325159Y-107628841D01*
X159256333Y-107572357D01*
X159177810Y-107530386D01*
X159092607Y-107504540D01*
X159026205Y-107498000D01*
X159004000Y-107495813D01*
X158981795Y-107498000D01*
X154526859Y-107498000D01*
X154526905Y-107497889D01*
X154551000Y-107376754D01*
X154551000Y-107253246D01*
X154526905Y-107132111D01*
X154479640Y-107018004D01*
X154411023Y-106915311D01*
X154323689Y-106827977D01*
X154220996Y-106759360D01*
X154106889Y-106712095D01*
X153985754Y-106688000D01*
X153862246Y-106688000D01*
X153741111Y-106712095D01*
X153627004Y-106759360D01*
X153524311Y-106827977D01*
X153489288Y-106863000D01*
X152206224Y-106863000D01*
X147391000Y-102047777D01*
X147391000Y-101489000D01*
X148987000Y-101489000D01*
X148987000Y-101711000D01*
X149030310Y-101928734D01*
X149115266Y-102133835D01*
X149238602Y-102318421D01*
X149395579Y-102475398D01*
X149580165Y-102598734D01*
X149785266Y-102683690D01*
X150003000Y-102727000D01*
X150225000Y-102727000D01*
X150442734Y-102683690D01*
X150647835Y-102598734D01*
X150832421Y-102475398D01*
X150989398Y-102318421D01*
X151112734Y-102133835D01*
X151197690Y-101928734D01*
X151241000Y-101711000D01*
X151241000Y-101489000D01*
X151197690Y-101271266D01*
X151112734Y-101066165D01*
X150989398Y-100881579D01*
X150907819Y-100800000D01*
X156605418Y-100800000D01*
X156605418Y-102400000D01*
X156611732Y-102464103D01*
X156630430Y-102525743D01*
X156660794Y-102582550D01*
X156701657Y-102632343D01*
X156751450Y-102673206D01*
X156808257Y-102703570D01*
X156869897Y-102722268D01*
X156934000Y-102728582D01*
X158534000Y-102728582D01*
X158598103Y-102722268D01*
X158659743Y-102703570D01*
X158716550Y-102673206D01*
X158766343Y-102632343D01*
X158807206Y-102582550D01*
X158837570Y-102525743D01*
X158856268Y-102464103D01*
X158862582Y-102400000D01*
X158862582Y-101489000D01*
X159147000Y-101489000D01*
X159147000Y-101711000D01*
X159190310Y-101928734D01*
X159275266Y-102133835D01*
X159398602Y-102318421D01*
X159555579Y-102475398D01*
X159740165Y-102598734D01*
X159945266Y-102683690D01*
X160163000Y-102727000D01*
X160385000Y-102727000D01*
X160602734Y-102683690D01*
X160807835Y-102598734D01*
X160992421Y-102475398D01*
X161149398Y-102318421D01*
X161272734Y-102133835D01*
X161357690Y-101928734D01*
X161401000Y-101711000D01*
X161401000Y-101489000D01*
X169307000Y-101489000D01*
X169307000Y-101711000D01*
X169350310Y-101928734D01*
X169435266Y-102133835D01*
X169558602Y-102318421D01*
X169715579Y-102475398D01*
X169900165Y-102598734D01*
X170105266Y-102683690D01*
X170323000Y-102727000D01*
X170545000Y-102727000D01*
X170762734Y-102683690D01*
X170967835Y-102598734D01*
X171152421Y-102475398D01*
X171309398Y-102318421D01*
X171432734Y-102133835D01*
X171517690Y-101928734D01*
X171561000Y-101711000D01*
X171561000Y-101489000D01*
X171517690Y-101271266D01*
X171432734Y-101066165D01*
X171309398Y-100881579D01*
X171152421Y-100724602D01*
X170967835Y-100601266D01*
X170762734Y-100516310D01*
X170545000Y-100473000D01*
X170323000Y-100473000D01*
X170105266Y-100516310D01*
X169900165Y-100601266D01*
X169715579Y-100724602D01*
X169558602Y-100881579D01*
X169435266Y-101066165D01*
X169350310Y-101271266D01*
X169307000Y-101489000D01*
X161401000Y-101489000D01*
X161357690Y-101271266D01*
X161272734Y-101066165D01*
X161149398Y-100881579D01*
X160992421Y-100724602D01*
X160807835Y-100601266D01*
X160602734Y-100516310D01*
X160385000Y-100473000D01*
X160163000Y-100473000D01*
X159945266Y-100516310D01*
X159740165Y-100601266D01*
X159555579Y-100724602D01*
X159398602Y-100881579D01*
X159275266Y-101066165D01*
X159190310Y-101271266D01*
X159147000Y-101489000D01*
X158862582Y-101489000D01*
X158862582Y-100800000D01*
X158856268Y-100735897D01*
X158837570Y-100674257D01*
X158807206Y-100617450D01*
X158766343Y-100567657D01*
X158716550Y-100526794D01*
X158659743Y-100496430D01*
X158598103Y-100477732D01*
X158534000Y-100471418D01*
X156934000Y-100471418D01*
X156869897Y-100477732D01*
X156808257Y-100496430D01*
X156751450Y-100526794D01*
X156701657Y-100567657D01*
X156660794Y-100617450D01*
X156630430Y-100674257D01*
X156611732Y-100735897D01*
X156605418Y-100800000D01*
X150907819Y-100800000D01*
X150832421Y-100724602D01*
X150647835Y-100601266D01*
X150442734Y-100516310D01*
X150225000Y-100473000D01*
X150003000Y-100473000D01*
X149785266Y-100516310D01*
X149580165Y-100601266D01*
X149395579Y-100724602D01*
X149238602Y-100881579D01*
X149115266Y-101066165D01*
X149030310Y-101271266D01*
X148987000Y-101489000D01*
X147391000Y-101489000D01*
X147391000Y-100125433D01*
X172934000Y-100125433D01*
X172934000Y-100534567D01*
X173013818Y-100935839D01*
X173170386Y-101313829D01*
X173397689Y-101654011D01*
X173686989Y-101943311D01*
X174027171Y-102170614D01*
X174405161Y-102327182D01*
X174806433Y-102407000D01*
X175215567Y-102407000D01*
X175616839Y-102327182D01*
X175994829Y-102170614D01*
X176335011Y-101943311D01*
X176624311Y-101654011D01*
X176851614Y-101313829D01*
X177008182Y-100935839D01*
X177088000Y-100534567D01*
X177088000Y-100125433D01*
X177008182Y-99724161D01*
X176851614Y-99346171D01*
X176624311Y-99005989D01*
X176335011Y-98716689D01*
X175994829Y-98489386D01*
X175616839Y-98332818D01*
X175215567Y-98253000D01*
X174806433Y-98253000D01*
X174405161Y-98332818D01*
X174027171Y-98489386D01*
X173686989Y-98716689D01*
X173397689Y-99005989D01*
X173170386Y-99346171D01*
X173013818Y-99724161D01*
X172934000Y-100125433D01*
X147391000Y-100125433D01*
X147391000Y-97812204D01*
X147393187Y-97789999D01*
X147384460Y-97701392D01*
X147378444Y-97681562D01*
X147358614Y-97616190D01*
X147316643Y-97537667D01*
X147260159Y-97468841D01*
X147242912Y-97454687D01*
X146004323Y-96216100D01*
X145990159Y-96198841D01*
X145921333Y-96142357D01*
X145842810Y-96100386D01*
X145757607Y-96074540D01*
X145691205Y-96068000D01*
X145669000Y-96065813D01*
X145646795Y-96068000D01*
X144943764Y-96068000D01*
X144964765Y-96050765D01*
X145105600Y-95879157D01*
X145210250Y-95683371D01*
X145274693Y-95470931D01*
X145296453Y-95250000D01*
X145274693Y-95029069D01*
X145233327Y-94892702D01*
X146760903Y-94892702D01*
X146832486Y-95136671D01*
X147087996Y-95257571D01*
X147362184Y-95326300D01*
X147644512Y-95340217D01*
X147924130Y-95298787D01*
X148190292Y-95203603D01*
X148315514Y-95136671D01*
X148387097Y-94892702D01*
X147574000Y-94079605D01*
X146760903Y-94892702D01*
X145233327Y-94892702D01*
X145210250Y-94816629D01*
X145105600Y-94620843D01*
X144964765Y-94449235D01*
X144793157Y-94308400D01*
X144597371Y-94203750D01*
X144384931Y-94139307D01*
X144219365Y-94123000D01*
X143308635Y-94123000D01*
X143143069Y-94139307D01*
X142930629Y-94203750D01*
X142734843Y-94308400D01*
X142563235Y-94449235D01*
X142422400Y-94620843D01*
X142317750Y-94816629D01*
X142253307Y-95029069D01*
X142231547Y-95250000D01*
X142253307Y-95470931D01*
X142317750Y-95683371D01*
X142422400Y-95879157D01*
X142563235Y-96050765D01*
X142584236Y-96068000D01*
X141411224Y-96068000D01*
X141041000Y-95697777D01*
X141041000Y-93947859D01*
X141041111Y-93947905D01*
X141162246Y-93972000D01*
X141285754Y-93972000D01*
X141406889Y-93947905D01*
X141520996Y-93900640D01*
X141623689Y-93832023D01*
X141711023Y-93744689D01*
X141779640Y-93641996D01*
X141826905Y-93527889D01*
X141851000Y-93406754D01*
X141851000Y-93283246D01*
X141826905Y-93162111D01*
X141779640Y-93048004D01*
X141711023Y-92945311D01*
X141676000Y-92910288D01*
X141676000Y-87630000D01*
X142231547Y-87630000D01*
X142253307Y-87850931D01*
X142317750Y-88063371D01*
X142422400Y-88259157D01*
X142563235Y-88430765D01*
X142734843Y-88571600D01*
X142930629Y-88676250D01*
X143143069Y-88740693D01*
X143308635Y-88757000D01*
X144219365Y-88757000D01*
X144384931Y-88740693D01*
X144597371Y-88676250D01*
X144793157Y-88571600D01*
X144964765Y-88430765D01*
X145068788Y-88304012D01*
X145217000Y-88452224D01*
X145217000Y-89758882D01*
X145210250Y-89736629D01*
X145105600Y-89540843D01*
X144964765Y-89369235D01*
X144793157Y-89228400D01*
X144597371Y-89123750D01*
X144384931Y-89059307D01*
X144219365Y-89043000D01*
X143308635Y-89043000D01*
X143143069Y-89059307D01*
X142930629Y-89123750D01*
X142734843Y-89228400D01*
X142563235Y-89369235D01*
X142422400Y-89540843D01*
X142317750Y-89736629D01*
X142253307Y-89949069D01*
X142231547Y-90170000D01*
X142253307Y-90390931D01*
X142317750Y-90603371D01*
X142422400Y-90799157D01*
X142563235Y-90970765D01*
X142734843Y-91111600D01*
X142930629Y-91216250D01*
X143143069Y-91280693D01*
X143308635Y-91297000D01*
X144219365Y-91297000D01*
X144384931Y-91280693D01*
X144597371Y-91216250D01*
X144793157Y-91111600D01*
X144964765Y-90970765D01*
X145105600Y-90799157D01*
X145210250Y-90603371D01*
X145217000Y-90581118D01*
X145217001Y-92298883D01*
X145210250Y-92276629D01*
X145105600Y-92080843D01*
X144964765Y-91909235D01*
X144793157Y-91768400D01*
X144597371Y-91663750D01*
X144384931Y-91599307D01*
X144219365Y-91583000D01*
X143308635Y-91583000D01*
X143143069Y-91599307D01*
X142930629Y-91663750D01*
X142734843Y-91768400D01*
X142563235Y-91909235D01*
X142422400Y-92080843D01*
X142317750Y-92276629D01*
X142253307Y-92489069D01*
X142231547Y-92710000D01*
X142253307Y-92930931D01*
X142317750Y-93143371D01*
X142422400Y-93339157D01*
X142563235Y-93510765D01*
X142734843Y-93651600D01*
X142930629Y-93756250D01*
X143143069Y-93820693D01*
X143308635Y-93837000D01*
X144219365Y-93837000D01*
X144384931Y-93820693D01*
X144597371Y-93756250D01*
X144793157Y-93651600D01*
X144964765Y-93510765D01*
X145043585Y-93414723D01*
X145066095Y-93527889D01*
X145113360Y-93641996D01*
X145181977Y-93744689D01*
X145269311Y-93832023D01*
X145372004Y-93900640D01*
X145486111Y-93947905D01*
X145607246Y-93972000D01*
X145730754Y-93972000D01*
X145851889Y-93947905D01*
X145965996Y-93900640D01*
X146068689Y-93832023D01*
X146144339Y-93756373D01*
X146133783Y-93970512D01*
X146175213Y-94250130D01*
X146270397Y-94516292D01*
X146337329Y-94641514D01*
X146581298Y-94713097D01*
X147394395Y-93900000D01*
X147753605Y-93900000D01*
X148566702Y-94713097D01*
X148810671Y-94641514D01*
X148931571Y-94386004D01*
X149000300Y-94111816D01*
X149014217Y-93829488D01*
X148972787Y-93549870D01*
X148877603Y-93283708D01*
X148810671Y-93158486D01*
X148566702Y-93086903D01*
X147753605Y-93900000D01*
X147394395Y-93900000D01*
X146581298Y-93086903D01*
X146337329Y-93158486D01*
X146290760Y-93256904D01*
X146271905Y-93162111D01*
X146224640Y-93048004D01*
X146156023Y-92945311D01*
X146121000Y-92910288D01*
X146121000Y-92907298D01*
X146760903Y-92907298D01*
X147574000Y-93720395D01*
X148387097Y-92907298D01*
X148315514Y-92663329D01*
X148060004Y-92542429D01*
X147785816Y-92473700D01*
X147503488Y-92459783D01*
X147223870Y-92501213D01*
X146957708Y-92596397D01*
X146832486Y-92663329D01*
X146760903Y-92907298D01*
X146121000Y-92907298D01*
X146121000Y-88789000D01*
X146447000Y-88789000D01*
X146447000Y-89011000D01*
X146490310Y-89228734D01*
X146575266Y-89433835D01*
X146698602Y-89618421D01*
X146855579Y-89775398D01*
X147040165Y-89898734D01*
X147245266Y-89983690D01*
X147463000Y-90027000D01*
X147685000Y-90027000D01*
X147902734Y-89983690D01*
X148107835Y-89898734D01*
X148292421Y-89775398D01*
X148449398Y-89618421D01*
X148572734Y-89433835D01*
X148657690Y-89228734D01*
X148701000Y-89011000D01*
X148701000Y-88789000D01*
X148657690Y-88571266D01*
X148650924Y-88554932D01*
X149058356Y-88147500D01*
X150263120Y-88147500D01*
X150273307Y-88250931D01*
X150337751Y-88463371D01*
X150442401Y-88659157D01*
X150583236Y-88830765D01*
X150754844Y-88971600D01*
X150950630Y-89076250D01*
X151163070Y-89140693D01*
X151384000Y-89162453D01*
X151491281Y-89151887D01*
X151445604Y-89220248D01*
X151398339Y-89334355D01*
X151374244Y-89455490D01*
X151374244Y-89505020D01*
X151080096Y-89799169D01*
X151062842Y-89813329D01*
X151019544Y-89866088D01*
X151006358Y-89882155D01*
X150964386Y-89960679D01*
X150938540Y-90045881D01*
X150929813Y-90134488D01*
X150932001Y-90156703D01*
X150932000Y-93721418D01*
X150584000Y-93721418D01*
X150519897Y-93727732D01*
X150458257Y-93746430D01*
X150401450Y-93776794D01*
X150351657Y-93817657D01*
X150310794Y-93867450D01*
X150280430Y-93924257D01*
X150261732Y-93985897D01*
X150255418Y-94050000D01*
X150255418Y-96450000D01*
X150261732Y-96514103D01*
X150280430Y-96575743D01*
X150310794Y-96632550D01*
X150351657Y-96682343D01*
X150401450Y-96723206D01*
X150458257Y-96753570D01*
X150519897Y-96772268D01*
X150584000Y-96778582D01*
X152184000Y-96778582D01*
X152248103Y-96772268D01*
X152272386Y-96764902D01*
X152276358Y-96772333D01*
X152332842Y-96841159D01*
X152350096Y-96855319D01*
X152953681Y-97458905D01*
X152967841Y-97476159D01*
X153036667Y-97532643D01*
X153104816Y-97569069D01*
X153115190Y-97574614D01*
X153200392Y-97600460D01*
X153289000Y-97609187D01*
X153311205Y-97607000D01*
X155806795Y-97607000D01*
X155829000Y-97609187D01*
X155851205Y-97607000D01*
X155917607Y-97600460D01*
X156002810Y-97574614D01*
X156081333Y-97532643D01*
X156150159Y-97476159D01*
X156164323Y-97458900D01*
X156767906Y-96855318D01*
X156785159Y-96841159D01*
X156841643Y-96772333D01*
X156879395Y-96701703D01*
X156897371Y-96696250D01*
X157093157Y-96591600D01*
X157264765Y-96450765D01*
X157405600Y-96279157D01*
X157510250Y-96083371D01*
X157574693Y-95870930D01*
X157591000Y-95705364D01*
X157591000Y-94794636D01*
X157877000Y-94794636D01*
X157877000Y-95705365D01*
X157893307Y-95870931D01*
X157957751Y-96083371D01*
X158062401Y-96279157D01*
X158203236Y-96450765D01*
X158374844Y-96591600D01*
X158570630Y-96696250D01*
X158783070Y-96760693D01*
X159004000Y-96782453D01*
X159224931Y-96760693D01*
X159437371Y-96696250D01*
X159633157Y-96591600D01*
X159804765Y-96450765D01*
X159945600Y-96279157D01*
X160050250Y-96083371D01*
X160114693Y-95870930D01*
X160131000Y-95705364D01*
X160131000Y-94794635D01*
X160114693Y-94629069D01*
X160050250Y-94416629D01*
X159945600Y-94220843D01*
X159804765Y-94049235D01*
X159633157Y-93908400D01*
X159437370Y-93803750D01*
X159224930Y-93739307D01*
X159004000Y-93717547D01*
X158783069Y-93739307D01*
X158570629Y-93803750D01*
X158374843Y-93908400D01*
X158203235Y-94049235D01*
X158062400Y-94220843D01*
X157957750Y-94416630D01*
X157893307Y-94629070D01*
X157877000Y-94794636D01*
X157591000Y-94794636D01*
X157591000Y-94794635D01*
X157574693Y-94629069D01*
X157510250Y-94416629D01*
X157405600Y-94220843D01*
X157264765Y-94049235D01*
X157093157Y-93908400D01*
X156897370Y-93803750D01*
X156684930Y-93739307D01*
X156464000Y-93717547D01*
X156243069Y-93739307D01*
X156030629Y-93803750D01*
X155834843Y-93908400D01*
X155663235Y-94049235D01*
X155522400Y-94220843D01*
X155417750Y-94416630D01*
X155353307Y-94629070D01*
X155337000Y-94794636D01*
X155337000Y-95705365D01*
X155353307Y-95870931D01*
X155417751Y-96083371D01*
X155522401Y-96279157D01*
X155663236Y-96450765D01*
X155789989Y-96554788D01*
X155641777Y-96703000D01*
X154335119Y-96703000D01*
X154357371Y-96696250D01*
X154553157Y-96591600D01*
X154724765Y-96450765D01*
X154865600Y-96279157D01*
X154970250Y-96083371D01*
X155034693Y-95870930D01*
X155051000Y-95705364D01*
X155051000Y-94794635D01*
X155034693Y-94629069D01*
X154970250Y-94416629D01*
X154865600Y-94220843D01*
X154724765Y-94049235D01*
X154553157Y-93908400D01*
X154376000Y-93813708D01*
X154376000Y-90357223D01*
X155497912Y-89235313D01*
X155515159Y-89221159D01*
X155571643Y-89152333D01*
X155613614Y-89073810D01*
X155639460Y-88988607D01*
X155646000Y-88922205D01*
X155646000Y-88922204D01*
X155648187Y-88900001D01*
X155646000Y-88877796D01*
X155646000Y-88809763D01*
X155663236Y-88830765D01*
X155834844Y-88971600D01*
X156030630Y-89076250D01*
X156243070Y-89140693D01*
X156464000Y-89162453D01*
X156684931Y-89140693D01*
X156897371Y-89076250D01*
X157093157Y-88971600D01*
X157264765Y-88830765D01*
X157405600Y-88659157D01*
X157510250Y-88463371D01*
X157574693Y-88250930D01*
X157591000Y-88085364D01*
X157591000Y-87174635D01*
X157574693Y-87009069D01*
X157510250Y-86796629D01*
X157405600Y-86600843D01*
X157264765Y-86429235D01*
X157093157Y-86288400D01*
X156897370Y-86183750D01*
X156684930Y-86119307D01*
X156464000Y-86097547D01*
X156243069Y-86119307D01*
X156030629Y-86183750D01*
X155834843Y-86288400D01*
X155663235Y-86429235D01*
X155646000Y-86450236D01*
X155646000Y-86382205D01*
X155648187Y-86360000D01*
X155639460Y-86271392D01*
X155613614Y-86186190D01*
X155591391Y-86144613D01*
X155571643Y-86107667D01*
X155515159Y-86038841D01*
X155497905Y-86024681D01*
X153741000Y-84267777D01*
X153741000Y-83619712D01*
X153776023Y-83584689D01*
X153844640Y-83481996D01*
X153891905Y-83367889D01*
X153916000Y-83246754D01*
X153916000Y-83123246D01*
X153891905Y-83002111D01*
X153844640Y-82888004D01*
X153776023Y-82785311D01*
X153688689Y-82697977D01*
X153585996Y-82629360D01*
X153471889Y-82582095D01*
X153350754Y-82558000D01*
X153281000Y-82558000D01*
X153281000Y-82488246D01*
X153256905Y-82367111D01*
X153209640Y-82253004D01*
X153141023Y-82150311D01*
X153053689Y-82062977D01*
X152950996Y-81994360D01*
X152836889Y-81947095D01*
X152715754Y-81923000D01*
X152592246Y-81923000D01*
X152471111Y-81947095D01*
X152357004Y-81994360D01*
X152254311Y-82062977D01*
X152166977Y-82150311D01*
X152098360Y-82253004D01*
X152051095Y-82367111D01*
X152027000Y-82488246D01*
X152027000Y-82611754D01*
X152051095Y-82732889D01*
X152098360Y-82846996D01*
X152166977Y-82949689D01*
X152202000Y-82984712D01*
X152202000Y-86450236D01*
X152184765Y-86429235D01*
X152013157Y-86288400D01*
X151817370Y-86183750D01*
X151604930Y-86119307D01*
X151384000Y-86097547D01*
X151163069Y-86119307D01*
X150950629Y-86183750D01*
X150754843Y-86288400D01*
X150583235Y-86429235D01*
X150442400Y-86600843D01*
X150337750Y-86796630D01*
X150273307Y-87009070D01*
X150263120Y-87112500D01*
X148869412Y-87112500D01*
X148843999Y-87109997D01*
X148742551Y-87119989D01*
X148645003Y-87149580D01*
X148555102Y-87197633D01*
X148476302Y-87262302D01*
X148460101Y-87282043D01*
X147919068Y-87823076D01*
X147902734Y-87816310D01*
X147685000Y-87773000D01*
X147463000Y-87773000D01*
X147245266Y-87816310D01*
X147040165Y-87901266D01*
X146855579Y-88024602D01*
X146698602Y-88181579D01*
X146575266Y-88366165D01*
X146490310Y-88571266D01*
X146447000Y-88789000D01*
X146121000Y-88789000D01*
X146121000Y-88287205D01*
X146123187Y-88265000D01*
X146114460Y-88176392D01*
X146088614Y-88091190D01*
X146046643Y-88012667D01*
X145990159Y-87943841D01*
X145972906Y-87929682D01*
X145369323Y-87326100D01*
X145355159Y-87308841D01*
X145286333Y-87252357D01*
X145215703Y-87214605D01*
X145210250Y-87196629D01*
X145105600Y-87000843D01*
X144964765Y-86829235D01*
X144793157Y-86688400D01*
X144597371Y-86583750D01*
X144384931Y-86519307D01*
X144219365Y-86503000D01*
X143308635Y-86503000D01*
X143143069Y-86519307D01*
X142930629Y-86583750D01*
X142734843Y-86688400D01*
X142563235Y-86829235D01*
X142422400Y-87000843D01*
X142317750Y-87196629D01*
X142253307Y-87409069D01*
X142231547Y-87630000D01*
X141676000Y-87630000D01*
X141676000Y-85090000D01*
X142231547Y-85090000D01*
X142253307Y-85310931D01*
X142317750Y-85523371D01*
X142422400Y-85719157D01*
X142563235Y-85890765D01*
X142734843Y-86031600D01*
X142930629Y-86136250D01*
X143143069Y-86200693D01*
X143308635Y-86217000D01*
X144219365Y-86217000D01*
X144384931Y-86200693D01*
X144597371Y-86136250D01*
X144793157Y-86031600D01*
X144964765Y-85890765D01*
X145105600Y-85719157D01*
X145210250Y-85523371D01*
X145274693Y-85310931D01*
X145296453Y-85090000D01*
X145274693Y-84869069D01*
X145210250Y-84656629D01*
X145105600Y-84460843D01*
X144964765Y-84289235D01*
X144793157Y-84148400D01*
X144597371Y-84043750D01*
X144384931Y-83979307D01*
X144219365Y-83963000D01*
X143308635Y-83963000D01*
X143143069Y-83979307D01*
X142930629Y-84043750D01*
X142734843Y-84148400D01*
X142563235Y-84289235D01*
X142422400Y-84460843D01*
X142317750Y-84656629D01*
X142253307Y-84869069D01*
X142231547Y-85090000D01*
X141676000Y-85090000D01*
X141676000Y-82550000D01*
X142231547Y-82550000D01*
X142253307Y-82770931D01*
X142317750Y-82983371D01*
X142422400Y-83179157D01*
X142563235Y-83350765D01*
X142734843Y-83491600D01*
X142930629Y-83596250D01*
X143143069Y-83660693D01*
X143308635Y-83677000D01*
X144219365Y-83677000D01*
X144384931Y-83660693D01*
X144597371Y-83596250D01*
X144793157Y-83491600D01*
X144964765Y-83350765D01*
X145105600Y-83179157D01*
X145210250Y-82983371D01*
X145274693Y-82770931D01*
X145296453Y-82550000D01*
X145274693Y-82329069D01*
X145210250Y-82116629D01*
X145105600Y-81920843D01*
X144964765Y-81749235D01*
X144793157Y-81608400D01*
X144597371Y-81503750D01*
X144384931Y-81439307D01*
X144219365Y-81423000D01*
X143308635Y-81423000D01*
X143143069Y-81439307D01*
X142930629Y-81503750D01*
X142734843Y-81608400D01*
X142563235Y-81749235D01*
X142422400Y-81920843D01*
X142317750Y-82116629D01*
X142253307Y-82329069D01*
X142231547Y-82550000D01*
X141676000Y-82550000D01*
X141676000Y-80010000D01*
X142231547Y-80010000D01*
X142253307Y-80230931D01*
X142317750Y-80443371D01*
X142422400Y-80639157D01*
X142563235Y-80810765D01*
X142734843Y-80951600D01*
X142930629Y-81056250D01*
X143143069Y-81120693D01*
X143308635Y-81137000D01*
X144219365Y-81137000D01*
X144384931Y-81120693D01*
X144597371Y-81056250D01*
X144793157Y-80951600D01*
X144964765Y-80810765D01*
X145105600Y-80639157D01*
X145135485Y-80583246D01*
X151902558Y-80583246D01*
X151902558Y-80706754D01*
X151926653Y-80827889D01*
X151973918Y-80941996D01*
X152042535Y-81044689D01*
X152129869Y-81132023D01*
X152232562Y-81200640D01*
X152346669Y-81247905D01*
X152467804Y-81272000D01*
X152591312Y-81272000D01*
X152712447Y-81247905D01*
X152826554Y-81200640D01*
X152929247Y-81132023D01*
X152964270Y-81097000D01*
X154124288Y-81097000D01*
X154149718Y-81122430D01*
X154128430Y-81162257D01*
X154109732Y-81223897D01*
X154103418Y-81288000D01*
X154103418Y-83812000D01*
X154109732Y-83876103D01*
X154128430Y-83937743D01*
X154158794Y-83994550D01*
X154199657Y-84044343D01*
X154249450Y-84085206D01*
X154306257Y-84115570D01*
X154367897Y-84134268D01*
X154432000Y-84140582D01*
X155956000Y-84140582D01*
X156020103Y-84134268D01*
X156081743Y-84115570D01*
X156138550Y-84085206D01*
X156188343Y-84044343D01*
X156206723Y-84021946D01*
X158438923Y-86254148D01*
X158374843Y-86288400D01*
X158203235Y-86429235D01*
X158062400Y-86600843D01*
X157957750Y-86796630D01*
X157893307Y-87009070D01*
X157877000Y-87174636D01*
X157877000Y-88085365D01*
X157893307Y-88250931D01*
X157957751Y-88463371D01*
X158062401Y-88659157D01*
X158203236Y-88830765D01*
X158374844Y-88971600D01*
X158570630Y-89076250D01*
X158783070Y-89140693D01*
X159004000Y-89162453D01*
X159224931Y-89140693D01*
X159437371Y-89076250D01*
X159633157Y-88971600D01*
X159804765Y-88830765D01*
X159822000Y-88809764D01*
X159822000Y-88877795D01*
X159819813Y-88900000D01*
X159828540Y-88988607D01*
X159832435Y-89001447D01*
X159854386Y-89073809D01*
X159896357Y-89152332D01*
X159952841Y-89221159D01*
X159970100Y-89235323D01*
X161092001Y-90357226D01*
X161092000Y-93813707D01*
X160914843Y-93908400D01*
X160743235Y-94049235D01*
X160602400Y-94220843D01*
X160497750Y-94416630D01*
X160433307Y-94629070D01*
X160417000Y-94794636D01*
X160417000Y-95705365D01*
X160433307Y-95870931D01*
X160497751Y-96083371D01*
X160602401Y-96279157D01*
X160743236Y-96450765D01*
X160914844Y-96591600D01*
X161110630Y-96696250D01*
X161323070Y-96760693D01*
X161544000Y-96782453D01*
X161764931Y-96760693D01*
X161977371Y-96696250D01*
X162173157Y-96591600D01*
X162344765Y-96450765D01*
X162485600Y-96279157D01*
X162590250Y-96083371D01*
X162654693Y-95870930D01*
X162671000Y-95705364D01*
X162671000Y-94794635D01*
X162654693Y-94629069D01*
X162590250Y-94416629D01*
X162485600Y-94220843D01*
X162344765Y-94049235D01*
X162173157Y-93908400D01*
X161996000Y-93813708D01*
X161996000Y-90192204D01*
X161998187Y-90169999D01*
X161989460Y-90081392D01*
X161983444Y-90061562D01*
X161963614Y-89996190D01*
X161921643Y-89917667D01*
X161865159Y-89848841D01*
X161847910Y-89834685D01*
X161065180Y-89051957D01*
X161110630Y-89076250D01*
X161323070Y-89140693D01*
X161544000Y-89162453D01*
X161764931Y-89140693D01*
X161977371Y-89076250D01*
X162173157Y-88971600D01*
X162344765Y-88830765D01*
X162485600Y-88659157D01*
X162590250Y-88463371D01*
X162654693Y-88250930D01*
X162671000Y-88085364D01*
X162671000Y-87174636D01*
X162957000Y-87174636D01*
X162957000Y-88085365D01*
X162973307Y-88250931D01*
X163037751Y-88463371D01*
X163142401Y-88659157D01*
X163283236Y-88830765D01*
X163454844Y-88971600D01*
X163650630Y-89076250D01*
X163863070Y-89140693D01*
X164084000Y-89162453D01*
X164304931Y-89140693D01*
X164517371Y-89076250D01*
X164713157Y-88971600D01*
X164884765Y-88830765D01*
X164902000Y-88809764D01*
X164902001Y-93792774D01*
X164753372Y-93941404D01*
X164713157Y-93908400D01*
X164517370Y-93803750D01*
X164304930Y-93739307D01*
X164084000Y-93717547D01*
X163863069Y-93739307D01*
X163650629Y-93803750D01*
X163454843Y-93908400D01*
X163283235Y-94049235D01*
X163142400Y-94220843D01*
X163037750Y-94416630D01*
X162973307Y-94629070D01*
X162957000Y-94794636D01*
X162957000Y-95705365D01*
X162973307Y-95870931D01*
X163037751Y-96083371D01*
X163142401Y-96279157D01*
X163283236Y-96450765D01*
X163454844Y-96591600D01*
X163650630Y-96696250D01*
X163863070Y-96760693D01*
X164084000Y-96782453D01*
X164304931Y-96760693D01*
X164517371Y-96696250D01*
X164713157Y-96591600D01*
X164884765Y-96450765D01*
X165025600Y-96279157D01*
X165130250Y-96083371D01*
X165194693Y-95870930D01*
X165211000Y-95705364D01*
X165211000Y-94794635D01*
X165208094Y-94765130D01*
X165602042Y-94371183D01*
X165577750Y-94416630D01*
X165513307Y-94629070D01*
X165497000Y-94794636D01*
X165497000Y-95705365D01*
X165513307Y-95870931D01*
X165577751Y-96083371D01*
X165682401Y-96279157D01*
X165823236Y-96450765D01*
X165994844Y-96591600D01*
X166190630Y-96696250D01*
X166403070Y-96760693D01*
X166624000Y-96782453D01*
X166844931Y-96760693D01*
X167057371Y-96696250D01*
X167253157Y-96591600D01*
X167424765Y-96450765D01*
X167565600Y-96279157D01*
X167670250Y-96083371D01*
X167734693Y-95870930D01*
X167738818Y-95829047D01*
X167781350Y-96054514D01*
X167886834Y-96316483D01*
X168041399Y-96552839D01*
X168239105Y-96754500D01*
X168472354Y-96913715D01*
X168732182Y-97024367D01*
X168814961Y-97041904D01*
X169037000Y-96919915D01*
X169037000Y-95377000D01*
X169291000Y-95377000D01*
X169291000Y-96919915D01*
X169513039Y-97041904D01*
X169595818Y-97024367D01*
X169855646Y-96913715D01*
X170088895Y-96754500D01*
X170286601Y-96552839D01*
X170441166Y-96316483D01*
X170546650Y-96054514D01*
X170599000Y-95777000D01*
X170599000Y-95377000D01*
X169291000Y-95377000D01*
X169037000Y-95377000D01*
X169017000Y-95377000D01*
X169017000Y-95139000D01*
X171847000Y-95139000D01*
X171847000Y-95361000D01*
X171890310Y-95578734D01*
X171975266Y-95783835D01*
X172098602Y-95968421D01*
X172255579Y-96125398D01*
X172440165Y-96248734D01*
X172645266Y-96333690D01*
X172863000Y-96377000D01*
X173085000Y-96377000D01*
X173302734Y-96333690D01*
X173507835Y-96248734D01*
X173692421Y-96125398D01*
X173849398Y-95968421D01*
X173972734Y-95783835D01*
X174057690Y-95578734D01*
X174101000Y-95361000D01*
X174101000Y-95139000D01*
X175022000Y-95139000D01*
X175022000Y-95361000D01*
X175065310Y-95578734D01*
X175150266Y-95783835D01*
X175273602Y-95968421D01*
X175430579Y-96125398D01*
X175615165Y-96248734D01*
X175820266Y-96333690D01*
X176038000Y-96377000D01*
X176260000Y-96377000D01*
X176477734Y-96333690D01*
X176682835Y-96248734D01*
X176867421Y-96125398D01*
X177024398Y-95968421D01*
X177147734Y-95783835D01*
X177232690Y-95578734D01*
X177276000Y-95361000D01*
X177276000Y-95139000D01*
X177232690Y-94921266D01*
X177147734Y-94716165D01*
X177024398Y-94531579D01*
X176867421Y-94374602D01*
X176682835Y-94251266D01*
X176477734Y-94166310D01*
X176260000Y-94123000D01*
X176038000Y-94123000D01*
X175820266Y-94166310D01*
X175615165Y-94251266D01*
X175430579Y-94374602D01*
X175273602Y-94531579D01*
X175150266Y-94716165D01*
X175065310Y-94921266D01*
X175022000Y-95139000D01*
X174101000Y-95139000D01*
X174057690Y-94921266D01*
X173972734Y-94716165D01*
X173849398Y-94531579D01*
X173692421Y-94374602D01*
X173507835Y-94251266D01*
X173302734Y-94166310D01*
X173085000Y-94123000D01*
X172863000Y-94123000D01*
X172645266Y-94166310D01*
X172440165Y-94251266D01*
X172255579Y-94374602D01*
X172098602Y-94531579D01*
X171975266Y-94716165D01*
X171890310Y-94921266D01*
X171847000Y-95139000D01*
X169017000Y-95139000D01*
X169017000Y-95123000D01*
X169037000Y-95123000D01*
X169037000Y-93580085D01*
X169291000Y-93580085D01*
X169291000Y-95123000D01*
X170599000Y-95123000D01*
X170599000Y-94723000D01*
X170546650Y-94445486D01*
X170441166Y-94183517D01*
X170286601Y-93947161D01*
X170088895Y-93745500D01*
X169855646Y-93586285D01*
X169595818Y-93475633D01*
X169513039Y-93458096D01*
X169291000Y-93580085D01*
X169037000Y-93580085D01*
X168814961Y-93458096D01*
X168732182Y-93475633D01*
X168472354Y-93586285D01*
X168239105Y-93745500D01*
X168041399Y-93947161D01*
X167886834Y-94183517D01*
X167781350Y-94445486D01*
X167738818Y-94670952D01*
X167734693Y-94629069D01*
X167670250Y-94416629D01*
X167565600Y-94220843D01*
X167424765Y-94049235D01*
X167253157Y-93908400D01*
X167057370Y-93803750D01*
X166844930Y-93739307D01*
X166624000Y-93717547D01*
X166403069Y-93739307D01*
X166190629Y-93803750D01*
X165994843Y-93908400D01*
X165823235Y-94049235D01*
X165794841Y-94083833D01*
X165799460Y-94068607D01*
X165806000Y-94002205D01*
X165808187Y-93980001D01*
X165806000Y-93957796D01*
X165806000Y-88809763D01*
X165823236Y-88830765D01*
X165994844Y-88971600D01*
X166190630Y-89076250D01*
X166403070Y-89140693D01*
X166624000Y-89162453D01*
X166844931Y-89140693D01*
X167057371Y-89076250D01*
X167253157Y-88971600D01*
X167424765Y-88830765D01*
X167565600Y-88659157D01*
X167670250Y-88463371D01*
X167734693Y-88250930D01*
X167751000Y-88085364D01*
X167751000Y-87174635D01*
X167734693Y-87009069D01*
X167670250Y-86796629D01*
X167565600Y-86600843D01*
X167424765Y-86429235D01*
X167298012Y-86325212D01*
X167446224Y-86177000D01*
X168752881Y-86177000D01*
X168730629Y-86183750D01*
X168534843Y-86288400D01*
X168363235Y-86429235D01*
X168222400Y-86600843D01*
X168117750Y-86796630D01*
X168053307Y-87009070D01*
X168037000Y-87174636D01*
X168037000Y-88085365D01*
X168053307Y-88250931D01*
X168117751Y-88463371D01*
X168222401Y-88659157D01*
X168363236Y-88830765D01*
X168534844Y-88971600D01*
X168730630Y-89076250D01*
X168943070Y-89140693D01*
X169164000Y-89162453D01*
X169384931Y-89140693D01*
X169597371Y-89076250D01*
X169793157Y-88971600D01*
X169964765Y-88830765D01*
X170105600Y-88659157D01*
X170210250Y-88463371D01*
X170274693Y-88250930D01*
X170291000Y-88085364D01*
X170291000Y-87519000D01*
X171847000Y-87519000D01*
X171847000Y-87741000D01*
X171890310Y-87958734D01*
X171975266Y-88163835D01*
X172098602Y-88348421D01*
X172255579Y-88505398D01*
X172440165Y-88628734D01*
X172645266Y-88713690D01*
X172863000Y-88757000D01*
X173085000Y-88757000D01*
X173302734Y-88713690D01*
X173507835Y-88628734D01*
X173692421Y-88505398D01*
X173849398Y-88348421D01*
X173972734Y-88163835D01*
X174057690Y-87958734D01*
X174101000Y-87741000D01*
X174101000Y-87519000D01*
X175022000Y-87519000D01*
X175022000Y-87741000D01*
X175065310Y-87958734D01*
X175150266Y-88163835D01*
X175273602Y-88348421D01*
X175430579Y-88505398D01*
X175615165Y-88628734D01*
X175820266Y-88713690D01*
X176038000Y-88757000D01*
X176260000Y-88757000D01*
X176477734Y-88713690D01*
X176682835Y-88628734D01*
X176867421Y-88505398D01*
X177024398Y-88348421D01*
X177147734Y-88163835D01*
X177232690Y-87958734D01*
X177276000Y-87741000D01*
X177276000Y-87519000D01*
X177232690Y-87301266D01*
X177147734Y-87096165D01*
X177024398Y-86911579D01*
X176867421Y-86754602D01*
X176682835Y-86631266D01*
X176477734Y-86546310D01*
X176260000Y-86503000D01*
X176038000Y-86503000D01*
X175820266Y-86546310D01*
X175615165Y-86631266D01*
X175430579Y-86754602D01*
X175273602Y-86911579D01*
X175150266Y-87096165D01*
X175065310Y-87301266D01*
X175022000Y-87519000D01*
X174101000Y-87519000D01*
X174057690Y-87301266D01*
X173972734Y-87096165D01*
X173849398Y-86911579D01*
X173692421Y-86754602D01*
X173507835Y-86631266D01*
X173302734Y-86546310D01*
X173085000Y-86503000D01*
X172863000Y-86503000D01*
X172645266Y-86546310D01*
X172440165Y-86631266D01*
X172255579Y-86754602D01*
X172098602Y-86911579D01*
X171975266Y-87096165D01*
X171890310Y-87301266D01*
X171847000Y-87519000D01*
X170291000Y-87519000D01*
X170291000Y-87174635D01*
X170274693Y-87009069D01*
X170210250Y-86796629D01*
X170105600Y-86600843D01*
X169964765Y-86429235D01*
X169793157Y-86288400D01*
X169597370Y-86183750D01*
X169575118Y-86177000D01*
X173809288Y-86177000D01*
X173844311Y-86212023D01*
X173947004Y-86280640D01*
X174061111Y-86327905D01*
X174182246Y-86352000D01*
X174305754Y-86352000D01*
X174426889Y-86327905D01*
X174540996Y-86280640D01*
X174643689Y-86212023D01*
X174731023Y-86124689D01*
X174799640Y-86021996D01*
X174846905Y-85907889D01*
X174871000Y-85786754D01*
X174871000Y-85663246D01*
X174846905Y-85542111D01*
X174799640Y-85428004D01*
X174731023Y-85325311D01*
X174643689Y-85237977D01*
X174540996Y-85169360D01*
X174426889Y-85122095D01*
X174305754Y-85098000D01*
X174182246Y-85098000D01*
X174061111Y-85122095D01*
X173947004Y-85169360D01*
X173844311Y-85237977D01*
X173809288Y-85273000D01*
X167281205Y-85273000D01*
X167259000Y-85270813D01*
X167170392Y-85279540D01*
X167085190Y-85305386D01*
X167006667Y-85347357D01*
X167002206Y-85351018D01*
X167734203Y-84619022D01*
X167810579Y-84695398D01*
X167995165Y-84818734D01*
X168200266Y-84903690D01*
X168418000Y-84947000D01*
X168640000Y-84947000D01*
X168857734Y-84903690D01*
X169062835Y-84818734D01*
X169247421Y-84695398D01*
X169404398Y-84538421D01*
X169527734Y-84353835D01*
X169612690Y-84148734D01*
X169656000Y-83931000D01*
X169656000Y-83709000D01*
X175022000Y-83709000D01*
X175022000Y-83931000D01*
X175065310Y-84148734D01*
X175150266Y-84353835D01*
X175273602Y-84538421D01*
X175430579Y-84695398D01*
X175615165Y-84818734D01*
X175820266Y-84903690D01*
X176038000Y-84947000D01*
X176260000Y-84947000D01*
X176477734Y-84903690D01*
X176682835Y-84818734D01*
X176867421Y-84695398D01*
X177024398Y-84538421D01*
X177147734Y-84353835D01*
X177232690Y-84148734D01*
X177276000Y-83931000D01*
X177276000Y-83709000D01*
X177232690Y-83491266D01*
X177147734Y-83286165D01*
X177024398Y-83101579D01*
X176867421Y-82944602D01*
X176682835Y-82821266D01*
X176477734Y-82736310D01*
X176260000Y-82693000D01*
X176038000Y-82693000D01*
X175820266Y-82736310D01*
X175615165Y-82821266D01*
X175430579Y-82944602D01*
X175273602Y-83101579D01*
X175150266Y-83286165D01*
X175065310Y-83491266D01*
X175022000Y-83709000D01*
X169656000Y-83709000D01*
X169612690Y-83491266D01*
X169527734Y-83286165D01*
X169404398Y-83101579D01*
X169247421Y-82944602D01*
X169062835Y-82821266D01*
X168857734Y-82736310D01*
X168640000Y-82693000D01*
X168418000Y-82693000D01*
X168200266Y-82736310D01*
X167995165Y-82821266D01*
X167810579Y-82944602D01*
X167653602Y-83101579D01*
X167530266Y-83286165D01*
X167445310Y-83491266D01*
X167410995Y-83663780D01*
X165050100Y-86024677D01*
X165032841Y-86038841D01*
X164976357Y-86107668D01*
X164961080Y-86136250D01*
X164934386Y-86186191D01*
X164908540Y-86271393D01*
X164899813Y-86360000D01*
X164902000Y-86382205D01*
X164902000Y-86450236D01*
X164884765Y-86429235D01*
X164713157Y-86288400D01*
X164517370Y-86183750D01*
X164304930Y-86119307D01*
X164084000Y-86097547D01*
X163863069Y-86119307D01*
X163650629Y-86183750D01*
X163454843Y-86288400D01*
X163283235Y-86429235D01*
X163142400Y-86600843D01*
X163037750Y-86796630D01*
X162973307Y-87009070D01*
X162957000Y-87174636D01*
X162671000Y-87174636D01*
X162671000Y-87174635D01*
X162654693Y-87009069D01*
X162590250Y-86796629D01*
X162485600Y-86600843D01*
X162344765Y-86429235D01*
X162173157Y-86288400D01*
X161996000Y-86193708D01*
X161996000Y-83769863D01*
X162040236Y-83823765D01*
X162206058Y-83959851D01*
X162395242Y-84060973D01*
X162600520Y-84123243D01*
X162814000Y-84144269D01*
X163027481Y-84123243D01*
X163232759Y-84060973D01*
X163421943Y-83959851D01*
X163587765Y-83823765D01*
X163723851Y-83657943D01*
X163824973Y-83468759D01*
X163887243Y-83263481D01*
X163903000Y-83103497D01*
X163903000Y-81996504D01*
X164265000Y-81996504D01*
X164265000Y-83103497D01*
X164280757Y-83263481D01*
X164343028Y-83468759D01*
X164444150Y-83657943D01*
X164580236Y-83823765D01*
X164746058Y-83959851D01*
X164935242Y-84060973D01*
X165140520Y-84123243D01*
X165354000Y-84144269D01*
X165567481Y-84123243D01*
X165772759Y-84060973D01*
X165961943Y-83959851D01*
X166127765Y-83823765D01*
X166263851Y-83657943D01*
X166364973Y-83468759D01*
X166427243Y-83263481D01*
X166443000Y-83103497D01*
X166443000Y-81996503D01*
X166427243Y-81836519D01*
X166364973Y-81631241D01*
X166263851Y-81442057D01*
X166127765Y-81276235D01*
X165961943Y-81140149D01*
X165772758Y-81039027D01*
X165567480Y-80976757D01*
X165354000Y-80955731D01*
X165140519Y-80976757D01*
X164935241Y-81039027D01*
X164746057Y-81140149D01*
X164580235Y-81276235D01*
X164444149Y-81442057D01*
X164343027Y-81631242D01*
X164280757Y-81836520D01*
X164265000Y-81996504D01*
X163903000Y-81996504D01*
X163903000Y-81996503D01*
X163887243Y-81836519D01*
X163824973Y-81631241D01*
X163723851Y-81442057D01*
X163587765Y-81276235D01*
X163421943Y-81140149D01*
X163232758Y-81039027D01*
X163027480Y-80976757D01*
X162814000Y-80955731D01*
X162600519Y-80976757D01*
X162395241Y-81039027D01*
X162206057Y-81140149D01*
X162040235Y-81276235D01*
X161996000Y-81330136D01*
X161996000Y-80444712D01*
X162031023Y-80409689D01*
X162099640Y-80306996D01*
X162146905Y-80192889D01*
X162171000Y-80071754D01*
X162171000Y-79948246D01*
X162146905Y-79827111D01*
X162104211Y-79724039D01*
X167137096Y-79724039D01*
X167177754Y-79858087D01*
X167297963Y-80112420D01*
X167465481Y-80338414D01*
X167673869Y-80527385D01*
X167915119Y-80672070D01*
X168179960Y-80766909D01*
X168402000Y-80645624D01*
X168402000Y-79502000D01*
X168656000Y-79502000D01*
X168656000Y-80645624D01*
X168878040Y-80766909D01*
X169142881Y-80672070D01*
X169384131Y-80527385D01*
X169592519Y-80338414D01*
X169760037Y-80112420D01*
X169880246Y-79858087D01*
X169920904Y-79724039D01*
X169798915Y-79502000D01*
X168656000Y-79502000D01*
X168402000Y-79502000D01*
X167259085Y-79502000D01*
X167137096Y-79724039D01*
X162104211Y-79724039D01*
X162099640Y-79713004D01*
X162031023Y-79610311D01*
X161943689Y-79522977D01*
X161840996Y-79454360D01*
X161726889Y-79407095D01*
X161605754Y-79383000D01*
X161482246Y-79383000D01*
X161361111Y-79407095D01*
X161247004Y-79454360D01*
X161144311Y-79522977D01*
X161056977Y-79610311D01*
X160988360Y-79713004D01*
X160941095Y-79827111D01*
X160917000Y-79948246D01*
X160917000Y-80071754D01*
X160941095Y-80192889D01*
X160988360Y-80306996D01*
X161056977Y-80409689D01*
X161092001Y-80444713D01*
X161092001Y-80918023D01*
X160944535Y-80817878D01*
X160691276Y-80710738D01*
X160617070Y-80695780D01*
X160401000Y-80818280D01*
X160401000Y-82423000D01*
X160421000Y-82423000D01*
X160421000Y-82677000D01*
X160401000Y-82677000D01*
X160401000Y-84281720D01*
X160617070Y-84404220D01*
X160691276Y-84389262D01*
X160944535Y-84282122D01*
X161092000Y-84181978D01*
X161092000Y-86193707D01*
X160914843Y-86288400D01*
X160743235Y-86429235D01*
X160726000Y-86450236D01*
X160726000Y-85747204D01*
X160728187Y-85724999D01*
X160719460Y-85636392D01*
X160713444Y-85616562D01*
X160693614Y-85551190D01*
X160651643Y-85472667D01*
X160595159Y-85403841D01*
X160577910Y-85389685D01*
X159456000Y-84267777D01*
X159456000Y-84181978D01*
X159603465Y-84282122D01*
X159856724Y-84389262D01*
X159930930Y-84404220D01*
X160147000Y-84281720D01*
X160147000Y-82677000D01*
X160127000Y-82677000D01*
X160127000Y-82423000D01*
X160147000Y-82423000D01*
X160147000Y-80818280D01*
X159930930Y-80695780D01*
X159856724Y-80710738D01*
X159603465Y-80817878D01*
X159456000Y-80918022D01*
X159456000Y-77184039D01*
X167137096Y-77184039D01*
X167177754Y-77318087D01*
X167297963Y-77572420D01*
X167465481Y-77798414D01*
X167673869Y-77987385D01*
X167869982Y-78105000D01*
X167673869Y-78222615D01*
X167465481Y-78411586D01*
X167297963Y-78637580D01*
X167177754Y-78891913D01*
X167137096Y-79025961D01*
X167259085Y-79248000D01*
X168402000Y-79248000D01*
X168402000Y-76962000D01*
X168656000Y-76962000D01*
X168656000Y-79248000D01*
X169798915Y-79248000D01*
X169920904Y-79025961D01*
X169880246Y-78891913D01*
X169760037Y-78637580D01*
X169592519Y-78411586D01*
X169384131Y-78222615D01*
X169188018Y-78105000D01*
X169384131Y-77987385D01*
X169592519Y-77798414D01*
X169760037Y-77572420D01*
X169880246Y-77318087D01*
X169920904Y-77184039D01*
X169798915Y-76962000D01*
X168656000Y-76962000D01*
X168402000Y-76962000D01*
X167259085Y-76962000D01*
X167137096Y-77184039D01*
X159456000Y-77184039D01*
X159456000Y-76857205D01*
X159458187Y-76835000D01*
X159449460Y-76746392D01*
X159423614Y-76661190D01*
X159390741Y-76599689D01*
X159381643Y-76582667D01*
X159325159Y-76513841D01*
X159307905Y-76499681D01*
X158704323Y-75896100D01*
X158690159Y-75878841D01*
X158621333Y-75822357D01*
X158542810Y-75780386D01*
X158457607Y-75754540D01*
X158391205Y-75748000D01*
X158369000Y-75745813D01*
X158346795Y-75748000D01*
X156263712Y-75748000D01*
X156228689Y-75712977D01*
X156125996Y-75644360D01*
X156011889Y-75597095D01*
X155890754Y-75573000D01*
X155767246Y-75573000D01*
X155646111Y-75597095D01*
X155532004Y-75644360D01*
X155429311Y-75712977D01*
X155341977Y-75800311D01*
X155273360Y-75903004D01*
X155226095Y-76017111D01*
X155202000Y-76138246D01*
X155202000Y-76261754D01*
X155226095Y-76382889D01*
X155273360Y-76496996D01*
X155341977Y-76599689D01*
X155429311Y-76687023D01*
X155532004Y-76755640D01*
X155646111Y-76802905D01*
X155767246Y-76827000D01*
X155890754Y-76827000D01*
X156011889Y-76802905D01*
X156125996Y-76755640D01*
X156228689Y-76687023D01*
X156263712Y-76652000D01*
X158181777Y-76652000D01*
X158552001Y-77022225D01*
X158552000Y-81330136D01*
X158507765Y-81276235D01*
X158341943Y-81140149D01*
X158152758Y-81039027D01*
X157947480Y-80976757D01*
X157734000Y-80955731D01*
X157520519Y-80976757D01*
X157315241Y-81039027D01*
X157126057Y-81140149D01*
X156960235Y-81276235D01*
X156916000Y-81330136D01*
X156916000Y-80444712D01*
X156951023Y-80409689D01*
X157019640Y-80306996D01*
X157066905Y-80192889D01*
X157091000Y-80071754D01*
X157091000Y-79948246D01*
X157066905Y-79827111D01*
X157019640Y-79713004D01*
X156951023Y-79610311D01*
X156863689Y-79522977D01*
X156760996Y-79454360D01*
X156646889Y-79407095D01*
X156525754Y-79383000D01*
X156402246Y-79383000D01*
X156281111Y-79407095D01*
X156167004Y-79454360D01*
X156064311Y-79522977D01*
X155976977Y-79610311D01*
X155908360Y-79713004D01*
X155861095Y-79827111D01*
X155837000Y-79948246D01*
X155837000Y-80071754D01*
X155861095Y-80192889D01*
X155908360Y-80306996D01*
X155976977Y-80409689D01*
X156012001Y-80444713D01*
X156012001Y-80964934D01*
X155956000Y-80959418D01*
X155102999Y-80959418D01*
X155114640Y-80941996D01*
X155161905Y-80827889D01*
X155186000Y-80706754D01*
X155186000Y-80583246D01*
X155161905Y-80462111D01*
X155114640Y-80348004D01*
X155046023Y-80245311D01*
X154958689Y-80157977D01*
X154855996Y-80089360D01*
X154741889Y-80042095D01*
X154620754Y-80018000D01*
X154497246Y-80018000D01*
X154376111Y-80042095D01*
X154262004Y-80089360D01*
X154159311Y-80157977D01*
X154124288Y-80193000D01*
X152964270Y-80193000D01*
X152929247Y-80157977D01*
X152826554Y-80089360D01*
X152712447Y-80042095D01*
X152591312Y-80018000D01*
X152467804Y-80018000D01*
X152346669Y-80042095D01*
X152232562Y-80089360D01*
X152129869Y-80157977D01*
X152042535Y-80245311D01*
X151973918Y-80348004D01*
X151926653Y-80462111D01*
X151902558Y-80583246D01*
X145135485Y-80583246D01*
X145210250Y-80443371D01*
X145274693Y-80230931D01*
X145296453Y-80010000D01*
X145274693Y-79789069D01*
X145210250Y-79576629D01*
X145105600Y-79380843D01*
X144964765Y-79209235D01*
X144793157Y-79068400D01*
X144597371Y-78963750D01*
X144384931Y-78899307D01*
X144219365Y-78883000D01*
X143308635Y-78883000D01*
X143143069Y-78899307D01*
X142930629Y-78963750D01*
X142734843Y-79068400D01*
X142563235Y-79209235D01*
X142422400Y-79380843D01*
X142317750Y-79576629D01*
X142253307Y-79789069D01*
X142231547Y-80010000D01*
X141676000Y-80010000D01*
X141676000Y-78539712D01*
X141711023Y-78504689D01*
X141779640Y-78401996D01*
X141826905Y-78287889D01*
X141851000Y-78166754D01*
X141851000Y-78043246D01*
X141826905Y-77922111D01*
X141779640Y-77808004D01*
X141711023Y-77705311D01*
X141623689Y-77617977D01*
X141520996Y-77549360D01*
X141406889Y-77502095D01*
X141285754Y-77478000D01*
X141162246Y-77478000D01*
X141041111Y-77502095D01*
X140927004Y-77549360D01*
X140824311Y-77617977D01*
X140736977Y-77705311D01*
X140668360Y-77808004D01*
X140621095Y-77922111D01*
X140597000Y-78043246D01*
X140597000Y-78166754D01*
X140621095Y-78287889D01*
X140668360Y-78401996D01*
X140736977Y-78504689D01*
X140772000Y-78539712D01*
X140772000Y-80042141D01*
X140771889Y-80042095D01*
X140650754Y-80018000D01*
X140527246Y-80018000D01*
X140406111Y-80042095D01*
X140292004Y-80089360D01*
X140189311Y-80157977D01*
X140101977Y-80245311D01*
X140033360Y-80348004D01*
X139986095Y-80462111D01*
X139962000Y-80583246D01*
X139962000Y-80706754D01*
X139986095Y-80827889D01*
X140033360Y-80941996D01*
X140101977Y-81044689D01*
X140137000Y-81079712D01*
X140137000Y-81458776D01*
X136148224Y-77470000D01*
X142231547Y-77470000D01*
X142253307Y-77690931D01*
X142317750Y-77903371D01*
X142422400Y-78099157D01*
X142563235Y-78270765D01*
X142734843Y-78411600D01*
X142930629Y-78516250D01*
X143143069Y-78580693D01*
X143308635Y-78597000D01*
X144219365Y-78597000D01*
X144384931Y-78580693D01*
X144597371Y-78516250D01*
X144793157Y-78411600D01*
X144964765Y-78270765D01*
X145105600Y-78099157D01*
X145210250Y-77903371D01*
X145274693Y-77690931D01*
X145296453Y-77470000D01*
X145274693Y-77249069D01*
X145210250Y-77036629D01*
X145105600Y-76840843D01*
X144964765Y-76669235D01*
X144793157Y-76528400D01*
X144597371Y-76423750D01*
X144384931Y-76359307D01*
X144219365Y-76343000D01*
X143308635Y-76343000D01*
X143143069Y-76359307D01*
X142930629Y-76423750D01*
X142734843Y-76528400D01*
X142563235Y-76669235D01*
X142422400Y-76840843D01*
X142317750Y-77036629D01*
X142253307Y-77249069D01*
X142231547Y-77470000D01*
X136148224Y-77470000D01*
X133608224Y-74930000D01*
X142231547Y-74930000D01*
X142253307Y-75150931D01*
X142317750Y-75363371D01*
X142422400Y-75559157D01*
X142563235Y-75730765D01*
X142734843Y-75871600D01*
X142930629Y-75976250D01*
X143143069Y-76040693D01*
X143308635Y-76057000D01*
X144219365Y-76057000D01*
X144384931Y-76040693D01*
X144597371Y-75976250D01*
X144793157Y-75871600D01*
X144828369Y-75842702D01*
X146760903Y-75842702D01*
X146832486Y-76086671D01*
X147087996Y-76207571D01*
X147362184Y-76276300D01*
X147644512Y-76290217D01*
X147924130Y-76248787D01*
X148190292Y-76153603D01*
X148315514Y-76086671D01*
X148387097Y-75842702D01*
X147574000Y-75029605D01*
X146760903Y-75842702D01*
X144828369Y-75842702D01*
X144964765Y-75730765D01*
X145105600Y-75559157D01*
X145210250Y-75363371D01*
X145274693Y-75150931D01*
X145296453Y-74930000D01*
X145295519Y-74920512D01*
X146133783Y-74920512D01*
X146175213Y-75200130D01*
X146270397Y-75466292D01*
X146337329Y-75591514D01*
X146581298Y-75663097D01*
X147394395Y-74850000D01*
X147753605Y-74850000D01*
X148566702Y-75663097D01*
X148810671Y-75591514D01*
X148931571Y-75336004D01*
X149000300Y-75061816D01*
X149014217Y-74779488D01*
X148972787Y-74499870D01*
X148877603Y-74233708D01*
X148877357Y-74233246D01*
X154567000Y-74233246D01*
X154567000Y-74356754D01*
X154591095Y-74477889D01*
X154638360Y-74591996D01*
X154706977Y-74694689D01*
X154794311Y-74782023D01*
X154897004Y-74850640D01*
X155011111Y-74897905D01*
X155132246Y-74922000D01*
X155255754Y-74922000D01*
X155376889Y-74897905D01*
X155490996Y-74850640D01*
X155593689Y-74782023D01*
X155628712Y-74747000D01*
X161744288Y-74747000D01*
X161779311Y-74782023D01*
X161882004Y-74850640D01*
X161996111Y-74897905D01*
X162117246Y-74922000D01*
X162240754Y-74922000D01*
X162361889Y-74897905D01*
X162475996Y-74850640D01*
X162578689Y-74782023D01*
X162666023Y-74694689D01*
X162699866Y-74644039D01*
X167137096Y-74644039D01*
X167177754Y-74778087D01*
X167297963Y-75032420D01*
X167465481Y-75258414D01*
X167673869Y-75447385D01*
X167869982Y-75565000D01*
X167673869Y-75682615D01*
X167465481Y-75871586D01*
X167297963Y-76097580D01*
X167177754Y-76351913D01*
X167137096Y-76485961D01*
X167259085Y-76708000D01*
X168402000Y-76708000D01*
X168402000Y-74422000D01*
X168656000Y-74422000D01*
X168656000Y-76708000D01*
X169798915Y-76708000D01*
X169920904Y-76485961D01*
X169880246Y-76351913D01*
X169760037Y-76097580D01*
X169592519Y-75871586D01*
X169384131Y-75682615D01*
X169188018Y-75565000D01*
X169384131Y-75447385D01*
X169592519Y-75258414D01*
X169760037Y-75032420D01*
X169880246Y-74778087D01*
X169920904Y-74644039D01*
X169798915Y-74422000D01*
X168656000Y-74422000D01*
X168402000Y-74422000D01*
X167259085Y-74422000D01*
X167137096Y-74644039D01*
X162699866Y-74644039D01*
X162734640Y-74591996D01*
X162781905Y-74477889D01*
X162806000Y-74356754D01*
X162806000Y-74233246D01*
X162781905Y-74112111D01*
X162734640Y-73998004D01*
X162666023Y-73895311D01*
X162578689Y-73807977D01*
X162475996Y-73739360D01*
X162361889Y-73692095D01*
X162240754Y-73668000D01*
X162117246Y-73668000D01*
X161996111Y-73692095D01*
X161882004Y-73739360D01*
X161779311Y-73807977D01*
X161744288Y-73843000D01*
X155628712Y-73843000D01*
X155593689Y-73807977D01*
X155490996Y-73739360D01*
X155376889Y-73692095D01*
X155255754Y-73668000D01*
X155132246Y-73668000D01*
X155011111Y-73692095D01*
X154897004Y-73739360D01*
X154794311Y-73807977D01*
X154706977Y-73895311D01*
X154638360Y-73998004D01*
X154591095Y-74112111D01*
X154567000Y-74233246D01*
X148877357Y-74233246D01*
X148810671Y-74108486D01*
X148566702Y-74036903D01*
X147753605Y-74850000D01*
X147394395Y-74850000D01*
X146581298Y-74036903D01*
X146337329Y-74108486D01*
X146216429Y-74363996D01*
X146147700Y-74638184D01*
X146133783Y-74920512D01*
X145295519Y-74920512D01*
X145274693Y-74709069D01*
X145210250Y-74496629D01*
X145105600Y-74300843D01*
X144964765Y-74129235D01*
X144793157Y-73988400D01*
X144597371Y-73883750D01*
X144510171Y-73857298D01*
X146760903Y-73857298D01*
X147574000Y-74670395D01*
X148387097Y-73857298D01*
X148315514Y-73613329D01*
X148060004Y-73492429D01*
X147785816Y-73423700D01*
X147503488Y-73409783D01*
X147223870Y-73451213D01*
X146957708Y-73546397D01*
X146832486Y-73613329D01*
X146760903Y-73857298D01*
X144510171Y-73857298D01*
X144384931Y-73819307D01*
X144219365Y-73803000D01*
X143308635Y-73803000D01*
X143143069Y-73819307D01*
X142930629Y-73883750D01*
X142734843Y-73988400D01*
X142563235Y-74129235D01*
X142422400Y-74300843D01*
X142317750Y-74496629D01*
X142253307Y-74709069D01*
X142231547Y-74930000D01*
X133608224Y-74930000D01*
X133304323Y-74626100D01*
X133290159Y-74608841D01*
X133221333Y-74552357D01*
X133142810Y-74510386D01*
X133057607Y-74484540D01*
X132991205Y-74478000D01*
X132969000Y-74475813D01*
X132946795Y-74478000D01*
X129960293Y-74478000D01*
X129865600Y-74300843D01*
X129724765Y-74129235D01*
X129553157Y-73988400D01*
X129357371Y-73883750D01*
X129144931Y-73819307D01*
X128979365Y-73803000D01*
X128068635Y-73803000D01*
X127903069Y-73819307D01*
X127690629Y-73883750D01*
X127494843Y-73988400D01*
X127323235Y-74129235D01*
X127182400Y-74300843D01*
X127077750Y-74496629D01*
X127013307Y-74709069D01*
X126991547Y-74930000D01*
X127013307Y-75150931D01*
X127077750Y-75363371D01*
X127182400Y-75559157D01*
X127323235Y-75730765D01*
X127494843Y-75871600D01*
X127690629Y-75976250D01*
X127903069Y-76040693D01*
X128068635Y-76057000D01*
X128979365Y-76057000D01*
X129144931Y-76040693D01*
X129357371Y-75976250D01*
X129553157Y-75871600D01*
X129724765Y-75730765D01*
X129865600Y-75559157D01*
X129960293Y-75382000D01*
X132781777Y-75382000D01*
X134417777Y-77018000D01*
X129960293Y-77018000D01*
X129865600Y-76840843D01*
X129724765Y-76669235D01*
X129553157Y-76528400D01*
X129357371Y-76423750D01*
X129144931Y-76359307D01*
X128979365Y-76343000D01*
X128068635Y-76343000D01*
X127903069Y-76359307D01*
X127690629Y-76423750D01*
X127494843Y-76528400D01*
X127323235Y-76669235D01*
X127182400Y-76840843D01*
X127077750Y-77036629D01*
X127013307Y-77249069D01*
X126991547Y-77470000D01*
X127013307Y-77690931D01*
X127077750Y-77903371D01*
X127182400Y-78099157D01*
X127323235Y-78270765D01*
X127494843Y-78411600D01*
X127690629Y-78516250D01*
X127903069Y-78580693D01*
X128068635Y-78597000D01*
X128979365Y-78597000D01*
X129144931Y-78580693D01*
X129357371Y-78516250D01*
X129553157Y-78411600D01*
X129724765Y-78270765D01*
X129865600Y-78099157D01*
X129960293Y-77922000D01*
X134368572Y-77922000D01*
X136004571Y-79558000D01*
X129960293Y-79558000D01*
X129865600Y-79380843D01*
X129724765Y-79209235D01*
X129553157Y-79068400D01*
X129357371Y-78963750D01*
X129144931Y-78899307D01*
X128979365Y-78883000D01*
X128068635Y-78883000D01*
X127903069Y-78899307D01*
X127690629Y-78963750D01*
X127494843Y-79068400D01*
X127323235Y-79209235D01*
X127182400Y-79380843D01*
X127077750Y-79576629D01*
X127013307Y-79789069D01*
X126991547Y-80010000D01*
X127013307Y-80230931D01*
X127077750Y-80443371D01*
X127182400Y-80639157D01*
X127323235Y-80810765D01*
X127494843Y-80951600D01*
X127690629Y-81056250D01*
X127903069Y-81120693D01*
X128068635Y-81137000D01*
X128979365Y-81137000D01*
X129144931Y-81120693D01*
X129357371Y-81056250D01*
X129553157Y-80951600D01*
X129724765Y-80810765D01*
X129865600Y-80639157D01*
X129960293Y-80462000D01*
X135953957Y-80462000D01*
X138049956Y-82558000D01*
X137987246Y-82558000D01*
X137866111Y-82582095D01*
X137752004Y-82629360D01*
X137649311Y-82697977D01*
X137561977Y-82785311D01*
X137493360Y-82888004D01*
X137446095Y-83002111D01*
X137422000Y-83123246D01*
X137422000Y-83246754D01*
X137446095Y-83367889D01*
X137493360Y-83481996D01*
X137561977Y-83584689D01*
X137597000Y-83619712D01*
X137597000Y-85122141D01*
X137596889Y-85122095D01*
X137475754Y-85098000D01*
X137352246Y-85098000D01*
X137231111Y-85122095D01*
X137117004Y-85169360D01*
X137014311Y-85237977D01*
X136926977Y-85325311D01*
X136858360Y-85428004D01*
X136811095Y-85542111D01*
X136787000Y-85663246D01*
X136787000Y-85786754D01*
X136811095Y-85907889D01*
X136858360Y-86021996D01*
X136926977Y-86124689D01*
X136962000Y-86159712D01*
X136962000Y-92742133D01*
X136961889Y-92742087D01*
X136840754Y-92717992D01*
X136717246Y-92717992D01*
X136596111Y-92742087D01*
X136596000Y-92742133D01*
X136596000Y-91239712D01*
X136631023Y-91204689D01*
X136699640Y-91101996D01*
X136746905Y-90987889D01*
X136771000Y-90866754D01*
X136771000Y-90743246D01*
X136746905Y-90622111D01*
X136699640Y-90508004D01*
X136631023Y-90405311D01*
X136543689Y-90317977D01*
X136440996Y-90249360D01*
X136326889Y-90202095D01*
X136205754Y-90178000D01*
X136082246Y-90178000D01*
X135961111Y-90202095D01*
X135961000Y-90202141D01*
X135961000Y-88107204D01*
X135963187Y-88084999D01*
X135954460Y-87996392D01*
X135928614Y-87911190D01*
X135893441Y-87845386D01*
X135886643Y-87832667D01*
X135830159Y-87763841D01*
X135812912Y-87749687D01*
X130309323Y-82246100D01*
X130295159Y-82228841D01*
X130226333Y-82172357D01*
X130147810Y-82130386D01*
X130062607Y-82104540D01*
X129996205Y-82098000D01*
X129974000Y-82095813D01*
X129959868Y-82097205D01*
X129865600Y-81920843D01*
X129724765Y-81749235D01*
X129553157Y-81608400D01*
X129357371Y-81503750D01*
X129144931Y-81439307D01*
X128979365Y-81423000D01*
X128068635Y-81423000D01*
X127903069Y-81439307D01*
X127690629Y-81503750D01*
X127494843Y-81608400D01*
X127323235Y-81749235D01*
X127182400Y-81920843D01*
X127077750Y-82116629D01*
X127013307Y-82329069D01*
X126991547Y-82550000D01*
X127013307Y-82770931D01*
X127077750Y-82983371D01*
X127182400Y-83179157D01*
X127323235Y-83350765D01*
X127494843Y-83491600D01*
X127690629Y-83596250D01*
X127903069Y-83660693D01*
X128068635Y-83677000D01*
X128979365Y-83677000D01*
X129144931Y-83660693D01*
X129357371Y-83596250D01*
X129553157Y-83491600D01*
X129724765Y-83350765D01*
X129865600Y-83179157D01*
X129899852Y-83115075D01*
X135057000Y-88272225D01*
X135057000Y-90348776D01*
X130031076Y-85322853D01*
X130034693Y-85310931D01*
X130056453Y-85090000D01*
X130034693Y-84869069D01*
X129970250Y-84656629D01*
X129865600Y-84460843D01*
X129724765Y-84289235D01*
X129553157Y-84148400D01*
X129357371Y-84043750D01*
X129144931Y-83979307D01*
X128979365Y-83963000D01*
X128068635Y-83963000D01*
X127903069Y-83979307D01*
X127690629Y-84043750D01*
X127494843Y-84148400D01*
X127323235Y-84289235D01*
X127182400Y-84460843D01*
X127077750Y-84656629D01*
X127013307Y-84869069D01*
X126991547Y-85090000D01*
X127013307Y-85310931D01*
X127077750Y-85523371D01*
X127182400Y-85719157D01*
X127323235Y-85890765D01*
X127494843Y-86031600D01*
X127690629Y-86136250D01*
X127903069Y-86200693D01*
X128068635Y-86217000D01*
X128979365Y-86217000D01*
X129144931Y-86200693D01*
X129357371Y-86136250D01*
X129493346Y-86063570D01*
X134422000Y-90992224D01*
X134422000Y-92253776D01*
X130031076Y-87862853D01*
X130034693Y-87850931D01*
X130056453Y-87630000D01*
X130034693Y-87409069D01*
X129970250Y-87196629D01*
X129865600Y-87000843D01*
X129724765Y-86829235D01*
X129553157Y-86688400D01*
X129357371Y-86583750D01*
X129144931Y-86519307D01*
X128979365Y-86503000D01*
X128068635Y-86503000D01*
X127903069Y-86519307D01*
X127690629Y-86583750D01*
X127494843Y-86688400D01*
X127323235Y-86829235D01*
X127182400Y-87000843D01*
X127077750Y-87196629D01*
X127013307Y-87409069D01*
X126991547Y-87630000D01*
X127013307Y-87850931D01*
X127077750Y-88063371D01*
X127182400Y-88259157D01*
X127323235Y-88430765D01*
X127494843Y-88571600D01*
X127690629Y-88676250D01*
X127903069Y-88740693D01*
X128068635Y-88757000D01*
X128979365Y-88757000D01*
X129144931Y-88740693D01*
X129357371Y-88676250D01*
X129493346Y-88603570D01*
X133787000Y-92897224D01*
X133787000Y-94158775D01*
X130031076Y-90402853D01*
X130034693Y-90390931D01*
X130056453Y-90170000D01*
X130034693Y-89949069D01*
X129970250Y-89736629D01*
X129865600Y-89540843D01*
X129724765Y-89369235D01*
X129553157Y-89228400D01*
X129357371Y-89123750D01*
X129144931Y-89059307D01*
X128979365Y-89043000D01*
X128068635Y-89043000D01*
X127903069Y-89059307D01*
X127690629Y-89123750D01*
X127494843Y-89228400D01*
X127323235Y-89369235D01*
X127182400Y-89540843D01*
X127077750Y-89736629D01*
X127013307Y-89949069D01*
X126991547Y-90170000D01*
X127013307Y-90390931D01*
X127077750Y-90603371D01*
X127182400Y-90799157D01*
X127323235Y-90970765D01*
X127494843Y-91111600D01*
X127690629Y-91216250D01*
X127903069Y-91280693D01*
X128068635Y-91297000D01*
X128979365Y-91297000D01*
X129144931Y-91280693D01*
X129357371Y-91216250D01*
X129493346Y-91143570D01*
X133152000Y-94802225D01*
X133152000Y-95973775D01*
X130041369Y-92863146D01*
X130056453Y-92710000D01*
X130034693Y-92489069D01*
X129970250Y-92276629D01*
X129865600Y-92080843D01*
X129724765Y-91909235D01*
X129553157Y-91768400D01*
X129357371Y-91663750D01*
X129144931Y-91599307D01*
X128979365Y-91583000D01*
X128068635Y-91583000D01*
X127903069Y-91599307D01*
X127690629Y-91663750D01*
X127494843Y-91768400D01*
X127323235Y-91909235D01*
X127182400Y-92080843D01*
X127077750Y-92276629D01*
X127013307Y-92489069D01*
X126991547Y-92710000D01*
X127013307Y-92930931D01*
X127077750Y-93143371D01*
X127182400Y-93339157D01*
X127323235Y-93510765D01*
X127494843Y-93651600D01*
X127690629Y-93756250D01*
X127903069Y-93820693D01*
X128068635Y-93837000D01*
X128979365Y-93837000D01*
X129144931Y-93820693D01*
X129357371Y-93756250D01*
X129551997Y-93652220D01*
X132517000Y-96617225D01*
X132517000Y-97968775D01*
X130031076Y-95482853D01*
X130034693Y-95470931D01*
X130056453Y-95250000D01*
X130034693Y-95029069D01*
X129970250Y-94816629D01*
X129865600Y-94620843D01*
X129724765Y-94449235D01*
X129553157Y-94308400D01*
X129357371Y-94203750D01*
X129144931Y-94139307D01*
X128979365Y-94123000D01*
X128068635Y-94123000D01*
X127903069Y-94139307D01*
X127690629Y-94203750D01*
X127494843Y-94308400D01*
X127323235Y-94449235D01*
X127182400Y-94620843D01*
X127077750Y-94816629D01*
X127013307Y-95029069D01*
X126991547Y-95250000D01*
X127013307Y-95470931D01*
X127077750Y-95683371D01*
X127182400Y-95879157D01*
X127323235Y-96050765D01*
X127494843Y-96191600D01*
X127690629Y-96296250D01*
X127903069Y-96360693D01*
X128068635Y-96377000D01*
X128979365Y-96377000D01*
X129144931Y-96360693D01*
X129357371Y-96296250D01*
X129493346Y-96223570D01*
X131882000Y-98612225D01*
X131882000Y-99873775D01*
X130031076Y-98022853D01*
X130034693Y-98010931D01*
X130056453Y-97790000D01*
X130034693Y-97569069D01*
X129970250Y-97356629D01*
X129865600Y-97160843D01*
X129724765Y-96989235D01*
X129553157Y-96848400D01*
X129357371Y-96743750D01*
X129144931Y-96679307D01*
X128979365Y-96663000D01*
X128068635Y-96663000D01*
X127903069Y-96679307D01*
X127690629Y-96743750D01*
X127494843Y-96848400D01*
X127323235Y-96989235D01*
X127182400Y-97160843D01*
X127077750Y-97356629D01*
X127013307Y-97569069D01*
X126991547Y-97790000D01*
X127013307Y-98010931D01*
X127077750Y-98223371D01*
X127182400Y-98419157D01*
X127323235Y-98590765D01*
X127494843Y-98731600D01*
X127690629Y-98836250D01*
X127903069Y-98900693D01*
X128068635Y-98917000D01*
X128979365Y-98917000D01*
X129144931Y-98900693D01*
X129357371Y-98836250D01*
X129493346Y-98763570D01*
X131247001Y-100517226D01*
X131247001Y-101778777D01*
X130031076Y-100562853D01*
X130034693Y-100550931D01*
X130056453Y-100330000D01*
X130034693Y-100109069D01*
X129970250Y-99896629D01*
X129865600Y-99700843D01*
X129724765Y-99529235D01*
X129553157Y-99388400D01*
X129357371Y-99283750D01*
X129144931Y-99219307D01*
X128979365Y-99203000D01*
X128068635Y-99203000D01*
X127903069Y-99219307D01*
X127690629Y-99283750D01*
X127494843Y-99388400D01*
X127323235Y-99529235D01*
X127182400Y-99700843D01*
X127077750Y-99896629D01*
X127013307Y-100109069D01*
X126991547Y-100330000D01*
X127013307Y-100550931D01*
X127077750Y-100763371D01*
X127182400Y-100959157D01*
X127323235Y-101130765D01*
X127494843Y-101271600D01*
X127690629Y-101376250D01*
X127903069Y-101440693D01*
X128068635Y-101457000D01*
X128979365Y-101457000D01*
X129144931Y-101440693D01*
X129357371Y-101376250D01*
X129493346Y-101303570D01*
X130612001Y-102422225D01*
X130612001Y-103048777D01*
X130129323Y-102566100D01*
X130115159Y-102548841D01*
X130046333Y-102492357D01*
X129975703Y-102454605D01*
X129970250Y-102436629D01*
X129865600Y-102240843D01*
X129724765Y-102069235D01*
X129553157Y-101928400D01*
X129357371Y-101823750D01*
X129144931Y-101759307D01*
X128979365Y-101743000D01*
X128068635Y-101743000D01*
X127903069Y-101759307D01*
X127690629Y-101823750D01*
X127494843Y-101928400D01*
X127323235Y-102069235D01*
X127182400Y-102240843D01*
X127077750Y-102436629D01*
X127013307Y-102649069D01*
X126991547Y-102870000D01*
X127013307Y-103090931D01*
X127077750Y-103303371D01*
X127182400Y-103499157D01*
X127323235Y-103670765D01*
X127494843Y-103811600D01*
X127690629Y-103916250D01*
X127903069Y-103980693D01*
X127944952Y-103984818D01*
X127719486Y-104027350D01*
X127457517Y-104132834D01*
X127221161Y-104287399D01*
X127019500Y-104485105D01*
X126860285Y-104718354D01*
X126749633Y-104978182D01*
X126732096Y-105060961D01*
X126854085Y-105283000D01*
X128397000Y-105283000D01*
X128397000Y-105263000D01*
X128651000Y-105263000D01*
X128651000Y-105283000D01*
X128671000Y-105283000D01*
X128671000Y-105537000D01*
X128651000Y-105537000D01*
X128651000Y-106845000D01*
X129051000Y-106845000D01*
X129328514Y-106792650D01*
X129590483Y-106687166D01*
X129826839Y-106532601D01*
X129977001Y-106385384D01*
X129977000Y-109993795D01*
X129974813Y-110016000D01*
X129983540Y-110104607D01*
X129996586Y-110147614D01*
X130009386Y-110189809D01*
X130051357Y-110268332D01*
X130107841Y-110337159D01*
X130125100Y-110351323D01*
X132041775Y-112268000D01*
X128428730Y-112268000D01*
X128428702Y-111880136D01*
X128428111Y-111874141D01*
X128428122Y-111872566D01*
X128427932Y-111870624D01*
X128422750Y-111821322D01*
X128420201Y-111808904D01*
X128417831Y-111796482D01*
X128417267Y-111794614D01*
X128402608Y-111747259D01*
X128397709Y-111735606D01*
X128392959Y-111723849D01*
X128392043Y-111722127D01*
X128368466Y-111678520D01*
X128361379Y-111668013D01*
X128354451Y-111657426D01*
X128353218Y-111655914D01*
X128321619Y-111617718D01*
X128312654Y-111608816D01*
X128303776Y-111599750D01*
X128302273Y-111598506D01*
X128263857Y-111567175D01*
X128253283Y-111560150D01*
X128242865Y-111553017D01*
X128241149Y-111552088D01*
X128197380Y-111528815D01*
X128185645Y-111523978D01*
X128174035Y-111519002D01*
X128172175Y-111518426D01*
X128172169Y-111518424D01*
X128124715Y-111504097D01*
X128112300Y-111501639D01*
X128099908Y-111499005D01*
X128097970Y-111498801D01*
X128097968Y-111498801D01*
X128048631Y-111493964D01*
X128048627Y-111493964D01*
X128041854Y-111493297D01*
X121291831Y-111493297D01*
X121114926Y-111475951D01*
X120951321Y-111426556D01*
X120800438Y-111346330D01*
X120668002Y-111238318D01*
X120559072Y-111106644D01*
X120477792Y-110956320D01*
X120427259Y-110793072D01*
X120408703Y-110616531D01*
X120408703Y-105759039D01*
X126732096Y-105759039D01*
X126749633Y-105841818D01*
X126860285Y-106101646D01*
X127019500Y-106334895D01*
X127221161Y-106532601D01*
X127457517Y-106687166D01*
X127719486Y-106792650D01*
X127997000Y-106845000D01*
X128397000Y-106845000D01*
X128397000Y-105537000D01*
X126854085Y-105537000D01*
X126732096Y-105759039D01*
X120408703Y-105759039D01*
X120408703Y-100125433D01*
X121367000Y-100125433D01*
X121367000Y-100534567D01*
X121446818Y-100935839D01*
X121603386Y-101313829D01*
X121830689Y-101654011D01*
X122119989Y-101943311D01*
X122460171Y-102170614D01*
X122838161Y-102327182D01*
X123239433Y-102407000D01*
X123648567Y-102407000D01*
X124049839Y-102327182D01*
X124427829Y-102170614D01*
X124768011Y-101943311D01*
X125057311Y-101654011D01*
X125284614Y-101313829D01*
X125441182Y-100935839D01*
X125521000Y-100534567D01*
X125521000Y-100125433D01*
X125441182Y-99724161D01*
X125284614Y-99346171D01*
X125057311Y-99005989D01*
X124768011Y-98716689D01*
X124427829Y-98489386D01*
X124049839Y-98332818D01*
X123648567Y-98253000D01*
X123239433Y-98253000D01*
X122838161Y-98332818D01*
X122460171Y-98489386D01*
X122119989Y-98716689D01*
X121830689Y-99005989D01*
X121603386Y-99346171D01*
X121446818Y-99724161D01*
X121367000Y-100125433D01*
X120408703Y-100125433D01*
X120408703Y-79399569D01*
X120517801Y-79099010D01*
X120517858Y-79098824D01*
X120517930Y-79098652D01*
X120520436Y-79091007D01*
X120979969Y-77539049D01*
X120980662Y-77536196D01*
X120981512Y-77533404D01*
X120983246Y-77525548D01*
X121286366Y-75935622D01*
X121286770Y-75932724D01*
X121287341Y-75929853D01*
X121288286Y-75921863D01*
X121431997Y-74309693D01*
X121432112Y-74306764D01*
X121432394Y-74303856D01*
X121432541Y-74295812D01*
X121415421Y-72677339D01*
X121415244Y-72674413D01*
X121415236Y-72671491D01*
X121414584Y-72663472D01*
X121295957Y-71590000D01*
X126995418Y-71590000D01*
X126995418Y-73190000D01*
X127001732Y-73254103D01*
X127020430Y-73315743D01*
X127050794Y-73372550D01*
X127091657Y-73422343D01*
X127141450Y-73463206D01*
X127198257Y-73493570D01*
X127259897Y-73512268D01*
X127324000Y-73518582D01*
X129724000Y-73518582D01*
X129788103Y-73512268D01*
X129849743Y-73493570D01*
X129906550Y-73463206D01*
X129956343Y-73422343D01*
X129997206Y-73372550D01*
X130027570Y-73315743D01*
X130046268Y-73254103D01*
X130052582Y-73190000D01*
X130052582Y-72390000D01*
X142231547Y-72390000D01*
X142253307Y-72610931D01*
X142317750Y-72823371D01*
X142422400Y-73019157D01*
X142563235Y-73190765D01*
X142734843Y-73331600D01*
X142930629Y-73436250D01*
X143143069Y-73500693D01*
X143308635Y-73517000D01*
X144219365Y-73517000D01*
X144384931Y-73500693D01*
X144597371Y-73436250D01*
X144793157Y-73331600D01*
X144964765Y-73190765D01*
X145105600Y-73019157D01*
X145210250Y-72823371D01*
X145274693Y-72610931D01*
X145280201Y-72555000D01*
X167090928Y-72555000D01*
X167103188Y-72679482D01*
X167139498Y-72799180D01*
X167198463Y-72909494D01*
X167277815Y-73006185D01*
X167374506Y-73085537D01*
X167484820Y-73144502D01*
X167604518Y-73180812D01*
X167629080Y-73183231D01*
X167465481Y-73331586D01*
X167297963Y-73557580D01*
X167177754Y-73811913D01*
X167137096Y-73945961D01*
X167259085Y-74168000D01*
X168402000Y-74168000D01*
X168402000Y-71882000D01*
X168656000Y-71882000D01*
X168656000Y-74168000D01*
X169798915Y-74168000D01*
X169920904Y-73945961D01*
X169880246Y-73811913D01*
X169779258Y-73598246D01*
X173617000Y-73598246D01*
X173617000Y-73721754D01*
X173641095Y-73842889D01*
X173688360Y-73956996D01*
X173756977Y-74059689D01*
X173792000Y-74094712D01*
X173792001Y-78940287D01*
X173756977Y-78975311D01*
X173688360Y-79078004D01*
X173641095Y-79192111D01*
X173617000Y-79313246D01*
X173617000Y-79436754D01*
X173641095Y-79557889D01*
X173688360Y-79671996D01*
X173756977Y-79774689D01*
X173844311Y-79862023D01*
X173947004Y-79930640D01*
X174061111Y-79977905D01*
X174182246Y-80002000D01*
X174305754Y-80002000D01*
X174426889Y-79977905D01*
X174540996Y-79930640D01*
X174643689Y-79862023D01*
X174731023Y-79774689D01*
X174799640Y-79671996D01*
X174846905Y-79557889D01*
X174871000Y-79436754D01*
X174871000Y-79313246D01*
X174861205Y-79264000D01*
X175022000Y-79264000D01*
X175022000Y-79486000D01*
X175065310Y-79703734D01*
X175150266Y-79908835D01*
X175273602Y-80093421D01*
X175430579Y-80250398D01*
X175615165Y-80373734D01*
X175820266Y-80458690D01*
X176038000Y-80502000D01*
X176260000Y-80502000D01*
X176477734Y-80458690D01*
X176682835Y-80373734D01*
X176867421Y-80250398D01*
X177024398Y-80093421D01*
X177147734Y-79908835D01*
X177232690Y-79703734D01*
X177276000Y-79486000D01*
X177276000Y-79264000D01*
X177232690Y-79046266D01*
X177147734Y-78841165D01*
X177024398Y-78656579D01*
X176867421Y-78499602D01*
X176682835Y-78376266D01*
X176477734Y-78291310D01*
X176260000Y-78248000D01*
X176038000Y-78248000D01*
X175820266Y-78291310D01*
X175615165Y-78376266D01*
X175430579Y-78499602D01*
X175273602Y-78656579D01*
X175150266Y-78841165D01*
X175065310Y-79046266D01*
X175022000Y-79264000D01*
X174861205Y-79264000D01*
X174846905Y-79192111D01*
X174799640Y-79078004D01*
X174731023Y-78975311D01*
X174696000Y-78940288D01*
X174696000Y-76724000D01*
X175022000Y-76724000D01*
X175022000Y-76946000D01*
X175065310Y-77163734D01*
X175150266Y-77368835D01*
X175273602Y-77553421D01*
X175430579Y-77710398D01*
X175615165Y-77833734D01*
X175820266Y-77918690D01*
X176038000Y-77962000D01*
X176260000Y-77962000D01*
X176477734Y-77918690D01*
X176682835Y-77833734D01*
X176867421Y-77710398D01*
X177024398Y-77553421D01*
X177147734Y-77368835D01*
X177232690Y-77163734D01*
X177276000Y-76946000D01*
X177276000Y-76724000D01*
X177232690Y-76506266D01*
X177147734Y-76301165D01*
X177024398Y-76116579D01*
X176867421Y-75959602D01*
X176682835Y-75836266D01*
X176477734Y-75751310D01*
X176260000Y-75708000D01*
X176038000Y-75708000D01*
X175820266Y-75751310D01*
X175615165Y-75836266D01*
X175430579Y-75959602D01*
X175273602Y-76116579D01*
X175150266Y-76301165D01*
X175065310Y-76506266D01*
X175022000Y-76724000D01*
X174696000Y-76724000D01*
X174696000Y-74184000D01*
X175022000Y-74184000D01*
X175022000Y-74406000D01*
X175065310Y-74623734D01*
X175150266Y-74828835D01*
X175273602Y-75013421D01*
X175430579Y-75170398D01*
X175615165Y-75293734D01*
X175820266Y-75378690D01*
X176038000Y-75422000D01*
X176260000Y-75422000D01*
X176477734Y-75378690D01*
X176682835Y-75293734D01*
X176867421Y-75170398D01*
X177024398Y-75013421D01*
X177147734Y-74828835D01*
X177232690Y-74623734D01*
X177276000Y-74406000D01*
X177276000Y-74184000D01*
X177232690Y-73966266D01*
X177147734Y-73761165D01*
X177024398Y-73576579D01*
X176867421Y-73419602D01*
X176682835Y-73296266D01*
X176477734Y-73211310D01*
X176260000Y-73168000D01*
X176038000Y-73168000D01*
X175820266Y-73211310D01*
X175615165Y-73296266D01*
X175430579Y-73419602D01*
X175273602Y-73576579D01*
X175150266Y-73761165D01*
X175065310Y-73966266D01*
X175022000Y-74184000D01*
X174696000Y-74184000D01*
X174696000Y-74094712D01*
X174731023Y-74059689D01*
X174799640Y-73956996D01*
X174846905Y-73842889D01*
X174871000Y-73721754D01*
X174871000Y-73598246D01*
X174846905Y-73477111D01*
X174799640Y-73363004D01*
X174731023Y-73260311D01*
X174643689Y-73172977D01*
X174540996Y-73104360D01*
X174426889Y-73057095D01*
X174305754Y-73033000D01*
X174182246Y-73033000D01*
X174061111Y-73057095D01*
X173947004Y-73104360D01*
X173844311Y-73172977D01*
X173756977Y-73260311D01*
X173688360Y-73363004D01*
X173641095Y-73477111D01*
X173617000Y-73598246D01*
X169779258Y-73598246D01*
X169760037Y-73557580D01*
X169592519Y-73331586D01*
X169428920Y-73183231D01*
X169453482Y-73180812D01*
X169573180Y-73144502D01*
X169683494Y-73085537D01*
X169780185Y-73006185D01*
X169859537Y-72909494D01*
X169918502Y-72799180D01*
X169954812Y-72679482D01*
X169967072Y-72555000D01*
X169964000Y-72040750D01*
X169805250Y-71882000D01*
X168656000Y-71882000D01*
X168402000Y-71882000D01*
X167252750Y-71882000D01*
X167094000Y-72040750D01*
X167090928Y-72555000D01*
X145280201Y-72555000D01*
X145296453Y-72390000D01*
X145274693Y-72169069D01*
X145210250Y-71956629D01*
X145105600Y-71760843D01*
X145009710Y-71644000D01*
X175022000Y-71644000D01*
X175022000Y-71866000D01*
X175065310Y-72083734D01*
X175150266Y-72288835D01*
X175273602Y-72473421D01*
X175430579Y-72630398D01*
X175615165Y-72753734D01*
X175820266Y-72838690D01*
X176038000Y-72882000D01*
X176260000Y-72882000D01*
X176477734Y-72838690D01*
X176682835Y-72753734D01*
X176867421Y-72630398D01*
X177024398Y-72473421D01*
X177147734Y-72288835D01*
X177232690Y-72083734D01*
X177276000Y-71866000D01*
X177276000Y-71644000D01*
X177232690Y-71426266D01*
X177147734Y-71221165D01*
X177024398Y-71036579D01*
X176867421Y-70879602D01*
X176682835Y-70756266D01*
X176477734Y-70671310D01*
X176260000Y-70628000D01*
X176038000Y-70628000D01*
X175820266Y-70671310D01*
X175615165Y-70756266D01*
X175430579Y-70879602D01*
X175273602Y-71036579D01*
X175150266Y-71221165D01*
X175065310Y-71426266D01*
X175022000Y-71644000D01*
X145009710Y-71644000D01*
X144964765Y-71589235D01*
X144793157Y-71448400D01*
X144597371Y-71343750D01*
X144384931Y-71279307D01*
X144219365Y-71263000D01*
X143308635Y-71263000D01*
X143143069Y-71279307D01*
X142930629Y-71343750D01*
X142734843Y-71448400D01*
X142563235Y-71589235D01*
X142422400Y-71760843D01*
X142317750Y-71956629D01*
X142253307Y-72169069D01*
X142231547Y-72390000D01*
X130052582Y-72390000D01*
X130052582Y-71590000D01*
X130046268Y-71525897D01*
X130027570Y-71464257D01*
X129997206Y-71407450D01*
X129956343Y-71357657D01*
X129906550Y-71316794D01*
X129849743Y-71286430D01*
X129788103Y-71267732D01*
X129724000Y-71261418D01*
X127324000Y-71261418D01*
X127259897Y-71267732D01*
X127198257Y-71286430D01*
X127141450Y-71316794D01*
X127091657Y-71357657D01*
X127050794Y-71407450D01*
X127020430Y-71464257D01*
X127001732Y-71525897D01*
X126995418Y-71590000D01*
X121295957Y-71590000D01*
X121236802Y-71054703D01*
X121236335Y-71051806D01*
X121236037Y-71048902D01*
X121234591Y-71040988D01*
X120981308Y-69850000D01*
X126991547Y-69850000D01*
X127013307Y-70070931D01*
X127077750Y-70283371D01*
X127182400Y-70479157D01*
X127323235Y-70650765D01*
X127494843Y-70791600D01*
X127690629Y-70896250D01*
X127903069Y-70960693D01*
X128068635Y-70977000D01*
X128979365Y-70977000D01*
X129144931Y-70960693D01*
X129357371Y-70896250D01*
X129553157Y-70791600D01*
X129724765Y-70650765D01*
X129865600Y-70479157D01*
X129970250Y-70283371D01*
X130034693Y-70070931D01*
X130056453Y-69850000D01*
X142231547Y-69850000D01*
X142253307Y-70070931D01*
X142317750Y-70283371D01*
X142422400Y-70479157D01*
X142563235Y-70650765D01*
X142734843Y-70791600D01*
X142930629Y-70896250D01*
X143143069Y-70960693D01*
X143308635Y-70977000D01*
X144219365Y-70977000D01*
X144384931Y-70960693D01*
X144597371Y-70896250D01*
X144793157Y-70791600D01*
X144964765Y-70650765D01*
X145105600Y-70479157D01*
X145210250Y-70283371D01*
X145274693Y-70070931D01*
X145296453Y-69850000D01*
X145285521Y-69739000D01*
X146447000Y-69739000D01*
X146447000Y-69961000D01*
X146490310Y-70178734D01*
X146575266Y-70383835D01*
X146698602Y-70568421D01*
X146855579Y-70725398D01*
X147040165Y-70848734D01*
X147245266Y-70933690D01*
X147463000Y-70977000D01*
X147685000Y-70977000D01*
X147795601Y-70955000D01*
X167090928Y-70955000D01*
X167094000Y-71469250D01*
X167252750Y-71628000D01*
X168402000Y-71628000D01*
X168402000Y-70478750D01*
X168656000Y-70478750D01*
X168656000Y-71628000D01*
X169805250Y-71628000D01*
X169964000Y-71469250D01*
X169967072Y-70955000D01*
X169954812Y-70830518D01*
X169918502Y-70710820D01*
X169859537Y-70600506D01*
X169780185Y-70503815D01*
X169683494Y-70424463D01*
X169573180Y-70365498D01*
X169453482Y-70329188D01*
X169329000Y-70316928D01*
X168814750Y-70320000D01*
X168656000Y-70478750D01*
X168402000Y-70478750D01*
X168243250Y-70320000D01*
X167729000Y-70316928D01*
X167604518Y-70329188D01*
X167484820Y-70365498D01*
X167374506Y-70424463D01*
X167277815Y-70503815D01*
X167198463Y-70600506D01*
X167139498Y-70710820D01*
X167103188Y-70830518D01*
X167090928Y-70955000D01*
X147795601Y-70955000D01*
X147902734Y-70933690D01*
X148107835Y-70848734D01*
X148292421Y-70725398D01*
X148449398Y-70568421D01*
X148572734Y-70383835D01*
X148657690Y-70178734D01*
X148701000Y-69961000D01*
X148701000Y-69739000D01*
X148657690Y-69521266D01*
X148572734Y-69316165D01*
X148449398Y-69131579D01*
X148292421Y-68974602D01*
X148107835Y-68851266D01*
X147902734Y-68766310D01*
X147685000Y-68723000D01*
X147463000Y-68723000D01*
X147245266Y-68766310D01*
X147040165Y-68851266D01*
X146855579Y-68974602D01*
X146698602Y-69131579D01*
X146575266Y-69316165D01*
X146490310Y-69521266D01*
X146447000Y-69739000D01*
X145285521Y-69739000D01*
X145274693Y-69629069D01*
X145210250Y-69416629D01*
X145105600Y-69220843D01*
X144964765Y-69049235D01*
X144793157Y-68908400D01*
X144597371Y-68803750D01*
X144384931Y-68739307D01*
X144219365Y-68723000D01*
X143308635Y-68723000D01*
X143143069Y-68739307D01*
X142930629Y-68803750D01*
X142734843Y-68908400D01*
X142563235Y-69049235D01*
X142422400Y-69220843D01*
X142317750Y-69416629D01*
X142253307Y-69629069D01*
X142231547Y-69850000D01*
X130056453Y-69850000D01*
X130034693Y-69629069D01*
X129970250Y-69416629D01*
X129865600Y-69220843D01*
X129724765Y-69049235D01*
X129553157Y-68908400D01*
X129357371Y-68803750D01*
X129144931Y-68739307D01*
X128979365Y-68723000D01*
X128068635Y-68723000D01*
X127903069Y-68739307D01*
X127690629Y-68803750D01*
X127494843Y-68908400D01*
X127323235Y-69049235D01*
X127182400Y-69220843D01*
X127077750Y-69416629D01*
X127013307Y-69629069D01*
X126991547Y-69850000D01*
X120981308Y-69850000D01*
X120897906Y-69457830D01*
X120897155Y-69454999D01*
X120896569Y-69452133D01*
X120894344Y-69444401D01*
X120408703Y-67923241D01*
X120408703Y-66510000D01*
X126995418Y-66510000D01*
X126995418Y-68110000D01*
X127001732Y-68174103D01*
X127020430Y-68235743D01*
X127050794Y-68292550D01*
X127091657Y-68342343D01*
X127141450Y-68383206D01*
X127198257Y-68413570D01*
X127259897Y-68432268D01*
X127324000Y-68438582D01*
X129724000Y-68438582D01*
X129788103Y-68432268D01*
X129849743Y-68413570D01*
X129906550Y-68383206D01*
X129956343Y-68342343D01*
X129997206Y-68292550D01*
X130027570Y-68235743D01*
X130046268Y-68174103D01*
X130052582Y-68110000D01*
X130052582Y-67310000D01*
X142231547Y-67310000D01*
X142253307Y-67530931D01*
X142317750Y-67743371D01*
X142422400Y-67939157D01*
X142563235Y-68110765D01*
X142734843Y-68251600D01*
X142930629Y-68356250D01*
X143143069Y-68420693D01*
X143308635Y-68437000D01*
X144219365Y-68437000D01*
X144384931Y-68420693D01*
X144597371Y-68356250D01*
X144793157Y-68251600D01*
X144964765Y-68110765D01*
X145105600Y-67939157D01*
X145210250Y-67743371D01*
X145274693Y-67530931D01*
X145296453Y-67310000D01*
X145274693Y-67089069D01*
X145210250Y-66876629D01*
X145146042Y-66756504D01*
X154105000Y-66756504D01*
X154105000Y-67863497D01*
X154120757Y-68023481D01*
X154183028Y-68228759D01*
X154284150Y-68417943D01*
X154420236Y-68583765D01*
X154586058Y-68719851D01*
X154775242Y-68820973D01*
X154980520Y-68883243D01*
X155194000Y-68904269D01*
X155407481Y-68883243D01*
X155612759Y-68820973D01*
X155801943Y-68719851D01*
X155967765Y-68583765D01*
X156103851Y-68417943D01*
X156204973Y-68228759D01*
X156267243Y-68023481D01*
X156283000Y-67863497D01*
X156283000Y-66756504D01*
X156645000Y-66756504D01*
X156645000Y-67863497D01*
X156660757Y-68023481D01*
X156723028Y-68228759D01*
X156824150Y-68417943D01*
X156960236Y-68583765D01*
X157126058Y-68719851D01*
X157315242Y-68820973D01*
X157520520Y-68883243D01*
X157734000Y-68904269D01*
X157947481Y-68883243D01*
X158152759Y-68820973D01*
X158341943Y-68719851D01*
X158507765Y-68583765D01*
X158643851Y-68417943D01*
X158744973Y-68228759D01*
X158807243Y-68023481D01*
X158823000Y-67863497D01*
X158823000Y-67437000D01*
X158877000Y-67437000D01*
X158877000Y-67937000D01*
X158928619Y-68207101D01*
X159031941Y-68461942D01*
X159182994Y-68691729D01*
X159375974Y-68887632D01*
X159603465Y-69042122D01*
X159856724Y-69149262D01*
X159930930Y-69164220D01*
X160147000Y-69041720D01*
X160147000Y-67437000D01*
X160401000Y-67437000D01*
X160401000Y-69041720D01*
X160617070Y-69164220D01*
X160691276Y-69149262D01*
X160944535Y-69042122D01*
X161172026Y-68887632D01*
X161365006Y-68691729D01*
X161516059Y-68461942D01*
X161619381Y-68207101D01*
X161671000Y-67937000D01*
X161671000Y-67437000D01*
X160401000Y-67437000D01*
X160147000Y-67437000D01*
X158877000Y-67437000D01*
X158823000Y-67437000D01*
X158823000Y-66756503D01*
X158815761Y-66683000D01*
X158877000Y-66683000D01*
X158877000Y-67183000D01*
X160147000Y-67183000D01*
X160147000Y-65578280D01*
X160401000Y-65578280D01*
X160401000Y-67183000D01*
X161671000Y-67183000D01*
X161671000Y-66756504D01*
X161725000Y-66756504D01*
X161725000Y-67863497D01*
X161740757Y-68023481D01*
X161803028Y-68228759D01*
X161904150Y-68417943D01*
X162040236Y-68583765D01*
X162206058Y-68719851D01*
X162395242Y-68820973D01*
X162600520Y-68883243D01*
X162814000Y-68904269D01*
X163027481Y-68883243D01*
X163232759Y-68820973D01*
X163421943Y-68719851D01*
X163587765Y-68583765D01*
X163723851Y-68417943D01*
X163824973Y-68228759D01*
X163887243Y-68023481D01*
X163903000Y-67863497D01*
X163903000Y-66756504D01*
X164265000Y-66756504D01*
X164265000Y-67863497D01*
X164280757Y-68023481D01*
X164343028Y-68228759D01*
X164444150Y-68417943D01*
X164580236Y-68583765D01*
X164746058Y-68719851D01*
X164935242Y-68820973D01*
X165140520Y-68883243D01*
X165354000Y-68904269D01*
X165567481Y-68883243D01*
X165772759Y-68820973D01*
X165961943Y-68719851D01*
X166127765Y-68583765D01*
X166263851Y-68417943D01*
X166364973Y-68228759D01*
X166427243Y-68023481D01*
X166443000Y-67863497D01*
X166443000Y-66756503D01*
X166427243Y-66596519D01*
X166417379Y-66564000D01*
X167402000Y-66564000D01*
X167402000Y-66786000D01*
X167445310Y-67003734D01*
X167530266Y-67208835D01*
X167653602Y-67393421D01*
X167810579Y-67550398D01*
X167995165Y-67673734D01*
X168200266Y-67758690D01*
X168418000Y-67802000D01*
X168640000Y-67802000D01*
X168857734Y-67758690D01*
X169062835Y-67673734D01*
X169247421Y-67550398D01*
X169404398Y-67393421D01*
X169527734Y-67208835D01*
X169612690Y-67003734D01*
X169656000Y-66786000D01*
X169656000Y-66564000D01*
X175022000Y-66564000D01*
X175022000Y-66786000D01*
X175065310Y-67003734D01*
X175150266Y-67208835D01*
X175273602Y-67393421D01*
X175430579Y-67550398D01*
X175615165Y-67673734D01*
X175820266Y-67758690D01*
X176038000Y-67802000D01*
X176260000Y-67802000D01*
X176477734Y-67758690D01*
X176682835Y-67673734D01*
X176867421Y-67550398D01*
X177024398Y-67393421D01*
X177147734Y-67208835D01*
X177232690Y-67003734D01*
X177276000Y-66786000D01*
X177276000Y-66564000D01*
X177232690Y-66346266D01*
X177147734Y-66141165D01*
X177024398Y-65956579D01*
X176867421Y-65799602D01*
X176682835Y-65676266D01*
X176477734Y-65591310D01*
X176260000Y-65548000D01*
X176038000Y-65548000D01*
X175820266Y-65591310D01*
X175615165Y-65676266D01*
X175430579Y-65799602D01*
X175273602Y-65956579D01*
X175150266Y-66141165D01*
X175065310Y-66346266D01*
X175022000Y-66564000D01*
X169656000Y-66564000D01*
X169612690Y-66346266D01*
X169527734Y-66141165D01*
X169404398Y-65956579D01*
X169247421Y-65799602D01*
X169062835Y-65676266D01*
X168857734Y-65591310D01*
X168640000Y-65548000D01*
X168418000Y-65548000D01*
X168200266Y-65591310D01*
X167995165Y-65676266D01*
X167810579Y-65799602D01*
X167653602Y-65956579D01*
X167530266Y-66141165D01*
X167445310Y-66346266D01*
X167402000Y-66564000D01*
X166417379Y-66564000D01*
X166364973Y-66391241D01*
X166263851Y-66202057D01*
X166127765Y-66036235D01*
X165961943Y-65900149D01*
X165772758Y-65799027D01*
X165567480Y-65736757D01*
X165354000Y-65715731D01*
X165140519Y-65736757D01*
X164935241Y-65799027D01*
X164746057Y-65900149D01*
X164580235Y-66036235D01*
X164444149Y-66202057D01*
X164343027Y-66391242D01*
X164280757Y-66596520D01*
X164265000Y-66756504D01*
X163903000Y-66756504D01*
X163903000Y-66756503D01*
X163887243Y-66596519D01*
X163824973Y-66391241D01*
X163723851Y-66202057D01*
X163587765Y-66036235D01*
X163421943Y-65900149D01*
X163232758Y-65799027D01*
X163027480Y-65736757D01*
X162814000Y-65715731D01*
X162600519Y-65736757D01*
X162395241Y-65799027D01*
X162206057Y-65900149D01*
X162040235Y-66036235D01*
X161904149Y-66202057D01*
X161803027Y-66391242D01*
X161740757Y-66596520D01*
X161725000Y-66756504D01*
X161671000Y-66756504D01*
X161671000Y-66683000D01*
X161619381Y-66412899D01*
X161516059Y-66158058D01*
X161365006Y-65928271D01*
X161172026Y-65732368D01*
X160944535Y-65577878D01*
X160691276Y-65470738D01*
X160617070Y-65455780D01*
X160401000Y-65578280D01*
X160147000Y-65578280D01*
X159930930Y-65455780D01*
X159856724Y-65470738D01*
X159603465Y-65577878D01*
X159375974Y-65732368D01*
X159182994Y-65928271D01*
X159031941Y-66158058D01*
X158928619Y-66412899D01*
X158877000Y-66683000D01*
X158815761Y-66683000D01*
X158807243Y-66596519D01*
X158744973Y-66391241D01*
X158643851Y-66202057D01*
X158507765Y-66036235D01*
X158341943Y-65900149D01*
X158152758Y-65799027D01*
X157947480Y-65736757D01*
X157734000Y-65715731D01*
X157520519Y-65736757D01*
X157315241Y-65799027D01*
X157126057Y-65900149D01*
X156960235Y-66036235D01*
X156824149Y-66202057D01*
X156723027Y-66391242D01*
X156660757Y-66596520D01*
X156645000Y-66756504D01*
X156283000Y-66756504D01*
X156283000Y-66756503D01*
X156267243Y-66596519D01*
X156204973Y-66391241D01*
X156103851Y-66202057D01*
X155967765Y-66036235D01*
X155801943Y-65900149D01*
X155612758Y-65799027D01*
X155407480Y-65736757D01*
X155194000Y-65715731D01*
X154980519Y-65736757D01*
X154775241Y-65799027D01*
X154586057Y-65900149D01*
X154420235Y-66036235D01*
X154284149Y-66202057D01*
X154183027Y-66391242D01*
X154120757Y-66596520D01*
X154105000Y-66756504D01*
X145146042Y-66756504D01*
X145105600Y-66680843D01*
X144964765Y-66509235D01*
X144793157Y-66368400D01*
X144597371Y-66263750D01*
X144384931Y-66199307D01*
X144219365Y-66183000D01*
X143308635Y-66183000D01*
X143143069Y-66199307D01*
X142930629Y-66263750D01*
X142734843Y-66368400D01*
X142563235Y-66509235D01*
X142422400Y-66680843D01*
X142317750Y-66876629D01*
X142253307Y-67089069D01*
X142231547Y-67310000D01*
X130052582Y-67310000D01*
X130052582Y-66510000D01*
X130046268Y-66445897D01*
X130027570Y-66384257D01*
X129997206Y-66327450D01*
X129956343Y-66277657D01*
X129906550Y-66236794D01*
X129849743Y-66206430D01*
X129788103Y-66187732D01*
X129724000Y-66181418D01*
X127324000Y-66181418D01*
X127259897Y-66187732D01*
X127198257Y-66206430D01*
X127141450Y-66236794D01*
X127091657Y-66277657D01*
X127050794Y-66327450D01*
X127020430Y-66384257D01*
X127001732Y-66445897D01*
X126995418Y-66510000D01*
X120408703Y-66510000D01*
X120408703Y-62236830D01*
X120429430Y-62025433D01*
X121367000Y-62025433D01*
X121367000Y-62434567D01*
X121446818Y-62835839D01*
X121603386Y-63213829D01*
X121830689Y-63554011D01*
X122119989Y-63843311D01*
X122460171Y-64070614D01*
X122838161Y-64227182D01*
X123239433Y-64307000D01*
X123648567Y-64307000D01*
X124049839Y-64227182D01*
X124427829Y-64070614D01*
X124768011Y-63843311D01*
X125057311Y-63554011D01*
X125284614Y-63213829D01*
X125441182Y-62835839D01*
X125521000Y-62434567D01*
X125521000Y-62025433D01*
X172934000Y-62025433D01*
X172934000Y-62434567D01*
X173013818Y-62835839D01*
X173170386Y-63213829D01*
X173397689Y-63554011D01*
X173686989Y-63843311D01*
X174027171Y-64070614D01*
X174405161Y-64227182D01*
X174806433Y-64307000D01*
X175215567Y-64307000D01*
X175616839Y-64227182D01*
X175994829Y-64070614D01*
X176335011Y-63843311D01*
X176624311Y-63554011D01*
X176851614Y-63213829D01*
X177008182Y-62835839D01*
X177088000Y-62434567D01*
X177088000Y-62025433D01*
X177008182Y-61624161D01*
X176851614Y-61246171D01*
X176624311Y-60905989D01*
X176335011Y-60616689D01*
X175994829Y-60389386D01*
X175616839Y-60232818D01*
X175215567Y-60153000D01*
X174806433Y-60153000D01*
X174405161Y-60232818D01*
X174027171Y-60389386D01*
X173686989Y-60616689D01*
X173397689Y-60905989D01*
X173170386Y-61246171D01*
X173013818Y-61624161D01*
X172934000Y-62025433D01*
X125521000Y-62025433D01*
X125441182Y-61624161D01*
X125284614Y-61246171D01*
X125057311Y-60905989D01*
X124768011Y-60616689D01*
X124427829Y-60389386D01*
X124049839Y-60232818D01*
X123648567Y-60153000D01*
X123239433Y-60153000D01*
X122838161Y-60232818D01*
X122460171Y-60389386D01*
X122119989Y-60616689D01*
X121830689Y-60905989D01*
X121603386Y-61246171D01*
X121446818Y-61624161D01*
X121367000Y-62025433D01*
X120429430Y-62025433D01*
X120467166Y-61640571D01*
X120638347Y-61073594D01*
X120916396Y-60550661D01*
X121290716Y-60091698D01*
X121747060Y-59714179D01*
X122268038Y-59432487D01*
X122833802Y-59257355D01*
X123429403Y-59194754D01*
X123444197Y-59194703D01*
X174999170Y-59194703D01*
X175595429Y-59253166D01*
%TA.AperFunction,Conductor*%
D25*
G36*
X175595429Y-59253166D02*
G01*
X176162406Y-59424347D01*
X176685339Y-59702396D01*
X177144302Y-60076716D01*
X177521821Y-60533060D01*
X177803513Y-61054038D01*
X177978645Y-61619802D01*
X178041246Y-62215403D01*
X178041297Y-62230197D01*
X178041298Y-110610159D01*
X178023951Y-110787074D01*
X177974556Y-110950679D01*
X177894330Y-111101562D01*
X177786318Y-111233998D01*
X177654644Y-111342928D01*
X177504320Y-111424208D01*
X177341072Y-111474741D01*
X177164531Y-111493297D01*
X167868146Y-111493297D01*
X167862135Y-111493889D01*
X167860566Y-111493878D01*
X167858624Y-111494068D01*
X167809322Y-111499250D01*
X167796904Y-111501799D01*
X167784482Y-111504169D01*
X167782614Y-111504733D01*
X167735259Y-111519392D01*
X167723606Y-111524291D01*
X167711849Y-111529041D01*
X167710127Y-111529957D01*
X167666520Y-111553534D01*
X167656013Y-111560621D01*
X167645426Y-111567549D01*
X167643914Y-111568782D01*
X167605718Y-111600381D01*
X167596816Y-111609346D01*
X167587750Y-111618224D01*
X167586506Y-111619727D01*
X167555175Y-111658143D01*
X167548150Y-111668717D01*
X167541017Y-111679135D01*
X167540088Y-111680851D01*
X167516815Y-111724620D01*
X167511978Y-111736355D01*
X167507002Y-111747965D01*
X167506425Y-111749829D01*
X167492097Y-111797285D01*
X167489641Y-111809687D01*
X167487005Y-111822092D01*
X167486801Y-111824032D01*
X167481964Y-111873369D01*
X167481964Y-111873383D01*
X167481298Y-111880146D01*
X167481298Y-112268000D01*
X166252500Y-112268000D01*
X166252500Y-109193077D01*
X166290640Y-109135996D01*
X166337905Y-109021889D01*
X166362000Y-108900754D01*
X166362000Y-108777246D01*
X166337905Y-108656111D01*
X166290640Y-108542004D01*
X166222023Y-108439311D01*
X166134689Y-108351977D01*
X166031996Y-108283360D01*
X165917889Y-108236095D01*
X165796754Y-108212000D01*
X165673246Y-108212000D01*
X165552111Y-108236095D01*
X165438004Y-108283360D01*
X165335311Y-108351977D01*
X165247977Y-108439311D01*
X165179360Y-108542004D01*
X165132095Y-108656111D01*
X165108000Y-108777246D01*
X165108000Y-108900754D01*
X165132095Y-109021889D01*
X165179360Y-109135996D01*
X165217501Y-109193078D01*
X165217501Y-112268000D01*
X163647000Y-112268000D01*
X163647000Y-112163204D01*
X163649187Y-112140999D01*
X163640460Y-112052392D01*
X163614614Y-111967190D01*
X163593457Y-111927608D01*
X163572643Y-111888667D01*
X163516159Y-111819841D01*
X163498906Y-111805682D01*
X159339323Y-107646100D01*
X159325159Y-107628841D01*
X159256333Y-107572357D01*
X159177810Y-107530386D01*
X159092607Y-107504540D01*
X159026205Y-107498000D01*
X159004000Y-107495813D01*
X158981795Y-107498000D01*
X154526859Y-107498000D01*
X154526905Y-107497889D01*
X154551000Y-107376754D01*
X154551000Y-107253246D01*
X154526905Y-107132111D01*
X154479640Y-107018004D01*
X154411023Y-106915311D01*
X154323689Y-106827977D01*
X154220996Y-106759360D01*
X154106889Y-106712095D01*
X153985754Y-106688000D01*
X153862246Y-106688000D01*
X153741111Y-106712095D01*
X153627004Y-106759360D01*
X153524311Y-106827977D01*
X153489288Y-106863000D01*
X152206224Y-106863000D01*
X147391000Y-102047777D01*
X147391000Y-101489000D01*
X148987000Y-101489000D01*
X148987000Y-101711000D01*
X149030310Y-101928734D01*
X149115266Y-102133835D01*
X149238602Y-102318421D01*
X149395579Y-102475398D01*
X149580165Y-102598734D01*
X149785266Y-102683690D01*
X150003000Y-102727000D01*
X150225000Y-102727000D01*
X150442734Y-102683690D01*
X150647835Y-102598734D01*
X150832421Y-102475398D01*
X150989398Y-102318421D01*
X151112734Y-102133835D01*
X151197690Y-101928734D01*
X151241000Y-101711000D01*
X151241000Y-101489000D01*
X151197690Y-101271266D01*
X151112734Y-101066165D01*
X150989398Y-100881579D01*
X150907819Y-100800000D01*
X156605418Y-100800000D01*
X156605418Y-102400000D01*
X156611732Y-102464103D01*
X156630430Y-102525743D01*
X156660794Y-102582550D01*
X156701657Y-102632343D01*
X156751450Y-102673206D01*
X156808257Y-102703570D01*
X156869897Y-102722268D01*
X156934000Y-102728582D01*
X158534000Y-102728582D01*
X158598103Y-102722268D01*
X158659743Y-102703570D01*
X158716550Y-102673206D01*
X158766343Y-102632343D01*
X158807206Y-102582550D01*
X158837570Y-102525743D01*
X158856268Y-102464103D01*
X158862582Y-102400000D01*
X158862582Y-101489000D01*
X159147000Y-101489000D01*
X159147000Y-101711000D01*
X159190310Y-101928734D01*
X159275266Y-102133835D01*
X159398602Y-102318421D01*
X159555579Y-102475398D01*
X159740165Y-102598734D01*
X159945266Y-102683690D01*
X160163000Y-102727000D01*
X160385000Y-102727000D01*
X160602734Y-102683690D01*
X160807835Y-102598734D01*
X160992421Y-102475398D01*
X161149398Y-102318421D01*
X161272734Y-102133835D01*
X161357690Y-101928734D01*
X161401000Y-101711000D01*
X161401000Y-101489000D01*
X169307000Y-101489000D01*
X169307000Y-101711000D01*
X169350310Y-101928734D01*
X169435266Y-102133835D01*
X169558602Y-102318421D01*
X169715579Y-102475398D01*
X169900165Y-102598734D01*
X170105266Y-102683690D01*
X170323000Y-102727000D01*
X170545000Y-102727000D01*
X170762734Y-102683690D01*
X170967835Y-102598734D01*
X171152421Y-102475398D01*
X171309398Y-102318421D01*
X171432734Y-102133835D01*
X171517690Y-101928734D01*
X171561000Y-101711000D01*
X171561000Y-101489000D01*
X171517690Y-101271266D01*
X171432734Y-101066165D01*
X171309398Y-100881579D01*
X171152421Y-100724602D01*
X170967835Y-100601266D01*
X170762734Y-100516310D01*
X170545000Y-100473000D01*
X170323000Y-100473000D01*
X170105266Y-100516310D01*
X169900165Y-100601266D01*
X169715579Y-100724602D01*
X169558602Y-100881579D01*
X169435266Y-101066165D01*
X169350310Y-101271266D01*
X169307000Y-101489000D01*
X161401000Y-101489000D01*
X161357690Y-101271266D01*
X161272734Y-101066165D01*
X161149398Y-100881579D01*
X160992421Y-100724602D01*
X160807835Y-100601266D01*
X160602734Y-100516310D01*
X160385000Y-100473000D01*
X160163000Y-100473000D01*
X159945266Y-100516310D01*
X159740165Y-100601266D01*
X159555579Y-100724602D01*
X159398602Y-100881579D01*
X159275266Y-101066165D01*
X159190310Y-101271266D01*
X159147000Y-101489000D01*
X158862582Y-101489000D01*
X158862582Y-100800000D01*
X158856268Y-100735897D01*
X158837570Y-100674257D01*
X158807206Y-100617450D01*
X158766343Y-100567657D01*
X158716550Y-100526794D01*
X158659743Y-100496430D01*
X158598103Y-100477732D01*
X158534000Y-100471418D01*
X156934000Y-100471418D01*
X156869897Y-100477732D01*
X156808257Y-100496430D01*
X156751450Y-100526794D01*
X156701657Y-100567657D01*
X156660794Y-100617450D01*
X156630430Y-100674257D01*
X156611732Y-100735897D01*
X156605418Y-100800000D01*
X150907819Y-100800000D01*
X150832421Y-100724602D01*
X150647835Y-100601266D01*
X150442734Y-100516310D01*
X150225000Y-100473000D01*
X150003000Y-100473000D01*
X149785266Y-100516310D01*
X149580165Y-100601266D01*
X149395579Y-100724602D01*
X149238602Y-100881579D01*
X149115266Y-101066165D01*
X149030310Y-101271266D01*
X148987000Y-101489000D01*
X147391000Y-101489000D01*
X147391000Y-100125433D01*
X172934000Y-100125433D01*
X172934000Y-100534567D01*
X173013818Y-100935839D01*
X173170386Y-101313829D01*
X173397689Y-101654011D01*
X173686989Y-101943311D01*
X174027171Y-102170614D01*
X174405161Y-102327182D01*
X174806433Y-102407000D01*
X175215567Y-102407000D01*
X175616839Y-102327182D01*
X175994829Y-102170614D01*
X176335011Y-101943311D01*
X176624311Y-101654011D01*
X176851614Y-101313829D01*
X177008182Y-100935839D01*
X177088000Y-100534567D01*
X177088000Y-100125433D01*
X177008182Y-99724161D01*
X176851614Y-99346171D01*
X176624311Y-99005989D01*
X176335011Y-98716689D01*
X175994829Y-98489386D01*
X175616839Y-98332818D01*
X175215567Y-98253000D01*
X174806433Y-98253000D01*
X174405161Y-98332818D01*
X174027171Y-98489386D01*
X173686989Y-98716689D01*
X173397689Y-99005989D01*
X173170386Y-99346171D01*
X173013818Y-99724161D01*
X172934000Y-100125433D01*
X147391000Y-100125433D01*
X147391000Y-97812204D01*
X147393187Y-97789999D01*
X147384460Y-97701392D01*
X147378444Y-97681562D01*
X147358614Y-97616190D01*
X147316643Y-97537667D01*
X147260159Y-97468841D01*
X147242912Y-97454687D01*
X146004323Y-96216100D01*
X145990159Y-96198841D01*
X145921333Y-96142357D01*
X145842810Y-96100386D01*
X145757607Y-96074540D01*
X145691205Y-96068000D01*
X145669000Y-96065813D01*
X145646795Y-96068000D01*
X144943764Y-96068000D01*
X144964765Y-96050765D01*
X145105600Y-95879157D01*
X145210250Y-95683371D01*
X145274693Y-95470931D01*
X145296453Y-95250000D01*
X145274693Y-95029069D01*
X145233327Y-94892702D01*
X146760903Y-94892702D01*
X146832486Y-95136671D01*
X147087996Y-95257571D01*
X147362184Y-95326300D01*
X147644512Y-95340217D01*
X147924130Y-95298787D01*
X148190292Y-95203603D01*
X148315514Y-95136671D01*
X148387097Y-94892702D01*
X147574000Y-94079605D01*
X146760903Y-94892702D01*
X145233327Y-94892702D01*
X145210250Y-94816629D01*
X145105600Y-94620843D01*
X144964765Y-94449235D01*
X144793157Y-94308400D01*
X144597371Y-94203750D01*
X144384931Y-94139307D01*
X144219365Y-94123000D01*
X143308635Y-94123000D01*
X143143069Y-94139307D01*
X142930629Y-94203750D01*
X142734843Y-94308400D01*
X142563235Y-94449235D01*
X142422400Y-94620843D01*
X142317750Y-94816629D01*
X142253307Y-95029069D01*
X142231547Y-95250000D01*
X142253307Y-95470931D01*
X142317750Y-95683371D01*
X142422400Y-95879157D01*
X142563235Y-96050765D01*
X142584236Y-96068000D01*
X141411224Y-96068000D01*
X141041000Y-95697777D01*
X141041000Y-93947859D01*
X141041111Y-93947905D01*
X141162246Y-93972000D01*
X141285754Y-93972000D01*
X141406889Y-93947905D01*
X141520996Y-93900640D01*
X141623689Y-93832023D01*
X141711023Y-93744689D01*
X141779640Y-93641996D01*
X141826905Y-93527889D01*
X141851000Y-93406754D01*
X141851000Y-93283246D01*
X141826905Y-93162111D01*
X141779640Y-93048004D01*
X141711023Y-92945311D01*
X141676000Y-92910288D01*
X141676000Y-87630000D01*
X142231547Y-87630000D01*
X142253307Y-87850931D01*
X142317750Y-88063371D01*
X142422400Y-88259157D01*
X142563235Y-88430765D01*
X142734843Y-88571600D01*
X142930629Y-88676250D01*
X143143069Y-88740693D01*
X143308635Y-88757000D01*
X144219365Y-88757000D01*
X144384931Y-88740693D01*
X144597371Y-88676250D01*
X144793157Y-88571600D01*
X144964765Y-88430765D01*
X145068788Y-88304012D01*
X145217000Y-88452224D01*
X145217000Y-89758882D01*
X145210250Y-89736629D01*
X145105600Y-89540843D01*
X144964765Y-89369235D01*
X144793157Y-89228400D01*
X144597371Y-89123750D01*
X144384931Y-89059307D01*
X144219365Y-89043000D01*
X143308635Y-89043000D01*
X143143069Y-89059307D01*
X142930629Y-89123750D01*
X142734843Y-89228400D01*
X142563235Y-89369235D01*
X142422400Y-89540843D01*
X142317750Y-89736629D01*
X142253307Y-89949069D01*
X142231547Y-90170000D01*
X142253307Y-90390931D01*
X142317750Y-90603371D01*
X142422400Y-90799157D01*
X142563235Y-90970765D01*
X142734843Y-91111600D01*
X142930629Y-91216250D01*
X143143069Y-91280693D01*
X143308635Y-91297000D01*
X144219365Y-91297000D01*
X144384931Y-91280693D01*
X144597371Y-91216250D01*
X144793157Y-91111600D01*
X144964765Y-90970765D01*
X145105600Y-90799157D01*
X145210250Y-90603371D01*
X145217000Y-90581118D01*
X145217001Y-92298883D01*
X145210250Y-92276629D01*
X145105600Y-92080843D01*
X144964765Y-91909235D01*
X144793157Y-91768400D01*
X144597371Y-91663750D01*
X144384931Y-91599307D01*
X144219365Y-91583000D01*
X143308635Y-91583000D01*
X143143069Y-91599307D01*
X142930629Y-91663750D01*
X142734843Y-91768400D01*
X142563235Y-91909235D01*
X142422400Y-92080843D01*
X142317750Y-92276629D01*
X142253307Y-92489069D01*
X142231547Y-92710000D01*
X142253307Y-92930931D01*
X142317750Y-93143371D01*
X142422400Y-93339157D01*
X142563235Y-93510765D01*
X142734843Y-93651600D01*
X142930629Y-93756250D01*
X143143069Y-93820693D01*
X143308635Y-93837000D01*
X144219365Y-93837000D01*
X144384931Y-93820693D01*
X144597371Y-93756250D01*
X144793157Y-93651600D01*
X144964765Y-93510765D01*
X145043585Y-93414723D01*
X145066095Y-93527889D01*
X145113360Y-93641996D01*
X145181977Y-93744689D01*
X145269311Y-93832023D01*
X145372004Y-93900640D01*
X145486111Y-93947905D01*
X145607246Y-93972000D01*
X145730754Y-93972000D01*
X145851889Y-93947905D01*
X145965996Y-93900640D01*
X146068689Y-93832023D01*
X146144339Y-93756373D01*
X146133783Y-93970512D01*
X146175213Y-94250130D01*
X146270397Y-94516292D01*
X146337329Y-94641514D01*
X146581298Y-94713097D01*
X147394395Y-93900000D01*
X147753605Y-93900000D01*
X148566702Y-94713097D01*
X148810671Y-94641514D01*
X148931571Y-94386004D01*
X149000300Y-94111816D01*
X149014217Y-93829488D01*
X148972787Y-93549870D01*
X148877603Y-93283708D01*
X148810671Y-93158486D01*
X148566702Y-93086903D01*
X147753605Y-93900000D01*
X147394395Y-93900000D01*
X146581298Y-93086903D01*
X146337329Y-93158486D01*
X146290760Y-93256904D01*
X146271905Y-93162111D01*
X146224640Y-93048004D01*
X146156023Y-92945311D01*
X146121000Y-92910288D01*
X146121000Y-92907298D01*
X146760903Y-92907298D01*
X147574000Y-93720395D01*
X148387097Y-92907298D01*
X148315514Y-92663329D01*
X148060004Y-92542429D01*
X147785816Y-92473700D01*
X147503488Y-92459783D01*
X147223870Y-92501213D01*
X146957708Y-92596397D01*
X146832486Y-92663329D01*
X146760903Y-92907298D01*
X146121000Y-92907298D01*
X146121000Y-88789000D01*
X146447000Y-88789000D01*
X146447000Y-89011000D01*
X146490310Y-89228734D01*
X146575266Y-89433835D01*
X146698602Y-89618421D01*
X146855579Y-89775398D01*
X147040165Y-89898734D01*
X147245266Y-89983690D01*
X147463000Y-90027000D01*
X147685000Y-90027000D01*
X147902734Y-89983690D01*
X148107835Y-89898734D01*
X148292421Y-89775398D01*
X148449398Y-89618421D01*
X148572734Y-89433835D01*
X148657690Y-89228734D01*
X148701000Y-89011000D01*
X148701000Y-88789000D01*
X148657690Y-88571266D01*
X148650924Y-88554932D01*
X149058356Y-88147500D01*
X150263120Y-88147500D01*
X150273307Y-88250931D01*
X150337751Y-88463371D01*
X150442401Y-88659157D01*
X150583236Y-88830765D01*
X150754844Y-88971600D01*
X150950630Y-89076250D01*
X151163070Y-89140693D01*
X151384000Y-89162453D01*
X151491281Y-89151887D01*
X151445604Y-89220248D01*
X151398339Y-89334355D01*
X151374244Y-89455490D01*
X151374244Y-89505020D01*
X151080096Y-89799169D01*
X151062842Y-89813329D01*
X151019544Y-89866088D01*
X151006358Y-89882155D01*
X150964386Y-89960679D01*
X150938540Y-90045881D01*
X150929813Y-90134488D01*
X150932001Y-90156703D01*
X150932000Y-93721418D01*
X150584000Y-93721418D01*
X150519897Y-93727732D01*
X150458257Y-93746430D01*
X150401450Y-93776794D01*
X150351657Y-93817657D01*
X150310794Y-93867450D01*
X150280430Y-93924257D01*
X150261732Y-93985897D01*
X150255418Y-94050000D01*
X150255418Y-96450000D01*
X150261732Y-96514103D01*
X150280430Y-96575743D01*
X150310794Y-96632550D01*
X150351657Y-96682343D01*
X150401450Y-96723206D01*
X150458257Y-96753570D01*
X150519897Y-96772268D01*
X150584000Y-96778582D01*
X152184000Y-96778582D01*
X152248103Y-96772268D01*
X152272386Y-96764902D01*
X152276358Y-96772333D01*
X152332842Y-96841159D01*
X152350096Y-96855319D01*
X152953681Y-97458905D01*
X152967841Y-97476159D01*
X153036667Y-97532643D01*
X153104816Y-97569069D01*
X153115190Y-97574614D01*
X153200392Y-97600460D01*
X153289000Y-97609187D01*
X153311205Y-97607000D01*
X155806795Y-97607000D01*
X155829000Y-97609187D01*
X155851205Y-97607000D01*
X155917607Y-97600460D01*
X156002810Y-97574614D01*
X156081333Y-97532643D01*
X156150159Y-97476159D01*
X156164323Y-97458900D01*
X156767906Y-96855318D01*
X156785159Y-96841159D01*
X156841643Y-96772333D01*
X156879395Y-96701703D01*
X156897371Y-96696250D01*
X157093157Y-96591600D01*
X157264765Y-96450765D01*
X157405600Y-96279157D01*
X157510250Y-96083371D01*
X157574693Y-95870930D01*
X157591000Y-95705364D01*
X157591000Y-94794636D01*
X157877000Y-94794636D01*
X157877000Y-95705365D01*
X157893307Y-95870931D01*
X157957751Y-96083371D01*
X158062401Y-96279157D01*
X158203236Y-96450765D01*
X158374844Y-96591600D01*
X158570630Y-96696250D01*
X158783070Y-96760693D01*
X159004000Y-96782453D01*
X159224931Y-96760693D01*
X159437371Y-96696250D01*
X159633157Y-96591600D01*
X159804765Y-96450765D01*
X159945600Y-96279157D01*
X160050250Y-96083371D01*
X160114693Y-95870930D01*
X160131000Y-95705364D01*
X160131000Y-94794635D01*
X160114693Y-94629069D01*
X160050250Y-94416629D01*
X159945600Y-94220843D01*
X159804765Y-94049235D01*
X159633157Y-93908400D01*
X159437370Y-93803750D01*
X159224930Y-93739307D01*
X159004000Y-93717547D01*
X158783069Y-93739307D01*
X158570629Y-93803750D01*
X158374843Y-93908400D01*
X158203235Y-94049235D01*
X158062400Y-94220843D01*
X157957750Y-94416630D01*
X157893307Y-94629070D01*
X157877000Y-94794636D01*
X157591000Y-94794636D01*
X157591000Y-94794635D01*
X157574693Y-94629069D01*
X157510250Y-94416629D01*
X157405600Y-94220843D01*
X157264765Y-94049235D01*
X157093157Y-93908400D01*
X156897370Y-93803750D01*
X156684930Y-93739307D01*
X156464000Y-93717547D01*
X156243069Y-93739307D01*
X156030629Y-93803750D01*
X155834843Y-93908400D01*
X155663235Y-94049235D01*
X155522400Y-94220843D01*
X155417750Y-94416630D01*
X155353307Y-94629070D01*
X155337000Y-94794636D01*
X155337000Y-95705365D01*
X155353307Y-95870931D01*
X155417751Y-96083371D01*
X155522401Y-96279157D01*
X155663236Y-96450765D01*
X155789989Y-96554788D01*
X155641777Y-96703000D01*
X154335119Y-96703000D01*
X154357371Y-96696250D01*
X154553157Y-96591600D01*
X154724765Y-96450765D01*
X154865600Y-96279157D01*
X154970250Y-96083371D01*
X155034693Y-95870930D01*
X155051000Y-95705364D01*
X155051000Y-94794635D01*
X155034693Y-94629069D01*
X154970250Y-94416629D01*
X154865600Y-94220843D01*
X154724765Y-94049235D01*
X154553157Y-93908400D01*
X154376000Y-93813708D01*
X154376000Y-90357223D01*
X155497912Y-89235313D01*
X155515159Y-89221159D01*
X155571643Y-89152333D01*
X155613614Y-89073810D01*
X155639460Y-88988607D01*
X155646000Y-88922205D01*
X155646000Y-88922204D01*
X155648187Y-88900001D01*
X155646000Y-88877796D01*
X155646000Y-88809763D01*
X155663236Y-88830765D01*
X155834844Y-88971600D01*
X156030630Y-89076250D01*
X156243070Y-89140693D01*
X156464000Y-89162453D01*
X156684931Y-89140693D01*
X156897371Y-89076250D01*
X157093157Y-88971600D01*
X157264765Y-88830765D01*
X157405600Y-88659157D01*
X157510250Y-88463371D01*
X157574693Y-88250930D01*
X157591000Y-88085364D01*
X157591000Y-87174635D01*
X157574693Y-87009069D01*
X157510250Y-86796629D01*
X157405600Y-86600843D01*
X157264765Y-86429235D01*
X157093157Y-86288400D01*
X156897370Y-86183750D01*
X156684930Y-86119307D01*
X156464000Y-86097547D01*
X156243069Y-86119307D01*
X156030629Y-86183750D01*
X155834843Y-86288400D01*
X155663235Y-86429235D01*
X155646000Y-86450236D01*
X155646000Y-86382205D01*
X155648187Y-86360000D01*
X155639460Y-86271392D01*
X155613614Y-86186190D01*
X155591391Y-86144613D01*
X155571643Y-86107667D01*
X155515159Y-86038841D01*
X155497905Y-86024681D01*
X153741000Y-84267777D01*
X153741000Y-83619712D01*
X153776023Y-83584689D01*
X153844640Y-83481996D01*
X153891905Y-83367889D01*
X153916000Y-83246754D01*
X153916000Y-83123246D01*
X153891905Y-83002111D01*
X153844640Y-82888004D01*
X153776023Y-82785311D01*
X153688689Y-82697977D01*
X153585996Y-82629360D01*
X153471889Y-82582095D01*
X153350754Y-82558000D01*
X153281000Y-82558000D01*
X153281000Y-82488246D01*
X153256905Y-82367111D01*
X153209640Y-82253004D01*
X153141023Y-82150311D01*
X153053689Y-82062977D01*
X152950996Y-81994360D01*
X152836889Y-81947095D01*
X152715754Y-81923000D01*
X152592246Y-81923000D01*
X152471111Y-81947095D01*
X152357004Y-81994360D01*
X152254311Y-82062977D01*
X152166977Y-82150311D01*
X152098360Y-82253004D01*
X152051095Y-82367111D01*
X152027000Y-82488246D01*
X152027000Y-82611754D01*
X152051095Y-82732889D01*
X152098360Y-82846996D01*
X152166977Y-82949689D01*
X152202000Y-82984712D01*
X152202000Y-86450236D01*
X152184765Y-86429235D01*
X152013157Y-86288400D01*
X151817370Y-86183750D01*
X151604930Y-86119307D01*
X151384000Y-86097547D01*
X151163069Y-86119307D01*
X150950629Y-86183750D01*
X150754843Y-86288400D01*
X150583235Y-86429235D01*
X150442400Y-86600843D01*
X150337750Y-86796630D01*
X150273307Y-87009070D01*
X150263120Y-87112500D01*
X148869412Y-87112500D01*
X148843999Y-87109997D01*
X148742551Y-87119989D01*
X148645003Y-87149580D01*
X148555102Y-87197633D01*
X148476302Y-87262302D01*
X148460101Y-87282043D01*
X147919068Y-87823076D01*
X147902734Y-87816310D01*
X147685000Y-87773000D01*
X147463000Y-87773000D01*
X147245266Y-87816310D01*
X147040165Y-87901266D01*
X146855579Y-88024602D01*
X146698602Y-88181579D01*
X146575266Y-88366165D01*
X146490310Y-88571266D01*
X146447000Y-88789000D01*
X146121000Y-88789000D01*
X146121000Y-88287205D01*
X146123187Y-88265000D01*
X146114460Y-88176392D01*
X146088614Y-88091190D01*
X146046643Y-88012667D01*
X145990159Y-87943841D01*
X145972906Y-87929682D01*
X145369323Y-87326100D01*
X145355159Y-87308841D01*
X145286333Y-87252357D01*
X145215703Y-87214605D01*
X145210250Y-87196629D01*
X145105600Y-87000843D01*
X144964765Y-86829235D01*
X144793157Y-86688400D01*
X144597371Y-86583750D01*
X144384931Y-86519307D01*
X144219365Y-86503000D01*
X143308635Y-86503000D01*
X143143069Y-86519307D01*
X142930629Y-86583750D01*
X142734843Y-86688400D01*
X142563235Y-86829235D01*
X142422400Y-87000843D01*
X142317750Y-87196629D01*
X142253307Y-87409069D01*
X142231547Y-87630000D01*
X141676000Y-87630000D01*
X141676000Y-85090000D01*
X142231547Y-85090000D01*
X142253307Y-85310931D01*
X142317750Y-85523371D01*
X142422400Y-85719157D01*
X142563235Y-85890765D01*
X142734843Y-86031600D01*
X142930629Y-86136250D01*
X143143069Y-86200693D01*
X143308635Y-86217000D01*
X144219365Y-86217000D01*
X144384931Y-86200693D01*
X144597371Y-86136250D01*
X144793157Y-86031600D01*
X144964765Y-85890765D01*
X145105600Y-85719157D01*
X145210250Y-85523371D01*
X145274693Y-85310931D01*
X145296453Y-85090000D01*
X145274693Y-84869069D01*
X145210250Y-84656629D01*
X145105600Y-84460843D01*
X144964765Y-84289235D01*
X144793157Y-84148400D01*
X144597371Y-84043750D01*
X144384931Y-83979307D01*
X144219365Y-83963000D01*
X143308635Y-83963000D01*
X143143069Y-83979307D01*
X142930629Y-84043750D01*
X142734843Y-84148400D01*
X142563235Y-84289235D01*
X142422400Y-84460843D01*
X142317750Y-84656629D01*
X142253307Y-84869069D01*
X142231547Y-85090000D01*
X141676000Y-85090000D01*
X141676000Y-82550000D01*
X142231547Y-82550000D01*
X142253307Y-82770931D01*
X142317750Y-82983371D01*
X142422400Y-83179157D01*
X142563235Y-83350765D01*
X142734843Y-83491600D01*
X142930629Y-83596250D01*
X143143069Y-83660693D01*
X143308635Y-83677000D01*
X144219365Y-83677000D01*
X144384931Y-83660693D01*
X144597371Y-83596250D01*
X144793157Y-83491600D01*
X144964765Y-83350765D01*
X145105600Y-83179157D01*
X145210250Y-82983371D01*
X145274693Y-82770931D01*
X145296453Y-82550000D01*
X145274693Y-82329069D01*
X145210250Y-82116629D01*
X145105600Y-81920843D01*
X144964765Y-81749235D01*
X144793157Y-81608400D01*
X144597371Y-81503750D01*
X144384931Y-81439307D01*
X144219365Y-81423000D01*
X143308635Y-81423000D01*
X143143069Y-81439307D01*
X142930629Y-81503750D01*
X142734843Y-81608400D01*
X142563235Y-81749235D01*
X142422400Y-81920843D01*
X142317750Y-82116629D01*
X142253307Y-82329069D01*
X142231547Y-82550000D01*
X141676000Y-82550000D01*
X141676000Y-80010000D01*
X142231547Y-80010000D01*
X142253307Y-80230931D01*
X142317750Y-80443371D01*
X142422400Y-80639157D01*
X142563235Y-80810765D01*
X142734843Y-80951600D01*
X142930629Y-81056250D01*
X143143069Y-81120693D01*
X143308635Y-81137000D01*
X144219365Y-81137000D01*
X144384931Y-81120693D01*
X144597371Y-81056250D01*
X144793157Y-80951600D01*
X144964765Y-80810765D01*
X145105600Y-80639157D01*
X145135485Y-80583246D01*
X151902558Y-80583246D01*
X151902558Y-80706754D01*
X151926653Y-80827889D01*
X151973918Y-80941996D01*
X152042535Y-81044689D01*
X152129869Y-81132023D01*
X152232562Y-81200640D01*
X152346669Y-81247905D01*
X152467804Y-81272000D01*
X152591312Y-81272000D01*
X152712447Y-81247905D01*
X152826554Y-81200640D01*
X152929247Y-81132023D01*
X152964270Y-81097000D01*
X154124288Y-81097000D01*
X154149718Y-81122430D01*
X154128430Y-81162257D01*
X154109732Y-81223897D01*
X154103418Y-81288000D01*
X154103418Y-83812000D01*
X154109732Y-83876103D01*
X154128430Y-83937743D01*
X154158794Y-83994550D01*
X154199657Y-84044343D01*
X154249450Y-84085206D01*
X154306257Y-84115570D01*
X154367897Y-84134268D01*
X154432000Y-84140582D01*
X155956000Y-84140582D01*
X156020103Y-84134268D01*
X156081743Y-84115570D01*
X156138550Y-84085206D01*
X156188343Y-84044343D01*
X156206723Y-84021946D01*
X158438923Y-86254148D01*
X158374843Y-86288400D01*
X158203235Y-86429235D01*
X158062400Y-86600843D01*
X157957750Y-86796630D01*
X157893307Y-87009070D01*
X157877000Y-87174636D01*
X157877000Y-88085365D01*
X157893307Y-88250931D01*
X157957751Y-88463371D01*
X158062401Y-88659157D01*
X158203236Y-88830765D01*
X158374844Y-88971600D01*
X158570630Y-89076250D01*
X158783070Y-89140693D01*
X159004000Y-89162453D01*
X159224931Y-89140693D01*
X159437371Y-89076250D01*
X159633157Y-88971600D01*
X159804765Y-88830765D01*
X159822000Y-88809764D01*
X159822000Y-88877795D01*
X159819813Y-88900000D01*
X159828540Y-88988607D01*
X159832435Y-89001447D01*
X159854386Y-89073809D01*
X159896357Y-89152332D01*
X159952841Y-89221159D01*
X159970100Y-89235323D01*
X161092001Y-90357226D01*
X161092000Y-93813707D01*
X160914843Y-93908400D01*
X160743235Y-94049235D01*
X160602400Y-94220843D01*
X160497750Y-94416630D01*
X160433307Y-94629070D01*
X160417000Y-94794636D01*
X160417000Y-95705365D01*
X160433307Y-95870931D01*
X160497751Y-96083371D01*
X160602401Y-96279157D01*
X160743236Y-96450765D01*
X160914844Y-96591600D01*
X161110630Y-96696250D01*
X161323070Y-96760693D01*
X161544000Y-96782453D01*
X161764931Y-96760693D01*
X161977371Y-96696250D01*
X162173157Y-96591600D01*
X162344765Y-96450765D01*
X162485600Y-96279157D01*
X162590250Y-96083371D01*
X162654693Y-95870930D01*
X162671000Y-95705364D01*
X162671000Y-94794635D01*
X162654693Y-94629069D01*
X162590250Y-94416629D01*
X162485600Y-94220843D01*
X162344765Y-94049235D01*
X162173157Y-93908400D01*
X161996000Y-93813708D01*
X161996000Y-90192204D01*
X161998187Y-90169999D01*
X161989460Y-90081392D01*
X161983444Y-90061562D01*
X161963614Y-89996190D01*
X161921643Y-89917667D01*
X161865159Y-89848841D01*
X161847910Y-89834685D01*
X161065180Y-89051957D01*
X161110630Y-89076250D01*
X161323070Y-89140693D01*
X161544000Y-89162453D01*
X161764931Y-89140693D01*
X161977371Y-89076250D01*
X162173157Y-88971600D01*
X162344765Y-88830765D01*
X162485600Y-88659157D01*
X162590250Y-88463371D01*
X162654693Y-88250930D01*
X162671000Y-88085364D01*
X162671000Y-87174636D01*
X162957000Y-87174636D01*
X162957000Y-88085365D01*
X162973307Y-88250931D01*
X163037751Y-88463371D01*
X163142401Y-88659157D01*
X163283236Y-88830765D01*
X163454844Y-88971600D01*
X163650630Y-89076250D01*
X163863070Y-89140693D01*
X164084000Y-89162453D01*
X164304931Y-89140693D01*
X164517371Y-89076250D01*
X164713157Y-88971600D01*
X164884765Y-88830765D01*
X164902000Y-88809764D01*
X164902001Y-93792774D01*
X164753372Y-93941404D01*
X164713157Y-93908400D01*
X164517370Y-93803750D01*
X164304930Y-93739307D01*
X164084000Y-93717547D01*
X163863069Y-93739307D01*
X163650629Y-93803750D01*
X163454843Y-93908400D01*
X163283235Y-94049235D01*
X163142400Y-94220843D01*
X163037750Y-94416630D01*
X162973307Y-94629070D01*
X162957000Y-94794636D01*
X162957000Y-95705365D01*
X162973307Y-95870931D01*
X163037751Y-96083371D01*
X163142401Y-96279157D01*
X163283236Y-96450765D01*
X163454844Y-96591600D01*
X163650630Y-96696250D01*
X163863070Y-96760693D01*
X164084000Y-96782453D01*
X164304931Y-96760693D01*
X164517371Y-96696250D01*
X164713157Y-96591600D01*
X164884765Y-96450765D01*
X165025600Y-96279157D01*
X165130250Y-96083371D01*
X165194693Y-95870930D01*
X165211000Y-95705364D01*
X165211000Y-94794635D01*
X165208094Y-94765130D01*
X165602042Y-94371183D01*
X165577750Y-94416630D01*
X165513307Y-94629070D01*
X165497000Y-94794636D01*
X165497000Y-95705365D01*
X165513307Y-95870931D01*
X165577751Y-96083371D01*
X165682401Y-96279157D01*
X165823236Y-96450765D01*
X165994844Y-96591600D01*
X166190630Y-96696250D01*
X166403070Y-96760693D01*
X166624000Y-96782453D01*
X166844931Y-96760693D01*
X167057371Y-96696250D01*
X167253157Y-96591600D01*
X167424765Y-96450765D01*
X167565600Y-96279157D01*
X167670250Y-96083371D01*
X167734693Y-95870930D01*
X167738818Y-95829047D01*
X167781350Y-96054514D01*
X167886834Y-96316483D01*
X168041399Y-96552839D01*
X168239105Y-96754500D01*
X168472354Y-96913715D01*
X168732182Y-97024367D01*
X168814961Y-97041904D01*
X169037000Y-96919915D01*
X169037000Y-95377000D01*
X169291000Y-95377000D01*
X169291000Y-96919915D01*
X169513039Y-97041904D01*
X169595818Y-97024367D01*
X169855646Y-96913715D01*
X170088895Y-96754500D01*
X170286601Y-96552839D01*
X170441166Y-96316483D01*
X170546650Y-96054514D01*
X170599000Y-95777000D01*
X170599000Y-95377000D01*
X169291000Y-95377000D01*
X169037000Y-95377000D01*
X169017000Y-95377000D01*
X169017000Y-95139000D01*
X171847000Y-95139000D01*
X171847000Y-95361000D01*
X171890310Y-95578734D01*
X171975266Y-95783835D01*
X172098602Y-95968421D01*
X172255579Y-96125398D01*
X172440165Y-96248734D01*
X172645266Y-96333690D01*
X172863000Y-96377000D01*
X173085000Y-96377000D01*
X173302734Y-96333690D01*
X173507835Y-96248734D01*
X173692421Y-96125398D01*
X173849398Y-95968421D01*
X173972734Y-95783835D01*
X174057690Y-95578734D01*
X174101000Y-95361000D01*
X174101000Y-95139000D01*
X175022000Y-95139000D01*
X175022000Y-95361000D01*
X175065310Y-95578734D01*
X175150266Y-95783835D01*
X175273602Y-95968421D01*
X175430579Y-96125398D01*
X175615165Y-96248734D01*
X175820266Y-96333690D01*
X176038000Y-96377000D01*
X176260000Y-96377000D01*
X176477734Y-96333690D01*
X176682835Y-96248734D01*
X176867421Y-96125398D01*
X177024398Y-95968421D01*
X177147734Y-95783835D01*
X177232690Y-95578734D01*
X177276000Y-95361000D01*
X177276000Y-95139000D01*
X177232690Y-94921266D01*
X177147734Y-94716165D01*
X177024398Y-94531579D01*
X176867421Y-94374602D01*
X176682835Y-94251266D01*
X176477734Y-94166310D01*
X176260000Y-94123000D01*
X176038000Y-94123000D01*
X175820266Y-94166310D01*
X175615165Y-94251266D01*
X175430579Y-94374602D01*
X175273602Y-94531579D01*
X175150266Y-94716165D01*
X175065310Y-94921266D01*
X175022000Y-95139000D01*
X174101000Y-95139000D01*
X174057690Y-94921266D01*
X173972734Y-94716165D01*
X173849398Y-94531579D01*
X173692421Y-94374602D01*
X173507835Y-94251266D01*
X173302734Y-94166310D01*
X173085000Y-94123000D01*
X172863000Y-94123000D01*
X172645266Y-94166310D01*
X172440165Y-94251266D01*
X172255579Y-94374602D01*
X172098602Y-94531579D01*
X171975266Y-94716165D01*
X171890310Y-94921266D01*
X171847000Y-95139000D01*
X169017000Y-95139000D01*
X169017000Y-95123000D01*
X169037000Y-95123000D01*
X169037000Y-93580085D01*
X169291000Y-93580085D01*
X169291000Y-95123000D01*
X170599000Y-95123000D01*
X170599000Y-94723000D01*
X170546650Y-94445486D01*
X170441166Y-94183517D01*
X170286601Y-93947161D01*
X170088895Y-93745500D01*
X169855646Y-93586285D01*
X169595818Y-93475633D01*
X169513039Y-93458096D01*
X169291000Y-93580085D01*
X169037000Y-93580085D01*
X168814961Y-93458096D01*
X168732182Y-93475633D01*
X168472354Y-93586285D01*
X168239105Y-93745500D01*
X168041399Y-93947161D01*
X167886834Y-94183517D01*
X167781350Y-94445486D01*
X167738818Y-94670952D01*
X167734693Y-94629069D01*
X167670250Y-94416629D01*
X167565600Y-94220843D01*
X167424765Y-94049235D01*
X167253157Y-93908400D01*
X167057370Y-93803750D01*
X166844930Y-93739307D01*
X166624000Y-93717547D01*
X166403069Y-93739307D01*
X166190629Y-93803750D01*
X165994843Y-93908400D01*
X165823235Y-94049235D01*
X165794841Y-94083833D01*
X165799460Y-94068607D01*
X165806000Y-94002205D01*
X165808187Y-93980001D01*
X165806000Y-93957796D01*
X165806000Y-88809763D01*
X165823236Y-88830765D01*
X165994844Y-88971600D01*
X166190630Y-89076250D01*
X166403070Y-89140693D01*
X166624000Y-89162453D01*
X166844931Y-89140693D01*
X167057371Y-89076250D01*
X167253157Y-88971600D01*
X167424765Y-88830765D01*
X167565600Y-88659157D01*
X167670250Y-88463371D01*
X167734693Y-88250930D01*
X167751000Y-88085364D01*
X167751000Y-87174635D01*
X167734693Y-87009069D01*
X167670250Y-86796629D01*
X167565600Y-86600843D01*
X167424765Y-86429235D01*
X167298012Y-86325212D01*
X167446224Y-86177000D01*
X168752881Y-86177000D01*
X168730629Y-86183750D01*
X168534843Y-86288400D01*
X168363235Y-86429235D01*
X168222400Y-86600843D01*
X168117750Y-86796630D01*
X168053307Y-87009070D01*
X168037000Y-87174636D01*
X168037000Y-88085365D01*
X168053307Y-88250931D01*
X168117751Y-88463371D01*
X168222401Y-88659157D01*
X168363236Y-88830765D01*
X168534844Y-88971600D01*
X168730630Y-89076250D01*
X168943070Y-89140693D01*
X169164000Y-89162453D01*
X169384931Y-89140693D01*
X169597371Y-89076250D01*
X169793157Y-88971600D01*
X169964765Y-88830765D01*
X170105600Y-88659157D01*
X170210250Y-88463371D01*
X170274693Y-88250930D01*
X170291000Y-88085364D01*
X170291000Y-87519000D01*
X171847000Y-87519000D01*
X171847000Y-87741000D01*
X171890310Y-87958734D01*
X171975266Y-88163835D01*
X172098602Y-88348421D01*
X172255579Y-88505398D01*
X172440165Y-88628734D01*
X172645266Y-88713690D01*
X172863000Y-88757000D01*
X173085000Y-88757000D01*
X173302734Y-88713690D01*
X173507835Y-88628734D01*
X173692421Y-88505398D01*
X173849398Y-88348421D01*
X173972734Y-88163835D01*
X174057690Y-87958734D01*
X174101000Y-87741000D01*
X174101000Y-87519000D01*
X175022000Y-87519000D01*
X175022000Y-87741000D01*
X175065310Y-87958734D01*
X175150266Y-88163835D01*
X175273602Y-88348421D01*
X175430579Y-88505398D01*
X175615165Y-88628734D01*
X175820266Y-88713690D01*
X176038000Y-88757000D01*
X176260000Y-88757000D01*
X176477734Y-88713690D01*
X176682835Y-88628734D01*
X176867421Y-88505398D01*
X177024398Y-88348421D01*
X177147734Y-88163835D01*
X177232690Y-87958734D01*
X177276000Y-87741000D01*
X177276000Y-87519000D01*
X177232690Y-87301266D01*
X177147734Y-87096165D01*
X177024398Y-86911579D01*
X176867421Y-86754602D01*
X176682835Y-86631266D01*
X176477734Y-86546310D01*
X176260000Y-86503000D01*
X176038000Y-86503000D01*
X175820266Y-86546310D01*
X175615165Y-86631266D01*
X175430579Y-86754602D01*
X175273602Y-86911579D01*
X175150266Y-87096165D01*
X175065310Y-87301266D01*
X175022000Y-87519000D01*
X174101000Y-87519000D01*
X174057690Y-87301266D01*
X173972734Y-87096165D01*
X173849398Y-86911579D01*
X173692421Y-86754602D01*
X173507835Y-86631266D01*
X173302734Y-86546310D01*
X173085000Y-86503000D01*
X172863000Y-86503000D01*
X172645266Y-86546310D01*
X172440165Y-86631266D01*
X172255579Y-86754602D01*
X172098602Y-86911579D01*
X171975266Y-87096165D01*
X171890310Y-87301266D01*
X171847000Y-87519000D01*
X170291000Y-87519000D01*
X170291000Y-87174635D01*
X170274693Y-87009069D01*
X170210250Y-86796629D01*
X170105600Y-86600843D01*
X169964765Y-86429235D01*
X169793157Y-86288400D01*
X169597370Y-86183750D01*
X169575118Y-86177000D01*
X173809288Y-86177000D01*
X173844311Y-86212023D01*
X173947004Y-86280640D01*
X174061111Y-86327905D01*
X174182246Y-86352000D01*
X174305754Y-86352000D01*
X174426889Y-86327905D01*
X174540996Y-86280640D01*
X174643689Y-86212023D01*
X174731023Y-86124689D01*
X174799640Y-86021996D01*
X174846905Y-85907889D01*
X174871000Y-85786754D01*
X174871000Y-85663246D01*
X174846905Y-85542111D01*
X174799640Y-85428004D01*
X174731023Y-85325311D01*
X174643689Y-85237977D01*
X174540996Y-85169360D01*
X174426889Y-85122095D01*
X174305754Y-85098000D01*
X174182246Y-85098000D01*
X174061111Y-85122095D01*
X173947004Y-85169360D01*
X173844311Y-85237977D01*
X173809288Y-85273000D01*
X167281205Y-85273000D01*
X167259000Y-85270813D01*
X167170392Y-85279540D01*
X167085190Y-85305386D01*
X167006667Y-85347357D01*
X167002206Y-85351018D01*
X167734203Y-84619022D01*
X167810579Y-84695398D01*
X167995165Y-84818734D01*
X168200266Y-84903690D01*
X168418000Y-84947000D01*
X168640000Y-84947000D01*
X168857734Y-84903690D01*
X169062835Y-84818734D01*
X169247421Y-84695398D01*
X169404398Y-84538421D01*
X169527734Y-84353835D01*
X169612690Y-84148734D01*
X169656000Y-83931000D01*
X169656000Y-83709000D01*
X175022000Y-83709000D01*
X175022000Y-83931000D01*
X175065310Y-84148734D01*
X175150266Y-84353835D01*
X175273602Y-84538421D01*
X175430579Y-84695398D01*
X175615165Y-84818734D01*
X175820266Y-84903690D01*
X176038000Y-84947000D01*
X176260000Y-84947000D01*
X176477734Y-84903690D01*
X176682835Y-84818734D01*
X176867421Y-84695398D01*
X177024398Y-84538421D01*
X177147734Y-84353835D01*
X177232690Y-84148734D01*
X177276000Y-83931000D01*
X177276000Y-83709000D01*
X177232690Y-83491266D01*
X177147734Y-83286165D01*
X177024398Y-83101579D01*
X176867421Y-82944602D01*
X176682835Y-82821266D01*
X176477734Y-82736310D01*
X176260000Y-82693000D01*
X176038000Y-82693000D01*
X175820266Y-82736310D01*
X175615165Y-82821266D01*
X175430579Y-82944602D01*
X175273602Y-83101579D01*
X175150266Y-83286165D01*
X175065310Y-83491266D01*
X175022000Y-83709000D01*
X169656000Y-83709000D01*
X169612690Y-83491266D01*
X169527734Y-83286165D01*
X169404398Y-83101579D01*
X169247421Y-82944602D01*
X169062835Y-82821266D01*
X168857734Y-82736310D01*
X168640000Y-82693000D01*
X168418000Y-82693000D01*
X168200266Y-82736310D01*
X167995165Y-82821266D01*
X167810579Y-82944602D01*
X167653602Y-83101579D01*
X167530266Y-83286165D01*
X167445310Y-83491266D01*
X167410995Y-83663780D01*
X165050100Y-86024677D01*
X165032841Y-86038841D01*
X164976357Y-86107668D01*
X164961080Y-86136250D01*
X164934386Y-86186191D01*
X164908540Y-86271393D01*
X164899813Y-86360000D01*
X164902000Y-86382205D01*
X164902000Y-86450236D01*
X164884765Y-86429235D01*
X164713157Y-86288400D01*
X164517370Y-86183750D01*
X164304930Y-86119307D01*
X164084000Y-86097547D01*
X163863069Y-86119307D01*
X163650629Y-86183750D01*
X163454843Y-86288400D01*
X163283235Y-86429235D01*
X163142400Y-86600843D01*
X163037750Y-86796630D01*
X162973307Y-87009070D01*
X162957000Y-87174636D01*
X162671000Y-87174636D01*
X162671000Y-87174635D01*
X162654693Y-87009069D01*
X162590250Y-86796629D01*
X162485600Y-86600843D01*
X162344765Y-86429235D01*
X162173157Y-86288400D01*
X161996000Y-86193708D01*
X161996000Y-83769863D01*
X162040236Y-83823765D01*
X162206058Y-83959851D01*
X162395242Y-84060973D01*
X162600520Y-84123243D01*
X162814000Y-84144269D01*
X163027481Y-84123243D01*
X163232759Y-84060973D01*
X163421943Y-83959851D01*
X163587765Y-83823765D01*
X163723851Y-83657943D01*
X163824973Y-83468759D01*
X163887243Y-83263481D01*
X163903000Y-83103497D01*
X163903000Y-81996504D01*
X164265000Y-81996504D01*
X164265000Y-83103497D01*
X164280757Y-83263481D01*
X164343028Y-83468759D01*
X164444150Y-83657943D01*
X164580236Y-83823765D01*
X164746058Y-83959851D01*
X164935242Y-84060973D01*
X165140520Y-84123243D01*
X165354000Y-84144269D01*
X165567481Y-84123243D01*
X165772759Y-84060973D01*
X165961943Y-83959851D01*
X166127765Y-83823765D01*
X166263851Y-83657943D01*
X166364973Y-83468759D01*
X166427243Y-83263481D01*
X166443000Y-83103497D01*
X166443000Y-81996503D01*
X166427243Y-81836519D01*
X166364973Y-81631241D01*
X166263851Y-81442057D01*
X166127765Y-81276235D01*
X165961943Y-81140149D01*
X165772758Y-81039027D01*
X165567480Y-80976757D01*
X165354000Y-80955731D01*
X165140519Y-80976757D01*
X164935241Y-81039027D01*
X164746057Y-81140149D01*
X164580235Y-81276235D01*
X164444149Y-81442057D01*
X164343027Y-81631242D01*
X164280757Y-81836520D01*
X164265000Y-81996504D01*
X163903000Y-81996504D01*
X163903000Y-81996503D01*
X163887243Y-81836519D01*
X163824973Y-81631241D01*
X163723851Y-81442057D01*
X163587765Y-81276235D01*
X163421943Y-81140149D01*
X163232758Y-81039027D01*
X163027480Y-80976757D01*
X162814000Y-80955731D01*
X162600519Y-80976757D01*
X162395241Y-81039027D01*
X162206057Y-81140149D01*
X162040235Y-81276235D01*
X161996000Y-81330136D01*
X161996000Y-80444712D01*
X162031023Y-80409689D01*
X162099640Y-80306996D01*
X162146905Y-80192889D01*
X162171000Y-80071754D01*
X162171000Y-79948246D01*
X162146905Y-79827111D01*
X162104211Y-79724039D01*
X167137096Y-79724039D01*
X167177754Y-79858087D01*
X167297963Y-80112420D01*
X167465481Y-80338414D01*
X167673869Y-80527385D01*
X167915119Y-80672070D01*
X168179960Y-80766909D01*
X168402000Y-80645624D01*
X168402000Y-79502000D01*
X168656000Y-79502000D01*
X168656000Y-80645624D01*
X168878040Y-80766909D01*
X169142881Y-80672070D01*
X169384131Y-80527385D01*
X169592519Y-80338414D01*
X169760037Y-80112420D01*
X169880246Y-79858087D01*
X169920904Y-79724039D01*
X169798915Y-79502000D01*
X168656000Y-79502000D01*
X168402000Y-79502000D01*
X167259085Y-79502000D01*
X167137096Y-79724039D01*
X162104211Y-79724039D01*
X162099640Y-79713004D01*
X162031023Y-79610311D01*
X161943689Y-79522977D01*
X161840996Y-79454360D01*
X161726889Y-79407095D01*
X161605754Y-79383000D01*
X161482246Y-79383000D01*
X161361111Y-79407095D01*
X161247004Y-79454360D01*
X161144311Y-79522977D01*
X161056977Y-79610311D01*
X160988360Y-79713004D01*
X160941095Y-79827111D01*
X160917000Y-79948246D01*
X160917000Y-80071754D01*
X160941095Y-80192889D01*
X160988360Y-80306996D01*
X161056977Y-80409689D01*
X161092001Y-80444713D01*
X161092001Y-80918023D01*
X160944535Y-80817878D01*
X160691276Y-80710738D01*
X160617070Y-80695780D01*
X160401000Y-80818280D01*
X160401000Y-82423000D01*
X160421000Y-82423000D01*
X160421000Y-82677000D01*
X160401000Y-82677000D01*
X160401000Y-84281720D01*
X160617070Y-84404220D01*
X160691276Y-84389262D01*
X160944535Y-84282122D01*
X161092000Y-84181978D01*
X161092000Y-86193707D01*
X160914843Y-86288400D01*
X160743235Y-86429235D01*
X160726000Y-86450236D01*
X160726000Y-85747204D01*
X160728187Y-85724999D01*
X160719460Y-85636392D01*
X160713444Y-85616562D01*
X160693614Y-85551190D01*
X160651643Y-85472667D01*
X160595159Y-85403841D01*
X160577910Y-85389685D01*
X159456000Y-84267777D01*
X159456000Y-84181978D01*
X159603465Y-84282122D01*
X159856724Y-84389262D01*
X159930930Y-84404220D01*
X160147000Y-84281720D01*
X160147000Y-82677000D01*
X160127000Y-82677000D01*
X160127000Y-82423000D01*
X160147000Y-82423000D01*
X160147000Y-80818280D01*
X159930930Y-80695780D01*
X159856724Y-80710738D01*
X159603465Y-80817878D01*
X159456000Y-80918022D01*
X159456000Y-77184039D01*
X167137096Y-77184039D01*
X167177754Y-77318087D01*
X167297963Y-77572420D01*
X167465481Y-77798414D01*
X167673869Y-77987385D01*
X167869982Y-78105000D01*
X167673869Y-78222615D01*
X167465481Y-78411586D01*
X167297963Y-78637580D01*
X167177754Y-78891913D01*
X167137096Y-79025961D01*
X167259085Y-79248000D01*
X168402000Y-79248000D01*
X168402000Y-76962000D01*
X168656000Y-76962000D01*
X168656000Y-79248000D01*
X169798915Y-79248000D01*
X169920904Y-79025961D01*
X169880246Y-78891913D01*
X169760037Y-78637580D01*
X169592519Y-78411586D01*
X169384131Y-78222615D01*
X169188018Y-78105000D01*
X169384131Y-77987385D01*
X169592519Y-77798414D01*
X169760037Y-77572420D01*
X169880246Y-77318087D01*
X169920904Y-77184039D01*
X169798915Y-76962000D01*
X168656000Y-76962000D01*
X168402000Y-76962000D01*
X167259085Y-76962000D01*
X167137096Y-77184039D01*
X159456000Y-77184039D01*
X159456000Y-76857205D01*
X159458187Y-76835000D01*
X159449460Y-76746392D01*
X159423614Y-76661190D01*
X159390741Y-76599689D01*
X159381643Y-76582667D01*
X159325159Y-76513841D01*
X159307905Y-76499681D01*
X158704323Y-75896100D01*
X158690159Y-75878841D01*
X158621333Y-75822357D01*
X158542810Y-75780386D01*
X158457607Y-75754540D01*
X158391205Y-75748000D01*
X158369000Y-75745813D01*
X158346795Y-75748000D01*
X156263712Y-75748000D01*
X156228689Y-75712977D01*
X156125996Y-75644360D01*
X156011889Y-75597095D01*
X155890754Y-75573000D01*
X155767246Y-75573000D01*
X155646111Y-75597095D01*
X155532004Y-75644360D01*
X155429311Y-75712977D01*
X155341977Y-75800311D01*
X155273360Y-75903004D01*
X155226095Y-76017111D01*
X155202000Y-76138246D01*
X155202000Y-76261754D01*
X155226095Y-76382889D01*
X155273360Y-76496996D01*
X155341977Y-76599689D01*
X155429311Y-76687023D01*
X155532004Y-76755640D01*
X155646111Y-76802905D01*
X155767246Y-76827000D01*
X155890754Y-76827000D01*
X156011889Y-76802905D01*
X156125996Y-76755640D01*
X156228689Y-76687023D01*
X156263712Y-76652000D01*
X158181777Y-76652000D01*
X158552001Y-77022225D01*
X158552000Y-81330136D01*
X158507765Y-81276235D01*
X158341943Y-81140149D01*
X158152758Y-81039027D01*
X157947480Y-80976757D01*
X157734000Y-80955731D01*
X157520519Y-80976757D01*
X157315241Y-81039027D01*
X157126057Y-81140149D01*
X156960235Y-81276235D01*
X156916000Y-81330136D01*
X156916000Y-80444712D01*
X156951023Y-80409689D01*
X157019640Y-80306996D01*
X157066905Y-80192889D01*
X157091000Y-80071754D01*
X157091000Y-79948246D01*
X157066905Y-79827111D01*
X157019640Y-79713004D01*
X156951023Y-79610311D01*
X156863689Y-79522977D01*
X156760996Y-79454360D01*
X156646889Y-79407095D01*
X156525754Y-79383000D01*
X156402246Y-79383000D01*
X156281111Y-79407095D01*
X156167004Y-79454360D01*
X156064311Y-79522977D01*
X155976977Y-79610311D01*
X155908360Y-79713004D01*
X155861095Y-79827111D01*
X155837000Y-79948246D01*
X155837000Y-80071754D01*
X155861095Y-80192889D01*
X155908360Y-80306996D01*
X155976977Y-80409689D01*
X156012001Y-80444713D01*
X156012001Y-80964934D01*
X155956000Y-80959418D01*
X155102999Y-80959418D01*
X155114640Y-80941996D01*
X155161905Y-80827889D01*
X155186000Y-80706754D01*
X155186000Y-80583246D01*
X155161905Y-80462111D01*
X155114640Y-80348004D01*
X155046023Y-80245311D01*
X154958689Y-80157977D01*
X154855996Y-80089360D01*
X154741889Y-80042095D01*
X154620754Y-80018000D01*
X154497246Y-80018000D01*
X154376111Y-80042095D01*
X154262004Y-80089360D01*
X154159311Y-80157977D01*
X154124288Y-80193000D01*
X152964270Y-80193000D01*
X152929247Y-80157977D01*
X152826554Y-80089360D01*
X152712447Y-80042095D01*
X152591312Y-80018000D01*
X152467804Y-80018000D01*
X152346669Y-80042095D01*
X152232562Y-80089360D01*
X152129869Y-80157977D01*
X152042535Y-80245311D01*
X151973918Y-80348004D01*
X151926653Y-80462111D01*
X151902558Y-80583246D01*
X145135485Y-80583246D01*
X145210250Y-80443371D01*
X145274693Y-80230931D01*
X145296453Y-80010000D01*
X145274693Y-79789069D01*
X145210250Y-79576629D01*
X145105600Y-79380843D01*
X144964765Y-79209235D01*
X144793157Y-79068400D01*
X144597371Y-78963750D01*
X144384931Y-78899307D01*
X144219365Y-78883000D01*
X143308635Y-78883000D01*
X143143069Y-78899307D01*
X142930629Y-78963750D01*
X142734843Y-79068400D01*
X142563235Y-79209235D01*
X142422400Y-79380843D01*
X142317750Y-79576629D01*
X142253307Y-79789069D01*
X142231547Y-80010000D01*
X141676000Y-80010000D01*
X141676000Y-78539712D01*
X141711023Y-78504689D01*
X141779640Y-78401996D01*
X141826905Y-78287889D01*
X141851000Y-78166754D01*
X141851000Y-78043246D01*
X141826905Y-77922111D01*
X141779640Y-77808004D01*
X141711023Y-77705311D01*
X141623689Y-77617977D01*
X141520996Y-77549360D01*
X141406889Y-77502095D01*
X141285754Y-77478000D01*
X141162246Y-77478000D01*
X141041111Y-77502095D01*
X140927004Y-77549360D01*
X140824311Y-77617977D01*
X140736977Y-77705311D01*
X140668360Y-77808004D01*
X140621095Y-77922111D01*
X140597000Y-78043246D01*
X140597000Y-78166754D01*
X140621095Y-78287889D01*
X140668360Y-78401996D01*
X140736977Y-78504689D01*
X140772000Y-78539712D01*
X140772000Y-80042141D01*
X140771889Y-80042095D01*
X140650754Y-80018000D01*
X140527246Y-80018000D01*
X140406111Y-80042095D01*
X140292004Y-80089360D01*
X140189311Y-80157977D01*
X140101977Y-80245311D01*
X140033360Y-80348004D01*
X139986095Y-80462111D01*
X139962000Y-80583246D01*
X139962000Y-80706754D01*
X139986095Y-80827889D01*
X140033360Y-80941996D01*
X140101977Y-81044689D01*
X140137000Y-81079712D01*
X140137000Y-81458776D01*
X136148224Y-77470000D01*
X142231547Y-77470000D01*
X142253307Y-77690931D01*
X142317750Y-77903371D01*
X142422400Y-78099157D01*
X142563235Y-78270765D01*
X142734843Y-78411600D01*
X142930629Y-78516250D01*
X143143069Y-78580693D01*
X143308635Y-78597000D01*
X144219365Y-78597000D01*
X144384931Y-78580693D01*
X144597371Y-78516250D01*
X144793157Y-78411600D01*
X144964765Y-78270765D01*
X145105600Y-78099157D01*
X145210250Y-77903371D01*
X145274693Y-77690931D01*
X145296453Y-77470000D01*
X145274693Y-77249069D01*
X145210250Y-77036629D01*
X145105600Y-76840843D01*
X144964765Y-76669235D01*
X144793157Y-76528400D01*
X144597371Y-76423750D01*
X144384931Y-76359307D01*
X144219365Y-76343000D01*
X143308635Y-76343000D01*
X143143069Y-76359307D01*
X142930629Y-76423750D01*
X142734843Y-76528400D01*
X142563235Y-76669235D01*
X142422400Y-76840843D01*
X142317750Y-77036629D01*
X142253307Y-77249069D01*
X142231547Y-77470000D01*
X136148224Y-77470000D01*
X133608224Y-74930000D01*
X142231547Y-74930000D01*
X142253307Y-75150931D01*
X142317750Y-75363371D01*
X142422400Y-75559157D01*
X142563235Y-75730765D01*
X142734843Y-75871600D01*
X142930629Y-75976250D01*
X143143069Y-76040693D01*
X143308635Y-76057000D01*
X144219365Y-76057000D01*
X144384931Y-76040693D01*
X144597371Y-75976250D01*
X144793157Y-75871600D01*
X144828369Y-75842702D01*
X146760903Y-75842702D01*
X146832486Y-76086671D01*
X147087996Y-76207571D01*
X147362184Y-76276300D01*
X147644512Y-76290217D01*
X147924130Y-76248787D01*
X148190292Y-76153603D01*
X148315514Y-76086671D01*
X148387097Y-75842702D01*
X147574000Y-75029605D01*
X146760903Y-75842702D01*
X144828369Y-75842702D01*
X144964765Y-75730765D01*
X145105600Y-75559157D01*
X145210250Y-75363371D01*
X145274693Y-75150931D01*
X145296453Y-74930000D01*
X145295519Y-74920512D01*
X146133783Y-74920512D01*
X146175213Y-75200130D01*
X146270397Y-75466292D01*
X146337329Y-75591514D01*
X146581298Y-75663097D01*
X147394395Y-74850000D01*
X147753605Y-74850000D01*
X148566702Y-75663097D01*
X148810671Y-75591514D01*
X148931571Y-75336004D01*
X149000300Y-75061816D01*
X149014217Y-74779488D01*
X148972787Y-74499870D01*
X148877603Y-74233708D01*
X148877357Y-74233246D01*
X154567000Y-74233246D01*
X154567000Y-74356754D01*
X154591095Y-74477889D01*
X154638360Y-74591996D01*
X154706977Y-74694689D01*
X154794311Y-74782023D01*
X154897004Y-74850640D01*
X155011111Y-74897905D01*
X155132246Y-74922000D01*
X155255754Y-74922000D01*
X155376889Y-74897905D01*
X155490996Y-74850640D01*
X155593689Y-74782023D01*
X155628712Y-74747000D01*
X161744288Y-74747000D01*
X161779311Y-74782023D01*
X161882004Y-74850640D01*
X161996111Y-74897905D01*
X162117246Y-74922000D01*
X162240754Y-74922000D01*
X162361889Y-74897905D01*
X162475996Y-74850640D01*
X162578689Y-74782023D01*
X162666023Y-74694689D01*
X162699866Y-74644039D01*
X167137096Y-74644039D01*
X167177754Y-74778087D01*
X167297963Y-75032420D01*
X167465481Y-75258414D01*
X167673869Y-75447385D01*
X167869982Y-75565000D01*
X167673869Y-75682615D01*
X167465481Y-75871586D01*
X167297963Y-76097580D01*
X167177754Y-76351913D01*
X167137096Y-76485961D01*
X167259085Y-76708000D01*
X168402000Y-76708000D01*
X168402000Y-74422000D01*
X168656000Y-74422000D01*
X168656000Y-76708000D01*
X169798915Y-76708000D01*
X169920904Y-76485961D01*
X169880246Y-76351913D01*
X169760037Y-76097580D01*
X169592519Y-75871586D01*
X169384131Y-75682615D01*
X169188018Y-75565000D01*
X169384131Y-75447385D01*
X169592519Y-75258414D01*
X169760037Y-75032420D01*
X169880246Y-74778087D01*
X169920904Y-74644039D01*
X169798915Y-74422000D01*
X168656000Y-74422000D01*
X168402000Y-74422000D01*
X167259085Y-74422000D01*
X167137096Y-74644039D01*
X162699866Y-74644039D01*
X162734640Y-74591996D01*
X162781905Y-74477889D01*
X162806000Y-74356754D01*
X162806000Y-74233246D01*
X162781905Y-74112111D01*
X162734640Y-73998004D01*
X162666023Y-73895311D01*
X162578689Y-73807977D01*
X162475996Y-73739360D01*
X162361889Y-73692095D01*
X162240754Y-73668000D01*
X162117246Y-73668000D01*
X161996111Y-73692095D01*
X161882004Y-73739360D01*
X161779311Y-73807977D01*
X161744288Y-73843000D01*
X155628712Y-73843000D01*
X155593689Y-73807977D01*
X155490996Y-73739360D01*
X155376889Y-73692095D01*
X155255754Y-73668000D01*
X155132246Y-73668000D01*
X155011111Y-73692095D01*
X154897004Y-73739360D01*
X154794311Y-73807977D01*
X154706977Y-73895311D01*
X154638360Y-73998004D01*
X154591095Y-74112111D01*
X154567000Y-74233246D01*
X148877357Y-74233246D01*
X148810671Y-74108486D01*
X148566702Y-74036903D01*
X147753605Y-74850000D01*
X147394395Y-74850000D01*
X146581298Y-74036903D01*
X146337329Y-74108486D01*
X146216429Y-74363996D01*
X146147700Y-74638184D01*
X146133783Y-74920512D01*
X145295519Y-74920512D01*
X145274693Y-74709069D01*
X145210250Y-74496629D01*
X145105600Y-74300843D01*
X144964765Y-74129235D01*
X144793157Y-73988400D01*
X144597371Y-73883750D01*
X144510171Y-73857298D01*
X146760903Y-73857298D01*
X147574000Y-74670395D01*
X148387097Y-73857298D01*
X148315514Y-73613329D01*
X148060004Y-73492429D01*
X147785816Y-73423700D01*
X147503488Y-73409783D01*
X147223870Y-73451213D01*
X146957708Y-73546397D01*
X146832486Y-73613329D01*
X146760903Y-73857298D01*
X144510171Y-73857298D01*
X144384931Y-73819307D01*
X144219365Y-73803000D01*
X143308635Y-73803000D01*
X143143069Y-73819307D01*
X142930629Y-73883750D01*
X142734843Y-73988400D01*
X142563235Y-74129235D01*
X142422400Y-74300843D01*
X142317750Y-74496629D01*
X142253307Y-74709069D01*
X142231547Y-74930000D01*
X133608224Y-74930000D01*
X133304323Y-74626100D01*
X133290159Y-74608841D01*
X133221333Y-74552357D01*
X133142810Y-74510386D01*
X133057607Y-74484540D01*
X132991205Y-74478000D01*
X132969000Y-74475813D01*
X132946795Y-74478000D01*
X129960293Y-74478000D01*
X129865600Y-74300843D01*
X129724765Y-74129235D01*
X129553157Y-73988400D01*
X129357371Y-73883750D01*
X129144931Y-73819307D01*
X128979365Y-73803000D01*
X128068635Y-73803000D01*
X127903069Y-73819307D01*
X127690629Y-73883750D01*
X127494843Y-73988400D01*
X127323235Y-74129235D01*
X127182400Y-74300843D01*
X127077750Y-74496629D01*
X127013307Y-74709069D01*
X126991547Y-74930000D01*
X127013307Y-75150931D01*
X127077750Y-75363371D01*
X127182400Y-75559157D01*
X127323235Y-75730765D01*
X127494843Y-75871600D01*
X127690629Y-75976250D01*
X127903069Y-76040693D01*
X128068635Y-76057000D01*
X128979365Y-76057000D01*
X129144931Y-76040693D01*
X129357371Y-75976250D01*
X129553157Y-75871600D01*
X129724765Y-75730765D01*
X129865600Y-75559157D01*
X129960293Y-75382000D01*
X132781777Y-75382000D01*
X134417777Y-77018000D01*
X129960293Y-77018000D01*
X129865600Y-76840843D01*
X129724765Y-76669235D01*
X129553157Y-76528400D01*
X129357371Y-76423750D01*
X129144931Y-76359307D01*
X128979365Y-76343000D01*
X128068635Y-76343000D01*
X127903069Y-76359307D01*
X127690629Y-76423750D01*
X127494843Y-76528400D01*
X127323235Y-76669235D01*
X127182400Y-76840843D01*
X127077750Y-77036629D01*
X127013307Y-77249069D01*
X126991547Y-77470000D01*
X127013307Y-77690931D01*
X127077750Y-77903371D01*
X127182400Y-78099157D01*
X127323235Y-78270765D01*
X127494843Y-78411600D01*
X127690629Y-78516250D01*
X127903069Y-78580693D01*
X128068635Y-78597000D01*
X128979365Y-78597000D01*
X129144931Y-78580693D01*
X129357371Y-78516250D01*
X129553157Y-78411600D01*
X129724765Y-78270765D01*
X129865600Y-78099157D01*
X129960293Y-77922000D01*
X134368572Y-77922000D01*
X136004571Y-79558000D01*
X129960293Y-79558000D01*
X129865600Y-79380843D01*
X129724765Y-79209235D01*
X129553157Y-79068400D01*
X129357371Y-78963750D01*
X129144931Y-78899307D01*
X128979365Y-78883000D01*
X128068635Y-78883000D01*
X127903069Y-78899307D01*
X127690629Y-78963750D01*
X127494843Y-79068400D01*
X127323235Y-79209235D01*
X127182400Y-79380843D01*
X127077750Y-79576629D01*
X127013307Y-79789069D01*
X126991547Y-80010000D01*
X127013307Y-80230931D01*
X127077750Y-80443371D01*
X127182400Y-80639157D01*
X127323235Y-80810765D01*
X127494843Y-80951600D01*
X127690629Y-81056250D01*
X127903069Y-81120693D01*
X128068635Y-81137000D01*
X128979365Y-81137000D01*
X129144931Y-81120693D01*
X129357371Y-81056250D01*
X129553157Y-80951600D01*
X129724765Y-80810765D01*
X129865600Y-80639157D01*
X129960293Y-80462000D01*
X135953957Y-80462000D01*
X138049956Y-82558000D01*
X137987246Y-82558000D01*
X137866111Y-82582095D01*
X137752004Y-82629360D01*
X137649311Y-82697977D01*
X137561977Y-82785311D01*
X137493360Y-82888004D01*
X137446095Y-83002111D01*
X137422000Y-83123246D01*
X137422000Y-83246754D01*
X137446095Y-83367889D01*
X137493360Y-83481996D01*
X137561977Y-83584689D01*
X137597000Y-83619712D01*
X137597000Y-85122141D01*
X137596889Y-85122095D01*
X137475754Y-85098000D01*
X137352246Y-85098000D01*
X137231111Y-85122095D01*
X137117004Y-85169360D01*
X137014311Y-85237977D01*
X136926977Y-85325311D01*
X136858360Y-85428004D01*
X136811095Y-85542111D01*
X136787000Y-85663246D01*
X136787000Y-85786754D01*
X136811095Y-85907889D01*
X136858360Y-86021996D01*
X136926977Y-86124689D01*
X136962000Y-86159712D01*
X136962000Y-92742133D01*
X136961889Y-92742087D01*
X136840754Y-92717992D01*
X136717246Y-92717992D01*
X136596111Y-92742087D01*
X136596000Y-92742133D01*
X136596000Y-91239712D01*
X136631023Y-91204689D01*
X136699640Y-91101996D01*
X136746905Y-90987889D01*
X136771000Y-90866754D01*
X136771000Y-90743246D01*
X136746905Y-90622111D01*
X136699640Y-90508004D01*
X136631023Y-90405311D01*
X136543689Y-90317977D01*
X136440996Y-90249360D01*
X136326889Y-90202095D01*
X136205754Y-90178000D01*
X136082246Y-90178000D01*
X135961111Y-90202095D01*
X135961000Y-90202141D01*
X135961000Y-88107204D01*
X135963187Y-88084999D01*
X135954460Y-87996392D01*
X135928614Y-87911190D01*
X135893441Y-87845386D01*
X135886643Y-87832667D01*
X135830159Y-87763841D01*
X135812912Y-87749687D01*
X130309323Y-82246100D01*
X130295159Y-82228841D01*
X130226333Y-82172357D01*
X130147810Y-82130386D01*
X130062607Y-82104540D01*
X129996205Y-82098000D01*
X129974000Y-82095813D01*
X129959868Y-82097205D01*
X129865600Y-81920843D01*
X129724765Y-81749235D01*
X129553157Y-81608400D01*
X129357371Y-81503750D01*
X129144931Y-81439307D01*
X128979365Y-81423000D01*
X128068635Y-81423000D01*
X127903069Y-81439307D01*
X127690629Y-81503750D01*
X127494843Y-81608400D01*
X127323235Y-81749235D01*
X127182400Y-81920843D01*
X127077750Y-82116629D01*
X127013307Y-82329069D01*
X126991547Y-82550000D01*
X127013307Y-82770931D01*
X127077750Y-82983371D01*
X127182400Y-83179157D01*
X127323235Y-83350765D01*
X127494843Y-83491600D01*
X127690629Y-83596250D01*
X127903069Y-83660693D01*
X128068635Y-83677000D01*
X128979365Y-83677000D01*
X129144931Y-83660693D01*
X129357371Y-83596250D01*
X129553157Y-83491600D01*
X129724765Y-83350765D01*
X129865600Y-83179157D01*
X129899852Y-83115075D01*
X135057000Y-88272225D01*
X135057000Y-90348776D01*
X130031076Y-85322853D01*
X130034693Y-85310931D01*
X130056453Y-85090000D01*
X130034693Y-84869069D01*
X129970250Y-84656629D01*
X129865600Y-84460843D01*
X129724765Y-84289235D01*
X129553157Y-84148400D01*
X129357371Y-84043750D01*
X129144931Y-83979307D01*
X128979365Y-83963000D01*
X128068635Y-83963000D01*
X127903069Y-83979307D01*
X127690629Y-84043750D01*
X127494843Y-84148400D01*
X127323235Y-84289235D01*
X127182400Y-84460843D01*
X127077750Y-84656629D01*
X127013307Y-84869069D01*
X126991547Y-85090000D01*
X127013307Y-85310931D01*
X127077750Y-85523371D01*
X127182400Y-85719157D01*
X127323235Y-85890765D01*
X127494843Y-86031600D01*
X127690629Y-86136250D01*
X127903069Y-86200693D01*
X128068635Y-86217000D01*
X128979365Y-86217000D01*
X129144931Y-86200693D01*
X129357371Y-86136250D01*
X129493346Y-86063570D01*
X134422000Y-90992224D01*
X134422000Y-92253776D01*
X130031076Y-87862853D01*
X130034693Y-87850931D01*
X130056453Y-87630000D01*
X130034693Y-87409069D01*
X129970250Y-87196629D01*
X129865600Y-87000843D01*
X129724765Y-86829235D01*
X129553157Y-86688400D01*
X129357371Y-86583750D01*
X129144931Y-86519307D01*
X128979365Y-86503000D01*
X128068635Y-86503000D01*
X127903069Y-86519307D01*
X127690629Y-86583750D01*
X127494843Y-86688400D01*
X127323235Y-86829235D01*
X127182400Y-87000843D01*
X127077750Y-87196629D01*
X127013307Y-87409069D01*
X126991547Y-87630000D01*
X127013307Y-87850931D01*
X127077750Y-88063371D01*
X127182400Y-88259157D01*
X127323235Y-88430765D01*
X127494843Y-88571600D01*
X127690629Y-88676250D01*
X127903069Y-88740693D01*
X128068635Y-88757000D01*
X128979365Y-88757000D01*
X129144931Y-88740693D01*
X129357371Y-88676250D01*
X129493346Y-88603570D01*
X133787000Y-92897224D01*
X133787000Y-94158775D01*
X130031076Y-90402853D01*
X130034693Y-90390931D01*
X130056453Y-90170000D01*
X130034693Y-89949069D01*
X129970250Y-89736629D01*
X129865600Y-89540843D01*
X129724765Y-89369235D01*
X129553157Y-89228400D01*
X129357371Y-89123750D01*
X129144931Y-89059307D01*
X128979365Y-89043000D01*
X128068635Y-89043000D01*
X127903069Y-89059307D01*
X127690629Y-89123750D01*
X127494843Y-89228400D01*
X127323235Y-89369235D01*
X127182400Y-89540843D01*
X127077750Y-89736629D01*
X127013307Y-89949069D01*
X126991547Y-90170000D01*
X127013307Y-90390931D01*
X127077750Y-90603371D01*
X127182400Y-90799157D01*
X127323235Y-90970765D01*
X127494843Y-91111600D01*
X127690629Y-91216250D01*
X127903069Y-91280693D01*
X128068635Y-91297000D01*
X128979365Y-91297000D01*
X129144931Y-91280693D01*
X129357371Y-91216250D01*
X129493346Y-91143570D01*
X133152000Y-94802225D01*
X133152000Y-95973775D01*
X130041369Y-92863146D01*
X130056453Y-92710000D01*
X130034693Y-92489069D01*
X129970250Y-92276629D01*
X129865600Y-92080843D01*
X129724765Y-91909235D01*
X129553157Y-91768400D01*
X129357371Y-91663750D01*
X129144931Y-91599307D01*
X128979365Y-91583000D01*
X128068635Y-91583000D01*
X127903069Y-91599307D01*
X127690629Y-91663750D01*
X127494843Y-91768400D01*
X127323235Y-91909235D01*
X127182400Y-92080843D01*
X127077750Y-92276629D01*
X127013307Y-92489069D01*
X126991547Y-92710000D01*
X127013307Y-92930931D01*
X127077750Y-93143371D01*
X127182400Y-93339157D01*
X127323235Y-93510765D01*
X127494843Y-93651600D01*
X127690629Y-93756250D01*
X127903069Y-93820693D01*
X128068635Y-93837000D01*
X128979365Y-93837000D01*
X129144931Y-93820693D01*
X129357371Y-93756250D01*
X129551997Y-93652220D01*
X132517000Y-96617225D01*
X132517000Y-97968775D01*
X130031076Y-95482853D01*
X130034693Y-95470931D01*
X130056453Y-95250000D01*
X130034693Y-95029069D01*
X129970250Y-94816629D01*
X129865600Y-94620843D01*
X129724765Y-94449235D01*
X129553157Y-94308400D01*
X129357371Y-94203750D01*
X129144931Y-94139307D01*
X128979365Y-94123000D01*
X128068635Y-94123000D01*
X127903069Y-94139307D01*
X127690629Y-94203750D01*
X127494843Y-94308400D01*
X127323235Y-94449235D01*
X127182400Y-94620843D01*
X127077750Y-94816629D01*
X127013307Y-95029069D01*
X126991547Y-95250000D01*
X127013307Y-95470931D01*
X127077750Y-95683371D01*
X127182400Y-95879157D01*
X127323235Y-96050765D01*
X127494843Y-96191600D01*
X127690629Y-96296250D01*
X127903069Y-96360693D01*
X128068635Y-96377000D01*
X128979365Y-96377000D01*
X129144931Y-96360693D01*
X129357371Y-96296250D01*
X129493346Y-96223570D01*
X131882000Y-98612225D01*
X131882000Y-99873775D01*
X130031076Y-98022853D01*
X130034693Y-98010931D01*
X130056453Y-97790000D01*
X130034693Y-97569069D01*
X129970250Y-97356629D01*
X129865600Y-97160843D01*
X129724765Y-96989235D01*
X129553157Y-96848400D01*
X129357371Y-96743750D01*
X129144931Y-96679307D01*
X128979365Y-96663000D01*
X128068635Y-96663000D01*
X127903069Y-96679307D01*
X127690629Y-96743750D01*
X127494843Y-96848400D01*
X127323235Y-96989235D01*
X127182400Y-97160843D01*
X127077750Y-97356629D01*
X127013307Y-97569069D01*
X126991547Y-97790000D01*
X127013307Y-98010931D01*
X127077750Y-98223371D01*
X127182400Y-98419157D01*
X127323235Y-98590765D01*
X127494843Y-98731600D01*
X127690629Y-98836250D01*
X127903069Y-98900693D01*
X128068635Y-98917000D01*
X128979365Y-98917000D01*
X129144931Y-98900693D01*
X129357371Y-98836250D01*
X129493346Y-98763570D01*
X131247001Y-100517226D01*
X131247001Y-101778777D01*
X130031076Y-100562853D01*
X130034693Y-100550931D01*
X130056453Y-100330000D01*
X130034693Y-100109069D01*
X129970250Y-99896629D01*
X129865600Y-99700843D01*
X129724765Y-99529235D01*
X129553157Y-99388400D01*
X129357371Y-99283750D01*
X129144931Y-99219307D01*
X128979365Y-99203000D01*
X128068635Y-99203000D01*
X127903069Y-99219307D01*
X127690629Y-99283750D01*
X127494843Y-99388400D01*
X127323235Y-99529235D01*
X127182400Y-99700843D01*
X127077750Y-99896629D01*
X127013307Y-100109069D01*
X126991547Y-100330000D01*
X127013307Y-100550931D01*
X127077750Y-100763371D01*
X127182400Y-100959157D01*
X127323235Y-101130765D01*
X127494843Y-101271600D01*
X127690629Y-101376250D01*
X127903069Y-101440693D01*
X128068635Y-101457000D01*
X128979365Y-101457000D01*
X129144931Y-101440693D01*
X129357371Y-101376250D01*
X129493346Y-101303570D01*
X130612001Y-102422225D01*
X130612001Y-103048777D01*
X130129323Y-102566100D01*
X130115159Y-102548841D01*
X130046333Y-102492357D01*
X129975703Y-102454605D01*
X129970250Y-102436629D01*
X129865600Y-102240843D01*
X129724765Y-102069235D01*
X129553157Y-101928400D01*
X129357371Y-101823750D01*
X129144931Y-101759307D01*
X128979365Y-101743000D01*
X128068635Y-101743000D01*
X127903069Y-101759307D01*
X127690629Y-101823750D01*
X127494843Y-101928400D01*
X127323235Y-102069235D01*
X127182400Y-102240843D01*
X127077750Y-102436629D01*
X127013307Y-102649069D01*
X126991547Y-102870000D01*
X127013307Y-103090931D01*
X127077750Y-103303371D01*
X127182400Y-103499157D01*
X127323235Y-103670765D01*
X127494843Y-103811600D01*
X127690629Y-103916250D01*
X127903069Y-103980693D01*
X127944952Y-103984818D01*
X127719486Y-104027350D01*
X127457517Y-104132834D01*
X127221161Y-104287399D01*
X127019500Y-104485105D01*
X126860285Y-104718354D01*
X126749633Y-104978182D01*
X126732096Y-105060961D01*
X126854085Y-105283000D01*
X128397000Y-105283000D01*
X128397000Y-105263000D01*
X128651000Y-105263000D01*
X128651000Y-105283000D01*
X128671000Y-105283000D01*
X128671000Y-105537000D01*
X128651000Y-105537000D01*
X128651000Y-106845000D01*
X129051000Y-106845000D01*
X129328514Y-106792650D01*
X129590483Y-106687166D01*
X129826839Y-106532601D01*
X129977001Y-106385384D01*
X129977000Y-109993795D01*
X129974813Y-110016000D01*
X129983540Y-110104607D01*
X129996586Y-110147614D01*
X130009386Y-110189809D01*
X130051357Y-110268332D01*
X130107841Y-110337159D01*
X130125100Y-110351323D01*
X132041775Y-112268000D01*
X128428730Y-112268000D01*
X128428702Y-111880136D01*
X128428111Y-111874141D01*
X128428122Y-111872566D01*
X128427932Y-111870624D01*
X128422750Y-111821322D01*
X128420201Y-111808904D01*
X128417831Y-111796482D01*
X128417267Y-111794614D01*
X128402608Y-111747259D01*
X128397709Y-111735606D01*
X128392959Y-111723849D01*
X128392043Y-111722127D01*
X128368466Y-111678520D01*
X128361379Y-111668013D01*
X128354451Y-111657426D01*
X128353218Y-111655914D01*
X128321619Y-111617718D01*
X128312654Y-111608816D01*
X128303776Y-111599750D01*
X128302273Y-111598506D01*
X128263857Y-111567175D01*
X128253283Y-111560150D01*
X128242865Y-111553017D01*
X128241149Y-111552088D01*
X128197380Y-111528815D01*
X128185645Y-111523978D01*
X128174035Y-111519002D01*
X128172175Y-111518426D01*
X128172169Y-111518424D01*
X128124715Y-111504097D01*
X128112300Y-111501639D01*
X128099908Y-111499005D01*
X128097970Y-111498801D01*
X128097968Y-111498801D01*
X128048631Y-111493964D01*
X128048627Y-111493964D01*
X128041854Y-111493297D01*
X121291831Y-111493297D01*
X121114926Y-111475951D01*
X120951321Y-111426556D01*
X120800438Y-111346330D01*
X120668002Y-111238318D01*
X120559072Y-111106644D01*
X120477792Y-110956320D01*
X120427259Y-110793072D01*
X120408703Y-110616531D01*
X120408703Y-105759039D01*
X126732096Y-105759039D01*
X126749633Y-105841818D01*
X126860285Y-106101646D01*
X127019500Y-106334895D01*
X127221161Y-106532601D01*
X127457517Y-106687166D01*
X127719486Y-106792650D01*
X127997000Y-106845000D01*
X128397000Y-106845000D01*
X128397000Y-105537000D01*
X126854085Y-105537000D01*
X126732096Y-105759039D01*
X120408703Y-105759039D01*
X120408703Y-100125433D01*
X121367000Y-100125433D01*
X121367000Y-100534567D01*
X121446818Y-100935839D01*
X121603386Y-101313829D01*
X121830689Y-101654011D01*
X122119989Y-101943311D01*
X122460171Y-102170614D01*
X122838161Y-102327182D01*
X123239433Y-102407000D01*
X123648567Y-102407000D01*
X124049839Y-102327182D01*
X124427829Y-102170614D01*
X124768011Y-101943311D01*
X125057311Y-101654011D01*
X125284614Y-101313829D01*
X125441182Y-100935839D01*
X125521000Y-100534567D01*
X125521000Y-100125433D01*
X125441182Y-99724161D01*
X125284614Y-99346171D01*
X125057311Y-99005989D01*
X124768011Y-98716689D01*
X124427829Y-98489386D01*
X124049839Y-98332818D01*
X123648567Y-98253000D01*
X123239433Y-98253000D01*
X122838161Y-98332818D01*
X122460171Y-98489386D01*
X122119989Y-98716689D01*
X121830689Y-99005989D01*
X121603386Y-99346171D01*
X121446818Y-99724161D01*
X121367000Y-100125433D01*
X120408703Y-100125433D01*
X120408703Y-79399569D01*
X120517801Y-79099010D01*
X120517858Y-79098824D01*
X120517930Y-79098652D01*
X120520436Y-79091007D01*
X120979969Y-77539049D01*
X120980662Y-77536196D01*
X120981512Y-77533404D01*
X120983246Y-77525548D01*
X121286366Y-75935622D01*
X121286770Y-75932724D01*
X121287341Y-75929853D01*
X121288286Y-75921863D01*
X121431997Y-74309693D01*
X121432112Y-74306764D01*
X121432394Y-74303856D01*
X121432541Y-74295812D01*
X121415421Y-72677339D01*
X121415244Y-72674413D01*
X121415236Y-72671491D01*
X121414584Y-72663472D01*
X121295957Y-71590000D01*
X126995418Y-71590000D01*
X126995418Y-73190000D01*
X127001732Y-73254103D01*
X127020430Y-73315743D01*
X127050794Y-73372550D01*
X127091657Y-73422343D01*
X127141450Y-73463206D01*
X127198257Y-73493570D01*
X127259897Y-73512268D01*
X127324000Y-73518582D01*
X129724000Y-73518582D01*
X129788103Y-73512268D01*
X129849743Y-73493570D01*
X129906550Y-73463206D01*
X129956343Y-73422343D01*
X129997206Y-73372550D01*
X130027570Y-73315743D01*
X130046268Y-73254103D01*
X130052582Y-73190000D01*
X130052582Y-72390000D01*
X142231547Y-72390000D01*
X142253307Y-72610931D01*
X142317750Y-72823371D01*
X142422400Y-73019157D01*
X142563235Y-73190765D01*
X142734843Y-73331600D01*
X142930629Y-73436250D01*
X143143069Y-73500693D01*
X143308635Y-73517000D01*
X144219365Y-73517000D01*
X144384931Y-73500693D01*
X144597371Y-73436250D01*
X144793157Y-73331600D01*
X144964765Y-73190765D01*
X145105600Y-73019157D01*
X145210250Y-72823371D01*
X145274693Y-72610931D01*
X145280201Y-72555000D01*
X167090928Y-72555000D01*
X167103188Y-72679482D01*
X167139498Y-72799180D01*
X167198463Y-72909494D01*
X167277815Y-73006185D01*
X167374506Y-73085537D01*
X167484820Y-73144502D01*
X167604518Y-73180812D01*
X167629080Y-73183231D01*
X167465481Y-73331586D01*
X167297963Y-73557580D01*
X167177754Y-73811913D01*
X167137096Y-73945961D01*
X167259085Y-74168000D01*
X168402000Y-74168000D01*
X168402000Y-71882000D01*
X168656000Y-71882000D01*
X168656000Y-74168000D01*
X169798915Y-74168000D01*
X169920904Y-73945961D01*
X169880246Y-73811913D01*
X169779258Y-73598246D01*
X173617000Y-73598246D01*
X173617000Y-73721754D01*
X173641095Y-73842889D01*
X173688360Y-73956996D01*
X173756977Y-74059689D01*
X173792000Y-74094712D01*
X173792001Y-78940287D01*
X173756977Y-78975311D01*
X173688360Y-79078004D01*
X173641095Y-79192111D01*
X173617000Y-79313246D01*
X173617000Y-79436754D01*
X173641095Y-79557889D01*
X173688360Y-79671996D01*
X173756977Y-79774689D01*
X173844311Y-79862023D01*
X173947004Y-79930640D01*
X174061111Y-79977905D01*
X174182246Y-80002000D01*
X174305754Y-80002000D01*
X174426889Y-79977905D01*
X174540996Y-79930640D01*
X174643689Y-79862023D01*
X174731023Y-79774689D01*
X174799640Y-79671996D01*
X174846905Y-79557889D01*
X174871000Y-79436754D01*
X174871000Y-79313246D01*
X174861205Y-79264000D01*
X175022000Y-79264000D01*
X175022000Y-79486000D01*
X175065310Y-79703734D01*
X175150266Y-79908835D01*
X175273602Y-80093421D01*
X175430579Y-80250398D01*
X175615165Y-80373734D01*
X175820266Y-80458690D01*
X176038000Y-80502000D01*
X176260000Y-80502000D01*
X176477734Y-80458690D01*
X176682835Y-80373734D01*
X176867421Y-80250398D01*
X177024398Y-80093421D01*
X177147734Y-79908835D01*
X177232690Y-79703734D01*
X177276000Y-79486000D01*
X177276000Y-79264000D01*
X177232690Y-79046266D01*
X177147734Y-78841165D01*
X177024398Y-78656579D01*
X176867421Y-78499602D01*
X176682835Y-78376266D01*
X176477734Y-78291310D01*
X176260000Y-78248000D01*
X176038000Y-78248000D01*
X175820266Y-78291310D01*
X175615165Y-78376266D01*
X175430579Y-78499602D01*
X175273602Y-78656579D01*
X175150266Y-78841165D01*
X175065310Y-79046266D01*
X175022000Y-79264000D01*
X174861205Y-79264000D01*
X174846905Y-79192111D01*
X174799640Y-79078004D01*
X174731023Y-78975311D01*
X174696000Y-78940288D01*
X174696000Y-76724000D01*
X175022000Y-76724000D01*
X175022000Y-76946000D01*
X175065310Y-77163734D01*
X175150266Y-77368835D01*
X175273602Y-77553421D01*
X175430579Y-77710398D01*
X175615165Y-77833734D01*
X175820266Y-77918690D01*
X176038000Y-77962000D01*
X176260000Y-77962000D01*
X176477734Y-77918690D01*
X176682835Y-77833734D01*
X176867421Y-77710398D01*
X177024398Y-77553421D01*
X177147734Y-77368835D01*
X177232690Y-77163734D01*
X177276000Y-76946000D01*
X177276000Y-76724000D01*
X177232690Y-76506266D01*
X177147734Y-76301165D01*
X177024398Y-76116579D01*
X176867421Y-75959602D01*
X176682835Y-75836266D01*
X176477734Y-75751310D01*
X176260000Y-75708000D01*
X176038000Y-75708000D01*
X175820266Y-75751310D01*
X175615165Y-75836266D01*
X175430579Y-75959602D01*
X175273602Y-76116579D01*
X175150266Y-76301165D01*
X175065310Y-76506266D01*
X175022000Y-76724000D01*
X174696000Y-76724000D01*
X174696000Y-74184000D01*
X175022000Y-74184000D01*
X175022000Y-74406000D01*
X175065310Y-74623734D01*
X175150266Y-74828835D01*
X175273602Y-75013421D01*
X175430579Y-75170398D01*
X175615165Y-75293734D01*
X175820266Y-75378690D01*
X176038000Y-75422000D01*
X176260000Y-75422000D01*
X176477734Y-75378690D01*
X176682835Y-75293734D01*
X176867421Y-75170398D01*
X177024398Y-75013421D01*
X177147734Y-74828835D01*
X177232690Y-74623734D01*
X177276000Y-74406000D01*
X177276000Y-74184000D01*
X177232690Y-73966266D01*
X177147734Y-73761165D01*
X177024398Y-73576579D01*
X176867421Y-73419602D01*
X176682835Y-73296266D01*
X176477734Y-73211310D01*
X176260000Y-73168000D01*
X176038000Y-73168000D01*
X175820266Y-73211310D01*
X175615165Y-73296266D01*
X175430579Y-73419602D01*
X175273602Y-73576579D01*
X175150266Y-73761165D01*
X175065310Y-73966266D01*
X175022000Y-74184000D01*
X174696000Y-74184000D01*
X174696000Y-74094712D01*
X174731023Y-74059689D01*
X174799640Y-73956996D01*
X174846905Y-73842889D01*
X174871000Y-73721754D01*
X174871000Y-73598246D01*
X174846905Y-73477111D01*
X174799640Y-73363004D01*
X174731023Y-73260311D01*
X174643689Y-73172977D01*
X174540996Y-73104360D01*
X174426889Y-73057095D01*
X174305754Y-73033000D01*
X174182246Y-73033000D01*
X174061111Y-73057095D01*
X173947004Y-73104360D01*
X173844311Y-73172977D01*
X173756977Y-73260311D01*
X173688360Y-73363004D01*
X173641095Y-73477111D01*
X173617000Y-73598246D01*
X169779258Y-73598246D01*
X169760037Y-73557580D01*
X169592519Y-73331586D01*
X169428920Y-73183231D01*
X169453482Y-73180812D01*
X169573180Y-73144502D01*
X169683494Y-73085537D01*
X169780185Y-73006185D01*
X169859537Y-72909494D01*
X169918502Y-72799180D01*
X169954812Y-72679482D01*
X169967072Y-72555000D01*
X169964000Y-72040750D01*
X169805250Y-71882000D01*
X168656000Y-71882000D01*
X168402000Y-71882000D01*
X167252750Y-71882000D01*
X167094000Y-72040750D01*
X167090928Y-72555000D01*
X145280201Y-72555000D01*
X145296453Y-72390000D01*
X145274693Y-72169069D01*
X145210250Y-71956629D01*
X145105600Y-71760843D01*
X145009710Y-71644000D01*
X175022000Y-71644000D01*
X175022000Y-71866000D01*
X175065310Y-72083734D01*
X175150266Y-72288835D01*
X175273602Y-72473421D01*
X175430579Y-72630398D01*
X175615165Y-72753734D01*
X175820266Y-72838690D01*
X176038000Y-72882000D01*
X176260000Y-72882000D01*
X176477734Y-72838690D01*
X176682835Y-72753734D01*
X176867421Y-72630398D01*
X177024398Y-72473421D01*
X177147734Y-72288835D01*
X177232690Y-72083734D01*
X177276000Y-71866000D01*
X177276000Y-71644000D01*
X177232690Y-71426266D01*
X177147734Y-71221165D01*
X177024398Y-71036579D01*
X176867421Y-70879602D01*
X176682835Y-70756266D01*
X176477734Y-70671310D01*
X176260000Y-70628000D01*
X176038000Y-70628000D01*
X175820266Y-70671310D01*
X175615165Y-70756266D01*
X175430579Y-70879602D01*
X175273602Y-71036579D01*
X175150266Y-71221165D01*
X175065310Y-71426266D01*
X175022000Y-71644000D01*
X145009710Y-71644000D01*
X144964765Y-71589235D01*
X144793157Y-71448400D01*
X144597371Y-71343750D01*
X144384931Y-71279307D01*
X144219365Y-71263000D01*
X143308635Y-71263000D01*
X143143069Y-71279307D01*
X142930629Y-71343750D01*
X142734843Y-71448400D01*
X142563235Y-71589235D01*
X142422400Y-71760843D01*
X142317750Y-71956629D01*
X142253307Y-72169069D01*
X142231547Y-72390000D01*
X130052582Y-72390000D01*
X130052582Y-71590000D01*
X130046268Y-71525897D01*
X130027570Y-71464257D01*
X129997206Y-71407450D01*
X129956343Y-71357657D01*
X129906550Y-71316794D01*
X129849743Y-71286430D01*
X129788103Y-71267732D01*
X129724000Y-71261418D01*
X127324000Y-71261418D01*
X127259897Y-71267732D01*
X127198257Y-71286430D01*
X127141450Y-71316794D01*
X127091657Y-71357657D01*
X127050794Y-71407450D01*
X127020430Y-71464257D01*
X127001732Y-71525897D01*
X126995418Y-71590000D01*
X121295957Y-71590000D01*
X121236802Y-71054703D01*
X121236335Y-71051806D01*
X121236037Y-71048902D01*
X121234591Y-71040988D01*
X120981308Y-69850000D01*
X126991547Y-69850000D01*
X127013307Y-70070931D01*
X127077750Y-70283371D01*
X127182400Y-70479157D01*
X127323235Y-70650765D01*
X127494843Y-70791600D01*
X127690629Y-70896250D01*
X127903069Y-70960693D01*
X128068635Y-70977000D01*
X128979365Y-70977000D01*
X129144931Y-70960693D01*
X129357371Y-70896250D01*
X129553157Y-70791600D01*
X129724765Y-70650765D01*
X129865600Y-70479157D01*
X129970250Y-70283371D01*
X130034693Y-70070931D01*
X130056453Y-69850000D01*
X142231547Y-69850000D01*
X142253307Y-70070931D01*
X142317750Y-70283371D01*
X142422400Y-70479157D01*
X142563235Y-70650765D01*
X142734843Y-70791600D01*
X142930629Y-70896250D01*
X143143069Y-70960693D01*
X143308635Y-70977000D01*
X144219365Y-70977000D01*
X144384931Y-70960693D01*
X144597371Y-70896250D01*
X144793157Y-70791600D01*
X144964765Y-70650765D01*
X145105600Y-70479157D01*
X145210250Y-70283371D01*
X145274693Y-70070931D01*
X145296453Y-69850000D01*
X145285521Y-69739000D01*
X146447000Y-69739000D01*
X146447000Y-69961000D01*
X146490310Y-70178734D01*
X146575266Y-70383835D01*
X146698602Y-70568421D01*
X146855579Y-70725398D01*
X147040165Y-70848734D01*
X147245266Y-70933690D01*
X147463000Y-70977000D01*
X147685000Y-70977000D01*
X147795601Y-70955000D01*
X167090928Y-70955000D01*
X167094000Y-71469250D01*
X167252750Y-71628000D01*
X168402000Y-71628000D01*
X168402000Y-70478750D01*
X168656000Y-70478750D01*
X168656000Y-71628000D01*
X169805250Y-71628000D01*
X169964000Y-71469250D01*
X169967072Y-70955000D01*
X169954812Y-70830518D01*
X169918502Y-70710820D01*
X169859537Y-70600506D01*
X169780185Y-70503815D01*
X169683494Y-70424463D01*
X169573180Y-70365498D01*
X169453482Y-70329188D01*
X169329000Y-70316928D01*
X168814750Y-70320000D01*
X168656000Y-70478750D01*
X168402000Y-70478750D01*
X168243250Y-70320000D01*
X167729000Y-70316928D01*
X167604518Y-70329188D01*
X167484820Y-70365498D01*
X167374506Y-70424463D01*
X167277815Y-70503815D01*
X167198463Y-70600506D01*
X167139498Y-70710820D01*
X167103188Y-70830518D01*
X167090928Y-70955000D01*
X147795601Y-70955000D01*
X147902734Y-70933690D01*
X148107835Y-70848734D01*
X148292421Y-70725398D01*
X148449398Y-70568421D01*
X148572734Y-70383835D01*
X148657690Y-70178734D01*
X148701000Y-69961000D01*
X148701000Y-69739000D01*
X148657690Y-69521266D01*
X148572734Y-69316165D01*
X148449398Y-69131579D01*
X148292421Y-68974602D01*
X148107835Y-68851266D01*
X147902734Y-68766310D01*
X147685000Y-68723000D01*
X147463000Y-68723000D01*
X147245266Y-68766310D01*
X147040165Y-68851266D01*
X146855579Y-68974602D01*
X146698602Y-69131579D01*
X146575266Y-69316165D01*
X146490310Y-69521266D01*
X146447000Y-69739000D01*
X145285521Y-69739000D01*
X145274693Y-69629069D01*
X145210250Y-69416629D01*
X145105600Y-69220843D01*
X144964765Y-69049235D01*
X144793157Y-68908400D01*
X144597371Y-68803750D01*
X144384931Y-68739307D01*
X144219365Y-68723000D01*
X143308635Y-68723000D01*
X143143069Y-68739307D01*
X142930629Y-68803750D01*
X142734843Y-68908400D01*
X142563235Y-69049235D01*
X142422400Y-69220843D01*
X142317750Y-69416629D01*
X142253307Y-69629069D01*
X142231547Y-69850000D01*
X130056453Y-69850000D01*
X130034693Y-69629069D01*
X129970250Y-69416629D01*
X129865600Y-69220843D01*
X129724765Y-69049235D01*
X129553157Y-68908400D01*
X129357371Y-68803750D01*
X129144931Y-68739307D01*
X128979365Y-68723000D01*
X128068635Y-68723000D01*
X127903069Y-68739307D01*
X127690629Y-68803750D01*
X127494843Y-68908400D01*
X127323235Y-69049235D01*
X127182400Y-69220843D01*
X127077750Y-69416629D01*
X127013307Y-69629069D01*
X126991547Y-69850000D01*
X120981308Y-69850000D01*
X120897906Y-69457830D01*
X120897155Y-69454999D01*
X120896569Y-69452133D01*
X120894344Y-69444401D01*
X120408703Y-67923241D01*
X120408703Y-66510000D01*
X126995418Y-66510000D01*
X126995418Y-68110000D01*
X127001732Y-68174103D01*
X127020430Y-68235743D01*
X127050794Y-68292550D01*
X127091657Y-68342343D01*
X127141450Y-68383206D01*
X127198257Y-68413570D01*
X127259897Y-68432268D01*
X127324000Y-68438582D01*
X129724000Y-68438582D01*
X129788103Y-68432268D01*
X129849743Y-68413570D01*
X129906550Y-68383206D01*
X129956343Y-68342343D01*
X129997206Y-68292550D01*
X130027570Y-68235743D01*
X130046268Y-68174103D01*
X130052582Y-68110000D01*
X130052582Y-67310000D01*
X142231547Y-67310000D01*
X142253307Y-67530931D01*
X142317750Y-67743371D01*
X142422400Y-67939157D01*
X142563235Y-68110765D01*
X142734843Y-68251600D01*
X142930629Y-68356250D01*
X143143069Y-68420693D01*
X143308635Y-68437000D01*
X144219365Y-68437000D01*
X144384931Y-68420693D01*
X144597371Y-68356250D01*
X144793157Y-68251600D01*
X144964765Y-68110765D01*
X145105600Y-67939157D01*
X145210250Y-67743371D01*
X145274693Y-67530931D01*
X145296453Y-67310000D01*
X145274693Y-67089069D01*
X145210250Y-66876629D01*
X145146042Y-66756504D01*
X154105000Y-66756504D01*
X154105000Y-67863497D01*
X154120757Y-68023481D01*
X154183028Y-68228759D01*
X154284150Y-68417943D01*
X154420236Y-68583765D01*
X154586058Y-68719851D01*
X154775242Y-68820973D01*
X154980520Y-68883243D01*
X155194000Y-68904269D01*
X155407481Y-68883243D01*
X155612759Y-68820973D01*
X155801943Y-68719851D01*
X155967765Y-68583765D01*
X156103851Y-68417943D01*
X156204973Y-68228759D01*
X156267243Y-68023481D01*
X156283000Y-67863497D01*
X156283000Y-66756504D01*
X156645000Y-66756504D01*
X156645000Y-67863497D01*
X156660757Y-68023481D01*
X156723028Y-68228759D01*
X156824150Y-68417943D01*
X156960236Y-68583765D01*
X157126058Y-68719851D01*
X157315242Y-68820973D01*
X157520520Y-68883243D01*
X157734000Y-68904269D01*
X157947481Y-68883243D01*
X158152759Y-68820973D01*
X158341943Y-68719851D01*
X158507765Y-68583765D01*
X158643851Y-68417943D01*
X158744973Y-68228759D01*
X158807243Y-68023481D01*
X158823000Y-67863497D01*
X158823000Y-67437000D01*
X158877000Y-67437000D01*
X158877000Y-67937000D01*
X158928619Y-68207101D01*
X159031941Y-68461942D01*
X159182994Y-68691729D01*
X159375974Y-68887632D01*
X159603465Y-69042122D01*
X159856724Y-69149262D01*
X159930930Y-69164220D01*
X160147000Y-69041720D01*
X160147000Y-67437000D01*
X160401000Y-67437000D01*
X160401000Y-69041720D01*
X160617070Y-69164220D01*
X160691276Y-69149262D01*
X160944535Y-69042122D01*
X161172026Y-68887632D01*
X161365006Y-68691729D01*
X161516059Y-68461942D01*
X161619381Y-68207101D01*
X161671000Y-67937000D01*
X161671000Y-67437000D01*
X160401000Y-67437000D01*
X160147000Y-67437000D01*
X158877000Y-67437000D01*
X158823000Y-67437000D01*
X158823000Y-66756503D01*
X158815761Y-66683000D01*
X158877000Y-66683000D01*
X158877000Y-67183000D01*
X160147000Y-67183000D01*
X160147000Y-65578280D01*
X160401000Y-65578280D01*
X160401000Y-67183000D01*
X161671000Y-67183000D01*
X161671000Y-66756504D01*
X161725000Y-66756504D01*
X161725000Y-67863497D01*
X161740757Y-68023481D01*
X161803028Y-68228759D01*
X161904150Y-68417943D01*
X162040236Y-68583765D01*
X162206058Y-68719851D01*
X162395242Y-68820973D01*
X162600520Y-68883243D01*
X162814000Y-68904269D01*
X163027481Y-68883243D01*
X163232759Y-68820973D01*
X163421943Y-68719851D01*
X163587765Y-68583765D01*
X163723851Y-68417943D01*
X163824973Y-68228759D01*
X163887243Y-68023481D01*
X163903000Y-67863497D01*
X163903000Y-66756504D01*
X164265000Y-66756504D01*
X164265000Y-67863497D01*
X164280757Y-68023481D01*
X164343028Y-68228759D01*
X164444150Y-68417943D01*
X164580236Y-68583765D01*
X164746058Y-68719851D01*
X164935242Y-68820973D01*
X165140520Y-68883243D01*
X165354000Y-68904269D01*
X165567481Y-68883243D01*
X165772759Y-68820973D01*
X165961943Y-68719851D01*
X166127765Y-68583765D01*
X166263851Y-68417943D01*
X166364973Y-68228759D01*
X166427243Y-68023481D01*
X166443000Y-67863497D01*
X166443000Y-66756503D01*
X166427243Y-66596519D01*
X166417379Y-66564000D01*
X167402000Y-66564000D01*
X167402000Y-66786000D01*
X167445310Y-67003734D01*
X167530266Y-67208835D01*
X167653602Y-67393421D01*
X167810579Y-67550398D01*
X167995165Y-67673734D01*
X168200266Y-67758690D01*
X168418000Y-67802000D01*
X168640000Y-67802000D01*
X168857734Y-67758690D01*
X169062835Y-67673734D01*
X169247421Y-67550398D01*
X169404398Y-67393421D01*
X169527734Y-67208835D01*
X169612690Y-67003734D01*
X169656000Y-66786000D01*
X169656000Y-66564000D01*
X175022000Y-66564000D01*
X175022000Y-66786000D01*
X175065310Y-67003734D01*
X175150266Y-67208835D01*
X175273602Y-67393421D01*
X175430579Y-67550398D01*
X175615165Y-67673734D01*
X175820266Y-67758690D01*
X176038000Y-67802000D01*
X176260000Y-67802000D01*
X176477734Y-67758690D01*
X176682835Y-67673734D01*
X176867421Y-67550398D01*
X177024398Y-67393421D01*
X177147734Y-67208835D01*
X177232690Y-67003734D01*
X177276000Y-66786000D01*
X177276000Y-66564000D01*
X177232690Y-66346266D01*
X177147734Y-66141165D01*
X177024398Y-65956579D01*
X176867421Y-65799602D01*
X176682835Y-65676266D01*
X176477734Y-65591310D01*
X176260000Y-65548000D01*
X176038000Y-65548000D01*
X175820266Y-65591310D01*
X175615165Y-65676266D01*
X175430579Y-65799602D01*
X175273602Y-65956579D01*
X175150266Y-66141165D01*
X175065310Y-66346266D01*
X175022000Y-66564000D01*
X169656000Y-66564000D01*
X169612690Y-66346266D01*
X169527734Y-66141165D01*
X169404398Y-65956579D01*
X169247421Y-65799602D01*
X169062835Y-65676266D01*
X168857734Y-65591310D01*
X168640000Y-65548000D01*
X168418000Y-65548000D01*
X168200266Y-65591310D01*
X167995165Y-65676266D01*
X167810579Y-65799602D01*
X167653602Y-65956579D01*
X167530266Y-66141165D01*
X167445310Y-66346266D01*
X167402000Y-66564000D01*
X166417379Y-66564000D01*
X166364973Y-66391241D01*
X166263851Y-66202057D01*
X166127765Y-66036235D01*
X165961943Y-65900149D01*
X165772758Y-65799027D01*
X165567480Y-65736757D01*
X165354000Y-65715731D01*
X165140519Y-65736757D01*
X164935241Y-65799027D01*
X164746057Y-65900149D01*
X164580235Y-66036235D01*
X164444149Y-66202057D01*
X164343027Y-66391242D01*
X164280757Y-66596520D01*
X164265000Y-66756504D01*
X163903000Y-66756504D01*
X163903000Y-66756503D01*
X163887243Y-66596519D01*
X163824973Y-66391241D01*
X163723851Y-66202057D01*
X163587765Y-66036235D01*
X163421943Y-65900149D01*
X163232758Y-65799027D01*
X163027480Y-65736757D01*
X162814000Y-65715731D01*
X162600519Y-65736757D01*
X162395241Y-65799027D01*
X162206057Y-65900149D01*
X162040235Y-66036235D01*
X161904149Y-66202057D01*
X161803027Y-66391242D01*
X161740757Y-66596520D01*
X161725000Y-66756504D01*
X161671000Y-66756504D01*
X161671000Y-66683000D01*
X161619381Y-66412899D01*
X161516059Y-66158058D01*
X161365006Y-65928271D01*
X161172026Y-65732368D01*
X160944535Y-65577878D01*
X160691276Y-65470738D01*
X160617070Y-65455780D01*
X160401000Y-65578280D01*
X160147000Y-65578280D01*
X159930930Y-65455780D01*
X159856724Y-65470738D01*
X159603465Y-65577878D01*
X159375974Y-65732368D01*
X159182994Y-65928271D01*
X159031941Y-66158058D01*
X158928619Y-66412899D01*
X158877000Y-66683000D01*
X158815761Y-66683000D01*
X158807243Y-66596519D01*
X158744973Y-66391241D01*
X158643851Y-66202057D01*
X158507765Y-66036235D01*
X158341943Y-65900149D01*
X158152758Y-65799027D01*
X157947480Y-65736757D01*
X157734000Y-65715731D01*
X157520519Y-65736757D01*
X157315241Y-65799027D01*
X157126057Y-65900149D01*
X156960235Y-66036235D01*
X156824149Y-66202057D01*
X156723027Y-66391242D01*
X156660757Y-66596520D01*
X156645000Y-66756504D01*
X156283000Y-66756504D01*
X156283000Y-66756503D01*
X156267243Y-66596519D01*
X156204973Y-66391241D01*
X156103851Y-66202057D01*
X155967765Y-66036235D01*
X155801943Y-65900149D01*
X155612758Y-65799027D01*
X155407480Y-65736757D01*
X155194000Y-65715731D01*
X154980519Y-65736757D01*
X154775241Y-65799027D01*
X154586057Y-65900149D01*
X154420235Y-66036235D01*
X154284149Y-66202057D01*
X154183027Y-66391242D01*
X154120757Y-66596520D01*
X154105000Y-66756504D01*
X145146042Y-66756504D01*
X145105600Y-66680843D01*
X144964765Y-66509235D01*
X144793157Y-66368400D01*
X144597371Y-66263750D01*
X144384931Y-66199307D01*
X144219365Y-66183000D01*
X143308635Y-66183000D01*
X143143069Y-66199307D01*
X142930629Y-66263750D01*
X142734843Y-66368400D01*
X142563235Y-66509235D01*
X142422400Y-66680843D01*
X142317750Y-66876629D01*
X142253307Y-67089069D01*
X142231547Y-67310000D01*
X130052582Y-67310000D01*
X130052582Y-66510000D01*
X130046268Y-66445897D01*
X130027570Y-66384257D01*
X129997206Y-66327450D01*
X129956343Y-66277657D01*
X129906550Y-66236794D01*
X129849743Y-66206430D01*
X129788103Y-66187732D01*
X129724000Y-66181418D01*
X127324000Y-66181418D01*
X127259897Y-66187732D01*
X127198257Y-66206430D01*
X127141450Y-66236794D01*
X127091657Y-66277657D01*
X127050794Y-66327450D01*
X127020430Y-66384257D01*
X127001732Y-66445897D01*
X126995418Y-66510000D01*
X120408703Y-66510000D01*
X120408703Y-62236830D01*
X120429430Y-62025433D01*
X121367000Y-62025433D01*
X121367000Y-62434567D01*
X121446818Y-62835839D01*
X121603386Y-63213829D01*
X121830689Y-63554011D01*
X122119989Y-63843311D01*
X122460171Y-64070614D01*
X122838161Y-64227182D01*
X123239433Y-64307000D01*
X123648567Y-64307000D01*
X124049839Y-64227182D01*
X124427829Y-64070614D01*
X124768011Y-63843311D01*
X125057311Y-63554011D01*
X125284614Y-63213829D01*
X125441182Y-62835839D01*
X125521000Y-62434567D01*
X125521000Y-62025433D01*
X172934000Y-62025433D01*
X172934000Y-62434567D01*
X173013818Y-62835839D01*
X173170386Y-63213829D01*
X173397689Y-63554011D01*
X173686989Y-63843311D01*
X174027171Y-64070614D01*
X174405161Y-64227182D01*
X174806433Y-64307000D01*
X175215567Y-64307000D01*
X175616839Y-64227182D01*
X175994829Y-64070614D01*
X176335011Y-63843311D01*
X176624311Y-63554011D01*
X176851614Y-63213829D01*
X177008182Y-62835839D01*
X177088000Y-62434567D01*
X177088000Y-62025433D01*
X177008182Y-61624161D01*
X176851614Y-61246171D01*
X176624311Y-60905989D01*
X176335011Y-60616689D01*
X175994829Y-60389386D01*
X175616839Y-60232818D01*
X175215567Y-60153000D01*
X174806433Y-60153000D01*
X174405161Y-60232818D01*
X174027171Y-60389386D01*
X173686989Y-60616689D01*
X173397689Y-60905989D01*
X173170386Y-61246171D01*
X173013818Y-61624161D01*
X172934000Y-62025433D01*
X125521000Y-62025433D01*
X125441182Y-61624161D01*
X125284614Y-61246171D01*
X125057311Y-60905989D01*
X124768011Y-60616689D01*
X124427829Y-60389386D01*
X124049839Y-60232818D01*
X123648567Y-60153000D01*
X123239433Y-60153000D01*
X122838161Y-60232818D01*
X122460171Y-60389386D01*
X122119989Y-60616689D01*
X121830689Y-60905989D01*
X121603386Y-61246171D01*
X121446818Y-61624161D01*
X121367000Y-62025433D01*
X120429430Y-62025433D01*
X120467166Y-61640571D01*
X120638347Y-61073594D01*
X120916396Y-60550661D01*
X121290716Y-60091698D01*
X121747060Y-59714179D01*
X122268038Y-59432487D01*
X122833802Y-59257355D01*
X123429403Y-59194754D01*
X123444197Y-59194703D01*
X174999170Y-59194703D01*
X175595429Y-59253166D01*
G37*
%TD.AperFunction*%
%TD*%
M02*
