%TF.GenerationSoftware,KiCad,Pcbnew,(5.1.8)-1*%
%TF.CreationDate,2021-08-26T19:44:27+02:00*%
%TF.ProjectId,ZX Cartridge 1983,5a582043-6172-4747-9269-646765203139,rev?*%
%TF.SameCoordinates,Original*%
%TF.FileFunction,Legend,Bot*%
%TF.FilePolarity,Positive*%
%FSLAX46Y46*%
G04 Gerber Fmt 4.6, Leading zero omitted, Abs format (unit mm)*
G04 Created by KiCad (PCBNEW (5.1.8)-1) date 2021-08-26 19:44:27*
%MOMM*%
%LPD*%
G01*
G04 APERTURE LIST*
%ADD10C,0.150000*%
G04 APERTURE END LIST*
D10*
X173529000Y-105672380D02*
X174005190Y-105672380D01*
X174005190Y-104672380D01*
X173195666Y-105672380D02*
X173195666Y-105005714D01*
X173195666Y-104672380D02*
X173243285Y-104720000D01*
X173195666Y-104767619D01*
X173148047Y-104720000D01*
X173195666Y-104672380D01*
X173195666Y-104767619D01*
X172290904Y-105624761D02*
X172386142Y-105672380D01*
X172576619Y-105672380D01*
X172671857Y-105624761D01*
X172719476Y-105577142D01*
X172767095Y-105481904D01*
X172767095Y-105196190D01*
X172719476Y-105100952D01*
X172671857Y-105053333D01*
X172576619Y-105005714D01*
X172386142Y-105005714D01*
X172290904Y-105053333D01*
X171481380Y-105624761D02*
X171576619Y-105672380D01*
X171767095Y-105672380D01*
X171862333Y-105624761D01*
X171909952Y-105529523D01*
X171909952Y-105148571D01*
X171862333Y-105053333D01*
X171767095Y-105005714D01*
X171576619Y-105005714D01*
X171481380Y-105053333D01*
X171433761Y-105148571D01*
X171433761Y-105243809D01*
X171909952Y-105339047D01*
X171005190Y-105005714D02*
X171005190Y-105672380D01*
X171005190Y-105100952D02*
X170957571Y-105053333D01*
X170862333Y-105005714D01*
X170719476Y-105005714D01*
X170624238Y-105053333D01*
X170576619Y-105148571D01*
X170576619Y-105672380D01*
X170148047Y-105624761D02*
X170052809Y-105672380D01*
X169862333Y-105672380D01*
X169767095Y-105624761D01*
X169719476Y-105529523D01*
X169719476Y-105481904D01*
X169767095Y-105386666D01*
X169862333Y-105339047D01*
X170005190Y-105339047D01*
X170100428Y-105291428D01*
X170148047Y-105196190D01*
X170148047Y-105148571D01*
X170100428Y-105053333D01*
X170005190Y-105005714D01*
X169862333Y-105005714D01*
X169767095Y-105053333D01*
X168909952Y-105624761D02*
X169005190Y-105672380D01*
X169195666Y-105672380D01*
X169290904Y-105624761D01*
X169338523Y-105529523D01*
X169338523Y-105148571D01*
X169290904Y-105053333D01*
X169195666Y-105005714D01*
X169005190Y-105005714D01*
X168909952Y-105053333D01*
X168862333Y-105148571D01*
X168862333Y-105243809D01*
X169338523Y-105339047D01*
X168005190Y-105672380D02*
X168005190Y-104672380D01*
X168005190Y-105624761D02*
X168100428Y-105672380D01*
X168290904Y-105672380D01*
X168386142Y-105624761D01*
X168433761Y-105577142D01*
X168481380Y-105481904D01*
X168481380Y-105196190D01*
X168433761Y-105100952D01*
X168386142Y-105053333D01*
X168290904Y-105005714D01*
X168100428Y-105005714D01*
X168005190Y-105053333D01*
X166338523Y-105005714D02*
X166338523Y-105672380D01*
X166767095Y-105005714D02*
X166767095Y-105529523D01*
X166719476Y-105624761D01*
X166624238Y-105672380D01*
X166481380Y-105672380D01*
X166386142Y-105624761D01*
X166338523Y-105577142D01*
X165862333Y-105005714D02*
X165862333Y-105672380D01*
X165862333Y-105100952D02*
X165814714Y-105053333D01*
X165719476Y-105005714D01*
X165576619Y-105005714D01*
X165481380Y-105053333D01*
X165433761Y-105148571D01*
X165433761Y-105672380D01*
X164529000Y-105672380D02*
X164529000Y-104672380D01*
X164529000Y-105624761D02*
X164624238Y-105672380D01*
X164814714Y-105672380D01*
X164909952Y-105624761D01*
X164957571Y-105577142D01*
X165005190Y-105481904D01*
X165005190Y-105196190D01*
X164957571Y-105100952D01*
X164909952Y-105053333D01*
X164814714Y-105005714D01*
X164624238Y-105005714D01*
X164529000Y-105053333D01*
X163671857Y-105624761D02*
X163767095Y-105672380D01*
X163957571Y-105672380D01*
X164052809Y-105624761D01*
X164100428Y-105529523D01*
X164100428Y-105148571D01*
X164052809Y-105053333D01*
X163957571Y-105005714D01*
X163767095Y-105005714D01*
X163671857Y-105053333D01*
X163624238Y-105148571D01*
X163624238Y-105243809D01*
X164100428Y-105339047D01*
X163195666Y-105672380D02*
X163195666Y-105005714D01*
X163195666Y-105196190D02*
X163148047Y-105100952D01*
X163100428Y-105053333D01*
X163005190Y-105005714D01*
X162909952Y-105005714D01*
X173481380Y-107227142D02*
X173529000Y-107274761D01*
X173671857Y-107322380D01*
X173767095Y-107322380D01*
X173909952Y-107274761D01*
X174005190Y-107179523D01*
X174052809Y-107084285D01*
X174100428Y-106893809D01*
X174100428Y-106750952D01*
X174052809Y-106560476D01*
X174005190Y-106465238D01*
X173909952Y-106370000D01*
X173767095Y-106322380D01*
X173671857Y-106322380D01*
X173529000Y-106370000D01*
X173481380Y-106417619D01*
X173052809Y-106798571D02*
X172719476Y-106798571D01*
X172576619Y-107322380D02*
X173052809Y-107322380D01*
X173052809Y-106322380D01*
X172576619Y-106322380D01*
X171576619Y-107322380D02*
X171909952Y-106846190D01*
X172148047Y-107322380D02*
X172148047Y-106322380D01*
X171767095Y-106322380D01*
X171671857Y-106370000D01*
X171624238Y-106417619D01*
X171576619Y-106512857D01*
X171576619Y-106655714D01*
X171624238Y-106750952D01*
X171671857Y-106798571D01*
X171767095Y-106846190D01*
X172148047Y-106846190D01*
X171148047Y-107322380D02*
X171148047Y-106322380D01*
X170576619Y-107322380D01*
X170576619Y-106322380D01*
X169148047Y-106322380D02*
X168957571Y-106322380D01*
X168862333Y-106370000D01*
X168767095Y-106465238D01*
X168719476Y-106655714D01*
X168719476Y-106989047D01*
X168767095Y-107179523D01*
X168862333Y-107274761D01*
X168957571Y-107322380D01*
X169148047Y-107322380D01*
X169243285Y-107274761D01*
X169338523Y-107179523D01*
X169386142Y-106989047D01*
X169386142Y-106655714D01*
X169338523Y-106465238D01*
X169243285Y-106370000D01*
X169148047Y-106322380D01*
X168290904Y-107322380D02*
X168290904Y-106322380D01*
X168290904Y-106798571D02*
X167719476Y-106798571D01*
X167719476Y-107322380D02*
X167719476Y-106322380D01*
X166767095Y-107322380D02*
X167243285Y-107322380D01*
X167243285Y-106322380D01*
X165767095Y-106655714D02*
X165529000Y-107322380D01*
X165290904Y-106655714D01*
X164386142Y-107322380D02*
X164957571Y-107322380D01*
X164671857Y-107322380D02*
X164671857Y-106322380D01*
X164767095Y-106465238D01*
X164862333Y-106560476D01*
X164957571Y-106608095D01*
X163957571Y-107227142D02*
X163909952Y-107274761D01*
X163957571Y-107322380D01*
X164005190Y-107274761D01*
X163957571Y-107227142D01*
X163957571Y-107322380D01*
X163529000Y-106417619D02*
X163481380Y-106370000D01*
X163386142Y-106322380D01*
X163148047Y-106322380D01*
X163052809Y-106370000D01*
X163005190Y-106417619D01*
X162957571Y-106512857D01*
X162957571Y-106608095D01*
X163005190Y-106750952D01*
X163576619Y-107322380D01*
X162957571Y-107322380D01*
%TO.C,J1*%
X130579761Y-120426571D02*
X130436904Y-120474190D01*
X130389285Y-120521809D01*
X130341666Y-120617047D01*
X130341666Y-120759904D01*
X130389285Y-120855142D01*
X130436904Y-120902761D01*
X130532142Y-120950380D01*
X130913095Y-120950380D01*
X130913095Y-119950380D01*
X130579761Y-119950380D01*
X130484523Y-119998000D01*
X130436904Y-120045619D01*
X130389285Y-120140857D01*
X130389285Y-120236095D01*
X130436904Y-120331333D01*
X130484523Y-120378952D01*
X130579761Y-120426571D01*
X130913095Y-120426571D01*
X129389285Y-120950380D02*
X129960714Y-120950380D01*
X129675000Y-120950380D02*
X129675000Y-119950380D01*
X129770238Y-120093238D01*
X129865476Y-120188476D01*
X129960714Y-120236095D01*
X166615952Y-120426571D02*
X166473095Y-120474190D01*
X166425476Y-120521809D01*
X166377857Y-120617047D01*
X166377857Y-120759904D01*
X166425476Y-120855142D01*
X166473095Y-120902761D01*
X166568333Y-120950380D01*
X166949285Y-120950380D01*
X166949285Y-119950380D01*
X166615952Y-119950380D01*
X166520714Y-119998000D01*
X166473095Y-120045619D01*
X166425476Y-120140857D01*
X166425476Y-120236095D01*
X166473095Y-120331333D01*
X166520714Y-120378952D01*
X166615952Y-120426571D01*
X166949285Y-120426571D01*
X165425476Y-120950380D02*
X165996904Y-120950380D01*
X165711190Y-120950380D02*
X165711190Y-119950380D01*
X165806428Y-120093238D01*
X165901666Y-120188476D01*
X165996904Y-120236095D01*
X164520714Y-119950380D02*
X164996904Y-119950380D01*
X165044523Y-120426571D01*
X164996904Y-120378952D01*
X164901666Y-120331333D01*
X164663571Y-120331333D01*
X164568333Y-120378952D01*
X164520714Y-120426571D01*
X164473095Y-120521809D01*
X164473095Y-120759904D01*
X164520714Y-120855142D01*
X164568333Y-120902761D01*
X164663571Y-120950380D01*
X164901666Y-120950380D01*
X164996904Y-120902761D01*
X165044523Y-120855142D01*
%TD*%
M02*
