%TF.GenerationSoftware,KiCad,Pcbnew,(5.1.8)-1*%
%TF.CreationDate,2021-04-06T15:09:44+02:00*%
%TF.ProjectId,ZX Cartridge 1983,5a582043-6172-4747-9269-646765203139,rev?*%
%TF.SameCoordinates,Original*%
%TF.FileFunction,Soldermask,Bot*%
%TF.FilePolarity,Negative*%
%FSLAX46Y46*%
G04 Gerber Fmt 4.6, Leading zero omitted, Abs format (unit mm)*
G04 Created by KiCad (PCBNEW (5.1.8)-1) date 2021-04-06 15:09:44*
%MOMM*%
%LPD*%
G01*
G04 APERTURE LIST*
%ADD10C,1.600000*%
%ADD11R,1.600000X2.400000*%
%ADD12O,1.600000X2.400000*%
%ADD13C,5.100000*%
%ADD14R,1.500000X8.000000*%
%ADD15R,2.400000X1.600000*%
%ADD16O,2.400000X1.600000*%
%ADD17O,1.524000X2.524000*%
%ADD18R,1.524000X2.524000*%
%ADD19R,1.600000X1.600000*%
%ADD20O,1.600000X1.600000*%
%ADD21C,0.254000*%
%ADD22C,0.100000*%
G04 APERTURE END LIST*
D10*
%TO.C,C2*%
X147574000Y-88900000D03*
X147574000Y-93900000D03*
%TD*%
D11*
%TO.C,U2*%
X151384000Y-95250000D03*
D12*
X169164000Y-87630000D03*
X153924000Y-95250000D03*
X166624000Y-87630000D03*
X156464000Y-95250000D03*
X164084000Y-87630000D03*
X159004000Y-95250000D03*
X161544000Y-87630000D03*
X161544000Y-95250000D03*
X159004000Y-87630000D03*
X164084000Y-95250000D03*
X156464000Y-87630000D03*
X166624000Y-95250000D03*
X153924000Y-87630000D03*
X169164000Y-95250000D03*
X151384000Y-87630000D03*
%TD*%
D10*
%TO.C,C1*%
X147574000Y-69850000D03*
X147574000Y-74850000D03*
%TD*%
D13*
%TO.C,M1*%
X123444000Y-100330000D03*
%TD*%
%TO.C,M2*%
X175011000Y-100330000D03*
%TD*%
%TO.C,M3*%
X175011000Y-62230000D03*
%TD*%
%TO.C,M4*%
X123444000Y-62230000D03*
%TD*%
D14*
%TO.C,J1*%
X122555000Y-116078000D03*
X122555000Y-116078000D03*
X125095000Y-116078000D03*
X127635000Y-116078000D03*
X130175000Y-116078000D03*
X132715000Y-116078000D03*
X135255000Y-116078000D03*
X137795000Y-116078000D03*
X140335000Y-116078000D03*
X142875000Y-116078000D03*
X145415000Y-116078000D03*
X150495000Y-116078000D03*
X153035000Y-116078000D03*
X155575000Y-116078000D03*
X158115000Y-116078000D03*
X125095000Y-116078000D03*
X127635000Y-116078000D03*
X130175000Y-116078000D03*
X132715000Y-116078000D03*
X135255000Y-116078000D03*
X137795000Y-116078000D03*
X140335000Y-116078000D03*
X142875000Y-116078000D03*
X145415000Y-116078000D03*
X150495000Y-116078000D03*
X153035000Y-116078000D03*
X155575000Y-116078000D03*
X158115000Y-116078000D03*
%TD*%
D15*
%TO.C,U1*%
X128524000Y-67310000D03*
D16*
X143764000Y-105410000D03*
X128524000Y-69850000D03*
X143764000Y-102870000D03*
X128524000Y-72390000D03*
X143764000Y-100330000D03*
X128524000Y-74930000D03*
X143764000Y-97790000D03*
X128524000Y-77470000D03*
X143764000Y-95250000D03*
X128524000Y-80010000D03*
X143764000Y-92710000D03*
X128524000Y-82550000D03*
X143764000Y-90170000D03*
X128524000Y-85090000D03*
X143764000Y-87630000D03*
X128524000Y-87630000D03*
X143764000Y-85090000D03*
X128524000Y-90170000D03*
X143764000Y-82550000D03*
X128524000Y-92710000D03*
X143764000Y-80010000D03*
X128524000Y-95250000D03*
X143764000Y-77470000D03*
X128524000Y-97790000D03*
X143764000Y-74930000D03*
X128524000Y-100330000D03*
X143764000Y-72390000D03*
X128524000Y-102870000D03*
X143764000Y-69850000D03*
X128524000Y-105410000D03*
X143764000Y-67310000D03*
%TD*%
D17*
%TO.C,AFF1*%
X155194000Y-67310000D03*
X157734000Y-67310000D03*
X160274000Y-67310000D03*
X162814000Y-67310000D03*
X165354000Y-67310000D03*
X165354000Y-82550000D03*
X162814000Y-82550000D03*
X160274000Y-82550000D03*
X157734000Y-82550000D03*
D18*
X155194000Y-82550000D03*
%TD*%
D19*
%TO.C,D1*%
X157607000Y-105283000D03*
D20*
X149987000Y-105283000D03*
%TD*%
D10*
%TO.C,R1*%
X148971000Y-101727000D03*
D20*
X159131000Y-101727000D03*
%TD*%
D19*
%TO.C,SW1*%
X168529000Y-71755000D03*
D20*
X176149000Y-79375000D03*
X168529000Y-74295000D03*
X176149000Y-76835000D03*
X168529000Y-76835000D03*
X176149000Y-74295000D03*
X168529000Y-79375000D03*
X176149000Y-71755000D03*
%TD*%
D10*
%TO.C,R4*%
X172974000Y-95250000D03*
D20*
X172974000Y-87630000D03*
%TD*%
D10*
%TO.C,R2*%
X176149000Y-66675000D03*
D20*
X168529000Y-66675000D03*
%TD*%
%TO.C,R3*%
X168529000Y-83820000D03*
D10*
X176149000Y-83820000D03*
%TD*%
%TO.C,R5*%
X176149000Y-95250000D03*
D20*
X176149000Y-87630000D03*
%TD*%
D21*
X146558000Y-120396000D02*
X146538665Y-120493202D01*
X146501783Y-120548400D01*
X120850803Y-120548400D01*
X120720541Y-120478773D01*
X120566580Y-120352420D01*
X120440227Y-120198459D01*
X120370600Y-120068197D01*
X120370600Y-111887000D01*
X146558000Y-111887000D01*
X146558000Y-120396000D01*
D22*
G36*
X146558000Y-120396000D02*
G01*
X146538665Y-120493202D01*
X146501783Y-120548400D01*
X120850803Y-120548400D01*
X120720541Y-120478773D01*
X120566580Y-120352420D01*
X120440227Y-120198459D01*
X120370600Y-120068197D01*
X120370600Y-111887000D01*
X146558000Y-111887000D01*
X146558000Y-120396000D01*
G37*
D21*
X160401000Y-120396000D02*
X160381665Y-120493202D01*
X160344783Y-120548400D01*
X149408217Y-120548400D01*
X149371335Y-120493202D01*
X149352000Y-120396000D01*
X149352000Y-111887000D01*
X160401000Y-111887000D01*
X160401000Y-120396000D01*
D22*
G36*
X160401000Y-120396000D02*
G01*
X160381665Y-120493202D01*
X160344783Y-120548400D01*
X149408217Y-120548400D01*
X149371335Y-120493202D01*
X149352000Y-120396000D01*
X149352000Y-111887000D01*
X160401000Y-111887000D01*
X160401000Y-120396000D01*
G37*
M02*
