%TF.GenerationSoftware,KiCad,Pcbnew,(5.1.8)-1*%
%TF.CreationDate,2021-04-27T21:57:48+02:00*%
%TF.ProjectId,ZX Cartridge 1983,5a582043-6172-4747-9269-646765203139,rev?*%
%TF.SameCoordinates,Original*%
%TF.FileFunction,Soldermask,Top*%
%TF.FilePolarity,Negative*%
%FSLAX46Y46*%
G04 Gerber Fmt 4.6, Leading zero omitted, Abs format (unit mm)*
G04 Created by KiCad (PCBNEW (5.1.8)-1) date 2021-04-27 21:57:48*
%MOMM*%
%LPD*%
G01*
G04 APERTURE LIST*
%ADD10C,1.600000*%
%ADD11R,1.600000X2.400000*%
%ADD12O,1.600000X2.400000*%
%ADD13C,5.100000*%
%ADD14O,2.000000X1.500000*%
%ADD15R,2.000000X1.500000*%
%ADD16R,2.400000X1.600000*%
%ADD17O,2.400000X1.600000*%
%ADD18O,1.524000X2.524000*%
%ADD19R,1.524000X2.524000*%
%ADD20R,1.600000X1.600000*%
%ADD21O,1.600000X1.600000*%
%ADD22C,0.254000*%
%ADD23C,0.100000*%
G04 APERTURE END LIST*
D10*
%TO.C,C2*%
X147574000Y-88900000D03*
X147574000Y-93900000D03*
%TD*%
D11*
%TO.C,U2*%
X151384000Y-95250000D03*
D12*
X169164000Y-87630000D03*
X153924000Y-95250000D03*
X166624000Y-87630000D03*
X156464000Y-95250000D03*
X164084000Y-87630000D03*
X159004000Y-95250000D03*
X161544000Y-87630000D03*
X161544000Y-95250000D03*
X159004000Y-87630000D03*
X164084000Y-95250000D03*
X156464000Y-87630000D03*
X166624000Y-95250000D03*
X153924000Y-87630000D03*
X169164000Y-95250000D03*
X151384000Y-87630000D03*
%TD*%
D10*
%TO.C,C1*%
X147574000Y-69850000D03*
X147574000Y-74850000D03*
%TD*%
D13*
%TO.C,M1*%
X123444000Y-100330000D03*
%TD*%
%TO.C,M2*%
X175011000Y-100330000D03*
%TD*%
%TO.C,M3*%
X175011000Y-62230000D03*
%TD*%
%TO.C,M4*%
X123444000Y-62230000D03*
%TD*%
D14*
%TO.C,JP2*%
X151384000Y-70485000D03*
X151384000Y-72390000D03*
D15*
X151384000Y-74295000D03*
%TD*%
D16*
%TO.C,U1*%
X128524000Y-67310000D03*
D17*
X143764000Y-105410000D03*
X128524000Y-69850000D03*
X143764000Y-102870000D03*
X128524000Y-72390000D03*
X143764000Y-100330000D03*
X128524000Y-74930000D03*
X143764000Y-97790000D03*
X128524000Y-77470000D03*
X143764000Y-95250000D03*
X128524000Y-80010000D03*
X143764000Y-92710000D03*
X128524000Y-82550000D03*
X143764000Y-90170000D03*
X128524000Y-85090000D03*
X143764000Y-87630000D03*
X128524000Y-87630000D03*
X143764000Y-85090000D03*
X128524000Y-90170000D03*
X143764000Y-82550000D03*
X128524000Y-92710000D03*
X143764000Y-80010000D03*
X128524000Y-95250000D03*
X143764000Y-77470000D03*
X128524000Y-97790000D03*
X143764000Y-74930000D03*
X128524000Y-100330000D03*
X143764000Y-72390000D03*
X128524000Y-102870000D03*
X143764000Y-69850000D03*
X128524000Y-105410000D03*
X143764000Y-67310000D03*
%TD*%
D18*
%TO.C,AFF1*%
X155194000Y-67310000D03*
X157734000Y-67310000D03*
X160274000Y-67310000D03*
X162814000Y-67310000D03*
X165354000Y-67310000D03*
X165354000Y-82550000D03*
X162814000Y-82550000D03*
X160274000Y-82550000D03*
X157734000Y-82550000D03*
D19*
X155194000Y-82550000D03*
%TD*%
D20*
%TO.C,D1*%
X157734000Y-101600000D03*
D21*
X150114000Y-101600000D03*
%TD*%
D10*
%TO.C,R1*%
X170434000Y-101600000D03*
D21*
X160274000Y-101600000D03*
%TD*%
D20*
%TO.C,SW1*%
X168529000Y-71755000D03*
D21*
X176149000Y-79375000D03*
X168529000Y-74295000D03*
X176149000Y-76835000D03*
X168529000Y-76835000D03*
X176149000Y-74295000D03*
X168529000Y-79375000D03*
X176149000Y-71755000D03*
%TD*%
D10*
%TO.C,R4*%
X172974000Y-95250000D03*
D21*
X172974000Y-87630000D03*
%TD*%
D10*
%TO.C,R2*%
X176149000Y-66675000D03*
D21*
X168529000Y-66675000D03*
%TD*%
%TO.C,R3*%
X168529000Y-83820000D03*
D10*
X176149000Y-83820000D03*
%TD*%
%TO.C,R5*%
X176149000Y-95250000D03*
D21*
X176149000Y-87630000D03*
%TD*%
D22*
X154478000Y-120396000D02*
X154458665Y-120493202D01*
X154421783Y-120548400D01*
X128346537Y-120548400D01*
X128309655Y-120493202D01*
X128290320Y-120396000D01*
X128289000Y-111887000D01*
X154478000Y-111887000D01*
X154478000Y-120396000D01*
D23*
G36*
X154478000Y-120396000D02*
G01*
X154458665Y-120493202D01*
X154421783Y-120548400D01*
X128346537Y-120548400D01*
X128309655Y-120493202D01*
X128290320Y-120396000D01*
X128289000Y-111887000D01*
X154478000Y-111887000D01*
X154478000Y-120396000D01*
G37*
D22*
X167621000Y-120396000D02*
X167601665Y-120493202D01*
X167564783Y-120548400D01*
X156728217Y-120548400D01*
X156691335Y-120493202D01*
X156672000Y-120396000D01*
X156672000Y-111887000D01*
X167621000Y-111887000D01*
X167621000Y-120396000D01*
D23*
G36*
X167621000Y-120396000D02*
G01*
X167601665Y-120493202D01*
X167564783Y-120548400D01*
X156728217Y-120548400D01*
X156691335Y-120493202D01*
X156672000Y-120396000D01*
X156672000Y-111887000D01*
X167621000Y-111887000D01*
X167621000Y-120396000D01*
G37*
M02*
