%TF.GenerationSoftware,KiCad,Pcbnew,(5.1.8)-1*%
%TF.CreationDate,2021-08-26T19:44:27+02:00*%
%TF.ProjectId,ZX Cartridge 1983,5a582043-6172-4747-9269-646765203139,rev?*%
%TF.SameCoordinates,Original*%
%TF.FileFunction,Copper,L1,Top*%
%TF.FilePolarity,Positive*%
%FSLAX46Y46*%
G04 Gerber Fmt 4.6, Leading zero omitted, Abs format (unit mm)*
G04 Created by KiCad (PCBNEW (5.1.8)-1) date 2021-08-26 19:44:27*
%MOMM*%
%LPD*%
G01*
G04 APERTURE LIST*
%TA.AperFunction,ComponentPad*%
%ADD10R,2.400000X1.600000*%
%TD*%
%TA.AperFunction,ComponentPad*%
%ADD11O,2.400000X1.600000*%
%TD*%
%TA.AperFunction,ComponentPad*%
%ADD12C,1.600000*%
%TD*%
%TA.AperFunction,ComponentPad*%
%ADD13R,1.600000X2.400000*%
%TD*%
%TA.AperFunction,ComponentPad*%
%ADD14O,1.600000X2.400000*%
%TD*%
%TA.AperFunction,ComponentPad*%
%ADD15C,3.500000*%
%TD*%
%TA.AperFunction,SMDPad,CuDef*%
%ADD16O,2.000000X1.500000*%
%TD*%
%TA.AperFunction,SMDPad,CuDef*%
%ADD17R,2.000000X1.500000*%
%TD*%
%TA.AperFunction,ConnectorPad*%
%ADD18R,1.500000X8.000000*%
%TD*%
%TA.AperFunction,ComponentPad*%
%ADD19O,1.524000X2.524000*%
%TD*%
%TA.AperFunction,ComponentPad*%
%ADD20R,1.524000X2.524000*%
%TD*%
%TA.AperFunction,ComponentPad*%
%ADD21R,1.600000X1.600000*%
%TD*%
%TA.AperFunction,ComponentPad*%
%ADD22O,1.600000X1.600000*%
%TD*%
%TA.AperFunction,ViaPad*%
%ADD23C,0.600000*%
%TD*%
%TA.AperFunction,Conductor*%
%ADD24C,0.250000*%
%TD*%
%TA.AperFunction,Conductor*%
%ADD25C,0.381000*%
%TD*%
G04 APERTURE END LIST*
D10*
%TO.P,U1,1*%
%TO.N,VCC*%
X128524000Y-67310000D03*
D11*
%TO.P,U1,17*%
%TO.N,/D3*%
X143764000Y-105410000D03*
%TO.P,U1,2*%
%TO.N,/BA16*%
X128524000Y-69850000D03*
%TO.P,U1,18*%
%TO.N,/D4*%
X143764000Y-102870000D03*
D10*
%TO.P,U1,3*%
%TO.N,/BA15*%
X128524000Y-72390000D03*
D11*
%TO.P,U1,19*%
%TO.N,/D5*%
X143764000Y-100330000D03*
%TO.P,U1,4*%
%TO.N,/A12*%
X128524000Y-74930000D03*
%TO.P,U1,20*%
%TO.N,/D6*%
X143764000Y-97790000D03*
%TO.P,U1,5*%
%TO.N,/A7*%
X128524000Y-77470000D03*
%TO.P,U1,21*%
%TO.N,/D7*%
X143764000Y-95250000D03*
%TO.P,U1,6*%
%TO.N,/A6*%
X128524000Y-80010000D03*
%TO.P,U1,22*%
%TO.N,/~MREQ*%
X143764000Y-92710000D03*
%TO.P,U1,7*%
%TO.N,/A5*%
X128524000Y-82550000D03*
%TO.P,U1,23*%
%TO.N,/A10*%
X143764000Y-90170000D03*
%TO.P,U1,8*%
%TO.N,/A4*%
X128524000Y-85090000D03*
%TO.P,U1,24*%
%TO.N,/~ROM_OE*%
X143764000Y-87630000D03*
%TO.P,U1,9*%
%TO.N,/A3*%
X128524000Y-87630000D03*
%TO.P,U1,25*%
%TO.N,/A11*%
X143764000Y-85090000D03*
%TO.P,U1,10*%
%TO.N,/A2*%
X128524000Y-90170000D03*
%TO.P,U1,26*%
%TO.N,/A9*%
X143764000Y-82550000D03*
%TO.P,U1,11*%
%TO.N,/A1*%
X128524000Y-92710000D03*
%TO.P,U1,27*%
%TO.N,/A8*%
X143764000Y-80010000D03*
%TO.P,U1,12*%
%TO.N,/A0*%
X128524000Y-95250000D03*
%TO.P,U1,28*%
%TO.N,/A13*%
X143764000Y-77470000D03*
%TO.P,U1,13*%
%TO.N,/D0*%
X128524000Y-97790000D03*
%TO.P,U1,29*%
%TO.N,/BA14*%
X143764000Y-74930000D03*
%TO.P,U1,14*%
%TO.N,/D1*%
X128524000Y-100330000D03*
%TO.P,U1,30*%
%TO.N,/BA17*%
X143764000Y-72390000D03*
%TO.P,U1,15*%
%TO.N,/D2*%
X128524000Y-102870000D03*
%TO.P,U1,31*%
%TO.N,VCC*%
X143764000Y-69850000D03*
%TO.P,U1,16*%
%TO.N,GND*%
X128524000Y-105410000D03*
%TO.P,U1,32*%
%TO.N,VCC*%
X143764000Y-67310000D03*
%TD*%
D12*
%TO.P,C2,1*%
%TO.N,VCC*%
X147574000Y-88900000D03*
%TO.P,C2,2*%
%TO.N,GND*%
X147574000Y-93900000D03*
%TD*%
D13*
%TO.P,U2,1*%
%TO.N,Net-(AFF1-Pad1)*%
X151384000Y-95250000D03*
D14*
%TO.P,U2,9*%
%TO.N,/BA16*%
X169164000Y-87630000D03*
%TO.P,U2,2*%
%TO.N,Net-(AFF1-Pad9)*%
X153924000Y-95250000D03*
%TO.P,U2,10*%
%TO.N,Net-(JP2-Pad1)*%
X166624000Y-87630000D03*
%TO.P,U2,3*%
%TO.N,Net-(AFF1-Pad10)*%
X156464000Y-95250000D03*
%TO.P,U2,11*%
%TO.N,N/C*%
X164084000Y-87630000D03*
%TO.P,U2,4*%
X159004000Y-95250000D03*
%TO.P,U2,12*%
%TO.N,Net-(AFF1-Pad7)*%
X161544000Y-87630000D03*
%TO.P,U2,5*%
%TO.N,/BA14*%
X161544000Y-95250000D03*
%TO.P,U2,13*%
%TO.N,Net-(AFF1-Pad6)*%
X159004000Y-87630000D03*
%TO.P,U2,6*%
%TO.N,/BA15*%
X164084000Y-95250000D03*
%TO.P,U2,14*%
%TO.N,Net-(AFF1-Pad4)*%
X156464000Y-87630000D03*
%TO.P,U2,7*%
%TO.N,/~MREQ*%
X166624000Y-95250000D03*
%TO.P,U2,15*%
%TO.N,Net-(AFF1-Pad2)*%
X153924000Y-87630000D03*
%TO.P,U2,8*%
%TO.N,GND*%
X169164000Y-95250000D03*
%TO.P,U2,16*%
%TO.N,VCC*%
X151384000Y-87630000D03*
%TD*%
D12*
%TO.P,C1,1*%
%TO.N,VCC*%
X147574000Y-69850000D03*
%TO.P,C1,2*%
%TO.N,GND*%
X147574000Y-74850000D03*
%TD*%
D15*
%TO.P,M1,1*%
%TO.N,N/C*%
X123444000Y-100330000D03*
%TD*%
%TO.P,M2,1*%
%TO.N,N/C*%
X175011000Y-100330000D03*
%TD*%
%TO.P,M3,1*%
%TO.N,N/C*%
X175011000Y-62230000D03*
%TD*%
%TO.P,M4,1*%
%TO.N,N/C*%
X123444000Y-62230000D03*
%TD*%
D16*
%TO.P,JP2,3*%
%TO.N,VCC*%
X151384000Y-70485000D03*
%TO.P,JP2,2*%
%TO.N,/BA17*%
X151384000Y-72390000D03*
D17*
%TO.P,JP2,1*%
%TO.N,Net-(JP2-Pad1)*%
X151384000Y-74295000D03*
%TD*%
D18*
%TO.P,J1,A1*%
%TO.N,/D3*%
X130175000Y-125578000D03*
%TO.P,J1,A2*%
%TO.N,/D4*%
X132715000Y-125578000D03*
%TO.P,J1,A3*%
%TO.N,/D5*%
X135255000Y-125578000D03*
%TO.P,J1,A4*%
%TO.N,/D6*%
X137795000Y-125578000D03*
%TO.P,J1,A5*%
%TO.N,/D7*%
X140335000Y-125578000D03*
%TO.P,J1,A6*%
%TO.N,/A14*%
X142875000Y-125578000D03*
%TO.P,J1,A7*%
%TO.N,/A10*%
X145415000Y-125578000D03*
%TO.P,J1,A8*%
%TO.N,/~MREQ*%
X147955000Y-125578000D03*
%TO.P,J1,A9*%
%TO.N,/A11*%
X150495000Y-125578000D03*
%TO.P,J1,A10*%
%TO.N,/A9*%
X153035000Y-125578000D03*
%TO.P,J1,A12*%
%TO.N,/A8*%
X158115000Y-125578000D03*
%TO.P,J1,A13*%
%TO.N,/A13*%
X160655000Y-125578000D03*
%TO.P,J1,A14*%
%TO.N,/A15*%
X163195000Y-125578000D03*
%TO.P,J1,A15*%
%TO.N,VCC*%
X165735000Y-125578000D03*
%TD*%
D19*
%TO.P,AFF1,10*%
%TO.N,Net-(AFF1-Pad10)*%
X155194000Y-67310000D03*
%TO.P,AFF1,9*%
%TO.N,Net-(AFF1-Pad9)*%
X157734000Y-67310000D03*
%TO.P,AFF1,8*%
%TO.N,GND*%
X160274000Y-67310000D03*
%TO.P,AFF1,7*%
%TO.N,Net-(AFF1-Pad7)*%
X162814000Y-67310000D03*
%TO.P,AFF1,6*%
%TO.N,Net-(AFF1-Pad6)*%
X165354000Y-67310000D03*
%TO.P,AFF1,5*%
%TO.N,N/C*%
X165354000Y-82550000D03*
%TO.P,AFF1,4*%
%TO.N,Net-(AFF1-Pad4)*%
X162814000Y-82550000D03*
%TO.P,AFF1,3*%
%TO.N,GND*%
X160274000Y-82550000D03*
%TO.P,AFF1,2*%
%TO.N,Net-(AFF1-Pad2)*%
X157734000Y-82550000D03*
D20*
%TO.P,AFF1,1*%
%TO.N,Net-(AFF1-Pad1)*%
X155194000Y-82550000D03*
%TD*%
D21*
%TO.P,D1,1*%
%TO.N,/~ROM_OE*%
X157734000Y-101600000D03*
D22*
%TO.P,D1,2*%
%TO.N,/A14*%
X150114000Y-101600000D03*
%TD*%
D12*
%TO.P,R1,1*%
%TO.N,/A15*%
X170434000Y-101600000D03*
D22*
%TO.P,R1,2*%
%TO.N,/~ROM_OE*%
X160274000Y-101600000D03*
%TD*%
D21*
%TO.P,SW1,1*%
%TO.N,GND*%
X168529000Y-71755000D03*
D22*
%TO.P,SW1,5*%
%TO.N,Net-(JP2-Pad1)*%
X176149000Y-79375000D03*
%TO.P,SW1,2*%
%TO.N,GND*%
X168529000Y-74295000D03*
%TO.P,SW1,6*%
%TO.N,/BA16*%
X176149000Y-76835000D03*
%TO.P,SW1,3*%
%TO.N,GND*%
X168529000Y-76835000D03*
%TO.P,SW1,7*%
%TO.N,/BA15*%
X176149000Y-74295000D03*
%TO.P,SW1,4*%
%TO.N,GND*%
X168529000Y-79375000D03*
%TO.P,SW1,8*%
%TO.N,/BA14*%
X176149000Y-71755000D03*
%TD*%
D12*
%TO.P,R4,1*%
%TO.N,VCC*%
X172974000Y-95250000D03*
D22*
%TO.P,R4,2*%
%TO.N,/BA16*%
X172974000Y-87630000D03*
%TD*%
D12*
%TO.P,R2,1*%
%TO.N,VCC*%
X176149000Y-66675000D03*
D22*
%TO.P,R2,2*%
%TO.N,/BA14*%
X168529000Y-66675000D03*
%TD*%
%TO.P,R3,2*%
%TO.N,/BA15*%
X168529000Y-83820000D03*
D12*
%TO.P,R3,1*%
%TO.N,VCC*%
X176149000Y-83820000D03*
%TD*%
%TO.P,R5,1*%
%TO.N,VCC*%
X176149000Y-95250000D03*
D22*
%TO.P,R5,2*%
%TO.N,Net-(JP2-Pad1)*%
X176149000Y-87630000D03*
%TD*%
D23*
%TO.N,/A10*%
X136144000Y-90805000D03*
X145415000Y-115951000D03*
%TO.N,/A11*%
X137414000Y-85725000D03*
X147447022Y-115951000D03*
%TO.N,/A9*%
X138049000Y-83185000D03*
X148463008Y-115951000D03*
%TO.N,/A8*%
X140589000Y-80645000D03*
X153924000Y-107315000D03*
%TO.N,GND*%
X127889000Y-109220000D03*
%TO.N,VCC*%
X165735000Y-108839000D03*
%TO.N,/A13*%
X141224000Y-78105000D03*
X141224000Y-93345000D03*
%TO.N,/~MREQ*%
X136779000Y-93344992D03*
X146431000Y-115950986D03*
%TO.N,Net-(AFF1-Pad10)*%
X152654000Y-82550000D03*
%TO.N,Net-(AFF1-Pad9)*%
X153289000Y-83185000D03*
%TO.N,Net-(AFF1-Pad7)*%
X161544000Y-80010000D03*
%TO.N,Net-(AFF1-Pad6)*%
X156464000Y-80010000D03*
%TO.N,Net-(AFF1-Pad1)*%
X152001244Y-89517244D03*
%TO.N,/~ROM_OE*%
X145669000Y-93345000D03*
%TO.N,Net-(JP2-Pad1)*%
X174244000Y-73660000D03*
X174244000Y-79375000D03*
X155194000Y-74295000D03*
X162179000Y-74295000D03*
X174244000Y-85725000D03*
%TO.N,/BA14*%
X155829000Y-76200000D03*
%TO.N,/BA15*%
X152529558Y-80645000D03*
X154559000Y-80645000D03*
%TD*%
D24*
%TO.N,/A10*%
X136144000Y-90805000D02*
X136779000Y-90170000D01*
X136779000Y-90170000D02*
X143764000Y-90170000D01*
X145415000Y-116078000D02*
X145415000Y-125578000D01*
X145415000Y-116078000D02*
X145415000Y-115951000D01*
%TO.N,/A11*%
X143764000Y-85090000D02*
X138049000Y-85090000D01*
X138049000Y-85090000D02*
X137414000Y-85725000D01*
X150495000Y-125578000D02*
X150495000Y-118998978D01*
X150495000Y-118998978D02*
X147447022Y-115951000D01*
%TO.N,/A9*%
X138049000Y-83185000D02*
X138684000Y-82550000D01*
X138684000Y-82550000D02*
X143764000Y-82550000D01*
X153035000Y-125578000D02*
X153035000Y-120522992D01*
X153035000Y-120522992D02*
X148463008Y-115951000D01*
%TO.N,/A8*%
X141224000Y-80010000D02*
X140589000Y-80645000D01*
X143764000Y-80010000D02*
X141224000Y-80010000D01*
X158115000Y-116078000D02*
X158115000Y-110871000D01*
X153924000Y-107315000D02*
X154559000Y-107315000D01*
X158115000Y-110871000D02*
X154559000Y-107315000D01*
X158115000Y-116078000D02*
X158115000Y-125578000D01*
D25*
%TO.N,VCC*%
X128524000Y-67310000D02*
X143764000Y-67310000D01*
X143764000Y-69850000D02*
X143764000Y-67310000D01*
X143764000Y-69850000D02*
X147574000Y-69850000D01*
X149479000Y-70485000D02*
X148844000Y-69850000D01*
X151384000Y-70485000D02*
X149479000Y-70485000D01*
X147574000Y-69850000D02*
X148844000Y-69850000D01*
X172974000Y-95250000D02*
X176149000Y-95250000D01*
X177777790Y-94256210D02*
X177777790Y-84813790D01*
X176784000Y-95250000D02*
X177777790Y-94256210D01*
X176149000Y-95250000D02*
X176784000Y-95250000D01*
X151384000Y-64135000D02*
X151384000Y-70485000D01*
X152654000Y-62865000D02*
X151384000Y-64135000D01*
X170434000Y-62865000D02*
X152654000Y-62865000D01*
X174244000Y-66675000D02*
X170434000Y-62865000D01*
X176149000Y-66675000D02*
X174244000Y-66675000D01*
X177777790Y-68303790D02*
X176149000Y-66675000D01*
X177777790Y-82826210D02*
X177777790Y-68303790D01*
X177777790Y-82826210D02*
X177777790Y-83543790D01*
X177755580Y-83820000D02*
X177777790Y-83797790D01*
X176784000Y-83820000D02*
X177755580Y-83820000D01*
X177777790Y-83797790D02*
X177777790Y-84813790D01*
X177777790Y-83543790D02*
X177777790Y-83797790D01*
X171831000Y-106299000D02*
X171831000Y-96393000D01*
X171831000Y-96393000D02*
X172974000Y-95250000D01*
X170307000Y-107823000D02*
X171831000Y-106299000D01*
X172974000Y-92710000D02*
X172974000Y-95250000D01*
X151384000Y-92075000D02*
X172339000Y-92075000D01*
X172339000Y-92075000D02*
X172974000Y-92710000D01*
X151384000Y-92075000D02*
X148209000Y-92075000D01*
X147574000Y-91440000D02*
X147574000Y-88900000D01*
X148209000Y-92075000D02*
X147574000Y-91440000D01*
X165735000Y-116078000D02*
X165735000Y-108839000D01*
X166751000Y-107823000D02*
X170307000Y-107823000D01*
X165735000Y-108839000D02*
X166751000Y-107823000D01*
X165735000Y-116078000D02*
X165735000Y-125578000D01*
D24*
%TO.N,/D7*%
X144399000Y-95250000D02*
X143764000Y-95250000D01*
X147574000Y-98425000D02*
X144399000Y-95250000D01*
X147574000Y-106680000D02*
X147574000Y-98425000D01*
X146177000Y-108077000D02*
X147574000Y-106680000D01*
X142875000Y-108077000D02*
X146177000Y-108077000D01*
X140335000Y-110617000D02*
X142875000Y-108077000D01*
X140335000Y-116078000D02*
X140335000Y-110617000D01*
X140335000Y-116078000D02*
X140335000Y-125578000D01*
%TO.N,/D6*%
X145034000Y-97790000D02*
X143764000Y-97790000D01*
X146939000Y-99695000D02*
X145034000Y-97790000D01*
X146939000Y-106299000D02*
X146939000Y-99695000D01*
X145669000Y-107569000D02*
X146939000Y-106299000D01*
X142367000Y-107569000D02*
X145669000Y-107569000D01*
X137795000Y-112141000D02*
X142367000Y-107569000D01*
X137795000Y-125578000D02*
X137795000Y-112141000D01*
%TO.N,/D5*%
X146304000Y-105918000D02*
X145161000Y-107061000D01*
X146304000Y-100965000D02*
X146304000Y-105918000D01*
X145669000Y-100330000D02*
X146304000Y-100965000D01*
X143764000Y-100330000D02*
X145669000Y-100330000D01*
X135255000Y-111887000D02*
X140081000Y-107061000D01*
X135255000Y-116078000D02*
X135255000Y-111887000D01*
X145161000Y-107061000D02*
X140081000Y-107061000D01*
X135255000Y-116078000D02*
X135255000Y-125578000D01*
%TO.N,/D4*%
X141859000Y-102870000D02*
X143764000Y-102870000D01*
X132715000Y-112014000D02*
X141859000Y-102870000D01*
X132715000Y-125578000D02*
X132715000Y-112014000D01*
%TO.N,/D3*%
X145034000Y-105410000D02*
X143764000Y-105410000D01*
X145669000Y-102235000D02*
X145669000Y-104775000D01*
X145034000Y-101600000D02*
X145669000Y-102235000D01*
X145669000Y-104775000D02*
X145034000Y-105410000D01*
X130175000Y-112014000D02*
X140589000Y-101600000D01*
X130175000Y-116078000D02*
X130175000Y-112014000D01*
X140589000Y-101600000D02*
X145034000Y-101600000D01*
X130175000Y-116078000D02*
X130175000Y-125578000D01*
%TO.N,/A13*%
X141224000Y-78105000D02*
X141859000Y-77470000D01*
X141859000Y-77470000D02*
X143764000Y-77470000D01*
X160655000Y-116078000D02*
X160655000Y-112035632D01*
X154611684Y-105992316D02*
X154549002Y-105929634D01*
X160655000Y-112035632D02*
X154611684Y-105992316D01*
X141224000Y-93345000D02*
X141859000Y-93980000D01*
X152019000Y-100966410D02*
X152019000Y-103399632D01*
X141859000Y-93980000D02*
X145032589Y-93980000D01*
X145032589Y-93980000D02*
X152019000Y-100966410D01*
X152019000Y-103399632D02*
X154611684Y-105992316D01*
X160655000Y-116078000D02*
X160655000Y-125578000D01*
%TO.N,/~MREQ*%
X143764000Y-92710000D02*
X137413992Y-92710000D01*
X137413992Y-92710000D02*
X136779000Y-93344992D01*
X166624000Y-95250000D02*
X166624000Y-93980000D01*
X143764000Y-92710000D02*
X165989000Y-92710000D01*
X166624000Y-93345000D02*
X166624000Y-93980000D01*
X165989000Y-92710000D02*
X166624000Y-93345000D01*
X147955000Y-117474986D02*
X147955000Y-125578000D01*
X146431000Y-115950986D02*
X147955000Y-117474986D01*
%TO.N,/BA17*%
X143764000Y-72390000D02*
X151384000Y-72390000D01*
%TO.N,Net-(AFF1-Pad10)*%
X156464000Y-68580000D02*
X155194000Y-67310000D01*
X153279001Y-81924999D02*
X153279001Y-80019999D01*
X156464000Y-76835000D02*
X156464000Y-68580000D01*
X152654000Y-82550000D02*
X153279001Y-81924999D01*
X153279001Y-80019999D02*
X156464000Y-76835000D01*
%TO.N,Net-(AFF1-Pad9)*%
X157734000Y-67310000D02*
X157734000Y-76201410D01*
X153729012Y-80206398D02*
X153729012Y-82744988D01*
X157734000Y-76201410D02*
X153729012Y-80206398D01*
X153729012Y-82744988D02*
X153289000Y-83185000D01*
%TO.N,Net-(AFF1-Pad7)*%
X162814000Y-67310000D02*
X161802000Y-67310000D01*
X161802000Y-67310000D02*
X161544000Y-67568000D01*
X161544000Y-67568000D02*
X161544000Y-80010000D01*
%TO.N,Net-(AFF1-Pad6)*%
X159639000Y-65405000D02*
X159004000Y-66040000D01*
X165354000Y-67310000D02*
X163449000Y-65405000D01*
X163449000Y-65405000D02*
X159639000Y-65405000D01*
X159004000Y-66040000D02*
X159004000Y-77470000D01*
X159004000Y-77470000D02*
X156464000Y-80010000D01*
%TO.N,Net-(AFF1-Pad4)*%
X162814000Y-83820000D02*
X162814000Y-82550000D01*
X162179000Y-84455000D02*
X162814000Y-83820000D01*
X158369000Y-84455000D02*
X162179000Y-84455000D01*
X156464000Y-86360000D02*
X158369000Y-84455000D01*
X156464000Y-87630000D02*
X156464000Y-86360000D01*
%TO.N,Net-(AFF1-Pad2)*%
X157734000Y-83820000D02*
X157734000Y-82550000D01*
X156464000Y-85090000D02*
X157734000Y-83820000D01*
X154559000Y-85090000D02*
X156464000Y-85090000D01*
X153924000Y-85725000D02*
X154559000Y-85090000D01*
X153924000Y-87630000D02*
X153924000Y-85725000D01*
%TO.N,Net-(AFF1-Pad1)*%
X155194000Y-82550000D02*
X152654000Y-85090000D01*
X152654000Y-85090000D02*
X152654000Y-88864488D01*
X152654000Y-88864488D02*
X152001244Y-89517244D01*
%TO.N,/~ROM_OE*%
X157734000Y-101600000D02*
X160274000Y-101600000D01*
X145669000Y-93345000D02*
X145669000Y-93980000D01*
X153289000Y-101600000D02*
X157734000Y-101600000D01*
X145669000Y-93980000D02*
X153289000Y-101600000D01*
%TO.N,/A14*%
X148218998Y-102225002D02*
X148844000Y-101600000D01*
X148218998Y-106980002D02*
X148218998Y-102225002D01*
X146614000Y-108585000D02*
X148218998Y-106980002D01*
X143383000Y-108585000D02*
X146614000Y-108585000D01*
X142875000Y-109093000D02*
X143383000Y-108585000D01*
X148844000Y-101600000D02*
X150114000Y-101600000D01*
X142875000Y-125578000D02*
X142875000Y-109093000D01*
%TO.N,/A15*%
X163195000Y-116078000D02*
X163195000Y-107569000D01*
X163195000Y-107569000D02*
X164084000Y-106680000D01*
X164084000Y-106680000D02*
X169799000Y-106680000D01*
X170434000Y-106045000D02*
X170434000Y-101600000D01*
X169799000Y-106680000D02*
X170434000Y-106045000D01*
X163195000Y-116078000D02*
X163195000Y-125578000D01*
%TO.N,Net-(JP2-Pad1)*%
X174879000Y-79375000D02*
X176149000Y-79375000D01*
X174879000Y-87630000D02*
X174244000Y-86995000D01*
X176149000Y-87630000D02*
X174879000Y-87630000D01*
X174244000Y-79375000D02*
X174244000Y-80010000D01*
X174244000Y-79375000D02*
X174879000Y-79375000D01*
X151384000Y-74295000D02*
X155194000Y-74295000D01*
X174244000Y-73660000D02*
X173609000Y-73025000D01*
X173609000Y-73025000D02*
X163449000Y-73025000D01*
X163449000Y-73025000D02*
X162179000Y-74295000D01*
X174244000Y-85725000D02*
X174244000Y-80010000D01*
X174244000Y-86995000D02*
X174244000Y-85725000D01*
%TO.N,/BA14*%
X155829000Y-70485000D02*
X155829000Y-74930000D01*
X153289000Y-67945000D02*
X155829000Y-70485000D01*
X153289000Y-65405000D02*
X153289000Y-67945000D01*
X153924000Y-64770000D02*
X153289000Y-65405000D01*
X167894000Y-64770000D02*
X153924000Y-64770000D01*
X168529000Y-65405000D02*
X167894000Y-64770000D01*
X168529000Y-66675000D02*
X168529000Y-65405000D01*
X145669000Y-74930000D02*
X146939000Y-76200000D01*
X143764000Y-74930000D02*
X145669000Y-74930000D01*
X154559000Y-76200000D02*
X146939000Y-76200000D01*
X155829000Y-74930000D02*
X155829000Y-76200000D01*
X154559000Y-76200000D02*
X155829000Y-76200000D01*
X168529000Y-68580000D02*
X171704000Y-71755000D01*
X171704000Y-71755000D02*
X176149000Y-71755000D01*
X168529000Y-66675000D02*
X168529000Y-68580000D01*
%TO.N,/BA15*%
X172339000Y-74930000D02*
X172974000Y-74295000D01*
X172974000Y-74295000D02*
X176149000Y-74295000D01*
X172339000Y-83185000D02*
X172339000Y-74930000D01*
X171704000Y-83820000D02*
X172339000Y-83185000D01*
X168529000Y-83820000D02*
X171704000Y-83820000D01*
X168529000Y-82550000D02*
X166624000Y-80645000D01*
X166624000Y-80645000D02*
X154559000Y-80645000D01*
X168529000Y-83820000D02*
X168529000Y-82550000D01*
X150854368Y-80645000D02*
X152529558Y-80645000D01*
X148949368Y-78740000D02*
X150854368Y-80645000D01*
X138049000Y-78740000D02*
X148949368Y-78740000D01*
X131699000Y-72390000D02*
X138049000Y-78740000D01*
X128524000Y-72390000D02*
X131699000Y-72390000D01*
%TO.N,/BA16*%
X172974000Y-87630000D02*
X172974000Y-77470000D01*
X173609000Y-76835000D02*
X176149000Y-76835000D01*
X172974000Y-77470000D02*
X173609000Y-76835000D01*
X169164000Y-87630000D02*
X172974000Y-87630000D01*
X127254000Y-69850000D02*
X128524000Y-69850000D01*
X126619000Y-70485000D02*
X127254000Y-69850000D01*
X126619000Y-85725000D02*
X126619000Y-70485000D01*
X127254000Y-86360000D02*
X126619000Y-85725000D01*
X149479000Y-86995000D02*
X148844000Y-86360000D01*
X150703498Y-90759498D02*
X149479000Y-89535000D01*
X149479000Y-89535000D02*
X149479000Y-86995000D01*
X168574502Y-90759498D02*
X150703498Y-90759498D01*
X169164000Y-90170000D02*
X168574502Y-90759498D01*
X148844000Y-86360000D02*
X127254000Y-86360000D01*
X169164000Y-87630000D02*
X169164000Y-90170000D01*
%TD*%
M02*
