%TF.GenerationSoftware,KiCad,Pcbnew,(5.1.8)-1*%
%TF.CreationDate,2021-04-02T20:31:53+02:00*%
%TF.ProjectId,ZX Interface 2021 FA1,5a582049-6e74-4657-9266-616365203230,rev?*%
%TF.SameCoordinates,Original*%
%TF.FileFunction,Copper,L2,Bot*%
%TF.FilePolarity,Positive*%
%FSLAX46Y46*%
G04 Gerber Fmt 4.6, Leading zero omitted, Abs format (unit mm)*
G04 Created by KiCad (PCBNEW (5.1.8)-1) date 2021-04-02 20:31:53*
%MOMM*%
%LPD*%
G01*
G04 APERTURE LIST*
%TA.AperFunction,ComponentPad*%
%ADD10C,3.500000*%
%TD*%
%TA.AperFunction,Conductor*%
%ADD11C,0.254000*%
%TD*%
%TA.AperFunction,Conductor*%
%ADD12C,0.100000*%
%TD*%
G04 APERTURE END LIST*
D10*
%TO.P,M1,1*%
%TO.N,Net-(M1-Pad1)*%
X105410000Y-134620000D03*
%TD*%
%TO.P,M2,1*%
%TO.N,Net-(M1-Pad1)*%
X186690000Y-134620000D03*
%TD*%
%TO.P,M3,1*%
%TO.N,Net-(M1-Pad1)*%
X186690000Y-49530000D03*
%TD*%
%TO.P,M5,1*%
%TO.N,Net-(M1-Pad1)*%
X180975000Y-95250000D03*
%TD*%
%TO.P,M6,1*%
%TO.N,Net-(M1-Pad1)*%
X111125000Y-95250000D03*
%TD*%
%TO.P,M4,1*%
%TO.N,Net-(M1-Pad1)*%
X105410000Y-49530000D03*
%TD*%
D11*
%TO.N,Net-(M1-Pad1)*%
X187177884Y-47066002D02*
X187647188Y-47207694D01*
X188080025Y-47437837D01*
X188459927Y-47747678D01*
X188772403Y-48125397D01*
X189005569Y-48556627D01*
X189150532Y-49024928D01*
X189205001Y-49543163D01*
X189205000Y-58924897D01*
X189202227Y-58932686D01*
X189197230Y-58944468D01*
X189194112Y-58953140D01*
X188658857Y-60474761D01*
X188650980Y-60501219D01*
X188642714Y-60527627D01*
X188640457Y-60536562D01*
X188256241Y-62103154D01*
X188250976Y-62130288D01*
X188245334Y-62157344D01*
X188243959Y-62166456D01*
X188014450Y-63763064D01*
X188011859Y-63790577D01*
X188008883Y-63818058D01*
X188008404Y-63827261D01*
X187935791Y-65438645D01*
X187935897Y-65466255D01*
X187935617Y-65493921D01*
X187936039Y-65503127D01*
X188021017Y-67113906D01*
X188023815Y-67141357D01*
X188026237Y-67168934D01*
X188027555Y-67178054D01*
X188269311Y-68772855D01*
X188274782Y-68799941D01*
X188279877Y-68827111D01*
X188282078Y-68836060D01*
X188678306Y-70399657D01*
X188686388Y-70426058D01*
X188694116Y-70452624D01*
X188697180Y-70461314D01*
X189205001Y-71870308D01*
X189205000Y-138397725D01*
X189204335Y-138404513D01*
X189199699Y-138405000D01*
X102902275Y-138405000D01*
X102895487Y-138404335D01*
X102895000Y-138399699D01*
X102895000Y-136289609D01*
X103919997Y-136289609D01*
X104106073Y-136630766D01*
X104523409Y-136846513D01*
X104974815Y-136976696D01*
X105442946Y-137016313D01*
X105909811Y-136963842D01*
X106357468Y-136821297D01*
X106713927Y-136630766D01*
X106900003Y-136289609D01*
X185199997Y-136289609D01*
X185386073Y-136630766D01*
X185803409Y-136846513D01*
X186254815Y-136976696D01*
X186722946Y-137016313D01*
X187189811Y-136963842D01*
X187637468Y-136821297D01*
X187993927Y-136630766D01*
X188180003Y-136289609D01*
X186690000Y-134799605D01*
X185199997Y-136289609D01*
X106900003Y-136289609D01*
X105410000Y-134799605D01*
X103919997Y-136289609D01*
X102895000Y-136289609D01*
X102895000Y-134652946D01*
X103013687Y-134652946D01*
X103066158Y-135119811D01*
X103208703Y-135567468D01*
X103399234Y-135923927D01*
X103740391Y-136110003D01*
X105230395Y-134620000D01*
X105589605Y-134620000D01*
X107079609Y-136110003D01*
X107420766Y-135923927D01*
X107636513Y-135506591D01*
X107766696Y-135055185D01*
X107800736Y-134652946D01*
X184293687Y-134652946D01*
X184346158Y-135119811D01*
X184488703Y-135567468D01*
X184679234Y-135923927D01*
X185020391Y-136110003D01*
X186510395Y-134620000D01*
X186869605Y-134620000D01*
X188359609Y-136110003D01*
X188700766Y-135923927D01*
X188916513Y-135506591D01*
X189046696Y-135055185D01*
X189086313Y-134587054D01*
X189033842Y-134120189D01*
X188891297Y-133672532D01*
X188700766Y-133316073D01*
X188359609Y-133129997D01*
X186869605Y-134620000D01*
X186510395Y-134620000D01*
X185020391Y-133129997D01*
X184679234Y-133316073D01*
X184463487Y-133733409D01*
X184333304Y-134184815D01*
X184293687Y-134652946D01*
X107800736Y-134652946D01*
X107806313Y-134587054D01*
X107753842Y-134120189D01*
X107611297Y-133672532D01*
X107420766Y-133316073D01*
X107079609Y-133129997D01*
X105589605Y-134620000D01*
X105230395Y-134620000D01*
X103740391Y-133129997D01*
X103399234Y-133316073D01*
X103183487Y-133733409D01*
X103053304Y-134184815D01*
X103013687Y-134652946D01*
X102895000Y-134652946D01*
X102895000Y-132950391D01*
X103919997Y-132950391D01*
X105410000Y-134440395D01*
X106900003Y-132950391D01*
X185199997Y-132950391D01*
X186690000Y-134440395D01*
X188180003Y-132950391D01*
X187993927Y-132609234D01*
X187576591Y-132393487D01*
X187125185Y-132263304D01*
X186657054Y-132223687D01*
X186190189Y-132276158D01*
X185742532Y-132418703D01*
X185386073Y-132609234D01*
X185199997Y-132950391D01*
X106900003Y-132950391D01*
X106713927Y-132609234D01*
X106296591Y-132393487D01*
X105845185Y-132263304D01*
X105377054Y-132223687D01*
X104910189Y-132276158D01*
X104462532Y-132418703D01*
X104106073Y-132609234D01*
X103919997Y-132950391D01*
X102895000Y-132950391D01*
X102895000Y-96919609D01*
X109634997Y-96919609D01*
X109821073Y-97260766D01*
X110238409Y-97476513D01*
X110689815Y-97606696D01*
X111157946Y-97646313D01*
X111624811Y-97593842D01*
X112072468Y-97451297D01*
X112428927Y-97260766D01*
X112615003Y-96919609D01*
X111125000Y-95429605D01*
X109634997Y-96919609D01*
X102895000Y-96919609D01*
X102895000Y-95282946D01*
X108728687Y-95282946D01*
X108781158Y-95749811D01*
X108923703Y-96197468D01*
X109114234Y-96553927D01*
X109455391Y-96740003D01*
X110945395Y-95250000D01*
X111304605Y-95250000D01*
X112794609Y-96740003D01*
X113135766Y-96553927D01*
X113351513Y-96136591D01*
X113386001Y-96017006D01*
X113386001Y-100108419D01*
X113388749Y-100136323D01*
X113388728Y-100139367D01*
X113389628Y-100148538D01*
X113394778Y-100197535D01*
X113395551Y-100205383D01*
X113395630Y-100205645D01*
X113399992Y-100247140D01*
X113412016Y-100305714D01*
X113423229Y-100364496D01*
X113425893Y-100373317D01*
X113455211Y-100468028D01*
X113478370Y-100523119D01*
X113500798Y-100578632D01*
X113505125Y-100586768D01*
X113552280Y-100673980D01*
X113585730Y-100723571D01*
X113618486Y-100773629D01*
X113624310Y-100780770D01*
X113687507Y-100857162D01*
X113729942Y-100899301D01*
X113771805Y-100942051D01*
X113778906Y-100947925D01*
X113855737Y-101010587D01*
X113905548Y-101043681D01*
X113954921Y-101077488D01*
X113963027Y-101081870D01*
X114050566Y-101128415D01*
X114105841Y-101151197D01*
X114160851Y-101174775D01*
X114169655Y-101177500D01*
X114264568Y-101206156D01*
X114323241Y-101217773D01*
X114381758Y-101230212D01*
X114390923Y-101231175D01*
X114489594Y-101240850D01*
X114489598Y-101240850D01*
X114521581Y-101244000D01*
X177578419Y-101244000D01*
X177606332Y-101241251D01*
X177609367Y-101241272D01*
X177618538Y-101240372D01*
X177667384Y-101235238D01*
X177675383Y-101234450D01*
X177675650Y-101234369D01*
X177717140Y-101230008D01*
X177775714Y-101217984D01*
X177834496Y-101206771D01*
X177843317Y-101204107D01*
X177938028Y-101174789D01*
X177993119Y-101151630D01*
X178048632Y-101129202D01*
X178056768Y-101124875D01*
X178143980Y-101077720D01*
X178193571Y-101044270D01*
X178243629Y-101011514D01*
X178250770Y-101005690D01*
X178327162Y-100942493D01*
X178369301Y-100900058D01*
X178412051Y-100858195D01*
X178417925Y-100851094D01*
X178480587Y-100774263D01*
X178513681Y-100724452D01*
X178547488Y-100675079D01*
X178551870Y-100666973D01*
X178598415Y-100579434D01*
X178621197Y-100524159D01*
X178644775Y-100469149D01*
X178647500Y-100460345D01*
X178676156Y-100365432D01*
X178687773Y-100306759D01*
X178700212Y-100248242D01*
X178701175Y-100239077D01*
X178710850Y-100140406D01*
X178710850Y-100140402D01*
X178714000Y-100108419D01*
X178714000Y-96919609D01*
X179484997Y-96919609D01*
X179671073Y-97260766D01*
X180088409Y-97476513D01*
X180539815Y-97606696D01*
X181007946Y-97646313D01*
X181474811Y-97593842D01*
X181922468Y-97451297D01*
X182278927Y-97260766D01*
X182465003Y-96919609D01*
X180975000Y-95429605D01*
X179484997Y-96919609D01*
X178714000Y-96919609D01*
X178714000Y-96009973D01*
X178773703Y-96197468D01*
X178964234Y-96553927D01*
X179305391Y-96740003D01*
X180795395Y-95250000D01*
X181154605Y-95250000D01*
X182644609Y-96740003D01*
X182985766Y-96553927D01*
X183201513Y-96136591D01*
X183331696Y-95685185D01*
X183371313Y-95217054D01*
X183318842Y-94750189D01*
X183176297Y-94302532D01*
X182985766Y-93946073D01*
X182644609Y-93759997D01*
X181154605Y-95250000D01*
X180795395Y-95250000D01*
X179305391Y-93759997D01*
X178964234Y-93946073D01*
X178748487Y-94363409D01*
X178714000Y-94482992D01*
X178714000Y-93580391D01*
X179484997Y-93580391D01*
X180975000Y-95070395D01*
X182465003Y-93580391D01*
X182278927Y-93239234D01*
X181861591Y-93023487D01*
X181410185Y-92893304D01*
X180942054Y-92853687D01*
X180475189Y-92906158D01*
X180027532Y-93048703D01*
X179671073Y-93239234D01*
X179484997Y-93580391D01*
X178714000Y-93580391D01*
X178714000Y-90391581D01*
X178711251Y-90363668D01*
X178711272Y-90360633D01*
X178710372Y-90351462D01*
X178705238Y-90302616D01*
X178704450Y-90294617D01*
X178704369Y-90294350D01*
X178700008Y-90252860D01*
X178687984Y-90194286D01*
X178676771Y-90135504D01*
X178674107Y-90126683D01*
X178644789Y-90031973D01*
X178621636Y-89976895D01*
X178599202Y-89921368D01*
X178594875Y-89913232D01*
X178547720Y-89826020D01*
X178514270Y-89776429D01*
X178481514Y-89726371D01*
X178475689Y-89719230D01*
X178412493Y-89642838D01*
X178370058Y-89600699D01*
X178328195Y-89557949D01*
X178321094Y-89552075D01*
X178244263Y-89489413D01*
X178194467Y-89456329D01*
X178145079Y-89422512D01*
X178136973Y-89418130D01*
X178049434Y-89371585D01*
X177994159Y-89348803D01*
X177939149Y-89325225D01*
X177930346Y-89322500D01*
X177835432Y-89293844D01*
X177776752Y-89282225D01*
X177718242Y-89269788D01*
X177709077Y-89268825D01*
X177610406Y-89259150D01*
X177610402Y-89259150D01*
X177578419Y-89256000D01*
X114521581Y-89256000D01*
X114493668Y-89258749D01*
X114490633Y-89258728D01*
X114481462Y-89259628D01*
X114432616Y-89264762D01*
X114424617Y-89265550D01*
X114424350Y-89265631D01*
X114382860Y-89269992D01*
X114324286Y-89282016D01*
X114265504Y-89293229D01*
X114256683Y-89295893D01*
X114161973Y-89325211D01*
X114106895Y-89348364D01*
X114051368Y-89370798D01*
X114043232Y-89375125D01*
X113956020Y-89422280D01*
X113906429Y-89455730D01*
X113856371Y-89488486D01*
X113849230Y-89494311D01*
X113772838Y-89557507D01*
X113730709Y-89599932D01*
X113687949Y-89641805D01*
X113682075Y-89648906D01*
X113619413Y-89725737D01*
X113586329Y-89775533D01*
X113552512Y-89824921D01*
X113548130Y-89833027D01*
X113501585Y-89920566D01*
X113478813Y-89975816D01*
X113455225Y-90030851D01*
X113452500Y-90039654D01*
X113423844Y-90134568D01*
X113412225Y-90193248D01*
X113399788Y-90251758D01*
X113398825Y-90260923D01*
X113389150Y-90359594D01*
X113389150Y-90359599D01*
X113386000Y-90391582D01*
X113386000Y-94490028D01*
X113326297Y-94302532D01*
X113135766Y-93946073D01*
X112794609Y-93759997D01*
X111304605Y-95250000D01*
X110945395Y-95250000D01*
X109455391Y-93759997D01*
X109114234Y-93946073D01*
X108898487Y-94363409D01*
X108768304Y-94814815D01*
X108728687Y-95282946D01*
X102895000Y-95282946D01*
X102895000Y-93580391D01*
X109634997Y-93580391D01*
X111125000Y-95070395D01*
X112615003Y-93580391D01*
X112428927Y-93239234D01*
X112011591Y-93023487D01*
X111560185Y-92893304D01*
X111092054Y-92853687D01*
X110625189Y-92906158D01*
X110177532Y-93048703D01*
X109821073Y-93239234D01*
X109634997Y-93580391D01*
X102895000Y-93580391D01*
X102895000Y-76582116D01*
X104747423Y-76582116D01*
X104747423Y-77087884D01*
X104846094Y-77583934D01*
X105039643Y-78051204D01*
X105320633Y-78471735D01*
X105678265Y-78829367D01*
X106098796Y-79110357D01*
X106566066Y-79303906D01*
X107062116Y-79402577D01*
X107567884Y-79402577D01*
X108063934Y-79303906D01*
X108531204Y-79110357D01*
X108951735Y-78829367D01*
X109309367Y-78471735D01*
X109590357Y-78051204D01*
X109783906Y-77583934D01*
X109882577Y-77087884D01*
X109882577Y-76582116D01*
X182217423Y-76582116D01*
X182217423Y-77087884D01*
X182316094Y-77583934D01*
X182509643Y-78051204D01*
X182790633Y-78471735D01*
X183148265Y-78829367D01*
X183568796Y-79110357D01*
X184036066Y-79303906D01*
X184532116Y-79402577D01*
X185037884Y-79402577D01*
X185533934Y-79303906D01*
X186001204Y-79110357D01*
X186421735Y-78829367D01*
X186779367Y-78471735D01*
X187060357Y-78051204D01*
X187253906Y-77583934D01*
X187352577Y-77087884D01*
X187352577Y-76582116D01*
X187253906Y-76086066D01*
X187060357Y-75618796D01*
X186779367Y-75198265D01*
X186421735Y-74840633D01*
X186001204Y-74559643D01*
X185533934Y-74366094D01*
X185037884Y-74267423D01*
X184532116Y-74267423D01*
X184036066Y-74366094D01*
X183568796Y-74559643D01*
X183148265Y-74840633D01*
X182790633Y-75198265D01*
X182509643Y-75618796D01*
X182316094Y-76086066D01*
X182217423Y-76582116D01*
X109882577Y-76582116D01*
X109783906Y-76086066D01*
X109590357Y-75618796D01*
X109309367Y-75198265D01*
X108951735Y-74840633D01*
X108531204Y-74559643D01*
X108063934Y-74366094D01*
X107567884Y-74267423D01*
X107062116Y-74267423D01*
X106566066Y-74366094D01*
X106098796Y-74559643D01*
X105678265Y-74840633D01*
X105320633Y-75198265D01*
X105039643Y-75618796D01*
X104846094Y-76086066D01*
X104747423Y-76582116D01*
X102895000Y-76582116D01*
X102895000Y-71885103D01*
X102897775Y-71877312D01*
X102902770Y-71865532D01*
X102905888Y-71856861D01*
X103441143Y-70335239D01*
X103449024Y-70308769D01*
X103457286Y-70282372D01*
X103459543Y-70273438D01*
X103617737Y-69628418D01*
X113386000Y-69628418D01*
X113388749Y-69656332D01*
X113388728Y-69659367D01*
X113389628Y-69668538D01*
X113394764Y-69717399D01*
X113395550Y-69725382D01*
X113395631Y-69725649D01*
X113399992Y-69767140D01*
X113412016Y-69825714D01*
X113423229Y-69884496D01*
X113425893Y-69893317D01*
X113455211Y-69988028D01*
X113478370Y-70043119D01*
X113500798Y-70098632D01*
X113505125Y-70106768D01*
X113552280Y-70193980D01*
X113585730Y-70243571D01*
X113618486Y-70293629D01*
X113624310Y-70300770D01*
X113687507Y-70377162D01*
X113729942Y-70419301D01*
X113771805Y-70462051D01*
X113778906Y-70467925D01*
X113855737Y-70530587D01*
X113905548Y-70563681D01*
X113954921Y-70597488D01*
X113963027Y-70601870D01*
X114050566Y-70648415D01*
X114105841Y-70671197D01*
X114160851Y-70694775D01*
X114169655Y-70697500D01*
X114264568Y-70726156D01*
X114323241Y-70737773D01*
X114381758Y-70750212D01*
X114390923Y-70751175D01*
X114489594Y-70760850D01*
X114489598Y-70760850D01*
X114521581Y-70764000D01*
X117888419Y-70764000D01*
X117916332Y-70761251D01*
X117919367Y-70761272D01*
X117928538Y-70760372D01*
X117977384Y-70755238D01*
X117985383Y-70754450D01*
X117985650Y-70754369D01*
X118027140Y-70750008D01*
X118085714Y-70737984D01*
X118144496Y-70726771D01*
X118153317Y-70724107D01*
X118248028Y-70694789D01*
X118303119Y-70671630D01*
X118358632Y-70649202D01*
X118366768Y-70644875D01*
X118453980Y-70597720D01*
X118503571Y-70564270D01*
X118553629Y-70531514D01*
X118560770Y-70525690D01*
X118637162Y-70462493D01*
X118679301Y-70420058D01*
X118722051Y-70378195D01*
X118727925Y-70371094D01*
X118790587Y-70294263D01*
X118823681Y-70244452D01*
X118857488Y-70195079D01*
X118861870Y-70186973D01*
X118908415Y-70099434D01*
X118931197Y-70044159D01*
X118954775Y-69989149D01*
X118957500Y-69980345D01*
X118986156Y-69885432D01*
X118997773Y-69826759D01*
X119010212Y-69768242D01*
X119011175Y-69759077D01*
X119020850Y-69660406D01*
X119020850Y-69660402D01*
X119024000Y-69628419D01*
X119024000Y-61181581D01*
X119021251Y-61153668D01*
X119021272Y-61150633D01*
X119020372Y-61141462D01*
X119015238Y-61092616D01*
X119014450Y-61084617D01*
X119014369Y-61084350D01*
X119010008Y-61042860D01*
X118997984Y-60984286D01*
X118986771Y-60925504D01*
X118984107Y-60916683D01*
X118954789Y-60821973D01*
X118931636Y-60766895D01*
X118909202Y-60711368D01*
X118904875Y-60703232D01*
X118857720Y-60616020D01*
X118824270Y-60566429D01*
X118791514Y-60516371D01*
X118785689Y-60509230D01*
X118722493Y-60432838D01*
X118680058Y-60390699D01*
X118638195Y-60347949D01*
X118631094Y-60342075D01*
X118554263Y-60279413D01*
X118504467Y-60246329D01*
X118455079Y-60212512D01*
X118446973Y-60208130D01*
X118359434Y-60161585D01*
X118304159Y-60138803D01*
X118249149Y-60115225D01*
X118240346Y-60112500D01*
X118145432Y-60083844D01*
X118086752Y-60072225D01*
X118028242Y-60059788D01*
X118019077Y-60058825D01*
X117920406Y-60049150D01*
X117920402Y-60049150D01*
X117888419Y-60046000D01*
X114521581Y-60046000D01*
X114493668Y-60048749D01*
X114490633Y-60048728D01*
X114481462Y-60049628D01*
X114432616Y-60054762D01*
X114424617Y-60055550D01*
X114424350Y-60055631D01*
X114382860Y-60059992D01*
X114324286Y-60072016D01*
X114265504Y-60083229D01*
X114256683Y-60085893D01*
X114161973Y-60115211D01*
X114106895Y-60138364D01*
X114051368Y-60160798D01*
X114043232Y-60165125D01*
X113956020Y-60212280D01*
X113906429Y-60245730D01*
X113856371Y-60278486D01*
X113849230Y-60284311D01*
X113772838Y-60347507D01*
X113730709Y-60389932D01*
X113687949Y-60431805D01*
X113682075Y-60438906D01*
X113619413Y-60515737D01*
X113586329Y-60565533D01*
X113552512Y-60614921D01*
X113548130Y-60623027D01*
X113501585Y-60710566D01*
X113478813Y-60765816D01*
X113455225Y-60820851D01*
X113452500Y-60829654D01*
X113423844Y-60924568D01*
X113412225Y-60983248D01*
X113399788Y-61041758D01*
X113398825Y-61050923D01*
X113389150Y-61149594D01*
X113389150Y-61149608D01*
X113386001Y-61181581D01*
X113386000Y-69628418D01*
X103617737Y-69628418D01*
X103843759Y-68706846D01*
X103849022Y-68679718D01*
X103854666Y-68652656D01*
X103856041Y-68643544D01*
X104085550Y-67046937D01*
X104088142Y-67019416D01*
X104091117Y-66991942D01*
X104091596Y-66982739D01*
X104164209Y-65371355D01*
X104164103Y-65343745D01*
X104164383Y-65316079D01*
X104163961Y-65306874D01*
X104078983Y-63696094D01*
X104076185Y-63668643D01*
X104073763Y-63641066D01*
X104072445Y-63631946D01*
X103830689Y-62037146D01*
X103825218Y-62010061D01*
X103820123Y-61982889D01*
X103817922Y-61973941D01*
X103421694Y-60410343D01*
X103413604Y-60383914D01*
X103405884Y-60357376D01*
X103402820Y-60348686D01*
X102894998Y-58939690D01*
X102894998Y-51199609D01*
X103919997Y-51199609D01*
X104106073Y-51540766D01*
X104523409Y-51756513D01*
X104974815Y-51886696D01*
X105442946Y-51926313D01*
X105909811Y-51873842D01*
X106357468Y-51731297D01*
X106713927Y-51540766D01*
X106900003Y-51199609D01*
X105410000Y-49709605D01*
X103919997Y-51199609D01*
X102894998Y-51199609D01*
X102894999Y-49562946D01*
X103013687Y-49562946D01*
X103066158Y-50029811D01*
X103208703Y-50477468D01*
X103399234Y-50833927D01*
X103740391Y-51020003D01*
X105230395Y-49530000D01*
X105589605Y-49530000D01*
X107079609Y-51020003D01*
X107420766Y-50833927D01*
X107636513Y-50416591D01*
X107691944Y-50224384D01*
X119961361Y-50224384D01*
X119965762Y-50283994D01*
X119969335Y-50343753D01*
X119970844Y-50352844D01*
X120032134Y-50706858D01*
X120918686Y-57308695D01*
X120922506Y-57324888D01*
X120932787Y-57380191D01*
X120942182Y-57412675D01*
X120948521Y-57445905D01*
X120951185Y-57454727D01*
X121062643Y-57814790D01*
X121085831Y-57869953D01*
X121108233Y-57925399D01*
X121112559Y-57933535D01*
X121291831Y-58265092D01*
X121325276Y-58314676D01*
X121358035Y-58364737D01*
X121363859Y-58371878D01*
X121604117Y-58662300D01*
X121646550Y-58704438D01*
X121688416Y-58747191D01*
X121695517Y-58753065D01*
X121987609Y-58991289D01*
X122037447Y-59024401D01*
X122086792Y-59058188D01*
X122094898Y-59062571D01*
X122427698Y-59239523D01*
X122482973Y-59262305D01*
X122537983Y-59285883D01*
X122546786Y-59288608D01*
X122907618Y-59397550D01*
X122966321Y-59409173D01*
X123024810Y-59421606D01*
X123033975Y-59422569D01*
X123409095Y-59459350D01*
X123409098Y-59459350D01*
X123441081Y-59462500D01*
X136591419Y-59462500D01*
X136597559Y-59461895D01*
X136642372Y-59461059D01*
X136675963Y-59457131D01*
X136709779Y-59456342D01*
X136718919Y-59455165D01*
X137087325Y-59405108D01*
X137145514Y-59391312D01*
X137203924Y-59378323D01*
X137212661Y-59375392D01*
X137564326Y-59254732D01*
X137618743Y-59229889D01*
X137673501Y-59205809D01*
X137681503Y-59201238D01*
X138003036Y-59014569D01*
X138051572Y-58979643D01*
X138100629Y-58945373D01*
X138107590Y-58939334D01*
X138386741Y-58693769D01*
X138427571Y-58650079D01*
X138469035Y-58606935D01*
X138474691Y-58599659D01*
X138700829Y-58304549D01*
X138732380Y-58253786D01*
X138764690Y-58203385D01*
X138768825Y-58195149D01*
X138933336Y-57861735D01*
X138954432Y-57805793D01*
X138976331Y-57750093D01*
X138978788Y-57741211D01*
X139060880Y-57436167D01*
X139064689Y-57427903D01*
X139087425Y-57333160D01*
X140003574Y-50705012D01*
X140014774Y-50652031D01*
X140018548Y-50618038D01*
X140025429Y-50584520D01*
X140026328Y-50575349D01*
X140058268Y-50224384D01*
X152346361Y-50224384D01*
X152350762Y-50283994D01*
X152354335Y-50343753D01*
X152355844Y-50352844D01*
X152417134Y-50706858D01*
X153303686Y-57308695D01*
X153307506Y-57324888D01*
X153317787Y-57380191D01*
X153327182Y-57412675D01*
X153333521Y-57445905D01*
X153336185Y-57454727D01*
X153447643Y-57814790D01*
X153470831Y-57869953D01*
X153493233Y-57925399D01*
X153497559Y-57933535D01*
X153676831Y-58265092D01*
X153710276Y-58314676D01*
X153743035Y-58364737D01*
X153748859Y-58371878D01*
X153989117Y-58662300D01*
X154031550Y-58704438D01*
X154073416Y-58747191D01*
X154080517Y-58753065D01*
X154372609Y-58991289D01*
X154422447Y-59024401D01*
X154471792Y-59058188D01*
X154479898Y-59062571D01*
X154812698Y-59239523D01*
X154867973Y-59262305D01*
X154922983Y-59285883D01*
X154931786Y-59288608D01*
X155292618Y-59397550D01*
X155351321Y-59409173D01*
X155409810Y-59421606D01*
X155418975Y-59422569D01*
X155794095Y-59459350D01*
X155794098Y-59459350D01*
X155826081Y-59462500D01*
X161347596Y-59462500D01*
X161245050Y-59615969D01*
X161149401Y-59846887D01*
X161100639Y-60092028D01*
X161100639Y-60341972D01*
X161149401Y-60587113D01*
X161245050Y-60818031D01*
X161383912Y-61025851D01*
X161560649Y-61202588D01*
X161768469Y-61341450D01*
X161999387Y-61437099D01*
X162244528Y-61485861D01*
X162494472Y-61485861D01*
X162739613Y-61437099D01*
X162970531Y-61341450D01*
X163178351Y-61202588D01*
X163355088Y-61025851D01*
X163493950Y-60818031D01*
X163589599Y-60587113D01*
X163638361Y-60341972D01*
X163638361Y-60092028D01*
X163589599Y-59846887D01*
X163493950Y-59615969D01*
X163391404Y-59462500D01*
X168976419Y-59462500D01*
X168982559Y-59461895D01*
X169027372Y-59461059D01*
X169060963Y-59457131D01*
X169094779Y-59456342D01*
X169103919Y-59455165D01*
X169472325Y-59405108D01*
X169530514Y-59391312D01*
X169588924Y-59378323D01*
X169597661Y-59375392D01*
X169949326Y-59254732D01*
X170003743Y-59229889D01*
X170058501Y-59205809D01*
X170066503Y-59201238D01*
X170388036Y-59014569D01*
X170436572Y-58979643D01*
X170485629Y-58945373D01*
X170492590Y-58939334D01*
X170771741Y-58693769D01*
X170812571Y-58650079D01*
X170854035Y-58606935D01*
X170859691Y-58599659D01*
X171085829Y-58304549D01*
X171117380Y-58253786D01*
X171149690Y-58203385D01*
X171153825Y-58195149D01*
X171318336Y-57861735D01*
X171339432Y-57805793D01*
X171361331Y-57750093D01*
X171363788Y-57741211D01*
X171445880Y-57436167D01*
X171449689Y-57427903D01*
X171472425Y-57333160D01*
X171620465Y-56262116D01*
X182217423Y-56262116D01*
X182217423Y-56767884D01*
X182316094Y-57263934D01*
X182509643Y-57731204D01*
X182790633Y-58151735D01*
X183148265Y-58509367D01*
X183568796Y-58790357D01*
X184036066Y-58983906D01*
X184532116Y-59082577D01*
X185037884Y-59082577D01*
X185533934Y-58983906D01*
X186001204Y-58790357D01*
X186421735Y-58509367D01*
X186779367Y-58151735D01*
X187060357Y-57731204D01*
X187253906Y-57263934D01*
X187352577Y-56767884D01*
X187352577Y-56262116D01*
X187253906Y-55766066D01*
X187060357Y-55298796D01*
X186779367Y-54878265D01*
X186421735Y-54520633D01*
X186001204Y-54239643D01*
X185533934Y-54046094D01*
X185037884Y-53947423D01*
X184532116Y-53947423D01*
X184036066Y-54046094D01*
X183568796Y-54239643D01*
X183148265Y-54520633D01*
X182790633Y-54878265D01*
X182509643Y-55298796D01*
X182316094Y-55766066D01*
X182217423Y-56262116D01*
X171620465Y-56262116D01*
X172320210Y-51199609D01*
X185199997Y-51199609D01*
X185386073Y-51540766D01*
X185803409Y-51756513D01*
X186254815Y-51886696D01*
X186722946Y-51926313D01*
X187189811Y-51873842D01*
X187637468Y-51731297D01*
X187993927Y-51540766D01*
X188180003Y-51199609D01*
X186690000Y-49709605D01*
X185199997Y-51199609D01*
X172320210Y-51199609D01*
X172388574Y-50705012D01*
X172399774Y-50652031D01*
X172403548Y-50618038D01*
X172410429Y-50584520D01*
X172411328Y-50575349D01*
X172445921Y-50195237D01*
X172445503Y-50135420D01*
X172445921Y-50075603D01*
X172445022Y-50066432D01*
X172405126Y-49686839D01*
X172393088Y-49628197D01*
X172381888Y-49569481D01*
X172379916Y-49562946D01*
X184293687Y-49562946D01*
X184346158Y-50029811D01*
X184488703Y-50477468D01*
X184679234Y-50833927D01*
X185020391Y-51020003D01*
X186510395Y-49530000D01*
X186869605Y-49530000D01*
X188359609Y-51020003D01*
X188700766Y-50833927D01*
X188916513Y-50416591D01*
X189046696Y-49965185D01*
X189086313Y-49497054D01*
X189033842Y-49030189D01*
X188891297Y-48582532D01*
X188700766Y-48226073D01*
X188359609Y-48039997D01*
X186869605Y-49530000D01*
X186510395Y-49530000D01*
X185020391Y-48039997D01*
X184679234Y-48226073D01*
X184463487Y-48643409D01*
X184333304Y-49094815D01*
X184293687Y-49562946D01*
X172379916Y-49562946D01*
X172379225Y-49560659D01*
X172266358Y-49196046D01*
X172243175Y-49140898D01*
X172220768Y-49085438D01*
X172216442Y-49077301D01*
X172034904Y-48741555D01*
X172001449Y-48691956D01*
X171968700Y-48641910D01*
X171962876Y-48634769D01*
X171719583Y-48340676D01*
X171677127Y-48298516D01*
X171635283Y-48255786D01*
X171628183Y-48249912D01*
X171332400Y-48008677D01*
X171282589Y-47975583D01*
X171233217Y-47941777D01*
X171225111Y-47937395D01*
X171080289Y-47860391D01*
X185199997Y-47860391D01*
X186690000Y-49350395D01*
X188180003Y-47860391D01*
X187993927Y-47519234D01*
X187576591Y-47303487D01*
X187125185Y-47173304D01*
X186657054Y-47133687D01*
X186190189Y-47186158D01*
X185742532Y-47328703D01*
X185386073Y-47519234D01*
X185199997Y-47860391D01*
X171080289Y-47860391D01*
X170888105Y-47758205D01*
X170832813Y-47735416D01*
X170777817Y-47711844D01*
X170769014Y-47709120D01*
X170403621Y-47598802D01*
X170344948Y-47587185D01*
X170286431Y-47574746D01*
X170277267Y-47573783D01*
X169897405Y-47536537D01*
X169897394Y-47536537D01*
X169865347Y-47533384D01*
X154873510Y-47535004D01*
X154860285Y-47536308D01*
X154725874Y-47541732D01*
X154685313Y-47547368D01*
X154644438Y-47550099D01*
X154635358Y-47551671D01*
X154269470Y-47617651D01*
X154211926Y-47633959D01*
X154154142Y-47649465D01*
X154145540Y-47652772D01*
X153799435Y-47788563D01*
X153746162Y-47815733D01*
X153692483Y-47842172D01*
X153684687Y-47847086D01*
X153371549Y-48047517D01*
X153324576Y-48084511D01*
X153277046Y-48120879D01*
X153270353Y-48127214D01*
X153002109Y-48384651D01*
X152963199Y-48430085D01*
X152923658Y-48474969D01*
X152918323Y-48482483D01*
X152705190Y-48787118D01*
X152675841Y-48839251D01*
X152645774Y-48890957D01*
X152642000Y-48899364D01*
X152492097Y-49239596D01*
X152473456Y-49296368D01*
X152453981Y-49352997D01*
X152451912Y-49361977D01*
X152370949Y-49724845D01*
X152363684Y-49784205D01*
X152355586Y-49843490D01*
X152355301Y-49852700D01*
X152346361Y-50224384D01*
X140058268Y-50224384D01*
X140060921Y-50195237D01*
X140060503Y-50135420D01*
X140060921Y-50075603D01*
X140060022Y-50066432D01*
X140020126Y-49686839D01*
X140008088Y-49628197D01*
X139996888Y-49569481D01*
X139994225Y-49560659D01*
X139881358Y-49196046D01*
X139858175Y-49140898D01*
X139835768Y-49085438D01*
X139831442Y-49077301D01*
X139649904Y-48741555D01*
X139616449Y-48691956D01*
X139583700Y-48641910D01*
X139577876Y-48634769D01*
X139334583Y-48340676D01*
X139292127Y-48298516D01*
X139250283Y-48255786D01*
X139243183Y-48249912D01*
X138947400Y-48008677D01*
X138897589Y-47975583D01*
X138848217Y-47941777D01*
X138840111Y-47937395D01*
X138503105Y-47758205D01*
X138447813Y-47735416D01*
X138392817Y-47711844D01*
X138384014Y-47709120D01*
X138018621Y-47598802D01*
X137959948Y-47587185D01*
X137901431Y-47574746D01*
X137892267Y-47573783D01*
X137512405Y-47536537D01*
X137512394Y-47536537D01*
X137480347Y-47533384D01*
X122488510Y-47535004D01*
X122475285Y-47536308D01*
X122340874Y-47541732D01*
X122300313Y-47547368D01*
X122259438Y-47550099D01*
X122250358Y-47551671D01*
X121884470Y-47617651D01*
X121826926Y-47633959D01*
X121769142Y-47649465D01*
X121760540Y-47652772D01*
X121414435Y-47788563D01*
X121361162Y-47815733D01*
X121307483Y-47842172D01*
X121299687Y-47847086D01*
X120986549Y-48047517D01*
X120939576Y-48084511D01*
X120892046Y-48120879D01*
X120885353Y-48127214D01*
X120617109Y-48384651D01*
X120578199Y-48430085D01*
X120538658Y-48474969D01*
X120533323Y-48482483D01*
X120320190Y-48787118D01*
X120290841Y-48839251D01*
X120260774Y-48890957D01*
X120257000Y-48899364D01*
X120107097Y-49239596D01*
X120088456Y-49296368D01*
X120068981Y-49352997D01*
X120066912Y-49361977D01*
X119985949Y-49724845D01*
X119978684Y-49784205D01*
X119970586Y-49843490D01*
X119970301Y-49852700D01*
X119961361Y-50224384D01*
X107691944Y-50224384D01*
X107766696Y-49965185D01*
X107806313Y-49497054D01*
X107753842Y-49030189D01*
X107611297Y-48582532D01*
X107420766Y-48226073D01*
X107079609Y-48039997D01*
X105589605Y-49530000D01*
X105230395Y-49530000D01*
X103740391Y-48039997D01*
X103399234Y-48226073D01*
X103183487Y-48643409D01*
X103053304Y-49094815D01*
X103013687Y-49562946D01*
X102894999Y-49562946D01*
X102895000Y-49562278D01*
X102946002Y-49042116D01*
X103087694Y-48572812D01*
X103317837Y-48139975D01*
X103545860Y-47860391D01*
X103919997Y-47860391D01*
X105410000Y-49350395D01*
X106900003Y-47860391D01*
X106713927Y-47519234D01*
X106296591Y-47303487D01*
X105845185Y-47173304D01*
X105377054Y-47133687D01*
X104910189Y-47186158D01*
X104462532Y-47328703D01*
X104106073Y-47519234D01*
X103919997Y-47860391D01*
X103545860Y-47860391D01*
X103627678Y-47760073D01*
X104005397Y-47447597D01*
X104436627Y-47214431D01*
X104904928Y-47069468D01*
X105423153Y-47015000D01*
X186657722Y-47015000D01*
X187177884Y-47066002D01*
%TA.AperFunction,Conductor*%
D12*
G36*
X187177884Y-47066002D02*
G01*
X187647188Y-47207694D01*
X188080025Y-47437837D01*
X188459927Y-47747678D01*
X188772403Y-48125397D01*
X189005569Y-48556627D01*
X189150532Y-49024928D01*
X189205001Y-49543163D01*
X189205000Y-58924897D01*
X189202227Y-58932686D01*
X189197230Y-58944468D01*
X189194112Y-58953140D01*
X188658857Y-60474761D01*
X188650980Y-60501219D01*
X188642714Y-60527627D01*
X188640457Y-60536562D01*
X188256241Y-62103154D01*
X188250976Y-62130288D01*
X188245334Y-62157344D01*
X188243959Y-62166456D01*
X188014450Y-63763064D01*
X188011859Y-63790577D01*
X188008883Y-63818058D01*
X188008404Y-63827261D01*
X187935791Y-65438645D01*
X187935897Y-65466255D01*
X187935617Y-65493921D01*
X187936039Y-65503127D01*
X188021017Y-67113906D01*
X188023815Y-67141357D01*
X188026237Y-67168934D01*
X188027555Y-67178054D01*
X188269311Y-68772855D01*
X188274782Y-68799941D01*
X188279877Y-68827111D01*
X188282078Y-68836060D01*
X188678306Y-70399657D01*
X188686388Y-70426058D01*
X188694116Y-70452624D01*
X188697180Y-70461314D01*
X189205001Y-71870308D01*
X189205000Y-138397725D01*
X189204335Y-138404513D01*
X189199699Y-138405000D01*
X102902275Y-138405000D01*
X102895487Y-138404335D01*
X102895000Y-138399699D01*
X102895000Y-136289609D01*
X103919997Y-136289609D01*
X104106073Y-136630766D01*
X104523409Y-136846513D01*
X104974815Y-136976696D01*
X105442946Y-137016313D01*
X105909811Y-136963842D01*
X106357468Y-136821297D01*
X106713927Y-136630766D01*
X106900003Y-136289609D01*
X185199997Y-136289609D01*
X185386073Y-136630766D01*
X185803409Y-136846513D01*
X186254815Y-136976696D01*
X186722946Y-137016313D01*
X187189811Y-136963842D01*
X187637468Y-136821297D01*
X187993927Y-136630766D01*
X188180003Y-136289609D01*
X186690000Y-134799605D01*
X185199997Y-136289609D01*
X106900003Y-136289609D01*
X105410000Y-134799605D01*
X103919997Y-136289609D01*
X102895000Y-136289609D01*
X102895000Y-134652946D01*
X103013687Y-134652946D01*
X103066158Y-135119811D01*
X103208703Y-135567468D01*
X103399234Y-135923927D01*
X103740391Y-136110003D01*
X105230395Y-134620000D01*
X105589605Y-134620000D01*
X107079609Y-136110003D01*
X107420766Y-135923927D01*
X107636513Y-135506591D01*
X107766696Y-135055185D01*
X107800736Y-134652946D01*
X184293687Y-134652946D01*
X184346158Y-135119811D01*
X184488703Y-135567468D01*
X184679234Y-135923927D01*
X185020391Y-136110003D01*
X186510395Y-134620000D01*
X186869605Y-134620000D01*
X188359609Y-136110003D01*
X188700766Y-135923927D01*
X188916513Y-135506591D01*
X189046696Y-135055185D01*
X189086313Y-134587054D01*
X189033842Y-134120189D01*
X188891297Y-133672532D01*
X188700766Y-133316073D01*
X188359609Y-133129997D01*
X186869605Y-134620000D01*
X186510395Y-134620000D01*
X185020391Y-133129997D01*
X184679234Y-133316073D01*
X184463487Y-133733409D01*
X184333304Y-134184815D01*
X184293687Y-134652946D01*
X107800736Y-134652946D01*
X107806313Y-134587054D01*
X107753842Y-134120189D01*
X107611297Y-133672532D01*
X107420766Y-133316073D01*
X107079609Y-133129997D01*
X105589605Y-134620000D01*
X105230395Y-134620000D01*
X103740391Y-133129997D01*
X103399234Y-133316073D01*
X103183487Y-133733409D01*
X103053304Y-134184815D01*
X103013687Y-134652946D01*
X102895000Y-134652946D01*
X102895000Y-132950391D01*
X103919997Y-132950391D01*
X105410000Y-134440395D01*
X106900003Y-132950391D01*
X185199997Y-132950391D01*
X186690000Y-134440395D01*
X188180003Y-132950391D01*
X187993927Y-132609234D01*
X187576591Y-132393487D01*
X187125185Y-132263304D01*
X186657054Y-132223687D01*
X186190189Y-132276158D01*
X185742532Y-132418703D01*
X185386073Y-132609234D01*
X185199997Y-132950391D01*
X106900003Y-132950391D01*
X106713927Y-132609234D01*
X106296591Y-132393487D01*
X105845185Y-132263304D01*
X105377054Y-132223687D01*
X104910189Y-132276158D01*
X104462532Y-132418703D01*
X104106073Y-132609234D01*
X103919997Y-132950391D01*
X102895000Y-132950391D01*
X102895000Y-96919609D01*
X109634997Y-96919609D01*
X109821073Y-97260766D01*
X110238409Y-97476513D01*
X110689815Y-97606696D01*
X111157946Y-97646313D01*
X111624811Y-97593842D01*
X112072468Y-97451297D01*
X112428927Y-97260766D01*
X112615003Y-96919609D01*
X111125000Y-95429605D01*
X109634997Y-96919609D01*
X102895000Y-96919609D01*
X102895000Y-95282946D01*
X108728687Y-95282946D01*
X108781158Y-95749811D01*
X108923703Y-96197468D01*
X109114234Y-96553927D01*
X109455391Y-96740003D01*
X110945395Y-95250000D01*
X111304605Y-95250000D01*
X112794609Y-96740003D01*
X113135766Y-96553927D01*
X113351513Y-96136591D01*
X113386001Y-96017006D01*
X113386001Y-100108419D01*
X113388749Y-100136323D01*
X113388728Y-100139367D01*
X113389628Y-100148538D01*
X113394778Y-100197535D01*
X113395551Y-100205383D01*
X113395630Y-100205645D01*
X113399992Y-100247140D01*
X113412016Y-100305714D01*
X113423229Y-100364496D01*
X113425893Y-100373317D01*
X113455211Y-100468028D01*
X113478370Y-100523119D01*
X113500798Y-100578632D01*
X113505125Y-100586768D01*
X113552280Y-100673980D01*
X113585730Y-100723571D01*
X113618486Y-100773629D01*
X113624310Y-100780770D01*
X113687507Y-100857162D01*
X113729942Y-100899301D01*
X113771805Y-100942051D01*
X113778906Y-100947925D01*
X113855737Y-101010587D01*
X113905548Y-101043681D01*
X113954921Y-101077488D01*
X113963027Y-101081870D01*
X114050566Y-101128415D01*
X114105841Y-101151197D01*
X114160851Y-101174775D01*
X114169655Y-101177500D01*
X114264568Y-101206156D01*
X114323241Y-101217773D01*
X114381758Y-101230212D01*
X114390923Y-101231175D01*
X114489594Y-101240850D01*
X114489598Y-101240850D01*
X114521581Y-101244000D01*
X177578419Y-101244000D01*
X177606332Y-101241251D01*
X177609367Y-101241272D01*
X177618538Y-101240372D01*
X177667384Y-101235238D01*
X177675383Y-101234450D01*
X177675650Y-101234369D01*
X177717140Y-101230008D01*
X177775714Y-101217984D01*
X177834496Y-101206771D01*
X177843317Y-101204107D01*
X177938028Y-101174789D01*
X177993119Y-101151630D01*
X178048632Y-101129202D01*
X178056768Y-101124875D01*
X178143980Y-101077720D01*
X178193571Y-101044270D01*
X178243629Y-101011514D01*
X178250770Y-101005690D01*
X178327162Y-100942493D01*
X178369301Y-100900058D01*
X178412051Y-100858195D01*
X178417925Y-100851094D01*
X178480587Y-100774263D01*
X178513681Y-100724452D01*
X178547488Y-100675079D01*
X178551870Y-100666973D01*
X178598415Y-100579434D01*
X178621197Y-100524159D01*
X178644775Y-100469149D01*
X178647500Y-100460345D01*
X178676156Y-100365432D01*
X178687773Y-100306759D01*
X178700212Y-100248242D01*
X178701175Y-100239077D01*
X178710850Y-100140406D01*
X178710850Y-100140402D01*
X178714000Y-100108419D01*
X178714000Y-96919609D01*
X179484997Y-96919609D01*
X179671073Y-97260766D01*
X180088409Y-97476513D01*
X180539815Y-97606696D01*
X181007946Y-97646313D01*
X181474811Y-97593842D01*
X181922468Y-97451297D01*
X182278927Y-97260766D01*
X182465003Y-96919609D01*
X180975000Y-95429605D01*
X179484997Y-96919609D01*
X178714000Y-96919609D01*
X178714000Y-96009973D01*
X178773703Y-96197468D01*
X178964234Y-96553927D01*
X179305391Y-96740003D01*
X180795395Y-95250000D01*
X181154605Y-95250000D01*
X182644609Y-96740003D01*
X182985766Y-96553927D01*
X183201513Y-96136591D01*
X183331696Y-95685185D01*
X183371313Y-95217054D01*
X183318842Y-94750189D01*
X183176297Y-94302532D01*
X182985766Y-93946073D01*
X182644609Y-93759997D01*
X181154605Y-95250000D01*
X180795395Y-95250000D01*
X179305391Y-93759997D01*
X178964234Y-93946073D01*
X178748487Y-94363409D01*
X178714000Y-94482992D01*
X178714000Y-93580391D01*
X179484997Y-93580391D01*
X180975000Y-95070395D01*
X182465003Y-93580391D01*
X182278927Y-93239234D01*
X181861591Y-93023487D01*
X181410185Y-92893304D01*
X180942054Y-92853687D01*
X180475189Y-92906158D01*
X180027532Y-93048703D01*
X179671073Y-93239234D01*
X179484997Y-93580391D01*
X178714000Y-93580391D01*
X178714000Y-90391581D01*
X178711251Y-90363668D01*
X178711272Y-90360633D01*
X178710372Y-90351462D01*
X178705238Y-90302616D01*
X178704450Y-90294617D01*
X178704369Y-90294350D01*
X178700008Y-90252860D01*
X178687984Y-90194286D01*
X178676771Y-90135504D01*
X178674107Y-90126683D01*
X178644789Y-90031973D01*
X178621636Y-89976895D01*
X178599202Y-89921368D01*
X178594875Y-89913232D01*
X178547720Y-89826020D01*
X178514270Y-89776429D01*
X178481514Y-89726371D01*
X178475689Y-89719230D01*
X178412493Y-89642838D01*
X178370058Y-89600699D01*
X178328195Y-89557949D01*
X178321094Y-89552075D01*
X178244263Y-89489413D01*
X178194467Y-89456329D01*
X178145079Y-89422512D01*
X178136973Y-89418130D01*
X178049434Y-89371585D01*
X177994159Y-89348803D01*
X177939149Y-89325225D01*
X177930346Y-89322500D01*
X177835432Y-89293844D01*
X177776752Y-89282225D01*
X177718242Y-89269788D01*
X177709077Y-89268825D01*
X177610406Y-89259150D01*
X177610402Y-89259150D01*
X177578419Y-89256000D01*
X114521581Y-89256000D01*
X114493668Y-89258749D01*
X114490633Y-89258728D01*
X114481462Y-89259628D01*
X114432616Y-89264762D01*
X114424617Y-89265550D01*
X114424350Y-89265631D01*
X114382860Y-89269992D01*
X114324286Y-89282016D01*
X114265504Y-89293229D01*
X114256683Y-89295893D01*
X114161973Y-89325211D01*
X114106895Y-89348364D01*
X114051368Y-89370798D01*
X114043232Y-89375125D01*
X113956020Y-89422280D01*
X113906429Y-89455730D01*
X113856371Y-89488486D01*
X113849230Y-89494311D01*
X113772838Y-89557507D01*
X113730709Y-89599932D01*
X113687949Y-89641805D01*
X113682075Y-89648906D01*
X113619413Y-89725737D01*
X113586329Y-89775533D01*
X113552512Y-89824921D01*
X113548130Y-89833027D01*
X113501585Y-89920566D01*
X113478813Y-89975816D01*
X113455225Y-90030851D01*
X113452500Y-90039654D01*
X113423844Y-90134568D01*
X113412225Y-90193248D01*
X113399788Y-90251758D01*
X113398825Y-90260923D01*
X113389150Y-90359594D01*
X113389150Y-90359599D01*
X113386000Y-90391582D01*
X113386000Y-94490028D01*
X113326297Y-94302532D01*
X113135766Y-93946073D01*
X112794609Y-93759997D01*
X111304605Y-95250000D01*
X110945395Y-95250000D01*
X109455391Y-93759997D01*
X109114234Y-93946073D01*
X108898487Y-94363409D01*
X108768304Y-94814815D01*
X108728687Y-95282946D01*
X102895000Y-95282946D01*
X102895000Y-93580391D01*
X109634997Y-93580391D01*
X111125000Y-95070395D01*
X112615003Y-93580391D01*
X112428927Y-93239234D01*
X112011591Y-93023487D01*
X111560185Y-92893304D01*
X111092054Y-92853687D01*
X110625189Y-92906158D01*
X110177532Y-93048703D01*
X109821073Y-93239234D01*
X109634997Y-93580391D01*
X102895000Y-93580391D01*
X102895000Y-76582116D01*
X104747423Y-76582116D01*
X104747423Y-77087884D01*
X104846094Y-77583934D01*
X105039643Y-78051204D01*
X105320633Y-78471735D01*
X105678265Y-78829367D01*
X106098796Y-79110357D01*
X106566066Y-79303906D01*
X107062116Y-79402577D01*
X107567884Y-79402577D01*
X108063934Y-79303906D01*
X108531204Y-79110357D01*
X108951735Y-78829367D01*
X109309367Y-78471735D01*
X109590357Y-78051204D01*
X109783906Y-77583934D01*
X109882577Y-77087884D01*
X109882577Y-76582116D01*
X182217423Y-76582116D01*
X182217423Y-77087884D01*
X182316094Y-77583934D01*
X182509643Y-78051204D01*
X182790633Y-78471735D01*
X183148265Y-78829367D01*
X183568796Y-79110357D01*
X184036066Y-79303906D01*
X184532116Y-79402577D01*
X185037884Y-79402577D01*
X185533934Y-79303906D01*
X186001204Y-79110357D01*
X186421735Y-78829367D01*
X186779367Y-78471735D01*
X187060357Y-78051204D01*
X187253906Y-77583934D01*
X187352577Y-77087884D01*
X187352577Y-76582116D01*
X187253906Y-76086066D01*
X187060357Y-75618796D01*
X186779367Y-75198265D01*
X186421735Y-74840633D01*
X186001204Y-74559643D01*
X185533934Y-74366094D01*
X185037884Y-74267423D01*
X184532116Y-74267423D01*
X184036066Y-74366094D01*
X183568796Y-74559643D01*
X183148265Y-74840633D01*
X182790633Y-75198265D01*
X182509643Y-75618796D01*
X182316094Y-76086066D01*
X182217423Y-76582116D01*
X109882577Y-76582116D01*
X109783906Y-76086066D01*
X109590357Y-75618796D01*
X109309367Y-75198265D01*
X108951735Y-74840633D01*
X108531204Y-74559643D01*
X108063934Y-74366094D01*
X107567884Y-74267423D01*
X107062116Y-74267423D01*
X106566066Y-74366094D01*
X106098796Y-74559643D01*
X105678265Y-74840633D01*
X105320633Y-75198265D01*
X105039643Y-75618796D01*
X104846094Y-76086066D01*
X104747423Y-76582116D01*
X102895000Y-76582116D01*
X102895000Y-71885103D01*
X102897775Y-71877312D01*
X102902770Y-71865532D01*
X102905888Y-71856861D01*
X103441143Y-70335239D01*
X103449024Y-70308769D01*
X103457286Y-70282372D01*
X103459543Y-70273438D01*
X103617737Y-69628418D01*
X113386000Y-69628418D01*
X113388749Y-69656332D01*
X113388728Y-69659367D01*
X113389628Y-69668538D01*
X113394764Y-69717399D01*
X113395550Y-69725382D01*
X113395631Y-69725649D01*
X113399992Y-69767140D01*
X113412016Y-69825714D01*
X113423229Y-69884496D01*
X113425893Y-69893317D01*
X113455211Y-69988028D01*
X113478370Y-70043119D01*
X113500798Y-70098632D01*
X113505125Y-70106768D01*
X113552280Y-70193980D01*
X113585730Y-70243571D01*
X113618486Y-70293629D01*
X113624310Y-70300770D01*
X113687507Y-70377162D01*
X113729942Y-70419301D01*
X113771805Y-70462051D01*
X113778906Y-70467925D01*
X113855737Y-70530587D01*
X113905548Y-70563681D01*
X113954921Y-70597488D01*
X113963027Y-70601870D01*
X114050566Y-70648415D01*
X114105841Y-70671197D01*
X114160851Y-70694775D01*
X114169655Y-70697500D01*
X114264568Y-70726156D01*
X114323241Y-70737773D01*
X114381758Y-70750212D01*
X114390923Y-70751175D01*
X114489594Y-70760850D01*
X114489598Y-70760850D01*
X114521581Y-70764000D01*
X117888419Y-70764000D01*
X117916332Y-70761251D01*
X117919367Y-70761272D01*
X117928538Y-70760372D01*
X117977384Y-70755238D01*
X117985383Y-70754450D01*
X117985650Y-70754369D01*
X118027140Y-70750008D01*
X118085714Y-70737984D01*
X118144496Y-70726771D01*
X118153317Y-70724107D01*
X118248028Y-70694789D01*
X118303119Y-70671630D01*
X118358632Y-70649202D01*
X118366768Y-70644875D01*
X118453980Y-70597720D01*
X118503571Y-70564270D01*
X118553629Y-70531514D01*
X118560770Y-70525690D01*
X118637162Y-70462493D01*
X118679301Y-70420058D01*
X118722051Y-70378195D01*
X118727925Y-70371094D01*
X118790587Y-70294263D01*
X118823681Y-70244452D01*
X118857488Y-70195079D01*
X118861870Y-70186973D01*
X118908415Y-70099434D01*
X118931197Y-70044159D01*
X118954775Y-69989149D01*
X118957500Y-69980345D01*
X118986156Y-69885432D01*
X118997773Y-69826759D01*
X119010212Y-69768242D01*
X119011175Y-69759077D01*
X119020850Y-69660406D01*
X119020850Y-69660402D01*
X119024000Y-69628419D01*
X119024000Y-61181581D01*
X119021251Y-61153668D01*
X119021272Y-61150633D01*
X119020372Y-61141462D01*
X119015238Y-61092616D01*
X119014450Y-61084617D01*
X119014369Y-61084350D01*
X119010008Y-61042860D01*
X118997984Y-60984286D01*
X118986771Y-60925504D01*
X118984107Y-60916683D01*
X118954789Y-60821973D01*
X118931636Y-60766895D01*
X118909202Y-60711368D01*
X118904875Y-60703232D01*
X118857720Y-60616020D01*
X118824270Y-60566429D01*
X118791514Y-60516371D01*
X118785689Y-60509230D01*
X118722493Y-60432838D01*
X118680058Y-60390699D01*
X118638195Y-60347949D01*
X118631094Y-60342075D01*
X118554263Y-60279413D01*
X118504467Y-60246329D01*
X118455079Y-60212512D01*
X118446973Y-60208130D01*
X118359434Y-60161585D01*
X118304159Y-60138803D01*
X118249149Y-60115225D01*
X118240346Y-60112500D01*
X118145432Y-60083844D01*
X118086752Y-60072225D01*
X118028242Y-60059788D01*
X118019077Y-60058825D01*
X117920406Y-60049150D01*
X117920402Y-60049150D01*
X117888419Y-60046000D01*
X114521581Y-60046000D01*
X114493668Y-60048749D01*
X114490633Y-60048728D01*
X114481462Y-60049628D01*
X114432616Y-60054762D01*
X114424617Y-60055550D01*
X114424350Y-60055631D01*
X114382860Y-60059992D01*
X114324286Y-60072016D01*
X114265504Y-60083229D01*
X114256683Y-60085893D01*
X114161973Y-60115211D01*
X114106895Y-60138364D01*
X114051368Y-60160798D01*
X114043232Y-60165125D01*
X113956020Y-60212280D01*
X113906429Y-60245730D01*
X113856371Y-60278486D01*
X113849230Y-60284311D01*
X113772838Y-60347507D01*
X113730709Y-60389932D01*
X113687949Y-60431805D01*
X113682075Y-60438906D01*
X113619413Y-60515737D01*
X113586329Y-60565533D01*
X113552512Y-60614921D01*
X113548130Y-60623027D01*
X113501585Y-60710566D01*
X113478813Y-60765816D01*
X113455225Y-60820851D01*
X113452500Y-60829654D01*
X113423844Y-60924568D01*
X113412225Y-60983248D01*
X113399788Y-61041758D01*
X113398825Y-61050923D01*
X113389150Y-61149594D01*
X113389150Y-61149608D01*
X113386001Y-61181581D01*
X113386000Y-69628418D01*
X103617737Y-69628418D01*
X103843759Y-68706846D01*
X103849022Y-68679718D01*
X103854666Y-68652656D01*
X103856041Y-68643544D01*
X104085550Y-67046937D01*
X104088142Y-67019416D01*
X104091117Y-66991942D01*
X104091596Y-66982739D01*
X104164209Y-65371355D01*
X104164103Y-65343745D01*
X104164383Y-65316079D01*
X104163961Y-65306874D01*
X104078983Y-63696094D01*
X104076185Y-63668643D01*
X104073763Y-63641066D01*
X104072445Y-63631946D01*
X103830689Y-62037146D01*
X103825218Y-62010061D01*
X103820123Y-61982889D01*
X103817922Y-61973941D01*
X103421694Y-60410343D01*
X103413604Y-60383914D01*
X103405884Y-60357376D01*
X103402820Y-60348686D01*
X102894998Y-58939690D01*
X102894998Y-51199609D01*
X103919997Y-51199609D01*
X104106073Y-51540766D01*
X104523409Y-51756513D01*
X104974815Y-51886696D01*
X105442946Y-51926313D01*
X105909811Y-51873842D01*
X106357468Y-51731297D01*
X106713927Y-51540766D01*
X106900003Y-51199609D01*
X105410000Y-49709605D01*
X103919997Y-51199609D01*
X102894998Y-51199609D01*
X102894999Y-49562946D01*
X103013687Y-49562946D01*
X103066158Y-50029811D01*
X103208703Y-50477468D01*
X103399234Y-50833927D01*
X103740391Y-51020003D01*
X105230395Y-49530000D01*
X105589605Y-49530000D01*
X107079609Y-51020003D01*
X107420766Y-50833927D01*
X107636513Y-50416591D01*
X107691944Y-50224384D01*
X119961361Y-50224384D01*
X119965762Y-50283994D01*
X119969335Y-50343753D01*
X119970844Y-50352844D01*
X120032134Y-50706858D01*
X120918686Y-57308695D01*
X120922506Y-57324888D01*
X120932787Y-57380191D01*
X120942182Y-57412675D01*
X120948521Y-57445905D01*
X120951185Y-57454727D01*
X121062643Y-57814790D01*
X121085831Y-57869953D01*
X121108233Y-57925399D01*
X121112559Y-57933535D01*
X121291831Y-58265092D01*
X121325276Y-58314676D01*
X121358035Y-58364737D01*
X121363859Y-58371878D01*
X121604117Y-58662300D01*
X121646550Y-58704438D01*
X121688416Y-58747191D01*
X121695517Y-58753065D01*
X121987609Y-58991289D01*
X122037447Y-59024401D01*
X122086792Y-59058188D01*
X122094898Y-59062571D01*
X122427698Y-59239523D01*
X122482973Y-59262305D01*
X122537983Y-59285883D01*
X122546786Y-59288608D01*
X122907618Y-59397550D01*
X122966321Y-59409173D01*
X123024810Y-59421606D01*
X123033975Y-59422569D01*
X123409095Y-59459350D01*
X123409098Y-59459350D01*
X123441081Y-59462500D01*
X136591419Y-59462500D01*
X136597559Y-59461895D01*
X136642372Y-59461059D01*
X136675963Y-59457131D01*
X136709779Y-59456342D01*
X136718919Y-59455165D01*
X137087325Y-59405108D01*
X137145514Y-59391312D01*
X137203924Y-59378323D01*
X137212661Y-59375392D01*
X137564326Y-59254732D01*
X137618743Y-59229889D01*
X137673501Y-59205809D01*
X137681503Y-59201238D01*
X138003036Y-59014569D01*
X138051572Y-58979643D01*
X138100629Y-58945373D01*
X138107590Y-58939334D01*
X138386741Y-58693769D01*
X138427571Y-58650079D01*
X138469035Y-58606935D01*
X138474691Y-58599659D01*
X138700829Y-58304549D01*
X138732380Y-58253786D01*
X138764690Y-58203385D01*
X138768825Y-58195149D01*
X138933336Y-57861735D01*
X138954432Y-57805793D01*
X138976331Y-57750093D01*
X138978788Y-57741211D01*
X139060880Y-57436167D01*
X139064689Y-57427903D01*
X139087425Y-57333160D01*
X140003574Y-50705012D01*
X140014774Y-50652031D01*
X140018548Y-50618038D01*
X140025429Y-50584520D01*
X140026328Y-50575349D01*
X140058268Y-50224384D01*
X152346361Y-50224384D01*
X152350762Y-50283994D01*
X152354335Y-50343753D01*
X152355844Y-50352844D01*
X152417134Y-50706858D01*
X153303686Y-57308695D01*
X153307506Y-57324888D01*
X153317787Y-57380191D01*
X153327182Y-57412675D01*
X153333521Y-57445905D01*
X153336185Y-57454727D01*
X153447643Y-57814790D01*
X153470831Y-57869953D01*
X153493233Y-57925399D01*
X153497559Y-57933535D01*
X153676831Y-58265092D01*
X153710276Y-58314676D01*
X153743035Y-58364737D01*
X153748859Y-58371878D01*
X153989117Y-58662300D01*
X154031550Y-58704438D01*
X154073416Y-58747191D01*
X154080517Y-58753065D01*
X154372609Y-58991289D01*
X154422447Y-59024401D01*
X154471792Y-59058188D01*
X154479898Y-59062571D01*
X154812698Y-59239523D01*
X154867973Y-59262305D01*
X154922983Y-59285883D01*
X154931786Y-59288608D01*
X155292618Y-59397550D01*
X155351321Y-59409173D01*
X155409810Y-59421606D01*
X155418975Y-59422569D01*
X155794095Y-59459350D01*
X155794098Y-59459350D01*
X155826081Y-59462500D01*
X161347596Y-59462500D01*
X161245050Y-59615969D01*
X161149401Y-59846887D01*
X161100639Y-60092028D01*
X161100639Y-60341972D01*
X161149401Y-60587113D01*
X161245050Y-60818031D01*
X161383912Y-61025851D01*
X161560649Y-61202588D01*
X161768469Y-61341450D01*
X161999387Y-61437099D01*
X162244528Y-61485861D01*
X162494472Y-61485861D01*
X162739613Y-61437099D01*
X162970531Y-61341450D01*
X163178351Y-61202588D01*
X163355088Y-61025851D01*
X163493950Y-60818031D01*
X163589599Y-60587113D01*
X163638361Y-60341972D01*
X163638361Y-60092028D01*
X163589599Y-59846887D01*
X163493950Y-59615969D01*
X163391404Y-59462500D01*
X168976419Y-59462500D01*
X168982559Y-59461895D01*
X169027372Y-59461059D01*
X169060963Y-59457131D01*
X169094779Y-59456342D01*
X169103919Y-59455165D01*
X169472325Y-59405108D01*
X169530514Y-59391312D01*
X169588924Y-59378323D01*
X169597661Y-59375392D01*
X169949326Y-59254732D01*
X170003743Y-59229889D01*
X170058501Y-59205809D01*
X170066503Y-59201238D01*
X170388036Y-59014569D01*
X170436572Y-58979643D01*
X170485629Y-58945373D01*
X170492590Y-58939334D01*
X170771741Y-58693769D01*
X170812571Y-58650079D01*
X170854035Y-58606935D01*
X170859691Y-58599659D01*
X171085829Y-58304549D01*
X171117380Y-58253786D01*
X171149690Y-58203385D01*
X171153825Y-58195149D01*
X171318336Y-57861735D01*
X171339432Y-57805793D01*
X171361331Y-57750093D01*
X171363788Y-57741211D01*
X171445880Y-57436167D01*
X171449689Y-57427903D01*
X171472425Y-57333160D01*
X171620465Y-56262116D01*
X182217423Y-56262116D01*
X182217423Y-56767884D01*
X182316094Y-57263934D01*
X182509643Y-57731204D01*
X182790633Y-58151735D01*
X183148265Y-58509367D01*
X183568796Y-58790357D01*
X184036066Y-58983906D01*
X184532116Y-59082577D01*
X185037884Y-59082577D01*
X185533934Y-58983906D01*
X186001204Y-58790357D01*
X186421735Y-58509367D01*
X186779367Y-58151735D01*
X187060357Y-57731204D01*
X187253906Y-57263934D01*
X187352577Y-56767884D01*
X187352577Y-56262116D01*
X187253906Y-55766066D01*
X187060357Y-55298796D01*
X186779367Y-54878265D01*
X186421735Y-54520633D01*
X186001204Y-54239643D01*
X185533934Y-54046094D01*
X185037884Y-53947423D01*
X184532116Y-53947423D01*
X184036066Y-54046094D01*
X183568796Y-54239643D01*
X183148265Y-54520633D01*
X182790633Y-54878265D01*
X182509643Y-55298796D01*
X182316094Y-55766066D01*
X182217423Y-56262116D01*
X171620465Y-56262116D01*
X172320210Y-51199609D01*
X185199997Y-51199609D01*
X185386073Y-51540766D01*
X185803409Y-51756513D01*
X186254815Y-51886696D01*
X186722946Y-51926313D01*
X187189811Y-51873842D01*
X187637468Y-51731297D01*
X187993927Y-51540766D01*
X188180003Y-51199609D01*
X186690000Y-49709605D01*
X185199997Y-51199609D01*
X172320210Y-51199609D01*
X172388574Y-50705012D01*
X172399774Y-50652031D01*
X172403548Y-50618038D01*
X172410429Y-50584520D01*
X172411328Y-50575349D01*
X172445921Y-50195237D01*
X172445503Y-50135420D01*
X172445921Y-50075603D01*
X172445022Y-50066432D01*
X172405126Y-49686839D01*
X172393088Y-49628197D01*
X172381888Y-49569481D01*
X172379916Y-49562946D01*
X184293687Y-49562946D01*
X184346158Y-50029811D01*
X184488703Y-50477468D01*
X184679234Y-50833927D01*
X185020391Y-51020003D01*
X186510395Y-49530000D01*
X186869605Y-49530000D01*
X188359609Y-51020003D01*
X188700766Y-50833927D01*
X188916513Y-50416591D01*
X189046696Y-49965185D01*
X189086313Y-49497054D01*
X189033842Y-49030189D01*
X188891297Y-48582532D01*
X188700766Y-48226073D01*
X188359609Y-48039997D01*
X186869605Y-49530000D01*
X186510395Y-49530000D01*
X185020391Y-48039997D01*
X184679234Y-48226073D01*
X184463487Y-48643409D01*
X184333304Y-49094815D01*
X184293687Y-49562946D01*
X172379916Y-49562946D01*
X172379225Y-49560659D01*
X172266358Y-49196046D01*
X172243175Y-49140898D01*
X172220768Y-49085438D01*
X172216442Y-49077301D01*
X172034904Y-48741555D01*
X172001449Y-48691956D01*
X171968700Y-48641910D01*
X171962876Y-48634769D01*
X171719583Y-48340676D01*
X171677127Y-48298516D01*
X171635283Y-48255786D01*
X171628183Y-48249912D01*
X171332400Y-48008677D01*
X171282589Y-47975583D01*
X171233217Y-47941777D01*
X171225111Y-47937395D01*
X171080289Y-47860391D01*
X185199997Y-47860391D01*
X186690000Y-49350395D01*
X188180003Y-47860391D01*
X187993927Y-47519234D01*
X187576591Y-47303487D01*
X187125185Y-47173304D01*
X186657054Y-47133687D01*
X186190189Y-47186158D01*
X185742532Y-47328703D01*
X185386073Y-47519234D01*
X185199997Y-47860391D01*
X171080289Y-47860391D01*
X170888105Y-47758205D01*
X170832813Y-47735416D01*
X170777817Y-47711844D01*
X170769014Y-47709120D01*
X170403621Y-47598802D01*
X170344948Y-47587185D01*
X170286431Y-47574746D01*
X170277267Y-47573783D01*
X169897405Y-47536537D01*
X169897394Y-47536537D01*
X169865347Y-47533384D01*
X154873510Y-47535004D01*
X154860285Y-47536308D01*
X154725874Y-47541732D01*
X154685313Y-47547368D01*
X154644438Y-47550099D01*
X154635358Y-47551671D01*
X154269470Y-47617651D01*
X154211926Y-47633959D01*
X154154142Y-47649465D01*
X154145540Y-47652772D01*
X153799435Y-47788563D01*
X153746162Y-47815733D01*
X153692483Y-47842172D01*
X153684687Y-47847086D01*
X153371549Y-48047517D01*
X153324576Y-48084511D01*
X153277046Y-48120879D01*
X153270353Y-48127214D01*
X153002109Y-48384651D01*
X152963199Y-48430085D01*
X152923658Y-48474969D01*
X152918323Y-48482483D01*
X152705190Y-48787118D01*
X152675841Y-48839251D01*
X152645774Y-48890957D01*
X152642000Y-48899364D01*
X152492097Y-49239596D01*
X152473456Y-49296368D01*
X152453981Y-49352997D01*
X152451912Y-49361977D01*
X152370949Y-49724845D01*
X152363684Y-49784205D01*
X152355586Y-49843490D01*
X152355301Y-49852700D01*
X152346361Y-50224384D01*
X140058268Y-50224384D01*
X140060921Y-50195237D01*
X140060503Y-50135420D01*
X140060921Y-50075603D01*
X140060022Y-50066432D01*
X140020126Y-49686839D01*
X140008088Y-49628197D01*
X139996888Y-49569481D01*
X139994225Y-49560659D01*
X139881358Y-49196046D01*
X139858175Y-49140898D01*
X139835768Y-49085438D01*
X139831442Y-49077301D01*
X139649904Y-48741555D01*
X139616449Y-48691956D01*
X139583700Y-48641910D01*
X139577876Y-48634769D01*
X139334583Y-48340676D01*
X139292127Y-48298516D01*
X139250283Y-48255786D01*
X139243183Y-48249912D01*
X138947400Y-48008677D01*
X138897589Y-47975583D01*
X138848217Y-47941777D01*
X138840111Y-47937395D01*
X138503105Y-47758205D01*
X138447813Y-47735416D01*
X138392817Y-47711844D01*
X138384014Y-47709120D01*
X138018621Y-47598802D01*
X137959948Y-47587185D01*
X137901431Y-47574746D01*
X137892267Y-47573783D01*
X137512405Y-47536537D01*
X137512394Y-47536537D01*
X137480347Y-47533384D01*
X122488510Y-47535004D01*
X122475285Y-47536308D01*
X122340874Y-47541732D01*
X122300313Y-47547368D01*
X122259438Y-47550099D01*
X122250358Y-47551671D01*
X121884470Y-47617651D01*
X121826926Y-47633959D01*
X121769142Y-47649465D01*
X121760540Y-47652772D01*
X121414435Y-47788563D01*
X121361162Y-47815733D01*
X121307483Y-47842172D01*
X121299687Y-47847086D01*
X120986549Y-48047517D01*
X120939576Y-48084511D01*
X120892046Y-48120879D01*
X120885353Y-48127214D01*
X120617109Y-48384651D01*
X120578199Y-48430085D01*
X120538658Y-48474969D01*
X120533323Y-48482483D01*
X120320190Y-48787118D01*
X120290841Y-48839251D01*
X120260774Y-48890957D01*
X120257000Y-48899364D01*
X120107097Y-49239596D01*
X120088456Y-49296368D01*
X120068981Y-49352997D01*
X120066912Y-49361977D01*
X119985949Y-49724845D01*
X119978684Y-49784205D01*
X119970586Y-49843490D01*
X119970301Y-49852700D01*
X119961361Y-50224384D01*
X107691944Y-50224384D01*
X107766696Y-49965185D01*
X107806313Y-49497054D01*
X107753842Y-49030189D01*
X107611297Y-48582532D01*
X107420766Y-48226073D01*
X107079609Y-48039997D01*
X105589605Y-49530000D01*
X105230395Y-49530000D01*
X103740391Y-48039997D01*
X103399234Y-48226073D01*
X103183487Y-48643409D01*
X103053304Y-49094815D01*
X103013687Y-49562946D01*
X102894999Y-49562946D01*
X102895000Y-49562278D01*
X102946002Y-49042116D01*
X103087694Y-48572812D01*
X103317837Y-48139975D01*
X103545860Y-47860391D01*
X103919997Y-47860391D01*
X105410000Y-49350395D01*
X106900003Y-47860391D01*
X106713927Y-47519234D01*
X106296591Y-47303487D01*
X105845185Y-47173304D01*
X105377054Y-47133687D01*
X104910189Y-47186158D01*
X104462532Y-47328703D01*
X104106073Y-47519234D01*
X103919997Y-47860391D01*
X103545860Y-47860391D01*
X103627678Y-47760073D01*
X104005397Y-47447597D01*
X104436627Y-47214431D01*
X104904928Y-47069468D01*
X105423153Y-47015000D01*
X186657722Y-47015000D01*
X187177884Y-47066002D01*
G37*
%TD.AperFunction*%
%TD*%
M02*
