%TF.GenerationSoftware,KiCad,Pcbnew,(5.1.8)-1*%
%TF.CreationDate,2021-03-23T23:22:00+01:00*%
%TF.ProjectId,ZX Interface 2021 FA1,5a582049-6e74-4657-9266-616365203230,rev?*%
%TF.SameCoordinates,Original*%
%TF.FileFunction,Copper,L2,Bot*%
%TF.FilePolarity,Positive*%
%FSLAX46Y46*%
G04 Gerber Fmt 4.6, Leading zero omitted, Abs format (unit mm)*
G04 Created by KiCad (PCBNEW (5.1.8)-1) date 2021-03-23 23:22:00*
%MOMM*%
%LPD*%
G01*
G04 APERTURE LIST*
%TA.AperFunction,ComponentPad*%
%ADD10C,3.500000*%
%TD*%
%TA.AperFunction,Conductor*%
%ADD11C,0.254000*%
%TD*%
%TA.AperFunction,Conductor*%
%ADD12C,0.100000*%
%TD*%
G04 APERTURE END LIST*
D10*
%TO.P,M1,1*%
%TO.N,Net-(M1-Pad1)*%
X105410000Y-134620000D03*
%TD*%
%TO.P,M2,1*%
%TO.N,Net-(M1-Pad1)*%
X186690000Y-134620000D03*
%TD*%
%TO.P,M3,1*%
%TO.N,Net-(M1-Pad1)*%
X186690000Y-49530000D03*
%TD*%
%TO.P,M5,1*%
%TO.N,Net-(M1-Pad1)*%
X180975000Y-95250000D03*
%TD*%
%TO.P,M6,1*%
%TO.N,Net-(M1-Pad1)*%
X111125000Y-95250000D03*
%TD*%
%TO.P,M4,1*%
%TO.N,Net-(M1-Pad1)*%
X105410000Y-49530000D03*
%TD*%
D11*
%TO.N,Net-(M1-Pad1)*%
X187177884Y-47066002D02*
X187647188Y-47207694D01*
X188080025Y-47437837D01*
X188459927Y-47747678D01*
X188772403Y-48125397D01*
X189005569Y-48556627D01*
X189150532Y-49024928D01*
X189205001Y-49543163D01*
X189205000Y-58924897D01*
X189202227Y-58932686D01*
X189197230Y-58944468D01*
X189194112Y-58953140D01*
X188658857Y-60474761D01*
X188650980Y-60501219D01*
X188642714Y-60527627D01*
X188640457Y-60536562D01*
X188256241Y-62103154D01*
X188250976Y-62130288D01*
X188245334Y-62157344D01*
X188243959Y-62166456D01*
X188014450Y-63763064D01*
X188011859Y-63790577D01*
X188008883Y-63818058D01*
X188008404Y-63827261D01*
X187935791Y-65438645D01*
X187935897Y-65466255D01*
X187935617Y-65493921D01*
X187936039Y-65503127D01*
X188021017Y-67113906D01*
X188023815Y-67141357D01*
X188026237Y-67168934D01*
X188027555Y-67178054D01*
X188269311Y-68772855D01*
X188274782Y-68799941D01*
X188279877Y-68827111D01*
X188282078Y-68836060D01*
X188678306Y-70399657D01*
X188686388Y-70426058D01*
X188694116Y-70452624D01*
X188697180Y-70461314D01*
X189205001Y-71870308D01*
X189205000Y-138397725D01*
X189204335Y-138404513D01*
X189199699Y-138405000D01*
X102902275Y-138405000D01*
X102895487Y-138404335D01*
X102895000Y-138399699D01*
X102895000Y-136289609D01*
X103919997Y-136289609D01*
X104106073Y-136630766D01*
X104523409Y-136846513D01*
X104974815Y-136976696D01*
X105442946Y-137016313D01*
X105909811Y-136963842D01*
X106357468Y-136821297D01*
X106713927Y-136630766D01*
X106900003Y-136289609D01*
X185199997Y-136289609D01*
X185386073Y-136630766D01*
X185803409Y-136846513D01*
X186254815Y-136976696D01*
X186722946Y-137016313D01*
X187189811Y-136963842D01*
X187637468Y-136821297D01*
X187993927Y-136630766D01*
X188180003Y-136289609D01*
X186690000Y-134799605D01*
X185199997Y-136289609D01*
X106900003Y-136289609D01*
X105410000Y-134799605D01*
X103919997Y-136289609D01*
X102895000Y-136289609D01*
X102895000Y-134652946D01*
X103013687Y-134652946D01*
X103066158Y-135119811D01*
X103208703Y-135567468D01*
X103399234Y-135923927D01*
X103740391Y-136110003D01*
X105230395Y-134620000D01*
X105589605Y-134620000D01*
X107079609Y-136110003D01*
X107420766Y-135923927D01*
X107636513Y-135506591D01*
X107766696Y-135055185D01*
X107800736Y-134652946D01*
X184293687Y-134652946D01*
X184346158Y-135119811D01*
X184488703Y-135567468D01*
X184679234Y-135923927D01*
X185020391Y-136110003D01*
X186510395Y-134620000D01*
X186869605Y-134620000D01*
X188359609Y-136110003D01*
X188700766Y-135923927D01*
X188916513Y-135506591D01*
X189046696Y-135055185D01*
X189086313Y-134587054D01*
X189033842Y-134120189D01*
X188891297Y-133672532D01*
X188700766Y-133316073D01*
X188359609Y-133129997D01*
X186869605Y-134620000D01*
X186510395Y-134620000D01*
X185020391Y-133129997D01*
X184679234Y-133316073D01*
X184463487Y-133733409D01*
X184333304Y-134184815D01*
X184293687Y-134652946D01*
X107800736Y-134652946D01*
X107806313Y-134587054D01*
X107753842Y-134120189D01*
X107611297Y-133672532D01*
X107420766Y-133316073D01*
X107079609Y-133129997D01*
X105589605Y-134620000D01*
X105230395Y-134620000D01*
X103740391Y-133129997D01*
X103399234Y-133316073D01*
X103183487Y-133733409D01*
X103053304Y-134184815D01*
X103013687Y-134652946D01*
X102895000Y-134652946D01*
X102895000Y-132950391D01*
X103919997Y-132950391D01*
X105410000Y-134440395D01*
X106900003Y-132950391D01*
X185199997Y-132950391D01*
X186690000Y-134440395D01*
X188180003Y-132950391D01*
X187993927Y-132609234D01*
X187576591Y-132393487D01*
X187125185Y-132263304D01*
X186657054Y-132223687D01*
X186190189Y-132276158D01*
X185742532Y-132418703D01*
X185386073Y-132609234D01*
X185199997Y-132950391D01*
X106900003Y-132950391D01*
X106713927Y-132609234D01*
X106296591Y-132393487D01*
X105845185Y-132263304D01*
X105377054Y-132223687D01*
X104910189Y-132276158D01*
X104462532Y-132418703D01*
X104106073Y-132609234D01*
X103919997Y-132950391D01*
X102895000Y-132950391D01*
X102895000Y-96919609D01*
X109634997Y-96919609D01*
X109821073Y-97260766D01*
X110238409Y-97476513D01*
X110689815Y-97606696D01*
X111157946Y-97646313D01*
X111624811Y-97593842D01*
X112072468Y-97451297D01*
X112428927Y-97260766D01*
X112615003Y-96919609D01*
X111125000Y-95429605D01*
X109634997Y-96919609D01*
X102895000Y-96919609D01*
X102895000Y-95282946D01*
X108728687Y-95282946D01*
X108781158Y-95749811D01*
X108923703Y-96197468D01*
X109114234Y-96553927D01*
X109455391Y-96740003D01*
X110945395Y-95250000D01*
X111304605Y-95250000D01*
X112794609Y-96740003D01*
X113135766Y-96553927D01*
X113351513Y-96136591D01*
X113386001Y-96017006D01*
X113386001Y-100108419D01*
X113388749Y-100136323D01*
X113388728Y-100139367D01*
X113389628Y-100148538D01*
X113394778Y-100197535D01*
X113395551Y-100205383D01*
X113395630Y-100205645D01*
X113399992Y-100247140D01*
X113412016Y-100305714D01*
X113423229Y-100364496D01*
X113425893Y-100373317D01*
X113455211Y-100468028D01*
X113478370Y-100523119D01*
X113500798Y-100578632D01*
X113505125Y-100586768D01*
X113552280Y-100673980D01*
X113585730Y-100723571D01*
X113618486Y-100773629D01*
X113624310Y-100780770D01*
X113687507Y-100857162D01*
X113729942Y-100899301D01*
X113771805Y-100942051D01*
X113778906Y-100947925D01*
X113855737Y-101010587D01*
X113905548Y-101043681D01*
X113954921Y-101077488D01*
X113963027Y-101081870D01*
X114050566Y-101128415D01*
X114105841Y-101151197D01*
X114160851Y-101174775D01*
X114169655Y-101177500D01*
X114264568Y-101206156D01*
X114323241Y-101217773D01*
X114381758Y-101230212D01*
X114390923Y-101231175D01*
X114489594Y-101240850D01*
X114489598Y-101240850D01*
X114521581Y-101244000D01*
X177578419Y-101244000D01*
X177606332Y-101241251D01*
X177609367Y-101241272D01*
X177618538Y-101240372D01*
X177667384Y-101235238D01*
X177675383Y-101234450D01*
X177675650Y-101234369D01*
X177717140Y-101230008D01*
X177775714Y-101217984D01*
X177834496Y-101206771D01*
X177843317Y-101204107D01*
X177938028Y-101174789D01*
X177993119Y-101151630D01*
X178048632Y-101129202D01*
X178056768Y-101124875D01*
X178143980Y-101077720D01*
X178193571Y-101044270D01*
X178243629Y-101011514D01*
X178250770Y-101005690D01*
X178327162Y-100942493D01*
X178369301Y-100900058D01*
X178412051Y-100858195D01*
X178417925Y-100851094D01*
X178480587Y-100774263D01*
X178513681Y-100724452D01*
X178547488Y-100675079D01*
X178551870Y-100666973D01*
X178598415Y-100579434D01*
X178621197Y-100524159D01*
X178644775Y-100469149D01*
X178647500Y-100460345D01*
X178676156Y-100365432D01*
X178687773Y-100306759D01*
X178700212Y-100248242D01*
X178701175Y-100239077D01*
X178710850Y-100140406D01*
X178710850Y-100140402D01*
X178714000Y-100108419D01*
X178714000Y-96919609D01*
X179484997Y-96919609D01*
X179671073Y-97260766D01*
X180088409Y-97476513D01*
X180539815Y-97606696D01*
X181007946Y-97646313D01*
X181474811Y-97593842D01*
X181922468Y-97451297D01*
X182278927Y-97260766D01*
X182465003Y-96919609D01*
X180975000Y-95429605D01*
X179484997Y-96919609D01*
X178714000Y-96919609D01*
X178714000Y-96009973D01*
X178773703Y-96197468D01*
X178964234Y-96553927D01*
X179305391Y-96740003D01*
X180795395Y-95250000D01*
X181154605Y-95250000D01*
X182644609Y-96740003D01*
X182985766Y-96553927D01*
X183201513Y-96136591D01*
X183331696Y-95685185D01*
X183371313Y-95217054D01*
X183318842Y-94750189D01*
X183176297Y-94302532D01*
X182985766Y-93946073D01*
X182644609Y-93759997D01*
X181154605Y-95250000D01*
X180795395Y-95250000D01*
X179305391Y-93759997D01*
X178964234Y-93946073D01*
X178748487Y-94363409D01*
X178714000Y-94482992D01*
X178714000Y-93580391D01*
X179484997Y-93580391D01*
X180975000Y-95070395D01*
X182465003Y-93580391D01*
X182278927Y-93239234D01*
X181861591Y-93023487D01*
X181410185Y-92893304D01*
X180942054Y-92853687D01*
X180475189Y-92906158D01*
X180027532Y-93048703D01*
X179671073Y-93239234D01*
X179484997Y-93580391D01*
X178714000Y-93580391D01*
X178714000Y-90391581D01*
X178711251Y-90363668D01*
X178711272Y-90360633D01*
X178710372Y-90351462D01*
X178705238Y-90302616D01*
X178704450Y-90294617D01*
X178704369Y-90294350D01*
X178700008Y-90252860D01*
X178687984Y-90194286D01*
X178676771Y-90135504D01*
X178674107Y-90126683D01*
X178644789Y-90031973D01*
X178621636Y-89976895D01*
X178599202Y-89921368D01*
X178594875Y-89913232D01*
X178547720Y-89826020D01*
X178514270Y-89776429D01*
X178481514Y-89726371D01*
X178475689Y-89719230D01*
X178412493Y-89642838D01*
X178370058Y-89600699D01*
X178328195Y-89557949D01*
X178321094Y-89552075D01*
X178244263Y-89489413D01*
X178194467Y-89456329D01*
X178145079Y-89422512D01*
X178136973Y-89418130D01*
X178049434Y-89371585D01*
X177994159Y-89348803D01*
X177939149Y-89325225D01*
X177930346Y-89322500D01*
X177835432Y-89293844D01*
X177776752Y-89282225D01*
X177718242Y-89269788D01*
X177709077Y-89268825D01*
X177610406Y-89259150D01*
X177610402Y-89259150D01*
X177578419Y-89256000D01*
X114521581Y-89256000D01*
X114493668Y-89258749D01*
X114490633Y-89258728D01*
X114481462Y-89259628D01*
X114432616Y-89264762D01*
X114424617Y-89265550D01*
X114424350Y-89265631D01*
X114382860Y-89269992D01*
X114324286Y-89282016D01*
X114265504Y-89293229D01*
X114256683Y-89295893D01*
X114161973Y-89325211D01*
X114106895Y-89348364D01*
X114051368Y-89370798D01*
X114043232Y-89375125D01*
X113956020Y-89422280D01*
X113906429Y-89455730D01*
X113856371Y-89488486D01*
X113849230Y-89494311D01*
X113772838Y-89557507D01*
X113730709Y-89599932D01*
X113687949Y-89641805D01*
X113682075Y-89648906D01*
X113619413Y-89725737D01*
X113586329Y-89775533D01*
X113552512Y-89824921D01*
X113548130Y-89833027D01*
X113501585Y-89920566D01*
X113478813Y-89975816D01*
X113455225Y-90030851D01*
X113452500Y-90039654D01*
X113423844Y-90134568D01*
X113412225Y-90193248D01*
X113399788Y-90251758D01*
X113398825Y-90260923D01*
X113389150Y-90359594D01*
X113389150Y-90359599D01*
X113386000Y-90391582D01*
X113386000Y-94490028D01*
X113326297Y-94302532D01*
X113135766Y-93946073D01*
X112794609Y-93759997D01*
X111304605Y-95250000D01*
X110945395Y-95250000D01*
X109455391Y-93759997D01*
X109114234Y-93946073D01*
X108898487Y-94363409D01*
X108768304Y-94814815D01*
X108728687Y-95282946D01*
X102895000Y-95282946D01*
X102895000Y-93580391D01*
X109634997Y-93580391D01*
X111125000Y-95070395D01*
X112615003Y-93580391D01*
X112428927Y-93239234D01*
X112011591Y-93023487D01*
X111560185Y-92893304D01*
X111092054Y-92853687D01*
X110625189Y-92906158D01*
X110177532Y-93048703D01*
X109821073Y-93239234D01*
X109634997Y-93580391D01*
X102895000Y-93580391D01*
X102895000Y-76582116D01*
X104747423Y-76582116D01*
X104747423Y-77087884D01*
X104846094Y-77583934D01*
X105039643Y-78051204D01*
X105320633Y-78471735D01*
X105678265Y-78829367D01*
X106098796Y-79110357D01*
X106566066Y-79303906D01*
X107062116Y-79402577D01*
X107567884Y-79402577D01*
X108063934Y-79303906D01*
X108531204Y-79110357D01*
X108951735Y-78829367D01*
X109309367Y-78471735D01*
X109590357Y-78051204D01*
X109783906Y-77583934D01*
X109882577Y-77087884D01*
X109882577Y-76582116D01*
X182217423Y-76582116D01*
X182217423Y-77087884D01*
X182316094Y-77583934D01*
X182509643Y-78051204D01*
X182790633Y-78471735D01*
X183148265Y-78829367D01*
X183568796Y-79110357D01*
X184036066Y-79303906D01*
X184532116Y-79402577D01*
X185037884Y-79402577D01*
X185533934Y-79303906D01*
X186001204Y-79110357D01*
X186421735Y-78829367D01*
X186779367Y-78471735D01*
X187060357Y-78051204D01*
X187253906Y-77583934D01*
X187352577Y-77087884D01*
X187352577Y-76582116D01*
X187253906Y-76086066D01*
X187060357Y-75618796D01*
X186779367Y-75198265D01*
X186421735Y-74840633D01*
X186001204Y-74559643D01*
X185533934Y-74366094D01*
X185037884Y-74267423D01*
X184532116Y-74267423D01*
X184036066Y-74366094D01*
X183568796Y-74559643D01*
X183148265Y-74840633D01*
X182790633Y-75198265D01*
X182509643Y-75618796D01*
X182316094Y-76086066D01*
X182217423Y-76582116D01*
X109882577Y-76582116D01*
X109783906Y-76086066D01*
X109590357Y-75618796D01*
X109309367Y-75198265D01*
X108951735Y-74840633D01*
X108531204Y-74559643D01*
X108063934Y-74366094D01*
X107567884Y-74267423D01*
X107062116Y-74267423D01*
X106566066Y-74366094D01*
X106098796Y-74559643D01*
X105678265Y-74840633D01*
X105320633Y-75198265D01*
X105039643Y-75618796D01*
X104846094Y-76086066D01*
X104747423Y-76582116D01*
X102895000Y-76582116D01*
X102895000Y-71885103D01*
X102897775Y-71877312D01*
X102902770Y-71865532D01*
X102905888Y-71856861D01*
X103441143Y-70335239D01*
X103449024Y-70308769D01*
X103457286Y-70282372D01*
X103459543Y-70273438D01*
X103617737Y-69628418D01*
X113386000Y-69628418D01*
X113388749Y-69656332D01*
X113388728Y-69659367D01*
X113389628Y-69668538D01*
X113394764Y-69717399D01*
X113395550Y-69725382D01*
X113395631Y-69725649D01*
X113399992Y-69767140D01*
X113412016Y-69825714D01*
X113423229Y-69884496D01*
X113425893Y-69893317D01*
X113455211Y-69988028D01*
X113478370Y-70043119D01*
X113500798Y-70098632D01*
X113505125Y-70106768D01*
X113552280Y-70193980D01*
X113585730Y-70243571D01*
X113618486Y-70293629D01*
X113624310Y-70300770D01*
X113687507Y-70377162D01*
X113729942Y-70419301D01*
X113771805Y-70462051D01*
X113778906Y-70467925D01*
X113855737Y-70530587D01*
X113905548Y-70563681D01*
X113954921Y-70597488D01*
X113963027Y-70601870D01*
X114050566Y-70648415D01*
X114105841Y-70671197D01*
X114160851Y-70694775D01*
X114169655Y-70697500D01*
X114264568Y-70726156D01*
X114323241Y-70737773D01*
X114381758Y-70750212D01*
X114390923Y-70751175D01*
X114489594Y-70760850D01*
X114489598Y-70760850D01*
X114521581Y-70764000D01*
X117888419Y-70764000D01*
X117916332Y-70761251D01*
X117919367Y-70761272D01*
X117928538Y-70760372D01*
X117977384Y-70755238D01*
X117985383Y-70754450D01*
X117985650Y-70754369D01*
X118027140Y-70750008D01*
X118085714Y-70737984D01*
X118144496Y-70726771D01*
X118153317Y-70724107D01*
X118248028Y-70694789D01*
X118303119Y-70671630D01*
X118358632Y-70649202D01*
X118366768Y-70644875D01*
X118453980Y-70597720D01*
X118503571Y-70564270D01*
X118553629Y-70531514D01*
X118560770Y-70525690D01*
X118637162Y-70462493D01*
X118679301Y-70420058D01*
X118722051Y-70378195D01*
X118727925Y-70371094D01*
X118790587Y-70294263D01*
X118823681Y-70244452D01*
X118857488Y-70195079D01*
X118861870Y-70186973D01*
X118908415Y-70099434D01*
X118931197Y-70044159D01*
X118954775Y-69989149D01*
X118957500Y-69980345D01*
X118986156Y-69885432D01*
X118997773Y-69826759D01*
X119010212Y-69768242D01*
X119011175Y-69759077D01*
X119020850Y-69660406D01*
X119020850Y-69660402D01*
X119024000Y-69628419D01*
X119024000Y-61181581D01*
X119021251Y-61153668D01*
X119021272Y-61150633D01*
X119020372Y-61141462D01*
X119015238Y-61092616D01*
X119014450Y-61084617D01*
X119014369Y-61084350D01*
X119010008Y-61042860D01*
X118997984Y-60984286D01*
X118986771Y-60925504D01*
X118984107Y-60916683D01*
X118954789Y-60821973D01*
X118931636Y-60766895D01*
X118909202Y-60711368D01*
X118904875Y-60703232D01*
X118857720Y-60616020D01*
X118824270Y-60566429D01*
X118791514Y-60516371D01*
X118785689Y-60509230D01*
X118722493Y-60432838D01*
X118680058Y-60390699D01*
X118638195Y-60347949D01*
X118631094Y-60342075D01*
X118554263Y-60279413D01*
X118504467Y-60246329D01*
X118455079Y-60212512D01*
X118446973Y-60208130D01*
X118359434Y-60161585D01*
X118304159Y-60138803D01*
X118249149Y-60115225D01*
X118240346Y-60112500D01*
X118145432Y-60083844D01*
X118086752Y-60072225D01*
X118028242Y-60059788D01*
X118019077Y-60058825D01*
X117920406Y-60049150D01*
X117920402Y-60049150D01*
X117888419Y-60046000D01*
X114521581Y-60046000D01*
X114493668Y-60048749D01*
X114490633Y-60048728D01*
X114481462Y-60049628D01*
X114432616Y-60054762D01*
X114424617Y-60055550D01*
X114424350Y-60055631D01*
X114382860Y-60059992D01*
X114324286Y-60072016D01*
X114265504Y-60083229D01*
X114256683Y-60085893D01*
X114161973Y-60115211D01*
X114106895Y-60138364D01*
X114051368Y-60160798D01*
X114043232Y-60165125D01*
X113956020Y-60212280D01*
X113906429Y-60245730D01*
X113856371Y-60278486D01*
X113849230Y-60284311D01*
X113772838Y-60347507D01*
X113730709Y-60389932D01*
X113687949Y-60431805D01*
X113682075Y-60438906D01*
X113619413Y-60515737D01*
X113586329Y-60565533D01*
X113552512Y-60614921D01*
X113548130Y-60623027D01*
X113501585Y-60710566D01*
X113478813Y-60765816D01*
X113455225Y-60820851D01*
X113452500Y-60829654D01*
X113423844Y-60924568D01*
X113412225Y-60983248D01*
X113399788Y-61041758D01*
X113398825Y-61050923D01*
X113389150Y-61149594D01*
X113389150Y-61149608D01*
X113386001Y-61181581D01*
X113386000Y-69628418D01*
X103617737Y-69628418D01*
X103843759Y-68706846D01*
X103849022Y-68679718D01*
X103854666Y-68652656D01*
X103856041Y-68643544D01*
X104085550Y-67046937D01*
X104088142Y-67019416D01*
X104091117Y-66991942D01*
X104091596Y-66982739D01*
X104164209Y-65371355D01*
X104164103Y-65343745D01*
X104164383Y-65316079D01*
X104163961Y-65306874D01*
X104078983Y-63696094D01*
X104076185Y-63668643D01*
X104073763Y-63641066D01*
X104072445Y-63631946D01*
X103830689Y-62037146D01*
X103825218Y-62010061D01*
X103820123Y-61982889D01*
X103817922Y-61973941D01*
X103421694Y-60410343D01*
X103413604Y-60383914D01*
X103405884Y-60357376D01*
X103402820Y-60348686D01*
X102894998Y-58939690D01*
X102894998Y-51199609D01*
X103919997Y-51199609D01*
X104106073Y-51540766D01*
X104523409Y-51756513D01*
X104974815Y-51886696D01*
X105442946Y-51926313D01*
X105909811Y-51873842D01*
X106357468Y-51731297D01*
X106713927Y-51540766D01*
X106900003Y-51199609D01*
X105410000Y-49709605D01*
X103919997Y-51199609D01*
X102894998Y-51199609D01*
X102894999Y-49562946D01*
X103013687Y-49562946D01*
X103066158Y-50029811D01*
X103208703Y-50477468D01*
X103399234Y-50833927D01*
X103740391Y-51020003D01*
X105230395Y-49530000D01*
X105589605Y-49530000D01*
X107079609Y-51020003D01*
X107420766Y-50833927D01*
X107529091Y-50624384D01*
X120461361Y-50624384D01*
X120465762Y-50683994D01*
X120469335Y-50743753D01*
X120470844Y-50752844D01*
X120533168Y-51112830D01*
X121420978Y-56920504D01*
X121423604Y-56930793D01*
X121432787Y-56980191D01*
X121442182Y-57012675D01*
X121448521Y-57045905D01*
X121451185Y-57054727D01*
X121562643Y-57414790D01*
X121585831Y-57469953D01*
X121608233Y-57525399D01*
X121612559Y-57533535D01*
X121791831Y-57865092D01*
X121825276Y-57914676D01*
X121858035Y-57964737D01*
X121863859Y-57971878D01*
X122104117Y-58262300D01*
X122146550Y-58304438D01*
X122188416Y-58347191D01*
X122195517Y-58353065D01*
X122487609Y-58591289D01*
X122537447Y-58624401D01*
X122586792Y-58658188D01*
X122594898Y-58662571D01*
X122927698Y-58839523D01*
X122982973Y-58862305D01*
X123037983Y-58885883D01*
X123046786Y-58888608D01*
X123407618Y-58997550D01*
X123466321Y-59009173D01*
X123524810Y-59021606D01*
X123533975Y-59022569D01*
X123909095Y-59059350D01*
X123909098Y-59059350D01*
X123941081Y-59062500D01*
X136091419Y-59062500D01*
X136097559Y-59061895D01*
X136142372Y-59061059D01*
X136175963Y-59057131D01*
X136209779Y-59056342D01*
X136218919Y-59055165D01*
X136587325Y-59005108D01*
X136645514Y-58991312D01*
X136703924Y-58978323D01*
X136712661Y-58975392D01*
X137064326Y-58854732D01*
X137118743Y-58829889D01*
X137173501Y-58805809D01*
X137181503Y-58801238D01*
X137503036Y-58614569D01*
X137551572Y-58579643D01*
X137600629Y-58545373D01*
X137607590Y-58539334D01*
X137886741Y-58293769D01*
X137927571Y-58250079D01*
X137969035Y-58206935D01*
X137974691Y-58199659D01*
X138200829Y-57904549D01*
X138232380Y-57853786D01*
X138264690Y-57803385D01*
X138268825Y-57795149D01*
X138433336Y-57461735D01*
X138454432Y-57405793D01*
X138476331Y-57350093D01*
X138478788Y-57341211D01*
X138559273Y-57042139D01*
X138560541Y-57039517D01*
X138585035Y-56945213D01*
X139502307Y-51111007D01*
X139514774Y-51052031D01*
X139518548Y-51018038D01*
X139525429Y-50984520D01*
X139526328Y-50975349D01*
X139558268Y-50624384D01*
X152846361Y-50624384D01*
X152850762Y-50683994D01*
X152854335Y-50743753D01*
X152855844Y-50752844D01*
X152918168Y-51112830D01*
X153805978Y-56920504D01*
X153808604Y-56930793D01*
X153817787Y-56980191D01*
X153827182Y-57012675D01*
X153833521Y-57045905D01*
X153836185Y-57054727D01*
X153947643Y-57414790D01*
X153970831Y-57469953D01*
X153993233Y-57525399D01*
X153997559Y-57533535D01*
X154176831Y-57865092D01*
X154210276Y-57914676D01*
X154243035Y-57964737D01*
X154248859Y-57971878D01*
X154489117Y-58262300D01*
X154531550Y-58304438D01*
X154573416Y-58347191D01*
X154580517Y-58353065D01*
X154872609Y-58591289D01*
X154922447Y-58624401D01*
X154971792Y-58658188D01*
X154979898Y-58662571D01*
X155312698Y-58839523D01*
X155367973Y-58862305D01*
X155422983Y-58885883D01*
X155431786Y-58888608D01*
X155792618Y-58997550D01*
X155851321Y-59009173D01*
X155909810Y-59021606D01*
X155918975Y-59022569D01*
X156294095Y-59059350D01*
X156294098Y-59059350D01*
X156326081Y-59062500D01*
X161347596Y-59062500D01*
X161245050Y-59215969D01*
X161149401Y-59446887D01*
X161100639Y-59692028D01*
X161100639Y-59941972D01*
X161149401Y-60187113D01*
X161245050Y-60418031D01*
X161383912Y-60625851D01*
X161560649Y-60802588D01*
X161768469Y-60941450D01*
X161999387Y-61037099D01*
X162244528Y-61085861D01*
X162494472Y-61085861D01*
X162739613Y-61037099D01*
X162970531Y-60941450D01*
X163178351Y-60802588D01*
X163355088Y-60625851D01*
X163493950Y-60418031D01*
X163589599Y-60187113D01*
X163638361Y-59941972D01*
X163638361Y-59692028D01*
X163589599Y-59446887D01*
X163493950Y-59215969D01*
X163391404Y-59062500D01*
X168476419Y-59062500D01*
X168482559Y-59061895D01*
X168527372Y-59061059D01*
X168560963Y-59057131D01*
X168594779Y-59056342D01*
X168603919Y-59055165D01*
X168972325Y-59005108D01*
X169030514Y-58991312D01*
X169088924Y-58978323D01*
X169097661Y-58975392D01*
X169449326Y-58854732D01*
X169503743Y-58829889D01*
X169558501Y-58805809D01*
X169566503Y-58801238D01*
X169888036Y-58614569D01*
X169936572Y-58579643D01*
X169985629Y-58545373D01*
X169992590Y-58539334D01*
X170271741Y-58293769D01*
X170312571Y-58250079D01*
X170354035Y-58206935D01*
X170359691Y-58199659D01*
X170585829Y-57904549D01*
X170617380Y-57853786D01*
X170649690Y-57803385D01*
X170653825Y-57795149D01*
X170818336Y-57461735D01*
X170839432Y-57405793D01*
X170861331Y-57350093D01*
X170863788Y-57341211D01*
X170944273Y-57042139D01*
X170945541Y-57039517D01*
X170970035Y-56945213D01*
X171077433Y-56262116D01*
X182217423Y-56262116D01*
X182217423Y-56767884D01*
X182316094Y-57263934D01*
X182509643Y-57731204D01*
X182790633Y-58151735D01*
X183148265Y-58509367D01*
X183568796Y-58790357D01*
X184036066Y-58983906D01*
X184532116Y-59082577D01*
X185037884Y-59082577D01*
X185533934Y-58983906D01*
X186001204Y-58790357D01*
X186421735Y-58509367D01*
X186779367Y-58151735D01*
X187060357Y-57731204D01*
X187253906Y-57263934D01*
X187352577Y-56767884D01*
X187352577Y-56262116D01*
X187253906Y-55766066D01*
X187060357Y-55298796D01*
X186779367Y-54878265D01*
X186421735Y-54520633D01*
X186001204Y-54239643D01*
X185533934Y-54046094D01*
X185037884Y-53947423D01*
X184532116Y-53947423D01*
X184036066Y-54046094D01*
X183568796Y-54239643D01*
X183148265Y-54520633D01*
X182790633Y-54878265D01*
X182509643Y-55298796D01*
X182316094Y-55766066D01*
X182217423Y-56262116D01*
X171077433Y-56262116D01*
X171873376Y-51199609D01*
X185199997Y-51199609D01*
X185386073Y-51540766D01*
X185803409Y-51756513D01*
X186254815Y-51886696D01*
X186722946Y-51926313D01*
X187189811Y-51873842D01*
X187637468Y-51731297D01*
X187993927Y-51540766D01*
X188180003Y-51199609D01*
X186690000Y-49709605D01*
X185199997Y-51199609D01*
X171873376Y-51199609D01*
X171887307Y-51111007D01*
X171899774Y-51052031D01*
X171903548Y-51018038D01*
X171910429Y-50984520D01*
X171911328Y-50975349D01*
X171945921Y-50595237D01*
X171945503Y-50535420D01*
X171945921Y-50475603D01*
X171945022Y-50466432D01*
X171905126Y-50086839D01*
X171893088Y-50028197D01*
X171881888Y-49969481D01*
X171879225Y-49960659D01*
X171766358Y-49596046D01*
X171752444Y-49562946D01*
X184293687Y-49562946D01*
X184346158Y-50029811D01*
X184488703Y-50477468D01*
X184679234Y-50833927D01*
X185020391Y-51020003D01*
X186510395Y-49530000D01*
X186869605Y-49530000D01*
X188359609Y-51020003D01*
X188700766Y-50833927D01*
X188916513Y-50416591D01*
X189046696Y-49965185D01*
X189086313Y-49497054D01*
X189033842Y-49030189D01*
X188891297Y-48582532D01*
X188700766Y-48226073D01*
X188359609Y-48039997D01*
X186869605Y-49530000D01*
X186510395Y-49530000D01*
X185020391Y-48039997D01*
X184679234Y-48226073D01*
X184463487Y-48643409D01*
X184333304Y-49094815D01*
X184293687Y-49562946D01*
X171752444Y-49562946D01*
X171743175Y-49540898D01*
X171720768Y-49485438D01*
X171716442Y-49477301D01*
X171534904Y-49141555D01*
X171501449Y-49091956D01*
X171468700Y-49041910D01*
X171462876Y-49034769D01*
X171219583Y-48740676D01*
X171177127Y-48698516D01*
X171135283Y-48655786D01*
X171128183Y-48649912D01*
X170832400Y-48408677D01*
X170782589Y-48375583D01*
X170733217Y-48341777D01*
X170725111Y-48337395D01*
X170388105Y-48158205D01*
X170332813Y-48135416D01*
X170277817Y-48111844D01*
X170269014Y-48109120D01*
X169903621Y-47998802D01*
X169844948Y-47987185D01*
X169786431Y-47974746D01*
X169777267Y-47973783D01*
X169397405Y-47936537D01*
X169397393Y-47936537D01*
X169365342Y-47933384D01*
X155373505Y-47935004D01*
X155360279Y-47936308D01*
X155225874Y-47941732D01*
X155185313Y-47947368D01*
X155144438Y-47950099D01*
X155135358Y-47951671D01*
X154769470Y-48017651D01*
X154711926Y-48033959D01*
X154654142Y-48049465D01*
X154645540Y-48052772D01*
X154299435Y-48188563D01*
X154246162Y-48215733D01*
X154192483Y-48242172D01*
X154184687Y-48247086D01*
X153871549Y-48447517D01*
X153824576Y-48484511D01*
X153777046Y-48520879D01*
X153770353Y-48527214D01*
X153502109Y-48784651D01*
X153463199Y-48830085D01*
X153423658Y-48874969D01*
X153418323Y-48882483D01*
X153205190Y-49187118D01*
X153175841Y-49239251D01*
X153145774Y-49290957D01*
X153142000Y-49299364D01*
X152992097Y-49639596D01*
X152973456Y-49696368D01*
X152953981Y-49752997D01*
X152951912Y-49761977D01*
X152870949Y-50124845D01*
X152863684Y-50184205D01*
X152855586Y-50243490D01*
X152855301Y-50252700D01*
X152846361Y-50624384D01*
X139558268Y-50624384D01*
X139560921Y-50595237D01*
X139560503Y-50535420D01*
X139560921Y-50475603D01*
X139560022Y-50466432D01*
X139520126Y-50086839D01*
X139508088Y-50028197D01*
X139496888Y-49969481D01*
X139494225Y-49960659D01*
X139381358Y-49596046D01*
X139358175Y-49540898D01*
X139335768Y-49485438D01*
X139331442Y-49477301D01*
X139149904Y-49141555D01*
X139116449Y-49091956D01*
X139083700Y-49041910D01*
X139077876Y-49034769D01*
X138834583Y-48740676D01*
X138792127Y-48698516D01*
X138750283Y-48655786D01*
X138743183Y-48649912D01*
X138447400Y-48408677D01*
X138397589Y-48375583D01*
X138348217Y-48341777D01*
X138340111Y-48337395D01*
X138003105Y-48158205D01*
X137947813Y-48135416D01*
X137892817Y-48111844D01*
X137884014Y-48109120D01*
X137518621Y-47998802D01*
X137459948Y-47987185D01*
X137401431Y-47974746D01*
X137392267Y-47973783D01*
X137012405Y-47936537D01*
X137012393Y-47936537D01*
X136980342Y-47933384D01*
X122988505Y-47935004D01*
X122975279Y-47936308D01*
X122840874Y-47941732D01*
X122800313Y-47947368D01*
X122759438Y-47950099D01*
X122750358Y-47951671D01*
X122384470Y-48017651D01*
X122326926Y-48033959D01*
X122269142Y-48049465D01*
X122260540Y-48052772D01*
X121914435Y-48188563D01*
X121861162Y-48215733D01*
X121807483Y-48242172D01*
X121799687Y-48247086D01*
X121486549Y-48447517D01*
X121439576Y-48484511D01*
X121392046Y-48520879D01*
X121385353Y-48527214D01*
X121117109Y-48784651D01*
X121078199Y-48830085D01*
X121038658Y-48874969D01*
X121033323Y-48882483D01*
X120820190Y-49187118D01*
X120790841Y-49239251D01*
X120760774Y-49290957D01*
X120757000Y-49299364D01*
X120607097Y-49639596D01*
X120588456Y-49696368D01*
X120568981Y-49752997D01*
X120566912Y-49761977D01*
X120485949Y-50124845D01*
X120478684Y-50184205D01*
X120470586Y-50243490D01*
X120470301Y-50252700D01*
X120461361Y-50624384D01*
X107529091Y-50624384D01*
X107636513Y-50416591D01*
X107766696Y-49965185D01*
X107806313Y-49497054D01*
X107753842Y-49030189D01*
X107611297Y-48582532D01*
X107420766Y-48226073D01*
X107079609Y-48039997D01*
X105589605Y-49530000D01*
X105230395Y-49530000D01*
X103740391Y-48039997D01*
X103399234Y-48226073D01*
X103183487Y-48643409D01*
X103053304Y-49094815D01*
X103013687Y-49562946D01*
X102894999Y-49562946D01*
X102895000Y-49562278D01*
X102946002Y-49042116D01*
X103087694Y-48572812D01*
X103317837Y-48139975D01*
X103545860Y-47860391D01*
X103919997Y-47860391D01*
X105410000Y-49350395D01*
X106900003Y-47860391D01*
X185199997Y-47860391D01*
X186690000Y-49350395D01*
X188180003Y-47860391D01*
X187993927Y-47519234D01*
X187576591Y-47303487D01*
X187125185Y-47173304D01*
X186657054Y-47133687D01*
X186190189Y-47186158D01*
X185742532Y-47328703D01*
X185386073Y-47519234D01*
X185199997Y-47860391D01*
X106900003Y-47860391D01*
X106713927Y-47519234D01*
X106296591Y-47303487D01*
X105845185Y-47173304D01*
X105377054Y-47133687D01*
X104910189Y-47186158D01*
X104462532Y-47328703D01*
X104106073Y-47519234D01*
X103919997Y-47860391D01*
X103545860Y-47860391D01*
X103627678Y-47760073D01*
X104005397Y-47447597D01*
X104436627Y-47214431D01*
X104904928Y-47069468D01*
X105423153Y-47015000D01*
X186657722Y-47015000D01*
X187177884Y-47066002D01*
%TA.AperFunction,Conductor*%
D12*
G36*
X187177884Y-47066002D02*
G01*
X187647188Y-47207694D01*
X188080025Y-47437837D01*
X188459927Y-47747678D01*
X188772403Y-48125397D01*
X189005569Y-48556627D01*
X189150532Y-49024928D01*
X189205001Y-49543163D01*
X189205000Y-58924897D01*
X189202227Y-58932686D01*
X189197230Y-58944468D01*
X189194112Y-58953140D01*
X188658857Y-60474761D01*
X188650980Y-60501219D01*
X188642714Y-60527627D01*
X188640457Y-60536562D01*
X188256241Y-62103154D01*
X188250976Y-62130288D01*
X188245334Y-62157344D01*
X188243959Y-62166456D01*
X188014450Y-63763064D01*
X188011859Y-63790577D01*
X188008883Y-63818058D01*
X188008404Y-63827261D01*
X187935791Y-65438645D01*
X187935897Y-65466255D01*
X187935617Y-65493921D01*
X187936039Y-65503127D01*
X188021017Y-67113906D01*
X188023815Y-67141357D01*
X188026237Y-67168934D01*
X188027555Y-67178054D01*
X188269311Y-68772855D01*
X188274782Y-68799941D01*
X188279877Y-68827111D01*
X188282078Y-68836060D01*
X188678306Y-70399657D01*
X188686388Y-70426058D01*
X188694116Y-70452624D01*
X188697180Y-70461314D01*
X189205001Y-71870308D01*
X189205000Y-138397725D01*
X189204335Y-138404513D01*
X189199699Y-138405000D01*
X102902275Y-138405000D01*
X102895487Y-138404335D01*
X102895000Y-138399699D01*
X102895000Y-136289609D01*
X103919997Y-136289609D01*
X104106073Y-136630766D01*
X104523409Y-136846513D01*
X104974815Y-136976696D01*
X105442946Y-137016313D01*
X105909811Y-136963842D01*
X106357468Y-136821297D01*
X106713927Y-136630766D01*
X106900003Y-136289609D01*
X185199997Y-136289609D01*
X185386073Y-136630766D01*
X185803409Y-136846513D01*
X186254815Y-136976696D01*
X186722946Y-137016313D01*
X187189811Y-136963842D01*
X187637468Y-136821297D01*
X187993927Y-136630766D01*
X188180003Y-136289609D01*
X186690000Y-134799605D01*
X185199997Y-136289609D01*
X106900003Y-136289609D01*
X105410000Y-134799605D01*
X103919997Y-136289609D01*
X102895000Y-136289609D01*
X102895000Y-134652946D01*
X103013687Y-134652946D01*
X103066158Y-135119811D01*
X103208703Y-135567468D01*
X103399234Y-135923927D01*
X103740391Y-136110003D01*
X105230395Y-134620000D01*
X105589605Y-134620000D01*
X107079609Y-136110003D01*
X107420766Y-135923927D01*
X107636513Y-135506591D01*
X107766696Y-135055185D01*
X107800736Y-134652946D01*
X184293687Y-134652946D01*
X184346158Y-135119811D01*
X184488703Y-135567468D01*
X184679234Y-135923927D01*
X185020391Y-136110003D01*
X186510395Y-134620000D01*
X186869605Y-134620000D01*
X188359609Y-136110003D01*
X188700766Y-135923927D01*
X188916513Y-135506591D01*
X189046696Y-135055185D01*
X189086313Y-134587054D01*
X189033842Y-134120189D01*
X188891297Y-133672532D01*
X188700766Y-133316073D01*
X188359609Y-133129997D01*
X186869605Y-134620000D01*
X186510395Y-134620000D01*
X185020391Y-133129997D01*
X184679234Y-133316073D01*
X184463487Y-133733409D01*
X184333304Y-134184815D01*
X184293687Y-134652946D01*
X107800736Y-134652946D01*
X107806313Y-134587054D01*
X107753842Y-134120189D01*
X107611297Y-133672532D01*
X107420766Y-133316073D01*
X107079609Y-133129997D01*
X105589605Y-134620000D01*
X105230395Y-134620000D01*
X103740391Y-133129997D01*
X103399234Y-133316073D01*
X103183487Y-133733409D01*
X103053304Y-134184815D01*
X103013687Y-134652946D01*
X102895000Y-134652946D01*
X102895000Y-132950391D01*
X103919997Y-132950391D01*
X105410000Y-134440395D01*
X106900003Y-132950391D01*
X185199997Y-132950391D01*
X186690000Y-134440395D01*
X188180003Y-132950391D01*
X187993927Y-132609234D01*
X187576591Y-132393487D01*
X187125185Y-132263304D01*
X186657054Y-132223687D01*
X186190189Y-132276158D01*
X185742532Y-132418703D01*
X185386073Y-132609234D01*
X185199997Y-132950391D01*
X106900003Y-132950391D01*
X106713927Y-132609234D01*
X106296591Y-132393487D01*
X105845185Y-132263304D01*
X105377054Y-132223687D01*
X104910189Y-132276158D01*
X104462532Y-132418703D01*
X104106073Y-132609234D01*
X103919997Y-132950391D01*
X102895000Y-132950391D01*
X102895000Y-96919609D01*
X109634997Y-96919609D01*
X109821073Y-97260766D01*
X110238409Y-97476513D01*
X110689815Y-97606696D01*
X111157946Y-97646313D01*
X111624811Y-97593842D01*
X112072468Y-97451297D01*
X112428927Y-97260766D01*
X112615003Y-96919609D01*
X111125000Y-95429605D01*
X109634997Y-96919609D01*
X102895000Y-96919609D01*
X102895000Y-95282946D01*
X108728687Y-95282946D01*
X108781158Y-95749811D01*
X108923703Y-96197468D01*
X109114234Y-96553927D01*
X109455391Y-96740003D01*
X110945395Y-95250000D01*
X111304605Y-95250000D01*
X112794609Y-96740003D01*
X113135766Y-96553927D01*
X113351513Y-96136591D01*
X113386001Y-96017006D01*
X113386001Y-100108419D01*
X113388749Y-100136323D01*
X113388728Y-100139367D01*
X113389628Y-100148538D01*
X113394778Y-100197535D01*
X113395551Y-100205383D01*
X113395630Y-100205645D01*
X113399992Y-100247140D01*
X113412016Y-100305714D01*
X113423229Y-100364496D01*
X113425893Y-100373317D01*
X113455211Y-100468028D01*
X113478370Y-100523119D01*
X113500798Y-100578632D01*
X113505125Y-100586768D01*
X113552280Y-100673980D01*
X113585730Y-100723571D01*
X113618486Y-100773629D01*
X113624310Y-100780770D01*
X113687507Y-100857162D01*
X113729942Y-100899301D01*
X113771805Y-100942051D01*
X113778906Y-100947925D01*
X113855737Y-101010587D01*
X113905548Y-101043681D01*
X113954921Y-101077488D01*
X113963027Y-101081870D01*
X114050566Y-101128415D01*
X114105841Y-101151197D01*
X114160851Y-101174775D01*
X114169655Y-101177500D01*
X114264568Y-101206156D01*
X114323241Y-101217773D01*
X114381758Y-101230212D01*
X114390923Y-101231175D01*
X114489594Y-101240850D01*
X114489598Y-101240850D01*
X114521581Y-101244000D01*
X177578419Y-101244000D01*
X177606332Y-101241251D01*
X177609367Y-101241272D01*
X177618538Y-101240372D01*
X177667384Y-101235238D01*
X177675383Y-101234450D01*
X177675650Y-101234369D01*
X177717140Y-101230008D01*
X177775714Y-101217984D01*
X177834496Y-101206771D01*
X177843317Y-101204107D01*
X177938028Y-101174789D01*
X177993119Y-101151630D01*
X178048632Y-101129202D01*
X178056768Y-101124875D01*
X178143980Y-101077720D01*
X178193571Y-101044270D01*
X178243629Y-101011514D01*
X178250770Y-101005690D01*
X178327162Y-100942493D01*
X178369301Y-100900058D01*
X178412051Y-100858195D01*
X178417925Y-100851094D01*
X178480587Y-100774263D01*
X178513681Y-100724452D01*
X178547488Y-100675079D01*
X178551870Y-100666973D01*
X178598415Y-100579434D01*
X178621197Y-100524159D01*
X178644775Y-100469149D01*
X178647500Y-100460345D01*
X178676156Y-100365432D01*
X178687773Y-100306759D01*
X178700212Y-100248242D01*
X178701175Y-100239077D01*
X178710850Y-100140406D01*
X178710850Y-100140402D01*
X178714000Y-100108419D01*
X178714000Y-96919609D01*
X179484997Y-96919609D01*
X179671073Y-97260766D01*
X180088409Y-97476513D01*
X180539815Y-97606696D01*
X181007946Y-97646313D01*
X181474811Y-97593842D01*
X181922468Y-97451297D01*
X182278927Y-97260766D01*
X182465003Y-96919609D01*
X180975000Y-95429605D01*
X179484997Y-96919609D01*
X178714000Y-96919609D01*
X178714000Y-96009973D01*
X178773703Y-96197468D01*
X178964234Y-96553927D01*
X179305391Y-96740003D01*
X180795395Y-95250000D01*
X181154605Y-95250000D01*
X182644609Y-96740003D01*
X182985766Y-96553927D01*
X183201513Y-96136591D01*
X183331696Y-95685185D01*
X183371313Y-95217054D01*
X183318842Y-94750189D01*
X183176297Y-94302532D01*
X182985766Y-93946073D01*
X182644609Y-93759997D01*
X181154605Y-95250000D01*
X180795395Y-95250000D01*
X179305391Y-93759997D01*
X178964234Y-93946073D01*
X178748487Y-94363409D01*
X178714000Y-94482992D01*
X178714000Y-93580391D01*
X179484997Y-93580391D01*
X180975000Y-95070395D01*
X182465003Y-93580391D01*
X182278927Y-93239234D01*
X181861591Y-93023487D01*
X181410185Y-92893304D01*
X180942054Y-92853687D01*
X180475189Y-92906158D01*
X180027532Y-93048703D01*
X179671073Y-93239234D01*
X179484997Y-93580391D01*
X178714000Y-93580391D01*
X178714000Y-90391581D01*
X178711251Y-90363668D01*
X178711272Y-90360633D01*
X178710372Y-90351462D01*
X178705238Y-90302616D01*
X178704450Y-90294617D01*
X178704369Y-90294350D01*
X178700008Y-90252860D01*
X178687984Y-90194286D01*
X178676771Y-90135504D01*
X178674107Y-90126683D01*
X178644789Y-90031973D01*
X178621636Y-89976895D01*
X178599202Y-89921368D01*
X178594875Y-89913232D01*
X178547720Y-89826020D01*
X178514270Y-89776429D01*
X178481514Y-89726371D01*
X178475689Y-89719230D01*
X178412493Y-89642838D01*
X178370058Y-89600699D01*
X178328195Y-89557949D01*
X178321094Y-89552075D01*
X178244263Y-89489413D01*
X178194467Y-89456329D01*
X178145079Y-89422512D01*
X178136973Y-89418130D01*
X178049434Y-89371585D01*
X177994159Y-89348803D01*
X177939149Y-89325225D01*
X177930346Y-89322500D01*
X177835432Y-89293844D01*
X177776752Y-89282225D01*
X177718242Y-89269788D01*
X177709077Y-89268825D01*
X177610406Y-89259150D01*
X177610402Y-89259150D01*
X177578419Y-89256000D01*
X114521581Y-89256000D01*
X114493668Y-89258749D01*
X114490633Y-89258728D01*
X114481462Y-89259628D01*
X114432616Y-89264762D01*
X114424617Y-89265550D01*
X114424350Y-89265631D01*
X114382860Y-89269992D01*
X114324286Y-89282016D01*
X114265504Y-89293229D01*
X114256683Y-89295893D01*
X114161973Y-89325211D01*
X114106895Y-89348364D01*
X114051368Y-89370798D01*
X114043232Y-89375125D01*
X113956020Y-89422280D01*
X113906429Y-89455730D01*
X113856371Y-89488486D01*
X113849230Y-89494311D01*
X113772838Y-89557507D01*
X113730709Y-89599932D01*
X113687949Y-89641805D01*
X113682075Y-89648906D01*
X113619413Y-89725737D01*
X113586329Y-89775533D01*
X113552512Y-89824921D01*
X113548130Y-89833027D01*
X113501585Y-89920566D01*
X113478813Y-89975816D01*
X113455225Y-90030851D01*
X113452500Y-90039654D01*
X113423844Y-90134568D01*
X113412225Y-90193248D01*
X113399788Y-90251758D01*
X113398825Y-90260923D01*
X113389150Y-90359594D01*
X113389150Y-90359599D01*
X113386000Y-90391582D01*
X113386000Y-94490028D01*
X113326297Y-94302532D01*
X113135766Y-93946073D01*
X112794609Y-93759997D01*
X111304605Y-95250000D01*
X110945395Y-95250000D01*
X109455391Y-93759997D01*
X109114234Y-93946073D01*
X108898487Y-94363409D01*
X108768304Y-94814815D01*
X108728687Y-95282946D01*
X102895000Y-95282946D01*
X102895000Y-93580391D01*
X109634997Y-93580391D01*
X111125000Y-95070395D01*
X112615003Y-93580391D01*
X112428927Y-93239234D01*
X112011591Y-93023487D01*
X111560185Y-92893304D01*
X111092054Y-92853687D01*
X110625189Y-92906158D01*
X110177532Y-93048703D01*
X109821073Y-93239234D01*
X109634997Y-93580391D01*
X102895000Y-93580391D01*
X102895000Y-76582116D01*
X104747423Y-76582116D01*
X104747423Y-77087884D01*
X104846094Y-77583934D01*
X105039643Y-78051204D01*
X105320633Y-78471735D01*
X105678265Y-78829367D01*
X106098796Y-79110357D01*
X106566066Y-79303906D01*
X107062116Y-79402577D01*
X107567884Y-79402577D01*
X108063934Y-79303906D01*
X108531204Y-79110357D01*
X108951735Y-78829367D01*
X109309367Y-78471735D01*
X109590357Y-78051204D01*
X109783906Y-77583934D01*
X109882577Y-77087884D01*
X109882577Y-76582116D01*
X182217423Y-76582116D01*
X182217423Y-77087884D01*
X182316094Y-77583934D01*
X182509643Y-78051204D01*
X182790633Y-78471735D01*
X183148265Y-78829367D01*
X183568796Y-79110357D01*
X184036066Y-79303906D01*
X184532116Y-79402577D01*
X185037884Y-79402577D01*
X185533934Y-79303906D01*
X186001204Y-79110357D01*
X186421735Y-78829367D01*
X186779367Y-78471735D01*
X187060357Y-78051204D01*
X187253906Y-77583934D01*
X187352577Y-77087884D01*
X187352577Y-76582116D01*
X187253906Y-76086066D01*
X187060357Y-75618796D01*
X186779367Y-75198265D01*
X186421735Y-74840633D01*
X186001204Y-74559643D01*
X185533934Y-74366094D01*
X185037884Y-74267423D01*
X184532116Y-74267423D01*
X184036066Y-74366094D01*
X183568796Y-74559643D01*
X183148265Y-74840633D01*
X182790633Y-75198265D01*
X182509643Y-75618796D01*
X182316094Y-76086066D01*
X182217423Y-76582116D01*
X109882577Y-76582116D01*
X109783906Y-76086066D01*
X109590357Y-75618796D01*
X109309367Y-75198265D01*
X108951735Y-74840633D01*
X108531204Y-74559643D01*
X108063934Y-74366094D01*
X107567884Y-74267423D01*
X107062116Y-74267423D01*
X106566066Y-74366094D01*
X106098796Y-74559643D01*
X105678265Y-74840633D01*
X105320633Y-75198265D01*
X105039643Y-75618796D01*
X104846094Y-76086066D01*
X104747423Y-76582116D01*
X102895000Y-76582116D01*
X102895000Y-71885103D01*
X102897775Y-71877312D01*
X102902770Y-71865532D01*
X102905888Y-71856861D01*
X103441143Y-70335239D01*
X103449024Y-70308769D01*
X103457286Y-70282372D01*
X103459543Y-70273438D01*
X103617737Y-69628418D01*
X113386000Y-69628418D01*
X113388749Y-69656332D01*
X113388728Y-69659367D01*
X113389628Y-69668538D01*
X113394764Y-69717399D01*
X113395550Y-69725382D01*
X113395631Y-69725649D01*
X113399992Y-69767140D01*
X113412016Y-69825714D01*
X113423229Y-69884496D01*
X113425893Y-69893317D01*
X113455211Y-69988028D01*
X113478370Y-70043119D01*
X113500798Y-70098632D01*
X113505125Y-70106768D01*
X113552280Y-70193980D01*
X113585730Y-70243571D01*
X113618486Y-70293629D01*
X113624310Y-70300770D01*
X113687507Y-70377162D01*
X113729942Y-70419301D01*
X113771805Y-70462051D01*
X113778906Y-70467925D01*
X113855737Y-70530587D01*
X113905548Y-70563681D01*
X113954921Y-70597488D01*
X113963027Y-70601870D01*
X114050566Y-70648415D01*
X114105841Y-70671197D01*
X114160851Y-70694775D01*
X114169655Y-70697500D01*
X114264568Y-70726156D01*
X114323241Y-70737773D01*
X114381758Y-70750212D01*
X114390923Y-70751175D01*
X114489594Y-70760850D01*
X114489598Y-70760850D01*
X114521581Y-70764000D01*
X117888419Y-70764000D01*
X117916332Y-70761251D01*
X117919367Y-70761272D01*
X117928538Y-70760372D01*
X117977384Y-70755238D01*
X117985383Y-70754450D01*
X117985650Y-70754369D01*
X118027140Y-70750008D01*
X118085714Y-70737984D01*
X118144496Y-70726771D01*
X118153317Y-70724107D01*
X118248028Y-70694789D01*
X118303119Y-70671630D01*
X118358632Y-70649202D01*
X118366768Y-70644875D01*
X118453980Y-70597720D01*
X118503571Y-70564270D01*
X118553629Y-70531514D01*
X118560770Y-70525690D01*
X118637162Y-70462493D01*
X118679301Y-70420058D01*
X118722051Y-70378195D01*
X118727925Y-70371094D01*
X118790587Y-70294263D01*
X118823681Y-70244452D01*
X118857488Y-70195079D01*
X118861870Y-70186973D01*
X118908415Y-70099434D01*
X118931197Y-70044159D01*
X118954775Y-69989149D01*
X118957500Y-69980345D01*
X118986156Y-69885432D01*
X118997773Y-69826759D01*
X119010212Y-69768242D01*
X119011175Y-69759077D01*
X119020850Y-69660406D01*
X119020850Y-69660402D01*
X119024000Y-69628419D01*
X119024000Y-61181581D01*
X119021251Y-61153668D01*
X119021272Y-61150633D01*
X119020372Y-61141462D01*
X119015238Y-61092616D01*
X119014450Y-61084617D01*
X119014369Y-61084350D01*
X119010008Y-61042860D01*
X118997984Y-60984286D01*
X118986771Y-60925504D01*
X118984107Y-60916683D01*
X118954789Y-60821973D01*
X118931636Y-60766895D01*
X118909202Y-60711368D01*
X118904875Y-60703232D01*
X118857720Y-60616020D01*
X118824270Y-60566429D01*
X118791514Y-60516371D01*
X118785689Y-60509230D01*
X118722493Y-60432838D01*
X118680058Y-60390699D01*
X118638195Y-60347949D01*
X118631094Y-60342075D01*
X118554263Y-60279413D01*
X118504467Y-60246329D01*
X118455079Y-60212512D01*
X118446973Y-60208130D01*
X118359434Y-60161585D01*
X118304159Y-60138803D01*
X118249149Y-60115225D01*
X118240346Y-60112500D01*
X118145432Y-60083844D01*
X118086752Y-60072225D01*
X118028242Y-60059788D01*
X118019077Y-60058825D01*
X117920406Y-60049150D01*
X117920402Y-60049150D01*
X117888419Y-60046000D01*
X114521581Y-60046000D01*
X114493668Y-60048749D01*
X114490633Y-60048728D01*
X114481462Y-60049628D01*
X114432616Y-60054762D01*
X114424617Y-60055550D01*
X114424350Y-60055631D01*
X114382860Y-60059992D01*
X114324286Y-60072016D01*
X114265504Y-60083229D01*
X114256683Y-60085893D01*
X114161973Y-60115211D01*
X114106895Y-60138364D01*
X114051368Y-60160798D01*
X114043232Y-60165125D01*
X113956020Y-60212280D01*
X113906429Y-60245730D01*
X113856371Y-60278486D01*
X113849230Y-60284311D01*
X113772838Y-60347507D01*
X113730709Y-60389932D01*
X113687949Y-60431805D01*
X113682075Y-60438906D01*
X113619413Y-60515737D01*
X113586329Y-60565533D01*
X113552512Y-60614921D01*
X113548130Y-60623027D01*
X113501585Y-60710566D01*
X113478813Y-60765816D01*
X113455225Y-60820851D01*
X113452500Y-60829654D01*
X113423844Y-60924568D01*
X113412225Y-60983248D01*
X113399788Y-61041758D01*
X113398825Y-61050923D01*
X113389150Y-61149594D01*
X113389150Y-61149608D01*
X113386001Y-61181581D01*
X113386000Y-69628418D01*
X103617737Y-69628418D01*
X103843759Y-68706846D01*
X103849022Y-68679718D01*
X103854666Y-68652656D01*
X103856041Y-68643544D01*
X104085550Y-67046937D01*
X104088142Y-67019416D01*
X104091117Y-66991942D01*
X104091596Y-66982739D01*
X104164209Y-65371355D01*
X104164103Y-65343745D01*
X104164383Y-65316079D01*
X104163961Y-65306874D01*
X104078983Y-63696094D01*
X104076185Y-63668643D01*
X104073763Y-63641066D01*
X104072445Y-63631946D01*
X103830689Y-62037146D01*
X103825218Y-62010061D01*
X103820123Y-61982889D01*
X103817922Y-61973941D01*
X103421694Y-60410343D01*
X103413604Y-60383914D01*
X103405884Y-60357376D01*
X103402820Y-60348686D01*
X102894998Y-58939690D01*
X102894998Y-51199609D01*
X103919997Y-51199609D01*
X104106073Y-51540766D01*
X104523409Y-51756513D01*
X104974815Y-51886696D01*
X105442946Y-51926313D01*
X105909811Y-51873842D01*
X106357468Y-51731297D01*
X106713927Y-51540766D01*
X106900003Y-51199609D01*
X105410000Y-49709605D01*
X103919997Y-51199609D01*
X102894998Y-51199609D01*
X102894999Y-49562946D01*
X103013687Y-49562946D01*
X103066158Y-50029811D01*
X103208703Y-50477468D01*
X103399234Y-50833927D01*
X103740391Y-51020003D01*
X105230395Y-49530000D01*
X105589605Y-49530000D01*
X107079609Y-51020003D01*
X107420766Y-50833927D01*
X107529091Y-50624384D01*
X120461361Y-50624384D01*
X120465762Y-50683994D01*
X120469335Y-50743753D01*
X120470844Y-50752844D01*
X120533168Y-51112830D01*
X121420978Y-56920504D01*
X121423604Y-56930793D01*
X121432787Y-56980191D01*
X121442182Y-57012675D01*
X121448521Y-57045905D01*
X121451185Y-57054727D01*
X121562643Y-57414790D01*
X121585831Y-57469953D01*
X121608233Y-57525399D01*
X121612559Y-57533535D01*
X121791831Y-57865092D01*
X121825276Y-57914676D01*
X121858035Y-57964737D01*
X121863859Y-57971878D01*
X122104117Y-58262300D01*
X122146550Y-58304438D01*
X122188416Y-58347191D01*
X122195517Y-58353065D01*
X122487609Y-58591289D01*
X122537447Y-58624401D01*
X122586792Y-58658188D01*
X122594898Y-58662571D01*
X122927698Y-58839523D01*
X122982973Y-58862305D01*
X123037983Y-58885883D01*
X123046786Y-58888608D01*
X123407618Y-58997550D01*
X123466321Y-59009173D01*
X123524810Y-59021606D01*
X123533975Y-59022569D01*
X123909095Y-59059350D01*
X123909098Y-59059350D01*
X123941081Y-59062500D01*
X136091419Y-59062500D01*
X136097559Y-59061895D01*
X136142372Y-59061059D01*
X136175963Y-59057131D01*
X136209779Y-59056342D01*
X136218919Y-59055165D01*
X136587325Y-59005108D01*
X136645514Y-58991312D01*
X136703924Y-58978323D01*
X136712661Y-58975392D01*
X137064326Y-58854732D01*
X137118743Y-58829889D01*
X137173501Y-58805809D01*
X137181503Y-58801238D01*
X137503036Y-58614569D01*
X137551572Y-58579643D01*
X137600629Y-58545373D01*
X137607590Y-58539334D01*
X137886741Y-58293769D01*
X137927571Y-58250079D01*
X137969035Y-58206935D01*
X137974691Y-58199659D01*
X138200829Y-57904549D01*
X138232380Y-57853786D01*
X138264690Y-57803385D01*
X138268825Y-57795149D01*
X138433336Y-57461735D01*
X138454432Y-57405793D01*
X138476331Y-57350093D01*
X138478788Y-57341211D01*
X138559273Y-57042139D01*
X138560541Y-57039517D01*
X138585035Y-56945213D01*
X139502307Y-51111007D01*
X139514774Y-51052031D01*
X139518548Y-51018038D01*
X139525429Y-50984520D01*
X139526328Y-50975349D01*
X139558268Y-50624384D01*
X152846361Y-50624384D01*
X152850762Y-50683994D01*
X152854335Y-50743753D01*
X152855844Y-50752844D01*
X152918168Y-51112830D01*
X153805978Y-56920504D01*
X153808604Y-56930793D01*
X153817787Y-56980191D01*
X153827182Y-57012675D01*
X153833521Y-57045905D01*
X153836185Y-57054727D01*
X153947643Y-57414790D01*
X153970831Y-57469953D01*
X153993233Y-57525399D01*
X153997559Y-57533535D01*
X154176831Y-57865092D01*
X154210276Y-57914676D01*
X154243035Y-57964737D01*
X154248859Y-57971878D01*
X154489117Y-58262300D01*
X154531550Y-58304438D01*
X154573416Y-58347191D01*
X154580517Y-58353065D01*
X154872609Y-58591289D01*
X154922447Y-58624401D01*
X154971792Y-58658188D01*
X154979898Y-58662571D01*
X155312698Y-58839523D01*
X155367973Y-58862305D01*
X155422983Y-58885883D01*
X155431786Y-58888608D01*
X155792618Y-58997550D01*
X155851321Y-59009173D01*
X155909810Y-59021606D01*
X155918975Y-59022569D01*
X156294095Y-59059350D01*
X156294098Y-59059350D01*
X156326081Y-59062500D01*
X161347596Y-59062500D01*
X161245050Y-59215969D01*
X161149401Y-59446887D01*
X161100639Y-59692028D01*
X161100639Y-59941972D01*
X161149401Y-60187113D01*
X161245050Y-60418031D01*
X161383912Y-60625851D01*
X161560649Y-60802588D01*
X161768469Y-60941450D01*
X161999387Y-61037099D01*
X162244528Y-61085861D01*
X162494472Y-61085861D01*
X162739613Y-61037099D01*
X162970531Y-60941450D01*
X163178351Y-60802588D01*
X163355088Y-60625851D01*
X163493950Y-60418031D01*
X163589599Y-60187113D01*
X163638361Y-59941972D01*
X163638361Y-59692028D01*
X163589599Y-59446887D01*
X163493950Y-59215969D01*
X163391404Y-59062500D01*
X168476419Y-59062500D01*
X168482559Y-59061895D01*
X168527372Y-59061059D01*
X168560963Y-59057131D01*
X168594779Y-59056342D01*
X168603919Y-59055165D01*
X168972325Y-59005108D01*
X169030514Y-58991312D01*
X169088924Y-58978323D01*
X169097661Y-58975392D01*
X169449326Y-58854732D01*
X169503743Y-58829889D01*
X169558501Y-58805809D01*
X169566503Y-58801238D01*
X169888036Y-58614569D01*
X169936572Y-58579643D01*
X169985629Y-58545373D01*
X169992590Y-58539334D01*
X170271741Y-58293769D01*
X170312571Y-58250079D01*
X170354035Y-58206935D01*
X170359691Y-58199659D01*
X170585829Y-57904549D01*
X170617380Y-57853786D01*
X170649690Y-57803385D01*
X170653825Y-57795149D01*
X170818336Y-57461735D01*
X170839432Y-57405793D01*
X170861331Y-57350093D01*
X170863788Y-57341211D01*
X170944273Y-57042139D01*
X170945541Y-57039517D01*
X170970035Y-56945213D01*
X171077433Y-56262116D01*
X182217423Y-56262116D01*
X182217423Y-56767884D01*
X182316094Y-57263934D01*
X182509643Y-57731204D01*
X182790633Y-58151735D01*
X183148265Y-58509367D01*
X183568796Y-58790357D01*
X184036066Y-58983906D01*
X184532116Y-59082577D01*
X185037884Y-59082577D01*
X185533934Y-58983906D01*
X186001204Y-58790357D01*
X186421735Y-58509367D01*
X186779367Y-58151735D01*
X187060357Y-57731204D01*
X187253906Y-57263934D01*
X187352577Y-56767884D01*
X187352577Y-56262116D01*
X187253906Y-55766066D01*
X187060357Y-55298796D01*
X186779367Y-54878265D01*
X186421735Y-54520633D01*
X186001204Y-54239643D01*
X185533934Y-54046094D01*
X185037884Y-53947423D01*
X184532116Y-53947423D01*
X184036066Y-54046094D01*
X183568796Y-54239643D01*
X183148265Y-54520633D01*
X182790633Y-54878265D01*
X182509643Y-55298796D01*
X182316094Y-55766066D01*
X182217423Y-56262116D01*
X171077433Y-56262116D01*
X171873376Y-51199609D01*
X185199997Y-51199609D01*
X185386073Y-51540766D01*
X185803409Y-51756513D01*
X186254815Y-51886696D01*
X186722946Y-51926313D01*
X187189811Y-51873842D01*
X187637468Y-51731297D01*
X187993927Y-51540766D01*
X188180003Y-51199609D01*
X186690000Y-49709605D01*
X185199997Y-51199609D01*
X171873376Y-51199609D01*
X171887307Y-51111007D01*
X171899774Y-51052031D01*
X171903548Y-51018038D01*
X171910429Y-50984520D01*
X171911328Y-50975349D01*
X171945921Y-50595237D01*
X171945503Y-50535420D01*
X171945921Y-50475603D01*
X171945022Y-50466432D01*
X171905126Y-50086839D01*
X171893088Y-50028197D01*
X171881888Y-49969481D01*
X171879225Y-49960659D01*
X171766358Y-49596046D01*
X171752444Y-49562946D01*
X184293687Y-49562946D01*
X184346158Y-50029811D01*
X184488703Y-50477468D01*
X184679234Y-50833927D01*
X185020391Y-51020003D01*
X186510395Y-49530000D01*
X186869605Y-49530000D01*
X188359609Y-51020003D01*
X188700766Y-50833927D01*
X188916513Y-50416591D01*
X189046696Y-49965185D01*
X189086313Y-49497054D01*
X189033842Y-49030189D01*
X188891297Y-48582532D01*
X188700766Y-48226073D01*
X188359609Y-48039997D01*
X186869605Y-49530000D01*
X186510395Y-49530000D01*
X185020391Y-48039997D01*
X184679234Y-48226073D01*
X184463487Y-48643409D01*
X184333304Y-49094815D01*
X184293687Y-49562946D01*
X171752444Y-49562946D01*
X171743175Y-49540898D01*
X171720768Y-49485438D01*
X171716442Y-49477301D01*
X171534904Y-49141555D01*
X171501449Y-49091956D01*
X171468700Y-49041910D01*
X171462876Y-49034769D01*
X171219583Y-48740676D01*
X171177127Y-48698516D01*
X171135283Y-48655786D01*
X171128183Y-48649912D01*
X170832400Y-48408677D01*
X170782589Y-48375583D01*
X170733217Y-48341777D01*
X170725111Y-48337395D01*
X170388105Y-48158205D01*
X170332813Y-48135416D01*
X170277817Y-48111844D01*
X170269014Y-48109120D01*
X169903621Y-47998802D01*
X169844948Y-47987185D01*
X169786431Y-47974746D01*
X169777267Y-47973783D01*
X169397405Y-47936537D01*
X169397393Y-47936537D01*
X169365342Y-47933384D01*
X155373505Y-47935004D01*
X155360279Y-47936308D01*
X155225874Y-47941732D01*
X155185313Y-47947368D01*
X155144438Y-47950099D01*
X155135358Y-47951671D01*
X154769470Y-48017651D01*
X154711926Y-48033959D01*
X154654142Y-48049465D01*
X154645540Y-48052772D01*
X154299435Y-48188563D01*
X154246162Y-48215733D01*
X154192483Y-48242172D01*
X154184687Y-48247086D01*
X153871549Y-48447517D01*
X153824576Y-48484511D01*
X153777046Y-48520879D01*
X153770353Y-48527214D01*
X153502109Y-48784651D01*
X153463199Y-48830085D01*
X153423658Y-48874969D01*
X153418323Y-48882483D01*
X153205190Y-49187118D01*
X153175841Y-49239251D01*
X153145774Y-49290957D01*
X153142000Y-49299364D01*
X152992097Y-49639596D01*
X152973456Y-49696368D01*
X152953981Y-49752997D01*
X152951912Y-49761977D01*
X152870949Y-50124845D01*
X152863684Y-50184205D01*
X152855586Y-50243490D01*
X152855301Y-50252700D01*
X152846361Y-50624384D01*
X139558268Y-50624384D01*
X139560921Y-50595237D01*
X139560503Y-50535420D01*
X139560921Y-50475603D01*
X139560022Y-50466432D01*
X139520126Y-50086839D01*
X139508088Y-50028197D01*
X139496888Y-49969481D01*
X139494225Y-49960659D01*
X139381358Y-49596046D01*
X139358175Y-49540898D01*
X139335768Y-49485438D01*
X139331442Y-49477301D01*
X139149904Y-49141555D01*
X139116449Y-49091956D01*
X139083700Y-49041910D01*
X139077876Y-49034769D01*
X138834583Y-48740676D01*
X138792127Y-48698516D01*
X138750283Y-48655786D01*
X138743183Y-48649912D01*
X138447400Y-48408677D01*
X138397589Y-48375583D01*
X138348217Y-48341777D01*
X138340111Y-48337395D01*
X138003105Y-48158205D01*
X137947813Y-48135416D01*
X137892817Y-48111844D01*
X137884014Y-48109120D01*
X137518621Y-47998802D01*
X137459948Y-47987185D01*
X137401431Y-47974746D01*
X137392267Y-47973783D01*
X137012405Y-47936537D01*
X137012393Y-47936537D01*
X136980342Y-47933384D01*
X122988505Y-47935004D01*
X122975279Y-47936308D01*
X122840874Y-47941732D01*
X122800313Y-47947368D01*
X122759438Y-47950099D01*
X122750358Y-47951671D01*
X122384470Y-48017651D01*
X122326926Y-48033959D01*
X122269142Y-48049465D01*
X122260540Y-48052772D01*
X121914435Y-48188563D01*
X121861162Y-48215733D01*
X121807483Y-48242172D01*
X121799687Y-48247086D01*
X121486549Y-48447517D01*
X121439576Y-48484511D01*
X121392046Y-48520879D01*
X121385353Y-48527214D01*
X121117109Y-48784651D01*
X121078199Y-48830085D01*
X121038658Y-48874969D01*
X121033323Y-48882483D01*
X120820190Y-49187118D01*
X120790841Y-49239251D01*
X120760774Y-49290957D01*
X120757000Y-49299364D01*
X120607097Y-49639596D01*
X120588456Y-49696368D01*
X120568981Y-49752997D01*
X120566912Y-49761977D01*
X120485949Y-50124845D01*
X120478684Y-50184205D01*
X120470586Y-50243490D01*
X120470301Y-50252700D01*
X120461361Y-50624384D01*
X107529091Y-50624384D01*
X107636513Y-50416591D01*
X107766696Y-49965185D01*
X107806313Y-49497054D01*
X107753842Y-49030189D01*
X107611297Y-48582532D01*
X107420766Y-48226073D01*
X107079609Y-48039997D01*
X105589605Y-49530000D01*
X105230395Y-49530000D01*
X103740391Y-48039997D01*
X103399234Y-48226073D01*
X103183487Y-48643409D01*
X103053304Y-49094815D01*
X103013687Y-49562946D01*
X102894999Y-49562946D01*
X102895000Y-49562278D01*
X102946002Y-49042116D01*
X103087694Y-48572812D01*
X103317837Y-48139975D01*
X103545860Y-47860391D01*
X103919997Y-47860391D01*
X105410000Y-49350395D01*
X106900003Y-47860391D01*
X185199997Y-47860391D01*
X186690000Y-49350395D01*
X188180003Y-47860391D01*
X187993927Y-47519234D01*
X187576591Y-47303487D01*
X187125185Y-47173304D01*
X186657054Y-47133687D01*
X186190189Y-47186158D01*
X185742532Y-47328703D01*
X185386073Y-47519234D01*
X185199997Y-47860391D01*
X106900003Y-47860391D01*
X106713927Y-47519234D01*
X106296591Y-47303487D01*
X105845185Y-47173304D01*
X105377054Y-47133687D01*
X104910189Y-47186158D01*
X104462532Y-47328703D01*
X104106073Y-47519234D01*
X103919997Y-47860391D01*
X103545860Y-47860391D01*
X103627678Y-47760073D01*
X104005397Y-47447597D01*
X104436627Y-47214431D01*
X104904928Y-47069468D01*
X105423153Y-47015000D01*
X186657722Y-47015000D01*
X187177884Y-47066002D01*
G37*
%TD.AperFunction*%
%TD*%
M02*
