%TF.GenerationSoftware,KiCad,Pcbnew,(5.1.8)-1*%
%TF.CreationDate,2021-03-07T21:16:40+01:00*%
%TF.ProjectId,ZX Interface 2021 FA1,5a582049-6e74-4657-9266-616365203230,rev?*%
%TF.SameCoordinates,Original*%
%TF.FileFunction,Profile,NP*%
%FSLAX46Y46*%
G04 Gerber Fmt 4.6, Leading zero omitted, Abs format (unit mm)*
G04 Created by KiCad (PCBNEW (5.1.8)-1) date 2021-03-07 21:16:40*
%MOMM*%
%LPD*%
G01*
G04 APERTURE LIST*
%TA.AperFunction,Profile*%
%ADD10C,0.050000*%
%TD*%
G04 APERTURE END LIST*
D10*
X114554000Y-70104000D02*
G75*
G02*
X114046000Y-69596000I0J508000D01*
G01*
X118364000Y-69596000D02*
G75*
G02*
X117856000Y-70104000I-508000J0D01*
G01*
X117856000Y-60706000D02*
G75*
G02*
X118364000Y-61214000I0J-508000D01*
G01*
X114046000Y-61214000D02*
G75*
G02*
X114554000Y-60706000I508000J0D01*
G01*
X118364000Y-61214000D02*
X118364000Y-69596000D01*
X114554000Y-60706000D02*
X117856000Y-60706000D01*
X114046000Y-69596000D02*
X114046000Y-61214000D01*
X117856000Y-70104000D02*
X114554000Y-70104000D01*
X177546000Y-89916000D02*
G75*
G02*
X178054000Y-90424000I0J-508000D01*
G01*
X178054000Y-100076000D02*
G75*
G02*
X177546000Y-100584000I-508000J0D01*
G01*
X114554000Y-100584000D02*
G75*
G02*
X114046000Y-100076000I0J508000D01*
G01*
X114046000Y-90424000D02*
G75*
G02*
X114554000Y-89916000I508000J0D01*
G01*
X177546000Y-89916000D02*
X114554000Y-89916000D01*
X178054000Y-100076000D02*
X178054000Y-90424000D01*
X114554000Y-100584000D02*
X177546000Y-100584000D01*
X114046000Y-90424000D02*
X114046000Y-100076000D01*
X154119594Y-51306595D02*
G75*
G02*
X155956000Y-48895000I1836406J506595D01*
G01*
X167894000Y-58102500D02*
X156908500Y-58102500D01*
X156908500Y-58102500D02*
G75*
G02*
X155003500Y-56488723I0J1931277D01*
G01*
X168783000Y-48893387D02*
G75*
G02*
X170688000Y-51291429I0J-1955685D01*
G01*
X155956000Y-48895000D02*
X168783000Y-48893387D01*
X169773080Y-56510680D02*
G75*
G02*
X167894000Y-58102500I-1879080J313180D01*
G01*
X170688000Y-51291429D02*
X169773080Y-56510680D01*
X155003500Y-56488723D02*
X154119594Y-51306595D01*
X135509000Y-58102500D02*
X124523500Y-58102500D01*
X138303000Y-51291429D02*
X137388080Y-56510680D01*
X123571000Y-48895000D02*
X136398000Y-48893387D01*
X122618500Y-56488723D02*
X121734594Y-51306595D01*
X137388080Y-56510680D02*
G75*
G02*
X135509000Y-58102500I-1879080J313180D01*
G01*
X124523500Y-58102500D02*
G75*
G02*
X122618500Y-56488723I0J1931277D01*
G01*
X136398000Y-48893387D02*
G75*
G02*
X138303000Y-51291429I0J-1955685D01*
G01*
X121734594Y-51306595D02*
G75*
G02*
X123571000Y-48895000I1836406J506595D01*
G01*
X186685000Y-76835000D02*
G75*
G03*
X186685000Y-76835000I-1900000J0D01*
G01*
X109215000Y-76835000D02*
G75*
G03*
X109215000Y-76835000I-1900000J0D01*
G01*
X189865000Y-138430000D02*
G75*
G02*
X189230000Y-139065000I-635000J0D01*
G01*
X102870000Y-139065000D02*
G75*
G02*
X102235000Y-138430000I0J635000D01*
G01*
X186690000Y-46355000D02*
G75*
G02*
X189865000Y-49530000I0J-3175000D01*
G01*
X102235000Y-49530000D02*
G75*
G02*
X105410000Y-46355000I3175000J0D01*
G01*
X189865000Y-59055001D02*
X189865000Y-49530000D01*
X102234999Y-59054999D02*
X102235000Y-49530000D01*
X102235000Y-59054999D02*
G75*
G02*
X102235000Y-71754999I-15240000J-6350001D01*
G01*
X189865000Y-71755001D02*
G75*
G02*
X189865000Y-59055001I15240000J6350001D01*
G01*
X102235000Y-71754999D02*
X102235000Y-138430000D01*
X186690000Y-46355000D02*
X105410000Y-46355000D01*
X110363000Y-139065000D02*
X102870000Y-139065000D01*
X181737000Y-139065000D02*
X189230000Y-139065000D01*
X189865000Y-138430000D02*
X189865000Y-71755000D01*
X181737000Y-139065000D02*
X110363000Y-139065000D01*
M02*
