%TF.GenerationSoftware,KiCad,Pcbnew,(5.1.8)-1*%
%TF.CreationDate,2021-03-07T21:16:39+01:00*%
%TF.ProjectId,ZX Interface 2021 FA1,5a582049-6e74-4657-9266-616365203230,rev?*%
%TF.SameCoordinates,Original*%
%TF.FileFunction,Copper,L2,Bot*%
%TF.FilePolarity,Positive*%
%FSLAX46Y46*%
G04 Gerber Fmt 4.6, Leading zero omitted, Abs format (unit mm)*
G04 Created by KiCad (PCBNEW (5.1.8)-1) date 2021-03-07 21:16:39*
%MOMM*%
%LPD*%
G01*
G04 APERTURE LIST*
%TA.AperFunction,ComponentPad*%
%ADD10C,3.500000*%
%TD*%
%TA.AperFunction,Conductor*%
%ADD11C,0.254000*%
%TD*%
%TA.AperFunction,Conductor*%
%ADD12C,0.100000*%
%TD*%
G04 APERTURE END LIST*
D10*
%TO.P,M1,1*%
%TO.N,Net-(M1-Pad1)*%
X105410000Y-134620000D03*
%TD*%
%TO.P,M2,1*%
%TO.N,Net-(M1-Pad1)*%
X186690000Y-134620000D03*
%TD*%
%TO.P,M3,1*%
%TO.N,Net-(M1-Pad1)*%
X186690000Y-49530000D03*
%TD*%
%TO.P,M5,1*%
%TO.N,Net-(M1-Pad1)*%
X180975000Y-95250000D03*
%TD*%
%TO.P,M6,1*%
%TO.N,Net-(M1-Pad1)*%
X111125000Y-95250000D03*
%TD*%
%TO.P,M4,1*%
%TO.N,Net-(M1-Pad1)*%
X105410000Y-49530000D03*
%TD*%
D11*
%TO.N,Net-(M1-Pad1)*%
X187177884Y-47066002D02*
X187647188Y-47207694D01*
X188080025Y-47437837D01*
X188459927Y-47747678D01*
X188772403Y-48125397D01*
X189005569Y-48556627D01*
X189150532Y-49024928D01*
X189205001Y-49543163D01*
X189205000Y-58924897D01*
X189202227Y-58932686D01*
X189197230Y-58944468D01*
X189194112Y-58953140D01*
X188658857Y-60474761D01*
X188650980Y-60501219D01*
X188642714Y-60527627D01*
X188640457Y-60536562D01*
X188256241Y-62103154D01*
X188250976Y-62130288D01*
X188245334Y-62157344D01*
X188243959Y-62166456D01*
X188014450Y-63763064D01*
X188011859Y-63790577D01*
X188008883Y-63818058D01*
X188008404Y-63827261D01*
X187935791Y-65438645D01*
X187935897Y-65466255D01*
X187935617Y-65493921D01*
X187936039Y-65503127D01*
X188021017Y-67113906D01*
X188023815Y-67141357D01*
X188026237Y-67168934D01*
X188027555Y-67178054D01*
X188269311Y-68772855D01*
X188274782Y-68799941D01*
X188279877Y-68827111D01*
X188282078Y-68836060D01*
X188678306Y-70399657D01*
X188686388Y-70426058D01*
X188694116Y-70452624D01*
X188697180Y-70461314D01*
X189205001Y-71870308D01*
X189205000Y-138397725D01*
X189204335Y-138404513D01*
X189199699Y-138405000D01*
X102902275Y-138405000D01*
X102895487Y-138404335D01*
X102895000Y-138399699D01*
X102895000Y-136289609D01*
X103919997Y-136289609D01*
X104106073Y-136630766D01*
X104523409Y-136846513D01*
X104974815Y-136976696D01*
X105442946Y-137016313D01*
X105909811Y-136963842D01*
X106357468Y-136821297D01*
X106713927Y-136630766D01*
X106900003Y-136289609D01*
X185199997Y-136289609D01*
X185386073Y-136630766D01*
X185803409Y-136846513D01*
X186254815Y-136976696D01*
X186722946Y-137016313D01*
X187189811Y-136963842D01*
X187637468Y-136821297D01*
X187993927Y-136630766D01*
X188180003Y-136289609D01*
X186690000Y-134799605D01*
X185199997Y-136289609D01*
X106900003Y-136289609D01*
X105410000Y-134799605D01*
X103919997Y-136289609D01*
X102895000Y-136289609D01*
X102895000Y-134652946D01*
X103013687Y-134652946D01*
X103066158Y-135119811D01*
X103208703Y-135567468D01*
X103399234Y-135923927D01*
X103740391Y-136110003D01*
X105230395Y-134620000D01*
X105589605Y-134620000D01*
X107079609Y-136110003D01*
X107420766Y-135923927D01*
X107636513Y-135506591D01*
X107766696Y-135055185D01*
X107800736Y-134652946D01*
X184293687Y-134652946D01*
X184346158Y-135119811D01*
X184488703Y-135567468D01*
X184679234Y-135923927D01*
X185020391Y-136110003D01*
X186510395Y-134620000D01*
X186869605Y-134620000D01*
X188359609Y-136110003D01*
X188700766Y-135923927D01*
X188916513Y-135506591D01*
X189046696Y-135055185D01*
X189086313Y-134587054D01*
X189033842Y-134120189D01*
X188891297Y-133672532D01*
X188700766Y-133316073D01*
X188359609Y-133129997D01*
X186869605Y-134620000D01*
X186510395Y-134620000D01*
X185020391Y-133129997D01*
X184679234Y-133316073D01*
X184463487Y-133733409D01*
X184333304Y-134184815D01*
X184293687Y-134652946D01*
X107800736Y-134652946D01*
X107806313Y-134587054D01*
X107753842Y-134120189D01*
X107611297Y-133672532D01*
X107420766Y-133316073D01*
X107079609Y-133129997D01*
X105589605Y-134620000D01*
X105230395Y-134620000D01*
X103740391Y-133129997D01*
X103399234Y-133316073D01*
X103183487Y-133733409D01*
X103053304Y-134184815D01*
X103013687Y-134652946D01*
X102895000Y-134652946D01*
X102895000Y-132950391D01*
X103919997Y-132950391D01*
X105410000Y-134440395D01*
X106900003Y-132950391D01*
X185199997Y-132950391D01*
X186690000Y-134440395D01*
X188180003Y-132950391D01*
X187993927Y-132609234D01*
X187576591Y-132393487D01*
X187125185Y-132263304D01*
X186657054Y-132223687D01*
X186190189Y-132276158D01*
X185742532Y-132418703D01*
X185386073Y-132609234D01*
X185199997Y-132950391D01*
X106900003Y-132950391D01*
X106713927Y-132609234D01*
X106296591Y-132393487D01*
X105845185Y-132263304D01*
X105377054Y-132223687D01*
X104910189Y-132276158D01*
X104462532Y-132418703D01*
X104106073Y-132609234D01*
X103919997Y-132950391D01*
X102895000Y-132950391D01*
X102895000Y-96919609D01*
X109634997Y-96919609D01*
X109821073Y-97260766D01*
X110238409Y-97476513D01*
X110689815Y-97606696D01*
X111157946Y-97646313D01*
X111624811Y-97593842D01*
X112072468Y-97451297D01*
X112428927Y-97260766D01*
X112615003Y-96919609D01*
X111125000Y-95429605D01*
X109634997Y-96919609D01*
X102895000Y-96919609D01*
X102895000Y-95282946D01*
X108728687Y-95282946D01*
X108781158Y-95749811D01*
X108923703Y-96197468D01*
X109114234Y-96553927D01*
X109455391Y-96740003D01*
X110945395Y-95250000D01*
X111304605Y-95250000D01*
X112794609Y-96740003D01*
X113135766Y-96553927D01*
X113351513Y-96136591D01*
X113386001Y-96017006D01*
X113386001Y-100108419D01*
X113388749Y-100136323D01*
X113388728Y-100139367D01*
X113389628Y-100148538D01*
X113394778Y-100197535D01*
X113395551Y-100205383D01*
X113395630Y-100205645D01*
X113399992Y-100247140D01*
X113412016Y-100305714D01*
X113423229Y-100364496D01*
X113425893Y-100373317D01*
X113455211Y-100468028D01*
X113478370Y-100523119D01*
X113500798Y-100578632D01*
X113505125Y-100586768D01*
X113552280Y-100673980D01*
X113585730Y-100723571D01*
X113618486Y-100773629D01*
X113624310Y-100780770D01*
X113687507Y-100857162D01*
X113729942Y-100899301D01*
X113771805Y-100942051D01*
X113778906Y-100947925D01*
X113855737Y-101010587D01*
X113905548Y-101043681D01*
X113954921Y-101077488D01*
X113963027Y-101081870D01*
X114050566Y-101128415D01*
X114105841Y-101151197D01*
X114160851Y-101174775D01*
X114169655Y-101177500D01*
X114264568Y-101206156D01*
X114323241Y-101217773D01*
X114381758Y-101230212D01*
X114390923Y-101231175D01*
X114489594Y-101240850D01*
X114489598Y-101240850D01*
X114521581Y-101244000D01*
X177578419Y-101244000D01*
X177606332Y-101241251D01*
X177609367Y-101241272D01*
X177618538Y-101240372D01*
X177667384Y-101235238D01*
X177675383Y-101234450D01*
X177675650Y-101234369D01*
X177717140Y-101230008D01*
X177775714Y-101217984D01*
X177834496Y-101206771D01*
X177843317Y-101204107D01*
X177938028Y-101174789D01*
X177993119Y-101151630D01*
X178048632Y-101129202D01*
X178056768Y-101124875D01*
X178143980Y-101077720D01*
X178193571Y-101044270D01*
X178243629Y-101011514D01*
X178250770Y-101005690D01*
X178327162Y-100942493D01*
X178369301Y-100900058D01*
X178412051Y-100858195D01*
X178417925Y-100851094D01*
X178480587Y-100774263D01*
X178513681Y-100724452D01*
X178547488Y-100675079D01*
X178551870Y-100666973D01*
X178598415Y-100579434D01*
X178621197Y-100524159D01*
X178644775Y-100469149D01*
X178647500Y-100460345D01*
X178676156Y-100365432D01*
X178687773Y-100306759D01*
X178700212Y-100248242D01*
X178701175Y-100239077D01*
X178710850Y-100140406D01*
X178710850Y-100140402D01*
X178714000Y-100108419D01*
X178714000Y-96919609D01*
X179484997Y-96919609D01*
X179671073Y-97260766D01*
X180088409Y-97476513D01*
X180539815Y-97606696D01*
X181007946Y-97646313D01*
X181474811Y-97593842D01*
X181922468Y-97451297D01*
X182278927Y-97260766D01*
X182465003Y-96919609D01*
X180975000Y-95429605D01*
X179484997Y-96919609D01*
X178714000Y-96919609D01*
X178714000Y-96009973D01*
X178773703Y-96197468D01*
X178964234Y-96553927D01*
X179305391Y-96740003D01*
X180795395Y-95250000D01*
X181154605Y-95250000D01*
X182644609Y-96740003D01*
X182985766Y-96553927D01*
X183201513Y-96136591D01*
X183331696Y-95685185D01*
X183371313Y-95217054D01*
X183318842Y-94750189D01*
X183176297Y-94302532D01*
X182985766Y-93946073D01*
X182644609Y-93759997D01*
X181154605Y-95250000D01*
X180795395Y-95250000D01*
X179305391Y-93759997D01*
X178964234Y-93946073D01*
X178748487Y-94363409D01*
X178714000Y-94482992D01*
X178714000Y-93580391D01*
X179484997Y-93580391D01*
X180975000Y-95070395D01*
X182465003Y-93580391D01*
X182278927Y-93239234D01*
X181861591Y-93023487D01*
X181410185Y-92893304D01*
X180942054Y-92853687D01*
X180475189Y-92906158D01*
X180027532Y-93048703D01*
X179671073Y-93239234D01*
X179484997Y-93580391D01*
X178714000Y-93580391D01*
X178714000Y-90391581D01*
X178711251Y-90363668D01*
X178711272Y-90360633D01*
X178710372Y-90351462D01*
X178705238Y-90302616D01*
X178704450Y-90294617D01*
X178704369Y-90294350D01*
X178700008Y-90252860D01*
X178687984Y-90194286D01*
X178676771Y-90135504D01*
X178674107Y-90126683D01*
X178644789Y-90031973D01*
X178621636Y-89976895D01*
X178599202Y-89921368D01*
X178594875Y-89913232D01*
X178547720Y-89826020D01*
X178514270Y-89776429D01*
X178481514Y-89726371D01*
X178475689Y-89719230D01*
X178412493Y-89642838D01*
X178370058Y-89600699D01*
X178328195Y-89557949D01*
X178321094Y-89552075D01*
X178244263Y-89489413D01*
X178194467Y-89456329D01*
X178145079Y-89422512D01*
X178136973Y-89418130D01*
X178049434Y-89371585D01*
X177994159Y-89348803D01*
X177939149Y-89325225D01*
X177930346Y-89322500D01*
X177835432Y-89293844D01*
X177776752Y-89282225D01*
X177718242Y-89269788D01*
X177709077Y-89268825D01*
X177610406Y-89259150D01*
X177610402Y-89259150D01*
X177578419Y-89256000D01*
X114521581Y-89256000D01*
X114493668Y-89258749D01*
X114490633Y-89258728D01*
X114481462Y-89259628D01*
X114432616Y-89264762D01*
X114424617Y-89265550D01*
X114424350Y-89265631D01*
X114382860Y-89269992D01*
X114324286Y-89282016D01*
X114265504Y-89293229D01*
X114256683Y-89295893D01*
X114161973Y-89325211D01*
X114106895Y-89348364D01*
X114051368Y-89370798D01*
X114043232Y-89375125D01*
X113956020Y-89422280D01*
X113906429Y-89455730D01*
X113856371Y-89488486D01*
X113849230Y-89494311D01*
X113772838Y-89557507D01*
X113730709Y-89599932D01*
X113687949Y-89641805D01*
X113682075Y-89648906D01*
X113619413Y-89725737D01*
X113586329Y-89775533D01*
X113552512Y-89824921D01*
X113548130Y-89833027D01*
X113501585Y-89920566D01*
X113478813Y-89975816D01*
X113455225Y-90030851D01*
X113452500Y-90039654D01*
X113423844Y-90134568D01*
X113412225Y-90193248D01*
X113399788Y-90251758D01*
X113398825Y-90260923D01*
X113389150Y-90359594D01*
X113389150Y-90359599D01*
X113386000Y-90391582D01*
X113386000Y-94490028D01*
X113326297Y-94302532D01*
X113135766Y-93946073D01*
X112794609Y-93759997D01*
X111304605Y-95250000D01*
X110945395Y-95250000D01*
X109455391Y-93759997D01*
X109114234Y-93946073D01*
X108898487Y-94363409D01*
X108768304Y-94814815D01*
X108728687Y-95282946D01*
X102895000Y-95282946D01*
X102895000Y-93580391D01*
X109634997Y-93580391D01*
X111125000Y-95070395D01*
X112615003Y-93580391D01*
X112428927Y-93239234D01*
X112011591Y-93023487D01*
X111560185Y-92893304D01*
X111092054Y-92853687D01*
X110625189Y-92906158D01*
X110177532Y-93048703D01*
X109821073Y-93239234D01*
X109634997Y-93580391D01*
X102895000Y-93580391D01*
X102895000Y-76582116D01*
X104747423Y-76582116D01*
X104747423Y-77087884D01*
X104846094Y-77583934D01*
X105039643Y-78051204D01*
X105320633Y-78471735D01*
X105678265Y-78829367D01*
X106098796Y-79110357D01*
X106566066Y-79303906D01*
X107062116Y-79402577D01*
X107567884Y-79402577D01*
X108063934Y-79303906D01*
X108531204Y-79110357D01*
X108951735Y-78829367D01*
X109309367Y-78471735D01*
X109590357Y-78051204D01*
X109783906Y-77583934D01*
X109882577Y-77087884D01*
X109882577Y-76582116D01*
X182217423Y-76582116D01*
X182217423Y-77087884D01*
X182316094Y-77583934D01*
X182509643Y-78051204D01*
X182790633Y-78471735D01*
X183148265Y-78829367D01*
X183568796Y-79110357D01*
X184036066Y-79303906D01*
X184532116Y-79402577D01*
X185037884Y-79402577D01*
X185533934Y-79303906D01*
X186001204Y-79110357D01*
X186421735Y-78829367D01*
X186779367Y-78471735D01*
X187060357Y-78051204D01*
X187253906Y-77583934D01*
X187352577Y-77087884D01*
X187352577Y-76582116D01*
X187253906Y-76086066D01*
X187060357Y-75618796D01*
X186779367Y-75198265D01*
X186421735Y-74840633D01*
X186001204Y-74559643D01*
X185533934Y-74366094D01*
X185037884Y-74267423D01*
X184532116Y-74267423D01*
X184036066Y-74366094D01*
X183568796Y-74559643D01*
X183148265Y-74840633D01*
X182790633Y-75198265D01*
X182509643Y-75618796D01*
X182316094Y-76086066D01*
X182217423Y-76582116D01*
X109882577Y-76582116D01*
X109783906Y-76086066D01*
X109590357Y-75618796D01*
X109309367Y-75198265D01*
X108951735Y-74840633D01*
X108531204Y-74559643D01*
X108063934Y-74366094D01*
X107567884Y-74267423D01*
X107062116Y-74267423D01*
X106566066Y-74366094D01*
X106098796Y-74559643D01*
X105678265Y-74840633D01*
X105320633Y-75198265D01*
X105039643Y-75618796D01*
X104846094Y-76086066D01*
X104747423Y-76582116D01*
X102895000Y-76582116D01*
X102895000Y-71885103D01*
X102897775Y-71877312D01*
X102902770Y-71865532D01*
X102905888Y-71856861D01*
X103441143Y-70335239D01*
X103449024Y-70308769D01*
X103457286Y-70282372D01*
X103459543Y-70273438D01*
X103617737Y-69628418D01*
X113386000Y-69628418D01*
X113388749Y-69656332D01*
X113388728Y-69659367D01*
X113389628Y-69668538D01*
X113394764Y-69717399D01*
X113395550Y-69725382D01*
X113395631Y-69725649D01*
X113399992Y-69767140D01*
X113412016Y-69825714D01*
X113423229Y-69884496D01*
X113425893Y-69893317D01*
X113455211Y-69988028D01*
X113478370Y-70043119D01*
X113500798Y-70098632D01*
X113505125Y-70106768D01*
X113552280Y-70193980D01*
X113585730Y-70243571D01*
X113618486Y-70293629D01*
X113624310Y-70300770D01*
X113687507Y-70377162D01*
X113729942Y-70419301D01*
X113771805Y-70462051D01*
X113778906Y-70467925D01*
X113855737Y-70530587D01*
X113905548Y-70563681D01*
X113954921Y-70597488D01*
X113963027Y-70601870D01*
X114050566Y-70648415D01*
X114105841Y-70671197D01*
X114160851Y-70694775D01*
X114169655Y-70697500D01*
X114264568Y-70726156D01*
X114323241Y-70737773D01*
X114381758Y-70750212D01*
X114390923Y-70751175D01*
X114489594Y-70760850D01*
X114489598Y-70760850D01*
X114521581Y-70764000D01*
X117888419Y-70764000D01*
X117916332Y-70761251D01*
X117919367Y-70761272D01*
X117928538Y-70760372D01*
X117977384Y-70755238D01*
X117985383Y-70754450D01*
X117985650Y-70754369D01*
X118027140Y-70750008D01*
X118085714Y-70737984D01*
X118144496Y-70726771D01*
X118153317Y-70724107D01*
X118248028Y-70694789D01*
X118303119Y-70671630D01*
X118358632Y-70649202D01*
X118366768Y-70644875D01*
X118453980Y-70597720D01*
X118503571Y-70564270D01*
X118553629Y-70531514D01*
X118560770Y-70525690D01*
X118637162Y-70462493D01*
X118679301Y-70420058D01*
X118722051Y-70378195D01*
X118727925Y-70371094D01*
X118790587Y-70294263D01*
X118823681Y-70244452D01*
X118857488Y-70195079D01*
X118861870Y-70186973D01*
X118908415Y-70099434D01*
X118931197Y-70044159D01*
X118954775Y-69989149D01*
X118957500Y-69980345D01*
X118986156Y-69885432D01*
X118997773Y-69826759D01*
X119010212Y-69768242D01*
X119011175Y-69759077D01*
X119020850Y-69660406D01*
X119020850Y-69660402D01*
X119024000Y-69628419D01*
X119024000Y-61181581D01*
X119021251Y-61153668D01*
X119021272Y-61150633D01*
X119020372Y-61141462D01*
X119015238Y-61092616D01*
X119014450Y-61084617D01*
X119014369Y-61084350D01*
X119010008Y-61042860D01*
X118997984Y-60984286D01*
X118986771Y-60925504D01*
X118984107Y-60916683D01*
X118954789Y-60821973D01*
X118931636Y-60766895D01*
X118909202Y-60711368D01*
X118904875Y-60703232D01*
X118857720Y-60616020D01*
X118824270Y-60566429D01*
X118791514Y-60516371D01*
X118785689Y-60509230D01*
X118722493Y-60432838D01*
X118680058Y-60390699D01*
X118638195Y-60347949D01*
X118631094Y-60342075D01*
X118554263Y-60279413D01*
X118504467Y-60246329D01*
X118455079Y-60212512D01*
X118446973Y-60208130D01*
X118359434Y-60161585D01*
X118304159Y-60138803D01*
X118249149Y-60115225D01*
X118240346Y-60112500D01*
X118145432Y-60083844D01*
X118086752Y-60072225D01*
X118028242Y-60059788D01*
X118019077Y-60058825D01*
X117920406Y-60049150D01*
X117920402Y-60049150D01*
X117888419Y-60046000D01*
X114521581Y-60046000D01*
X114493668Y-60048749D01*
X114490633Y-60048728D01*
X114481462Y-60049628D01*
X114432616Y-60054762D01*
X114424617Y-60055550D01*
X114424350Y-60055631D01*
X114382860Y-60059992D01*
X114324286Y-60072016D01*
X114265504Y-60083229D01*
X114256683Y-60085893D01*
X114161973Y-60115211D01*
X114106895Y-60138364D01*
X114051368Y-60160798D01*
X114043232Y-60165125D01*
X113956020Y-60212280D01*
X113906429Y-60245730D01*
X113856371Y-60278486D01*
X113849230Y-60284311D01*
X113772838Y-60347507D01*
X113730709Y-60389932D01*
X113687949Y-60431805D01*
X113682075Y-60438906D01*
X113619413Y-60515737D01*
X113586329Y-60565533D01*
X113552512Y-60614921D01*
X113548130Y-60623027D01*
X113501585Y-60710566D01*
X113478813Y-60765816D01*
X113455225Y-60820851D01*
X113452500Y-60829654D01*
X113423844Y-60924568D01*
X113412225Y-60983248D01*
X113399788Y-61041758D01*
X113398825Y-61050923D01*
X113389150Y-61149594D01*
X113389150Y-61149608D01*
X113386001Y-61181581D01*
X113386000Y-69628418D01*
X103617737Y-69628418D01*
X103843759Y-68706846D01*
X103849022Y-68679718D01*
X103854666Y-68652656D01*
X103856041Y-68643544D01*
X104085550Y-67046937D01*
X104088142Y-67019416D01*
X104091117Y-66991942D01*
X104091596Y-66982739D01*
X104164209Y-65371355D01*
X104164103Y-65343745D01*
X104164383Y-65316079D01*
X104163961Y-65306874D01*
X104078983Y-63696094D01*
X104076185Y-63668643D01*
X104073763Y-63641066D01*
X104072445Y-63631946D01*
X103830689Y-62037146D01*
X103825218Y-62010061D01*
X103820123Y-61982889D01*
X103817922Y-61973941D01*
X103421694Y-60410343D01*
X103413604Y-60383914D01*
X103405884Y-60357376D01*
X103402820Y-60348686D01*
X102894998Y-58939690D01*
X102894998Y-51199609D01*
X103919997Y-51199609D01*
X104106073Y-51540766D01*
X104523409Y-51756513D01*
X104974815Y-51886696D01*
X105442946Y-51926313D01*
X105909811Y-51873842D01*
X106357468Y-51731297D01*
X106713927Y-51540766D01*
X106900003Y-51199609D01*
X105410000Y-49709605D01*
X103919997Y-51199609D01*
X102894998Y-51199609D01*
X102894999Y-49562946D01*
X103013687Y-49562946D01*
X103066158Y-50029811D01*
X103208703Y-50477468D01*
X103399234Y-50833927D01*
X103740391Y-51020003D01*
X105230395Y-49530000D01*
X105589605Y-49530000D01*
X107079609Y-51020003D01*
X107254919Y-50924384D01*
X121011361Y-50924384D01*
X121015762Y-50983994D01*
X121019335Y-51043753D01*
X121020844Y-51052844D01*
X121084200Y-51418790D01*
X121973347Y-56631653D01*
X121974646Y-56636400D01*
X121982787Y-56680191D01*
X121992182Y-56712675D01*
X121998521Y-56745905D01*
X122001185Y-56754727D01*
X122112643Y-57114790D01*
X122135831Y-57169953D01*
X122158233Y-57225399D01*
X122162559Y-57233535D01*
X122341831Y-57565092D01*
X122375276Y-57614676D01*
X122408035Y-57664737D01*
X122413859Y-57671878D01*
X122654117Y-57962300D01*
X122696550Y-58004438D01*
X122738416Y-58047191D01*
X122745517Y-58053065D01*
X123037609Y-58291289D01*
X123087447Y-58324401D01*
X123136792Y-58358188D01*
X123144898Y-58362571D01*
X123477698Y-58539523D01*
X123532973Y-58562305D01*
X123587983Y-58585883D01*
X123596786Y-58588608D01*
X123957618Y-58697550D01*
X124016321Y-58709173D01*
X124074810Y-58721606D01*
X124083975Y-58722569D01*
X124459095Y-58759350D01*
X124459098Y-58759350D01*
X124491081Y-58762500D01*
X135541419Y-58762500D01*
X135547559Y-58761895D01*
X135592372Y-58761059D01*
X135625963Y-58757131D01*
X135659779Y-58756342D01*
X135668919Y-58755165D01*
X136037325Y-58705108D01*
X136095514Y-58691312D01*
X136153924Y-58678323D01*
X136162661Y-58675392D01*
X136514326Y-58554732D01*
X136568743Y-58529889D01*
X136623501Y-58505809D01*
X136631503Y-58501238D01*
X136953036Y-58314569D01*
X137001572Y-58279643D01*
X137050629Y-58245373D01*
X137057590Y-58239334D01*
X137336741Y-57993769D01*
X137377571Y-57950079D01*
X137419035Y-57906935D01*
X137424691Y-57899659D01*
X137650829Y-57604549D01*
X137682380Y-57553786D01*
X137714690Y-57503385D01*
X137718825Y-57495149D01*
X137883336Y-57161735D01*
X137904432Y-57105793D01*
X137926331Y-57050093D01*
X137928788Y-57041211D01*
X138024690Y-56684850D01*
X138032569Y-56656570D01*
X138951102Y-51416707D01*
X138964774Y-51352031D01*
X138968548Y-51318038D01*
X138975429Y-51284520D01*
X138976328Y-51275349D01*
X139008268Y-50924384D01*
X153396361Y-50924384D01*
X153400762Y-50983994D01*
X153404335Y-51043753D01*
X153405844Y-51052844D01*
X153469200Y-51418790D01*
X154358347Y-56631653D01*
X154359646Y-56636400D01*
X154367787Y-56680191D01*
X154377182Y-56712675D01*
X154383521Y-56745905D01*
X154386185Y-56754727D01*
X154497643Y-57114790D01*
X154520831Y-57169953D01*
X154543233Y-57225399D01*
X154547559Y-57233535D01*
X154726831Y-57565092D01*
X154760276Y-57614676D01*
X154793035Y-57664737D01*
X154798859Y-57671878D01*
X155039117Y-57962300D01*
X155081550Y-58004438D01*
X155123416Y-58047191D01*
X155130517Y-58053065D01*
X155422609Y-58291289D01*
X155472447Y-58324401D01*
X155521792Y-58358188D01*
X155529898Y-58362571D01*
X155862698Y-58539523D01*
X155917973Y-58562305D01*
X155972983Y-58585883D01*
X155981786Y-58588608D01*
X156342618Y-58697550D01*
X156401321Y-58709173D01*
X156459810Y-58721606D01*
X156468975Y-58722569D01*
X156844095Y-58759350D01*
X156844098Y-58759350D01*
X156876081Y-58762500D01*
X167926419Y-58762500D01*
X167932559Y-58761895D01*
X167977372Y-58761059D01*
X168010963Y-58757131D01*
X168044779Y-58756342D01*
X168053919Y-58755165D01*
X168422325Y-58705108D01*
X168480514Y-58691312D01*
X168538924Y-58678323D01*
X168547661Y-58675392D01*
X168899326Y-58554732D01*
X168953743Y-58529889D01*
X169008501Y-58505809D01*
X169016503Y-58501238D01*
X169338036Y-58314569D01*
X169386572Y-58279643D01*
X169435629Y-58245373D01*
X169442590Y-58239334D01*
X169721741Y-57993769D01*
X169762571Y-57950079D01*
X169804035Y-57906935D01*
X169809691Y-57899659D01*
X170035829Y-57604549D01*
X170067380Y-57553786D01*
X170099690Y-57503385D01*
X170103825Y-57495149D01*
X170268336Y-57161735D01*
X170289432Y-57105793D01*
X170311331Y-57050093D01*
X170313788Y-57041211D01*
X170409690Y-56684850D01*
X170417569Y-56656570D01*
X171336102Y-51416707D01*
X171349774Y-51352031D01*
X171353548Y-51318038D01*
X171360429Y-51284520D01*
X171361328Y-51275349D01*
X171368220Y-51199609D01*
X185199997Y-51199609D01*
X185386073Y-51540766D01*
X185803409Y-51756513D01*
X186254815Y-51886696D01*
X186722946Y-51926313D01*
X187189811Y-51873842D01*
X187637468Y-51731297D01*
X187993927Y-51540766D01*
X188180003Y-51199609D01*
X186690000Y-49709605D01*
X185199997Y-51199609D01*
X171368220Y-51199609D01*
X171395921Y-50895237D01*
X171395503Y-50835420D01*
X171395921Y-50775603D01*
X171395022Y-50766432D01*
X171355126Y-50386839D01*
X171343088Y-50328197D01*
X171331888Y-50269481D01*
X171329225Y-50260659D01*
X171216358Y-49896046D01*
X171193175Y-49840898D01*
X171170768Y-49785438D01*
X171166442Y-49777301D01*
X171050541Y-49562946D01*
X184293687Y-49562946D01*
X184346158Y-50029811D01*
X184488703Y-50477468D01*
X184679234Y-50833927D01*
X185020391Y-51020003D01*
X186510395Y-49530000D01*
X186869605Y-49530000D01*
X188359609Y-51020003D01*
X188700766Y-50833927D01*
X188916513Y-50416591D01*
X189046696Y-49965185D01*
X189086313Y-49497054D01*
X189033842Y-49030189D01*
X188891297Y-48582532D01*
X188700766Y-48226073D01*
X188359609Y-48039997D01*
X186869605Y-49530000D01*
X186510395Y-49530000D01*
X185020391Y-48039997D01*
X184679234Y-48226073D01*
X184463487Y-48643409D01*
X184333304Y-49094815D01*
X184293687Y-49562946D01*
X171050541Y-49562946D01*
X170984904Y-49441555D01*
X170951449Y-49391956D01*
X170918700Y-49341910D01*
X170912876Y-49334769D01*
X170669583Y-49040676D01*
X170627127Y-48998516D01*
X170585283Y-48955786D01*
X170578183Y-48949912D01*
X170282400Y-48708677D01*
X170232589Y-48675583D01*
X170183217Y-48641777D01*
X170175111Y-48637395D01*
X169838105Y-48458205D01*
X169782813Y-48435416D01*
X169727817Y-48411844D01*
X169719014Y-48409120D01*
X169353621Y-48298802D01*
X169294948Y-48287185D01*
X169236431Y-48274746D01*
X169227267Y-48273783D01*
X168847405Y-48236537D01*
X168847399Y-48236537D01*
X168815335Y-48233383D01*
X155923499Y-48235005D01*
X155910288Y-48236308D01*
X155775874Y-48241732D01*
X155735313Y-48247368D01*
X155694438Y-48250099D01*
X155685358Y-48251671D01*
X155319470Y-48317651D01*
X155261926Y-48333959D01*
X155204142Y-48349465D01*
X155195540Y-48352772D01*
X154849435Y-48488563D01*
X154796162Y-48515733D01*
X154742483Y-48542172D01*
X154734687Y-48547086D01*
X154421549Y-48747517D01*
X154374576Y-48784511D01*
X154327046Y-48820879D01*
X154320353Y-48827214D01*
X154052109Y-49084651D01*
X154013199Y-49130085D01*
X153973658Y-49174969D01*
X153968323Y-49182483D01*
X153755190Y-49487118D01*
X153725841Y-49539251D01*
X153695774Y-49590957D01*
X153692000Y-49599364D01*
X153542097Y-49939596D01*
X153523456Y-49996368D01*
X153503981Y-50052997D01*
X153501912Y-50061977D01*
X153420949Y-50424845D01*
X153413684Y-50484205D01*
X153405586Y-50543490D01*
X153405301Y-50552700D01*
X153396361Y-50924384D01*
X139008268Y-50924384D01*
X139010921Y-50895237D01*
X139010503Y-50835420D01*
X139010921Y-50775603D01*
X139010022Y-50766432D01*
X138970126Y-50386839D01*
X138958088Y-50328197D01*
X138946888Y-50269481D01*
X138944225Y-50260659D01*
X138831358Y-49896046D01*
X138808175Y-49840898D01*
X138785768Y-49785438D01*
X138781442Y-49777301D01*
X138599904Y-49441555D01*
X138566449Y-49391956D01*
X138533700Y-49341910D01*
X138527876Y-49334769D01*
X138284583Y-49040676D01*
X138242127Y-48998516D01*
X138200283Y-48955786D01*
X138193183Y-48949912D01*
X137897400Y-48708677D01*
X137847589Y-48675583D01*
X137798217Y-48641777D01*
X137790111Y-48637395D01*
X137453105Y-48458205D01*
X137397813Y-48435416D01*
X137342817Y-48411844D01*
X137334014Y-48409120D01*
X136968621Y-48298802D01*
X136909948Y-48287185D01*
X136851431Y-48274746D01*
X136842267Y-48273783D01*
X136462405Y-48236537D01*
X136462399Y-48236537D01*
X136430335Y-48233383D01*
X123538499Y-48235005D01*
X123525288Y-48236308D01*
X123390874Y-48241732D01*
X123350313Y-48247368D01*
X123309438Y-48250099D01*
X123300358Y-48251671D01*
X122934470Y-48317651D01*
X122876926Y-48333959D01*
X122819142Y-48349465D01*
X122810540Y-48352772D01*
X122464435Y-48488563D01*
X122411162Y-48515733D01*
X122357483Y-48542172D01*
X122349687Y-48547086D01*
X122036549Y-48747517D01*
X121989576Y-48784511D01*
X121942046Y-48820879D01*
X121935353Y-48827214D01*
X121667109Y-49084651D01*
X121628199Y-49130085D01*
X121588658Y-49174969D01*
X121583323Y-49182483D01*
X121370190Y-49487118D01*
X121340841Y-49539251D01*
X121310774Y-49590957D01*
X121307000Y-49599364D01*
X121157097Y-49939596D01*
X121138456Y-49996368D01*
X121118981Y-50052997D01*
X121116912Y-50061977D01*
X121035949Y-50424845D01*
X121028684Y-50484205D01*
X121020586Y-50543490D01*
X121020301Y-50552700D01*
X121011361Y-50924384D01*
X107254919Y-50924384D01*
X107420766Y-50833927D01*
X107636513Y-50416591D01*
X107766696Y-49965185D01*
X107806313Y-49497054D01*
X107753842Y-49030189D01*
X107611297Y-48582532D01*
X107420766Y-48226073D01*
X107079609Y-48039997D01*
X105589605Y-49530000D01*
X105230395Y-49530000D01*
X103740391Y-48039997D01*
X103399234Y-48226073D01*
X103183487Y-48643409D01*
X103053304Y-49094815D01*
X103013687Y-49562946D01*
X102894999Y-49562946D01*
X102895000Y-49562278D01*
X102946002Y-49042116D01*
X103087694Y-48572812D01*
X103317837Y-48139975D01*
X103545860Y-47860391D01*
X103919997Y-47860391D01*
X105410000Y-49350395D01*
X106900003Y-47860391D01*
X185199997Y-47860391D01*
X186690000Y-49350395D01*
X188180003Y-47860391D01*
X187993927Y-47519234D01*
X187576591Y-47303487D01*
X187125185Y-47173304D01*
X186657054Y-47133687D01*
X186190189Y-47186158D01*
X185742532Y-47328703D01*
X185386073Y-47519234D01*
X185199997Y-47860391D01*
X106900003Y-47860391D01*
X106713927Y-47519234D01*
X106296591Y-47303487D01*
X105845185Y-47173304D01*
X105377054Y-47133687D01*
X104910189Y-47186158D01*
X104462532Y-47328703D01*
X104106073Y-47519234D01*
X103919997Y-47860391D01*
X103545860Y-47860391D01*
X103627678Y-47760073D01*
X104005397Y-47447597D01*
X104436627Y-47214431D01*
X104904928Y-47069468D01*
X105423153Y-47015000D01*
X186657722Y-47015000D01*
X187177884Y-47066002D01*
%TA.AperFunction,Conductor*%
D12*
G36*
X187177884Y-47066002D02*
G01*
X187647188Y-47207694D01*
X188080025Y-47437837D01*
X188459927Y-47747678D01*
X188772403Y-48125397D01*
X189005569Y-48556627D01*
X189150532Y-49024928D01*
X189205001Y-49543163D01*
X189205000Y-58924897D01*
X189202227Y-58932686D01*
X189197230Y-58944468D01*
X189194112Y-58953140D01*
X188658857Y-60474761D01*
X188650980Y-60501219D01*
X188642714Y-60527627D01*
X188640457Y-60536562D01*
X188256241Y-62103154D01*
X188250976Y-62130288D01*
X188245334Y-62157344D01*
X188243959Y-62166456D01*
X188014450Y-63763064D01*
X188011859Y-63790577D01*
X188008883Y-63818058D01*
X188008404Y-63827261D01*
X187935791Y-65438645D01*
X187935897Y-65466255D01*
X187935617Y-65493921D01*
X187936039Y-65503127D01*
X188021017Y-67113906D01*
X188023815Y-67141357D01*
X188026237Y-67168934D01*
X188027555Y-67178054D01*
X188269311Y-68772855D01*
X188274782Y-68799941D01*
X188279877Y-68827111D01*
X188282078Y-68836060D01*
X188678306Y-70399657D01*
X188686388Y-70426058D01*
X188694116Y-70452624D01*
X188697180Y-70461314D01*
X189205001Y-71870308D01*
X189205000Y-138397725D01*
X189204335Y-138404513D01*
X189199699Y-138405000D01*
X102902275Y-138405000D01*
X102895487Y-138404335D01*
X102895000Y-138399699D01*
X102895000Y-136289609D01*
X103919997Y-136289609D01*
X104106073Y-136630766D01*
X104523409Y-136846513D01*
X104974815Y-136976696D01*
X105442946Y-137016313D01*
X105909811Y-136963842D01*
X106357468Y-136821297D01*
X106713927Y-136630766D01*
X106900003Y-136289609D01*
X185199997Y-136289609D01*
X185386073Y-136630766D01*
X185803409Y-136846513D01*
X186254815Y-136976696D01*
X186722946Y-137016313D01*
X187189811Y-136963842D01*
X187637468Y-136821297D01*
X187993927Y-136630766D01*
X188180003Y-136289609D01*
X186690000Y-134799605D01*
X185199997Y-136289609D01*
X106900003Y-136289609D01*
X105410000Y-134799605D01*
X103919997Y-136289609D01*
X102895000Y-136289609D01*
X102895000Y-134652946D01*
X103013687Y-134652946D01*
X103066158Y-135119811D01*
X103208703Y-135567468D01*
X103399234Y-135923927D01*
X103740391Y-136110003D01*
X105230395Y-134620000D01*
X105589605Y-134620000D01*
X107079609Y-136110003D01*
X107420766Y-135923927D01*
X107636513Y-135506591D01*
X107766696Y-135055185D01*
X107800736Y-134652946D01*
X184293687Y-134652946D01*
X184346158Y-135119811D01*
X184488703Y-135567468D01*
X184679234Y-135923927D01*
X185020391Y-136110003D01*
X186510395Y-134620000D01*
X186869605Y-134620000D01*
X188359609Y-136110003D01*
X188700766Y-135923927D01*
X188916513Y-135506591D01*
X189046696Y-135055185D01*
X189086313Y-134587054D01*
X189033842Y-134120189D01*
X188891297Y-133672532D01*
X188700766Y-133316073D01*
X188359609Y-133129997D01*
X186869605Y-134620000D01*
X186510395Y-134620000D01*
X185020391Y-133129997D01*
X184679234Y-133316073D01*
X184463487Y-133733409D01*
X184333304Y-134184815D01*
X184293687Y-134652946D01*
X107800736Y-134652946D01*
X107806313Y-134587054D01*
X107753842Y-134120189D01*
X107611297Y-133672532D01*
X107420766Y-133316073D01*
X107079609Y-133129997D01*
X105589605Y-134620000D01*
X105230395Y-134620000D01*
X103740391Y-133129997D01*
X103399234Y-133316073D01*
X103183487Y-133733409D01*
X103053304Y-134184815D01*
X103013687Y-134652946D01*
X102895000Y-134652946D01*
X102895000Y-132950391D01*
X103919997Y-132950391D01*
X105410000Y-134440395D01*
X106900003Y-132950391D01*
X185199997Y-132950391D01*
X186690000Y-134440395D01*
X188180003Y-132950391D01*
X187993927Y-132609234D01*
X187576591Y-132393487D01*
X187125185Y-132263304D01*
X186657054Y-132223687D01*
X186190189Y-132276158D01*
X185742532Y-132418703D01*
X185386073Y-132609234D01*
X185199997Y-132950391D01*
X106900003Y-132950391D01*
X106713927Y-132609234D01*
X106296591Y-132393487D01*
X105845185Y-132263304D01*
X105377054Y-132223687D01*
X104910189Y-132276158D01*
X104462532Y-132418703D01*
X104106073Y-132609234D01*
X103919997Y-132950391D01*
X102895000Y-132950391D01*
X102895000Y-96919609D01*
X109634997Y-96919609D01*
X109821073Y-97260766D01*
X110238409Y-97476513D01*
X110689815Y-97606696D01*
X111157946Y-97646313D01*
X111624811Y-97593842D01*
X112072468Y-97451297D01*
X112428927Y-97260766D01*
X112615003Y-96919609D01*
X111125000Y-95429605D01*
X109634997Y-96919609D01*
X102895000Y-96919609D01*
X102895000Y-95282946D01*
X108728687Y-95282946D01*
X108781158Y-95749811D01*
X108923703Y-96197468D01*
X109114234Y-96553927D01*
X109455391Y-96740003D01*
X110945395Y-95250000D01*
X111304605Y-95250000D01*
X112794609Y-96740003D01*
X113135766Y-96553927D01*
X113351513Y-96136591D01*
X113386001Y-96017006D01*
X113386001Y-100108419D01*
X113388749Y-100136323D01*
X113388728Y-100139367D01*
X113389628Y-100148538D01*
X113394778Y-100197535D01*
X113395551Y-100205383D01*
X113395630Y-100205645D01*
X113399992Y-100247140D01*
X113412016Y-100305714D01*
X113423229Y-100364496D01*
X113425893Y-100373317D01*
X113455211Y-100468028D01*
X113478370Y-100523119D01*
X113500798Y-100578632D01*
X113505125Y-100586768D01*
X113552280Y-100673980D01*
X113585730Y-100723571D01*
X113618486Y-100773629D01*
X113624310Y-100780770D01*
X113687507Y-100857162D01*
X113729942Y-100899301D01*
X113771805Y-100942051D01*
X113778906Y-100947925D01*
X113855737Y-101010587D01*
X113905548Y-101043681D01*
X113954921Y-101077488D01*
X113963027Y-101081870D01*
X114050566Y-101128415D01*
X114105841Y-101151197D01*
X114160851Y-101174775D01*
X114169655Y-101177500D01*
X114264568Y-101206156D01*
X114323241Y-101217773D01*
X114381758Y-101230212D01*
X114390923Y-101231175D01*
X114489594Y-101240850D01*
X114489598Y-101240850D01*
X114521581Y-101244000D01*
X177578419Y-101244000D01*
X177606332Y-101241251D01*
X177609367Y-101241272D01*
X177618538Y-101240372D01*
X177667384Y-101235238D01*
X177675383Y-101234450D01*
X177675650Y-101234369D01*
X177717140Y-101230008D01*
X177775714Y-101217984D01*
X177834496Y-101206771D01*
X177843317Y-101204107D01*
X177938028Y-101174789D01*
X177993119Y-101151630D01*
X178048632Y-101129202D01*
X178056768Y-101124875D01*
X178143980Y-101077720D01*
X178193571Y-101044270D01*
X178243629Y-101011514D01*
X178250770Y-101005690D01*
X178327162Y-100942493D01*
X178369301Y-100900058D01*
X178412051Y-100858195D01*
X178417925Y-100851094D01*
X178480587Y-100774263D01*
X178513681Y-100724452D01*
X178547488Y-100675079D01*
X178551870Y-100666973D01*
X178598415Y-100579434D01*
X178621197Y-100524159D01*
X178644775Y-100469149D01*
X178647500Y-100460345D01*
X178676156Y-100365432D01*
X178687773Y-100306759D01*
X178700212Y-100248242D01*
X178701175Y-100239077D01*
X178710850Y-100140406D01*
X178710850Y-100140402D01*
X178714000Y-100108419D01*
X178714000Y-96919609D01*
X179484997Y-96919609D01*
X179671073Y-97260766D01*
X180088409Y-97476513D01*
X180539815Y-97606696D01*
X181007946Y-97646313D01*
X181474811Y-97593842D01*
X181922468Y-97451297D01*
X182278927Y-97260766D01*
X182465003Y-96919609D01*
X180975000Y-95429605D01*
X179484997Y-96919609D01*
X178714000Y-96919609D01*
X178714000Y-96009973D01*
X178773703Y-96197468D01*
X178964234Y-96553927D01*
X179305391Y-96740003D01*
X180795395Y-95250000D01*
X181154605Y-95250000D01*
X182644609Y-96740003D01*
X182985766Y-96553927D01*
X183201513Y-96136591D01*
X183331696Y-95685185D01*
X183371313Y-95217054D01*
X183318842Y-94750189D01*
X183176297Y-94302532D01*
X182985766Y-93946073D01*
X182644609Y-93759997D01*
X181154605Y-95250000D01*
X180795395Y-95250000D01*
X179305391Y-93759997D01*
X178964234Y-93946073D01*
X178748487Y-94363409D01*
X178714000Y-94482992D01*
X178714000Y-93580391D01*
X179484997Y-93580391D01*
X180975000Y-95070395D01*
X182465003Y-93580391D01*
X182278927Y-93239234D01*
X181861591Y-93023487D01*
X181410185Y-92893304D01*
X180942054Y-92853687D01*
X180475189Y-92906158D01*
X180027532Y-93048703D01*
X179671073Y-93239234D01*
X179484997Y-93580391D01*
X178714000Y-93580391D01*
X178714000Y-90391581D01*
X178711251Y-90363668D01*
X178711272Y-90360633D01*
X178710372Y-90351462D01*
X178705238Y-90302616D01*
X178704450Y-90294617D01*
X178704369Y-90294350D01*
X178700008Y-90252860D01*
X178687984Y-90194286D01*
X178676771Y-90135504D01*
X178674107Y-90126683D01*
X178644789Y-90031973D01*
X178621636Y-89976895D01*
X178599202Y-89921368D01*
X178594875Y-89913232D01*
X178547720Y-89826020D01*
X178514270Y-89776429D01*
X178481514Y-89726371D01*
X178475689Y-89719230D01*
X178412493Y-89642838D01*
X178370058Y-89600699D01*
X178328195Y-89557949D01*
X178321094Y-89552075D01*
X178244263Y-89489413D01*
X178194467Y-89456329D01*
X178145079Y-89422512D01*
X178136973Y-89418130D01*
X178049434Y-89371585D01*
X177994159Y-89348803D01*
X177939149Y-89325225D01*
X177930346Y-89322500D01*
X177835432Y-89293844D01*
X177776752Y-89282225D01*
X177718242Y-89269788D01*
X177709077Y-89268825D01*
X177610406Y-89259150D01*
X177610402Y-89259150D01*
X177578419Y-89256000D01*
X114521581Y-89256000D01*
X114493668Y-89258749D01*
X114490633Y-89258728D01*
X114481462Y-89259628D01*
X114432616Y-89264762D01*
X114424617Y-89265550D01*
X114424350Y-89265631D01*
X114382860Y-89269992D01*
X114324286Y-89282016D01*
X114265504Y-89293229D01*
X114256683Y-89295893D01*
X114161973Y-89325211D01*
X114106895Y-89348364D01*
X114051368Y-89370798D01*
X114043232Y-89375125D01*
X113956020Y-89422280D01*
X113906429Y-89455730D01*
X113856371Y-89488486D01*
X113849230Y-89494311D01*
X113772838Y-89557507D01*
X113730709Y-89599932D01*
X113687949Y-89641805D01*
X113682075Y-89648906D01*
X113619413Y-89725737D01*
X113586329Y-89775533D01*
X113552512Y-89824921D01*
X113548130Y-89833027D01*
X113501585Y-89920566D01*
X113478813Y-89975816D01*
X113455225Y-90030851D01*
X113452500Y-90039654D01*
X113423844Y-90134568D01*
X113412225Y-90193248D01*
X113399788Y-90251758D01*
X113398825Y-90260923D01*
X113389150Y-90359594D01*
X113389150Y-90359599D01*
X113386000Y-90391582D01*
X113386000Y-94490028D01*
X113326297Y-94302532D01*
X113135766Y-93946073D01*
X112794609Y-93759997D01*
X111304605Y-95250000D01*
X110945395Y-95250000D01*
X109455391Y-93759997D01*
X109114234Y-93946073D01*
X108898487Y-94363409D01*
X108768304Y-94814815D01*
X108728687Y-95282946D01*
X102895000Y-95282946D01*
X102895000Y-93580391D01*
X109634997Y-93580391D01*
X111125000Y-95070395D01*
X112615003Y-93580391D01*
X112428927Y-93239234D01*
X112011591Y-93023487D01*
X111560185Y-92893304D01*
X111092054Y-92853687D01*
X110625189Y-92906158D01*
X110177532Y-93048703D01*
X109821073Y-93239234D01*
X109634997Y-93580391D01*
X102895000Y-93580391D01*
X102895000Y-76582116D01*
X104747423Y-76582116D01*
X104747423Y-77087884D01*
X104846094Y-77583934D01*
X105039643Y-78051204D01*
X105320633Y-78471735D01*
X105678265Y-78829367D01*
X106098796Y-79110357D01*
X106566066Y-79303906D01*
X107062116Y-79402577D01*
X107567884Y-79402577D01*
X108063934Y-79303906D01*
X108531204Y-79110357D01*
X108951735Y-78829367D01*
X109309367Y-78471735D01*
X109590357Y-78051204D01*
X109783906Y-77583934D01*
X109882577Y-77087884D01*
X109882577Y-76582116D01*
X182217423Y-76582116D01*
X182217423Y-77087884D01*
X182316094Y-77583934D01*
X182509643Y-78051204D01*
X182790633Y-78471735D01*
X183148265Y-78829367D01*
X183568796Y-79110357D01*
X184036066Y-79303906D01*
X184532116Y-79402577D01*
X185037884Y-79402577D01*
X185533934Y-79303906D01*
X186001204Y-79110357D01*
X186421735Y-78829367D01*
X186779367Y-78471735D01*
X187060357Y-78051204D01*
X187253906Y-77583934D01*
X187352577Y-77087884D01*
X187352577Y-76582116D01*
X187253906Y-76086066D01*
X187060357Y-75618796D01*
X186779367Y-75198265D01*
X186421735Y-74840633D01*
X186001204Y-74559643D01*
X185533934Y-74366094D01*
X185037884Y-74267423D01*
X184532116Y-74267423D01*
X184036066Y-74366094D01*
X183568796Y-74559643D01*
X183148265Y-74840633D01*
X182790633Y-75198265D01*
X182509643Y-75618796D01*
X182316094Y-76086066D01*
X182217423Y-76582116D01*
X109882577Y-76582116D01*
X109783906Y-76086066D01*
X109590357Y-75618796D01*
X109309367Y-75198265D01*
X108951735Y-74840633D01*
X108531204Y-74559643D01*
X108063934Y-74366094D01*
X107567884Y-74267423D01*
X107062116Y-74267423D01*
X106566066Y-74366094D01*
X106098796Y-74559643D01*
X105678265Y-74840633D01*
X105320633Y-75198265D01*
X105039643Y-75618796D01*
X104846094Y-76086066D01*
X104747423Y-76582116D01*
X102895000Y-76582116D01*
X102895000Y-71885103D01*
X102897775Y-71877312D01*
X102902770Y-71865532D01*
X102905888Y-71856861D01*
X103441143Y-70335239D01*
X103449024Y-70308769D01*
X103457286Y-70282372D01*
X103459543Y-70273438D01*
X103617737Y-69628418D01*
X113386000Y-69628418D01*
X113388749Y-69656332D01*
X113388728Y-69659367D01*
X113389628Y-69668538D01*
X113394764Y-69717399D01*
X113395550Y-69725382D01*
X113395631Y-69725649D01*
X113399992Y-69767140D01*
X113412016Y-69825714D01*
X113423229Y-69884496D01*
X113425893Y-69893317D01*
X113455211Y-69988028D01*
X113478370Y-70043119D01*
X113500798Y-70098632D01*
X113505125Y-70106768D01*
X113552280Y-70193980D01*
X113585730Y-70243571D01*
X113618486Y-70293629D01*
X113624310Y-70300770D01*
X113687507Y-70377162D01*
X113729942Y-70419301D01*
X113771805Y-70462051D01*
X113778906Y-70467925D01*
X113855737Y-70530587D01*
X113905548Y-70563681D01*
X113954921Y-70597488D01*
X113963027Y-70601870D01*
X114050566Y-70648415D01*
X114105841Y-70671197D01*
X114160851Y-70694775D01*
X114169655Y-70697500D01*
X114264568Y-70726156D01*
X114323241Y-70737773D01*
X114381758Y-70750212D01*
X114390923Y-70751175D01*
X114489594Y-70760850D01*
X114489598Y-70760850D01*
X114521581Y-70764000D01*
X117888419Y-70764000D01*
X117916332Y-70761251D01*
X117919367Y-70761272D01*
X117928538Y-70760372D01*
X117977384Y-70755238D01*
X117985383Y-70754450D01*
X117985650Y-70754369D01*
X118027140Y-70750008D01*
X118085714Y-70737984D01*
X118144496Y-70726771D01*
X118153317Y-70724107D01*
X118248028Y-70694789D01*
X118303119Y-70671630D01*
X118358632Y-70649202D01*
X118366768Y-70644875D01*
X118453980Y-70597720D01*
X118503571Y-70564270D01*
X118553629Y-70531514D01*
X118560770Y-70525690D01*
X118637162Y-70462493D01*
X118679301Y-70420058D01*
X118722051Y-70378195D01*
X118727925Y-70371094D01*
X118790587Y-70294263D01*
X118823681Y-70244452D01*
X118857488Y-70195079D01*
X118861870Y-70186973D01*
X118908415Y-70099434D01*
X118931197Y-70044159D01*
X118954775Y-69989149D01*
X118957500Y-69980345D01*
X118986156Y-69885432D01*
X118997773Y-69826759D01*
X119010212Y-69768242D01*
X119011175Y-69759077D01*
X119020850Y-69660406D01*
X119020850Y-69660402D01*
X119024000Y-69628419D01*
X119024000Y-61181581D01*
X119021251Y-61153668D01*
X119021272Y-61150633D01*
X119020372Y-61141462D01*
X119015238Y-61092616D01*
X119014450Y-61084617D01*
X119014369Y-61084350D01*
X119010008Y-61042860D01*
X118997984Y-60984286D01*
X118986771Y-60925504D01*
X118984107Y-60916683D01*
X118954789Y-60821973D01*
X118931636Y-60766895D01*
X118909202Y-60711368D01*
X118904875Y-60703232D01*
X118857720Y-60616020D01*
X118824270Y-60566429D01*
X118791514Y-60516371D01*
X118785689Y-60509230D01*
X118722493Y-60432838D01*
X118680058Y-60390699D01*
X118638195Y-60347949D01*
X118631094Y-60342075D01*
X118554263Y-60279413D01*
X118504467Y-60246329D01*
X118455079Y-60212512D01*
X118446973Y-60208130D01*
X118359434Y-60161585D01*
X118304159Y-60138803D01*
X118249149Y-60115225D01*
X118240346Y-60112500D01*
X118145432Y-60083844D01*
X118086752Y-60072225D01*
X118028242Y-60059788D01*
X118019077Y-60058825D01*
X117920406Y-60049150D01*
X117920402Y-60049150D01*
X117888419Y-60046000D01*
X114521581Y-60046000D01*
X114493668Y-60048749D01*
X114490633Y-60048728D01*
X114481462Y-60049628D01*
X114432616Y-60054762D01*
X114424617Y-60055550D01*
X114424350Y-60055631D01*
X114382860Y-60059992D01*
X114324286Y-60072016D01*
X114265504Y-60083229D01*
X114256683Y-60085893D01*
X114161973Y-60115211D01*
X114106895Y-60138364D01*
X114051368Y-60160798D01*
X114043232Y-60165125D01*
X113956020Y-60212280D01*
X113906429Y-60245730D01*
X113856371Y-60278486D01*
X113849230Y-60284311D01*
X113772838Y-60347507D01*
X113730709Y-60389932D01*
X113687949Y-60431805D01*
X113682075Y-60438906D01*
X113619413Y-60515737D01*
X113586329Y-60565533D01*
X113552512Y-60614921D01*
X113548130Y-60623027D01*
X113501585Y-60710566D01*
X113478813Y-60765816D01*
X113455225Y-60820851D01*
X113452500Y-60829654D01*
X113423844Y-60924568D01*
X113412225Y-60983248D01*
X113399788Y-61041758D01*
X113398825Y-61050923D01*
X113389150Y-61149594D01*
X113389150Y-61149608D01*
X113386001Y-61181581D01*
X113386000Y-69628418D01*
X103617737Y-69628418D01*
X103843759Y-68706846D01*
X103849022Y-68679718D01*
X103854666Y-68652656D01*
X103856041Y-68643544D01*
X104085550Y-67046937D01*
X104088142Y-67019416D01*
X104091117Y-66991942D01*
X104091596Y-66982739D01*
X104164209Y-65371355D01*
X104164103Y-65343745D01*
X104164383Y-65316079D01*
X104163961Y-65306874D01*
X104078983Y-63696094D01*
X104076185Y-63668643D01*
X104073763Y-63641066D01*
X104072445Y-63631946D01*
X103830689Y-62037146D01*
X103825218Y-62010061D01*
X103820123Y-61982889D01*
X103817922Y-61973941D01*
X103421694Y-60410343D01*
X103413604Y-60383914D01*
X103405884Y-60357376D01*
X103402820Y-60348686D01*
X102894998Y-58939690D01*
X102894998Y-51199609D01*
X103919997Y-51199609D01*
X104106073Y-51540766D01*
X104523409Y-51756513D01*
X104974815Y-51886696D01*
X105442946Y-51926313D01*
X105909811Y-51873842D01*
X106357468Y-51731297D01*
X106713927Y-51540766D01*
X106900003Y-51199609D01*
X105410000Y-49709605D01*
X103919997Y-51199609D01*
X102894998Y-51199609D01*
X102894999Y-49562946D01*
X103013687Y-49562946D01*
X103066158Y-50029811D01*
X103208703Y-50477468D01*
X103399234Y-50833927D01*
X103740391Y-51020003D01*
X105230395Y-49530000D01*
X105589605Y-49530000D01*
X107079609Y-51020003D01*
X107254919Y-50924384D01*
X121011361Y-50924384D01*
X121015762Y-50983994D01*
X121019335Y-51043753D01*
X121020844Y-51052844D01*
X121084200Y-51418790D01*
X121973347Y-56631653D01*
X121974646Y-56636400D01*
X121982787Y-56680191D01*
X121992182Y-56712675D01*
X121998521Y-56745905D01*
X122001185Y-56754727D01*
X122112643Y-57114790D01*
X122135831Y-57169953D01*
X122158233Y-57225399D01*
X122162559Y-57233535D01*
X122341831Y-57565092D01*
X122375276Y-57614676D01*
X122408035Y-57664737D01*
X122413859Y-57671878D01*
X122654117Y-57962300D01*
X122696550Y-58004438D01*
X122738416Y-58047191D01*
X122745517Y-58053065D01*
X123037609Y-58291289D01*
X123087447Y-58324401D01*
X123136792Y-58358188D01*
X123144898Y-58362571D01*
X123477698Y-58539523D01*
X123532973Y-58562305D01*
X123587983Y-58585883D01*
X123596786Y-58588608D01*
X123957618Y-58697550D01*
X124016321Y-58709173D01*
X124074810Y-58721606D01*
X124083975Y-58722569D01*
X124459095Y-58759350D01*
X124459098Y-58759350D01*
X124491081Y-58762500D01*
X135541419Y-58762500D01*
X135547559Y-58761895D01*
X135592372Y-58761059D01*
X135625963Y-58757131D01*
X135659779Y-58756342D01*
X135668919Y-58755165D01*
X136037325Y-58705108D01*
X136095514Y-58691312D01*
X136153924Y-58678323D01*
X136162661Y-58675392D01*
X136514326Y-58554732D01*
X136568743Y-58529889D01*
X136623501Y-58505809D01*
X136631503Y-58501238D01*
X136953036Y-58314569D01*
X137001572Y-58279643D01*
X137050629Y-58245373D01*
X137057590Y-58239334D01*
X137336741Y-57993769D01*
X137377571Y-57950079D01*
X137419035Y-57906935D01*
X137424691Y-57899659D01*
X137650829Y-57604549D01*
X137682380Y-57553786D01*
X137714690Y-57503385D01*
X137718825Y-57495149D01*
X137883336Y-57161735D01*
X137904432Y-57105793D01*
X137926331Y-57050093D01*
X137928788Y-57041211D01*
X138024690Y-56684850D01*
X138032569Y-56656570D01*
X138951102Y-51416707D01*
X138964774Y-51352031D01*
X138968548Y-51318038D01*
X138975429Y-51284520D01*
X138976328Y-51275349D01*
X139008268Y-50924384D01*
X153396361Y-50924384D01*
X153400762Y-50983994D01*
X153404335Y-51043753D01*
X153405844Y-51052844D01*
X153469200Y-51418790D01*
X154358347Y-56631653D01*
X154359646Y-56636400D01*
X154367787Y-56680191D01*
X154377182Y-56712675D01*
X154383521Y-56745905D01*
X154386185Y-56754727D01*
X154497643Y-57114790D01*
X154520831Y-57169953D01*
X154543233Y-57225399D01*
X154547559Y-57233535D01*
X154726831Y-57565092D01*
X154760276Y-57614676D01*
X154793035Y-57664737D01*
X154798859Y-57671878D01*
X155039117Y-57962300D01*
X155081550Y-58004438D01*
X155123416Y-58047191D01*
X155130517Y-58053065D01*
X155422609Y-58291289D01*
X155472447Y-58324401D01*
X155521792Y-58358188D01*
X155529898Y-58362571D01*
X155862698Y-58539523D01*
X155917973Y-58562305D01*
X155972983Y-58585883D01*
X155981786Y-58588608D01*
X156342618Y-58697550D01*
X156401321Y-58709173D01*
X156459810Y-58721606D01*
X156468975Y-58722569D01*
X156844095Y-58759350D01*
X156844098Y-58759350D01*
X156876081Y-58762500D01*
X167926419Y-58762500D01*
X167932559Y-58761895D01*
X167977372Y-58761059D01*
X168010963Y-58757131D01*
X168044779Y-58756342D01*
X168053919Y-58755165D01*
X168422325Y-58705108D01*
X168480514Y-58691312D01*
X168538924Y-58678323D01*
X168547661Y-58675392D01*
X168899326Y-58554732D01*
X168953743Y-58529889D01*
X169008501Y-58505809D01*
X169016503Y-58501238D01*
X169338036Y-58314569D01*
X169386572Y-58279643D01*
X169435629Y-58245373D01*
X169442590Y-58239334D01*
X169721741Y-57993769D01*
X169762571Y-57950079D01*
X169804035Y-57906935D01*
X169809691Y-57899659D01*
X170035829Y-57604549D01*
X170067380Y-57553786D01*
X170099690Y-57503385D01*
X170103825Y-57495149D01*
X170268336Y-57161735D01*
X170289432Y-57105793D01*
X170311331Y-57050093D01*
X170313788Y-57041211D01*
X170409690Y-56684850D01*
X170417569Y-56656570D01*
X171336102Y-51416707D01*
X171349774Y-51352031D01*
X171353548Y-51318038D01*
X171360429Y-51284520D01*
X171361328Y-51275349D01*
X171368220Y-51199609D01*
X185199997Y-51199609D01*
X185386073Y-51540766D01*
X185803409Y-51756513D01*
X186254815Y-51886696D01*
X186722946Y-51926313D01*
X187189811Y-51873842D01*
X187637468Y-51731297D01*
X187993927Y-51540766D01*
X188180003Y-51199609D01*
X186690000Y-49709605D01*
X185199997Y-51199609D01*
X171368220Y-51199609D01*
X171395921Y-50895237D01*
X171395503Y-50835420D01*
X171395921Y-50775603D01*
X171395022Y-50766432D01*
X171355126Y-50386839D01*
X171343088Y-50328197D01*
X171331888Y-50269481D01*
X171329225Y-50260659D01*
X171216358Y-49896046D01*
X171193175Y-49840898D01*
X171170768Y-49785438D01*
X171166442Y-49777301D01*
X171050541Y-49562946D01*
X184293687Y-49562946D01*
X184346158Y-50029811D01*
X184488703Y-50477468D01*
X184679234Y-50833927D01*
X185020391Y-51020003D01*
X186510395Y-49530000D01*
X186869605Y-49530000D01*
X188359609Y-51020003D01*
X188700766Y-50833927D01*
X188916513Y-50416591D01*
X189046696Y-49965185D01*
X189086313Y-49497054D01*
X189033842Y-49030189D01*
X188891297Y-48582532D01*
X188700766Y-48226073D01*
X188359609Y-48039997D01*
X186869605Y-49530000D01*
X186510395Y-49530000D01*
X185020391Y-48039997D01*
X184679234Y-48226073D01*
X184463487Y-48643409D01*
X184333304Y-49094815D01*
X184293687Y-49562946D01*
X171050541Y-49562946D01*
X170984904Y-49441555D01*
X170951449Y-49391956D01*
X170918700Y-49341910D01*
X170912876Y-49334769D01*
X170669583Y-49040676D01*
X170627127Y-48998516D01*
X170585283Y-48955786D01*
X170578183Y-48949912D01*
X170282400Y-48708677D01*
X170232589Y-48675583D01*
X170183217Y-48641777D01*
X170175111Y-48637395D01*
X169838105Y-48458205D01*
X169782813Y-48435416D01*
X169727817Y-48411844D01*
X169719014Y-48409120D01*
X169353621Y-48298802D01*
X169294948Y-48287185D01*
X169236431Y-48274746D01*
X169227267Y-48273783D01*
X168847405Y-48236537D01*
X168847399Y-48236537D01*
X168815335Y-48233383D01*
X155923499Y-48235005D01*
X155910288Y-48236308D01*
X155775874Y-48241732D01*
X155735313Y-48247368D01*
X155694438Y-48250099D01*
X155685358Y-48251671D01*
X155319470Y-48317651D01*
X155261926Y-48333959D01*
X155204142Y-48349465D01*
X155195540Y-48352772D01*
X154849435Y-48488563D01*
X154796162Y-48515733D01*
X154742483Y-48542172D01*
X154734687Y-48547086D01*
X154421549Y-48747517D01*
X154374576Y-48784511D01*
X154327046Y-48820879D01*
X154320353Y-48827214D01*
X154052109Y-49084651D01*
X154013199Y-49130085D01*
X153973658Y-49174969D01*
X153968323Y-49182483D01*
X153755190Y-49487118D01*
X153725841Y-49539251D01*
X153695774Y-49590957D01*
X153692000Y-49599364D01*
X153542097Y-49939596D01*
X153523456Y-49996368D01*
X153503981Y-50052997D01*
X153501912Y-50061977D01*
X153420949Y-50424845D01*
X153413684Y-50484205D01*
X153405586Y-50543490D01*
X153405301Y-50552700D01*
X153396361Y-50924384D01*
X139008268Y-50924384D01*
X139010921Y-50895237D01*
X139010503Y-50835420D01*
X139010921Y-50775603D01*
X139010022Y-50766432D01*
X138970126Y-50386839D01*
X138958088Y-50328197D01*
X138946888Y-50269481D01*
X138944225Y-50260659D01*
X138831358Y-49896046D01*
X138808175Y-49840898D01*
X138785768Y-49785438D01*
X138781442Y-49777301D01*
X138599904Y-49441555D01*
X138566449Y-49391956D01*
X138533700Y-49341910D01*
X138527876Y-49334769D01*
X138284583Y-49040676D01*
X138242127Y-48998516D01*
X138200283Y-48955786D01*
X138193183Y-48949912D01*
X137897400Y-48708677D01*
X137847589Y-48675583D01*
X137798217Y-48641777D01*
X137790111Y-48637395D01*
X137453105Y-48458205D01*
X137397813Y-48435416D01*
X137342817Y-48411844D01*
X137334014Y-48409120D01*
X136968621Y-48298802D01*
X136909948Y-48287185D01*
X136851431Y-48274746D01*
X136842267Y-48273783D01*
X136462405Y-48236537D01*
X136462399Y-48236537D01*
X136430335Y-48233383D01*
X123538499Y-48235005D01*
X123525288Y-48236308D01*
X123390874Y-48241732D01*
X123350313Y-48247368D01*
X123309438Y-48250099D01*
X123300358Y-48251671D01*
X122934470Y-48317651D01*
X122876926Y-48333959D01*
X122819142Y-48349465D01*
X122810540Y-48352772D01*
X122464435Y-48488563D01*
X122411162Y-48515733D01*
X122357483Y-48542172D01*
X122349687Y-48547086D01*
X122036549Y-48747517D01*
X121989576Y-48784511D01*
X121942046Y-48820879D01*
X121935353Y-48827214D01*
X121667109Y-49084651D01*
X121628199Y-49130085D01*
X121588658Y-49174969D01*
X121583323Y-49182483D01*
X121370190Y-49487118D01*
X121340841Y-49539251D01*
X121310774Y-49590957D01*
X121307000Y-49599364D01*
X121157097Y-49939596D01*
X121138456Y-49996368D01*
X121118981Y-50052997D01*
X121116912Y-50061977D01*
X121035949Y-50424845D01*
X121028684Y-50484205D01*
X121020586Y-50543490D01*
X121020301Y-50552700D01*
X121011361Y-50924384D01*
X107254919Y-50924384D01*
X107420766Y-50833927D01*
X107636513Y-50416591D01*
X107766696Y-49965185D01*
X107806313Y-49497054D01*
X107753842Y-49030189D01*
X107611297Y-48582532D01*
X107420766Y-48226073D01*
X107079609Y-48039997D01*
X105589605Y-49530000D01*
X105230395Y-49530000D01*
X103740391Y-48039997D01*
X103399234Y-48226073D01*
X103183487Y-48643409D01*
X103053304Y-49094815D01*
X103013687Y-49562946D01*
X102894999Y-49562946D01*
X102895000Y-49562278D01*
X102946002Y-49042116D01*
X103087694Y-48572812D01*
X103317837Y-48139975D01*
X103545860Y-47860391D01*
X103919997Y-47860391D01*
X105410000Y-49350395D01*
X106900003Y-47860391D01*
X185199997Y-47860391D01*
X186690000Y-49350395D01*
X188180003Y-47860391D01*
X187993927Y-47519234D01*
X187576591Y-47303487D01*
X187125185Y-47173304D01*
X186657054Y-47133687D01*
X186190189Y-47186158D01*
X185742532Y-47328703D01*
X185386073Y-47519234D01*
X185199997Y-47860391D01*
X106900003Y-47860391D01*
X106713927Y-47519234D01*
X106296591Y-47303487D01*
X105845185Y-47173304D01*
X105377054Y-47133687D01*
X104910189Y-47186158D01*
X104462532Y-47328703D01*
X104106073Y-47519234D01*
X103919997Y-47860391D01*
X103545860Y-47860391D01*
X103627678Y-47760073D01*
X104005397Y-47447597D01*
X104436627Y-47214431D01*
X104904928Y-47069468D01*
X105423153Y-47015000D01*
X186657722Y-47015000D01*
X187177884Y-47066002D01*
G37*
%TD.AperFunction*%
%TD*%
M02*
