%TF.GenerationSoftware,KiCad,Pcbnew,(5.1.8)-1*%
%TF.CreationDate,2021-03-23T23:22:00+01:00*%
%TF.ProjectId,ZX Interface 2021 FA1,5a582049-6e74-4657-9266-616365203230,rev?*%
%TF.SameCoordinates,Original*%
%TF.FileFunction,Legend,Bot*%
%TF.FilePolarity,Positive*%
%FSLAX46Y46*%
G04 Gerber Fmt 4.6, Leading zero omitted, Abs format (unit mm)*
G04 Created by KiCad (PCBNEW (5.1.8)-1) date 2021-03-23 23:22:00*
%MOMM*%
%LPD*%
G01*
G04 APERTURE LIST*
%ADD10C,0.150000*%
%ADD11C,0.300000*%
G04 APERTURE END LIST*
D10*
X156038914Y-46887380D02*
X156038914Y-47696904D01*
X155991295Y-47792142D01*
X155943676Y-47839761D01*
X155848438Y-47887380D01*
X155657961Y-47887380D01*
X155562723Y-47839761D01*
X155515104Y-47792142D01*
X155467485Y-47696904D01*
X155467485Y-46887380D01*
X155038914Y-47839761D02*
X154896057Y-47887380D01*
X154657961Y-47887380D01*
X154562723Y-47839761D01*
X154515104Y-47792142D01*
X154467485Y-47696904D01*
X154467485Y-47601666D01*
X154515104Y-47506428D01*
X154562723Y-47458809D01*
X154657961Y-47411190D01*
X154848438Y-47363571D01*
X154943676Y-47315952D01*
X154991295Y-47268333D01*
X155038914Y-47173095D01*
X155038914Y-47077857D01*
X154991295Y-46982619D01*
X154943676Y-46935000D01*
X154848438Y-46887380D01*
X154610342Y-46887380D01*
X154467485Y-46935000D01*
X154038914Y-47363571D02*
X153705580Y-47363571D01*
X153562723Y-47887380D02*
X154038914Y-47887380D01*
X154038914Y-46887380D01*
X153562723Y-46887380D01*
X152181771Y-46887380D02*
X151991295Y-46887380D01*
X151896057Y-46935000D01*
X151800819Y-47030238D01*
X151753200Y-47220714D01*
X151753200Y-47554047D01*
X151800819Y-47744523D01*
X151896057Y-47839761D01*
X151991295Y-47887380D01*
X152181771Y-47887380D01*
X152277009Y-47839761D01*
X152372247Y-47744523D01*
X152419866Y-47554047D01*
X152419866Y-47220714D01*
X152372247Y-47030238D01*
X152277009Y-46935000D01*
X152181771Y-46887380D01*
X151324628Y-47887380D02*
X151324628Y-46887380D01*
X150753200Y-47887380D01*
X150753200Y-46887380D01*
X149800819Y-47887380D02*
X150277009Y-47887380D01*
X150277009Y-46887380D01*
X149277009Y-47411190D02*
X149277009Y-47887380D01*
X149610342Y-46887380D02*
X149277009Y-47411190D01*
X148943676Y-46887380D01*
X147943676Y-46887380D02*
X147705580Y-47887380D01*
X147515104Y-47173095D01*
X147324628Y-47887380D01*
X147086533Y-46887380D01*
X146705580Y-47887380D02*
X146705580Y-46887380D01*
X146372247Y-46887380D02*
X145800819Y-46887380D01*
X146086533Y-47887380D02*
X146086533Y-46887380D01*
X145467485Y-47887380D02*
X145467485Y-46887380D01*
X145467485Y-47363571D02*
X144896057Y-47363571D01*
X144896057Y-47887380D02*
X144896057Y-46887380D01*
X143705580Y-47601666D02*
X143229390Y-47601666D01*
X143800819Y-47887380D02*
X143467485Y-46887380D01*
X143134152Y-47887380D01*
X142943676Y-46887380D02*
X142372247Y-46887380D01*
X142657961Y-47887380D02*
X142657961Y-46887380D01*
X142086533Y-47601666D02*
X141610342Y-47601666D01*
X142181771Y-47887380D02*
X141848438Y-46887380D01*
X141515104Y-47887380D01*
X140610342Y-47887380D02*
X140943676Y-47411190D01*
X141181771Y-47887380D02*
X141181771Y-46887380D01*
X140800819Y-46887380D01*
X140705580Y-46935000D01*
X140657961Y-46982619D01*
X140610342Y-47077857D01*
X140610342Y-47220714D01*
X140657961Y-47315952D01*
X140705580Y-47363571D01*
X140800819Y-47411190D01*
X141181771Y-47411190D01*
X140181771Y-47887380D02*
X140181771Y-46887380D01*
X138943676Y-47887380D02*
X138943676Y-46887380D01*
X138705580Y-46887380D01*
X138562723Y-46935000D01*
X138467485Y-47030238D01*
X138419866Y-47125476D01*
X138372247Y-47315952D01*
X138372247Y-47458809D01*
X138419866Y-47649285D01*
X138467485Y-47744523D01*
X138562723Y-47839761D01*
X138705580Y-47887380D01*
X138943676Y-47887380D01*
X137610342Y-47363571D02*
X137467485Y-47411190D01*
X137419866Y-47458809D01*
X137372247Y-47554047D01*
X137372247Y-47696904D01*
X137419866Y-47792142D01*
X137467485Y-47839761D01*
X137562723Y-47887380D01*
X137943676Y-47887380D01*
X137943676Y-46887380D01*
X137610342Y-46887380D01*
X137515104Y-46935000D01*
X137467485Y-46982619D01*
X137419866Y-47077857D01*
X137419866Y-47173095D01*
X137467485Y-47268333D01*
X137515104Y-47315952D01*
X137610342Y-47363571D01*
X137943676Y-47363571D01*
X136896057Y-47887380D02*
X136705580Y-47887380D01*
X136610342Y-47839761D01*
X136562723Y-47792142D01*
X136467485Y-47649285D01*
X136419866Y-47458809D01*
X136419866Y-47077857D01*
X136467485Y-46982619D01*
X136515104Y-46935000D01*
X136610342Y-46887380D01*
X136800819Y-46887380D01*
X136896057Y-46935000D01*
X136943676Y-46982619D01*
X136991295Y-47077857D01*
X136991295Y-47315952D01*
X136943676Y-47411190D01*
X136896057Y-47458809D01*
X136800819Y-47506428D01*
X136610342Y-47506428D01*
X136515104Y-47458809D01*
X136467485Y-47411190D01*
X136419866Y-47315952D01*
X153467485Y-49537380D02*
X153800819Y-49061190D01*
X154038914Y-49537380D02*
X154038914Y-48537380D01*
X153657961Y-48537380D01*
X153562723Y-48585000D01*
X153515104Y-48632619D01*
X153467485Y-48727857D01*
X153467485Y-48870714D01*
X153515104Y-48965952D01*
X153562723Y-49013571D01*
X153657961Y-49061190D01*
X154038914Y-49061190D01*
X153086533Y-49251666D02*
X152610342Y-49251666D01*
X153181771Y-49537380D02*
X152848438Y-48537380D01*
X152515104Y-49537380D01*
X152181771Y-49537380D02*
X152181771Y-48537380D01*
X151610342Y-49537380D01*
X151610342Y-48537380D01*
X150610342Y-48585000D02*
X150705580Y-48537380D01*
X150848438Y-48537380D01*
X150991295Y-48585000D01*
X151086533Y-48680238D01*
X151134152Y-48775476D01*
X151181771Y-48965952D01*
X151181771Y-49108809D01*
X151134152Y-49299285D01*
X151086533Y-49394523D01*
X150991295Y-49489761D01*
X150848438Y-49537380D01*
X150753200Y-49537380D01*
X150610342Y-49489761D01*
X150562723Y-49442142D01*
X150562723Y-49108809D01*
X150753200Y-49108809D01*
X150134152Y-49013571D02*
X149800819Y-49013571D01*
X149657961Y-49537380D02*
X150134152Y-49537380D01*
X150134152Y-48537380D01*
X149657961Y-48537380D01*
X148277009Y-48537380D02*
X148086533Y-48537380D01*
X147991295Y-48585000D01*
X147896057Y-48680238D01*
X147848438Y-48870714D01*
X147848438Y-49204047D01*
X147896057Y-49394523D01*
X147991295Y-49489761D01*
X148086533Y-49537380D01*
X148277009Y-49537380D01*
X148372247Y-49489761D01*
X148467485Y-49394523D01*
X148515104Y-49204047D01*
X148515104Y-48870714D01*
X148467485Y-48680238D01*
X148372247Y-48585000D01*
X148277009Y-48537380D01*
X147086533Y-49013571D02*
X147419866Y-49013571D01*
X147419866Y-49537380D02*
X147419866Y-48537380D01*
X146943676Y-48537380D01*
X145515104Y-48537380D02*
X145515104Y-49251666D01*
X145562723Y-49394523D01*
X145657961Y-49489761D01*
X145800819Y-49537380D01*
X145896057Y-49537380D01*
X144848438Y-48537380D02*
X144657961Y-48537380D01*
X144562723Y-48585000D01*
X144467485Y-48680238D01*
X144419866Y-48870714D01*
X144419866Y-49204047D01*
X144467485Y-49394523D01*
X144562723Y-49489761D01*
X144657961Y-49537380D01*
X144848438Y-49537380D01*
X144943676Y-49489761D01*
X145038914Y-49394523D01*
X145086533Y-49204047D01*
X145086533Y-48870714D01*
X145038914Y-48680238D01*
X144943676Y-48585000D01*
X144848438Y-48537380D01*
X143800819Y-49061190D02*
X143800819Y-49537380D01*
X144134152Y-48537380D02*
X143800819Y-49061190D01*
X143467485Y-48537380D01*
X143181771Y-49489761D02*
X143038914Y-49537380D01*
X142800819Y-49537380D01*
X142705580Y-49489761D01*
X142657961Y-49442142D01*
X142610342Y-49346904D01*
X142610342Y-49251666D01*
X142657961Y-49156428D01*
X142705580Y-49108809D01*
X142800819Y-49061190D01*
X142991295Y-49013571D01*
X143086533Y-48965952D01*
X143134152Y-48918333D01*
X143181771Y-48823095D01*
X143181771Y-48727857D01*
X143134152Y-48632619D01*
X143086533Y-48585000D01*
X142991295Y-48537380D01*
X142753200Y-48537380D01*
X142610342Y-48585000D01*
X142324628Y-48537380D02*
X141753200Y-48537380D01*
X142038914Y-49537380D02*
X142038914Y-48537380D01*
X141419866Y-49537380D02*
X141419866Y-48537380D01*
X140372247Y-49442142D02*
X140419866Y-49489761D01*
X140562723Y-49537380D01*
X140657961Y-49537380D01*
X140800819Y-49489761D01*
X140896057Y-49394523D01*
X140943676Y-49299285D01*
X140991295Y-49108809D01*
X140991295Y-48965952D01*
X140943676Y-48775476D01*
X140896057Y-48680238D01*
X140800819Y-48585000D01*
X140657961Y-48537380D01*
X140562723Y-48537380D01*
X140419866Y-48585000D01*
X140372247Y-48632619D01*
X139943676Y-49537380D02*
X139943676Y-48537380D01*
X139372247Y-49537380D02*
X139800819Y-48965952D01*
X139372247Y-48537380D02*
X139943676Y-49108809D01*
X138991295Y-49489761D02*
X138848438Y-49537380D01*
X138610342Y-49537380D01*
X138515104Y-49489761D01*
X138467485Y-49442142D01*
X138419866Y-49346904D01*
X138419866Y-49251666D01*
X138467485Y-49156428D01*
X138515104Y-49108809D01*
X138610342Y-49061190D01*
X138800819Y-49013571D01*
X138896057Y-48965952D01*
X138943676Y-48918333D01*
X138991295Y-48823095D01*
X138991295Y-48727857D01*
X138943676Y-48632619D01*
X138896057Y-48585000D01*
X138800819Y-48537380D01*
X138562723Y-48537380D01*
X138419866Y-48585000D01*
D11*
X128010714Y-124908571D02*
X127010714Y-124908571D01*
X128010714Y-126408571D01*
X127010714Y-126408571D01*
X126582142Y-124908571D02*
X125582142Y-126408571D01*
X125582142Y-124908571D02*
X126582142Y-126408571D01*
X123867857Y-126408571D02*
X123867857Y-124908571D01*
X123153571Y-125408571D02*
X123153571Y-126408571D01*
X123153571Y-125551428D02*
X123082142Y-125480000D01*
X122939285Y-125408571D01*
X122725000Y-125408571D01*
X122582142Y-125480000D01*
X122510714Y-125622857D01*
X122510714Y-126408571D01*
X122010714Y-125408571D02*
X121439285Y-125408571D01*
X121796428Y-124908571D02*
X121796428Y-126194285D01*
X121725000Y-126337142D01*
X121582142Y-126408571D01*
X121439285Y-126408571D01*
X120367857Y-126337142D02*
X120510714Y-126408571D01*
X120796428Y-126408571D01*
X120939285Y-126337142D01*
X121010714Y-126194285D01*
X121010714Y-125622857D01*
X120939285Y-125480000D01*
X120796428Y-125408571D01*
X120510714Y-125408571D01*
X120367857Y-125480000D01*
X120296428Y-125622857D01*
X120296428Y-125765714D01*
X121010714Y-125908571D01*
X119653571Y-126408571D02*
X119653571Y-125408571D01*
X119653571Y-125694285D02*
X119582142Y-125551428D01*
X119510714Y-125480000D01*
X119367857Y-125408571D01*
X119225000Y-125408571D01*
X118939285Y-125408571D02*
X118367857Y-125408571D01*
X118725000Y-126408571D02*
X118725000Y-125122857D01*
X118653571Y-124980000D01*
X118510714Y-124908571D01*
X118367857Y-124908571D01*
X117225000Y-126408571D02*
X117225000Y-125622857D01*
X117296428Y-125480000D01*
X117439285Y-125408571D01*
X117725000Y-125408571D01*
X117867857Y-125480000D01*
X117225000Y-126337142D02*
X117367857Y-126408571D01*
X117725000Y-126408571D01*
X117867857Y-126337142D01*
X117939285Y-126194285D01*
X117939285Y-126051428D01*
X117867857Y-125908571D01*
X117725000Y-125837142D01*
X117367857Y-125837142D01*
X117225000Y-125765714D01*
X115867857Y-126337142D02*
X116010714Y-126408571D01*
X116296428Y-126408571D01*
X116439285Y-126337142D01*
X116510714Y-126265714D01*
X116582142Y-126122857D01*
X116582142Y-125694285D01*
X116510714Y-125551428D01*
X116439285Y-125480000D01*
X116296428Y-125408571D01*
X116010714Y-125408571D01*
X115867857Y-125480000D01*
X114653571Y-126337142D02*
X114796428Y-126408571D01*
X115082142Y-126408571D01*
X115225000Y-126337142D01*
X115296428Y-126194285D01*
X115296428Y-125622857D01*
X115225000Y-125480000D01*
X115082142Y-125408571D01*
X114796428Y-125408571D01*
X114653571Y-125480000D01*
X114582142Y-125622857D01*
X114582142Y-125765714D01*
X115296428Y-125908571D01*
X112867857Y-125051428D02*
X112796428Y-124980000D01*
X112653571Y-124908571D01*
X112296428Y-124908571D01*
X112153571Y-124980000D01*
X112082142Y-125051428D01*
X112010714Y-125194285D01*
X112010714Y-125337142D01*
X112082142Y-125551428D01*
X112939285Y-126408571D01*
X112010714Y-126408571D01*
X111367857Y-126265714D02*
X111296428Y-126337142D01*
X111367857Y-126408571D01*
X111439285Y-126337142D01*
X111367857Y-126265714D01*
X111367857Y-126408571D01*
X110367857Y-124908571D02*
X110225000Y-124908571D01*
X110082142Y-124980000D01*
X110010714Y-125051428D01*
X109939285Y-125194285D01*
X109867857Y-125480000D01*
X109867857Y-125837142D01*
X109939285Y-126122857D01*
X110010714Y-126265714D01*
X110082142Y-126337142D01*
X110225000Y-126408571D01*
X110367857Y-126408571D01*
X110510714Y-126337142D01*
X110582142Y-126265714D01*
X110653571Y-126122857D01*
X110725000Y-125837142D01*
X110725000Y-125480000D01*
X110653571Y-125194285D01*
X110582142Y-125051428D01*
X110510714Y-124980000D01*
X110367857Y-124908571D01*
X109296428Y-125051428D02*
X109225000Y-124980000D01*
X109082142Y-124908571D01*
X108725000Y-124908571D01*
X108582142Y-124980000D01*
X108510714Y-125051428D01*
X108439285Y-125194285D01*
X108439285Y-125337142D01*
X108510714Y-125551428D01*
X109367857Y-126408571D01*
X108439285Y-126408571D01*
X107010714Y-126408571D02*
X107867857Y-126408571D01*
X107439285Y-126408571D02*
X107439285Y-124908571D01*
X107582142Y-125122857D01*
X107725000Y-125265714D01*
X107867857Y-125337142D01*
D10*
X122475000Y-131707380D02*
X122951190Y-131707380D01*
X122951190Y-130707380D01*
X122141666Y-131707380D02*
X122141666Y-131040714D01*
X122141666Y-130707380D02*
X122189285Y-130755000D01*
X122141666Y-130802619D01*
X122094047Y-130755000D01*
X122141666Y-130707380D01*
X122141666Y-130802619D01*
X121236904Y-131659761D02*
X121332142Y-131707380D01*
X121522619Y-131707380D01*
X121617857Y-131659761D01*
X121665476Y-131612142D01*
X121713095Y-131516904D01*
X121713095Y-131231190D01*
X121665476Y-131135952D01*
X121617857Y-131088333D01*
X121522619Y-131040714D01*
X121332142Y-131040714D01*
X121236904Y-131088333D01*
X120427380Y-131659761D02*
X120522619Y-131707380D01*
X120713095Y-131707380D01*
X120808333Y-131659761D01*
X120855952Y-131564523D01*
X120855952Y-131183571D01*
X120808333Y-131088333D01*
X120713095Y-131040714D01*
X120522619Y-131040714D01*
X120427380Y-131088333D01*
X120379761Y-131183571D01*
X120379761Y-131278809D01*
X120855952Y-131374047D01*
X119951190Y-131040714D02*
X119951190Y-131707380D01*
X119951190Y-131135952D02*
X119903571Y-131088333D01*
X119808333Y-131040714D01*
X119665476Y-131040714D01*
X119570238Y-131088333D01*
X119522619Y-131183571D01*
X119522619Y-131707380D01*
X119094047Y-131659761D02*
X118998809Y-131707380D01*
X118808333Y-131707380D01*
X118713095Y-131659761D01*
X118665476Y-131564523D01*
X118665476Y-131516904D01*
X118713095Y-131421666D01*
X118808333Y-131374047D01*
X118951190Y-131374047D01*
X119046428Y-131326428D01*
X119094047Y-131231190D01*
X119094047Y-131183571D01*
X119046428Y-131088333D01*
X118951190Y-131040714D01*
X118808333Y-131040714D01*
X118713095Y-131088333D01*
X117855952Y-131659761D02*
X117951190Y-131707380D01*
X118141666Y-131707380D01*
X118236904Y-131659761D01*
X118284523Y-131564523D01*
X118284523Y-131183571D01*
X118236904Y-131088333D01*
X118141666Y-131040714D01*
X117951190Y-131040714D01*
X117855952Y-131088333D01*
X117808333Y-131183571D01*
X117808333Y-131278809D01*
X118284523Y-131374047D01*
X116951190Y-131707380D02*
X116951190Y-130707380D01*
X116951190Y-131659761D02*
X117046428Y-131707380D01*
X117236904Y-131707380D01*
X117332142Y-131659761D01*
X117379761Y-131612142D01*
X117427380Y-131516904D01*
X117427380Y-131231190D01*
X117379761Y-131135952D01*
X117332142Y-131088333D01*
X117236904Y-131040714D01*
X117046428Y-131040714D01*
X116951190Y-131088333D01*
X115284523Y-131040714D02*
X115284523Y-131707380D01*
X115713095Y-131040714D02*
X115713095Y-131564523D01*
X115665476Y-131659761D01*
X115570238Y-131707380D01*
X115427380Y-131707380D01*
X115332142Y-131659761D01*
X115284523Y-131612142D01*
X114808333Y-131040714D02*
X114808333Y-131707380D01*
X114808333Y-131135952D02*
X114760714Y-131088333D01*
X114665476Y-131040714D01*
X114522619Y-131040714D01*
X114427380Y-131088333D01*
X114379761Y-131183571D01*
X114379761Y-131707380D01*
X113475000Y-131707380D02*
X113475000Y-130707380D01*
X113475000Y-131659761D02*
X113570238Y-131707380D01*
X113760714Y-131707380D01*
X113855952Y-131659761D01*
X113903571Y-131612142D01*
X113951190Y-131516904D01*
X113951190Y-131231190D01*
X113903571Y-131135952D01*
X113855952Y-131088333D01*
X113760714Y-131040714D01*
X113570238Y-131040714D01*
X113475000Y-131088333D01*
X112617857Y-131659761D02*
X112713095Y-131707380D01*
X112903571Y-131707380D01*
X112998809Y-131659761D01*
X113046428Y-131564523D01*
X113046428Y-131183571D01*
X112998809Y-131088333D01*
X112903571Y-131040714D01*
X112713095Y-131040714D01*
X112617857Y-131088333D01*
X112570238Y-131183571D01*
X112570238Y-131278809D01*
X113046428Y-131374047D01*
X112141666Y-131707380D02*
X112141666Y-131040714D01*
X112141666Y-131231190D02*
X112094047Y-131135952D01*
X112046428Y-131088333D01*
X111951190Y-131040714D01*
X111855952Y-131040714D01*
X122665476Y-133262142D02*
X122713095Y-133309761D01*
X122855952Y-133357380D01*
X122951190Y-133357380D01*
X123094047Y-133309761D01*
X123189285Y-133214523D01*
X123236904Y-133119285D01*
X123284523Y-132928809D01*
X123284523Y-132785952D01*
X123236904Y-132595476D01*
X123189285Y-132500238D01*
X123094047Y-132405000D01*
X122951190Y-132357380D01*
X122855952Y-132357380D01*
X122713095Y-132405000D01*
X122665476Y-132452619D01*
X122236904Y-132833571D02*
X121903571Y-132833571D01*
X121760714Y-133357380D02*
X122236904Y-133357380D01*
X122236904Y-132357380D01*
X121760714Y-132357380D01*
X120760714Y-133357380D02*
X121094047Y-132881190D01*
X121332142Y-133357380D02*
X121332142Y-132357380D01*
X120951190Y-132357380D01*
X120855952Y-132405000D01*
X120808333Y-132452619D01*
X120760714Y-132547857D01*
X120760714Y-132690714D01*
X120808333Y-132785952D01*
X120855952Y-132833571D01*
X120951190Y-132881190D01*
X121332142Y-132881190D01*
X120332142Y-133357380D02*
X120332142Y-132357380D01*
X119760714Y-133357380D01*
X119760714Y-132357380D01*
X118332142Y-132357380D02*
X118141666Y-132357380D01*
X118046428Y-132405000D01*
X117951190Y-132500238D01*
X117903571Y-132690714D01*
X117903571Y-133024047D01*
X117951190Y-133214523D01*
X118046428Y-133309761D01*
X118141666Y-133357380D01*
X118332142Y-133357380D01*
X118427380Y-133309761D01*
X118522619Y-133214523D01*
X118570238Y-133024047D01*
X118570238Y-132690714D01*
X118522619Y-132500238D01*
X118427380Y-132405000D01*
X118332142Y-132357380D01*
X117475000Y-133357380D02*
X117475000Y-132357380D01*
X117475000Y-132833571D02*
X116903571Y-132833571D01*
X116903571Y-133357380D02*
X116903571Y-132357380D01*
X115951190Y-133357380D02*
X116427380Y-133357380D01*
X116427380Y-132357380D01*
X114951190Y-132690714D02*
X114713095Y-133357380D01*
X114475000Y-132690714D01*
X114094047Y-133262142D02*
X114046428Y-133309761D01*
X114094047Y-133357380D01*
X114141666Y-133309761D01*
X114094047Y-133262142D01*
X114094047Y-133357380D01*
X113094047Y-133357380D02*
X113665476Y-133357380D01*
X113379761Y-133357380D02*
X113379761Y-132357380D01*
X113475000Y-132500238D01*
X113570238Y-132595476D01*
X113665476Y-132643095D01*
X112665476Y-133262142D02*
X112617857Y-133309761D01*
X112665476Y-133357380D01*
X112713095Y-133309761D01*
X112665476Y-133262142D01*
X112665476Y-133357380D01*
X112236904Y-132452619D02*
X112189285Y-132405000D01*
X112094047Y-132357380D01*
X111855952Y-132357380D01*
X111760714Y-132405000D01*
X111713095Y-132452619D01*
X111665476Y-132547857D01*
X111665476Y-132643095D01*
X111713095Y-132785952D01*
X112284523Y-133357380D01*
X111665476Y-133357380D01*
X122879761Y-128055714D02*
X122879761Y-128865238D01*
X122927380Y-128960476D01*
X122975000Y-129008095D01*
X123070238Y-129055714D01*
X123213095Y-129055714D01*
X123308333Y-129008095D01*
X122879761Y-128674761D02*
X122975000Y-128722380D01*
X123165476Y-128722380D01*
X123260714Y-128674761D01*
X123308333Y-128627142D01*
X123355952Y-128531904D01*
X123355952Y-128246190D01*
X123308333Y-128150952D01*
X123260714Y-128103333D01*
X123165476Y-128055714D01*
X122975000Y-128055714D01*
X122879761Y-128103333D01*
X122403571Y-128722380D02*
X122403571Y-128055714D01*
X122403571Y-127722380D02*
X122451190Y-127770000D01*
X122403571Y-127817619D01*
X122355952Y-127770000D01*
X122403571Y-127722380D01*
X122403571Y-127817619D01*
X122070238Y-128055714D02*
X121689285Y-128055714D01*
X121927380Y-127722380D02*
X121927380Y-128579523D01*
X121879761Y-128674761D01*
X121784523Y-128722380D01*
X121689285Y-128722380D01*
X121355952Y-128722380D02*
X121355952Y-127722380D01*
X120927380Y-128722380D02*
X120927380Y-128198571D01*
X120975000Y-128103333D01*
X121070238Y-128055714D01*
X121213095Y-128055714D01*
X121308333Y-128103333D01*
X121355952Y-128150952D01*
X120022619Y-128055714D02*
X120022619Y-128722380D01*
X120451190Y-128055714D02*
X120451190Y-128579523D01*
X120403571Y-128674761D01*
X120308333Y-128722380D01*
X120165476Y-128722380D01*
X120070238Y-128674761D01*
X120022619Y-128627142D01*
X119546428Y-128722380D02*
X119546428Y-127722380D01*
X119546428Y-128103333D02*
X119451190Y-128055714D01*
X119260714Y-128055714D01*
X119165476Y-128103333D01*
X119117857Y-128150952D01*
X119070238Y-128246190D01*
X119070238Y-128531904D01*
X119117857Y-128627142D01*
X119165476Y-128674761D01*
X119260714Y-128722380D01*
X119451190Y-128722380D01*
X119546428Y-128674761D01*
X118641666Y-128627142D02*
X118594047Y-128674761D01*
X118641666Y-128722380D01*
X118689285Y-128674761D01*
X118641666Y-128627142D01*
X118641666Y-128722380D01*
X117736904Y-128674761D02*
X117832142Y-128722380D01*
X118022619Y-128722380D01*
X118117857Y-128674761D01*
X118165476Y-128627142D01*
X118213095Y-128531904D01*
X118213095Y-128246190D01*
X118165476Y-128150952D01*
X118117857Y-128103333D01*
X118022619Y-128055714D01*
X117832142Y-128055714D01*
X117736904Y-128103333D01*
X117165476Y-128722380D02*
X117260714Y-128674761D01*
X117308333Y-128627142D01*
X117355952Y-128531904D01*
X117355952Y-128246190D01*
X117308333Y-128150952D01*
X117260714Y-128103333D01*
X117165476Y-128055714D01*
X117022619Y-128055714D01*
X116927380Y-128103333D01*
X116879761Y-128150952D01*
X116832142Y-128246190D01*
X116832142Y-128531904D01*
X116879761Y-128627142D01*
X116927380Y-128674761D01*
X117022619Y-128722380D01*
X117165476Y-128722380D01*
X116403571Y-128722380D02*
X116403571Y-128055714D01*
X116403571Y-128150952D02*
X116355952Y-128103333D01*
X116260714Y-128055714D01*
X116117857Y-128055714D01*
X116022619Y-128103333D01*
X115975000Y-128198571D01*
X115975000Y-128722380D01*
X115975000Y-128198571D02*
X115927380Y-128103333D01*
X115832142Y-128055714D01*
X115689285Y-128055714D01*
X115594047Y-128103333D01*
X115546428Y-128198571D01*
X115546428Y-128722380D01*
X114355952Y-127674761D02*
X115213095Y-128960476D01*
X114165476Y-128055714D02*
X113784523Y-128055714D01*
X114022619Y-127722380D02*
X114022619Y-128579523D01*
X113975000Y-128674761D01*
X113879761Y-128722380D01*
X113784523Y-128722380D01*
X113070238Y-128674761D02*
X113165476Y-128722380D01*
X113355952Y-128722380D01*
X113451190Y-128674761D01*
X113498809Y-128579523D01*
X113498809Y-128198571D01*
X113451190Y-128103333D01*
X113355952Y-128055714D01*
X113165476Y-128055714D01*
X113070238Y-128103333D01*
X113022619Y-128198571D01*
X113022619Y-128293809D01*
X113498809Y-128389047D01*
X112594047Y-128722380D02*
X112594047Y-127722380D01*
X112594047Y-128103333D02*
X112498809Y-128055714D01*
X112308333Y-128055714D01*
X112213095Y-128103333D01*
X112165476Y-128150952D01*
X112117857Y-128246190D01*
X112117857Y-128531904D01*
X112165476Y-128627142D01*
X112213095Y-128674761D01*
X112308333Y-128722380D01*
X112498809Y-128722380D01*
X112594047Y-128674761D01*
X111546428Y-128722380D02*
X111641666Y-128674761D01*
X111689285Y-128579523D01*
X111689285Y-127722380D01*
M02*
