%TF.GenerationSoftware,KiCad,Pcbnew,(5.1.8)-1*%
%TF.CreationDate,2021-03-07T18:48:51+01:00*%
%TF.ProjectId,ZX Interface 2021,5a582049-6e74-4657-9266-616365203230,rev?*%
%TF.SameCoordinates,Original*%
%TF.FileFunction,Legend,Bot*%
%TF.FilePolarity,Positive*%
%FSLAX46Y46*%
G04 Gerber Fmt 4.6, Leading zero omitted, Abs format (unit mm)*
G04 Created by KiCad (PCBNEW (5.1.8)-1) date 2021-03-07 18:48:51*
%MOMM*%
%LPD*%
G01*
G04 APERTURE LIST*
%ADD10C,0.100000*%
%ADD11C,0.150000*%
%ADD12C,0.300000*%
%ADD13C,0.120000*%
G04 APERTURE END LIST*
D10*
X163813571Y-49267333D02*
X163432619Y-49267333D01*
X163889761Y-49495904D02*
X163623095Y-48695904D01*
X163356428Y-49495904D01*
X163204047Y-48695904D02*
X162746904Y-48695904D01*
X162975476Y-49495904D02*
X162975476Y-48695904D01*
X162518333Y-49267333D02*
X162137380Y-49267333D01*
X162594523Y-49495904D02*
X162327857Y-48695904D01*
X162061190Y-49495904D01*
X161337380Y-49495904D02*
X161604047Y-49114952D01*
X161794523Y-49495904D02*
X161794523Y-48695904D01*
X161489761Y-48695904D01*
X161413571Y-48734000D01*
X161375476Y-48772095D01*
X161337380Y-48848285D01*
X161337380Y-48962571D01*
X161375476Y-49038761D01*
X161413571Y-49076857D01*
X161489761Y-49114952D01*
X161794523Y-49114952D01*
X160994523Y-49495904D02*
X160994523Y-48695904D01*
X164404047Y-50795904D02*
X164404047Y-49995904D01*
X164099285Y-49995904D01*
X164023095Y-50034000D01*
X163985000Y-50072095D01*
X163946904Y-50148285D01*
X163946904Y-50262571D01*
X163985000Y-50338761D01*
X164023095Y-50376857D01*
X164099285Y-50414952D01*
X164404047Y-50414952D01*
X163451666Y-49995904D02*
X163299285Y-49995904D01*
X163223095Y-50034000D01*
X163146904Y-50110190D01*
X163108809Y-50262571D01*
X163108809Y-50529238D01*
X163146904Y-50681619D01*
X163223095Y-50757809D01*
X163299285Y-50795904D01*
X163451666Y-50795904D01*
X163527857Y-50757809D01*
X163604047Y-50681619D01*
X163642142Y-50529238D01*
X163642142Y-50262571D01*
X163604047Y-50110190D01*
X163527857Y-50034000D01*
X163451666Y-49995904D01*
X162308809Y-50795904D02*
X162575476Y-50414952D01*
X162765952Y-50795904D02*
X162765952Y-49995904D01*
X162461190Y-49995904D01*
X162385000Y-50034000D01*
X162346904Y-50072095D01*
X162308809Y-50148285D01*
X162308809Y-50262571D01*
X162346904Y-50338761D01*
X162385000Y-50376857D01*
X162461190Y-50414952D01*
X162765952Y-50414952D01*
X162080238Y-49995904D02*
X161623095Y-49995904D01*
X161851666Y-50795904D02*
X161851666Y-49995904D01*
X160785000Y-50072095D02*
X160746904Y-50034000D01*
X160670714Y-49995904D01*
X160480238Y-49995904D01*
X160404047Y-50034000D01*
X160365952Y-50072095D01*
X160327857Y-50148285D01*
X160327857Y-50224476D01*
X160365952Y-50338761D01*
X160823095Y-50795904D01*
X160327857Y-50795904D01*
X131428571Y-49267333D02*
X131047619Y-49267333D01*
X131504761Y-49495904D02*
X131238095Y-48695904D01*
X130971428Y-49495904D01*
X130819047Y-48695904D02*
X130361904Y-48695904D01*
X130590476Y-49495904D02*
X130590476Y-48695904D01*
X130133333Y-49267333D02*
X129752380Y-49267333D01*
X130209523Y-49495904D02*
X129942857Y-48695904D01*
X129676190Y-49495904D01*
X128952380Y-49495904D02*
X129219047Y-49114952D01*
X129409523Y-49495904D02*
X129409523Y-48695904D01*
X129104761Y-48695904D01*
X129028571Y-48734000D01*
X128990476Y-48772095D01*
X128952380Y-48848285D01*
X128952380Y-48962571D01*
X128990476Y-49038761D01*
X129028571Y-49076857D01*
X129104761Y-49114952D01*
X129409523Y-49114952D01*
X128609523Y-49495904D02*
X128609523Y-48695904D01*
X132019047Y-50795904D02*
X132019047Y-49995904D01*
X131714285Y-49995904D01*
X131638095Y-50034000D01*
X131600000Y-50072095D01*
X131561904Y-50148285D01*
X131561904Y-50262571D01*
X131600000Y-50338761D01*
X131638095Y-50376857D01*
X131714285Y-50414952D01*
X132019047Y-50414952D01*
X131066666Y-49995904D02*
X130914285Y-49995904D01*
X130838095Y-50034000D01*
X130761904Y-50110190D01*
X130723809Y-50262571D01*
X130723809Y-50529238D01*
X130761904Y-50681619D01*
X130838095Y-50757809D01*
X130914285Y-50795904D01*
X131066666Y-50795904D01*
X131142857Y-50757809D01*
X131219047Y-50681619D01*
X131257142Y-50529238D01*
X131257142Y-50262571D01*
X131219047Y-50110190D01*
X131142857Y-50034000D01*
X131066666Y-49995904D01*
X129923809Y-50795904D02*
X130190476Y-50414952D01*
X130380952Y-50795904D02*
X130380952Y-49995904D01*
X130076190Y-49995904D01*
X130000000Y-50034000D01*
X129961904Y-50072095D01*
X129923809Y-50148285D01*
X129923809Y-50262571D01*
X129961904Y-50338761D01*
X130000000Y-50376857D01*
X130076190Y-50414952D01*
X130380952Y-50414952D01*
X129695238Y-49995904D02*
X129238095Y-49995904D01*
X129466666Y-50795904D02*
X129466666Y-49995904D01*
X127942857Y-50795904D02*
X128400000Y-50795904D01*
X128171428Y-50795904D02*
X128171428Y-49995904D01*
X128247619Y-50110190D01*
X128323809Y-50186380D01*
X128400000Y-50224476D01*
D11*
X156038914Y-46887380D02*
X156038914Y-47696904D01*
X155991295Y-47792142D01*
X155943676Y-47839761D01*
X155848438Y-47887380D01*
X155657961Y-47887380D01*
X155562723Y-47839761D01*
X155515104Y-47792142D01*
X155467485Y-47696904D01*
X155467485Y-46887380D01*
X155038914Y-47839761D02*
X154896057Y-47887380D01*
X154657961Y-47887380D01*
X154562723Y-47839761D01*
X154515104Y-47792142D01*
X154467485Y-47696904D01*
X154467485Y-47601666D01*
X154515104Y-47506428D01*
X154562723Y-47458809D01*
X154657961Y-47411190D01*
X154848438Y-47363571D01*
X154943676Y-47315952D01*
X154991295Y-47268333D01*
X155038914Y-47173095D01*
X155038914Y-47077857D01*
X154991295Y-46982619D01*
X154943676Y-46935000D01*
X154848438Y-46887380D01*
X154610342Y-46887380D01*
X154467485Y-46935000D01*
X154038914Y-47363571D02*
X153705580Y-47363571D01*
X153562723Y-47887380D02*
X154038914Y-47887380D01*
X154038914Y-46887380D01*
X153562723Y-46887380D01*
X152181771Y-46887380D02*
X151991295Y-46887380D01*
X151896057Y-46935000D01*
X151800819Y-47030238D01*
X151753200Y-47220714D01*
X151753200Y-47554047D01*
X151800819Y-47744523D01*
X151896057Y-47839761D01*
X151991295Y-47887380D01*
X152181771Y-47887380D01*
X152277009Y-47839761D01*
X152372247Y-47744523D01*
X152419866Y-47554047D01*
X152419866Y-47220714D01*
X152372247Y-47030238D01*
X152277009Y-46935000D01*
X152181771Y-46887380D01*
X151324628Y-47887380D02*
X151324628Y-46887380D01*
X150753200Y-47887380D01*
X150753200Y-46887380D01*
X149800819Y-47887380D02*
X150277009Y-47887380D01*
X150277009Y-46887380D01*
X149277009Y-47411190D02*
X149277009Y-47887380D01*
X149610342Y-46887380D02*
X149277009Y-47411190D01*
X148943676Y-46887380D01*
X147943676Y-46887380D02*
X147705580Y-47887380D01*
X147515104Y-47173095D01*
X147324628Y-47887380D01*
X147086533Y-46887380D01*
X146705580Y-47887380D02*
X146705580Y-46887380D01*
X146372247Y-46887380D02*
X145800819Y-46887380D01*
X146086533Y-47887380D02*
X146086533Y-46887380D01*
X145467485Y-47887380D02*
X145467485Y-46887380D01*
X145467485Y-47363571D02*
X144896057Y-47363571D01*
X144896057Y-47887380D02*
X144896057Y-46887380D01*
X143705580Y-47601666D02*
X143229390Y-47601666D01*
X143800819Y-47887380D02*
X143467485Y-46887380D01*
X143134152Y-47887380D01*
X142943676Y-46887380D02*
X142372247Y-46887380D01*
X142657961Y-47887380D02*
X142657961Y-46887380D01*
X142086533Y-47601666D02*
X141610342Y-47601666D01*
X142181771Y-47887380D02*
X141848438Y-46887380D01*
X141515104Y-47887380D01*
X140610342Y-47887380D02*
X140943676Y-47411190D01*
X141181771Y-47887380D02*
X141181771Y-46887380D01*
X140800819Y-46887380D01*
X140705580Y-46935000D01*
X140657961Y-46982619D01*
X140610342Y-47077857D01*
X140610342Y-47220714D01*
X140657961Y-47315952D01*
X140705580Y-47363571D01*
X140800819Y-47411190D01*
X141181771Y-47411190D01*
X140181771Y-47887380D02*
X140181771Y-46887380D01*
X138943676Y-47887380D02*
X138943676Y-46887380D01*
X138705580Y-46887380D01*
X138562723Y-46935000D01*
X138467485Y-47030238D01*
X138419866Y-47125476D01*
X138372247Y-47315952D01*
X138372247Y-47458809D01*
X138419866Y-47649285D01*
X138467485Y-47744523D01*
X138562723Y-47839761D01*
X138705580Y-47887380D01*
X138943676Y-47887380D01*
X137610342Y-47363571D02*
X137467485Y-47411190D01*
X137419866Y-47458809D01*
X137372247Y-47554047D01*
X137372247Y-47696904D01*
X137419866Y-47792142D01*
X137467485Y-47839761D01*
X137562723Y-47887380D01*
X137943676Y-47887380D01*
X137943676Y-46887380D01*
X137610342Y-46887380D01*
X137515104Y-46935000D01*
X137467485Y-46982619D01*
X137419866Y-47077857D01*
X137419866Y-47173095D01*
X137467485Y-47268333D01*
X137515104Y-47315952D01*
X137610342Y-47363571D01*
X137943676Y-47363571D01*
X136896057Y-47887380D02*
X136705580Y-47887380D01*
X136610342Y-47839761D01*
X136562723Y-47792142D01*
X136467485Y-47649285D01*
X136419866Y-47458809D01*
X136419866Y-47077857D01*
X136467485Y-46982619D01*
X136515104Y-46935000D01*
X136610342Y-46887380D01*
X136800819Y-46887380D01*
X136896057Y-46935000D01*
X136943676Y-46982619D01*
X136991295Y-47077857D01*
X136991295Y-47315952D01*
X136943676Y-47411190D01*
X136896057Y-47458809D01*
X136800819Y-47506428D01*
X136610342Y-47506428D01*
X136515104Y-47458809D01*
X136467485Y-47411190D01*
X136419866Y-47315952D01*
X153467485Y-49537380D02*
X153800819Y-49061190D01*
X154038914Y-49537380D02*
X154038914Y-48537380D01*
X153657961Y-48537380D01*
X153562723Y-48585000D01*
X153515104Y-48632619D01*
X153467485Y-48727857D01*
X153467485Y-48870714D01*
X153515104Y-48965952D01*
X153562723Y-49013571D01*
X153657961Y-49061190D01*
X154038914Y-49061190D01*
X153086533Y-49251666D02*
X152610342Y-49251666D01*
X153181771Y-49537380D02*
X152848438Y-48537380D01*
X152515104Y-49537380D01*
X152181771Y-49537380D02*
X152181771Y-48537380D01*
X151610342Y-49537380D01*
X151610342Y-48537380D01*
X150610342Y-48585000D02*
X150705580Y-48537380D01*
X150848438Y-48537380D01*
X150991295Y-48585000D01*
X151086533Y-48680238D01*
X151134152Y-48775476D01*
X151181771Y-48965952D01*
X151181771Y-49108809D01*
X151134152Y-49299285D01*
X151086533Y-49394523D01*
X150991295Y-49489761D01*
X150848438Y-49537380D01*
X150753200Y-49537380D01*
X150610342Y-49489761D01*
X150562723Y-49442142D01*
X150562723Y-49108809D01*
X150753200Y-49108809D01*
X150134152Y-49013571D02*
X149800819Y-49013571D01*
X149657961Y-49537380D02*
X150134152Y-49537380D01*
X150134152Y-48537380D01*
X149657961Y-48537380D01*
X148277009Y-48537380D02*
X148086533Y-48537380D01*
X147991295Y-48585000D01*
X147896057Y-48680238D01*
X147848438Y-48870714D01*
X147848438Y-49204047D01*
X147896057Y-49394523D01*
X147991295Y-49489761D01*
X148086533Y-49537380D01*
X148277009Y-49537380D01*
X148372247Y-49489761D01*
X148467485Y-49394523D01*
X148515104Y-49204047D01*
X148515104Y-48870714D01*
X148467485Y-48680238D01*
X148372247Y-48585000D01*
X148277009Y-48537380D01*
X147086533Y-49013571D02*
X147419866Y-49013571D01*
X147419866Y-49537380D02*
X147419866Y-48537380D01*
X146943676Y-48537380D01*
X145515104Y-48537380D02*
X145515104Y-49251666D01*
X145562723Y-49394523D01*
X145657961Y-49489761D01*
X145800819Y-49537380D01*
X145896057Y-49537380D01*
X144848438Y-48537380D02*
X144657961Y-48537380D01*
X144562723Y-48585000D01*
X144467485Y-48680238D01*
X144419866Y-48870714D01*
X144419866Y-49204047D01*
X144467485Y-49394523D01*
X144562723Y-49489761D01*
X144657961Y-49537380D01*
X144848438Y-49537380D01*
X144943676Y-49489761D01*
X145038914Y-49394523D01*
X145086533Y-49204047D01*
X145086533Y-48870714D01*
X145038914Y-48680238D01*
X144943676Y-48585000D01*
X144848438Y-48537380D01*
X143800819Y-49061190D02*
X143800819Y-49537380D01*
X144134152Y-48537380D02*
X143800819Y-49061190D01*
X143467485Y-48537380D01*
X143181771Y-49489761D02*
X143038914Y-49537380D01*
X142800819Y-49537380D01*
X142705580Y-49489761D01*
X142657961Y-49442142D01*
X142610342Y-49346904D01*
X142610342Y-49251666D01*
X142657961Y-49156428D01*
X142705580Y-49108809D01*
X142800819Y-49061190D01*
X142991295Y-49013571D01*
X143086533Y-48965952D01*
X143134152Y-48918333D01*
X143181771Y-48823095D01*
X143181771Y-48727857D01*
X143134152Y-48632619D01*
X143086533Y-48585000D01*
X142991295Y-48537380D01*
X142753200Y-48537380D01*
X142610342Y-48585000D01*
X142324628Y-48537380D02*
X141753200Y-48537380D01*
X142038914Y-49537380D02*
X142038914Y-48537380D01*
X141419866Y-49537380D02*
X141419866Y-48537380D01*
X140372247Y-49442142D02*
X140419866Y-49489761D01*
X140562723Y-49537380D01*
X140657961Y-49537380D01*
X140800819Y-49489761D01*
X140896057Y-49394523D01*
X140943676Y-49299285D01*
X140991295Y-49108809D01*
X140991295Y-48965952D01*
X140943676Y-48775476D01*
X140896057Y-48680238D01*
X140800819Y-48585000D01*
X140657961Y-48537380D01*
X140562723Y-48537380D01*
X140419866Y-48585000D01*
X140372247Y-48632619D01*
X139943676Y-49537380D02*
X139943676Y-48537380D01*
X139372247Y-49537380D02*
X139800819Y-48965952D01*
X139372247Y-48537380D02*
X139943676Y-49108809D01*
X138991295Y-49489761D02*
X138848438Y-49537380D01*
X138610342Y-49537380D01*
X138515104Y-49489761D01*
X138467485Y-49442142D01*
X138419866Y-49346904D01*
X138419866Y-49251666D01*
X138467485Y-49156428D01*
X138515104Y-49108809D01*
X138610342Y-49061190D01*
X138800819Y-49013571D01*
X138896057Y-48965952D01*
X138943676Y-48918333D01*
X138991295Y-48823095D01*
X138991295Y-48727857D01*
X138943676Y-48632619D01*
X138896057Y-48585000D01*
X138800819Y-48537380D01*
X138562723Y-48537380D01*
X138419866Y-48585000D01*
D12*
X173990000Y-91440000D02*
X173990000Y-99060000D01*
D10*
X157156190Y-96526190D02*
X157118095Y-96411904D01*
X157118095Y-96221428D01*
X157156190Y-96145238D01*
X157194285Y-96107142D01*
X157270476Y-96069047D01*
X157346666Y-96069047D01*
X157422857Y-96107142D01*
X157460952Y-96145238D01*
X157499047Y-96221428D01*
X157537142Y-96373809D01*
X157575238Y-96450000D01*
X157613333Y-96488095D01*
X157689523Y-96526190D01*
X157765714Y-96526190D01*
X157841904Y-96488095D01*
X157880000Y-96450000D01*
X157918095Y-96373809D01*
X157918095Y-96183333D01*
X157880000Y-96069047D01*
X157118095Y-95345238D02*
X157118095Y-95726190D01*
X157918095Y-95726190D01*
X157918095Y-94926190D02*
X157918095Y-94773809D01*
X157880000Y-94697619D01*
X157803809Y-94621428D01*
X157651428Y-94583333D01*
X157384761Y-94583333D01*
X157232380Y-94621428D01*
X157156190Y-94697619D01*
X157118095Y-94773809D01*
X157118095Y-94926190D01*
X157156190Y-95002380D01*
X157232380Y-95078571D01*
X157384761Y-95116666D01*
X157651428Y-95116666D01*
X157803809Y-95078571D01*
X157880000Y-95002380D01*
X157918095Y-94926190D01*
X157918095Y-94354761D02*
X157918095Y-93897619D01*
X157118095Y-94126190D02*
X157918095Y-94126190D01*
D12*
X158750000Y-99060000D02*
X158750000Y-91440000D01*
X173990000Y-99060000D02*
X158750000Y-99060000D01*
X158750000Y-91440000D02*
X173990000Y-91440000D01*
D13*
X174625000Y-99695000D02*
X117475000Y-99695000D01*
X174625000Y-90805000D02*
X174625000Y-99695000D01*
X117475000Y-90805000D02*
X174625000Y-90805000D01*
X117475000Y-99695000D02*
X117475000Y-90805000D01*
D10*
X144456190Y-96526190D02*
X144418095Y-96411904D01*
X144418095Y-96221428D01*
X144456190Y-96145238D01*
X144494285Y-96107142D01*
X144570476Y-96069047D01*
X144646666Y-96069047D01*
X144722857Y-96107142D01*
X144760952Y-96145238D01*
X144799047Y-96221428D01*
X144837142Y-96373809D01*
X144875238Y-96450000D01*
X144913333Y-96488095D01*
X144989523Y-96526190D01*
X145065714Y-96526190D01*
X145141904Y-96488095D01*
X145180000Y-96450000D01*
X145218095Y-96373809D01*
X145218095Y-96183333D01*
X145180000Y-96069047D01*
X144418095Y-95345238D02*
X144418095Y-95726190D01*
X145218095Y-95726190D01*
X145218095Y-94926190D02*
X145218095Y-94773809D01*
X145180000Y-94697619D01*
X145103809Y-94621428D01*
X144951428Y-94583333D01*
X144684761Y-94583333D01*
X144532380Y-94621428D01*
X144456190Y-94697619D01*
X144418095Y-94773809D01*
X144418095Y-94926190D01*
X144456190Y-95002380D01*
X144532380Y-95078571D01*
X144684761Y-95116666D01*
X144951428Y-95116666D01*
X145103809Y-95078571D01*
X145180000Y-95002380D01*
X145218095Y-94926190D01*
X145218095Y-94354761D02*
X145218095Y-93897619D01*
X144418095Y-94126190D02*
X145218095Y-94126190D01*
D13*
X143510000Y-91440000D02*
X143510000Y-99060000D01*
X146050000Y-99060000D02*
X146050000Y-91440000D01*
D12*
X156210000Y-99060000D02*
X156210000Y-91440000D01*
X118110000Y-99060000D02*
X156210000Y-99060000D01*
X118110000Y-91440000D02*
X118110000Y-99060000D01*
X156210000Y-91440000D02*
X118110000Y-91440000D01*
D10*
X169760476Y-90493809D02*
X169646190Y-90531904D01*
X169455714Y-90531904D01*
X169379523Y-90493809D01*
X169341428Y-90455714D01*
X169303333Y-90379523D01*
X169303333Y-90303333D01*
X169341428Y-90227142D01*
X169379523Y-90189047D01*
X169455714Y-90150952D01*
X169608095Y-90112857D01*
X169684285Y-90074761D01*
X169722380Y-90036666D01*
X169760476Y-89960476D01*
X169760476Y-89884285D01*
X169722380Y-89808095D01*
X169684285Y-89770000D01*
X169608095Y-89731904D01*
X169417619Y-89731904D01*
X169303333Y-89770000D01*
X169036666Y-89731904D02*
X168846190Y-90531904D01*
X168693809Y-89960476D01*
X168541428Y-90531904D01*
X168350952Y-89731904D01*
X168084285Y-90303333D02*
X167703333Y-90303333D01*
X168160476Y-90531904D02*
X167893809Y-89731904D01*
X167627142Y-90531904D01*
X167360476Y-90531904D02*
X167360476Y-89731904D01*
X167055714Y-89731904D01*
X166979523Y-89770000D01*
X166941428Y-89808095D01*
X166903333Y-89884285D01*
X166903333Y-89998571D01*
X166941428Y-90074761D01*
X166979523Y-90112857D01*
X167055714Y-90150952D01*
X167360476Y-90150952D01*
X166750952Y-90608095D02*
X166141428Y-90608095D01*
X165493809Y-90531904D02*
X165760476Y-90150952D01*
X165950952Y-90531904D02*
X165950952Y-89731904D01*
X165646190Y-89731904D01*
X165570000Y-89770000D01*
X165531904Y-89808095D01*
X165493809Y-89884285D01*
X165493809Y-89998571D01*
X165531904Y-90074761D01*
X165570000Y-90112857D01*
X165646190Y-90150952D01*
X165950952Y-90150952D01*
X164998571Y-89731904D02*
X164846190Y-89731904D01*
X164770000Y-89770000D01*
X164693809Y-89846190D01*
X164655714Y-89998571D01*
X164655714Y-90265238D01*
X164693809Y-90417619D01*
X164770000Y-90493809D01*
X164846190Y-90531904D01*
X164998571Y-90531904D01*
X165074761Y-90493809D01*
X165150952Y-90417619D01*
X165189047Y-90265238D01*
X165189047Y-89998571D01*
X165150952Y-89846190D01*
X165074761Y-89770000D01*
X164998571Y-89731904D01*
X164312857Y-90531904D02*
X164312857Y-89731904D01*
X164046190Y-90303333D01*
X163779523Y-89731904D01*
X163779523Y-90531904D01*
X163436666Y-90493809D02*
X163322380Y-90531904D01*
X163131904Y-90531904D01*
X163055714Y-90493809D01*
X163017619Y-90455714D01*
X162979523Y-90379523D01*
X162979523Y-90303333D01*
X163017619Y-90227142D01*
X163055714Y-90189047D01*
X163131904Y-90150952D01*
X163284285Y-90112857D01*
X163360476Y-90074761D01*
X163398571Y-90036666D01*
X163436666Y-89960476D01*
X163436666Y-89884285D01*
X163398571Y-89808095D01*
X163360476Y-89770000D01*
X163284285Y-89731904D01*
X163093809Y-89731904D01*
X162979523Y-89770000D01*
X170453095Y-87674285D02*
X170834047Y-87940952D01*
X170453095Y-88131428D02*
X171253095Y-88131428D01*
X171253095Y-87826666D01*
X171215000Y-87750476D01*
X171176904Y-87712380D01*
X171100714Y-87674285D01*
X170986428Y-87674285D01*
X170910238Y-87712380D01*
X170872142Y-87750476D01*
X170834047Y-87826666D01*
X170834047Y-88131428D01*
X171253095Y-87179047D02*
X171253095Y-87026666D01*
X171215000Y-86950476D01*
X171138809Y-86874285D01*
X170986428Y-86836190D01*
X170719761Y-86836190D01*
X170567380Y-86874285D01*
X170491190Y-86950476D01*
X170453095Y-87026666D01*
X170453095Y-87179047D01*
X170491190Y-87255238D01*
X170567380Y-87331428D01*
X170719761Y-87369523D01*
X170986428Y-87369523D01*
X171138809Y-87331428D01*
X171215000Y-87255238D01*
X171253095Y-87179047D01*
X170453095Y-86493333D02*
X171253095Y-86493333D01*
X170681666Y-86226666D01*
X171253095Y-85960000D01*
X170453095Y-85960000D01*
X170453095Y-84550476D02*
X170453095Y-85007619D01*
X170453095Y-84779047D02*
X171253095Y-84779047D01*
X171138809Y-84855238D01*
X171062619Y-84931428D01*
X171024523Y-85007619D01*
X161563095Y-87674285D02*
X161944047Y-87940952D01*
X161563095Y-88131428D02*
X162363095Y-88131428D01*
X162363095Y-87826666D01*
X162325000Y-87750476D01*
X162286904Y-87712380D01*
X162210714Y-87674285D01*
X162096428Y-87674285D01*
X162020238Y-87712380D01*
X161982142Y-87750476D01*
X161944047Y-87826666D01*
X161944047Y-88131428D01*
X162363095Y-87179047D02*
X162363095Y-87026666D01*
X162325000Y-86950476D01*
X162248809Y-86874285D01*
X162096428Y-86836190D01*
X161829761Y-86836190D01*
X161677380Y-86874285D01*
X161601190Y-86950476D01*
X161563095Y-87026666D01*
X161563095Y-87179047D01*
X161601190Y-87255238D01*
X161677380Y-87331428D01*
X161829761Y-87369523D01*
X162096428Y-87369523D01*
X162248809Y-87331428D01*
X162325000Y-87255238D01*
X162363095Y-87179047D01*
X161563095Y-86493333D02*
X162363095Y-86493333D01*
X161791666Y-86226666D01*
X162363095Y-85960000D01*
X161563095Y-85960000D01*
X162363095Y-84817142D02*
X162363095Y-84740952D01*
X162325000Y-84664761D01*
X162286904Y-84626666D01*
X162210714Y-84588571D01*
X162058333Y-84550476D01*
X161867857Y-84550476D01*
X161715476Y-84588571D01*
X161639285Y-84626666D01*
X161601190Y-84664761D01*
X161563095Y-84740952D01*
X161563095Y-84817142D01*
X161601190Y-84893333D01*
X161639285Y-84931428D01*
X161715476Y-84969523D01*
X161867857Y-85007619D01*
X162058333Y-85007619D01*
X162210714Y-84969523D01*
X162286904Y-84931428D01*
X162325000Y-84893333D01*
X162363095Y-84817142D01*
X118528809Y-70666904D02*
X118528809Y-71238333D01*
X118566904Y-71352619D01*
X118643095Y-71428809D01*
X118757380Y-71466904D01*
X118833571Y-71466904D01*
X117995476Y-70666904D02*
X117843095Y-70666904D01*
X117766904Y-70705000D01*
X117690714Y-70781190D01*
X117652619Y-70933571D01*
X117652619Y-71200238D01*
X117690714Y-71352619D01*
X117766904Y-71428809D01*
X117843095Y-71466904D01*
X117995476Y-71466904D01*
X118071666Y-71428809D01*
X118147857Y-71352619D01*
X118185952Y-71200238D01*
X118185952Y-70933571D01*
X118147857Y-70781190D01*
X118071666Y-70705000D01*
X117995476Y-70666904D01*
X117157380Y-71085952D02*
X117157380Y-71466904D01*
X117424047Y-70666904D02*
X117157380Y-71085952D01*
X116890714Y-70666904D01*
X116662142Y-71428809D02*
X116547857Y-71466904D01*
X116357380Y-71466904D01*
X116281190Y-71428809D01*
X116243095Y-71390714D01*
X116205000Y-71314523D01*
X116205000Y-71238333D01*
X116243095Y-71162142D01*
X116281190Y-71124047D01*
X116357380Y-71085952D01*
X116509761Y-71047857D01*
X116585952Y-71009761D01*
X116624047Y-70971666D01*
X116662142Y-70895476D01*
X116662142Y-70819285D01*
X116624047Y-70743095D01*
X116585952Y-70705000D01*
X116509761Y-70666904D01*
X116319285Y-70666904D01*
X116205000Y-70705000D01*
X115976428Y-70666904D02*
X115519285Y-70666904D01*
X115747857Y-71466904D02*
X115747857Y-70666904D01*
X115252619Y-71466904D02*
X115252619Y-70666904D01*
X114414523Y-71390714D02*
X114452619Y-71428809D01*
X114566904Y-71466904D01*
X114643095Y-71466904D01*
X114757380Y-71428809D01*
X114833571Y-71352619D01*
X114871666Y-71276428D01*
X114909761Y-71124047D01*
X114909761Y-71009761D01*
X114871666Y-70857380D01*
X114833571Y-70781190D01*
X114757380Y-70705000D01*
X114643095Y-70666904D01*
X114566904Y-70666904D01*
X114452619Y-70705000D01*
X114414523Y-70743095D01*
X114071666Y-71466904D02*
X114071666Y-70666904D01*
X113614523Y-71466904D02*
X113957380Y-71009761D01*
X113614523Y-70666904D02*
X114071666Y-71124047D01*
X119138333Y-72766904D02*
X119138333Y-71966904D01*
X118757380Y-72766904D02*
X118757380Y-71966904D01*
X118300238Y-72766904D01*
X118300238Y-71966904D01*
X118033571Y-71966904D02*
X117576428Y-71966904D01*
X117805000Y-72766904D02*
X117805000Y-71966904D01*
X117309761Y-72347857D02*
X117043095Y-72347857D01*
X116928809Y-72766904D02*
X117309761Y-72766904D01*
X117309761Y-71966904D01*
X116928809Y-71966904D01*
X116128809Y-72766904D02*
X116395476Y-72385952D01*
X116585952Y-72766904D02*
X116585952Y-71966904D01*
X116281190Y-71966904D01*
X116205000Y-72005000D01*
X116166904Y-72043095D01*
X116128809Y-72119285D01*
X116128809Y-72233571D01*
X116166904Y-72309761D01*
X116205000Y-72347857D01*
X116281190Y-72385952D01*
X116585952Y-72385952D01*
X115519285Y-72347857D02*
X115785952Y-72347857D01*
X115785952Y-72766904D02*
X115785952Y-71966904D01*
X115405000Y-71966904D01*
X115138333Y-72538333D02*
X114757380Y-72538333D01*
X115214523Y-72766904D02*
X114947857Y-71966904D01*
X114681190Y-72766904D01*
X113957380Y-72690714D02*
X113995476Y-72728809D01*
X114109761Y-72766904D01*
X114185952Y-72766904D01*
X114300238Y-72728809D01*
X114376428Y-72652619D01*
X114414523Y-72576428D01*
X114452619Y-72424047D01*
X114452619Y-72309761D01*
X114414523Y-72157380D01*
X114376428Y-72081190D01*
X114300238Y-72005000D01*
X114185952Y-71966904D01*
X114109761Y-71966904D01*
X113995476Y-72005000D01*
X113957380Y-72043095D01*
X113614523Y-72347857D02*
X113347857Y-72347857D01*
X113233571Y-72766904D02*
X113614523Y-72766904D01*
X113614523Y-71966904D01*
X113233571Y-71966904D01*
X113087142Y-68694047D02*
X113087142Y-68427380D01*
X112668095Y-68313095D02*
X112668095Y-68694047D01*
X113468095Y-68694047D01*
X113468095Y-68313095D01*
X112668095Y-67970238D02*
X113468095Y-67970238D01*
X112668095Y-67513095D01*
X113468095Y-67513095D01*
X112896666Y-67170238D02*
X112896666Y-66789285D01*
X112668095Y-67246428D02*
X113468095Y-66979761D01*
X112668095Y-66713095D01*
X113087142Y-66179761D02*
X113049047Y-66065476D01*
X113010952Y-66027380D01*
X112934761Y-65989285D01*
X112820476Y-65989285D01*
X112744285Y-66027380D01*
X112706190Y-66065476D01*
X112668095Y-66141666D01*
X112668095Y-66446428D01*
X113468095Y-66446428D01*
X113468095Y-66179761D01*
X113430000Y-66103571D01*
X113391904Y-66065476D01*
X113315714Y-66027380D01*
X113239523Y-66027380D01*
X113163333Y-66065476D01*
X113125238Y-66103571D01*
X113087142Y-66179761D01*
X113087142Y-66446428D01*
X112668095Y-65265476D02*
X112668095Y-65646428D01*
X113468095Y-65646428D01*
X113087142Y-64998809D02*
X113087142Y-64732142D01*
X112668095Y-64617857D02*
X112668095Y-64998809D01*
X113468095Y-64998809D01*
X113468095Y-64617857D01*
D13*
X114300000Y-64770000D02*
X114300000Y-60960000D01*
X114300000Y-65405000D02*
X115570000Y-65405000D01*
X114300000Y-67945000D02*
X114300000Y-65405000D01*
X115570000Y-67945000D02*
X114300000Y-67945000D01*
X114300000Y-69850000D02*
X114300000Y-68580000D01*
X118110000Y-69850000D02*
X114300000Y-69850000D01*
X118110000Y-60960000D02*
X118110000Y-69850000D01*
X114300000Y-60960000D02*
X118110000Y-60960000D01*
X169545000Y-89535000D02*
X166370000Y-89535000D01*
X169545000Y-88265000D02*
X169545000Y-89535000D01*
X169545000Y-83185000D02*
X169545000Y-84455000D01*
X166370000Y-83185000D02*
X169545000Y-83185000D01*
X163195000Y-83185000D02*
X163195000Y-84455000D01*
X166370000Y-83185000D02*
X163195000Y-83185000D01*
X166370000Y-89535000D02*
X166370000Y-83185000D01*
X163195000Y-89535000D02*
X166370000Y-89535000D01*
X163195000Y-88265000D02*
X163195000Y-89535000D01*
X163195000Y-87630000D02*
X164465000Y-87630000D01*
X163195000Y-85090000D02*
X163195000Y-87630000D01*
X164465000Y-85090000D02*
X163195000Y-85090000D01*
X169545000Y-87630000D02*
X168275000Y-87630000D01*
X169545000Y-85090000D02*
X169545000Y-87630000D01*
X168275000Y-85090000D02*
X169545000Y-85090000D01*
D12*
X128010714Y-124908571D02*
X127010714Y-124908571D01*
X128010714Y-126408571D01*
X127010714Y-126408571D01*
X126582142Y-124908571D02*
X125582142Y-126408571D01*
X125582142Y-124908571D02*
X126582142Y-126408571D01*
X123867857Y-126408571D02*
X123867857Y-124908571D01*
X123153571Y-125408571D02*
X123153571Y-126408571D01*
X123153571Y-125551428D02*
X123082142Y-125480000D01*
X122939285Y-125408571D01*
X122725000Y-125408571D01*
X122582142Y-125480000D01*
X122510714Y-125622857D01*
X122510714Y-126408571D01*
X122010714Y-125408571D02*
X121439285Y-125408571D01*
X121796428Y-124908571D02*
X121796428Y-126194285D01*
X121725000Y-126337142D01*
X121582142Y-126408571D01*
X121439285Y-126408571D01*
X120367857Y-126337142D02*
X120510714Y-126408571D01*
X120796428Y-126408571D01*
X120939285Y-126337142D01*
X121010714Y-126194285D01*
X121010714Y-125622857D01*
X120939285Y-125480000D01*
X120796428Y-125408571D01*
X120510714Y-125408571D01*
X120367857Y-125480000D01*
X120296428Y-125622857D01*
X120296428Y-125765714D01*
X121010714Y-125908571D01*
X119653571Y-126408571D02*
X119653571Y-125408571D01*
X119653571Y-125694285D02*
X119582142Y-125551428D01*
X119510714Y-125480000D01*
X119367857Y-125408571D01*
X119225000Y-125408571D01*
X118939285Y-125408571D02*
X118367857Y-125408571D01*
X118725000Y-126408571D02*
X118725000Y-125122857D01*
X118653571Y-124980000D01*
X118510714Y-124908571D01*
X118367857Y-124908571D01*
X117225000Y-126408571D02*
X117225000Y-125622857D01*
X117296428Y-125480000D01*
X117439285Y-125408571D01*
X117725000Y-125408571D01*
X117867857Y-125480000D01*
X117225000Y-126337142D02*
X117367857Y-126408571D01*
X117725000Y-126408571D01*
X117867857Y-126337142D01*
X117939285Y-126194285D01*
X117939285Y-126051428D01*
X117867857Y-125908571D01*
X117725000Y-125837142D01*
X117367857Y-125837142D01*
X117225000Y-125765714D01*
X115867857Y-126337142D02*
X116010714Y-126408571D01*
X116296428Y-126408571D01*
X116439285Y-126337142D01*
X116510714Y-126265714D01*
X116582142Y-126122857D01*
X116582142Y-125694285D01*
X116510714Y-125551428D01*
X116439285Y-125480000D01*
X116296428Y-125408571D01*
X116010714Y-125408571D01*
X115867857Y-125480000D01*
X114653571Y-126337142D02*
X114796428Y-126408571D01*
X115082142Y-126408571D01*
X115225000Y-126337142D01*
X115296428Y-126194285D01*
X115296428Y-125622857D01*
X115225000Y-125480000D01*
X115082142Y-125408571D01*
X114796428Y-125408571D01*
X114653571Y-125480000D01*
X114582142Y-125622857D01*
X114582142Y-125765714D01*
X115296428Y-125908571D01*
X112867857Y-125051428D02*
X112796428Y-124980000D01*
X112653571Y-124908571D01*
X112296428Y-124908571D01*
X112153571Y-124980000D01*
X112082142Y-125051428D01*
X112010714Y-125194285D01*
X112010714Y-125337142D01*
X112082142Y-125551428D01*
X112939285Y-126408571D01*
X112010714Y-126408571D01*
X111367857Y-126265714D02*
X111296428Y-126337142D01*
X111367857Y-126408571D01*
X111439285Y-126337142D01*
X111367857Y-126265714D01*
X111367857Y-126408571D01*
X110367857Y-124908571D02*
X110225000Y-124908571D01*
X110082142Y-124980000D01*
X110010714Y-125051428D01*
X109939285Y-125194285D01*
X109867857Y-125480000D01*
X109867857Y-125837142D01*
X109939285Y-126122857D01*
X110010714Y-126265714D01*
X110082142Y-126337142D01*
X110225000Y-126408571D01*
X110367857Y-126408571D01*
X110510714Y-126337142D01*
X110582142Y-126265714D01*
X110653571Y-126122857D01*
X110725000Y-125837142D01*
X110725000Y-125480000D01*
X110653571Y-125194285D01*
X110582142Y-125051428D01*
X110510714Y-124980000D01*
X110367857Y-124908571D01*
X109296428Y-125051428D02*
X109225000Y-124980000D01*
X109082142Y-124908571D01*
X108725000Y-124908571D01*
X108582142Y-124980000D01*
X108510714Y-125051428D01*
X108439285Y-125194285D01*
X108439285Y-125337142D01*
X108510714Y-125551428D01*
X109367857Y-126408571D01*
X108439285Y-126408571D01*
X107010714Y-126408571D02*
X107867857Y-126408571D01*
X107439285Y-126408571D02*
X107439285Y-124908571D01*
X107582142Y-125122857D01*
X107725000Y-125265714D01*
X107867857Y-125337142D01*
D11*
X122475000Y-131707380D02*
X122951190Y-131707380D01*
X122951190Y-130707380D01*
X122141666Y-131707380D02*
X122141666Y-131040714D01*
X122141666Y-130707380D02*
X122189285Y-130755000D01*
X122141666Y-130802619D01*
X122094047Y-130755000D01*
X122141666Y-130707380D01*
X122141666Y-130802619D01*
X121236904Y-131659761D02*
X121332142Y-131707380D01*
X121522619Y-131707380D01*
X121617857Y-131659761D01*
X121665476Y-131612142D01*
X121713095Y-131516904D01*
X121713095Y-131231190D01*
X121665476Y-131135952D01*
X121617857Y-131088333D01*
X121522619Y-131040714D01*
X121332142Y-131040714D01*
X121236904Y-131088333D01*
X120427380Y-131659761D02*
X120522619Y-131707380D01*
X120713095Y-131707380D01*
X120808333Y-131659761D01*
X120855952Y-131564523D01*
X120855952Y-131183571D01*
X120808333Y-131088333D01*
X120713095Y-131040714D01*
X120522619Y-131040714D01*
X120427380Y-131088333D01*
X120379761Y-131183571D01*
X120379761Y-131278809D01*
X120855952Y-131374047D01*
X119951190Y-131040714D02*
X119951190Y-131707380D01*
X119951190Y-131135952D02*
X119903571Y-131088333D01*
X119808333Y-131040714D01*
X119665476Y-131040714D01*
X119570238Y-131088333D01*
X119522619Y-131183571D01*
X119522619Y-131707380D01*
X119094047Y-131659761D02*
X118998809Y-131707380D01*
X118808333Y-131707380D01*
X118713095Y-131659761D01*
X118665476Y-131564523D01*
X118665476Y-131516904D01*
X118713095Y-131421666D01*
X118808333Y-131374047D01*
X118951190Y-131374047D01*
X119046428Y-131326428D01*
X119094047Y-131231190D01*
X119094047Y-131183571D01*
X119046428Y-131088333D01*
X118951190Y-131040714D01*
X118808333Y-131040714D01*
X118713095Y-131088333D01*
X117855952Y-131659761D02*
X117951190Y-131707380D01*
X118141666Y-131707380D01*
X118236904Y-131659761D01*
X118284523Y-131564523D01*
X118284523Y-131183571D01*
X118236904Y-131088333D01*
X118141666Y-131040714D01*
X117951190Y-131040714D01*
X117855952Y-131088333D01*
X117808333Y-131183571D01*
X117808333Y-131278809D01*
X118284523Y-131374047D01*
X116951190Y-131707380D02*
X116951190Y-130707380D01*
X116951190Y-131659761D02*
X117046428Y-131707380D01*
X117236904Y-131707380D01*
X117332142Y-131659761D01*
X117379761Y-131612142D01*
X117427380Y-131516904D01*
X117427380Y-131231190D01*
X117379761Y-131135952D01*
X117332142Y-131088333D01*
X117236904Y-131040714D01*
X117046428Y-131040714D01*
X116951190Y-131088333D01*
X115284523Y-131040714D02*
X115284523Y-131707380D01*
X115713095Y-131040714D02*
X115713095Y-131564523D01*
X115665476Y-131659761D01*
X115570238Y-131707380D01*
X115427380Y-131707380D01*
X115332142Y-131659761D01*
X115284523Y-131612142D01*
X114808333Y-131040714D02*
X114808333Y-131707380D01*
X114808333Y-131135952D02*
X114760714Y-131088333D01*
X114665476Y-131040714D01*
X114522619Y-131040714D01*
X114427380Y-131088333D01*
X114379761Y-131183571D01*
X114379761Y-131707380D01*
X113475000Y-131707380D02*
X113475000Y-130707380D01*
X113475000Y-131659761D02*
X113570238Y-131707380D01*
X113760714Y-131707380D01*
X113855952Y-131659761D01*
X113903571Y-131612142D01*
X113951190Y-131516904D01*
X113951190Y-131231190D01*
X113903571Y-131135952D01*
X113855952Y-131088333D01*
X113760714Y-131040714D01*
X113570238Y-131040714D01*
X113475000Y-131088333D01*
X112617857Y-131659761D02*
X112713095Y-131707380D01*
X112903571Y-131707380D01*
X112998809Y-131659761D01*
X113046428Y-131564523D01*
X113046428Y-131183571D01*
X112998809Y-131088333D01*
X112903571Y-131040714D01*
X112713095Y-131040714D01*
X112617857Y-131088333D01*
X112570238Y-131183571D01*
X112570238Y-131278809D01*
X113046428Y-131374047D01*
X112141666Y-131707380D02*
X112141666Y-131040714D01*
X112141666Y-131231190D02*
X112094047Y-131135952D01*
X112046428Y-131088333D01*
X111951190Y-131040714D01*
X111855952Y-131040714D01*
X122665476Y-133262142D02*
X122713095Y-133309761D01*
X122855952Y-133357380D01*
X122951190Y-133357380D01*
X123094047Y-133309761D01*
X123189285Y-133214523D01*
X123236904Y-133119285D01*
X123284523Y-132928809D01*
X123284523Y-132785952D01*
X123236904Y-132595476D01*
X123189285Y-132500238D01*
X123094047Y-132405000D01*
X122951190Y-132357380D01*
X122855952Y-132357380D01*
X122713095Y-132405000D01*
X122665476Y-132452619D01*
X122236904Y-132833571D02*
X121903571Y-132833571D01*
X121760714Y-133357380D02*
X122236904Y-133357380D01*
X122236904Y-132357380D01*
X121760714Y-132357380D01*
X120760714Y-133357380D02*
X121094047Y-132881190D01*
X121332142Y-133357380D02*
X121332142Y-132357380D01*
X120951190Y-132357380D01*
X120855952Y-132405000D01*
X120808333Y-132452619D01*
X120760714Y-132547857D01*
X120760714Y-132690714D01*
X120808333Y-132785952D01*
X120855952Y-132833571D01*
X120951190Y-132881190D01*
X121332142Y-132881190D01*
X120332142Y-133357380D02*
X120332142Y-132357380D01*
X119760714Y-133357380D01*
X119760714Y-132357380D01*
X118332142Y-132357380D02*
X118141666Y-132357380D01*
X118046428Y-132405000D01*
X117951190Y-132500238D01*
X117903571Y-132690714D01*
X117903571Y-133024047D01*
X117951190Y-133214523D01*
X118046428Y-133309761D01*
X118141666Y-133357380D01*
X118332142Y-133357380D01*
X118427380Y-133309761D01*
X118522619Y-133214523D01*
X118570238Y-133024047D01*
X118570238Y-132690714D01*
X118522619Y-132500238D01*
X118427380Y-132405000D01*
X118332142Y-132357380D01*
X117475000Y-133357380D02*
X117475000Y-132357380D01*
X117475000Y-132833571D02*
X116903571Y-132833571D01*
X116903571Y-133357380D02*
X116903571Y-132357380D01*
X115951190Y-133357380D02*
X116427380Y-133357380D01*
X116427380Y-132357380D01*
X114951190Y-132690714D02*
X114713095Y-133357380D01*
X114475000Y-132690714D01*
X114094047Y-133262142D02*
X114046428Y-133309761D01*
X114094047Y-133357380D01*
X114141666Y-133309761D01*
X114094047Y-133262142D01*
X114094047Y-133357380D01*
X113094047Y-133357380D02*
X113665476Y-133357380D01*
X113379761Y-133357380D02*
X113379761Y-132357380D01*
X113475000Y-132500238D01*
X113570238Y-132595476D01*
X113665476Y-132643095D01*
X112665476Y-133262142D02*
X112617857Y-133309761D01*
X112665476Y-133357380D01*
X112713095Y-133309761D01*
X112665476Y-133262142D01*
X112665476Y-133357380D01*
X112236904Y-132452619D02*
X112189285Y-132405000D01*
X112094047Y-132357380D01*
X111855952Y-132357380D01*
X111760714Y-132405000D01*
X111713095Y-132452619D01*
X111665476Y-132547857D01*
X111665476Y-132643095D01*
X111713095Y-132785952D01*
X112284523Y-133357380D01*
X111665476Y-133357380D01*
X122879761Y-128055714D02*
X122879761Y-128865238D01*
X122927380Y-128960476D01*
X122975000Y-129008095D01*
X123070238Y-129055714D01*
X123213095Y-129055714D01*
X123308333Y-129008095D01*
X122879761Y-128674761D02*
X122975000Y-128722380D01*
X123165476Y-128722380D01*
X123260714Y-128674761D01*
X123308333Y-128627142D01*
X123355952Y-128531904D01*
X123355952Y-128246190D01*
X123308333Y-128150952D01*
X123260714Y-128103333D01*
X123165476Y-128055714D01*
X122975000Y-128055714D01*
X122879761Y-128103333D01*
X122403571Y-128722380D02*
X122403571Y-128055714D01*
X122403571Y-127722380D02*
X122451190Y-127770000D01*
X122403571Y-127817619D01*
X122355952Y-127770000D01*
X122403571Y-127722380D01*
X122403571Y-127817619D01*
X122070238Y-128055714D02*
X121689285Y-128055714D01*
X121927380Y-127722380D02*
X121927380Y-128579523D01*
X121879761Y-128674761D01*
X121784523Y-128722380D01*
X121689285Y-128722380D01*
X121355952Y-128722380D02*
X121355952Y-127722380D01*
X120927380Y-128722380D02*
X120927380Y-128198571D01*
X120975000Y-128103333D01*
X121070238Y-128055714D01*
X121213095Y-128055714D01*
X121308333Y-128103333D01*
X121355952Y-128150952D01*
X120022619Y-128055714D02*
X120022619Y-128722380D01*
X120451190Y-128055714D02*
X120451190Y-128579523D01*
X120403571Y-128674761D01*
X120308333Y-128722380D01*
X120165476Y-128722380D01*
X120070238Y-128674761D01*
X120022619Y-128627142D01*
X119546428Y-128722380D02*
X119546428Y-127722380D01*
X119546428Y-128103333D02*
X119451190Y-128055714D01*
X119260714Y-128055714D01*
X119165476Y-128103333D01*
X119117857Y-128150952D01*
X119070238Y-128246190D01*
X119070238Y-128531904D01*
X119117857Y-128627142D01*
X119165476Y-128674761D01*
X119260714Y-128722380D01*
X119451190Y-128722380D01*
X119546428Y-128674761D01*
X118641666Y-128627142D02*
X118594047Y-128674761D01*
X118641666Y-128722380D01*
X118689285Y-128674761D01*
X118641666Y-128627142D01*
X118641666Y-128722380D01*
X117736904Y-128674761D02*
X117832142Y-128722380D01*
X118022619Y-128722380D01*
X118117857Y-128674761D01*
X118165476Y-128627142D01*
X118213095Y-128531904D01*
X118213095Y-128246190D01*
X118165476Y-128150952D01*
X118117857Y-128103333D01*
X118022619Y-128055714D01*
X117832142Y-128055714D01*
X117736904Y-128103333D01*
X117165476Y-128722380D02*
X117260714Y-128674761D01*
X117308333Y-128627142D01*
X117355952Y-128531904D01*
X117355952Y-128246190D01*
X117308333Y-128150952D01*
X117260714Y-128103333D01*
X117165476Y-128055714D01*
X117022619Y-128055714D01*
X116927380Y-128103333D01*
X116879761Y-128150952D01*
X116832142Y-128246190D01*
X116832142Y-128531904D01*
X116879761Y-128627142D01*
X116927380Y-128674761D01*
X117022619Y-128722380D01*
X117165476Y-128722380D01*
X116403571Y-128722380D02*
X116403571Y-128055714D01*
X116403571Y-128150952D02*
X116355952Y-128103333D01*
X116260714Y-128055714D01*
X116117857Y-128055714D01*
X116022619Y-128103333D01*
X115975000Y-128198571D01*
X115975000Y-128722380D01*
X115975000Y-128198571D02*
X115927380Y-128103333D01*
X115832142Y-128055714D01*
X115689285Y-128055714D01*
X115594047Y-128103333D01*
X115546428Y-128198571D01*
X115546428Y-128722380D01*
X114355952Y-127674761D02*
X115213095Y-128960476D01*
X114165476Y-128055714D02*
X113784523Y-128055714D01*
X114022619Y-127722380D02*
X114022619Y-128579523D01*
X113975000Y-128674761D01*
X113879761Y-128722380D01*
X113784523Y-128722380D01*
X113070238Y-128674761D02*
X113165476Y-128722380D01*
X113355952Y-128722380D01*
X113451190Y-128674761D01*
X113498809Y-128579523D01*
X113498809Y-128198571D01*
X113451190Y-128103333D01*
X113355952Y-128055714D01*
X113165476Y-128055714D01*
X113070238Y-128103333D01*
X113022619Y-128198571D01*
X113022619Y-128293809D01*
X113498809Y-128389047D01*
X112594047Y-128722380D02*
X112594047Y-127722380D01*
X112594047Y-128103333D02*
X112498809Y-128055714D01*
X112308333Y-128055714D01*
X112213095Y-128103333D01*
X112165476Y-128150952D01*
X112117857Y-128246190D01*
X112117857Y-128531904D01*
X112165476Y-128627142D01*
X112213095Y-128674761D01*
X112308333Y-128722380D01*
X112498809Y-128722380D01*
X112594047Y-128674761D01*
X111546428Y-128722380D02*
X111641666Y-128674761D01*
X111689285Y-128579523D01*
X111689285Y-127722380D01*
D13*
%TO.C,Z1*%
X121602500Y-138303000D02*
X121602500Y-146177000D01*
X121285000Y-138303000D02*
X121285000Y-146177000D01*
X121920000Y-146177000D02*
X121920000Y-138303000D01*
X122555000Y-138303000D02*
X122555000Y-146177000D01*
X120967500Y-138303000D02*
X120967500Y-146177000D01*
X123190000Y-138303000D02*
X123190000Y-146177000D01*
X122872500Y-146177000D02*
X122872500Y-138303000D01*
X122237500Y-146177000D02*
X122237500Y-138303000D01*
X120650000Y-146177000D02*
X120650000Y-138303000D01*
X109982000Y-138303000D02*
X182118000Y-138303000D01*
X109982000Y-138303000D02*
X109982000Y-146177000D01*
X182118000Y-146177000D02*
X182118000Y-138303000D01*
%TD*%
M02*
