M48
INCH,TZ
T1C0.0157
T2C0.0236
T3C0.0315
T4C0.0354
T5C0.0394
T6C0.0433
T7C0.1200
%
G90
G05
T1
X44300Y-54200
X44400Y-46600
X44535Y-42750
X45072Y-50750
X45400Y-51000
X45689Y-52300
X45965Y-51965
X45970Y-37224
X46250Y-37500
X46465Y-41250
X46500Y-46300
X47750Y-41500
X47800Y-46000
X48500Y-36000
X49000Y-37750
X49500Y-36000
X50000Y-50800
X50000Y-53571
X50300Y-51394
X50500Y-53285
X50600Y-49900
X50900Y-50248
X51200Y-50800
X51200Y-53700
X51500Y-36000
X51500Y-47000
X51500Y-50300
X51800Y-45900
X51800Y-53300
X52000Y-39250
X52100Y-39946
X52100Y-50600
X52100Y-53000
X52400Y-50300
X52673Y-39327
X52700Y-50600
X52700Y-53800
X53000Y-50300
X53300Y-50600
X53543Y-35429
X53700Y-45300
X53700Y-52300
X53722Y-44715
X54000Y-45000
X54400Y-44400
X54423Y-25077
X54500Y-19750
X54700Y-50800
X54750Y-51394
X54785Y-39285
X55000Y-53500
X55071Y-39750
X55500Y-37571
X55785Y-52276
X55856Y-40106
X55900Y-50215
X56250Y-41250
X56250Y-50500
X56250Y-51394
X56500Y-37285
X56750Y-52535
X56900Y-40700
X57465Y-32179
X57500Y-44700
X57500Y-45300
X57785Y-40502
X57800Y-45000
X57898Y-43002
X58311Y-32179
X58439Y-28500
X58500Y-33465
X58500Y-39100
X58528Y-51965
X58750Y-39750
X58750Y-40250
X59000Y-52250
X59061Y-27500
X59061Y-28071
X59250Y-45300
X59500Y-27785
X59500Y-39250
X59500Y-54000
X59715Y-35465
X60000Y-46250
X60000Y-54000
X60285Y-35465
X60285Y-53250
X60514Y-37574
X60811Y-37285
X61750Y-34285
X61750Y-35750
X61900Y-33000
X61900Y-33500
X62000Y-54200
X62123Y-45185
X62200Y-34100
X62211Y-42700
X62500Y-33800
X62500Y-37785
X62500Y-54104
X62700Y-41500
X63965Y-42465
X64000Y-25000
X64115Y-25500
X64500Y-35750
X64500Y-39750
X65250Y-39535
X65250Y-50250
X65500Y-45750
X65535Y-41215
X65965Y-41215
X66000Y-25000
X66500Y-54285
X66800Y-42600
X66965Y-44250
X67077Y-51115
X67250Y-41215
X67900Y-51700
X68250Y-41465
X68500Y-54300
X68595Y-35250
X68750Y-51500
X68880Y-38500
X68965Y-41215
X69166Y-38000
X69451Y-38458
X69465Y-39785
X69750Y-38715
X69750Y-53535
X69965Y-45800
X70250Y-35250
X70250Y-53250
X71250Y-49000
X72100Y-42100
X72258Y-42508
X72635Y-45500
X72650Y-46157
T2
X41600Y-50659
X41600Y-51250
T3
X41750Y-35500
X41750Y-39500
X56500Y-24500
X60500Y-24500
X61500Y-24500
X65500Y-24500
X64750Y-45000
X64750Y-48000
X65750Y-45000
X65750Y-48000
X66750Y-45000
X66750Y-48000
X67750Y-45000
X67750Y-48000
X68750Y-45000
X68750Y-48000
X69750Y-45000
X69750Y-48000
X70750Y-45000
X70750Y-48000
X71750Y-45000
X71750Y-48000
X57250Y-34750
X61250Y-34750
X66500Y-25800
X69500Y-25800
X51500Y-24500
X55500Y-24500
X66500Y-27000
X69500Y-27000
X63250Y-50000
X63250Y-51969
X47250Y-34750
X50250Y-34750
X60250Y-28750
X60250Y-31750
X61250Y-28750
X61250Y-31750
X62250Y-28750
X62250Y-31750
X63250Y-28750
X63250Y-31750
X64250Y-28750
X64250Y-31750
X65250Y-28750
X65250Y-31750
X66250Y-28750
X66250Y-31750
X67250Y-28750
X67250Y-31750
X68250Y-28750
X68250Y-31750
X69250Y-28750
X69250Y-31750
X62750Y-40500
X62750Y-43500
X63750Y-40500
X63750Y-43500
X64750Y-40500
X64750Y-43500
X65750Y-40500
X65750Y-43500
X66750Y-40500
X66750Y-43500
X67750Y-40500
X67750Y-43500
X68750Y-40500
X68750Y-43500
X69750Y-40500
X69750Y-43500
X70750Y-40500
X70750Y-43500
X71750Y-40500
X71750Y-43500
X45750Y-29250
X45750Y-31219
X58750Y-29250
X58750Y-31219
X52250Y-34750
X55250Y-34750
X47500Y-24500
X50500Y-24500
X64000Y-33250
X68000Y-33250
X52000Y-25750
X55000Y-25750
X43250Y-40500
X43250Y-43500
X44250Y-40500
X44250Y-43500
X45250Y-40500
X45250Y-43500
X46250Y-40500
X46250Y-43500
X47250Y-40500
X47250Y-43500
X48250Y-40500
X48250Y-43500
X49250Y-40500
X49250Y-43500
X62000Y-25750
X65000Y-25750
X41750Y-41000
X41750Y-42969
X64750Y-49500
X64750Y-52500
X65750Y-49500
X65750Y-52500
X66750Y-49500
X66750Y-52500
X67750Y-49500
X67750Y-52500
X68750Y-49500
X68750Y-52500
X69750Y-49500
X69750Y-52500
X70750Y-49500
X70750Y-52500
X71750Y-49500
X71750Y-52500
X47500Y-25750
X50500Y-25750
X43250Y-45000
X43250Y-48000
X44250Y-45000
X44250Y-48000
X45250Y-45000
X45250Y-48000
X46250Y-45000
X46250Y-48000
X47250Y-45000
X47250Y-48000
X48250Y-45000
X48250Y-48000
X49250Y-45000
X49250Y-48000
X62000Y-27000
X65000Y-27000
X63250Y-45750
X63250Y-47719
X57250Y-33250
X60250Y-33250
X52250Y-33250
X55250Y-33250
X47250Y-28750
X47250Y-31750
X48250Y-28750
X48250Y-31750
X49250Y-28750
X49250Y-31750
X50250Y-28750
X50250Y-31750
X51250Y-28750
X51250Y-31750
X52250Y-28750
X52250Y-31750
X53250Y-28750
X53250Y-31750
X54250Y-28750
X54250Y-31750
X55250Y-28750
X55250Y-31750
X56250Y-28750
X56250Y-31750
X56500Y-25750
X60500Y-25750
X73750Y-49100
X73750Y-50100
X73750Y-51100
X73500Y-44000
X73500Y-48000
X47500Y-27000
X50500Y-27000
X56500Y-27000
X60500Y-27000
X52000Y-27000
X55000Y-27000
X41750Y-45500
X41750Y-47469
X73500Y-39000
X73500Y-43000
X61250Y-41250
X61250Y-43219
X66500Y-24500
X69500Y-24500
X47250Y-33250
X50250Y-33250
T4
X72750Y-21750
X72750Y-22750
T5
X71750Y-33500
X71750Y-34500
X71750Y-35500
X49000Y-20500
X49545Y-21618
X50091Y-20500
X50636Y-21618
X51181Y-20500
X51726Y-21618
X52272Y-20500
X52817Y-21618
X53362Y-20500
X45750Y-24750
X45750Y-25750
X45750Y-26750
X47000Y-36500
X47000Y-38500
X48000Y-36500
X48000Y-38500
X49000Y-36500
X49000Y-38500
X50000Y-36500
X50000Y-38500
X51000Y-36500
X51000Y-38500
X52000Y-36500
X52000Y-38500
X53000Y-36500
X53000Y-38500
X54000Y-36500
X54000Y-38500
X55000Y-36500
X55000Y-38500
X56000Y-36500
X56000Y-38500
X57000Y-36500
X57000Y-38500
X58000Y-36500
X58000Y-38500
X59000Y-36500
X59000Y-38500
X60000Y-36500
X60000Y-38500
X61000Y-36500
X61000Y-38500
X62000Y-36500
X62000Y-38500
X63000Y-36500
X63000Y-38500
X64000Y-36500
X64000Y-38500
X65000Y-36500
X65000Y-38500
X66000Y-36500
X66000Y-38500
X67000Y-36500
X67000Y-38500
X68000Y-36500
X68000Y-38500
X61750Y-20500
X62295Y-21618
X62841Y-20500
X63386Y-21618
X63931Y-20500
X64476Y-21618
X65022Y-20500
X65567Y-21618
X66112Y-20500
T6
X41364Y-28970
X41364Y-31530
X43136Y-28970
X43136Y-31530
X71864Y-28970
X71864Y-31530
X73636Y-28970
X73636Y-31530
T7
X41500Y-19500
X71250Y-37500
X43750Y-37500
X73500Y-19500
X73500Y-53000
X41500Y-53000
T0
M30
