%TF.GenerationSoftware,KiCad,Pcbnew,(5.1.8)-1*%
%TF.CreationDate,2021-04-10T01:08:36+02:00*%
%TF.ProjectId,ZX Interface 2021,5a582049-6e74-4657-9266-616365203230,rev?*%
%TF.SameCoordinates,Original*%
%TF.FileFunction,Legend,Bot*%
%TF.FilePolarity,Positive*%
%FSLAX46Y46*%
G04 Gerber Fmt 4.6, Leading zero omitted, Abs format (unit mm)*
G04 Created by KiCad (PCBNEW (5.1.8)-1) date 2021-04-10 01:08:36*
%MOMM*%
%LPD*%
G01*
G04 APERTURE LIST*
%ADD10C,0.100000*%
%ADD11C,0.120000*%
%ADD12C,0.150000*%
%ADD13C,0.300000*%
G04 APERTURE END LIST*
D10*
X188047142Y-92639523D02*
X188047142Y-92906190D01*
X187628095Y-92906190D02*
X188428095Y-92906190D01*
X188428095Y-92525238D01*
X188428095Y-92068095D02*
X188428095Y-91915714D01*
X188390000Y-91839523D01*
X188313809Y-91763333D01*
X188161428Y-91725238D01*
X187894761Y-91725238D01*
X187742380Y-91763333D01*
X187666190Y-91839523D01*
X187628095Y-91915714D01*
X187628095Y-92068095D01*
X187666190Y-92144285D01*
X187742380Y-92220476D01*
X187894761Y-92258571D01*
X188161428Y-92258571D01*
X188313809Y-92220476D01*
X188390000Y-92144285D01*
X188428095Y-92068095D01*
X187628095Y-90925238D02*
X188009047Y-91191904D01*
X187628095Y-91382380D02*
X188428095Y-91382380D01*
X188428095Y-91077619D01*
X188390000Y-91001428D01*
X188351904Y-90963333D01*
X188275714Y-90925238D01*
X188161428Y-90925238D01*
X188085238Y-90963333D01*
X188047142Y-91001428D01*
X188009047Y-91077619D01*
X188009047Y-91382380D01*
X187704285Y-90125238D02*
X187666190Y-90163333D01*
X187628095Y-90277619D01*
X187628095Y-90353809D01*
X187666190Y-90468095D01*
X187742380Y-90544285D01*
X187818571Y-90582380D01*
X187970952Y-90620476D01*
X188085238Y-90620476D01*
X188237619Y-90582380D01*
X188313809Y-90544285D01*
X188390000Y-90468095D01*
X188428095Y-90353809D01*
X188428095Y-90277619D01*
X188390000Y-90163333D01*
X188351904Y-90125238D01*
X188047142Y-89782380D02*
X188047142Y-89515714D01*
X187628095Y-89401428D02*
X187628095Y-89782380D01*
X188428095Y-89782380D01*
X188428095Y-89401428D01*
X188047142Y-88182380D02*
X188009047Y-88068095D01*
X187970952Y-88030000D01*
X187894761Y-87991904D01*
X187780476Y-87991904D01*
X187704285Y-88030000D01*
X187666190Y-88068095D01*
X187628095Y-88144285D01*
X187628095Y-88449047D01*
X188428095Y-88449047D01*
X188428095Y-88182380D01*
X188390000Y-88106190D01*
X188351904Y-88068095D01*
X188275714Y-88030000D01*
X188199523Y-88030000D01*
X188123333Y-88068095D01*
X188085238Y-88106190D01*
X188047142Y-88182380D01*
X188047142Y-88449047D01*
X187856666Y-87687142D02*
X187856666Y-87306190D01*
X187628095Y-87763333D02*
X188428095Y-87496666D01*
X187628095Y-87230000D01*
X187628095Y-86544285D02*
X187628095Y-87001428D01*
X187628095Y-86772857D02*
X188428095Y-86772857D01*
X188313809Y-86849047D01*
X188237619Y-86925238D01*
X188199523Y-87001428D01*
X188161428Y-85858571D02*
X187628095Y-85858571D01*
X188466190Y-86049047D02*
X187894761Y-86239523D01*
X187894761Y-85744285D01*
X187628095Y-84830000D02*
X188428095Y-84830000D01*
X188047142Y-84830000D02*
X188047142Y-84372857D01*
X187628095Y-84372857D02*
X188428095Y-84372857D01*
X187628095Y-83991904D02*
X188428095Y-83991904D01*
X188390000Y-83191904D02*
X188428095Y-83268095D01*
X188428095Y-83382380D01*
X188390000Y-83496666D01*
X188313809Y-83572857D01*
X188237619Y-83610952D01*
X188085238Y-83649047D01*
X187970952Y-83649047D01*
X187818571Y-83610952D01*
X187742380Y-83572857D01*
X187666190Y-83496666D01*
X187628095Y-83382380D01*
X187628095Y-83306190D01*
X187666190Y-83191904D01*
X187704285Y-83153809D01*
X187970952Y-83153809D01*
X187970952Y-83306190D01*
X187628095Y-82810952D02*
X188428095Y-82810952D01*
X188047142Y-82810952D02*
X188047142Y-82353809D01*
X187628095Y-82353809D02*
X188428095Y-82353809D01*
X186023333Y-92430000D02*
X186061428Y-92468095D01*
X186175714Y-92544285D01*
X186251904Y-92582380D01*
X186366190Y-92620476D01*
X186556666Y-92658571D01*
X186709047Y-92658571D01*
X186899523Y-92620476D01*
X187013809Y-92582380D01*
X187090000Y-92544285D01*
X187204285Y-92468095D01*
X187242380Y-92430000D01*
X187128095Y-92201428D02*
X186328095Y-92010952D01*
X186899523Y-91858571D01*
X186328095Y-91706190D01*
X187128095Y-91515714D01*
X186328095Y-91210952D02*
X187128095Y-91210952D01*
X186747142Y-91210952D02*
X186747142Y-90753809D01*
X186328095Y-90753809D02*
X187128095Y-90753809D01*
X186747142Y-90372857D02*
X186747142Y-90106190D01*
X186328095Y-89991904D02*
X186328095Y-90372857D01*
X187128095Y-90372857D01*
X187128095Y-89991904D01*
X186328095Y-89649047D02*
X187128095Y-89649047D01*
X186328095Y-89191904D01*
X187128095Y-89191904D01*
X186747142Y-87934761D02*
X186709047Y-87820476D01*
X186670952Y-87782380D01*
X186594761Y-87744285D01*
X186480476Y-87744285D01*
X186404285Y-87782380D01*
X186366190Y-87820476D01*
X186328095Y-87896666D01*
X186328095Y-88201428D01*
X187128095Y-88201428D01*
X187128095Y-87934761D01*
X187090000Y-87858571D01*
X187051904Y-87820476D01*
X186975714Y-87782380D01*
X186899523Y-87782380D01*
X186823333Y-87820476D01*
X186785238Y-87858571D01*
X186747142Y-87934761D01*
X186747142Y-88201428D01*
X187128095Y-87249047D02*
X187128095Y-87096666D01*
X187090000Y-87020476D01*
X187013809Y-86944285D01*
X186861428Y-86906190D01*
X186594761Y-86906190D01*
X186442380Y-86944285D01*
X186366190Y-87020476D01*
X186328095Y-87096666D01*
X186328095Y-87249047D01*
X186366190Y-87325238D01*
X186442380Y-87401428D01*
X186594761Y-87439523D01*
X186861428Y-87439523D01*
X187013809Y-87401428D01*
X187090000Y-87325238D01*
X187128095Y-87249047D01*
X187128095Y-86410952D02*
X187128095Y-86258571D01*
X187090000Y-86182380D01*
X187013809Y-86106190D01*
X186861428Y-86068095D01*
X186594761Y-86068095D01*
X186442380Y-86106190D01*
X186366190Y-86182380D01*
X186328095Y-86258571D01*
X186328095Y-86410952D01*
X186366190Y-86487142D01*
X186442380Y-86563333D01*
X186594761Y-86601428D01*
X186861428Y-86601428D01*
X187013809Y-86563333D01*
X187090000Y-86487142D01*
X187128095Y-86410952D01*
X187128095Y-85839523D02*
X187128095Y-85382380D01*
X186328095Y-85610952D02*
X187128095Y-85610952D01*
X186328095Y-84506190D02*
X187128095Y-84506190D01*
X186328095Y-84049047D01*
X187128095Y-84049047D01*
X187128095Y-83515714D02*
X187128095Y-83363333D01*
X187090000Y-83287142D01*
X187013809Y-83210952D01*
X186861428Y-83172857D01*
X186594761Y-83172857D01*
X186442380Y-83210952D01*
X186366190Y-83287142D01*
X186328095Y-83363333D01*
X186328095Y-83515714D01*
X186366190Y-83591904D01*
X186442380Y-83668095D01*
X186594761Y-83706190D01*
X186861428Y-83706190D01*
X187013809Y-83668095D01*
X187090000Y-83591904D01*
X187128095Y-83515714D01*
X187128095Y-82944285D02*
X187128095Y-82487142D01*
X186328095Y-82715714D02*
X187128095Y-82715714D01*
X185028095Y-90563333D02*
X185828095Y-90563333D01*
X185828095Y-90258571D01*
X185790000Y-90182380D01*
X185751904Y-90144285D01*
X185675714Y-90106190D01*
X185561428Y-90106190D01*
X185485238Y-90144285D01*
X185447142Y-90182380D01*
X185409047Y-90258571D01*
X185409047Y-90563333D01*
X185828095Y-89610952D02*
X185828095Y-89458571D01*
X185790000Y-89382380D01*
X185713809Y-89306190D01*
X185561428Y-89268095D01*
X185294761Y-89268095D01*
X185142380Y-89306190D01*
X185066190Y-89382380D01*
X185028095Y-89458571D01*
X185028095Y-89610952D01*
X185066190Y-89687142D01*
X185142380Y-89763333D01*
X185294761Y-89801428D01*
X185561428Y-89801428D01*
X185713809Y-89763333D01*
X185790000Y-89687142D01*
X185828095Y-89610952D01*
X185066190Y-88963333D02*
X185028095Y-88849047D01*
X185028095Y-88658571D01*
X185066190Y-88582380D01*
X185104285Y-88544285D01*
X185180476Y-88506190D01*
X185256666Y-88506190D01*
X185332857Y-88544285D01*
X185370952Y-88582380D01*
X185409047Y-88658571D01*
X185447142Y-88810952D01*
X185485238Y-88887142D01*
X185523333Y-88925238D01*
X185599523Y-88963333D01*
X185675714Y-88963333D01*
X185751904Y-88925238D01*
X185790000Y-88887142D01*
X185828095Y-88810952D01*
X185828095Y-88620476D01*
X185790000Y-88506190D01*
X185066190Y-88201428D02*
X185028095Y-88087142D01*
X185028095Y-87896666D01*
X185066190Y-87820476D01*
X185104285Y-87782380D01*
X185180476Y-87744285D01*
X185256666Y-87744285D01*
X185332857Y-87782380D01*
X185370952Y-87820476D01*
X185409047Y-87896666D01*
X185447142Y-88049047D01*
X185485238Y-88125238D01*
X185523333Y-88163333D01*
X185599523Y-88201428D01*
X185675714Y-88201428D01*
X185751904Y-88163333D01*
X185790000Y-88125238D01*
X185828095Y-88049047D01*
X185828095Y-87858571D01*
X185790000Y-87744285D01*
X185028095Y-87401428D02*
X185828095Y-87401428D01*
X185447142Y-86753809D02*
X185409047Y-86639523D01*
X185370952Y-86601428D01*
X185294761Y-86563333D01*
X185180476Y-86563333D01*
X185104285Y-86601428D01*
X185066190Y-86639523D01*
X185028095Y-86715714D01*
X185028095Y-87020476D01*
X185828095Y-87020476D01*
X185828095Y-86753809D01*
X185790000Y-86677619D01*
X185751904Y-86639523D01*
X185675714Y-86601428D01*
X185599523Y-86601428D01*
X185523333Y-86639523D01*
X185485238Y-86677619D01*
X185447142Y-86753809D01*
X185447142Y-87020476D01*
X185028095Y-85839523D02*
X185028095Y-86220476D01*
X185828095Y-86220476D01*
X185447142Y-85572857D02*
X185447142Y-85306190D01*
X185028095Y-85191904D02*
X185028095Y-85572857D01*
X185828095Y-85572857D01*
X185828095Y-85191904D01*
X184723333Y-84925238D02*
X184761428Y-84887142D01*
X184875714Y-84810952D01*
X184951904Y-84772857D01*
X185066190Y-84734761D01*
X185256666Y-84696666D01*
X185409047Y-84696666D01*
X185599523Y-84734761D01*
X185713809Y-84772857D01*
X185790000Y-84810952D01*
X185904285Y-84887142D01*
X185942380Y-84925238D01*
X178708095Y-88664761D02*
X179508095Y-88664761D01*
X179508095Y-88474285D01*
X179470000Y-88360000D01*
X179393809Y-88283809D01*
X179317619Y-88245714D01*
X179165238Y-88207619D01*
X179050952Y-88207619D01*
X178898571Y-88245714D01*
X178822380Y-88283809D01*
X178746190Y-88360000D01*
X178708095Y-88474285D01*
X178708095Y-88664761D01*
X179127142Y-87864761D02*
X179127142Y-87598095D01*
X178708095Y-87483809D02*
X178708095Y-87864761D01*
X179508095Y-87864761D01*
X179508095Y-87483809D01*
X179127142Y-86874285D02*
X179127142Y-87140952D01*
X178708095Y-87140952D02*
X179508095Y-87140952D01*
X179508095Y-86760000D01*
X178936666Y-86493333D02*
X178936666Y-86112380D01*
X178708095Y-86569523D02*
X179508095Y-86302857D01*
X178708095Y-86036190D01*
X179508095Y-85769523D02*
X178860476Y-85769523D01*
X178784285Y-85731428D01*
X178746190Y-85693333D01*
X178708095Y-85617142D01*
X178708095Y-85464761D01*
X178746190Y-85388571D01*
X178784285Y-85350476D01*
X178860476Y-85312380D01*
X179508095Y-85312380D01*
X178708095Y-84550476D02*
X178708095Y-84931428D01*
X179508095Y-84931428D01*
X179508095Y-84398095D02*
X179508095Y-83940952D01*
X178708095Y-84169523D02*
X179508095Y-84169523D01*
D11*
X184150000Y-92075000D02*
X180340000Y-92075000D01*
X180340000Y-87630000D02*
X180340000Y-85090000D01*
X181610000Y-87630000D02*
X180340000Y-87630000D01*
X180340000Y-84455000D02*
X180340000Y-83185000D01*
X180340000Y-92075000D02*
X180340000Y-88265000D01*
X184150000Y-83185000D02*
X184150000Y-92075000D01*
X180340000Y-83185000D02*
X184150000Y-83185000D01*
X180340000Y-85090000D02*
X181610000Y-85090000D01*
D12*
X156038914Y-47395380D02*
X156038914Y-48204904D01*
X155991295Y-48300142D01*
X155943676Y-48347761D01*
X155848438Y-48395380D01*
X155657961Y-48395380D01*
X155562723Y-48347761D01*
X155515104Y-48300142D01*
X155467485Y-48204904D01*
X155467485Y-47395380D01*
X155038914Y-48347761D02*
X154896057Y-48395380D01*
X154657961Y-48395380D01*
X154562723Y-48347761D01*
X154515104Y-48300142D01*
X154467485Y-48204904D01*
X154467485Y-48109666D01*
X154515104Y-48014428D01*
X154562723Y-47966809D01*
X154657961Y-47919190D01*
X154848438Y-47871571D01*
X154943676Y-47823952D01*
X154991295Y-47776333D01*
X155038914Y-47681095D01*
X155038914Y-47585857D01*
X154991295Y-47490619D01*
X154943676Y-47443000D01*
X154848438Y-47395380D01*
X154610342Y-47395380D01*
X154467485Y-47443000D01*
X154038914Y-47871571D02*
X153705580Y-47871571D01*
X153562723Y-48395380D02*
X154038914Y-48395380D01*
X154038914Y-47395380D01*
X153562723Y-47395380D01*
X152181771Y-47395380D02*
X151991295Y-47395380D01*
X151896057Y-47443000D01*
X151800819Y-47538238D01*
X151753200Y-47728714D01*
X151753200Y-48062047D01*
X151800819Y-48252523D01*
X151896057Y-48347761D01*
X151991295Y-48395380D01*
X152181771Y-48395380D01*
X152277009Y-48347761D01*
X152372247Y-48252523D01*
X152419866Y-48062047D01*
X152419866Y-47728714D01*
X152372247Y-47538238D01*
X152277009Y-47443000D01*
X152181771Y-47395380D01*
X151324628Y-48395380D02*
X151324628Y-47395380D01*
X150753200Y-48395380D01*
X150753200Y-47395380D01*
X149800819Y-48395380D02*
X150277009Y-48395380D01*
X150277009Y-47395380D01*
X149277009Y-47919190D02*
X149277009Y-48395380D01*
X149610342Y-47395380D02*
X149277009Y-47919190D01*
X148943676Y-47395380D01*
X147943676Y-47395380D02*
X147705580Y-48395380D01*
X147515104Y-47681095D01*
X147324628Y-48395380D01*
X147086533Y-47395380D01*
X146705580Y-48395380D02*
X146705580Y-47395380D01*
X146372247Y-47395380D02*
X145800819Y-47395380D01*
X146086533Y-48395380D02*
X146086533Y-47395380D01*
X145467485Y-48395380D02*
X145467485Y-47395380D01*
X145467485Y-47871571D02*
X144896057Y-47871571D01*
X144896057Y-48395380D02*
X144896057Y-47395380D01*
X143705580Y-48109666D02*
X143229390Y-48109666D01*
X143800819Y-48395380D02*
X143467485Y-47395380D01*
X143134152Y-48395380D01*
X142943676Y-47395380D02*
X142372247Y-47395380D01*
X142657961Y-48395380D02*
X142657961Y-47395380D01*
X142086533Y-48109666D02*
X141610342Y-48109666D01*
X142181771Y-48395380D02*
X141848438Y-47395380D01*
X141515104Y-48395380D01*
X140610342Y-48395380D02*
X140943676Y-47919190D01*
X141181771Y-48395380D02*
X141181771Y-47395380D01*
X140800819Y-47395380D01*
X140705580Y-47443000D01*
X140657961Y-47490619D01*
X140610342Y-47585857D01*
X140610342Y-47728714D01*
X140657961Y-47823952D01*
X140705580Y-47871571D01*
X140800819Y-47919190D01*
X141181771Y-47919190D01*
X140181771Y-48395380D02*
X140181771Y-47395380D01*
X138943676Y-48395380D02*
X138943676Y-47395380D01*
X138705580Y-47395380D01*
X138562723Y-47443000D01*
X138467485Y-47538238D01*
X138419866Y-47633476D01*
X138372247Y-47823952D01*
X138372247Y-47966809D01*
X138419866Y-48157285D01*
X138467485Y-48252523D01*
X138562723Y-48347761D01*
X138705580Y-48395380D01*
X138943676Y-48395380D01*
X137610342Y-47871571D02*
X137467485Y-47919190D01*
X137419866Y-47966809D01*
X137372247Y-48062047D01*
X137372247Y-48204904D01*
X137419866Y-48300142D01*
X137467485Y-48347761D01*
X137562723Y-48395380D01*
X137943676Y-48395380D01*
X137943676Y-47395380D01*
X137610342Y-47395380D01*
X137515104Y-47443000D01*
X137467485Y-47490619D01*
X137419866Y-47585857D01*
X137419866Y-47681095D01*
X137467485Y-47776333D01*
X137515104Y-47823952D01*
X137610342Y-47871571D01*
X137943676Y-47871571D01*
X136896057Y-48395380D02*
X136705580Y-48395380D01*
X136610342Y-48347761D01*
X136562723Y-48300142D01*
X136467485Y-48157285D01*
X136419866Y-47966809D01*
X136419866Y-47585857D01*
X136467485Y-47490619D01*
X136515104Y-47443000D01*
X136610342Y-47395380D01*
X136800819Y-47395380D01*
X136896057Y-47443000D01*
X136943676Y-47490619D01*
X136991295Y-47585857D01*
X136991295Y-47823952D01*
X136943676Y-47919190D01*
X136896057Y-47966809D01*
X136800819Y-48014428D01*
X136610342Y-48014428D01*
X136515104Y-47966809D01*
X136467485Y-47919190D01*
X136419866Y-47823952D01*
X153467485Y-50045380D02*
X153800819Y-49569190D01*
X154038914Y-50045380D02*
X154038914Y-49045380D01*
X153657961Y-49045380D01*
X153562723Y-49093000D01*
X153515104Y-49140619D01*
X153467485Y-49235857D01*
X153467485Y-49378714D01*
X153515104Y-49473952D01*
X153562723Y-49521571D01*
X153657961Y-49569190D01*
X154038914Y-49569190D01*
X153086533Y-49759666D02*
X152610342Y-49759666D01*
X153181771Y-50045380D02*
X152848438Y-49045380D01*
X152515104Y-50045380D01*
X152181771Y-50045380D02*
X152181771Y-49045380D01*
X151610342Y-50045380D01*
X151610342Y-49045380D01*
X150610342Y-49093000D02*
X150705580Y-49045380D01*
X150848438Y-49045380D01*
X150991295Y-49093000D01*
X151086533Y-49188238D01*
X151134152Y-49283476D01*
X151181771Y-49473952D01*
X151181771Y-49616809D01*
X151134152Y-49807285D01*
X151086533Y-49902523D01*
X150991295Y-49997761D01*
X150848438Y-50045380D01*
X150753200Y-50045380D01*
X150610342Y-49997761D01*
X150562723Y-49950142D01*
X150562723Y-49616809D01*
X150753200Y-49616809D01*
X150134152Y-49521571D02*
X149800819Y-49521571D01*
X149657961Y-50045380D02*
X150134152Y-50045380D01*
X150134152Y-49045380D01*
X149657961Y-49045380D01*
X148277009Y-49045380D02*
X148086533Y-49045380D01*
X147991295Y-49093000D01*
X147896057Y-49188238D01*
X147848438Y-49378714D01*
X147848438Y-49712047D01*
X147896057Y-49902523D01*
X147991295Y-49997761D01*
X148086533Y-50045380D01*
X148277009Y-50045380D01*
X148372247Y-49997761D01*
X148467485Y-49902523D01*
X148515104Y-49712047D01*
X148515104Y-49378714D01*
X148467485Y-49188238D01*
X148372247Y-49093000D01*
X148277009Y-49045380D01*
X147086533Y-49521571D02*
X147419866Y-49521571D01*
X147419866Y-50045380D02*
X147419866Y-49045380D01*
X146943676Y-49045380D01*
X145515104Y-49045380D02*
X145515104Y-49759666D01*
X145562723Y-49902523D01*
X145657961Y-49997761D01*
X145800819Y-50045380D01*
X145896057Y-50045380D01*
X144848438Y-49045380D02*
X144657961Y-49045380D01*
X144562723Y-49093000D01*
X144467485Y-49188238D01*
X144419866Y-49378714D01*
X144419866Y-49712047D01*
X144467485Y-49902523D01*
X144562723Y-49997761D01*
X144657961Y-50045380D01*
X144848438Y-50045380D01*
X144943676Y-49997761D01*
X145038914Y-49902523D01*
X145086533Y-49712047D01*
X145086533Y-49378714D01*
X145038914Y-49188238D01*
X144943676Y-49093000D01*
X144848438Y-49045380D01*
X143800819Y-49569190D02*
X143800819Y-50045380D01*
X144134152Y-49045380D02*
X143800819Y-49569190D01*
X143467485Y-49045380D01*
X143181771Y-49997761D02*
X143038914Y-50045380D01*
X142800819Y-50045380D01*
X142705580Y-49997761D01*
X142657961Y-49950142D01*
X142610342Y-49854904D01*
X142610342Y-49759666D01*
X142657961Y-49664428D01*
X142705580Y-49616809D01*
X142800819Y-49569190D01*
X142991295Y-49521571D01*
X143086533Y-49473952D01*
X143134152Y-49426333D01*
X143181771Y-49331095D01*
X143181771Y-49235857D01*
X143134152Y-49140619D01*
X143086533Y-49093000D01*
X142991295Y-49045380D01*
X142753200Y-49045380D01*
X142610342Y-49093000D01*
X142324628Y-49045380D02*
X141753200Y-49045380D01*
X142038914Y-50045380D02*
X142038914Y-49045380D01*
X141419866Y-50045380D02*
X141419866Y-49045380D01*
X140372247Y-49950142D02*
X140419866Y-49997761D01*
X140562723Y-50045380D01*
X140657961Y-50045380D01*
X140800819Y-49997761D01*
X140896057Y-49902523D01*
X140943676Y-49807285D01*
X140991295Y-49616809D01*
X140991295Y-49473952D01*
X140943676Y-49283476D01*
X140896057Y-49188238D01*
X140800819Y-49093000D01*
X140657961Y-49045380D01*
X140562723Y-49045380D01*
X140419866Y-49093000D01*
X140372247Y-49140619D01*
X139943676Y-50045380D02*
X139943676Y-49045380D01*
X139372247Y-50045380D02*
X139800819Y-49473952D01*
X139372247Y-49045380D02*
X139943676Y-49616809D01*
X138991295Y-49997761D02*
X138848438Y-50045380D01*
X138610342Y-50045380D01*
X138515104Y-49997761D01*
X138467485Y-49950142D01*
X138419866Y-49854904D01*
X138419866Y-49759666D01*
X138467485Y-49664428D01*
X138515104Y-49616809D01*
X138610342Y-49569190D01*
X138800819Y-49521571D01*
X138896057Y-49473952D01*
X138943676Y-49426333D01*
X138991295Y-49331095D01*
X138991295Y-49235857D01*
X138943676Y-49140619D01*
X138896057Y-49093000D01*
X138800819Y-49045380D01*
X138562723Y-49045380D01*
X138419866Y-49093000D01*
D13*
X173990000Y-91440000D02*
X173990000Y-99060000D01*
D10*
X157156190Y-96526190D02*
X157118095Y-96411904D01*
X157118095Y-96221428D01*
X157156190Y-96145238D01*
X157194285Y-96107142D01*
X157270476Y-96069047D01*
X157346666Y-96069047D01*
X157422857Y-96107142D01*
X157460952Y-96145238D01*
X157499047Y-96221428D01*
X157537142Y-96373809D01*
X157575238Y-96450000D01*
X157613333Y-96488095D01*
X157689523Y-96526190D01*
X157765714Y-96526190D01*
X157841904Y-96488095D01*
X157880000Y-96450000D01*
X157918095Y-96373809D01*
X157918095Y-96183333D01*
X157880000Y-96069047D01*
X157118095Y-95345238D02*
X157118095Y-95726190D01*
X157918095Y-95726190D01*
X157918095Y-94926190D02*
X157918095Y-94773809D01*
X157880000Y-94697619D01*
X157803809Y-94621428D01*
X157651428Y-94583333D01*
X157384761Y-94583333D01*
X157232380Y-94621428D01*
X157156190Y-94697619D01*
X157118095Y-94773809D01*
X157118095Y-94926190D01*
X157156190Y-95002380D01*
X157232380Y-95078571D01*
X157384761Y-95116666D01*
X157651428Y-95116666D01*
X157803809Y-95078571D01*
X157880000Y-95002380D01*
X157918095Y-94926190D01*
X157918095Y-94354761D02*
X157918095Y-93897619D01*
X157118095Y-94126190D02*
X157918095Y-94126190D01*
D13*
X158750000Y-99060000D02*
X158750000Y-91440000D01*
X173990000Y-99060000D02*
X158750000Y-99060000D01*
X158750000Y-91440000D02*
X173990000Y-91440000D01*
D11*
X174625000Y-99695000D02*
X117475000Y-99695000D01*
X174625000Y-90805000D02*
X174625000Y-99695000D01*
X117475000Y-90805000D02*
X174625000Y-90805000D01*
X117475000Y-99695000D02*
X117475000Y-90805000D01*
D10*
X144456190Y-96526190D02*
X144418095Y-96411904D01*
X144418095Y-96221428D01*
X144456190Y-96145238D01*
X144494285Y-96107142D01*
X144570476Y-96069047D01*
X144646666Y-96069047D01*
X144722857Y-96107142D01*
X144760952Y-96145238D01*
X144799047Y-96221428D01*
X144837142Y-96373809D01*
X144875238Y-96450000D01*
X144913333Y-96488095D01*
X144989523Y-96526190D01*
X145065714Y-96526190D01*
X145141904Y-96488095D01*
X145180000Y-96450000D01*
X145218095Y-96373809D01*
X145218095Y-96183333D01*
X145180000Y-96069047D01*
X144418095Y-95345238D02*
X144418095Y-95726190D01*
X145218095Y-95726190D01*
X145218095Y-94926190D02*
X145218095Y-94773809D01*
X145180000Y-94697619D01*
X145103809Y-94621428D01*
X144951428Y-94583333D01*
X144684761Y-94583333D01*
X144532380Y-94621428D01*
X144456190Y-94697619D01*
X144418095Y-94773809D01*
X144418095Y-94926190D01*
X144456190Y-95002380D01*
X144532380Y-95078571D01*
X144684761Y-95116666D01*
X144951428Y-95116666D01*
X145103809Y-95078571D01*
X145180000Y-95002380D01*
X145218095Y-94926190D01*
X145218095Y-94354761D02*
X145218095Y-93897619D01*
X144418095Y-94126190D02*
X145218095Y-94126190D01*
D11*
X143510000Y-91440000D02*
X143510000Y-99060000D01*
X146050000Y-99060000D02*
X146050000Y-91440000D01*
D13*
X156210000Y-99060000D02*
X156210000Y-91440000D01*
X118110000Y-99060000D02*
X156210000Y-99060000D01*
X118110000Y-91440000D02*
X118110000Y-99060000D01*
X156210000Y-91440000D02*
X118110000Y-91440000D01*
D10*
X118528809Y-70666904D02*
X118528809Y-71238333D01*
X118566904Y-71352619D01*
X118643095Y-71428809D01*
X118757380Y-71466904D01*
X118833571Y-71466904D01*
X117995476Y-70666904D02*
X117843095Y-70666904D01*
X117766904Y-70705000D01*
X117690714Y-70781190D01*
X117652619Y-70933571D01*
X117652619Y-71200238D01*
X117690714Y-71352619D01*
X117766904Y-71428809D01*
X117843095Y-71466904D01*
X117995476Y-71466904D01*
X118071666Y-71428809D01*
X118147857Y-71352619D01*
X118185952Y-71200238D01*
X118185952Y-70933571D01*
X118147857Y-70781190D01*
X118071666Y-70705000D01*
X117995476Y-70666904D01*
X117157380Y-71085952D02*
X117157380Y-71466904D01*
X117424047Y-70666904D02*
X117157380Y-71085952D01*
X116890714Y-70666904D01*
X116662142Y-71428809D02*
X116547857Y-71466904D01*
X116357380Y-71466904D01*
X116281190Y-71428809D01*
X116243095Y-71390714D01*
X116205000Y-71314523D01*
X116205000Y-71238333D01*
X116243095Y-71162142D01*
X116281190Y-71124047D01*
X116357380Y-71085952D01*
X116509761Y-71047857D01*
X116585952Y-71009761D01*
X116624047Y-70971666D01*
X116662142Y-70895476D01*
X116662142Y-70819285D01*
X116624047Y-70743095D01*
X116585952Y-70705000D01*
X116509761Y-70666904D01*
X116319285Y-70666904D01*
X116205000Y-70705000D01*
X115976428Y-70666904D02*
X115519285Y-70666904D01*
X115747857Y-71466904D02*
X115747857Y-70666904D01*
X115252619Y-71466904D02*
X115252619Y-70666904D01*
X114414523Y-71390714D02*
X114452619Y-71428809D01*
X114566904Y-71466904D01*
X114643095Y-71466904D01*
X114757380Y-71428809D01*
X114833571Y-71352619D01*
X114871666Y-71276428D01*
X114909761Y-71124047D01*
X114909761Y-71009761D01*
X114871666Y-70857380D01*
X114833571Y-70781190D01*
X114757380Y-70705000D01*
X114643095Y-70666904D01*
X114566904Y-70666904D01*
X114452619Y-70705000D01*
X114414523Y-70743095D01*
X114071666Y-71466904D02*
X114071666Y-70666904D01*
X113614523Y-71466904D02*
X113957380Y-71009761D01*
X113614523Y-70666904D02*
X114071666Y-71124047D01*
X119138333Y-72766904D02*
X119138333Y-71966904D01*
X118757380Y-72766904D02*
X118757380Y-71966904D01*
X118300238Y-72766904D01*
X118300238Y-71966904D01*
X118033571Y-71966904D02*
X117576428Y-71966904D01*
X117805000Y-72766904D02*
X117805000Y-71966904D01*
X117309761Y-72347857D02*
X117043095Y-72347857D01*
X116928809Y-72766904D02*
X117309761Y-72766904D01*
X117309761Y-71966904D01*
X116928809Y-71966904D01*
X116128809Y-72766904D02*
X116395476Y-72385952D01*
X116585952Y-72766904D02*
X116585952Y-71966904D01*
X116281190Y-71966904D01*
X116205000Y-72005000D01*
X116166904Y-72043095D01*
X116128809Y-72119285D01*
X116128809Y-72233571D01*
X116166904Y-72309761D01*
X116205000Y-72347857D01*
X116281190Y-72385952D01*
X116585952Y-72385952D01*
X115519285Y-72347857D02*
X115785952Y-72347857D01*
X115785952Y-72766904D02*
X115785952Y-71966904D01*
X115405000Y-71966904D01*
X115138333Y-72538333D02*
X114757380Y-72538333D01*
X115214523Y-72766904D02*
X114947857Y-71966904D01*
X114681190Y-72766904D01*
X113957380Y-72690714D02*
X113995476Y-72728809D01*
X114109761Y-72766904D01*
X114185952Y-72766904D01*
X114300238Y-72728809D01*
X114376428Y-72652619D01*
X114414523Y-72576428D01*
X114452619Y-72424047D01*
X114452619Y-72309761D01*
X114414523Y-72157380D01*
X114376428Y-72081190D01*
X114300238Y-72005000D01*
X114185952Y-71966904D01*
X114109761Y-71966904D01*
X113995476Y-72005000D01*
X113957380Y-72043095D01*
X113614523Y-72347857D02*
X113347857Y-72347857D01*
X113233571Y-72766904D02*
X113614523Y-72766904D01*
X113614523Y-71966904D01*
X113233571Y-71966904D01*
X113087142Y-68694047D02*
X113087142Y-68427380D01*
X112668095Y-68313095D02*
X112668095Y-68694047D01*
X113468095Y-68694047D01*
X113468095Y-68313095D01*
X112668095Y-67970238D02*
X113468095Y-67970238D01*
X112668095Y-67513095D01*
X113468095Y-67513095D01*
X112896666Y-67170238D02*
X112896666Y-66789285D01*
X112668095Y-67246428D02*
X113468095Y-66979761D01*
X112668095Y-66713095D01*
X113087142Y-66179761D02*
X113049047Y-66065476D01*
X113010952Y-66027380D01*
X112934761Y-65989285D01*
X112820476Y-65989285D01*
X112744285Y-66027380D01*
X112706190Y-66065476D01*
X112668095Y-66141666D01*
X112668095Y-66446428D01*
X113468095Y-66446428D01*
X113468095Y-66179761D01*
X113430000Y-66103571D01*
X113391904Y-66065476D01*
X113315714Y-66027380D01*
X113239523Y-66027380D01*
X113163333Y-66065476D01*
X113125238Y-66103571D01*
X113087142Y-66179761D01*
X113087142Y-66446428D01*
X112668095Y-65265476D02*
X112668095Y-65646428D01*
X113468095Y-65646428D01*
X113087142Y-64998809D02*
X113087142Y-64732142D01*
X112668095Y-64617857D02*
X112668095Y-64998809D01*
X113468095Y-64998809D01*
X113468095Y-64617857D01*
D11*
X114300000Y-64770000D02*
X114300000Y-60960000D01*
X114300000Y-65405000D02*
X115570000Y-65405000D01*
X114300000Y-67945000D02*
X114300000Y-65405000D01*
X115570000Y-67945000D02*
X114300000Y-67945000D01*
X114300000Y-69850000D02*
X114300000Y-68580000D01*
X118110000Y-69850000D02*
X114300000Y-69850000D01*
X118110000Y-60960000D02*
X118110000Y-69850000D01*
X114300000Y-60960000D02*
X118110000Y-60960000D01*
D13*
X128010714Y-128083571D02*
X127010714Y-128083571D01*
X128010714Y-129583571D01*
X127010714Y-129583571D01*
X126582142Y-128083571D02*
X125582142Y-129583571D01*
X125582142Y-128083571D02*
X126582142Y-129583571D01*
X123867857Y-129583571D02*
X123867857Y-128083571D01*
X123153571Y-128583571D02*
X123153571Y-129583571D01*
X123153571Y-128726428D02*
X123082142Y-128655000D01*
X122939285Y-128583571D01*
X122725000Y-128583571D01*
X122582142Y-128655000D01*
X122510714Y-128797857D01*
X122510714Y-129583571D01*
X122010714Y-128583571D02*
X121439285Y-128583571D01*
X121796428Y-128083571D02*
X121796428Y-129369285D01*
X121725000Y-129512142D01*
X121582142Y-129583571D01*
X121439285Y-129583571D01*
X120367857Y-129512142D02*
X120510714Y-129583571D01*
X120796428Y-129583571D01*
X120939285Y-129512142D01*
X121010714Y-129369285D01*
X121010714Y-128797857D01*
X120939285Y-128655000D01*
X120796428Y-128583571D01*
X120510714Y-128583571D01*
X120367857Y-128655000D01*
X120296428Y-128797857D01*
X120296428Y-128940714D01*
X121010714Y-129083571D01*
X119653571Y-129583571D02*
X119653571Y-128583571D01*
X119653571Y-128869285D02*
X119582142Y-128726428D01*
X119510714Y-128655000D01*
X119367857Y-128583571D01*
X119225000Y-128583571D01*
X118939285Y-128583571D02*
X118367857Y-128583571D01*
X118725000Y-129583571D02*
X118725000Y-128297857D01*
X118653571Y-128155000D01*
X118510714Y-128083571D01*
X118367857Y-128083571D01*
X117225000Y-129583571D02*
X117225000Y-128797857D01*
X117296428Y-128655000D01*
X117439285Y-128583571D01*
X117725000Y-128583571D01*
X117867857Y-128655000D01*
X117225000Y-129512142D02*
X117367857Y-129583571D01*
X117725000Y-129583571D01*
X117867857Y-129512142D01*
X117939285Y-129369285D01*
X117939285Y-129226428D01*
X117867857Y-129083571D01*
X117725000Y-129012142D01*
X117367857Y-129012142D01*
X117225000Y-128940714D01*
X115867857Y-129512142D02*
X116010714Y-129583571D01*
X116296428Y-129583571D01*
X116439285Y-129512142D01*
X116510714Y-129440714D01*
X116582142Y-129297857D01*
X116582142Y-128869285D01*
X116510714Y-128726428D01*
X116439285Y-128655000D01*
X116296428Y-128583571D01*
X116010714Y-128583571D01*
X115867857Y-128655000D01*
X114653571Y-129512142D02*
X114796428Y-129583571D01*
X115082142Y-129583571D01*
X115225000Y-129512142D01*
X115296428Y-129369285D01*
X115296428Y-128797857D01*
X115225000Y-128655000D01*
X115082142Y-128583571D01*
X114796428Y-128583571D01*
X114653571Y-128655000D01*
X114582142Y-128797857D01*
X114582142Y-128940714D01*
X115296428Y-129083571D01*
X112867857Y-128226428D02*
X112796428Y-128155000D01*
X112653571Y-128083571D01*
X112296428Y-128083571D01*
X112153571Y-128155000D01*
X112082142Y-128226428D01*
X112010714Y-128369285D01*
X112010714Y-128512142D01*
X112082142Y-128726428D01*
X112939285Y-129583571D01*
X112010714Y-129583571D01*
X111367857Y-129440714D02*
X111296428Y-129512142D01*
X111367857Y-129583571D01*
X111439285Y-129512142D01*
X111367857Y-129440714D01*
X111367857Y-129583571D01*
X110367857Y-128083571D02*
X110225000Y-128083571D01*
X110082142Y-128155000D01*
X110010714Y-128226428D01*
X109939285Y-128369285D01*
X109867857Y-128655000D01*
X109867857Y-129012142D01*
X109939285Y-129297857D01*
X110010714Y-129440714D01*
X110082142Y-129512142D01*
X110225000Y-129583571D01*
X110367857Y-129583571D01*
X110510714Y-129512142D01*
X110582142Y-129440714D01*
X110653571Y-129297857D01*
X110725000Y-129012142D01*
X110725000Y-128655000D01*
X110653571Y-128369285D01*
X110582142Y-128226428D01*
X110510714Y-128155000D01*
X110367857Y-128083571D01*
X109296428Y-128226428D02*
X109225000Y-128155000D01*
X109082142Y-128083571D01*
X108725000Y-128083571D01*
X108582142Y-128155000D01*
X108510714Y-128226428D01*
X108439285Y-128369285D01*
X108439285Y-128512142D01*
X108510714Y-128726428D01*
X109367857Y-129583571D01*
X108439285Y-129583571D01*
X107010714Y-129583571D02*
X107867857Y-129583571D01*
X107439285Y-129583571D02*
X107439285Y-128083571D01*
X107582142Y-128297857D01*
X107725000Y-128440714D01*
X107867857Y-128512142D01*
D12*
X122475000Y-134882380D02*
X122951190Y-134882380D01*
X122951190Y-133882380D01*
X122141666Y-134882380D02*
X122141666Y-134215714D01*
X122141666Y-133882380D02*
X122189285Y-133930000D01*
X122141666Y-133977619D01*
X122094047Y-133930000D01*
X122141666Y-133882380D01*
X122141666Y-133977619D01*
X121236904Y-134834761D02*
X121332142Y-134882380D01*
X121522619Y-134882380D01*
X121617857Y-134834761D01*
X121665476Y-134787142D01*
X121713095Y-134691904D01*
X121713095Y-134406190D01*
X121665476Y-134310952D01*
X121617857Y-134263333D01*
X121522619Y-134215714D01*
X121332142Y-134215714D01*
X121236904Y-134263333D01*
X120427380Y-134834761D02*
X120522619Y-134882380D01*
X120713095Y-134882380D01*
X120808333Y-134834761D01*
X120855952Y-134739523D01*
X120855952Y-134358571D01*
X120808333Y-134263333D01*
X120713095Y-134215714D01*
X120522619Y-134215714D01*
X120427380Y-134263333D01*
X120379761Y-134358571D01*
X120379761Y-134453809D01*
X120855952Y-134549047D01*
X119951190Y-134215714D02*
X119951190Y-134882380D01*
X119951190Y-134310952D02*
X119903571Y-134263333D01*
X119808333Y-134215714D01*
X119665476Y-134215714D01*
X119570238Y-134263333D01*
X119522619Y-134358571D01*
X119522619Y-134882380D01*
X119094047Y-134834761D02*
X118998809Y-134882380D01*
X118808333Y-134882380D01*
X118713095Y-134834761D01*
X118665476Y-134739523D01*
X118665476Y-134691904D01*
X118713095Y-134596666D01*
X118808333Y-134549047D01*
X118951190Y-134549047D01*
X119046428Y-134501428D01*
X119094047Y-134406190D01*
X119094047Y-134358571D01*
X119046428Y-134263333D01*
X118951190Y-134215714D01*
X118808333Y-134215714D01*
X118713095Y-134263333D01*
X117855952Y-134834761D02*
X117951190Y-134882380D01*
X118141666Y-134882380D01*
X118236904Y-134834761D01*
X118284523Y-134739523D01*
X118284523Y-134358571D01*
X118236904Y-134263333D01*
X118141666Y-134215714D01*
X117951190Y-134215714D01*
X117855952Y-134263333D01*
X117808333Y-134358571D01*
X117808333Y-134453809D01*
X118284523Y-134549047D01*
X116951190Y-134882380D02*
X116951190Y-133882380D01*
X116951190Y-134834761D02*
X117046428Y-134882380D01*
X117236904Y-134882380D01*
X117332142Y-134834761D01*
X117379761Y-134787142D01*
X117427380Y-134691904D01*
X117427380Y-134406190D01*
X117379761Y-134310952D01*
X117332142Y-134263333D01*
X117236904Y-134215714D01*
X117046428Y-134215714D01*
X116951190Y-134263333D01*
X115284523Y-134215714D02*
X115284523Y-134882380D01*
X115713095Y-134215714D02*
X115713095Y-134739523D01*
X115665476Y-134834761D01*
X115570238Y-134882380D01*
X115427380Y-134882380D01*
X115332142Y-134834761D01*
X115284523Y-134787142D01*
X114808333Y-134215714D02*
X114808333Y-134882380D01*
X114808333Y-134310952D02*
X114760714Y-134263333D01*
X114665476Y-134215714D01*
X114522619Y-134215714D01*
X114427380Y-134263333D01*
X114379761Y-134358571D01*
X114379761Y-134882380D01*
X113475000Y-134882380D02*
X113475000Y-133882380D01*
X113475000Y-134834761D02*
X113570238Y-134882380D01*
X113760714Y-134882380D01*
X113855952Y-134834761D01*
X113903571Y-134787142D01*
X113951190Y-134691904D01*
X113951190Y-134406190D01*
X113903571Y-134310952D01*
X113855952Y-134263333D01*
X113760714Y-134215714D01*
X113570238Y-134215714D01*
X113475000Y-134263333D01*
X112617857Y-134834761D02*
X112713095Y-134882380D01*
X112903571Y-134882380D01*
X112998809Y-134834761D01*
X113046428Y-134739523D01*
X113046428Y-134358571D01*
X112998809Y-134263333D01*
X112903571Y-134215714D01*
X112713095Y-134215714D01*
X112617857Y-134263333D01*
X112570238Y-134358571D01*
X112570238Y-134453809D01*
X113046428Y-134549047D01*
X112141666Y-134882380D02*
X112141666Y-134215714D01*
X112141666Y-134406190D02*
X112094047Y-134310952D01*
X112046428Y-134263333D01*
X111951190Y-134215714D01*
X111855952Y-134215714D01*
X122665476Y-136437142D02*
X122713095Y-136484761D01*
X122855952Y-136532380D01*
X122951190Y-136532380D01*
X123094047Y-136484761D01*
X123189285Y-136389523D01*
X123236904Y-136294285D01*
X123284523Y-136103809D01*
X123284523Y-135960952D01*
X123236904Y-135770476D01*
X123189285Y-135675238D01*
X123094047Y-135580000D01*
X122951190Y-135532380D01*
X122855952Y-135532380D01*
X122713095Y-135580000D01*
X122665476Y-135627619D01*
X122236904Y-136008571D02*
X121903571Y-136008571D01*
X121760714Y-136532380D02*
X122236904Y-136532380D01*
X122236904Y-135532380D01*
X121760714Y-135532380D01*
X120760714Y-136532380D02*
X121094047Y-136056190D01*
X121332142Y-136532380D02*
X121332142Y-135532380D01*
X120951190Y-135532380D01*
X120855952Y-135580000D01*
X120808333Y-135627619D01*
X120760714Y-135722857D01*
X120760714Y-135865714D01*
X120808333Y-135960952D01*
X120855952Y-136008571D01*
X120951190Y-136056190D01*
X121332142Y-136056190D01*
X120332142Y-136532380D02*
X120332142Y-135532380D01*
X119760714Y-136532380D01*
X119760714Y-135532380D01*
X118332142Y-135532380D02*
X118141666Y-135532380D01*
X118046428Y-135580000D01*
X117951190Y-135675238D01*
X117903571Y-135865714D01*
X117903571Y-136199047D01*
X117951190Y-136389523D01*
X118046428Y-136484761D01*
X118141666Y-136532380D01*
X118332142Y-136532380D01*
X118427380Y-136484761D01*
X118522619Y-136389523D01*
X118570238Y-136199047D01*
X118570238Y-135865714D01*
X118522619Y-135675238D01*
X118427380Y-135580000D01*
X118332142Y-135532380D01*
X117475000Y-136532380D02*
X117475000Y-135532380D01*
X117475000Y-136008571D02*
X116903571Y-136008571D01*
X116903571Y-136532380D02*
X116903571Y-135532380D01*
X115951190Y-136532380D02*
X116427380Y-136532380D01*
X116427380Y-135532380D01*
X114951190Y-135865714D02*
X114713095Y-136532380D01*
X114475000Y-135865714D01*
X114094047Y-136437142D02*
X114046428Y-136484761D01*
X114094047Y-136532380D01*
X114141666Y-136484761D01*
X114094047Y-136437142D01*
X114094047Y-136532380D01*
X113094047Y-136532380D02*
X113665476Y-136532380D01*
X113379761Y-136532380D02*
X113379761Y-135532380D01*
X113475000Y-135675238D01*
X113570238Y-135770476D01*
X113665476Y-135818095D01*
X112665476Y-136437142D02*
X112617857Y-136484761D01*
X112665476Y-136532380D01*
X112713095Y-136484761D01*
X112665476Y-136437142D01*
X112665476Y-136532380D01*
X112236904Y-135627619D02*
X112189285Y-135580000D01*
X112094047Y-135532380D01*
X111855952Y-135532380D01*
X111760714Y-135580000D01*
X111713095Y-135627619D01*
X111665476Y-135722857D01*
X111665476Y-135818095D01*
X111713095Y-135960952D01*
X112284523Y-136532380D01*
X111665476Y-136532380D01*
X122879761Y-131230714D02*
X122879761Y-132040238D01*
X122927380Y-132135476D01*
X122975000Y-132183095D01*
X123070238Y-132230714D01*
X123213095Y-132230714D01*
X123308333Y-132183095D01*
X122879761Y-131849761D02*
X122975000Y-131897380D01*
X123165476Y-131897380D01*
X123260714Y-131849761D01*
X123308333Y-131802142D01*
X123355952Y-131706904D01*
X123355952Y-131421190D01*
X123308333Y-131325952D01*
X123260714Y-131278333D01*
X123165476Y-131230714D01*
X122975000Y-131230714D01*
X122879761Y-131278333D01*
X122403571Y-131897380D02*
X122403571Y-131230714D01*
X122403571Y-130897380D02*
X122451190Y-130945000D01*
X122403571Y-130992619D01*
X122355952Y-130945000D01*
X122403571Y-130897380D01*
X122403571Y-130992619D01*
X122070238Y-131230714D02*
X121689285Y-131230714D01*
X121927380Y-130897380D02*
X121927380Y-131754523D01*
X121879761Y-131849761D01*
X121784523Y-131897380D01*
X121689285Y-131897380D01*
X121355952Y-131897380D02*
X121355952Y-130897380D01*
X120927380Y-131897380D02*
X120927380Y-131373571D01*
X120975000Y-131278333D01*
X121070238Y-131230714D01*
X121213095Y-131230714D01*
X121308333Y-131278333D01*
X121355952Y-131325952D01*
X120022619Y-131230714D02*
X120022619Y-131897380D01*
X120451190Y-131230714D02*
X120451190Y-131754523D01*
X120403571Y-131849761D01*
X120308333Y-131897380D01*
X120165476Y-131897380D01*
X120070238Y-131849761D01*
X120022619Y-131802142D01*
X119546428Y-131897380D02*
X119546428Y-130897380D01*
X119546428Y-131278333D02*
X119451190Y-131230714D01*
X119260714Y-131230714D01*
X119165476Y-131278333D01*
X119117857Y-131325952D01*
X119070238Y-131421190D01*
X119070238Y-131706904D01*
X119117857Y-131802142D01*
X119165476Y-131849761D01*
X119260714Y-131897380D01*
X119451190Y-131897380D01*
X119546428Y-131849761D01*
X118641666Y-131802142D02*
X118594047Y-131849761D01*
X118641666Y-131897380D01*
X118689285Y-131849761D01*
X118641666Y-131802142D01*
X118641666Y-131897380D01*
X117736904Y-131849761D02*
X117832142Y-131897380D01*
X118022619Y-131897380D01*
X118117857Y-131849761D01*
X118165476Y-131802142D01*
X118213095Y-131706904D01*
X118213095Y-131421190D01*
X118165476Y-131325952D01*
X118117857Y-131278333D01*
X118022619Y-131230714D01*
X117832142Y-131230714D01*
X117736904Y-131278333D01*
X117165476Y-131897380D02*
X117260714Y-131849761D01*
X117308333Y-131802142D01*
X117355952Y-131706904D01*
X117355952Y-131421190D01*
X117308333Y-131325952D01*
X117260714Y-131278333D01*
X117165476Y-131230714D01*
X117022619Y-131230714D01*
X116927380Y-131278333D01*
X116879761Y-131325952D01*
X116832142Y-131421190D01*
X116832142Y-131706904D01*
X116879761Y-131802142D01*
X116927380Y-131849761D01*
X117022619Y-131897380D01*
X117165476Y-131897380D01*
X116403571Y-131897380D02*
X116403571Y-131230714D01*
X116403571Y-131325952D02*
X116355952Y-131278333D01*
X116260714Y-131230714D01*
X116117857Y-131230714D01*
X116022619Y-131278333D01*
X115975000Y-131373571D01*
X115975000Y-131897380D01*
X115975000Y-131373571D02*
X115927380Y-131278333D01*
X115832142Y-131230714D01*
X115689285Y-131230714D01*
X115594047Y-131278333D01*
X115546428Y-131373571D01*
X115546428Y-131897380D01*
X114355952Y-130849761D02*
X115213095Y-132135476D01*
X114165476Y-131230714D02*
X113784523Y-131230714D01*
X114022619Y-130897380D02*
X114022619Y-131754523D01*
X113975000Y-131849761D01*
X113879761Y-131897380D01*
X113784523Y-131897380D01*
X113070238Y-131849761D02*
X113165476Y-131897380D01*
X113355952Y-131897380D01*
X113451190Y-131849761D01*
X113498809Y-131754523D01*
X113498809Y-131373571D01*
X113451190Y-131278333D01*
X113355952Y-131230714D01*
X113165476Y-131230714D01*
X113070238Y-131278333D01*
X113022619Y-131373571D01*
X113022619Y-131468809D01*
X113498809Y-131564047D01*
X112594047Y-131897380D02*
X112594047Y-130897380D01*
X112594047Y-131278333D02*
X112498809Y-131230714D01*
X112308333Y-131230714D01*
X112213095Y-131278333D01*
X112165476Y-131325952D01*
X112117857Y-131421190D01*
X112117857Y-131706904D01*
X112165476Y-131802142D01*
X112213095Y-131849761D01*
X112308333Y-131897380D01*
X112498809Y-131897380D01*
X112594047Y-131849761D01*
X111546428Y-131897380D02*
X111641666Y-131849761D01*
X111689285Y-131754523D01*
X111689285Y-130897380D01*
D11*
%TO.C,Z1*%
X121602500Y-138303000D02*
X121602500Y-146177000D01*
X121285000Y-138303000D02*
X121285000Y-146177000D01*
X121920000Y-146177000D02*
X121920000Y-138303000D01*
X122555000Y-138303000D02*
X122555000Y-146177000D01*
X120967500Y-138303000D02*
X120967500Y-146177000D01*
X123190000Y-138303000D02*
X123190000Y-146177000D01*
X122872500Y-146177000D02*
X122872500Y-138303000D01*
X122237500Y-146177000D02*
X122237500Y-138303000D01*
X120650000Y-146177000D02*
X120650000Y-138303000D01*
X109982000Y-138303000D02*
X182118000Y-138303000D01*
X109982000Y-138303000D02*
X109982000Y-146177000D01*
X182118000Y-146177000D02*
X182118000Y-138303000D01*
%TD*%
M02*
