%TF.GenerationSoftware,KiCad,Pcbnew,(5.1.8)-1*%
%TF.CreationDate,2021-03-23T23:17:42+01:00*%
%TF.ProjectId,ZX Interface 2021,5a582049-6e74-4657-9266-616365203230,rev?*%
%TF.SameCoordinates,Original*%
%TF.FileFunction,Soldermask,Top*%
%TF.FilePolarity,Negative*%
%FSLAX46Y46*%
G04 Gerber Fmt 4.6, Leading zero omitted, Abs format (unit mm)*
G04 Created by KiCad (PCBNEW (5.1.8)-1) date 2021-03-23 23:17:42*
%MOMM*%
%LPD*%
G01*
G04 APERTURE LIST*
%ADD10C,1.700000*%
%ADD11O,1.700000X1.700000*%
%ADD12R,1.700000X1.700000*%
%ADD13C,2.000000*%
%ADD14C,1.600000*%
%ADD15O,1.600000X1.600000*%
%ADD16R,1.600000X2.400000*%
%ADD17O,1.600000X2.400000*%
%ADD18C,5.000000*%
%ADD19R,1.600000X1.600000*%
%ADD20R,1.524000X7.620000*%
%ADD21C,1.200000*%
%ADD22C,5.100000*%
%ADD23R,1.800000X1.800000*%
%ADD24C,1.800000*%
%ADD25C,1.500000*%
%ADD26R,1.500000X1.500000*%
G04 APERTURE END LIST*
D10*
%TO.C,J4*%
X172720000Y-92710000D03*
X170180000Y-92710000D03*
X167640000Y-92710000D03*
X165100000Y-92710000D03*
X162560000Y-92710000D03*
X160020000Y-92710000D03*
X157480000Y-92710000D03*
X154940000Y-92710000D03*
X152400000Y-92710000D03*
X149860000Y-92710000D03*
X147320000Y-92710000D03*
X144780000Y-92710000D03*
X142240000Y-92710000D03*
X139700000Y-92710000D03*
X137160000Y-92710000D03*
X134620000Y-92710000D03*
X132080000Y-92710000D03*
X129540000Y-92710000D03*
X127000000Y-92710000D03*
X124460000Y-92710000D03*
X121920000Y-92710000D03*
D11*
X172720000Y-97790000D03*
X170180000Y-97790000D03*
X167640000Y-97790000D03*
X165100000Y-97790000D03*
X162560000Y-97790000D03*
X160020000Y-97790000D03*
X157480000Y-97790000D03*
X154940000Y-97790000D03*
X152400000Y-97790000D03*
X149860000Y-97790000D03*
X147320000Y-97790000D03*
X144780000Y-97790000D03*
X142240000Y-97790000D03*
X139700000Y-97790000D03*
X137160000Y-97790000D03*
X134620000Y-97790000D03*
X132080000Y-97790000D03*
X129540000Y-97790000D03*
X127000000Y-97790000D03*
X124460000Y-97790000D03*
X121920000Y-97790000D03*
D12*
X119380000Y-97790000D03*
D11*
X119380000Y-92710000D03*
%TD*%
D13*
%TO.C,SW1*%
X187035000Y-80085000D03*
X182535000Y-80085000D03*
X187035000Y-73585000D03*
X182535000Y-73585000D03*
%TD*%
D14*
%TO.C,R11*%
X186690000Y-99060000D03*
D15*
X186690000Y-109220000D03*
%TD*%
%TO.C,R12*%
X145415000Y-88265000D03*
D14*
X155575000Y-88265000D03*
%TD*%
%TO.C,C8*%
X160655000Y-127000000D03*
X160655000Y-132000000D03*
%TD*%
D16*
%TO.C,U8*%
X164465000Y-133350000D03*
D17*
X182245000Y-125730000D03*
X167005000Y-133350000D03*
X179705000Y-125730000D03*
X169545000Y-133350000D03*
X177165000Y-125730000D03*
X172085000Y-133350000D03*
X174625000Y-125730000D03*
X174625000Y-133350000D03*
X172085000Y-125730000D03*
X177165000Y-133350000D03*
X169545000Y-125730000D03*
X179705000Y-133350000D03*
X167005000Y-125730000D03*
X182245000Y-133350000D03*
X164465000Y-125730000D03*
%TD*%
D14*
%TO.C,C7*%
X160655000Y-116205000D03*
X160655000Y-121205000D03*
%TD*%
D17*
%TO.C,U7*%
X164465000Y-114300000D03*
X182245000Y-121920000D03*
X167005000Y-114300000D03*
X179705000Y-121920000D03*
X169545000Y-114300000D03*
X177165000Y-121920000D03*
X172085000Y-114300000D03*
X174625000Y-121920000D03*
X174625000Y-114300000D03*
X172085000Y-121920000D03*
X177165000Y-114300000D03*
X169545000Y-121920000D03*
X179705000Y-114300000D03*
X167005000Y-121920000D03*
X182245000Y-114300000D03*
D16*
X164465000Y-121920000D03*
%TD*%
D18*
%TO.C,J2*%
X149885000Y-53490000D03*
X174885000Y-53490000D03*
D14*
X166540000Y-54910000D03*
X163770000Y-54910000D03*
X161000000Y-54910000D03*
X158230000Y-54910000D03*
X167925000Y-52070000D03*
X165155000Y-52070000D03*
X162385000Y-52070000D03*
X159615000Y-52070000D03*
D19*
X156845000Y-52070000D03*
%TD*%
D14*
%TO.C,R2*%
X143510000Y-65405000D03*
D15*
X153670000Y-65405000D03*
%TD*%
D20*
%TO.C,Z1*%
X144780000Y-142367000D03*
X147320000Y-142367000D03*
X149860000Y-142367000D03*
X152400000Y-142367000D03*
X162560000Y-142367000D03*
X160020000Y-142367000D03*
X157480000Y-142367000D03*
X154940000Y-142367000D03*
X175260000Y-142367000D03*
X177800000Y-142367000D03*
X180340000Y-142367000D03*
X172720000Y-142367000D03*
X170180000Y-142367000D03*
X167640000Y-142367000D03*
X165100000Y-142367000D03*
X124460000Y-142367000D03*
X127000000Y-142367000D03*
X129540000Y-142367000D03*
X132080000Y-142367000D03*
X142240000Y-142367000D03*
X139700000Y-142367000D03*
X137160000Y-142367000D03*
X134620000Y-142367000D03*
X116840000Y-142367000D03*
X119380000Y-142367000D03*
X114300000Y-142367000D03*
X111760000Y-142367000D03*
%TD*%
D14*
%TO.C,C1*%
X116205000Y-79295000D03*
X116205000Y-74295000D03*
%TD*%
%TO.C,C2*%
X149225000Y-74295000D03*
X149225000Y-79295000D03*
%TD*%
%TO.C,C3*%
X106045000Y-115570000D03*
X106045000Y-120570000D03*
%TD*%
%TO.C,C4*%
X106045000Y-109140000D03*
X106045000Y-104140000D03*
%TD*%
D21*
%TO.C,C5*%
X105664000Y-130175000D03*
X105664000Y-128675000D03*
%TD*%
D14*
%TO.C,C6*%
X155575000Y-109775000D03*
X155575000Y-104775000D03*
%TD*%
D19*
%TO.C,J1*%
X124460000Y-52070000D03*
D14*
X127230000Y-52070000D03*
X130000000Y-52070000D03*
X132770000Y-52070000D03*
X135540000Y-52070000D03*
X125845000Y-54910000D03*
X128615000Y-54910000D03*
X131385000Y-54910000D03*
X134155000Y-54910000D03*
D18*
X142500000Y-53490000D03*
X117500000Y-53490000D03*
%TD*%
D12*
%TO.C,J5*%
X116205000Y-67945000D03*
D11*
X116205000Y-65405000D03*
X116205000Y-62865000D03*
%TD*%
D22*
%TO.C,M1*%
X105410000Y-134620000D03*
%TD*%
%TO.C,M2*%
X186690000Y-134620000D03*
%TD*%
%TO.C,M3*%
X186690000Y-49530000D03*
%TD*%
%TO.C,M5*%
X180975000Y-95250000D03*
%TD*%
%TO.C,M6*%
X111125000Y-95250000D03*
%TD*%
D15*
%TO.C,R1*%
X130810000Y-62230000D03*
D14*
X140970000Y-62230000D03*
%TD*%
%TO.C,R3*%
X153670000Y-62230000D03*
D15*
X143510000Y-62230000D03*
%TD*%
%TO.C,R4*%
X153670000Y-68580000D03*
D14*
X143510000Y-68580000D03*
%TD*%
%TO.C,R5*%
X156210000Y-62230000D03*
D15*
X166370000Y-62230000D03*
%TD*%
D16*
%TO.C,U1*%
X120015000Y-80645000D03*
D17*
X142875000Y-73025000D03*
X122555000Y-80645000D03*
X140335000Y-73025000D03*
X125095000Y-80645000D03*
X137795000Y-73025000D03*
X127635000Y-80645000D03*
X135255000Y-73025000D03*
X130175000Y-80645000D03*
X132715000Y-73025000D03*
X132715000Y-80645000D03*
X130175000Y-73025000D03*
X135255000Y-80645000D03*
X127635000Y-73025000D03*
X137795000Y-80645000D03*
X125095000Y-73025000D03*
X140335000Y-80645000D03*
X122555000Y-73025000D03*
X142875000Y-80645000D03*
X120015000Y-73025000D03*
%TD*%
%TO.C,U2*%
X153035000Y-73025000D03*
X175895000Y-80645000D03*
X155575000Y-73025000D03*
X173355000Y-80645000D03*
X158115000Y-73025000D03*
X170815000Y-80645000D03*
X160655000Y-73025000D03*
X168275000Y-80645000D03*
X163195000Y-73025000D03*
X165735000Y-80645000D03*
X165735000Y-73025000D03*
X163195000Y-80645000D03*
X168275000Y-73025000D03*
X160655000Y-80645000D03*
X170815000Y-73025000D03*
X158115000Y-80645000D03*
X173355000Y-73025000D03*
X155575000Y-80645000D03*
X175895000Y-73025000D03*
D16*
X153035000Y-80645000D03*
%TD*%
%TO.C,U3*%
X109855000Y-121920000D03*
D17*
X125095000Y-114300000D03*
X112395000Y-121920000D03*
X122555000Y-114300000D03*
X114935000Y-121920000D03*
X120015000Y-114300000D03*
X117475000Y-121920000D03*
X117475000Y-114300000D03*
X120015000Y-121920000D03*
X114935000Y-114300000D03*
X122555000Y-121920000D03*
X112395000Y-114300000D03*
X125095000Y-121920000D03*
X109855000Y-114300000D03*
%TD*%
%TO.C,U4*%
X109855000Y-102870000D03*
X125095000Y-110490000D03*
X112395000Y-102870000D03*
X122555000Y-110490000D03*
X114935000Y-102870000D03*
X120015000Y-110490000D03*
X117475000Y-102870000D03*
X117475000Y-110490000D03*
X120015000Y-102870000D03*
X114935000Y-110490000D03*
X122555000Y-102870000D03*
X112395000Y-110490000D03*
X125095000Y-102870000D03*
D16*
X109855000Y-110490000D03*
%TD*%
%TO.C,U6*%
X159385000Y-110490000D03*
D17*
X182245000Y-102870000D03*
X161925000Y-110490000D03*
X179705000Y-102870000D03*
X164465000Y-110490000D03*
X177165000Y-102870000D03*
X167005000Y-110490000D03*
X174625000Y-102870000D03*
X169545000Y-110490000D03*
X172085000Y-102870000D03*
X172085000Y-110490000D03*
X169545000Y-102870000D03*
X174625000Y-110490000D03*
X167005000Y-102870000D03*
X177165000Y-110490000D03*
X164465000Y-102870000D03*
X179705000Y-110490000D03*
X161925000Y-102870000D03*
X182245000Y-110490000D03*
X159385000Y-102870000D03*
%TD*%
D15*
%TO.C,D2*%
X128270000Y-68580000D03*
D19*
X120650000Y-68580000D03*
%TD*%
%TO.C,D3*%
X120650000Y-65405000D03*
D15*
X128270000Y-65405000D03*
%TD*%
%TO.C,D4*%
X132080000Y-65405000D03*
D19*
X139700000Y-65405000D03*
%TD*%
%TO.C,D5*%
X139700000Y-68580000D03*
D15*
X132080000Y-68580000D03*
%TD*%
%TO.C,D6*%
X157480000Y-68580000D03*
D19*
X165100000Y-68580000D03*
%TD*%
%TO.C,D7*%
X165100000Y-65405000D03*
D15*
X157480000Y-65405000D03*
%TD*%
%TO.C,D8*%
X168910000Y-68580000D03*
D19*
X176530000Y-68580000D03*
%TD*%
%TO.C,D9*%
X176530000Y-65532000D03*
D15*
X168910000Y-65532000D03*
%TD*%
%TO.C,D10*%
X168910000Y-62230000D03*
D19*
X176530000Y-62230000D03*
%TD*%
D22*
%TO.C,M4*%
X105410000Y-49530000D03*
%TD*%
D14*
%TO.C,R13*%
X106045000Y-90170000D03*
D15*
X106045000Y-100330000D03*
%TD*%
D13*
%TO.C,SW2*%
X105065000Y-73585000D03*
X109565000Y-73585000D03*
X105065000Y-80085000D03*
X109565000Y-80085000D03*
%TD*%
D23*
%TO.C,D11*%
X184785000Y-57785000D03*
D24*
X184785000Y-55245000D03*
%TD*%
D14*
%TO.C,R14*%
X162560000Y-84455000D03*
D15*
X172720000Y-84455000D03*
%TD*%
D19*
%TO.C,D1*%
X120650000Y-62230000D03*
D15*
X128270000Y-62230000D03*
%TD*%
D25*
%TO.C,Q1*%
X187325000Y-127254000D03*
X187325000Y-124714000D03*
D26*
X187325000Y-129794000D03*
%TD*%
D14*
%TO.C,R15*%
X186690000Y-121920000D03*
D15*
X186690000Y-111760000D03*
%TD*%
%TO.C,D12*%
X120015000Y-84455000D03*
D19*
X127635000Y-84455000D03*
%TD*%
%TO.C,D13*%
X127635000Y-88265000D03*
D15*
X120015000Y-88265000D03*
%TD*%
%TO.C,D14*%
X132715000Y-84455000D03*
D19*
X140335000Y-84455000D03*
%TD*%
%TO.C,D15*%
X132715000Y-88265000D03*
D15*
X140335000Y-88265000D03*
%TD*%
D19*
%TO.C,D16*%
X153035000Y-84455000D03*
D15*
X145415000Y-84455000D03*
%TD*%
D12*
%TO.C,J3*%
X182245000Y-85090000D03*
D11*
X182245000Y-87630000D03*
X182245000Y-90170000D03*
%TD*%
M02*
