%TF.GenerationSoftware,KiCad,Pcbnew,(5.1.8)-1*%
%TF.CreationDate,2021-03-07T18:48:51+01:00*%
%TF.ProjectId,ZX Interface 2021,5a582049-6e74-4657-9266-616365203230,rev?*%
%TF.SameCoordinates,Original*%
%TF.FileFunction,Copper,L1,Top*%
%TF.FilePolarity,Positive*%
%FSLAX46Y46*%
G04 Gerber Fmt 4.6, Leading zero omitted, Abs format (unit mm)*
G04 Created by KiCad (PCBNEW (5.1.8)-1) date 2021-03-07 18:48:51*
%MOMM*%
%LPD*%
G01*
G04 APERTURE LIST*
%TA.AperFunction,ComponentPad*%
%ADD10C,2.000000*%
%TD*%
%TA.AperFunction,ComponentPad*%
%ADD11C,1.600000*%
%TD*%
%TA.AperFunction,ComponentPad*%
%ADD12O,1.600000X1.600000*%
%TD*%
%TA.AperFunction,ComponentPad*%
%ADD13R,1.600000X2.400000*%
%TD*%
%TA.AperFunction,ComponentPad*%
%ADD14O,1.600000X2.400000*%
%TD*%
%TA.AperFunction,ComponentPad*%
%ADD15C,1.700000*%
%TD*%
%TA.AperFunction,ComponentPad*%
%ADD16O,1.700000X1.700000*%
%TD*%
%TA.AperFunction,ComponentPad*%
%ADD17R,1.700000X1.700000*%
%TD*%
%TA.AperFunction,WasherPad*%
%ADD18C,5.000000*%
%TD*%
%TA.AperFunction,ComponentPad*%
%ADD19R,1.600000X1.600000*%
%TD*%
%TA.AperFunction,SMDPad,CuDef*%
%ADD20R,1.524000X7.620000*%
%TD*%
%TA.AperFunction,ComponentPad*%
%ADD21C,1.200000*%
%TD*%
%TA.AperFunction,ComponentPad*%
%ADD22C,3.500000*%
%TD*%
%TA.AperFunction,ViaPad*%
%ADD23C,0.800000*%
%TD*%
%TA.AperFunction,Conductor*%
%ADD24C,0.381000*%
%TD*%
%TA.AperFunction,Conductor*%
%ADD25C,0.250000*%
%TD*%
G04 APERTURE END LIST*
D10*
%TO.P,SW1,2*%
%TO.N,Net-(R11-Pad1)*%
X187035000Y-80085000D03*
%TO.P,SW1,1*%
%TO.N,GND*%
X182535000Y-80085000D03*
%TO.P,SW1,2*%
%TO.N,Net-(R11-Pad1)*%
X187035000Y-73585000D03*
%TO.P,SW1,1*%
%TO.N,GND*%
X182535000Y-73585000D03*
%TD*%
D11*
%TO.P,R11,1*%
%TO.N,Net-(R11-Pad1)*%
X187071000Y-85090000D03*
D12*
%TO.P,R11,2*%
%TO.N,/~RESET*%
X187071000Y-95250000D03*
%TD*%
%TO.P,R12,2*%
%TO.N,EXROM*%
X145415000Y-88265000D03*
D11*
%TO.P,R12,1*%
%TO.N,GND*%
X155575000Y-88265000D03*
%TD*%
%TO.P,R9,1*%
%TO.N,Net-(R9-Pad1)*%
X132715000Y-88265000D03*
D12*
%TO.P,R9,2*%
%TO.N,/D1*%
X142875000Y-88265000D03*
%TD*%
D11*
%TO.P,C8,1*%
%TO.N,VCC*%
X160655000Y-127000000D03*
%TO.P,C8,2*%
%TO.N,GND*%
X160655000Y-132000000D03*
%TD*%
D13*
%TO.P,U8,1*%
%TO.N,/A7*%
X164465000Y-133350000D03*
D14*
%TO.P,U8,9*%
%TO.N,N/C*%
X182245000Y-125730000D03*
%TO.P,U8,2*%
%TO.N,/A6*%
X167005000Y-133350000D03*
%TO.P,U8,10*%
%TO.N,N/C*%
X179705000Y-125730000D03*
%TO.P,U8,3*%
%TO.N,/A5*%
X169545000Y-133350000D03*
%TO.P,U8,11*%
%TO.N,OUT_63*%
X177165000Y-125730000D03*
%TO.P,U8,4*%
%TO.N,/~WR*%
X172085000Y-133350000D03*
%TO.P,U8,12*%
%TO.N,N/C*%
X174625000Y-125730000D03*
%TO.P,U8,5*%
%TO.N,/~IORQ*%
X174625000Y-133350000D03*
%TO.P,U8,13*%
%TO.N,N/C*%
X172085000Y-125730000D03*
%TO.P,U8,6*%
%TO.N,/~M1*%
X177165000Y-133350000D03*
%TO.P,U8,14*%
%TO.N,N/C*%
X169545000Y-125730000D03*
%TO.P,U8,7*%
X179705000Y-133350000D03*
%TO.P,U8,15*%
%TO.N,/OUT_31*%
X167005000Y-125730000D03*
%TO.P,U8,8*%
%TO.N,GND*%
X182245000Y-133350000D03*
%TO.P,U8,16*%
%TO.N,VCC*%
X164465000Y-125730000D03*
%TD*%
D11*
%TO.P,C7,1*%
%TO.N,VCC*%
X160655000Y-116205000D03*
%TO.P,C7,2*%
%TO.N,GND*%
X160655000Y-121205000D03*
%TD*%
D14*
%TO.P,U7,16*%
%TO.N,VCC*%
X164465000Y-114300000D03*
%TO.P,U7,8*%
%TO.N,GND*%
X182245000Y-121920000D03*
%TO.P,U7,15*%
%TO.N,Net-(J3-Pad1)*%
X167005000Y-114300000D03*
%TO.P,U7,7*%
%TO.N,N/C*%
X179705000Y-121920000D03*
%TO.P,U7,14*%
%TO.N,Net-(J3-Pad4)*%
X169545000Y-114300000D03*
%TO.P,U7,6*%
%TO.N,/~ROMCS*%
X177165000Y-121920000D03*
%TO.P,U7,13*%
%TO.N,/~ROM_2*%
X172085000Y-114300000D03*
%TO.P,U7,5*%
%TO.N,/~MREQ*%
X174625000Y-121920000D03*
%TO.P,U7,12*%
%TO.N,/~ROM_3*%
X174625000Y-114300000D03*
%TO.P,U7,4*%
%TO.N,GND*%
X172085000Y-121920000D03*
%TO.P,U7,11*%
%TO.N,N/C*%
X177165000Y-114300000D03*
%TO.P,U7,3*%
%TO.N,GND*%
X169545000Y-121920000D03*
%TO.P,U7,10*%
%TO.N,N/C*%
X179705000Y-114300000D03*
%TO.P,U7,2*%
%TO.N,/BANK1*%
X167005000Y-121920000D03*
%TO.P,U7,9*%
%TO.N,N/C*%
X182245000Y-114300000D03*
D13*
%TO.P,U7,1*%
%TO.N,/BANK0*%
X164465000Y-121920000D03*
%TD*%
D12*
%TO.P,R10,2*%
%TO.N,/D0*%
X145415000Y-84455000D03*
D11*
%TO.P,R10,1*%
%TO.N,Net-(R10-Pad1)*%
X155575000Y-84455000D03*
%TD*%
D15*
%TO.P,J4,B22*%
%TO.N,GND*%
X172720000Y-97790000D03*
%TO.P,J4,B21*%
%TO.N,/BA18*%
X170180000Y-97790000D03*
%TO.P,J4,B20*%
%TO.N,/BA17*%
X167640000Y-97790000D03*
%TO.P,J4,B19*%
%TO.N,/BA16*%
X165100000Y-97790000D03*
%TO.P,J4,B18*%
%TO.N,/BA15*%
X162560000Y-97790000D03*
%TO.P,J4,B17*%
%TO.N,/BA14*%
X160020000Y-97790000D03*
%TO.P,J4,B16*%
%TO.N,N/C*%
X157480000Y-97790000D03*
%TO.P,J4,B15*%
%TO.N,EXROM*%
X154940000Y-97790000D03*
%TO.P,J4,B14*%
%TO.N,/A12*%
X152400000Y-97790000D03*
%TO.P,J4,B13*%
%TO.N,/A7*%
X149860000Y-97790000D03*
%TO.P,J4,B12*%
%TO.N,/A6*%
X147320000Y-97790000D03*
%TO.P,J4,B11*%
%TO.N,N/C*%
X144780000Y-97790000D03*
%TO.P,J4,B10*%
%TO.N,/A5*%
X142240000Y-97790000D03*
%TO.P,J4,B9*%
%TO.N,/A4*%
X139700000Y-97790000D03*
%TO.P,J4,B8*%
%TO.N,/A3*%
X137160000Y-97790000D03*
%TO.P,J4,B7*%
%TO.N,/A2*%
X134620000Y-97790000D03*
%TO.P,J4,B6*%
%TO.N,/A1*%
X132080000Y-97790000D03*
%TO.P,J4,B5*%
%TO.N,/A0*%
X129540000Y-97790000D03*
%TO.P,J4,B4*%
%TO.N,/D0*%
X127000000Y-97790000D03*
%TO.P,J4,B3*%
%TO.N,/D1*%
X124460000Y-97790000D03*
%TO.P,J4,B2*%
%TO.N,/D2*%
X121920000Y-97790000D03*
D16*
%TO.P,J4,A22*%
%TO.N,OUT_63*%
X172720000Y-92710000D03*
%TO.P,J4,A21*%
%TO.N,/~ROM_3*%
X170180000Y-92710000D03*
%TO.P,J4,A20*%
%TO.N,/~ROM_2*%
X167640000Y-92710000D03*
%TO.P,J4,A19*%
%TO.N,/~ROM_1*%
X165100000Y-92710000D03*
%TO.P,J4,A18*%
%TO.N,/~ROM_0*%
X162560000Y-92710000D03*
%TO.P,J4,A17*%
%TO.N,/~ROM_OE*%
X160020000Y-92710000D03*
%TO.P,J4,A16*%
%TO.N,N/C*%
X157480000Y-92710000D03*
%TO.P,J4,A15*%
%TO.N,VCC*%
X154940000Y-92710000D03*
%TO.P,J4,A14*%
%TO.N,/A15*%
X152400000Y-92710000D03*
%TO.P,J4,A13*%
%TO.N,/A13*%
X149860000Y-92710000D03*
%TO.P,J4,A12*%
%TO.N,/A8*%
X147320000Y-92710000D03*
%TO.P,J4,A11*%
%TO.N,N/C*%
X144780000Y-92710000D03*
%TO.P,J4,A10*%
%TO.N,/A9*%
X142240000Y-92710000D03*
%TO.P,J4,A9*%
%TO.N,/A11*%
X139700000Y-92710000D03*
%TO.P,J4,A8*%
%TO.N,/~MREQ*%
X137160000Y-92710000D03*
%TO.P,J4,A7*%
%TO.N,/A10*%
X134620000Y-92710000D03*
%TO.P,J4,A6*%
%TO.N,/A14*%
X132080000Y-92710000D03*
%TO.P,J4,A5*%
%TO.N,/D7*%
X129540000Y-92710000D03*
%TO.P,J4,A4*%
%TO.N,/D6*%
X127000000Y-92710000D03*
%TO.P,J4,A3*%
%TO.N,/D5*%
X124460000Y-92710000D03*
%TO.P,J4,A2*%
%TO.N,/D4*%
X121920000Y-92710000D03*
%TO.P,J4,A1*%
%TO.N,/D3*%
X119380000Y-92710000D03*
D17*
%TO.P,J4,B1*%
%TO.N,GND*%
X119380000Y-97790000D03*
%TD*%
D18*
%TO.P,J2,*%
%TO.N,*%
X149885000Y-53490000D03*
X174885000Y-53490000D03*
D11*
%TO.P,J2,9*%
%TO.N,N/C*%
X166540000Y-54910000D03*
%TO.P,J2,8*%
%TO.N,Net-(J2-Pad8)*%
X163770000Y-54910000D03*
%TO.P,J2,7*%
%TO.N,N/C*%
X161000000Y-54910000D03*
%TO.P,J2,6*%
%TO.N,Net-(D7-Pad1)*%
X158230000Y-54910000D03*
%TO.P,J2,5*%
%TO.N,N/C*%
X167925000Y-52070000D03*
%TO.P,J2,4*%
%TO.N,Net-(D10-Pad1)*%
X165155000Y-52070000D03*
%TO.P,J2,3*%
%TO.N,Net-(D9-Pad1)*%
X162385000Y-52070000D03*
%TO.P,J2,2*%
%TO.N,Net-(D8-Pad1)*%
X159615000Y-52070000D03*
D19*
%TO.P,J2,1*%
%TO.N,Net-(D6-Pad1)*%
X156845000Y-52070000D03*
%TD*%
D11*
%TO.P,R2,1*%
%TO.N,VCC*%
X143510000Y-65405000D03*
D12*
%TO.P,R2,2*%
%TO.N,Net-(D2-Pad2)*%
X153670000Y-65405000D03*
%TD*%
D20*
%TO.P,Z1,A14*%
%TO.N,/~NMI*%
X144780000Y-142367000D03*
%TO.P,Z1,A15*%
%TO.N,N/C*%
X147320000Y-142367000D03*
%TO.P,Z1,A16*%
%TO.N,/~MREQ*%
X149860000Y-142367000D03*
%TO.P,Z1,A17*%
%TO.N,/~IORQ*%
X152400000Y-142367000D03*
%TO.P,Z1,A21*%
%TO.N,N/C*%
X162560000Y-142367000D03*
%TO.P,Z1,A20*%
X160020000Y-142367000D03*
%TO.P,Z1,A19*%
%TO.N,/~WR*%
X157480000Y-142367000D03*
%TO.P,Z1,A18*%
%TO.N,/~RD*%
X154940000Y-142367000D03*
%TO.P,Z1,A26*%
%TO.N,/A8*%
X175260000Y-142367000D03*
%TO.P,Z1,A27*%
%TO.N,/A10*%
X177800000Y-142367000D03*
%TO.P,Z1,A28*%
%TO.N,N/C*%
X180340000Y-142367000D03*
%TO.P,Z1,A25*%
X172720000Y-142367000D03*
%TO.P,Z1,A24*%
%TO.N,/~M1*%
X170180000Y-142367000D03*
%TO.P,Z1,A23*%
%TO.N,N/C*%
X167640000Y-142367000D03*
%TO.P,Z1,A22*%
X165100000Y-142367000D03*
%TO.P,Z1,A6*%
%TO.N,/D0*%
X124460000Y-142367000D03*
%TO.P,Z1,A7*%
%TO.N,/D1*%
X127000000Y-142367000D03*
%TO.P,Z1,A8*%
%TO.N,/D2*%
X129540000Y-142367000D03*
%TO.P,Z1,A9*%
%TO.N,/D6*%
X132080000Y-142367000D03*
%TO.P,Z1,A13*%
%TO.N,N/C*%
X142240000Y-142367000D03*
%TO.P,Z1,A12*%
%TO.N,/D4*%
X139700000Y-142367000D03*
%TO.P,Z1,A11*%
%TO.N,/D3*%
X137160000Y-142367000D03*
%TO.P,Z1,A10*%
%TO.N,/D5*%
X134620000Y-142367000D03*
%TO.P,Z1,A3*%
%TO.N,/D7*%
X116840000Y-142367000D03*
%TO.P,Z1,A4*%
%TO.N,N/C*%
X119380000Y-142367000D03*
%TO.P,Z1,A2*%
%TO.N,/A13*%
X114300000Y-142367000D03*
%TO.P,Z1,A1*%
%TO.N,/A15*%
X111760000Y-142367000D03*
%TD*%
D11*
%TO.P,C1,2*%
%TO.N,GND*%
X116205000Y-79295000D03*
%TO.P,C1,1*%
%TO.N,VCC*%
X116205000Y-74295000D03*
%TD*%
%TO.P,C2,1*%
%TO.N,VCC*%
X149225000Y-74295000D03*
%TO.P,C2,2*%
%TO.N,GND*%
X149225000Y-79295000D03*
%TD*%
%TO.P,C3,1*%
%TO.N,VCC*%
X106045000Y-115570000D03*
%TO.P,C3,2*%
%TO.N,GND*%
X106045000Y-120570000D03*
%TD*%
%TO.P,C4,2*%
%TO.N,GND*%
X106045000Y-109140000D03*
%TO.P,C4,1*%
%TO.N,VCC*%
X106045000Y-104140000D03*
%TD*%
D21*
%TO.P,C5,1*%
%TO.N,VCC*%
X104140000Y-128270000D03*
%TO.P,C5,2*%
%TO.N,GND*%
X105640000Y-128270000D03*
%TD*%
D11*
%TO.P,C6,2*%
%TO.N,GND*%
X155575000Y-109775000D03*
%TO.P,C6,1*%
%TO.N,VCC*%
X155575000Y-104775000D03*
%TD*%
D19*
%TO.P,J1,1*%
%TO.N,Net-(D1-Pad1)*%
X124460000Y-52070000D03*
D11*
%TO.P,J1,2*%
%TO.N,Net-(D3-Pad1)*%
X127230000Y-52070000D03*
%TO.P,J1,3*%
%TO.N,Net-(D4-Pad1)*%
X130000000Y-52070000D03*
%TO.P,J1,4*%
%TO.N,Net-(D5-Pad1)*%
X132770000Y-52070000D03*
%TO.P,J1,5*%
%TO.N,N/C*%
X135540000Y-52070000D03*
%TO.P,J1,6*%
%TO.N,Net-(D2-Pad1)*%
X125845000Y-54910000D03*
%TO.P,J1,7*%
%TO.N,N/C*%
X128615000Y-54910000D03*
%TO.P,J1,8*%
%TO.N,Net-(J1-Pad8)*%
X131385000Y-54910000D03*
%TO.P,J1,9*%
%TO.N,N/C*%
X134155000Y-54910000D03*
D18*
%TO.P,J1,*%
%TO.N,*%
X142500000Y-53490000D03*
X117500000Y-53490000D03*
%TD*%
D17*
%TO.P,J3,1*%
%TO.N,Net-(J3-Pad1)*%
X167640000Y-85090000D03*
D16*
%TO.P,J3,2*%
%TO.N,/~ROM_0*%
X167640000Y-87630000D03*
%TO.P,J3,3*%
%TO.N,/~ROM_1*%
X165100000Y-85090000D03*
%TO.P,J3,4*%
%TO.N,Net-(J3-Pad4)*%
X165100000Y-87630000D03*
%TD*%
D17*
%TO.P,J5,1*%
%TO.N,Net-(J5-Pad1)*%
X116205000Y-67945000D03*
D16*
%TO.P,J5,2*%
%TO.N,Net-(J5-Pad2)*%
X116205000Y-65405000D03*
%TO.P,J5,3*%
%TO.N,VCC*%
X116205000Y-62865000D03*
%TD*%
D22*
%TO.P,M1,1*%
%TO.N,N/C*%
X105410000Y-134620000D03*
%TD*%
%TO.P,M2,1*%
%TO.N,N/C*%
X186690000Y-134620000D03*
%TD*%
%TO.P,M3,1*%
%TO.N,N/C*%
X186690000Y-49530000D03*
%TD*%
%TO.P,M5,1*%
%TO.N,N/C*%
X180975000Y-95250000D03*
%TD*%
%TO.P,M6,1*%
%TO.N,N/C*%
X111125000Y-95250000D03*
%TD*%
D12*
%TO.P,R1,2*%
%TO.N,Net-(D1-Pad2)*%
X130810000Y-62230000D03*
D11*
%TO.P,R1,1*%
%TO.N,VCC*%
X140970000Y-62230000D03*
%TD*%
%TO.P,R3,1*%
%TO.N,VCC*%
X153670000Y-62230000D03*
D12*
%TO.P,R3,2*%
%TO.N,Net-(D10-Pad2)*%
X143510000Y-62230000D03*
%TD*%
%TO.P,R4,2*%
%TO.N,Net-(D4-Pad2)*%
X153670000Y-68580000D03*
D11*
%TO.P,R4,1*%
%TO.N,VCC*%
X143510000Y-68580000D03*
%TD*%
%TO.P,R5,1*%
%TO.N,VCC*%
X156210000Y-62230000D03*
D12*
%TO.P,R5,2*%
%TO.N,Net-(D5-Pad2)*%
X166370000Y-62230000D03*
%TD*%
%TO.P,R6,2*%
%TO.N,/D4*%
X120015000Y-84455000D03*
D11*
%TO.P,R6,1*%
%TO.N,Net-(R6-Pad1)*%
X130175000Y-84455000D03*
%TD*%
%TO.P,R7,1*%
%TO.N,Net-(R7-Pad1)*%
X130175000Y-88265000D03*
D12*
%TO.P,R7,2*%
%TO.N,/D3*%
X120015000Y-88265000D03*
%TD*%
%TO.P,R8,2*%
%TO.N,/D2*%
X132715000Y-84455000D03*
D11*
%TO.P,R8,1*%
%TO.N,Net-(R8-Pad1)*%
X142875000Y-84455000D03*
%TD*%
D13*
%TO.P,U1,1*%
%TO.N,GND*%
X120015000Y-80645000D03*
D14*
%TO.P,U1,11*%
%TO.N,Net-(D2-Pad2)*%
X142875000Y-73025000D03*
%TO.P,U1,2*%
%TO.N,N/C*%
X122555000Y-80645000D03*
%TO.P,U1,12*%
%TO.N,Net-(D1-Pad2)*%
X140335000Y-73025000D03*
%TO.P,U1,3*%
%TO.N,N/C*%
X125095000Y-80645000D03*
%TO.P,U1,13*%
%TO.N,Net-(D10-Pad2)*%
X137795000Y-73025000D03*
%TO.P,U1,4*%
%TO.N,N/C*%
X127635000Y-80645000D03*
%TO.P,U1,14*%
%TO.N,Net-(D5-Pad2)*%
X135255000Y-73025000D03*
%TO.P,U1,5*%
%TO.N,Net-(R6-Pad1)*%
X130175000Y-80645000D03*
%TO.P,U1,15*%
%TO.N,Net-(D4-Pad2)*%
X132715000Y-73025000D03*
%TO.P,U1,6*%
%TO.N,Net-(R7-Pad1)*%
X132715000Y-80645000D03*
%TO.P,U1,16*%
%TO.N,N/C*%
X130175000Y-73025000D03*
%TO.P,U1,7*%
%TO.N,Net-(R8-Pad1)*%
X135255000Y-80645000D03*
%TO.P,U1,17*%
%TO.N,N/C*%
X127635000Y-73025000D03*
%TO.P,U1,8*%
%TO.N,Net-(R9-Pad1)*%
X137795000Y-80645000D03*
%TO.P,U1,18*%
%TO.N,N/C*%
X125095000Y-73025000D03*
%TO.P,U1,9*%
%TO.N,Net-(R10-Pad1)*%
X140335000Y-80645000D03*
%TO.P,U1,19*%
%TO.N,Net-(J5-Pad2)*%
X122555000Y-73025000D03*
%TO.P,U1,10*%
%TO.N,GND*%
X142875000Y-80645000D03*
%TO.P,U1,20*%
%TO.N,VCC*%
X120015000Y-73025000D03*
%TD*%
%TO.P,U2,20*%
%TO.N,VCC*%
X153035000Y-73025000D03*
%TO.P,U2,10*%
%TO.N,GND*%
X175895000Y-80645000D03*
%TO.P,U2,19*%
X155575000Y-73025000D03*
%TO.P,U2,9*%
%TO.N,Net-(J1-Pad8)*%
X173355000Y-80645000D03*
%TO.P,U2,18*%
%TO.N,N/C*%
X158115000Y-73025000D03*
%TO.P,U2,8*%
%TO.N,Net-(J2-Pad8)*%
X170815000Y-80645000D03*
%TO.P,U2,17*%
%TO.N,N/C*%
X160655000Y-73025000D03*
%TO.P,U2,7*%
X168275000Y-80645000D03*
%TO.P,U2,16*%
X163195000Y-73025000D03*
%TO.P,U2,6*%
X165735000Y-80645000D03*
%TO.P,U2,15*%
X165735000Y-73025000D03*
%TO.P,U2,5*%
X163195000Y-80645000D03*
%TO.P,U2,14*%
X168275000Y-73025000D03*
%TO.P,U2,4*%
X160655000Y-80645000D03*
%TO.P,U2,13*%
X170815000Y-73025000D03*
%TO.P,U2,3*%
X158115000Y-80645000D03*
%TO.P,U2,12*%
%TO.N,/A12*%
X173355000Y-73025000D03*
%TO.P,U2,2*%
%TO.N,N/C*%
X155575000Y-80645000D03*
%TO.P,U2,11*%
%TO.N,/A11*%
X175895000Y-73025000D03*
D13*
%TO.P,U2,1*%
%TO.N,GND*%
X153035000Y-80645000D03*
%TD*%
%TO.P,U3,1*%
%TO.N,/A0*%
X109855000Y-121920000D03*
D14*
%TO.P,U3,8*%
%TO.N,/~ROMCS*%
X125095000Y-114300000D03*
%TO.P,U3,2*%
%TO.N,/~IORQ*%
X112395000Y-121920000D03*
%TO.P,U3,9*%
%TO.N,/CARTRIDGE_EN*%
X122555000Y-114300000D03*
%TO.P,U3,3*%
%TO.N,Net-(U3-Pad3)*%
X114935000Y-121920000D03*
%TO.P,U3,10*%
%TO.N,Net-(U3-Pad10)*%
X120015000Y-114300000D03*
%TO.P,U3,4*%
%TO.N,/A14*%
X117475000Y-121920000D03*
%TO.P,U3,11*%
%TO.N,GND*%
X117475000Y-114300000D03*
%TO.P,U3,5*%
%TO.N,/A15*%
X120015000Y-121920000D03*
%TO.P,U3,12*%
%TO.N,Net-(U3-Pad12)*%
X114935000Y-114300000D03*
%TO.P,U3,6*%
%TO.N,Net-(U3-Pad6)*%
X122555000Y-121920000D03*
%TO.P,U3,13*%
%TO.N,/~RD*%
X112395000Y-114300000D03*
%TO.P,U3,7*%
%TO.N,GND*%
X125095000Y-121920000D03*
%TO.P,U3,14*%
%TO.N,VCC*%
X109855000Y-114300000D03*
%TD*%
%TO.P,U4,14*%
%TO.N,VCC*%
X109855000Y-102870000D03*
%TO.P,U4,7*%
%TO.N,GND*%
X125095000Y-110490000D03*
%TO.P,U4,13*%
X112395000Y-102870000D03*
%TO.P,U4,6*%
%TO.N,/~ROM_OE*%
X122555000Y-110490000D03*
%TO.P,U4,12*%
%TO.N,N/C*%
X114935000Y-102870000D03*
%TO.P,U4,5*%
%TO.N,Net-(U3-Pad6)*%
X120015000Y-110490000D03*
%TO.P,U4,11*%
%TO.N,EXROM*%
X117475000Y-102870000D03*
%TO.P,U4,4*%
%TO.N,N/C*%
X117475000Y-110490000D03*
%TO.P,U4,10*%
%TO.N,Net-(U3-Pad10)*%
X120015000Y-102870000D03*
%TO.P,U4,3*%
%TO.N,N/C*%
X114935000Y-110490000D03*
%TO.P,U4,9*%
%TO.N,/~ROMCS*%
X122555000Y-102870000D03*
%TO.P,U4,2*%
%TO.N,Net-(J5-Pad1)*%
X112395000Y-110490000D03*
%TO.P,U4,8*%
%TO.N,Net-(U3-Pad3)*%
X125095000Y-102870000D03*
D13*
%TO.P,U4,1*%
%TO.N,Net-(U3-Pad12)*%
X109855000Y-110490000D03*
%TD*%
%TO.P,U6,1*%
%TO.N,/~RESET*%
X159385000Y-110490000D03*
D14*
%TO.P,U6,11*%
%TO.N,/OUT_31*%
X182245000Y-102870000D03*
%TO.P,U6,2*%
%TO.N,/BA14*%
X161925000Y-110490000D03*
%TO.P,U6,12*%
%TO.N,/BA18*%
X179705000Y-102870000D03*
%TO.P,U6,3*%
%TO.N,/D0*%
X164465000Y-110490000D03*
%TO.P,U6,13*%
%TO.N,/D4*%
X177165000Y-102870000D03*
%TO.P,U6,4*%
%TO.N,/D1*%
X167005000Y-110490000D03*
%TO.P,U6,14*%
%TO.N,/D5*%
X174625000Y-102870000D03*
%TO.P,U6,5*%
%TO.N,/BA15*%
X169545000Y-110490000D03*
%TO.P,U6,15*%
%TO.N,/CARTRIDGE_EN*%
X172085000Y-102870000D03*
%TO.P,U6,6*%
%TO.N,/BA16*%
X172085000Y-110490000D03*
%TO.P,U6,16*%
%TO.N,/BANK0*%
X169545000Y-102870000D03*
%TO.P,U6,7*%
%TO.N,/D2*%
X174625000Y-110490000D03*
%TO.P,U6,17*%
%TO.N,/D6*%
X167005000Y-102870000D03*
%TO.P,U6,8*%
%TO.N,/D3*%
X177165000Y-110490000D03*
%TO.P,U6,18*%
%TO.N,/D7*%
X164465000Y-102870000D03*
%TO.P,U6,9*%
%TO.N,/BA17*%
X179705000Y-110490000D03*
%TO.P,U6,19*%
%TO.N,/BANK1*%
X161925000Y-102870000D03*
%TO.P,U6,10*%
%TO.N,GND*%
X182245000Y-110490000D03*
%TO.P,U6,20*%
%TO.N,VCC*%
X159385000Y-102870000D03*
%TD*%
D19*
%TO.P,D1,1*%
%TO.N,Net-(D1-Pad1)*%
X120650000Y-62230000D03*
D12*
%TO.P,D1,2*%
%TO.N,Net-(D1-Pad2)*%
X128270000Y-62230000D03*
%TD*%
%TO.P,D2,2*%
%TO.N,Net-(D2-Pad2)*%
X128270000Y-68580000D03*
D19*
%TO.P,D2,1*%
%TO.N,Net-(D2-Pad1)*%
X120650000Y-68580000D03*
%TD*%
%TO.P,D3,1*%
%TO.N,Net-(D3-Pad1)*%
X120650000Y-65405000D03*
D12*
%TO.P,D3,2*%
%TO.N,Net-(D10-Pad2)*%
X128270000Y-65405000D03*
%TD*%
%TO.P,D4,2*%
%TO.N,Net-(D4-Pad2)*%
X132080000Y-65405000D03*
D19*
%TO.P,D4,1*%
%TO.N,Net-(D4-Pad1)*%
X139700000Y-65405000D03*
%TD*%
%TO.P,D5,1*%
%TO.N,Net-(D5-Pad1)*%
X139700000Y-68580000D03*
D12*
%TO.P,D5,2*%
%TO.N,Net-(D5-Pad2)*%
X132080000Y-68580000D03*
%TD*%
%TO.P,D6,2*%
%TO.N,Net-(D4-Pad2)*%
X157480000Y-68580000D03*
D19*
%TO.P,D6,1*%
%TO.N,Net-(D6-Pad1)*%
X165100000Y-68580000D03*
%TD*%
%TO.P,D7,1*%
%TO.N,Net-(D7-Pad1)*%
X165100000Y-65405000D03*
D12*
%TO.P,D7,2*%
%TO.N,Net-(D2-Pad2)*%
X157480000Y-65405000D03*
%TD*%
%TO.P,D8,2*%
%TO.N,Net-(D5-Pad2)*%
X168910000Y-68580000D03*
D19*
%TO.P,D8,1*%
%TO.N,Net-(D8-Pad1)*%
X176530000Y-68580000D03*
%TD*%
%TO.P,D9,1*%
%TO.N,Net-(D9-Pad1)*%
X176530000Y-65532000D03*
D12*
%TO.P,D9,2*%
%TO.N,Net-(D1-Pad2)*%
X168910000Y-65532000D03*
%TD*%
%TO.P,D10,2*%
%TO.N,Net-(D10-Pad2)*%
X168910000Y-62230000D03*
D19*
%TO.P,D10,1*%
%TO.N,Net-(D10-Pad1)*%
X176530000Y-62230000D03*
%TD*%
D22*
%TO.P,M4,1*%
%TO.N,N/C*%
X105410000Y-49530000D03*
%TD*%
D11*
%TO.P,R13,1*%
%TO.N,Net-(R13-Pad1)*%
X105029000Y-84963000D03*
D12*
%TO.P,R13,2*%
%TO.N,/~NMI*%
X105029000Y-95123000D03*
%TD*%
D10*
%TO.P,SW2,2*%
%TO.N,Net-(R13-Pad1)*%
X105065000Y-73585000D03*
%TO.P,SW2,1*%
%TO.N,GND*%
X109565000Y-73585000D03*
%TO.P,SW2,2*%
%TO.N,Net-(R13-Pad1)*%
X105065000Y-80085000D03*
%TO.P,SW2,1*%
%TO.N,GND*%
X109565000Y-80085000D03*
%TD*%
D23*
%TO.N,VCC*%
X148662115Y-131989982D03*
X116750004Y-131989982D03*
%TO.N,Net-(D1-Pad2)*%
X151130000Y-70575000D03*
%TO.N,Net-(D10-Pad2)*%
X134500001Y-64650001D03*
X162814000Y-63754000D03*
%TO.N,Net-(D5-Pad2)*%
X150015500Y-69850000D03*
%TO.N,Net-(J1-Pad8)*%
X138430000Y-50165000D03*
%TO.N,Net-(J3-Pad1)*%
X170815000Y-104685000D03*
X168910000Y-96520000D03*
%TO.N,/~ROM_0*%
X163703000Y-86487000D03*
%TO.N,Net-(J3-Pad4)*%
X163830000Y-96520000D03*
X164465000Y-99695000D03*
%TO.N,/D3*%
X176406164Y-97683716D03*
X176440000Y-101055010D03*
X165735000Y-127635000D03*
X149860000Y-132714992D03*
X160761284Y-83308836D03*
%TO.N,/D4*%
X160110000Y-82550000D03*
X139065000Y-130539980D03*
X123825000Y-104775000D03*
X139700000Y-135890000D03*
X177165000Y-98335000D03*
X121285000Y-100330000D03*
X120650000Y-95758014D03*
%TO.N,/D5*%
X170815000Y-84545000D03*
X133858000Y-136652000D03*
X124460000Y-95340000D03*
X133858000Y-129540000D03*
X133858000Y-100838000D03*
X174956164Y-97790000D03*
%TO.N,/D6*%
X156845000Y-87085000D03*
X163195000Y-99695000D03*
X131572000Y-135382000D03*
X132334000Y-129540000D03*
X131779295Y-100908061D03*
X125984000Y-99314000D03*
%TO.N,/D7*%
X132334000Y-134620000D03*
X133096000Y-128778000D03*
X128270000Y-99124002D03*
X132333982Y-100076000D03*
%TO.N,/A14*%
X114482490Y-129722490D03*
X118110000Y-117602000D03*
X131572000Y-116586000D03*
%TO.N,/~MREQ*%
X170375153Y-129831000D03*
X151130000Y-137160000D03*
X153125000Y-135255000D03*
X138430000Y-98933000D03*
X138430000Y-100457000D03*
%TO.N,/A11*%
X148434500Y-71300000D03*
X150015500Y-71300000D03*
X178435000Y-135255000D03*
%TO.N,/A9*%
X177165000Y-135980000D03*
X141477994Y-100419991D03*
X141605000Y-95885000D03*
%TO.N,/A8*%
X146775010Y-102875593D03*
X148590000Y-96520000D03*
%TO.N,/A13*%
X144526000Y-103378000D03*
X149098000Y-95499340D03*
X141695000Y-132780482D03*
X142875000Y-128270000D03*
%TO.N,/A15*%
X115315992Y-130556000D03*
X112522000Y-137668000D03*
X121412000Y-116840000D03*
X138176000Y-112776000D03*
X144309000Y-95340000D03*
X142240000Y-104140000D03*
%TO.N,/~ROM_3*%
X173355000Y-105320000D03*
X171450000Y-96520000D03*
%TO.N,/~ROM_2*%
X166370000Y-96520000D03*
X167550000Y-104685000D03*
X170090000Y-112395000D03*
%TO.N,/~ROM_OE*%
X155956000Y-94996000D03*
X118196402Y-94623640D03*
X118020000Y-104775000D03*
X121285000Y-105410000D03*
%TO.N,/D2*%
X175170000Y-104685000D03*
X175681164Y-96520000D03*
X159385000Y-84455000D03*
X130048000Y-136397986D03*
X130048000Y-129793992D03*
%TO.N,/D1*%
X166460000Y-104685000D03*
X163830000Y-101145001D03*
X160565000Y-94615012D03*
X127000000Y-136070000D03*
X128524000Y-126746000D03*
X135255000Y-88265000D03*
%TO.N,/D0*%
X159766000Y-100039010D03*
X158750000Y-96012000D03*
X159516653Y-94492653D03*
X128270000Y-135345000D03*
X129286000Y-127630340D03*
X140335000Y-90714990D03*
%TO.N,/A0*%
X114046000Y-118364000D03*
X130810000Y-128270000D03*
X130810000Y-119380000D03*
%TO.N,/A1*%
X134620000Y-128778000D03*
%TO.N,/A2*%
X135382000Y-129540000D03*
%TO.N,/A3*%
X137160000Y-100420000D03*
X141986000Y-127544990D03*
%TO.N,/A4*%
X168910000Y-137885000D03*
X140589000Y-101870001D03*
%TO.N,/A6*%
X147828000Y-99949000D03*
%TO.N,/A7*%
X149135000Y-100965000D03*
%TO.N,/A12*%
X116049500Y-132842000D03*
X138198006Y-129814980D03*
X147061347Y-109224653D03*
X137414000Y-132842000D03*
%TO.N,EXROM*%
X154940000Y-95885000D03*
X142875000Y-94832000D03*
X118999000Y-95250000D03*
%TO.N,/BA14*%
X160655000Y-104685000D03*
%TO.N,Net-(R10-Pad1)*%
X145960000Y-78105000D03*
X148110500Y-78105000D03*
%TO.N,/~RESET*%
X160092115Y-106135010D03*
X158750000Y-137423306D03*
X152400000Y-117475000D03*
X184494000Y-103505000D03*
%TO.N,/~ROMCS*%
X173355000Y-130556000D03*
X157791690Y-114769489D03*
X137160000Y-114300000D03*
X146812000Y-114300000D03*
%TO.N,/~IORQ*%
X152400000Y-137160000D03*
X172466000Y-131318000D03*
%TO.N,/~RD*%
X150495000Y-115062000D03*
X136398000Y-115062000D03*
X146050000Y-115062000D03*
%TO.N,/OUT_31*%
X180975000Y-124460000D03*
%TO.N,/BANK0*%
X166370000Y-116205000D03*
X169672000Y-108204012D03*
%TO.N,/~WR*%
X157480000Y-137668000D03*
%TO.N,/~M1*%
X173990000Y-137922000D03*
%TO.N,/CARTRIDGE_EN*%
X158016500Y-108458000D03*
X159258000Y-105410000D03*
X136452892Y-113575000D03*
X146050000Y-113538000D03*
%TO.N,/~NMI*%
X107950000Y-102079500D03*
X139065000Y-107315000D03*
X139095147Y-112382080D03*
X139065000Y-116205000D03*
X144780000Y-133985000D03*
X143001996Y-126819990D03*
%TD*%
D24*
%TO.N,VCC*%
X140970000Y-62230000D02*
X140970000Y-60960000D01*
X153670000Y-60960000D02*
X153670000Y-62230000D01*
X153035000Y-60325000D02*
X153670000Y-60960000D01*
X153035000Y-60325000D02*
X155575000Y-60325000D01*
X156210000Y-60960000D02*
X156210000Y-62230000D01*
X155575000Y-60325000D02*
X156210000Y-60960000D01*
X141605000Y-60325000D02*
X143510000Y-60325000D01*
X153035000Y-73025000D02*
X150495000Y-73025000D01*
X143510000Y-64770000D02*
X143510000Y-65405000D01*
X140970000Y-62230000D02*
X143510000Y-64770000D01*
X146050000Y-60325000D02*
X153035000Y-60325000D01*
X143510000Y-60325000D02*
X146050000Y-60325000D01*
X143510000Y-68580000D02*
X148590000Y-68580000D01*
X148590000Y-68580000D02*
X149225000Y-69215000D01*
X149860000Y-73025000D02*
X149225000Y-72390000D01*
X150495000Y-73025000D02*
X149860000Y-73025000D01*
X149225000Y-72390000D02*
X149225000Y-74295000D01*
X149225000Y-69215000D02*
X149225000Y-72390000D01*
X140970000Y-60960000D02*
X140970000Y-60325000D01*
X140970000Y-60325000D02*
X141605000Y-60325000D01*
X151130000Y-96520000D02*
X151130000Y-103505000D01*
X154940000Y-92710000D02*
X151130000Y-96520000D01*
X154940000Y-92710000D02*
X154940000Y-91440000D01*
X155575000Y-104775000D02*
X152400000Y-104775000D01*
X151130000Y-103505000D02*
X152400000Y-104775000D01*
X149225000Y-74295000D02*
X147320000Y-76200000D01*
X147320000Y-76200000D02*
X147320000Y-89535000D01*
X147955000Y-90170000D02*
X153670000Y-90170000D01*
X147320000Y-89535000D02*
X147955000Y-90170000D01*
X154940000Y-91440000D02*
X153670000Y-90170000D01*
X163195000Y-127000000D02*
X164465000Y-125730000D01*
X160655000Y-127000000D02*
X163195000Y-127000000D01*
X104140000Y-116205000D02*
X104140000Y-106045000D01*
X104140000Y-116940056D02*
X104140000Y-116205000D01*
X158750000Y-116840000D02*
X159385000Y-116205000D01*
X159385000Y-116205000D02*
X160655000Y-116205000D01*
X160655000Y-127000000D02*
X160655000Y-123825000D01*
X160655000Y-123825000D02*
X158750000Y-121920000D01*
X158750000Y-116840000D02*
X158750000Y-121920000D01*
X158750000Y-114046000D02*
X157226000Y-112522000D01*
X158750000Y-116840000D02*
X158750000Y-114046000D01*
X148662115Y-131989982D02*
X116750004Y-131989982D01*
X104140000Y-128270000D02*
X107859982Y-131989982D01*
X107859982Y-131989982D02*
X116750004Y-131989982D01*
X107315000Y-114300000D02*
X106045000Y-115570000D01*
X109855000Y-114300000D02*
X107315000Y-114300000D01*
X106045000Y-104140000D02*
X104140000Y-106045000D01*
X106045000Y-115570000D02*
X104140000Y-117475000D01*
X104140000Y-117475000D02*
X104140000Y-116940056D01*
X104140000Y-128270000D02*
X104140000Y-117475000D01*
X155575000Y-107315000D02*
X157226000Y-108966000D01*
X155575000Y-104775000D02*
X155575000Y-107315000D01*
X157226000Y-112522000D02*
X157226000Y-108966000D01*
X157480000Y-102870000D02*
X155575000Y-104775000D01*
X159385000Y-102870000D02*
X157480000Y-102870000D01*
X114935000Y-74295000D02*
X116205000Y-74295000D01*
X114300000Y-74930000D02*
X114935000Y-74295000D01*
X114300000Y-97790000D02*
X114300000Y-74930000D01*
X109855000Y-102235000D02*
X114300000Y-97790000D01*
X109855000Y-102870000D02*
X109855000Y-102235000D01*
X114300000Y-63500000D02*
X114935000Y-62865000D01*
X114300000Y-74930000D02*
X114300000Y-63500000D01*
X116205000Y-62865000D02*
X114935000Y-62865000D01*
X114300000Y-63500000D02*
X114300000Y-50800000D01*
X114300000Y-50800000D02*
X115570000Y-49530000D01*
X115570000Y-49530000D02*
X136625058Y-49530000D01*
X136625058Y-49530000D02*
X137160000Y-50064942D01*
X137160000Y-50064942D02*
X137160000Y-58420000D01*
X137160000Y-58420000D02*
X139065000Y-60325000D01*
X139065000Y-60325000D02*
X140970000Y-60325000D01*
X107315000Y-102870000D02*
X106045000Y-104140000D01*
X109855000Y-102870000D02*
X107315000Y-102870000D01*
D25*
%TO.N,Net-(D1-Pad1)*%
X124460000Y-52070000D02*
X124460000Y-52451000D01*
X120650000Y-61976000D02*
X120650000Y-62230000D01*
X120650000Y-55880000D02*
X124460000Y-52070000D01*
X120650000Y-62230000D02*
X120650000Y-55880000D01*
%TO.N,Net-(D1-Pad2)*%
X130810000Y-62230000D02*
X128270000Y-62230000D01*
X140335000Y-71120000D02*
X140335000Y-73025000D01*
X139700000Y-70485000D02*
X140335000Y-71120000D01*
X135255000Y-69850000D02*
X135890000Y-70485000D01*
X135255000Y-64135000D02*
X135255000Y-69850000D01*
X135890000Y-70485000D02*
X139700000Y-70485000D01*
X133350000Y-62230000D02*
X135255000Y-64135000D01*
X130810000Y-62230000D02*
X133350000Y-62230000D01*
X170815000Y-69850000D02*
X170815000Y-66040000D01*
X170090000Y-70575000D02*
X170815000Y-69850000D01*
X170307000Y-65532000D02*
X168910000Y-65532000D01*
X170815000Y-66040000D02*
X170307000Y-65532000D01*
X151130000Y-70575000D02*
X170090000Y-70575000D01*
%TO.N,Net-(D2-Pad2)*%
X153670000Y-65405000D02*
X157480000Y-65405000D01*
X128270000Y-68580000D02*
X131445000Y-71755000D01*
X131445000Y-71755000D02*
X131445000Y-74295000D01*
X131445000Y-74295000D02*
X132080000Y-74930000D01*
X132080000Y-74930000D02*
X142240000Y-74930000D01*
X142240000Y-74930000D02*
X142875000Y-74295000D01*
X142875000Y-74295000D02*
X142875000Y-73025000D01*
X142875000Y-73025000D02*
X142875000Y-71120000D01*
X142875000Y-71120000D02*
X142240000Y-70485000D01*
X142240000Y-70485000D02*
X142240000Y-67310000D01*
X142240000Y-67310000D02*
X142875000Y-66675000D01*
X152400000Y-66675000D02*
X153670000Y-65405000D01*
X142875000Y-66675000D02*
X152400000Y-66675000D01*
%TO.N,Net-(D2-Pad1)*%
X124160000Y-54910000D02*
X125845000Y-54910000D01*
X123190000Y-55880000D02*
X124160000Y-54910000D01*
X123190000Y-67945000D02*
X123190000Y-55880000D01*
X122555000Y-68580000D02*
X123190000Y-67945000D01*
X120650000Y-68580000D02*
X122555000Y-68580000D01*
%TO.N,Net-(D3-Pad1)*%
X125706000Y-53594000D02*
X127230000Y-52070000D01*
X124206000Y-53594000D02*
X125706000Y-53594000D01*
X122555000Y-55245000D02*
X124206000Y-53594000D01*
X122555000Y-64770000D02*
X122555000Y-55245000D01*
X121920000Y-65405000D02*
X122555000Y-64770000D01*
X120650000Y-65405000D02*
X121920000Y-65405000D01*
%TO.N,Net-(D10-Pad2)*%
X137795000Y-71755000D02*
X137795000Y-73025000D01*
X135255000Y-71120000D02*
X137160000Y-71120000D01*
X137160000Y-71120000D02*
X137795000Y-71755000D01*
X134500001Y-70365001D02*
X135255000Y-71120000D01*
X134500001Y-64650001D02*
X134500001Y-70365001D01*
X129540000Y-64135000D02*
X133985000Y-64135000D01*
X133985000Y-64135000D02*
X134500001Y-64650001D01*
X128270000Y-65405000D02*
X129540000Y-64135000D01*
X143510000Y-62230000D02*
X151130000Y-62230000D01*
X152654000Y-63754000D02*
X162814000Y-63754000D01*
X151130000Y-62230000D02*
X152654000Y-63754000D01*
%TO.N,Net-(D4-Pad2)*%
X130810000Y-65405000D02*
X132080000Y-65405000D01*
X130175000Y-66040000D02*
X130810000Y-65405000D01*
X132715000Y-73025000D02*
X132715000Y-71755000D01*
X132715000Y-71755000D02*
X130175000Y-69215000D01*
X130175000Y-69215000D02*
X130175000Y-66040000D01*
X153670000Y-68580000D02*
X157480000Y-68580000D01*
%TO.N,Net-(D4-Pad1)*%
X132715000Y-60325000D02*
X137795000Y-65405000D01*
X137795000Y-65405000D02*
X139700000Y-65405000D01*
X130810000Y-60325000D02*
X132715000Y-60325000D01*
X130000000Y-59515000D02*
X130810000Y-60325000D01*
X130000000Y-52070000D02*
X130000000Y-59515000D01*
%TO.N,Net-(D5-Pad1)*%
X140970000Y-68580000D02*
X139700000Y-68580000D01*
X141605000Y-67945000D02*
X140970000Y-68580000D01*
X141605000Y-64770000D02*
X141605000Y-67945000D01*
X140335000Y-63500000D02*
X141605000Y-64770000D01*
X137160000Y-63500000D02*
X140335000Y-63500000D01*
X132770000Y-59110000D02*
X137160000Y-63500000D01*
X132770000Y-52070000D02*
X132770000Y-59110000D01*
%TO.N,Net-(D5-Pad2)*%
X132080000Y-69215000D02*
X132080000Y-68580000D01*
X135255000Y-72390000D02*
X132080000Y-69215000D01*
X135255000Y-73025000D02*
X135255000Y-72390000D01*
X168910000Y-68580000D02*
X167640000Y-68580000D01*
X167005000Y-69215000D02*
X166370000Y-69850000D01*
X167005000Y-67945000D02*
X167005000Y-69215000D01*
X150015500Y-69850000D02*
X166370000Y-69850000D01*
X167640000Y-68580000D02*
X167005000Y-69215000D01*
X166370000Y-63500000D02*
X167005000Y-64135000D01*
X166370000Y-62230000D02*
X166370000Y-63500000D01*
X167005000Y-67945000D02*
X167005000Y-64135000D01*
%TO.N,Net-(D6-Pad1)*%
X163576000Y-62738000D02*
X163576000Y-67056000D01*
X163131500Y-62293500D02*
X163576000Y-62738000D01*
X163576000Y-67056000D02*
X165100000Y-68580000D01*
X160718500Y-62293500D02*
X163131500Y-62293500D01*
X156845000Y-58420000D02*
X160718500Y-62293500D01*
X156845000Y-52070000D02*
X156845000Y-58420000D01*
%TO.N,Net-(D7-Pad1)*%
X165100000Y-63246000D02*
X165100000Y-65405000D01*
X163449000Y-61595000D02*
X165100000Y-63246000D01*
X161290000Y-61595000D02*
X163449000Y-61595000D01*
X158230000Y-58535000D02*
X161290000Y-61595000D01*
X158230000Y-54910000D02*
X158230000Y-58535000D01*
%TO.N,Net-(D8-Pad1)*%
X172974000Y-67818000D02*
X173736000Y-68580000D01*
X173736000Y-68580000D02*
X176530000Y-68580000D01*
X169545000Y-60325000D02*
X172974000Y-63754000D01*
X161290000Y-60325000D02*
X169545000Y-60325000D01*
X159615000Y-58650000D02*
X161290000Y-60325000D01*
X172974000Y-63754000D02*
X172974000Y-67818000D01*
X159615000Y-52070000D02*
X159615000Y-58650000D01*
%TO.N,Net-(D9-Pad1)*%
X174498000Y-65532000D02*
X176530000Y-65532000D01*
X173736000Y-64770000D02*
X174498000Y-65532000D01*
X170180000Y-59690000D02*
X173736000Y-63246000D01*
X163195000Y-59690000D02*
X170180000Y-59690000D01*
X173736000Y-63246000D02*
X173736000Y-64770000D01*
X162385000Y-58880000D02*
X163195000Y-59690000D01*
X162385000Y-52070000D02*
X162385000Y-58880000D01*
%TO.N,Net-(D10-Pad1)*%
X175260000Y-62230000D02*
X176530000Y-62230000D01*
X165735000Y-58420000D02*
X171450000Y-58420000D01*
X165155000Y-57840000D02*
X165735000Y-58420000D01*
X171450000Y-58420000D02*
X175260000Y-62230000D01*
X165155000Y-52070000D02*
X165155000Y-57840000D01*
%TO.N,Net-(J1-Pad8)*%
X170180000Y-51435000D02*
X168910000Y-50165000D01*
X174625000Y-60325000D02*
X170180000Y-55880000D01*
X168910000Y-50165000D02*
X138430000Y-50165000D01*
X178435000Y-60325000D02*
X174625000Y-60325000D01*
X170180000Y-55880000D02*
X170180000Y-51435000D01*
X179070000Y-75565000D02*
X179070000Y-60960000D01*
X179070000Y-60960000D02*
X178435000Y-60325000D01*
X178435000Y-76200000D02*
X179070000Y-75565000D01*
X173990000Y-76200000D02*
X178435000Y-76200000D01*
X173355000Y-76835000D02*
X173990000Y-76200000D01*
X173355000Y-80645000D02*
X173355000Y-76835000D01*
%TO.N,Net-(J2-Pad8)*%
X170815000Y-76200000D02*
X170815000Y-80645000D01*
X171450000Y-75565000D02*
X170815000Y-76200000D01*
X177800000Y-75565000D02*
X171450000Y-75565000D01*
X178435000Y-74930000D02*
X177800000Y-75565000D01*
X178435000Y-64706500D02*
X178435000Y-74930000D01*
X177736500Y-64008000D02*
X178435000Y-64706500D01*
X175387000Y-64008000D02*
X177736500Y-64008000D01*
X174625000Y-63246000D02*
X175387000Y-64008000D01*
X174625000Y-62865000D02*
X174625000Y-63246000D01*
X164465000Y-59055000D02*
X170815000Y-59055000D01*
X170815000Y-59055000D02*
X174625000Y-62865000D01*
X163770000Y-58360000D02*
X164465000Y-59055000D01*
X163770000Y-54910000D02*
X163770000Y-58360000D01*
%TO.N,Net-(J3-Pad1)*%
X170815000Y-115570000D02*
X170815000Y-104775000D01*
X170180000Y-116205000D02*
X170815000Y-115570000D01*
X167640000Y-116205000D02*
X170180000Y-116205000D01*
X167005000Y-115570000D02*
X167640000Y-116205000D01*
X167005000Y-114300000D02*
X167005000Y-115570000D01*
X170815000Y-104775000D02*
X170815000Y-104685000D01*
X167640000Y-85090000D02*
X168740000Y-85090000D01*
X168740000Y-85090000D02*
X168910000Y-85260000D01*
X168910000Y-85260000D02*
X168910000Y-96520000D01*
%TO.N,/~ROM_0*%
X163703000Y-86487000D02*
X162560000Y-87630000D01*
X162560000Y-87630000D02*
X162560000Y-92710000D01*
%TO.N,/~ROM_1*%
X165100000Y-89916000D02*
X165100000Y-92710000D01*
X165100000Y-85090000D02*
X166370000Y-86360000D01*
X166370000Y-86360000D02*
X166370000Y-88646000D01*
X166370000Y-88646000D02*
X165100000Y-89916000D01*
%TO.N,Net-(J3-Pad4)*%
X163830000Y-88900000D02*
X163830000Y-96520000D01*
X165100000Y-87630000D02*
X163830000Y-88900000D01*
X167640000Y-112395000D02*
X166370000Y-112395000D01*
X165735000Y-100965000D02*
X164465000Y-99695000D01*
X169545000Y-114300000D02*
X167640000Y-112395000D01*
X166370000Y-112395000D02*
X165735000Y-111760000D01*
X165735000Y-111760000D02*
X165735000Y-100965000D01*
%TO.N,/D3*%
X120015000Y-90805000D02*
X119380000Y-91440000D01*
X120015000Y-88265000D02*
X120015000Y-90805000D01*
X119380000Y-92710000D02*
X119380000Y-91440000D01*
X175895000Y-101600010D02*
X176440000Y-101055010D01*
X177165000Y-105410000D02*
X175895000Y-104140000D01*
X177165000Y-110490000D02*
X177165000Y-105410000D01*
X175895000Y-104140000D02*
X175895000Y-101600010D01*
X170180000Y-127635000D02*
X165735000Y-127635000D01*
X170815000Y-127000000D02*
X170180000Y-127635000D01*
X170815000Y-120650000D02*
X170815000Y-127000000D01*
X175895000Y-115570000D02*
X170815000Y-120650000D01*
X175895000Y-111760000D02*
X175895000Y-115570000D01*
X177165000Y-110490000D02*
X175895000Y-111760000D01*
X172720000Y-83820000D02*
X171958000Y-83058000D01*
X175647328Y-83820000D02*
X172720000Y-83820000D01*
X176406164Y-84578836D02*
X175647328Y-83820000D01*
X176406164Y-97683716D02*
X176406164Y-84578836D01*
X137160000Y-137160000D02*
X139700000Y-134620000D01*
X137160000Y-142367000D02*
X137160000Y-137160000D01*
X171958000Y-83058000D02*
X161012120Y-83058000D01*
X161012120Y-83058000D02*
X160761284Y-83308836D01*
X143510008Y-132714992D02*
X141605000Y-134620000D01*
X149860000Y-132714992D02*
X143510008Y-132714992D01*
X139700000Y-134620000D02*
X141605000Y-134620000D01*
%TO.N,/D4*%
X121920000Y-92710000D02*
X121920000Y-85090000D01*
X121285000Y-84455000D02*
X120015000Y-84455000D01*
X121920000Y-85090000D02*
X121285000Y-84455000D01*
X139700000Y-142367000D02*
X139700000Y-135890000D01*
X176345010Y-83000010D02*
X177165000Y-83820000D01*
X173170010Y-83000010D02*
X176345010Y-83000010D01*
X177165000Y-96519988D02*
X177165000Y-98335000D01*
X172720000Y-82550000D02*
X173170010Y-83000010D01*
X177165000Y-83820000D02*
X177165000Y-96519988D01*
X160110000Y-82550000D02*
X172720000Y-82550000D01*
X120650000Y-99695000D02*
X120650000Y-95758014D01*
X121285000Y-100330000D02*
X120650000Y-99695000D01*
X121920000Y-94488014D02*
X120650000Y-95758014D01*
X121920000Y-92710000D02*
X121920000Y-94488014D01*
X138499315Y-130539980D02*
X139065000Y-130539980D01*
X127000000Y-128270000D02*
X129269980Y-130539980D01*
X127000000Y-108585000D02*
X127000000Y-128270000D01*
X129269980Y-130539980D02*
X138499315Y-130539980D01*
X123825000Y-105410000D02*
X127000000Y-108585000D01*
X123825000Y-104775000D02*
X123825000Y-105410000D01*
%TO.N,/D5*%
X134620000Y-137414000D02*
X133858000Y-136652000D01*
X134620000Y-142367000D02*
X134620000Y-137414000D01*
X124460000Y-92710000D02*
X124460000Y-95340000D01*
X133858000Y-129540000D02*
X133858000Y-100838000D01*
X174956164Y-88686164D02*
X174956164Y-97790000D01*
X174956164Y-86028836D02*
X174956164Y-88686164D01*
X174062328Y-85135000D02*
X174956164Y-86028836D01*
X171405000Y-85135000D02*
X174062328Y-85135000D01*
X170815000Y-84545000D02*
X171405000Y-85135000D01*
%TO.N,/D6*%
X157244999Y-87484999D02*
X156845000Y-87085000D01*
X161316825Y-91556825D02*
X157244999Y-87484999D01*
X161316825Y-98451825D02*
X161316825Y-91556825D01*
X162560000Y-99695000D02*
X161316825Y-98451825D01*
X163195000Y-99695000D02*
X162560000Y-99695000D01*
X132080000Y-135890000D02*
X131572000Y-135382000D01*
X132080000Y-142367000D02*
X132080000Y-135890000D01*
X132334000Y-129540000D02*
X132334000Y-127508000D01*
X132334000Y-101462766D02*
X131779295Y-100908061D01*
X132334000Y-127508000D02*
X132334000Y-101462766D01*
X125730000Y-99060000D02*
X125984000Y-99314000D01*
X125730000Y-96520000D02*
X125730000Y-99060000D01*
X127000000Y-95250000D02*
X125730000Y-96520000D01*
X127000000Y-92710000D02*
X127000000Y-95250000D01*
%TO.N,/D7*%
X128270000Y-96266000D02*
X128270000Y-99124002D01*
X129540000Y-94996000D02*
X128270000Y-96266000D01*
X129540000Y-92710000D02*
X129540000Y-94996000D01*
X133096000Y-128778000D02*
X133096000Y-100838018D01*
X133096000Y-100838018D02*
X132333982Y-100076000D01*
X118110000Y-134620000D02*
X132334000Y-134620000D01*
X116840000Y-135890000D02*
X118110000Y-134620000D01*
X116840000Y-142367000D02*
X116840000Y-135890000D01*
%TO.N,/A14*%
X117475000Y-118237000D02*
X118110000Y-117602000D01*
X117475000Y-121920000D02*
X117475000Y-118237000D01*
X132080000Y-95250000D02*
X132080000Y-92710000D01*
X130810000Y-96520000D02*
X132080000Y-95250000D01*
X131572000Y-101854000D02*
X130810000Y-101092000D01*
X131572000Y-116586000D02*
X131572000Y-101854000D01*
X130810000Y-101092000D02*
X130810000Y-96520000D01*
X117475000Y-126729980D02*
X114482490Y-129722490D01*
X117475000Y-121920000D02*
X117475000Y-126729980D01*
%TO.N,/A10*%
X160528000Y-136652000D02*
X154305000Y-130429000D01*
X177800000Y-142367000D02*
X177800000Y-137967308D01*
X151257000Y-109347000D02*
X147500011Y-105590011D01*
X177800000Y-137967308D02*
X176484692Y-136652000D01*
X154305000Y-130429000D02*
X154305000Y-116206410D01*
X151257000Y-113158410D02*
X151257000Y-109347000D01*
X147500011Y-105590011D02*
X147500011Y-102574920D01*
X176484692Y-136652000D02*
X160528000Y-136652000D01*
X154305000Y-116206410D02*
X151257000Y-113158410D01*
X135890000Y-93980000D02*
X134620000Y-92710000D01*
X147500011Y-102574920D02*
X146070092Y-101145001D01*
X141150001Y-101145001D02*
X139700000Y-99695000D01*
X146070092Y-101145001D02*
X141150001Y-101145001D01*
X139700000Y-99695000D02*
X136652000Y-99695000D01*
X136652000Y-99695000D02*
X135890000Y-98933000D01*
X135890000Y-98933000D02*
X135890000Y-93980000D01*
%TO.N,/~MREQ*%
X172085000Y-129831000D02*
X170375153Y-129831000D01*
X172429000Y-129831000D02*
X172085000Y-129831000D01*
X173355000Y-128905000D02*
X172429000Y-129831000D01*
X173355000Y-123190000D02*
X173355000Y-128905000D01*
X174625000Y-121920000D02*
X173355000Y-123190000D01*
X149860000Y-142367000D02*
X149860000Y-138430000D01*
X149860000Y-138430000D02*
X151130000Y-137160000D01*
X137160000Y-92710000D02*
X138430000Y-93980000D01*
X138430000Y-98806000D02*
X138430000Y-98933000D01*
X138430000Y-98933000D02*
X138430000Y-93980000D01*
X153125000Y-134075000D02*
X153125000Y-135255000D01*
X149352000Y-110490000D02*
X149352000Y-130302000D01*
X145288000Y-106426000D02*
X149352000Y-110490000D01*
X145288000Y-102997000D02*
X145288000Y-106426000D01*
X144907000Y-102616000D02*
X145288000Y-102997000D01*
X140242657Y-102616000D02*
X144907000Y-102616000D01*
X138430000Y-100803343D02*
X140242657Y-102616000D01*
X149352000Y-130302000D02*
X153125000Y-134075000D01*
X138430000Y-100457000D02*
X138430000Y-100803343D01*
%TO.N,/A11*%
X150015500Y-71300000D02*
X175440000Y-71300000D01*
X175895000Y-71755000D02*
X175895000Y-73025000D01*
X175440000Y-71300000D02*
X175895000Y-71755000D01*
X139700000Y-95313500D02*
X139700000Y-92710000D01*
X140970000Y-98748998D02*
X140970000Y-96583500D01*
X141916002Y-99695000D02*
X140970000Y-98748998D01*
X148590000Y-101981000D02*
X146304000Y-99695000D01*
X152400000Y-108651320D02*
X148590000Y-104841320D01*
X140970000Y-96583500D02*
X139700000Y-95313500D01*
X148590000Y-104841320D02*
X148590000Y-101981000D01*
X152400000Y-112776000D02*
X152400000Y-108651320D01*
X146304000Y-99695000D02*
X141916002Y-99695000D01*
X155673493Y-116049493D02*
X152400000Y-112776000D01*
X155673493Y-130330507D02*
X155673493Y-116049493D01*
X160597986Y-135255000D02*
X155673493Y-130330507D01*
X178435000Y-135255000D02*
X160597986Y-135255000D01*
X140549999Y-91860001D02*
X139700000Y-92710000D01*
X142875000Y-90805000D02*
X141605000Y-90805000D01*
X144145000Y-87630000D02*
X144145000Y-89535000D01*
X146685000Y-85090000D02*
X144145000Y-87630000D01*
X141605000Y-90805000D02*
X140549999Y-91860001D01*
X144145000Y-89535000D02*
X142875000Y-90805000D01*
X146685000Y-73049500D02*
X146685000Y-85090000D01*
X148434500Y-71300000D02*
X146685000Y-73049500D01*
%TO.N,/A9*%
X146139991Y-100419991D02*
X141477994Y-100419991D01*
X148082000Y-105283000D02*
X148082000Y-102362000D01*
X151765000Y-108966000D02*
X148082000Y-105283000D01*
X160618000Y-135980000D02*
X154940000Y-130302000D01*
X154940000Y-116205000D02*
X151765000Y-113030000D01*
X148082000Y-102362000D02*
X146139991Y-100419991D01*
X154940000Y-130302000D02*
X154940000Y-116205000D01*
X177165000Y-135980000D02*
X160618000Y-135980000D01*
X151765000Y-113030000D02*
X151765000Y-108966000D01*
X142240000Y-92710000D02*
X142240000Y-93345000D01*
X141605000Y-93980000D02*
X141605000Y-95885000D01*
X142240000Y-93345000D02*
X141605000Y-93980000D01*
%TO.N,/A8*%
X175260000Y-142367000D02*
X175260000Y-137795000D01*
X174625000Y-137160000D02*
X174428002Y-137160000D01*
X175260000Y-137795000D02*
X174625000Y-137160000D01*
X174428002Y-137160000D02*
X174423012Y-137155010D01*
X146775010Y-105881010D02*
X146775010Y-102875593D01*
X150622000Y-113159820D02*
X150622000Y-109728000D01*
X160274000Y-137160000D02*
X153670000Y-130556000D01*
X174428002Y-137160000D02*
X160274000Y-137160000D01*
X153670000Y-130556000D02*
X153670000Y-116207820D01*
X150622000Y-109728000D02*
X146775010Y-105881010D01*
X153670000Y-116207820D02*
X150622000Y-113159820D01*
X147320000Y-95250000D02*
X148590000Y-96520000D01*
X147320000Y-92710000D02*
X147320000Y-95250000D01*
%TO.N,/A13*%
X148336000Y-111760000D02*
X144526000Y-107950000D01*
X148336000Y-127254000D02*
X148336000Y-111760000D01*
X147320000Y-128270000D02*
X148336000Y-127254000D01*
X144526000Y-107950000D02*
X144526000Y-103378000D01*
X149860000Y-94737340D02*
X149098000Y-95499340D01*
X149860000Y-92710000D02*
X149860000Y-94737340D01*
X142875000Y-128270000D02*
X147320000Y-128270000D01*
X140807277Y-133668205D02*
X141695000Y-132780482D01*
X115886795Y-133668205D02*
X140807277Y-133668205D01*
X114300000Y-135255000D02*
X115886795Y-133668205D01*
X114300000Y-142367000D02*
X114300000Y-135255000D01*
%TO.N,/A15*%
X112522000Y-137668000D02*
X111760000Y-138430000D01*
X111760000Y-142367000D02*
X111760000Y-138430000D01*
X120015000Y-118237000D02*
X121412000Y-116840000D01*
X120015000Y-121920000D02*
X120015000Y-118237000D01*
X146050000Y-91694000D02*
X146050000Y-93599000D01*
X146558000Y-91186000D02*
X146050000Y-91694000D01*
X151892000Y-91186000D02*
X146558000Y-91186000D01*
X146050000Y-93599000D02*
X144309000Y-95340000D01*
X152400000Y-91694000D02*
X151892000Y-91186000D01*
X152400000Y-92710000D02*
X152400000Y-91694000D01*
X120015000Y-125856992D02*
X120015000Y-121920000D01*
X115315992Y-130556000D02*
X120015000Y-125856992D01*
X138176000Y-105029000D02*
X139065000Y-104140000D01*
X139065000Y-104140000D02*
X142240000Y-104140000D01*
X138176000Y-112776000D02*
X138176000Y-105029000D01*
%TO.N,/~ROM_3*%
X174625000Y-114300000D02*
X174625000Y-113030000D01*
X174625000Y-113030000D02*
X173355000Y-111760000D01*
X173355000Y-111760000D02*
X173355000Y-107950000D01*
X173355000Y-107950000D02*
X173355000Y-105320000D01*
X171450000Y-96520000D02*
X170180000Y-95250000D01*
X170180000Y-95250000D02*
X170180000Y-92710000D01*
%TO.N,/~ROM_2*%
X167640000Y-95250000D02*
X166370000Y-96520000D01*
X167640000Y-92710000D02*
X167640000Y-95250000D01*
X167550000Y-104685000D02*
X167550000Y-106590000D01*
X167550000Y-106590000D02*
X167550000Y-107860000D01*
X167550000Y-107860000D02*
X168275000Y-108585000D01*
X168275000Y-108585000D02*
X168275000Y-111760000D01*
X168910000Y-112395000D02*
X170090000Y-112395000D01*
X168275000Y-111760000D02*
X168910000Y-112395000D01*
%TO.N,/~ROM_OE*%
X160020000Y-92710000D02*
X157734000Y-94996000D01*
X157734000Y-94996000D02*
X155956000Y-94996000D01*
X118196402Y-94623640D02*
X116205000Y-96615042D01*
X116205000Y-96615042D02*
X116205000Y-104140000D01*
X116840000Y-104775000D02*
X118020000Y-104775000D01*
X116205000Y-104140000D02*
X116840000Y-104775000D01*
X122555000Y-106680000D02*
X121285000Y-105410000D01*
X122555000Y-110490000D02*
X122555000Y-106680000D01*
%TO.N,OUT_63*%
X182942795Y-100900795D02*
X180910795Y-100900795D01*
X175069500Y-99060000D02*
X174231163Y-98221663D01*
X183769000Y-101727000D02*
X182942795Y-100900795D01*
X179070000Y-99060000D02*
X175069500Y-99060000D01*
X183769000Y-127000000D02*
X183769000Y-101727000D01*
X183261000Y-127508000D02*
X183769000Y-127000000D01*
X177165000Y-125730000D02*
X177165000Y-126492000D01*
X180910795Y-100900795D02*
X179070000Y-99060000D01*
X178181000Y-127508000D02*
X183261000Y-127508000D01*
X173863000Y-92710000D02*
X172720000Y-92710000D01*
X177165000Y-126492000D02*
X178181000Y-127508000D01*
X174231163Y-98221663D02*
X174231163Y-93078163D01*
X174231163Y-93078163D02*
X173863000Y-92710000D01*
%TO.N,/D2*%
X174625000Y-105230000D02*
X175170000Y-104685000D01*
X174625000Y-110490000D02*
X174625000Y-105230000D01*
X131445000Y-86995000D02*
X132715000Y-85725000D01*
X131445000Y-88900000D02*
X131445000Y-86995000D01*
X132715000Y-85725000D02*
X132715000Y-84455000D01*
X130810000Y-89535000D02*
X131445000Y-88900000D01*
X124460000Y-89535000D02*
X130810000Y-89535000D01*
X123190000Y-90805000D02*
X124460000Y-89535000D01*
X123190000Y-95758000D02*
X123190000Y-90805000D01*
X121920000Y-97028000D02*
X123190000Y-95758000D01*
X121920000Y-97790000D02*
X121920000Y-97028000D01*
X129540000Y-142367000D02*
X129540000Y-136905986D01*
X129540000Y-136905986D02*
X130048000Y-136397986D01*
X127635000Y-127380992D02*
X130048000Y-129793992D01*
X127635000Y-102870000D02*
X127635000Y-127380992D01*
X125095000Y-100330000D02*
X127635000Y-102870000D01*
X124460000Y-100330000D02*
X125095000Y-100330000D01*
X121920000Y-97790000D02*
X124460000Y-100330000D01*
X175681164Y-85090000D02*
X175681164Y-88051164D01*
X175046164Y-84455000D02*
X175681164Y-85090000D01*
X172085000Y-84455000D02*
X175046164Y-84455000D01*
X171196000Y-83566000D02*
X172085000Y-84455000D01*
X160972500Y-84455000D02*
X161861500Y-83566000D01*
X175681164Y-88051164D02*
X175681164Y-96520000D01*
X159385000Y-84455000D02*
X160972500Y-84455000D01*
X161861500Y-83566000D02*
X171196000Y-83566000D01*
%TO.N,/D1*%
X167005000Y-105230000D02*
X166460000Y-104685000D01*
X167005000Y-110490000D02*
X167005000Y-105230000D01*
X163830000Y-101145001D02*
X163195000Y-100510001D01*
X162105001Y-100510001D02*
X161925000Y-100330000D01*
X163195000Y-100510001D02*
X162740001Y-100510001D01*
X162740001Y-100510001D02*
X162105001Y-100510001D01*
X160565000Y-95270002D02*
X158750000Y-97085002D01*
X160565000Y-94615012D02*
X160565000Y-95270002D01*
X160909000Y-99314000D02*
X162105001Y-100510001D01*
X159639000Y-99314000D02*
X160909000Y-99314000D01*
X158750000Y-98425000D02*
X159639000Y-99314000D01*
X158750000Y-97085002D02*
X158750000Y-98425000D01*
X124460000Y-98863002D02*
X127635000Y-102038002D01*
X124460000Y-97790000D02*
X124460000Y-98863002D01*
X127635000Y-102038002D02*
X128270000Y-102673002D01*
X127000000Y-142367000D02*
X127000000Y-136070000D01*
X128524000Y-102927002D02*
X128270000Y-102673002D01*
X128524000Y-126746000D02*
X128524000Y-102927002D01*
X124460000Y-96520000D02*
X124460000Y-97790000D01*
X125730000Y-90805000D02*
X125730000Y-95250000D01*
X126365000Y-90170000D02*
X125730000Y-90805000D01*
X125730000Y-95250000D02*
X124460000Y-96520000D01*
X133350000Y-90170000D02*
X126365000Y-90170000D01*
X133350000Y-90170000D02*
X135255000Y-88265000D01*
%TO.N,/D0*%
X145415000Y-84455000D02*
X144145000Y-85725000D01*
X162560000Y-100965000D02*
X160691990Y-100965000D01*
X164465000Y-110490000D02*
X164465000Y-105410000D01*
X163195000Y-104140000D02*
X163195000Y-101600000D01*
X164465000Y-105410000D02*
X163195000Y-104140000D01*
X163195000Y-101600000D02*
X162560000Y-100965000D01*
X160691990Y-100965000D02*
X159766000Y-100039010D01*
X159516653Y-94492653D02*
X159516653Y-95245347D01*
X159516653Y-95245347D02*
X158750000Y-96012000D01*
X128270000Y-91440000D02*
X128995010Y-90714990D01*
X128270000Y-95250000D02*
X128270000Y-91440000D01*
X127000000Y-96520000D02*
X128270000Y-95250000D01*
X127000000Y-97790000D02*
X127000000Y-96520000D01*
X127000000Y-99695000D02*
X129286000Y-101981000D01*
X127000000Y-97790000D02*
X127000000Y-99695000D01*
X129286000Y-101981000D02*
X129286000Y-127630340D01*
X125513000Y-135345000D02*
X128270000Y-135345000D01*
X124460000Y-136398000D02*
X125513000Y-135345000D01*
X124460000Y-142367000D02*
X124460000Y-136398000D01*
X144145000Y-85725000D02*
X143510000Y-86360000D01*
X143510000Y-86360000D02*
X137160000Y-86360000D01*
X137160000Y-86360000D02*
X136525000Y-86995000D01*
X136525000Y-86995000D02*
X136525000Y-90170000D01*
X136525000Y-90170000D02*
X135980010Y-90714990D01*
X128995010Y-90714990D02*
X135980010Y-90714990D01*
X135980010Y-90714990D02*
X140335000Y-90714990D01*
%TO.N,/A0*%
X114046000Y-118364000D02*
X110744000Y-118364000D01*
X109855000Y-119253000D02*
X109855000Y-121920000D01*
X110744000Y-118364000D02*
X109855000Y-119253000D01*
X130810000Y-102108000D02*
X130810000Y-119380000D01*
X129540000Y-97790000D02*
X129540000Y-100838000D01*
X129540000Y-100838000D02*
X130810000Y-102108000D01*
X130810000Y-128270000D02*
X130810000Y-119380000D01*
%TO.N,/A1*%
X134620000Y-100330000D02*
X132080000Y-97790000D01*
X134620000Y-128778000D02*
X134620000Y-100330000D01*
%TO.N,/A2*%
X135382000Y-100330000D02*
X134620000Y-99568000D01*
X135382000Y-129540000D02*
X135382000Y-100330000D01*
X134620000Y-97790000D02*
X134620000Y-99568000D01*
%TO.N,/A3*%
X143002000Y-103378000D02*
X140118000Y-103378000D01*
X140118000Y-103378000D02*
X137160000Y-100420000D01*
X143764000Y-104140000D02*
X143002000Y-103378000D01*
X143764000Y-108204000D02*
X143764000Y-104140000D01*
X147828000Y-112268000D02*
X143764000Y-108204000D01*
X147029010Y-127544990D02*
X147828000Y-126746000D01*
X147828000Y-126746000D02*
X147828000Y-112268000D01*
X141986000Y-127544990D02*
X147029010Y-127544990D01*
%TO.N,/A4*%
X160237000Y-137885000D02*
X168910000Y-137885000D01*
X153162000Y-130810000D02*
X160237000Y-137885000D01*
X153162000Y-116586000D02*
X153162000Y-130810000D01*
X149987000Y-113411000D02*
X153162000Y-116586000D01*
X149987000Y-110109000D02*
X149987000Y-113411000D01*
X146050000Y-106172000D02*
X149987000Y-110109000D01*
X146050000Y-102489000D02*
X146050000Y-106172000D01*
X140589000Y-101870001D02*
X145431001Y-101870001D01*
X145431001Y-101870001D02*
X146050000Y-102489000D01*
%TO.N,/A5*%
X142240000Y-98425000D02*
X142240000Y-97790000D01*
X149226411Y-99060000D02*
X142875000Y-99060000D01*
X150495000Y-104773590D02*
X150495000Y-100328589D01*
X150495000Y-100328589D02*
X149226411Y-99060000D01*
X153924000Y-108202590D02*
X150495000Y-104773590D01*
X157226000Y-115316000D02*
X153924000Y-112014000D01*
X153924000Y-112014000D02*
X153924000Y-108202590D01*
X157988000Y-129286000D02*
X157226000Y-128524000D01*
X167386000Y-129286000D02*
X157988000Y-129286000D01*
X142875000Y-99060000D02*
X142240000Y-98425000D01*
X169545000Y-131445000D02*
X167386000Y-129286000D01*
X157226000Y-128524000D02*
X157226000Y-115316000D01*
X169545000Y-133350000D02*
X169545000Y-131445000D01*
%TO.N,/A6*%
X149860000Y-100584000D02*
X149225000Y-99949000D01*
X153416000Y-112268000D02*
X153416000Y-108394500D01*
X149225000Y-99949000D02*
X147828000Y-99949000D01*
X153416000Y-108394500D02*
X149860000Y-104838500D01*
X149860000Y-104838500D02*
X149860000Y-100584000D01*
X156718000Y-115570000D02*
X153416000Y-112268000D01*
X157226000Y-129794000D02*
X156718000Y-129286000D01*
X165862000Y-129794000D02*
X157226000Y-129794000D01*
X167005000Y-130937000D02*
X165862000Y-129794000D01*
X167005000Y-133350000D02*
X167005000Y-130937000D01*
X156718000Y-129286000D02*
X156718000Y-115570000D01*
%TO.N,/A7*%
X149225000Y-101055000D02*
X149135000Y-100965000D01*
X149225000Y-104839910D02*
X149225000Y-101055000D01*
X152908000Y-112522000D02*
X152908000Y-108522910D01*
X156210000Y-115824000D02*
X152908000Y-112522000D01*
X156210000Y-129794000D02*
X156210000Y-115824000D01*
X156718000Y-130302000D02*
X156210000Y-129794000D01*
X163576000Y-130302000D02*
X156718000Y-130302000D01*
X152908000Y-108522910D02*
X149225000Y-104839910D01*
X164465000Y-131191000D02*
X163576000Y-130302000D01*
X164465000Y-133350000D02*
X164465000Y-131191000D01*
%TO.N,/A12*%
X156210000Y-93472000D02*
X152400000Y-97282000D01*
X154305000Y-89535000D02*
X156210000Y-91440000D01*
X154305000Y-86995000D02*
X154305000Y-89535000D01*
X152400000Y-97282000D02*
X152400000Y-97790000D01*
X156210000Y-86360000D02*
X154940000Y-86360000D01*
X156210000Y-91440000D02*
X156210000Y-93472000D01*
X159385000Y-83185000D02*
X156210000Y-86360000D01*
X154940000Y-86360000D02*
X154305000Y-86995000D01*
X159385000Y-75565000D02*
X159385000Y-83185000D01*
X160020000Y-74930000D02*
X159385000Y-75565000D01*
X172900000Y-74930000D02*
X160020000Y-74930000D01*
X173355000Y-74475000D02*
X172900000Y-74930000D01*
X173355000Y-73025000D02*
X173355000Y-74475000D01*
X119690990Y-132842000D02*
X137414000Y-132842000D01*
X116049500Y-132842000D02*
X119690990Y-132842000D01*
X138980986Y-129032000D02*
X138198006Y-129814980D01*
X147701000Y-129032000D02*
X138980986Y-129032000D01*
X148844000Y-127889000D02*
X147701000Y-129032000D01*
X148844000Y-111007306D02*
X148844000Y-127889000D01*
X147061347Y-109224653D02*
X148844000Y-111007306D01*
%TO.N,EXROM*%
X154940000Y-97790000D02*
X154940000Y-95885000D01*
X143510000Y-91440000D02*
X143510000Y-94197000D01*
X145415000Y-89535000D02*
X143510000Y-91440000D01*
X143510000Y-94197000D02*
X142875000Y-94832000D01*
X145415000Y-88265000D02*
X145415000Y-89535000D01*
X117475000Y-102870000D02*
X117475000Y-96774000D01*
X117475000Y-96774000D02*
X118999000Y-95250000D01*
%TO.N,/BA14*%
X160020000Y-98425000D02*
X160020000Y-97790000D01*
X161925000Y-106045000D02*
X161925000Y-110490000D01*
X161925000Y-106045000D02*
X160655000Y-104775000D01*
X160655000Y-104775000D02*
X160655000Y-104685000D01*
%TO.N,/BA15*%
X163739957Y-98969957D02*
X162560000Y-97790000D01*
X168275000Y-101600000D02*
X165644957Y-98969957D01*
X165644957Y-98969957D02*
X163739957Y-98969957D01*
X168275000Y-107315000D02*
X168275000Y-101600000D01*
X168910000Y-109855000D02*
X169545000Y-110490000D01*
X168910000Y-107950000D02*
X168910000Y-109855000D01*
X168910000Y-107950000D02*
X168275000Y-107315000D01*
%TO.N,/BA16*%
X172085000Y-111125000D02*
X172085000Y-110490000D01*
X173355000Y-101600000D02*
X172593000Y-100838000D01*
X173355000Y-104267000D02*
X173355000Y-101600000D01*
X165354000Y-97790000D02*
X165100000Y-97790000D01*
X168402000Y-100838000D02*
X165354000Y-97790000D01*
X172085000Y-110490000D02*
X172085000Y-105537000D01*
X172085000Y-105537000D02*
X173355000Y-104267000D01*
X172593000Y-100838000D02*
X168402000Y-100838000D01*
%TO.N,/BA17*%
X179705000Y-106045000D02*
X179705000Y-111125000D01*
X178435000Y-104775000D02*
X179705000Y-106045000D01*
X178435000Y-100965000D02*
X178435000Y-104775000D01*
X169545000Y-100330000D02*
X177800000Y-100330000D01*
X167640000Y-98425000D02*
X169545000Y-100330000D01*
X177800000Y-100330000D02*
X178435000Y-100965000D01*
X167640000Y-97790000D02*
X167640000Y-98425000D01*
%TO.N,/BA18*%
X170180000Y-99060000D02*
X170180000Y-97790000D01*
X170815000Y-99695000D02*
X170180000Y-99060000D01*
X179705000Y-100965000D02*
X178435000Y-99695000D01*
X178435000Y-99695000D02*
X170815000Y-99695000D01*
X179705000Y-103505000D02*
X179705000Y-100965000D01*
%TO.N,Net-(J5-Pad1)*%
X116205000Y-69850000D02*
X116205000Y-67945000D01*
X118110000Y-71755000D02*
X116205000Y-69850000D01*
X117475000Y-80645000D02*
X118110000Y-80010000D01*
X118110000Y-80010000D02*
X118110000Y-71755000D01*
X117475000Y-93948250D02*
X117475000Y-80645000D01*
X112395000Y-105283000D02*
X113665000Y-104013000D01*
X112395000Y-110490000D02*
X112395000Y-105283000D01*
X115554125Y-95869125D02*
X115554125Y-99075875D01*
X115554125Y-99075875D02*
X113665000Y-100965000D01*
X113665000Y-104013000D02*
X113665000Y-100965000D01*
X115554125Y-95869125D02*
X117475000Y-93948250D01*
%TO.N,Net-(J5-Pad2)*%
X118110000Y-66040000D02*
X117475000Y-65405000D01*
X118110000Y-70485000D02*
X118110000Y-66040000D01*
X118745000Y-71120000D02*
X118110000Y-70485000D01*
X117475000Y-65405000D02*
X116205000Y-65405000D01*
X121920000Y-71120000D02*
X118745000Y-71120000D01*
X122555000Y-71755000D02*
X121920000Y-71120000D01*
X122555000Y-73025000D02*
X122555000Y-71755000D01*
%TO.N,Net-(R6-Pad1)*%
X130175000Y-84455000D02*
X130175000Y-80645000D01*
%TO.N,Net-(R7-Pad1)*%
X129540000Y-88265000D02*
X130175000Y-88265000D01*
X131445000Y-81915000D02*
X132715000Y-80645000D01*
X131445000Y-85725000D02*
X131445000Y-81915000D01*
X130175000Y-86995000D02*
X131445000Y-85725000D01*
X130175000Y-88265000D02*
X130175000Y-86995000D01*
%TO.N,Net-(R8-Pad1)*%
X135255000Y-80645000D02*
X135255000Y-79375000D01*
X142875000Y-84455000D02*
X139700000Y-84455000D01*
X139700000Y-84455000D02*
X139065000Y-83820000D01*
X139065000Y-83820000D02*
X139065000Y-79375000D01*
X139065000Y-79375000D02*
X138430000Y-78740000D01*
X135890000Y-78740000D02*
X135255000Y-79375000D01*
X138430000Y-78740000D02*
X135890000Y-78740000D01*
%TO.N,Net-(R9-Pad1)*%
X134302500Y-86677500D02*
X134302500Y-84137500D01*
X132715000Y-88265000D02*
X134302500Y-86677500D01*
X134302500Y-84137500D02*
X135255000Y-83185000D01*
X135255000Y-83185000D02*
X137795000Y-80645000D01*
%TO.N,Net-(R10-Pad1)*%
X140335000Y-80645000D02*
X140335000Y-78740000D01*
X140970000Y-78105000D02*
X145960000Y-78105000D01*
X140335000Y-78740000D02*
X140970000Y-78105000D01*
X148110500Y-78105000D02*
X156210000Y-78105000D01*
X156210000Y-78105000D02*
X156845000Y-78740000D01*
X156845000Y-78740000D02*
X156845000Y-83820000D01*
X156210000Y-84455000D02*
X155575000Y-84455000D01*
X156845000Y-83820000D02*
X156210000Y-84455000D01*
%TO.N,Net-(R11-Pad1)*%
X187071000Y-80121000D02*
X187035000Y-80085000D01*
X187071000Y-85090000D02*
X187071000Y-80121000D01*
X187035000Y-80085000D02*
X187035000Y-73585000D01*
%TO.N,/~RESET*%
X159385000Y-106842125D02*
X160092115Y-106135010D01*
X159385000Y-110490000D02*
X159385000Y-106842125D01*
X159385000Y-110490000D02*
X159766000Y-110871000D01*
X152400000Y-131073306D02*
X152400000Y-117475000D01*
X158750000Y-137423306D02*
X152400000Y-131073306D01*
X187071000Y-100928000D02*
X187071000Y-100711000D01*
X184494000Y-103505000D02*
X187071000Y-100928000D01*
X187071000Y-95250000D02*
X187071000Y-100711000D01*
%TO.N,/~ROMCS*%
X175895000Y-123190000D02*
X175895000Y-128016000D01*
X175895000Y-128016000D02*
X173355000Y-130556000D01*
X177165000Y-121920000D02*
X175895000Y-123190000D01*
X158496000Y-128778000D02*
X157791690Y-128073690D01*
X168148000Y-128778000D02*
X158496000Y-128778000D01*
X157791690Y-128073690D02*
X157791690Y-114769489D01*
X169926000Y-130556000D02*
X168148000Y-128778000D01*
X173355000Y-130556000D02*
X169926000Y-130556000D01*
X137160000Y-114300000D02*
X144780000Y-114300000D01*
X144780000Y-114300000D02*
X146812000Y-114300000D01*
X125095000Y-113665000D02*
X125095000Y-114300000D01*
X123825000Y-112395000D02*
X125095000Y-113665000D01*
X123825000Y-106680000D02*
X123825000Y-112395000D01*
X122555000Y-105410000D02*
X123825000Y-106680000D01*
X122555000Y-102870000D02*
X122555000Y-105410000D01*
%TO.N,/~IORQ*%
X152400000Y-136525000D02*
X152400000Y-136369500D01*
X174625000Y-133350000D02*
X174625000Y-132207000D01*
X174625000Y-132207000D02*
X173736000Y-131318000D01*
X173736000Y-131318000D02*
X172466000Y-131318000D01*
X152400000Y-142367000D02*
X152400000Y-138430000D01*
X152400000Y-137160000D02*
X152400000Y-136525000D01*
X152400000Y-138430000D02*
X152400000Y-137160000D01*
X112395000Y-123370000D02*
X112395000Y-121920000D01*
X112395000Y-129068999D02*
X112395000Y-123370000D01*
X114607002Y-131281001D02*
X112395000Y-129068999D01*
X115934022Y-131264980D02*
X115918001Y-131281001D01*
X149482982Y-131264980D02*
X115934022Y-131264980D01*
X152400000Y-134181998D02*
X149482982Y-131264980D01*
X115918001Y-131281001D02*
X114607002Y-131281001D01*
X152400000Y-136525000D02*
X152400000Y-134181998D01*
%TO.N,Net-(U3-Pad3)*%
X125095000Y-101420000D02*
X124730001Y-101055001D01*
X125095000Y-102870000D02*
X125095000Y-101420000D01*
X124730001Y-101055001D02*
X119162999Y-101055001D01*
X119162999Y-101055001D02*
X118745000Y-101473000D01*
X118745000Y-106553000D02*
X116205000Y-109093000D01*
X116205000Y-109093000D02*
X116205000Y-121700000D01*
X116205000Y-121700000D02*
X115985000Y-121920000D01*
X118745000Y-101473000D02*
X118745000Y-106553000D01*
X115985000Y-121920000D02*
X114935000Y-121920000D01*
%TO.N,Net-(U3-Pad10)*%
X120015000Y-113030000D02*
X118745000Y-111760000D01*
X120015000Y-114300000D02*
X120015000Y-113030000D01*
X120015000Y-107823000D02*
X118745000Y-109093000D01*
X120015000Y-102870000D02*
X120015000Y-107823000D01*
X118745000Y-111760000D02*
X118745000Y-109093000D01*
%TO.N,Net-(U3-Pad12)*%
X114935000Y-114300000D02*
X114935000Y-113030000D01*
X114935000Y-113030000D02*
X114300000Y-112395000D01*
X114300000Y-112395000D02*
X110490000Y-112395000D01*
X109855000Y-111760000D02*
X109855000Y-110490000D01*
X110490000Y-112395000D02*
X109855000Y-111760000D01*
%TO.N,Net-(U3-Pad6)*%
X120015000Y-111760000D02*
X120015000Y-110490000D01*
X121285000Y-113030000D02*
X120015000Y-111760000D01*
X122555000Y-116840000D02*
X121285000Y-115570000D01*
X122555000Y-121920000D02*
X122555000Y-116840000D01*
X121285000Y-115570000D02*
X121285000Y-113030000D01*
%TO.N,/~RD*%
X146050000Y-115062000D02*
X136398000Y-115062000D01*
X154940000Y-134620000D02*
X154940000Y-142367000D01*
X151130000Y-130810000D02*
X154940000Y-134620000D01*
X151130000Y-115697000D02*
X151130000Y-130810000D01*
X150495000Y-115062000D02*
X151130000Y-115697000D01*
%TO.N,/OUT_31*%
X182245000Y-102870000D02*
X182245000Y-104140000D01*
X182245000Y-104140000D02*
X180975000Y-105410000D01*
X180975000Y-105410000D02*
X180975000Y-124460000D01*
%TO.N,/BANK0*%
X166370000Y-116205000D02*
X165100000Y-116205000D01*
X164465000Y-116840000D02*
X164465000Y-121920000D01*
X165100000Y-116205000D02*
X164465000Y-116840000D01*
X169672000Y-102997000D02*
X169545000Y-102870000D01*
X169672000Y-108204012D02*
X169672000Y-102997000D01*
%TO.N,/BANK1*%
X167005000Y-123190000D02*
X167005000Y-121920000D01*
X166370000Y-123825000D02*
X167005000Y-123190000D01*
X163830000Y-123825000D02*
X166370000Y-123825000D01*
X163195000Y-123190000D02*
X163830000Y-123825000D01*
X161925000Y-102870000D02*
X161925000Y-104775000D01*
X161925000Y-104775000D02*
X163195000Y-106045000D01*
X163195000Y-106045000D02*
X163195000Y-123190000D01*
%TO.N,/~WR*%
X157480000Y-137668000D02*
X157480000Y-142367000D01*
%TO.N,/~M1*%
X170180000Y-142367000D02*
X170180000Y-138307000D01*
X170180000Y-138307000D02*
X170565000Y-137922000D01*
X170565000Y-137922000D02*
X173990000Y-137922000D01*
%TO.N,/CARTRIDGE_EN*%
X158016500Y-106651500D02*
X159258000Y-105410000D01*
X158016500Y-108458000D02*
X158016500Y-106651500D01*
X136415892Y-113538000D02*
X136452892Y-113575000D01*
X136398000Y-113538000D02*
X136415892Y-113538000D01*
X136398000Y-113538000D02*
X145923000Y-113538000D01*
X145923000Y-113538000D02*
X146050000Y-113538000D01*
%TO.N,Net-(R13-Pad1)*%
X105065000Y-80085000D02*
X105065000Y-73585000D01*
X105029000Y-80121000D02*
X105065000Y-80085000D01*
X105029000Y-84963000D02*
X105029000Y-80121000D01*
%TO.N,/~NMI*%
X139065000Y-112351933D02*
X139095147Y-112382080D01*
X139065000Y-107315000D02*
X139065000Y-112351933D01*
X144780000Y-142367000D02*
X144780000Y-133985000D01*
X139065000Y-116205000D02*
X139065000Y-122882994D01*
X139065000Y-122882994D02*
X143001996Y-126819990D01*
X107950000Y-98044000D02*
X107950000Y-102079500D01*
X105029000Y-95123000D02*
X107950000Y-98044000D01*
%TD*%
M02*
